<svg xmlns="http://www.w3.org/2000/svg" xmlns:xlink="http://www.w3.org/1999/xlink" viewBox="0 0 842.01 372.61"><defs><style>.cls-1,.cls-11,.cls-13,.cls-15{fill:none;}.cls-2{fill:#86fed4;}.cls-3{fill:#e7fff6;}.cls-4{fill:#cfffee;}.cls-5{fill:#b6fee5;}.cls-6{fill:url(#dots);}.cls-16,.cls-18,.cls-7{fill:#fff;}.cls-11,.cls-12,.cls-13,.cls-14,.cls-15,.cls-16,.cls-7,.cls-9{stroke:#3f3a37;}.cls-12,.cls-14,.cls-15,.cls-7{stroke-linejoin:round;}.cls-10,.cls-11,.cls-12,.cls-16,.cls-7,.cls-8{stroke-width:2px;}.cls-12,.cls-14,.cls-19,.cls-8,.cls-9{fill:#3f3a37;}.cls-10,.cls-8{stroke:#fff;}.cls-10,.cls-11,.cls-13,.cls-16,.cls-8,.cls-9{stroke-miterlimit:10;}.cls-10{fill:#f7f7f7;}.cls-17{fill:#575350;}.cls-20{fill:#3f3f3f;}.cls-21{fill:#1a1a1a;}.cls-22{fill:#2e2e2e;}.cls-23{fill:#070707;}</style><pattern id="dots" data-name="dots" width="19.21" height="19.21" patternTransform="translate(13.98 6.66)" patternUnits="userSpaceOnUse" viewBox="0 0 19.21 19.21"><rect class="cls-1" width="19.21" height="19.21"/><circle class="cls-2" cx="9.6" cy="9.6" r="4.6"/></pattern></defs><title>Article_Productivity</title><g id="Layer_2" data-name="Layer 2"><g id="otter_drawing"><path class="cls-3" d="M842,168.08V314.8a424,424,0,0,1-14.24,57.81H14.47A422.91,422.91,0,0,1,0,313.47V169.41A424.51,424.51,0,0,1,68.69,0H773.55A424.66,424.66,0,0,1,842,168.08Z"/><path class="cls-4" d="M747.52,241.44a325.22,325.22,0,0,1-27.43,131.17H122.15A326.71,326.71,0,0,1,201.47,0h439.3A325.56,325.56,0,0,1,747.52,241.44Z"/><path class="cls-5" d="M643.42,241.44a221.3,221.3,0,0,1-42.8,131.17h-359a221.3,221.3,0,0,1-42.8-131.17c0-122.77,99.53-222.3,222.3-222.3S643.42,118.67,643.42,241.44Z"/><circle class="cls-2" cx="421.12" cy="241.44" r="124.7"/><rect class="cls-6" width="842.01" height="372.61"/><polyline class="cls-7" points="456.43 328.08 373.57 328.39 401.3 202.1 435.26 200.5"/><path class="cls-8" d="M353.31,317.32c-2.52,1.18-6.85-2.69-9.85-8.72l-.68.53c2.78,6.23,3,12.13.44,13.32s-7-2.81-10-9c-.28.07-.55.13-.81.17v0c3,6.45,3.31,12.67.68,13.9s-7.2-3-10.2-9.47c-1.85-3.94-2.68-7.8-2.44-10.48-.16-4.25,3.95-9.36,10.28-12.31,4.91-2.31,9.93-2.73,13.42-1.46l.15,0c2.6.76,5.92,4.45,8.28,9.52C355.63,309.87,355.94,316.09,353.31,317.32Z"/><path class="cls-8" d="M484.86,319.72c2.54,1.12,6.79-2.83,9.67-8.91.22.17.45.35.69.51-2.66,6.29-2.75,12.18-.18,13.33s6.91-2.95,9.8-9.17l.81.15v0c-2.88,6.52-3.06,12.75-.41,13.92s7.14-3.15,10-9.66c1.76-4,2.52-7.86,2.22-10.53.08-4.25-4.12-9.29-10.51-12.11-5-2.21-10-2.53-13.45-1.19l-.15.05c-2.58.8-5.83,4.56-8.09,9.68C482.39,312.31,482.2,318.54,484.86,319.72Z"/><path class="cls-7" d="M437.84,171.11a20.93,20.93,0,0,1,2.8,8.42q.06.45.09.9a23.31,23.31,0,0,1-2,12.85,30.3,30.3,0,0,1-5.55,8.64c-9.93,11.18-16.68,16.08-25,14.06-3.94-1-6.81-3-7.75-5.26-4.79-11.7-8.93-20.36-7.19-30.35v0c.48-2.66,2.78-7,4-9.36a3.49,3.49,0,0,1,.18-.31,21.71,21.71,0,0,1,5.7-5.25,31.22,31.22,0,0,1,19.44-4.27A20.32,20.32,0,0,1,437.84,171.11Z"/><path class="cls-9" d="M445.49,191.34c-.74,1.83-3.13,2.73-6.08,2.55.14-.27.27-.55.39-.82a20.84,20.84,0,0,0,2-8.65C444.77,186.48,446.35,189.23,445.49,191.34Z"/><path class="cls-9" d="M388.33,179.13c-.22,2,1.45,3.89,4.13,5.14,0-.3,0-.6.05-.91a20.72,20.72,0,0,1,2.39-8.54C391.29,175.21,388.58,176.86,388.33,179.13Z"/><circle class="cls-9" cx="406.59" cy="183.36" r="1.91"/><ellipse class="cls-9" cx="411.41" cy="206.95" rx="4.3" ry="5.73" transform="translate(140.35 579.26) rotate(-80.65)"/><circle class="cls-9" cx="426.34" cy="187.93" r="1.91"/><path class="cls-10" d="M244.64,162.22c-4.14,0-8.29,0-12.43,0a4.92,4.92,0,0,1-4.12-2c-2.17-2.75-4.38-5.46-6.57-8.19l-6.8-8.46c-.71-.89-1.4-1.79-2.13-2.65a4.61,4.61,0,0,1-1-4.24q2.44-10.53,4.86-21.07c.27-1.18.53-2.35.82-3.52a4.22,4.22,0,0,1,2.35-2.91c3.76-1.81,7.53-3.6,11.3-5.4l11.65-5.58a4.64,4.64,0,0,1,4.23,0l20.27,9.69c.75.36,1.48.73,2.24,1.06a4.85,4.85,0,0,1,2.93,3.7c1.19,5.31,2.43,10.62,3.65,15.93.63,2.71,1.24,5.43,1.89,8.15a4.85,4.85,0,0,1-1.19,4.43c-2.32,2.82-4.58,5.69-6.87,8.53l-7.14,8.88L261,160.49a4.38,4.38,0,0,1-3.55,1.72C253.21,162.23,248.92,162.22,244.64,162.22Z"/><path class="cls-10" d="M243.63,111.38a25.12,25.12,0,0,0-.32-3,2,2,0,0,1,.37-1.81A1.33,1.33,0,0,1,246,107a3.22,3.22,0,0,1,0,1.82,15.11,15.11,0,0,0-.26,2.85.89.89,0,0,0,.14.54,1.48,1.48,0,0,1,.38.82c0,.17.2.17.34.19a17.89,17.89,0,0,1,8.92,3.56,19.62,19.62,0,0,1,2,1.7c.18.17.31.22.51,0a.48.48,0,0,1,.37-.17,1.65,1.65,0,0,0,1.42-.66c.56-.53,1.11-1.07,1.62-1.65a3.18,3.18,0,0,1,1.29-1,1.39,1.39,0,0,1,1.63.53,1.47,1.47,0,0,1-.17,1.72,4.76,4.76,0,0,1-1.31,1,15.07,15.07,0,0,0-2.2,1.43,1,1,0,0,0-.47.79c0,.21-.15.32-.28.43a.31.31,0,0,0-.07.48,17.74,17.74,0,0,1,2.59,6.52,18.53,18.53,0,0,1,.17,5.36c0,.23,0,.34.24.38a.38.38,0,0,1,.28.14c.44.69,1.18.67,1.85.79.9.17,1.82.11,2.71.3a1.74,1.74,0,0,1,1,.47,1.33,1.33,0,0,1,.39,1.45,1.51,1.51,0,0,1-1.29.91,3.43,3.43,0,0,1-1.48-.32,17,17,0,0,0-2.69-.91,1.19,1.19,0,0,0-1,.11.38.38,0,0,1-.34.06c-.33-.1-.44.08-.54.37a17.91,17.91,0,0,1-4.94,7.47,15.08,15.08,0,0,1-2.52,1.89c-.25.16-.38.31-.22.6a.37.37,0,0,1,0,.31,1.5,1.5,0,0,0,.19,1.22,20.31,20.31,0,0,0,1.41,2.26,3.3,3.3,0,0,1,.61,1.23,1.41,1.41,0,0,1-.82,1.69,1.46,1.46,0,0,1-1.74-.67,5.42,5.42,0,0,1-.56-1.37,14.71,14.71,0,0,0-.93-2.5,1.06,1.06,0,0,0-.65-.61.44.44,0,0,1-.31-.27c-.1-.28-.27-.28-.52-.19a16.64,16.64,0,0,1-4.67,1,17.82,17.82,0,0,1-7.2-.95l-.26-.1c-.19-.08-.32-.05-.4.15a.72.72,0,0,1-.49.42.85.85,0,0,0-.47.46,14.14,14.14,0,0,0-1,2.65,3.73,3.73,0,0,1-.75,1.58,1.4,1.4,0,0,1-1.74.34,1.46,1.46,0,0,1-.58-1.75,4.47,4.47,0,0,1,.63-1.18,16.19,16.19,0,0,0,1.47-2.43,1,1,0,0,0,.09-.85.56.56,0,0,1,0-.52c.15-.26,0-.38-.19-.52a17.83,17.83,0,0,1-3.57-2.91,17.59,17.59,0,0,1-3.91-6.36c-.11-.32-.22-.55-.61-.4a.29.29,0,0,1-.27-.06,1.47,1.47,0,0,0-1.23-.09,19.18,19.18,0,0,0-2.45.85,3.22,3.22,0,0,1-1.65.32,1.39,1.39,0,0,1-1.21-1,1.36,1.36,0,0,1,.58-1.42,2.87,2.87,0,0,1,1.61-.46,17.44,17.44,0,0,0,2.88-.36,1.11,1.11,0,0,0,.76-.48.69.69,0,0,1,.46-.3c.2,0,.25-.15.23-.36a17.77,17.77,0,0,1,2.64-11.84c.15-.25.22-.42-.08-.6a.35.35,0,0,1-.17-.3,1.43,1.43,0,0,0-.74-1,16.57,16.57,0,0,0-2.15-1.36,3.24,3.24,0,0,1-1.23-1,1.37,1.37,0,0,1,1.71-2,4.81,4.81,0,0,1,1.45,1.24,12.6,12.6,0,0,0,1.88,1.77.93.93,0,0,0,.79.23c.21-.05.34.07.48.18a.25.25,0,0,0,.39,0,17.54,17.54,0,0,1,10.27-5.24,3,3,0,0,1,.42-.06c.37,0,.7,0,.69-.54a.25.25,0,0,1,.06-.16A1.36,1.36,0,0,0,243.63,111.38Z"/><path class="cls-10" d="M249.59,135.94a1.2,1.2,0,0,1,1.36-1.17l5.94,1a9.09,9.09,0,0,0,.91.15c.37,0,.34.18.23.45a14.19,14.19,0,0,1-5.28,6.61c-.21.15-.31.16-.43-.12q-1.24-3-2.51-6.1A2.08,2.08,0,0,1,249.59,135.94Z"/><path class="cls-10" d="M242.91,117.32c-.12,1.89-.23,3.74-.34,5.59a9.72,9.72,0,0,1-.09,1.31,1.18,1.18,0,0,1-1.83.84c-.67-.4-1.29-.88-1.92-1.33-1.25-.88-2.49-1.77-3.74-2.64-.25-.18-.32-.28-.06-.52a14.29,14.29,0,0,1,7.67-3.65C243,116.86,242.89,117.15,242.91,117.32Z"/><path class="cls-10" d="M230.36,131.05a14.65,14.65,0,0,1,1.92-7.16c.12-.22.22-.25.42-.07,1.27,1.15,2.56,2.28,3.83,3.43a12,12,0,0,1,1.42,1.33,1.16,1.16,0,0,1-.52,1.92c-.75.28-1.53.47-2.31.7l-4.29,1.24c-.38.11-.4.09-.42-.3S230.37,131.34,230.36,131.05Z"/><path class="cls-10" d="M259,131.21c0,.32-.07.64-.07,1s-.08.34-.36.26l-4-1.15-2.32-.67a4.24,4.24,0,0,1-.5-.18,1.18,1.18,0,0,1-.39-1.9c.62-.66,1.33-1.21,2-1.82,1.05-1,2.13-1.91,3.19-2.87.21-.19.31-.21.46.06a14.18,14.18,0,0,1,1.91,6.5A7.38,7.38,0,0,1,259,131.21Z"/><path class="cls-10" d="M244.67,145.45a15.58,15.58,0,0,1-4.23-.68c-.26-.08-.26-.18-.15-.39,1.11-2,2.21-4,3.33-6a1.2,1.2,0,0,1,2.19.06c.4.65.75,1.34,1.13,2,.71,1.29,1.42,2.59,2.15,3.88.16.28.09.38-.2.46a13.81,13.81,0,0,1-3.55.59C245.11,145.39,244.89,145.43,244.67,145.45Z"/><path class="cls-10" d="M238.42,134.8c1,0,1.54.68,1.29,1.54a26.7,26.7,0,0,1-1.08,2.73c-.5,1.24-1,2.47-1.53,3.71-.12.29-.22.32-.48.14a14.28,14.28,0,0,1-5.22-6.52c-.15-.4-.15-.4.27-.47l6.46-1.1Z"/><path class="cls-10" d="M246.47,117.42c0-.52,0-.54.43-.48a14.53,14.53,0,0,1,7,3.2c.18.15.33.33.52.47s.18.28,0,.43c-1,.7-2,1.42-3,2.13-.82.58-1.64,1.17-2.46,1.74a1.27,1.27,0,0,1-1.84-.16,1.92,1.92,0,0,1-.27-1.12c-.08-1.48-.13-3-.24-4.46A11.64,11.64,0,0,0,246.47,117.42Z"/><polygon class="cls-10" points="243.8 129.16 242.68 130.56 243.08 132.31 244.7 133.09 246.31 132.31 246.71 130.56 245.59 129.16 243.8 129.16"/><path class="cls-11" d="M240.42,167c-4.14,0-8.29,0-12.43,0a4.94,4.94,0,0,1-4.12-2c-2.17-2.75-4.37-5.46-6.57-8.19l-6.8-8.46c-.71-.89-1.4-1.79-2.13-2.65a4.58,4.58,0,0,1-1-4.24q2.45-10.53,4.85-21.07c.27-1.18.53-2.35.82-3.52a4.24,4.24,0,0,1,2.35-2.91l11.3-5.4L238.36,103a4.66,4.66,0,0,1,4.24,0q10.13,4.86,20.26,9.69c.75.36,1.49.74,2.25,1.06a4.89,4.89,0,0,1,2.93,3.7c1.18,5.31,2.42,10.62,3.64,15.93.63,2.71,1.24,5.43,1.89,8.15a4.85,4.85,0,0,1-1.19,4.43c-2.32,2.82-4.58,5.69-6.87,8.53l-7.14,8.88-1.55,1.93a4.38,4.38,0,0,1-3.55,1.72C249,167,244.7,167,240.42,167Z"/><path class="cls-11" d="M239.42,116.19a23.28,23.28,0,0,0-.33-3,2,2,0,0,1,.37-1.81,1.33,1.33,0,0,1,2.28.41,3.22,3.22,0,0,1,0,1.82,15.11,15.11,0,0,0-.26,2.85.89.89,0,0,0,.14.54,1.42,1.42,0,0,1,.38.82c0,.17.2.17.34.19a17.89,17.89,0,0,1,8.92,3.56,21,21,0,0,1,1.95,1.7c.18.17.31.22.51,0a.48.48,0,0,1,.37-.17,1.68,1.68,0,0,0,1.43-.66,22.77,22.77,0,0,0,1.61-1.65,3.18,3.18,0,0,1,1.29-1,1.41,1.41,0,0,1,1.64.53,1.49,1.49,0,0,1-.18,1.72,4.76,4.76,0,0,1-1.31,1,15.62,15.62,0,0,0-2.2,1.43,1,1,0,0,0-.47.79c0,.21-.15.32-.28.43a.31.31,0,0,0-.07.48,17.74,17.74,0,0,1,2.59,6.52,18.53,18.53,0,0,1,.17,5.36c0,.23,0,.34.24.38a.38.38,0,0,1,.28.14c.44.69,1.18.67,1.85.79.9.17,1.82.11,2.71.3a1.74,1.74,0,0,1,1,.47,1.31,1.31,0,0,1,.39,1.45,1.49,1.49,0,0,1-1.29.91,3.43,3.43,0,0,1-1.48-.32,17.27,17.27,0,0,0-2.68-.91,1.21,1.21,0,0,0-1,.11.38.38,0,0,1-.34.06c-.33-.09-.44.08-.54.37a18,18,0,0,1-4.93,7.47,16.64,16.64,0,0,1-2.52,1.9c-.26.15-.39.3-.23.59a.37.37,0,0,1,0,.31,1.5,1.5,0,0,0,.19,1.22,20.31,20.31,0,0,0,1.41,2.26,3.3,3.3,0,0,1,.61,1.23,1.41,1.41,0,0,1-.82,1.69,1.46,1.46,0,0,1-1.74-.67,5.64,5.64,0,0,1-.56-1.37A15.58,15.58,0,0,0,248,154a1.1,1.1,0,0,0-.66-.61.43.43,0,0,1-.3-.27c-.11-.28-.28-.28-.53-.19a16.64,16.64,0,0,1-4.67,1,17.75,17.75,0,0,1-7.19-1l-.27-.1a.26.26,0,0,0-.4.15.72.72,0,0,1-.49.42.88.88,0,0,0-.47.46,14.87,14.87,0,0,0-1,2.65,3.82,3.82,0,0,1-.75,1.59,1.41,1.41,0,0,1-1.74.33,1.46,1.46,0,0,1-.58-1.75,4.47,4.47,0,0,1,.63-1.18,15.4,15.4,0,0,0,1.47-2.43,1,1,0,0,0,.09-.85.57.57,0,0,1,0-.51c.15-.27,0-.39-.19-.53a18.08,18.08,0,0,1-7.48-9.27c-.11-.32-.22-.55-.61-.4a.3.3,0,0,1-.27-.06,1.47,1.47,0,0,0-1.23-.09,19.18,19.18,0,0,0-2.45.85,3.22,3.22,0,0,1-1.65.32,1.36,1.36,0,0,1-1.2-1,1.35,1.35,0,0,1,.57-1.42,2.87,2.87,0,0,1,1.61-.46,17.31,17.31,0,0,0,2.88-.36,1.09,1.09,0,0,0,.76-.48.71.71,0,0,1,.46-.3c.2,0,.25-.15.23-.36a17.77,17.77,0,0,1,2.64-11.84c.15-.24.23-.42-.08-.6a.37.37,0,0,1-.17-.29,1.45,1.45,0,0,0-.73-1,17.39,17.39,0,0,0-2.16-1.36,3.32,3.32,0,0,1-1.23-1,1.42,1.42,0,0,1,.06-1.72,1.44,1.44,0,0,1,1.66-.32,4.89,4.89,0,0,1,1.44,1.24,12.6,12.6,0,0,0,1.88,1.77,1,1,0,0,0,.8.23c.2,0,.33.08.47.18a.26.26,0,0,0,.4,0,17.51,17.51,0,0,1,10.27-5.24c.14,0,.28,0,.42-.06.36,0,.69,0,.68-.54a.25.25,0,0,1,.06-.16A1.39,1.39,0,0,0,239.42,116.19Z"/><path class="cls-11" d="M245.37,140.74a1.2,1.2,0,0,1,1.36-1.17c2,.32,4,.66,5.94,1,.31.05.61.13.91.15s.35.18.24.45a14.83,14.83,0,0,1-1.93,3.43,14.3,14.3,0,0,1-3.36,3.18c-.21.15-.31.16-.42-.12-.83-2-1.68-4.06-2.52-6.1A2.08,2.08,0,0,1,245.37,140.74Z"/><path class="cls-11" d="M238.69,122.12c-.12,1.89-.23,3.74-.34,5.59a9.72,9.72,0,0,1-.09,1.31,1.18,1.18,0,0,1-1.83.84c-.67-.4-1.29-.88-1.92-1.33-1.25-.88-2.49-1.77-3.74-2.64-.25-.18-.32-.28-.05-.52a14.22,14.22,0,0,1,7.66-3.65C238.79,121.66,238.67,122,238.69,122.12Z"/><path class="cls-11" d="M226.14,135.85a14.59,14.59,0,0,1,1.92-7.15c.13-.23.22-.26.42-.08,1.27,1.15,2.56,2.28,3.83,3.43a12,12,0,0,1,1.42,1.33,1.16,1.16,0,0,1-.51,1.92c-.76.28-1.54.47-2.31.7l-4.3,1.24c-.38.11-.4.09-.42-.3S226.15,136.14,226.14,135.85Z"/><path class="cls-11" d="M254.82,136c0,.31-.07.63-.07.95s-.08.34-.35.26l-4-1.15-2.32-.67a4.24,4.24,0,0,1-.5-.18,1.18,1.18,0,0,1-.38-1.9c.61-.66,1.32-1.21,2-1.82,1.06-1,2.14-1.91,3.19-2.87.21-.19.31-.21.46.06a14.18,14.18,0,0,1,1.91,6.5A7.35,7.35,0,0,1,254.82,136Z"/><path class="cls-11" d="M240.45,150.25a15.83,15.83,0,0,1-4.22-.67c-.27-.09-.27-.19-.16-.4,1.11-2,2.21-4,3.33-6a1.2,1.2,0,0,1,2.19.06c.4.65.76,1.34,1.13,2,.72,1.29,1.42,2.59,2.15,3.88.16.28.09.38-.19.46a13.88,13.88,0,0,1-3.56.59Z"/><path class="cls-11" d="M234.2,139.6c1,0,1.54.68,1.29,1.54a26.7,26.7,0,0,1-1.08,2.73c-.5,1.24-1,2.47-1.53,3.71-.11.29-.22.32-.48.14a14.26,14.26,0,0,1-5.21-6.52c-.16-.4-.16-.4.26-.47l6.46-1.1Z"/><path class="cls-11" d="M242.25,122.22c0-.52,0-.54.43-.48a14.53,14.53,0,0,1,7,3.2c.18.15.34.33.52.48s.18.28,0,.42c-1,.7-2,1.42-3,2.13-.82.58-1.63,1.17-2.46,1.74a1.26,1.26,0,0,1-1.83-.16,1.93,1.93,0,0,1-.28-1.12c-.08-1.48-.13-3-.24-4.45A11.68,11.68,0,0,0,242.25,122.22Z"/><polygon class="cls-11" points="239.58 133.96 238.47 135.36 238.86 137.11 240.48 137.89 242.09 137.11 242.49 135.36 241.37 133.96 239.58 133.96"/><polyline class="cls-12" points="456.43 328.08 435.26 200.5 441.66 328.08"/><line class="cls-13" x1="413.81" y1="179.95" x2="420" y2="180.97"/><polygon class="cls-14" points="420.28 180.46 438.53 182.5 437.9 184.42 420.28 180.46"/><path class="cls-15" d="M418.77,189.16l1.51-8.7,17.82,3L432,192.71a2.21,2.21,0,0,1-2.52.87l-10-3.28A1,1,0,0,1,418.77,189.16Z"/><polygon class="cls-14" points="414.11 179.27 396.29 174.82 396.22 176.83 414.11 179.27"/><path class="cls-15" d="M412.5,188l1.61-8.68-17.73-3.44,2.52,10.85a2.19,2.19,0,0,0,2.05,1.69l10.51.41A1,1,0,0,0,412.5,188Z"/><rect class="cls-16" x="358.08" y="249.85" width="124.22" height="85.36" rx="12"/><polygon class="cls-17" points="406.66 302.17 406.65 302 406.42 302.34 406.66 302.17"/><path class="cls-17" d="M407,300.66l-.22.07a5.11,5.11,0,0,0-.63,1.59,2.2,2.2,0,0,0,.74-.81c-.08,0-.38.37-.39.2.2-.28.27-.2.52-.57.05-.39-.22.21-.28,0Z"/><path class="cls-17" d="M406.25,301.61c.11-.18.22-.35.3-.5C406.44,301.29,406.25,301.47,406.25,301.61Z"/><path class="cls-17" d="M406.1,301.66c-.06-.08.22-.38.24-.44l-.47.62Z"/><path class="cls-17" d="M405.76,301.42l-.08,0C405.64,301.57,405.7,301.49,405.76,301.42Z"/><path class="cls-17" d="M405.53,301.4c-.09.25,0,.13.15.06l0,0c.06-.22.38-.68.39-.5.14-.06-.13.41.12.14l.11-.45C406.16,300.59,405.69,301.24,405.53,301.4Z"/><path class="cls-17" d="M405.76,301.42s.05,0,.07,0S405.81,301.36,405.76,301.42Z"/><polygon class="cls-17" points="405.91 301.58 406.01 301.5 406.12 301.29 405.91 301.58"/><path class="cls-17" d="M405.22,301.26c.38-.63.17.2.48-.3-.14,0,0-.57.27-.91l-.25.13A3.85,3.85,0,0,0,405.22,301.26Z"/><path class="cls-17" d="M405.89,299.48l-.09.09A.25.25,0,0,0,405.89,299.48Z"/><path class="cls-17" d="M404.6,300.22l.68-.48c-.15.19-.26.4-.37.44.09.16.34-.24.41-.12-.31.63-.22-.06-.46.51.09,0,.22.07.57-.41l-.1.48.33-.68c.06-.22-.4.46-.17,0,.15-.29.23-.32.3-.36-.15.09.08-.64-.13-.65S404.89,300,404.6,300.22Z"/><polygon class="cls-17" points="405.01 299.49 405.14 299.22 404.95 299.57 405.01 299.49"/><path class="cls-17" d="M404.18,300.15l.4-.32a3.64,3.64,0,0,1-.15.34c.08-.16.28-.39.34-.52.27-.64-.3.08-.45.14-.06-.4.2-.32.44-.93.05.05,0,.2,0,.28.25-.75-.28-.23-.46-.11,0,.07-.11.26,0,.23l-.21.15C403.92,299.93,403.93,300.11,404.18,300.15Z"/><path class="cls-17" d="M404.47,300.31c-.09,0-.09-.05,0-.13C404.35,300.35,404.3,300.48,404.47,300.31Z"/><path class="cls-17" d="M404.28,299s0,0,.06,0S404.33,299,404.28,299Z"/><path class="cls-17" d="M404,299.77l-.08-.12-.12.3A.32.32,0,0,0,404,299.77Z"/><path class="cls-17" d="M400.37,296.34c-.14.24-.18.38-.06.39-.22.31-.28.18-.45.33s-.24.36-.41.68c.11.11.43-.26.5-.09a1.79,1.79,0,0,0-.2.34c.29-.1.74-.22.72.15.08.21.28.13.54.09.43.5,1.2.52,1.61,1.18l.45-.58c-.15.33.14.08-.12.48,0-.1-.05-.05-.09-.07-.21.63.36.16.39.44a3.73,3.73,0,0,1,.45-.75c-.42.69.18.1-.24.92,0,.29.36-.6.45-.4.26-.4,0-.29.12-.61s.06.22.31-.22c-.13-.35-1.1.23-1.62.23l.27-.36c-.36.16-.69,0-.46-.74-.19.39-.17-.37-.65.47.07-.21,0-.19,0-.31l-.18.25c-.1-.06.17-.46,0-.5a2,2,0,0,1-.51.72c.11-.47.18-.91.26-1.31a2.35,2.35,0,0,0-.18.44c0-.18-.2.17-.3.28-.09,0,.21-.49.36-.71-.05-.23-.66.6-.59.24l-.19.39c-.2,0-.06-.48-.3-.46.24-.54.4-.34.6-.52,0-.12,0-.19.07-.37-.23.21-.56.49-.8.67C400.62,296.5,400.4,296.41,400.37,296.34Z"/><path class="cls-17" d="M401,296.36l.17-.17s-.07.05-.08,0A.89.89,0,0,0,401,296.36Z"/><path class="cls-17" d="M400.37,296.34l0-.06S400.36,296.32,400.37,296.34Z"/><path class="cls-17" d="M400.47,298.18s0,0,0,0v0Z"/><path class="cls-17" d="M401.63,296.61c-.05.14-.09.3-.13.46A.71.71,0,0,0,401.63,296.61Z"/><path class="cls-17" d="M402.34,297.62a2,2,0,0,0,.21-.28C402.5,297.29,402.41,297.4,402.34,297.62Z"/><polygon class="cls-17" points="400.86 296.16 400.67 296.2 400.56 296.26 400.86 296.16"/><path class="cls-17" d="M397.22,296.44c-.18.5.15.34.23.51.38-.06.65-.91.91-.81l-.63.85c.26.1.47.5,1.17-.15a.79.79,0,0,1-.24.37c.17.06.89-1.21.9-.79-.54.43-.27.56-.68,1.08l-.07,0c.17,0,.52-.15.58-.06.15-.22.31-.62.44-.58s.16-.32.32-.54c-.28.17-.25,0-.51.23.13-.34.11-.07.23-.4l-.27.21c0-.11.26-.25.2-.38-.13.16-.34.29-.4.2l.09-.08c-.14.07-.13-.14-.42.38l.24-.54-.2.34c-.09-.24.37-1.08-.13-.82,0,.14-.18.28-.25.33-.06.29.28-.18.4-.16-.21.34-.62.64-.65.91.15-.47-.25-.1.24-1-.1-.15-.43.22-.44-.07l.08-.12c-.39.53.05-.33-.43.16v.18c-.15.22-.19.2-.27.21a1.3,1.3,0,0,0,.12-.21c-.29.39-.49.34-.59.44s.33-.15.47-.2C397.46,296.22,397.25,296.56,397.22,296.44Z"/><path class="cls-17" d="M399.67,296l-.18.17A.65.65,0,0,0,399.67,296Z"/><path class="cls-17" d="M397,295.31c0-.15.26-.32.29-.55-.28.21-.27.63-.64,1,.1-.28-.27.07-.31.05a5.12,5.12,0,0,0,.59-.86c-.13.12,0-.19-.08-.24-.08.42-.26.11-.37.55s-.52.43-.41.16.17-.14.21-.13c.32-.4.07-.29.31-.69-.54.49-1,.14-1.49,1.17-.08.21.12,0,.2,0,0-.29.34-.5.47-.66,0,.2.28,0,0,.29l-.35.28a1.68,1.68,0,0,0,1.14.75l-.15-.13a.85.85,0,0,1,.43-.29l.34-.68c0,.08.12,0,0,.24a2,2,0,0,0,.43-.64c.19,0,0,.22.41-.12.15-.65-.45.31-.37-.29Z"/><polygon class="cls-17" points="397.7 295.26 397.44 295.54 397.62 295.44 397.7 295.26"/><path class="cls-17" d="M396.7,296.59c.09-.14.16-.18.25-.32S396.8,296.31,396.7,296.59Z"/><path class="cls-17" d="M396.53,294.47l-.19,0v.17A.5.5,0,0,1,396.53,294.47Z"/><path class="cls-17" d="M394.58,295.51c.21.06.48-.19.44.26.38-.34.49-.79.79-1.13,0-.15-.5.54-.68.6.2-.37-.2,0-.23-.16A2.83,2.83,0,0,1,394.58,295.51Z"/><path class="cls-17" d="M395,293.84c-.05,0-.35.15-.25,0s.31-.23.29-.16c.43-.44-.12,0,.14-.28a1.77,1.77,0,0,1-.23.21c0-.19-.5.25-.39-.09a2.64,2.64,0,0,0-.58.27,7.63,7.63,0,0,1,.78-.61c-.25.11-.77.4-1.28.65.24-.26.17-.28.06-.3s-.23,0,0-.17c0,0,.22,0,.18,0,.82-.28-.26,0-.17-.14l.77-.18c-.15,0-.8,0-.25-.13l.44,0c-.76,0-.6-.14-1.07-.21l.67,0a3.53,3.53,0,0,0-1.11,0h-.44l-.35,0c1.87,0-.48-.1.39-.18s.24.1,1.1.1c-.88-.06-.2-.05-.41-.11a10.65,10.65,0,0,1,1.09.05,8,8,0,0,1-1.24-.34c.45.05.44,0,.38-.06-.14.09-1-.28-1.48-.21,0,.27-.06.54-.63.78a.1.1,0,0,1,0,.09c1.23,0,.21.16,1.19.14l-1,.11c.46.14.55-.09,1-.08.22,0-.36.16-.75.2.11.13.31,0,.95,0-.36.07-.7.15-1,.24.45.18,1,.33,1.38.49s.66.32.76.67l.35-.37c0,.17.3,0,.49,0s.3-.11.06.39l.32-.31c-.18.18-.4.65-.66.89.16-.1.11.1.26,0l0-.27c.33-.3.25,0,.06.3.46-.3.41-.78.63-1.15-.8.59.35-.88,0-.63S395.22,293.64,395,293.84Z"/><path class="cls-17" d="M394.44,295.11l.11-.08A.48.48,0,0,0,394.44,295.11Z"/><path class="cls-17" d="M393.58,292.08a0,0,0,0,0,0-.05C393.46,292,393.54,292,393.58,292.08Z"/><polygon class="cls-17" points="394.9 295.08 394.9 295.07 394.9 295.08 394.9 295.08"/><polygon class="cls-17" points="395.72 294.14 395.67 294.08 395.55 294.28 395.72 294.14"/><path class="cls-17" d="M394.74,292l-.26-.13C394.56,291.93,394.64,292,394.74,292Z"/><path class="cls-17" d="M396.11,291.26h0S396.11,291.28,396.11,291.26Z"/><path class="cls-17" d="M400,288.11a1.59,1.59,0,0,0,0-.86l.13.23a1.36,1.36,0,0,0-.39-1l.08.22c0,.43-.33-.32-.54-.39-.08.19.36,1.1.11,1,0,.06-.17-.18-.26-.36-.16,0,.19.7.16.84-1.09-1.7-.1.7-.95-.28,0,.21-.28.16-.22.59-.19-.48-.16,0-.43-.45.58,1-.7-.17.06,1.09-.42-.22,0,.09-.37-.06-.09-.14-.05-.16-.05-.2-.26-.2.2.62-.24.1-.24,0,.19.36.3.76-.29,0-.34-.22-.78-.66.37.6.07.39.18.75a.38.38,0,0,1,.3.32c-.28.05.08.51,0,.8-.54-.58.19-.15-.33-.55-.07-.39,0-.42-.2-.94-.19.08-.34.32-.35.72-.16,0-.15-.34-.27-.34-.38-.16.16.85-.19.67l-.19-.35c.21.5-.4.12-.4.49a1.56,1.56,0,0,1,.28.37c-.57-.83.06.6-.52.13a2,2,0,0,1,.41,1c-.13-.13-.29-.33-.4-.46.35.21-.26-.67-.3-1,.09.34-.34.23-.14.65l-.29-.4c-.26.09.65.92.15.69L394,291a3.86,3.86,0,0,1-.75.31c-.25.12-.42.3-.06.54s1.31.31,1.57.41a3.8,3.8,0,0,1-.9-.66l.58.3c-.39-.21-.47-.45-.84-.56-.17-.24.54.23.35,0,.52.37.53.45,1,.74l-.21-.22c.19.15.21.1.4.26-.27-.26-.16-.25,0-.19s.27.17.2,0l-.13,0c-.23-.24-.17-.24-.21-.33a4.36,4.36,0,0,0,.48.41c-.1-.25-.38-.79-.27-.86.34.54.38.15.71.58-.34-.54.08-.33-.11-.65,0-.14.11-.14.3.14a.41.41,0,0,1,0,.12l.08,0a.62.62,0,0,1,.06.12c.06,0-.2-.41.05-.19a.26.26,0,0,1,.06.23c.2,0-.29-1,.15-.56-.14-.27,0-.4-.41-.93.18.16.46.62.53.46-.25-.52.25.08.14-.28.21.58.09.14.3.68.21.14-.09-.57.11-.58l.27.35c-.06-.2-.25-.63.06-.27l-.23-.33c.21.11.28-.09.62.21l-.29-.72c.6.58.43-.17.18-.85a.4.4,0,0,1,.34.19l.08.28c.11,0,.45.27.16-.3,0-.22.3.33.43.38-.29-.88.89.22.23-1-.08,0-.37-.1-.49,0,0-.17-.22-.38-.18-.44s.46.24.49,0l.44.75C400,289.07,399.15,287.16,400,288.11Z"/><path class="cls-17" d="M398.12,289.25l.34.3-.21-.31C398.25,289.31,398.22,289.34,398.12,289.25Z"/><path class="cls-17" d="M398.25,289.24a1.08,1.08,0,0,0,0-.19s0,0,0,.11Z"/><path class="cls-17" d="M400.34,287.73c.05,0,.13,0,.13-.07S400.3,287.6,400.34,287.73Z"/><polygon class="cls-17" points="400.34 287.43 400.21 287.34 400.26 287.43 400.34 287.43"/><path class="cls-17" d="M403.17,285l-.07-.56c.16.22.21-.18.36.27-.19-.62.33-.19-.18-1-.38.55-1.37.48-1.58,1.53l-.08-.38c0,.81-.82-.45-.37.94l-.33-.66c-.25-.1.25,1.08-.29.49l.17.25s-.12-.08-.17-.06l.09.11c0,.31,0,.32-.25.2s0-.11,0-.19c-.16-.18,0,.3-.08.34a.86.86,0,0,1-.21-.38c-.07.42-.57-.18-.18.86.08.18.25.29.21.42.33.21.24-.24.23-.58l0,0c-.42-1,.21.16.16-.35.17.41.08.45.17.67.62.59,0-.71.65.11v0c.08.07,0-.13,0-.24a.93.93,0,0,0-.25-.21,3.86,3.86,0,0,0-.29-.72c.29.38,0-.24.16-.09.25.36.13.39.21.61l0-.31c.08-.09.33.35.49.53-.09-.33-.17-.18-.33-.62.37.41.73,0,.73-.44,0,.09.2.42.08.4.08.08.08-.19-.08-.48,0-.34.29-.26.57-.06l-.2-.27c-.15-.56.49.21.53-.19h0c0-.1-.3-.86-.1-.77A3.76,3.76,0,0,0,403.17,285Z"/><path class="cls-17" d="M403.52,283.91l.15.45c.12.05-.06-.53-.22-.79,0,.11-.16,0,0,.21C403.44,283.83,403.52,284,403.52,283.91Z"/><path class="cls-17" d="M404.87,283.14a2.79,2.79,0,0,0-.15-.39c-.27.2-.55.55-.83.28-.16-.07.14.57.09.78l-.27-.4c.07.3-.37-.05.06.6,0,.06-.11-.35,0-.26l.11.24.09-.15.11.32c.39.33-.33-1,0-.79l.3.6c.17,0,.14-.28.45,0,0,0-.15-.31-.11-.17a1.38,1.38,0,0,1-.27-.43c0-.59.15.37.42.54,0-.51.18-1,.52-.6-.26-.32-.32-.77-.2-.79a1.45,1.45,0,0,1,.22.56c.08,0,.19.17.2.06a1.87,1.87,0,0,1-.39-1C404.82,281.88,405.16,283.08,404.87,283.14Z"/><path class="cls-17" d="M404.69,282.59a.25.25,0,0,0,0,.16l.09-.06Z"/><polygon class="cls-17" points="412.17 301.66 412.33 301.67 411.97 301.47 412.17 301.66"/><path class="cls-17" d="M413.64,302l-.11-.17a7,7,0,0,0-1.6-.6,3.23,3.23,0,0,0,.89.61c0-.05-.41-.31-.25-.3.3.17.23.21.62.44.38.06-.24-.19,0-.22Z"/><path class="cls-17" d="M412.62,301.4c.19.1.36.2.52.27A2.61,2.61,0,0,0,412.62,301.4Z"/><path class="cls-17" d="M412.54,301.29c.07,0,.4.19.46.21l-.66-.4Z"/><path class="cls-17" d="M412.71,301.06l0-.06C412.55,301,412.63,301,412.71,301.06Z"/><path class="cls-17" d="M412.69,300.89c-.25-.09-.12,0,0,.11h0c.22.07.69.34.53.33.09.12-.4-.12-.1.08l.43.13C413.55,301.42,412.87,301,412.69,300.89Z"/><path class="cls-17" d="M412.71,301.06a.06.06,0,0,1,0,.05C412.82,301.13,412.77,301.1,412.71,301.06Z"/><polygon class="cls-17" points="412.59 301.16 412.68 301.24 412.89 301.33 412.59 301.16"/><path class="cls-17" d="M412.76,300.66c.66.35-.15.12.36.39,0-.1.54.08.9.28l-.17-.2A6.15,6.15,0,0,0,412.76,300.66Z"/><path class="cls-17" d="M414.54,301.32a.38.38,0,0,1-.11-.08A.26.26,0,0,0,414.54,301.32Z"/><path class="cls-17" d="M413.62,300.29l.56.55c-.21-.13-.42-.22-.47-.31s.28.27.18.32c-.64-.29,0-.16-.56-.39,0,.06,0,.15.49.46l-.47-.12.7.31c.21.06-.5-.34,0-.13a1,1,0,0,1,.4.26c-.11-.13.61.11.57,0S413.9,300.53,413.62,300.29Z"/><polygon class="cls-17" points="414.37 300.66 414.64 300.78 414.28 300.61 414.37 300.66"/><path class="cls-17" d="M413.6,300l.37.33-.34-.14.54.3c.64.26-.13-.23-.21-.35.36,0,.33.18.94.41,0,0-.19,0-.25,0,.74.26.16-.18,0-.33s-.27-.11-.23-.05l-.17-.16C413.75,299.81,413.59,299.8,413.6,300Z"/><path class="cls-17" d="M413.5,300.18c0-.06,0-.05.12,0C413.45,300.09,413.32,300.05,413.5,300.18Z"/><path class="cls-17" d="M414.67,300.16c-.05,0,0,0,0,0S414.71,300.2,414.67,300.16Z"/><path class="cls-17" d="M413.91,299.85l.1-.05-.31-.11A.51.51,0,0,0,413.91,299.85Z"/><path class="cls-17" d="M416.37,297.43c-.25-.13-.39-.16-.37-.08-.33-.18-.22-.23-.39-.36s-.38-.22-.71-.37c-.08.07.33.34.19.39a2.42,2.42,0,0,0-.36-.19c.15.23.35.58,0,.54-.18,0-.07.2,0,.4-.38.28-.24.86-.77,1.11l.62.39c-.33-.14-.05.1-.46-.13.09,0,0,0,0-.06-.61-.21-.08.25-.34.26a3.82,3.82,0,0,1,.78.4c-.71-.38-.05.13-.89-.26-.26,0,.63.32.46.37.42.23.26,0,.59.15s-.2,0,.25.24c.3-.06-.42-.84-.52-1.23l.39.23c-.22-.28-.12-.51.59-.28-.39-.18.3-.1-.56-.53.21.07.18,0,.28,0l-.26-.16c0-.06.46.17.47.08a3.05,3.05,0,0,1-.76-.45l1.25.31a3.73,3.73,0,0,0-.43-.18c.16,0-.2-.16-.32-.24s.49.19.72.32-.68-.55-.34-.46l-.39-.17c0-.16.42,0,.36-.2.54.23.4.34.59.5a1.86,1.86,0,0,1,.36.09c-.24-.19-.56-.47-.77-.66C416.27,297.61,416.31,297.45,416.37,297.43Z"/><path class="cls-17" d="M416.47,297.89l.18.14s0-.06,0-.06Z"/><path class="cls-17" d="M416.37,297.43l.06,0A.08.08,0,0,0,416.37,297.43Z"/><path class="cls-17" d="M414.7,297.36h0Z"/><path class="cls-17" d="M416.37,298.36l-.45-.13A.89.89,0,0,0,416.37,298.36Z"/><path class="cls-17" d="M415.59,298.81a1.81,1.81,0,0,0,.29.19S415.8,298.88,415.59,298.81Z"/><polygon class="cls-17" points="416.63 297.82 416.56 297.67 416.47 297.58 416.63 297.82"/><path class="cls-17" d="M415.63,295c-.49-.18-.28.08-.42.13.14.3,1,.57.93.76l-.91-.55c0,.19-.35.32.38.9a1.11,1.11,0,0,1-.38-.21c0,.13,1.28.78.9.75-.5-.45-.57-.25-1.12-.6l-.06-.06c0,.12.25.41.18.45.23.13.63.28.61.37a3.31,3.31,0,0,1,.57.29c-.22-.23,0-.18-.32-.4.33.12.08.08.42.21l-.26-.23c.1,0,.29.22.39.18-.17-.1-.33-.27-.26-.31l.1.07c-.1-.11.09-.09-.44-.35l.54.23-.35-.19c.2,0,1.06.38.72,0a.75.75,0,0,1-.35-.22c-.28-.06.22.24.23.32-.35-.18-.71-.52-1-.56.46.15,0-.19.92.26.11-.07-.29-.35,0-.34l.12.08c-.56-.34.31.06-.23-.35h-.16c-.24-.14-.23-.17-.25-.23l.21.11c-.41-.25-.41-.41-.52-.49s.2.26.28.38C415.88,295.22,415.53,295,415.63,295Z"/><path class="cls-17" d="M416.56,296.93l-.18-.15A.61.61,0,0,0,416.56,296.93Z"/><path class="cls-17" d="M416.62,295c.13,0,.34.22.56.27-.25-.23-.63-.27-1-.58.27.11-.12-.2-.12-.24a7.3,7.3,0,0,0,.91.52c-.14-.11.16,0,.2,0-.4-.09-.15-.21-.58-.33s-.5-.43-.23-.33.17.15.16.18c.43.28.28.07.69.29-.56-.46-.33-.75-1.37-1.24-.21-.07,0,.1,0,.16.26,0,.53.3.7.41-.19,0,.08.21-.26,0l-.33-.29a.8.8,0,0,0-.43.82l.08-.1a1,1,0,0,1,.35.34l.69.32c-.07,0,0,.09-.22,0a3.31,3.31,0,0,0,.67.38c.07.15-.2,0,.2.32.61.17-.38-.37.18-.26Z"/><polygon class="cls-17" points="416.8 295.49 416.49 295.27 416.62 295.41 416.8 295.49"/><path class="cls-17" d="M415.39,294.61c.14.08.2.14.34.22S415.66,294.71,415.39,294.61Z"/><path class="cls-17" d="M417.27,294.65l-.07-.15-.16,0A1,1,0,0,1,417.27,294.65Z"/><path class="cls-17" d="M415.91,293.07c0,.16.28.39-.13.32.39.32.81.44,1.18.7.14,0-.59-.43-.69-.58.38.19,0-.14.1-.16A3.52,3.52,0,0,1,415.91,293.07Z"/><path class="cls-17" d="M417.55,293.51c0-.05-.22-.28,0-.21s.3.22.22.22c.53.29-.05-.11.33,0a1.14,1.14,0,0,1-.26-.14c.2-.07-.38-.34,0-.34a1.71,1.71,0,0,0-.46-.34c.5.16.47.21.92.32-.2-.12-.69-.36-1.12-.62.72.19,0-.24.55-.07,0,0,.11.11,0,.1.61.36,0-.16.1-.15l.51.32c-.05-.11-.32-.41.1-.25l.25.17c-.31-.39,0-.45-.13-.69l.36.13c-.29-.41-.29.06-1-.54.95.57-.26-.28.18-.14s.13.22.59.43c-.46-.32-.1-.14-.21-.27.45.29.13-.07.62.28l-.72-.71c.27.13.26.05.22,0-.07.09-.66-.46-.94-.48.12.3.1.67-.26.73.61.41-.09.12.4.47l-.59-.33c0,.22.36.18.57.36.05.11-.36-.08-.58-.23-.09.08.16.12.47.38l-.72-.37c0,.43.26,1.1-.34,1.2l.45.24c-.33,0,.81.83-.2.41l.35.27c-.2-.16-.67-.37-.94-.58.12.13-.07.07,0,.2l.25,0c.34.28.07.2-.26,0,.37.37.79.37,1.18.57-.72-.64.88.3.63-.05S417.78,293.65,417.55,293.51Z"/><path class="cls-17" d="M416.24,293l.11.09A.53.53,0,0,0,416.24,293Z"/><path class="cls-17" d="M418.68,291s0,0,0-.06S418.65,291,418.68,291Z"/><polygon class="cls-17" points="416.37 293.35 416.38 293.36 416.37 293.35 416.37 293.35"/><polygon class="cls-17" points="417.4 294.06 417.44 294.03 417.23 293.92 417.4 294.06"/><path class="cls-17" d="M419.49,290.92l-.22-.14Z"/><path class="cls-17" d="M420.4,289.83l0,0S420.41,289.85,420.4,289.83Z"/><path class="cls-17" d="M421.84,286.73a1.6,1.6,0,0,0-.45-.66l.22.16a1.88,1.88,0,0,0-.78-.69l.17.16c.26.32-.41-.19-.6-.21,0,.16.82.79.57.73,0,.06-.22-.1-.38-.23-.11,0,.49.51.54.62-1.67-1.13.27.57-.86-.05.08.17-.13.18.12.5-.37-.34-.09.07-.55-.28,1,.69-.62,0,.59.84-.44-.1.07.06-.32,0-.13-.09-.12-.11-.13-.14-.3-.11.45.45-.14.12-.17.06.32.24.6.54-.23,0-.37-.12-.93-.39.58.4.25.29.51.55a.55.55,0,0,1,.39.2c-.19.09.31.38.37.62-.69-.36.08-.15-.52-.37a2.79,2.79,0,0,0-.6-.7c-.11.1-.11.31.08.62-.14,0-.28-.24-.38-.22-.37-.06.53.63.18.54l-.32-.24c.4.36-.25.16-.09.44a2.16,2.16,0,0,1,.4.25c-.84-.55.34.45-.33.18.54.34.76.65.77.76a4.46,4.46,0,0,1-.52-.31c.39.08-.51-.5-.7-.75.23.26-.14.2.2.52l-.4-.3c-.13.07.89.71.41.56l-.3-.21c-.1.26-.83.17-.25.8.25.18.91.47,1.11.59-.15-.25-.56-.6-.73-.83l.48.32c-.32-.23-.45-.46-.75-.57s.46.22.24,0c.5.34.52.42.94.69l-.2-.23c.18.15.2.07.38.22-.53-.52.35,0,.16-.33l-.14,0c-.28-.18-.23-.21-.29-.29a1.21,1.21,0,0,0,.6.21c-.19-.2-.67-.56-.62-.63.52.36.37.06.83.34-.52-.37-.09-.27-.39-.49-.08-.11,0-.13.29.06l.08.09,0,0,.11.09s-.34-.29-.05-.16a.34.34,0,0,1,.16.18c.15,0-.69-.7-.15-.47a3.52,3.52,0,0,0-.77-.65c.22.1.66.41.63.27-.44-.36.24,0,0-.24.44.42.13.1.56.48.23.08-.35-.43-.2-.46l.38.22c-.14-.15-.5-.45-.09-.22l-.33-.22c.21.05.17-.11.58.07l-.58-.52c.75.35.25-.2-.27-.69a.49.49,0,0,1,.36.1l.2.2c.06,0,.47.13,0-.26-.12-.17.39.2.51.22-.66-.64.79,0-.31-.81,0,.05-.33,0-.35.12-.12-.12-.35-.25-.35-.31s.46.11.34-.12l.71.52C422.32,287.48,420.73,286.14,421.84,286.73Z"/><path class="cls-17" d="M421,288l.41.18-.32-.21C421.11,288,421.1,288,421,288Z"/><path class="cls-17" d="M421.07,287.92a.6.6,0,0,0-.11-.14s0,0,0,.09Z"/><path class="cls-17" d="M421.92,286.37s.11,0,.06-.07S421.82,286.28,421.92,286.37Z"/><polygon class="cls-17" points="421.76 286.14 421.63 286.1 421.7 286.16 421.76 286.14"/><path class="cls-17" d="M422.62,283.69l-.34-.43c.22.14.06-.18.4.14-.46-.45.14-.22-.63-.71,0,.51-.76.64-.38,1.5l-.25-.28c.44.62-.84-.2.21.8l-.58-.45c-.24,0,.73.8,0,.43l.25.17s-.13,0-.15,0l.11.07c.2.24.14.26-.07.2s-.06-.09-.1-.14c-.21-.11.15.23.11.28a1.25,1.25,0,0,1-.35-.26c.16.34-.52,0,.3.7.15.13.33.18.37.29.35.1.05-.23-.12-.5l0,0c-.82-.7.23.08-.06-.3a5.84,5.84,0,0,1,.47.49c.76.34-.37-.56.54,0l0,0c.1,0,0-.11-.09-.2a1.7,1.7,0,0,0-.3-.12,5.48,5.48,0,0,0-.58-.51c.41.24-.15-.18.08-.09s.29.28.46.43l-.19-.24c0-.07.43.22.64.33-.23-.24-.21-.11-.56-.42.48.25.56-.11.32-.49,0,.08.36.29.26.3.1,0,0-.16-.3-.36s.08-.25.39-.16l-.29-.17c-.4-.41.47.07.3-.25h0c0-.08-.66-.61-.47-.58A7.17,7.17,0,0,0,422.62,283.69Z"/><path class="cls-17" d="M422.33,282.78l.34.32c.11,0-.32-.4-.57-.57.06.09-.14,0,.07.17C422.23,282.74,422.36,282.84,422.33,282.78Z"/><path class="cls-17" d="M422.9,281.91a2.89,2.89,0,0,0-.31-.28c-.09.22-.11.55-.45.39-.16,0,.39.42.46.59l-.4-.25c.21.22-.29,0,.36.46.05,0-.27-.26-.13-.21l.21.17,0-.14.25.23c.46.18-.74-.68-.39-.63l.53.41c.1-.06-.05-.25.34-.08,0,0-.27-.2-.17-.11a1.7,1.7,0,0,1-.42-.28c-.32-.46.3.26.59.34-.28-.4-.42-.85.06-.58-.36-.2-.64-.54-.56-.58a2,2,0,0,1,.45.4c.08,0,.23.09.17,0a2.72,2.72,0,0,1-.82-.73C422.2,280.92,423.08,281.8,422.9,281.91Z"/><path class="cls-17" d="M422.49,281.51s.05.08.1.12l0-.07Z"/><polygon class="cls-17" points="432.1 300.86 432.26 300.93 432.04 300.58 432.1 300.86"/><path class="cls-17" d="M433.31,301.82l0-.23c-.76-.92-.46-.7-1.15-1.26a2.16,2.16,0,0,0,.41,1c0-.07-.17-.5,0-.43.17.3.07.32.29.72.33.21-.1-.3.13-.25Z"/><path class="cls-17" d="M432.77,300.75c.11.18.21.35.31.48C433,301.06,432.89,300.81,432.77,300.75Z"/><path class="cls-17" d="M432.77,300.6c.11,0,.26.35.3.4l-.36-.69Z"/><path class="cls-17" d="M433.13,300.4v-.08C433,300.23,433.09,300.32,433.13,300.4Z"/><path class="cls-17" d="M433.24,300.21c-.19-.19-.13,0-.11.11l0,0c.17.15.45.63.29.56,0,.16-.31-.29-.17,0l.35.3C433.71,301.11,433.32,300.42,433.24,300.21Z"/><path class="cls-17" d="M433.13,300.4a.08.08,0,0,1,0,.06C433.18,300.52,433.16,300.47,433.13,300.4Z"/><polygon class="cls-17" points="432.93 300.47 432.95 300.59 433.1 300.77 432.93 300.47"/><path class="cls-17" d="M433.49,300c.41.62-.25.08.07.56.09-.1.49.29.71.64l0-.28A4.16,4.16,0,0,0,433.49,300Z"/><path class="cls-17" d="M434.81,301.35a.54.54,0,0,1,0-.12A.24.24,0,0,0,434.81,301.35Z"/><path class="cls-17" d="M434.67,299.88l.16.81c-.12-.21-.26-.4-.25-.51-.18,0,.08.4-.06.42-.44-.55.14-.17-.27-.64-.06.07-.15.17.13.69l-.38-.3.48.59c.17.15-.26-.55.08-.14a.78.78,0,0,1,.21.43c0-.18.54.34.63.15S434.77,300.25,434.67,299.88Z"/><polygon class="cls-17" points="435.16 300.56 435.35 300.79 435.11 300.47 435.16 300.56"/><path class="cls-17" d="M434.89,299.53l.13.5-.25-.28c.11.14.25.41.34.53.46.51,0-.31.05-.46.39.11.21.31.67.78-.07,0-.17-.11-.28-.09.58.55.32-.15.29-.36-.06,0-.19-.21-.2-.13l-.05-.24C435.19,299.4,435,299.33,434.89,299.53Z"/><path class="cls-17" d="M434.63,299.72c0-.08.08-.05.14,0C434.64,299.6,434.55,299.51,434.63,299.72Z"/><path class="cls-17" d="M435.87,300.1s0,0,0,0S435.88,300.16,435.87,300.1Z"/><path class="cls-17" d="M435.31,299.49h.15l-.23-.24A.42.42,0,0,0,435.31,299.49Z"/><path class="cls-17" d="M439.78,297.6c-.18-.22-.29-.3-.34-.2-.21-.32-.07-.33-.14-.54-.25-.12-.26-.35-.49-.63-.14,0,.09.49-.09.49a1.62,1.62,0,0,0-.24-.31c0,.29-.06.75-.39.59-.22,0-.22.21-.28.45-.61.2-.91.89-1.65,1l.34.65c-.23-.28-.12.09-.38-.31.08.06.06,0,.09-.06-.48-.43-.27.26-.54.18a3.39,3.39,0,0,1,.5.71c-.46-.67-.15.13-.73-.6-.28-.09.4.58.18.58.27.4.28.09.51.36s-.22,0,.07.37c.37,0,.22-1.09.42-1.56l.22.39c0-.39.28-.61.85-.12-.28-.33.4,0-.19-.78.18.15.17.11.28.13l-.16-.26c.1-.06.36.34.45.23a2,2,0,0,1-.48-.74c.39.29.77.52,1.1.75a2.55,2.55,0,0,0-.33-.34c.16.07-.08-.25-.14-.38s.36.38.51.6c.23,0-.31-.83,0-.62l-.28-.33c.07-.18.46.12.52-.1.41.43.17.5.26.75.1.08.18.06.32.2-.11-.29-.25-.69-.33-1C439.53,297.77,439.7,297.6,439.78,297.6Z"/><path class="cls-17" d="M439.54,298.14l.09.22s0-.08,0-.07Z"/><path class="cls-17" d="M439.78,297.6l0,.06C439.81,297.61,439.79,297.6,439.78,297.6Z"/><path class="cls-17" d="M438.05,297h0Z"/><path class="cls-17" d="M439.07,298.65a4.18,4.18,0,0,0-.38-.29C438.82,298.51,438.91,298.62,439.07,298.65Z"/><path class="cls-17" d="M437.89,298.91c0,.08.1.17.16.3C438.12,299.18,438.06,299.06,437.89,298.91Z"/><polygon class="cls-17" points="439.76 298.12 439.8 297.93 439.77 297.81 439.76 298.12"/><path class="cls-17" d="M440.75,294.67c-.4-.34-.36,0-.54,0-.07.38.62.93.44,1.13l-.57-.88c-.18.2-.61.24-.25,1.12a.77.77,0,0,1-.26-.36c-.11.14.8,1.28.41,1.13-.2-.66-.42-.46-.75-1l0-.08c-.08.14,0,.54-.14.56.15.22.47.51.38.61.07,0,.23.28.39.5-.07-.32.1-.22,0-.55.27.24,0,.12.29.36l-.1-.33c.11,0,.14.34.28.32-.11-.17-.16-.41,0-.43l0,.11c0-.15.17-.07-.21-.53l.41.42-.24-.31c.26,0,.88.74.8.18a.61.61,0,0,1-.22-.35c-.25-.16.07.32,0,.43-.25-.32-.38-.81-.62-.93.38.3.18-.2.8.57.17,0-.06-.48.22-.38l.08.12c-.36-.55.28.16,0-.46l-.16-.07c-.15-.22-.12-.26-.1-.33a.8.8,0,0,0,.15.18c-.26-.4-.15-.57-.21-.7s0,.36,0,.51C440.88,295,440.64,294.65,440.75,294.67Z"/><path class="cls-17" d="M440.36,297.09l-.09-.22A.55.55,0,0,0,440.36,297.09Z"/><path class="cls-17" d="M441.85,294.91c.15,0,.22.35.42.46-.1-.33-.5-.48-.7-.94.22.2,0-.27.05-.3a6.58,6.58,0,0,0,.61.85c-.07-.17.19,0,.25,0-.37-.22,0-.27-.39-.53-.21-.31-.24-.63,0-.44s.08.21.05.25c.27.43.25.16.54.52-.28-.67.19-.95-.63-1.77-.15-.16,0,.09,0,.17.27.09.35.49.46.67-.17-.11-.06.26-.27-.09l-.16-.42a1.54,1.54,0,0,0-1,.79l.16-.09a1,1,0,0,1,.14.49l.51.56c-.08,0,0,.11-.21-.11a2.16,2.16,0,0,0,.45.62c0,.19-.22,0,0,.43.55.37-.14-.53.39-.25Z"/><polygon class="cls-17" points="441.68 295.54 441.51 295.2 441.55 295.4 441.68 295.54"/><path class="cls-17" d="M440.79,294.13c.1.14.11.22.21.35S441,294.33,440.79,294.13Z"/><path class="cls-17" d="M442.79,294.73l0-.19-.16-.07A.5.5,0,0,1,442.79,294.73Z"/><path class="cls-17" d="M442.22,292.72c0,.1.16.41-.2.2a11.78,11.78,0,0,0,.88,1.06c.18,0-.39-.62-.43-.78.33.28,0-.15.18-.13A5.41,5.41,0,0,1,442.22,292.72Z"/><path class="cls-17" d="M444.26,293.27c.1-.07-.18-.28.12-.24s.35.2.21.21c.72.23,0-.12.58,0a1,1,0,0,1-.37-.11c.45-.14-.47-.27.3-.39a1.64,1.64,0,0,0-.69-.21,10.25,10.25,0,0,0,1.66,0c-.36,0-1.22-.08-1.94-.18,1.3-.06.07-.18,1.07-.24,0,0,.21.05.05.08,1.16,0,0-.13.27-.18l1,0s-.15-.09-.18-.14c-.19,0-.25-.11.06-.17h.54a9,9,0,0,1-1.63-.53l.39-.19c-.95-.09,0,.28-1.45.36,1.49-.33-.62,0-.16-.2s.45,0,1-.2c-.77.16-.3,0-.6,0,.68-.19-.11-.16.67-.36a10.46,10.46,0,0,0-1.46.21c.28-.18.13-.22,0-.22.14.1-.83.41-1,.62.41,0,1,.15.83.37,1.11-.14.13.1,1.09,0l-1,.13c.39.07.6-.08,1.05-.1.24.05-.41.14-.86.16,0,.07.34,0,1.06,0-.42,0-.85.08-1.29.1l.18.05a.34.34,0,0,1,.15.38c-.06.15-.29.31-.71.35l.63.17c-.27,0,0,.2.06.36s.05.28-.57.06c.12.09.23.19.34.29-.2-.17-.74-.41-1-.64.11.13-.11.05,0,.18l.3.08c.31.3,0,.21-.33,0,.26.44.79.51,1.23.71-.26-.38,0-.28.36-.18s.83.22.8,0S444.52,293.41,444.26,293.27Z"/><path class="cls-17" d="M442.6,292.75l.11.09A.35.35,0,0,0,442.6,292.75Z"/><path class="cls-17" d="M443.72,290.53l-.1,0C443.47,290.55,443.59,290.53,443.72,290.53Z"/><polygon class="cls-17" points="442.65 293.07 442.66 293.08 442.65 293.07 442.65 293.07"/><polygon class="cls-17" points="443.52 293.98 443.61 293.93 443.41 293.79 443.52 293.98"/><path class="cls-17" d="M443.45,289.58l-.19.2A1.84,1.84,0,0,0,443.45,289.58Z"/><path class="cls-17" d="M441.72,288.22l0,0S441.74,288.21,441.72,288.22Z"/><path class="cls-17" d="M437.4,286a1.55,1.55,0,0,0-.76.4l.16-.21a1.28,1.28,0,0,0-.71.77l.16-.18c.36-.23-.15.44-.14.65.21,0,.84-.79.82-.52.07,0-.09.23-.21.38.07.14.55-.46.68-.49-1.09,1.69.67-.22.12,1,.2-.06.25.19.61,0-.36.37.1.12-.24.57.69-.94.1.71.95-.5,0,.47.06-.08.09.36-.1.13-.13.11-.16.13-.09.31.48-.44.17.17.12.21.26-.31.58-.57.08.27-.08.4-.32,1,.41-.57.33-.22.62-.46a.41.41,0,0,1,.18-.41c.15.24.43-.27.73-.29-.33.71-.21-.12-.38.51-.32.21-.4.12-.78.54.14.15.41.19.78,0,0,.16-.26.27-.22.38,0,.41.72-.47.67-.08l-.25.31c.38-.39.25.31.58.18a1.87,1.87,0,0,1,.25-.4c-.56.83.53-.28.3.42.34-.53.7-.72.84-.71a3,3,0,0,1-.31.52c0-.42-.55.47-.85.63.29-.2.28.21.64-.11l-.32.38c.11.17.77-.84.66-.34l-.22.29c.18.1.23.32.32.44s.23.17.73,0a6.11,6.11,0,0,0,1-.85,4.15,4.15,0,0,0-1.3.39l.41-.41c-.33.25-.62.34-.75.62s.26-.44-.06-.25c.36-.48.49-.48.8-.87l-.31.14c.18-.16,0-.22.21-.38-.6.47-.09-.4-.46-.26l0,.16c-.19.27-.23.21-.33.26a1,1,0,0,0,.18-.63c-.23.17-.61.63-.72.56.38-.51,0-.41.29-.87-.38.51-.33.05-.56.34-.13.07-.17,0,0-.32a.54.54,0,0,1,.11-.06l-.05-.06a.82.82,0,0,1,.09-.11c0-.05-.3.33-.19,0a.28.28,0,0,1,.19-.15c-.07-.18-.78.64-.57.08-.19.23-.36.14-.71.73.09-.23.41-.66.24-.66-.38.42,0-.26-.3,0,.45-.41.09-.14.51-.54.05-.25-.49.31-.57.12l.22-.38c-.17.13-.49.48-.27.05l-.22.34c0-.23-.18-.21,0-.65l-.55.56c.3-.78-.32-.32-.84.17a.42.42,0,0,1,.05-.38l.22-.19c-.07-.08.07-.51-.33,0-.2.1.18-.4.17-.54-.68.63-.14-.9-1,.2.07.06.05.38.23.42-.13.11-.26.35-.32.34s0-.51-.23-.41l.51-.71C438.26,285.55,436.88,287.11,437.4,286Z"/><path class="cls-17" d="M439.15,287.17l.15-.44-.2.32C439.16,287,439.2,287,439.15,287.17Z"/><path class="cls-17" d="M439.1,287.05l-.16.11s.05,0,.11,0Z"/><path class="cls-17" d="M436.91,285.81c0-.05,0-.13-.1-.08S436.82,285.9,436.91,285.81Z"/><polygon class="cls-17" points="436.65 285.94 436.62 286.09 436.69 286.01 436.65 285.94"/><path class="cls-17" d="M433.3,284.59l-.46.33c.12-.24-.24-.1.08-.44-.45.46-.32-.19-.75.61.65.07,1,1,2,.65l-.29.24c.69-.41-.06.92,1-.11l-.44.59c0,.26.84-.72.54,0l.16-.26s0,.15,0,.18l.07-.13c.26-.18.3-.11.27.12s-.09.06-.16.09c-.09.23.26-.14.33-.09a.77.77,0,0,1-.25.36c.4-.12.07.59.84-.22.12-.15.15-.34.28-.37.05-.38-.31-.1-.61.06l0,0c-.7.81.06-.25-.37,0,.29-.33.36-.28.52-.45.26-.81-.63.32-.17-.63l0,0c0-.1-.13,0-.23.08a1.49,1.49,0,0,0-.09.31,5.36,5.36,0,0,0-.51.58c.22-.42-.19.15-.14-.1.22-.38.29-.29.45-.46l-.26.18c-.1,0,.18-.45.27-.67-.26.22-.09.22-.41.57.21-.51-.27-.66-.7-.44.1,0,.29-.37.33-.25,0-.11-.21,0-.4.29s-.34-.13-.29-.47l-.15.31c-.43.4,0-.52-.4-.38h0c-.1,0-.6.67-.62.45C433,284.86,433.08,284.93,433.3,284.59Z"/><path class="cls-17" d="M432.22,284.8l.32-.35c0-.13-.42.31-.58.57.1,0,0,.16.2-.06C432.19,284.9,432.29,284.77,432.22,284.8Z"/><path class="cls-17" d="M431,284c-.08.07-.17.22-.26.32.29.13.72.19.61.56,0,.17.42-.4.63-.46l-.22.43c.23-.21.12.33.49-.35,0-.06-.26.27-.23.12l.16-.22H432l.22-.25c.11-.5-.67.76-.69.37l.38-.56c-.11-.12-.31,0-.19-.39,0,0-.19.28-.09.18a1.64,1.64,0,0,1-.25.45c-.49.3.25-.32.27-.64-.43.27-1,.37-.75-.14-.15.39-.51.67-.58.58a1.51,1.51,0,0,1,.38-.47c0-.09.06-.25,0-.2a2.14,2.14,0,0,1-.7.86C429.92,284.72,430.78,283.82,431,284Z"/><path class="cls-17" d="M430.58,284.46s.08,0,.12-.1l-.09-.05Z"/><polygon class="cls-17" points="412.51 134.51 412.54 133.98 411.92 134.06 412.51 134.51"/><path class="cls-17" d="M413.9,131.74c-.14-.22-.29-.43-.44-.65-1.61.88-1.29.12-2.16,1.72.39.38,1.32,1.1,1.93.73-.17-.26-1-.48-.91-1,.55,0,.65.53,1.36.52.29-.86-.57-.29-.57-1.14Z"/><path class="cls-17" d="M412,131.31a3.45,3.45,0,0,0,.88-.07C412.51,131.24,412.05,131,412,131.31Z"/><path class="cls-17" d="M411.66,130.88c0-.52.64-.13.73-.21-.42-.1-.83-.21-1.25-.33Z"/><path class="cls-17" d="M411.38,128.76a1.59,1.59,0,0,0-.13-.22C411.07,128.64,411.23,128.69,411.38,128.76Z"/><path class="cls-17" d="M411.14,127.73c-.38.24-.12.5.11.81l.06,0c.31-.33,1.15-.14,1,.33.24.44-.56.52,0,.85l.58-.65C412.7,128.33,411.49,128,411.14,127.73Z"/><path class="cls-17" d="M411.38,128.76a1.22,1.22,0,0,1,.09.27C411.59,128.89,411.49,128.82,411.38,128.76Z"/><polygon class="cls-17" points="411.44 129.84 411.65 130.07 411.98 129.94 411.44 129.84"/><path class="cls-17" d="M411,126c1.11.12-.11,1.26.78,1.35-.09-.68.74-1.21,1.36-1.07L413,126,409.69,127l.41.23c.47,0,.94-.76,1.14-1.38l0-.08-.2.13Z"/><path class="cls-17" d="M409.86,128.7a.4.4,0,0,1,.25,0A.31.31,0,0,0,409.86,128.7Z"/><path class="cls-17" d="M413.61,130.71l-1.93-.82c.4-.07.65-.33,1-.07-.32-.73-1-.4-1.25-1,.74-.76.72.89,1.27,0a1.48,1.48,0,0,0-1.65-.67l.14-1-.77.88c-.1.42,1.07-.05.53.55-.35.36-.59.18-.81.09.46.24,0,1.53.66,2.21S412.79,130.47,413.61,130.71Z"/><polygon class="cls-17" points="412.61 131.47 412.3 131.81 412.76 131.41 412.61 131.47"/><path class="cls-17" d="M414.91,132.25l-1.1-.38a1.4,1.4,0,0,1,.33-.49c-.19.18-.71.22-.86.38-.63.91.89.74,1.31,1.06.31,1.35-.5.25-1,1.21-.17-.32,0-.47-.19-.92-.54,1.29.88,1.54,1.4,1.82,0-.18.26-.38,0-.57l.57.27C415.76,133.73,415.69,133.21,414.91,132.25Z"/><path class="cls-17" d="M414,130.87c.25.25.26.4.15.5C414.34,131.14,414.44,130.93,414,130.87Z"/><path class="cls-17" d="M414.92,135.15c0-.08-.05-.15-.17-.22S414.78,135.08,414.92,135.15Z"/><path class="cls-17" d="M415.68,134.06l.26.6.28-.47C416.12,134.14,415.89,133.91,415.68,134.06Z"/><path class="cls-17" d="M429.65,130.09c-.13-.56-.28-.74-.37-.45-.25-.67,0-.84,0-1.44-.18-.08-.25-.28-.28-.57a3.22,3.22,0,0,0-.15-1,2.38,2.38,0,0,0-.4,1.09,1.63,1.63,0,0,1-.34.95,1,1,0,0,0-.42-.47c-.16.59-.3,1.24-.5,1.83a2.9,2.9,0,0,1-1,1.45,5,5,0,0,0-1,2.37c-.39.56-.75,1.16-1.09,1.76l-1.13,2.07-1.2,2.21-.62,1.08-.31.51-.16.25-.08.12s0,.05,0,.05l0,0c-.28-.61-.56-1.25-.82-1.89a6.42,6.42,0,0,1-.61,1.17c.07-1-.57-1-.2-1.85,0,.39.21.44.35.66a2.68,2.68,0,0,0-.62-1.87,3.25,3.25,0,0,1-.9-1.36c-.1.22-.68,1.1-1,.86.49-.37.31-.67.11-1s-.29-.6.24-1.08c-.17-.94-.92.52-1.24-.37-.66.3.17.94-.21,1.36-.64,0-.23-.84-.85-.41a3.3,3.3,0,0,0,.71,1.1l.82,1,.9,1c.59.67,1.16,1.27,1.66,1.8a18.25,18.25,0,0,1,1.31,1.45c-.08.34-.16.66-.25,1a3,3,0,0,1,.6.62c.8-1.69,1.64-2.93,2.67-3-.23-.24.15-.75.5-1.39s.62-1.37,0-1.82c.44-.1.47-.27.87-.73-.09-.14-.19-.28-.29-.41a.67.67,0,0,1,.63-.4.68.68,0,0,0,.59-.39c-.77.08-.68-.44-1-.87,1-.35,2-.84,2.81-1.17a1.48,1.48,0,0,0-.78,0c.42-.3-.14-.53-.26-.74.2-.41.88,0,1.22.24.63-.61-.52-1.7.23-2l-.66-.12a2.43,2.43,0,0,1,.77-1c.29-.24.51-.38.59-.71.72.52.34.9.57,1.27.2,0,.32-.08.56.09a2.88,2.88,0,0,1-.65-1.78c.19.66.39.82.48.89S429.62,130.09,429.65,130.09Z"/><path class="cls-17" d="M429.62,131c.09.11.17.21.24.28s-.06-.12,0-.09Z"/><path class="cls-17" d="M429.65,130.09l0,.13C429.68,130.13,429.67,130.1,429.65,130.09Z"/><path class="cls-17" d="M426.15,131.59l.11-.08s.06-.09.1-.12Z"/><path class="cls-17" d="M428.34,133.65a5.17,5.17,0,0,0-1,.3A.84.84,0,0,0,428.34,133.65Z"/><path class="cls-17" d="M424.29,139.36c-.08.37.13.39.14.79C424.8,139.56,424.76,139.21,424.29,139.36Z"/><path class="cls-17" d="M429.78,131a1.06,1.06,0,0,1-.06-.28,1.55,1.55,0,0,1-.05-.23A1.48,1.48,0,0,0,429.78,131Z"/><path class="cls-17" d="M433.65,128.33a3.86,3.86,0,0,0,.59-1.81,10.14,10.14,0,0,1,.14-1.57c-.07-.3-.24-.23-.44,0a8.35,8.35,0,0,0-.66.92c-.41.65-.79,1.22-.79.85.59-1,1.13-1.91,1.83-3,0-.18,0-.36,0-.55-.09-.46-.09-1.06-.18-1.43a6.22,6.22,0,0,0-1.12,1,4,4,0,0,0-.6.86c-.21.37-.41.77-.61,1.2a3.29,3.29,0,0,1,.46-1.54,2.53,2.53,0,0,0-.6,1.1c-.19.54-.39,1.18-.56,1.78-.36,1.19-.59,2.15-.7,1.78a6.33,6.33,0,0,0,.46-2.15c0-.2-.05-.37-.06-.64a3.87,3.87,0,0,1,.13-1l.16-.28a8.73,8.73,0,0,0-1,1.38,5.75,5.75,0,0,1-.66,1.15c.07.63.3,1.44.05,1.85.12,0,.13.78.2,1.42a2.61,2.61,0,0,1,.18-.79,4.31,4.31,0,0,0,.24-1c.05.9-.1.41-.07,1.32.07-.37.17-.76.28-1.16.08.15-.27,1.21-.15,1.29.11-.65.43-1.55.59-1.56l-.15.47a6.41,6.41,0,0,0,.86-2.21q-.19,1-.51,2l.49-1.49c.16.13-.1,1.14-.34,1.88-.35.93-.57,1.37-.16.69a8.62,8.62,0,0,1,.71-1.33c.5-1.24-.49.72-.57.79.36-.79.74-1.55,1.08-2.21a14,14,0,0,0,.89-2,12.56,12.56,0,0,0-.52,1.56,6.49,6.49,0,0,1-.58,1.44c-.16.32-.36.72-.63,1.22-.07.26.09.07.22,0s.21,0,0,.43l-.23.3c.52-.66.39-.38.27-.13s-.24.47.27.15l.25-.52c.43-.44.43-.28.49-.09a1.32,1.32,0,0,0-.37.38c.74-.64.8.25,1,.28.14-.54-.43-.63-.6-.82C433.15,128.39,433.81,127.76,433.65,128.33Z"/><path class="cls-17" d="M430.42,129l.27-.85A5.05,5.05,0,0,0,430.42,129Z"/><path class="cls-17" d="M432.25,132.56c-.16.57-.61-.16-.93.38.5.58,1-.66,1.76-.1-.43.35.31.91.33,1.14a2.29,2.29,0,0,0-1.56,0c.27.21-.2.71-.22,1.09.57-.93.38.77,1-.08.56.05,1,.89.58,1.25-.41,0-.34-.29-.36-.52-.77-.17-.4.59-1.09.75,1.09.84,1.22,3.61,2.87,2.69.31-.31-.13-.53-.21-.84-.29.91-.91.07-1.22,0,.25-.4-.34-1,.29-.91l.68.56a39.84,39.84,0,0,0-.18-6.83l-.05,1c-.47-.12-.49-.58-.7-.94l-1.14.46c0-.14,0-.28.05-.38s.08-.11.28-.11c-.48-.23-.77,0-1.16,0-.1-.14,0-.22,0-.3s-.07-.13-.45-.05c-.47.33-.28.23-.07.3s.21,0,.23.18a1.21,1.21,0,0,1-.23.8Z"/><path class="cls-17" d="M431.67,130.57a2.73,2.73,0,0,1,.57,0,1.48,1.48,0,0,0-.27-.19Z"/><path class="cls-17" d="M434.18,130.14c-.25.08-.36-.09-.61,0C433.38,130.78,433.73,130.69,434.18,130.14Z"/><path class="cls-17" d="M431.76,137.24l.23.73.2-.49A.45.45,0,0,1,431.76,137.24Z"/><path class="cls-17" d="M435,140.94c-.08-.23-.26-.34-.35-.55a.91.91,0,0,1,.14-.92,1.5,1.5,0,0,0-1.05.06c-.33.13-.65.36-1,.27-.1.75,1.12.33,1.39.68-.29.24-.24.44-.13.59s.29.28.25.57A3.18,3.18,0,0,1,435,140.94Z"/><path class="cls-17" d="M434.55,145.3c.57-.32,1.21-1.25,1.54-1.08a1.28,1.28,0,0,1-.82,1c0,.55.16.39.4.17s.51-.5.82-.32c-.05-.08-.27-.15-.08-.47,1.56-.59.82-1.32,2.63-1.62.1-.33.31-.42,0-.95,1.15.32.73.49,2,.67a11.09,11.09,0,0,1-1.13-1.6c1.84.35,1.4-.77,2.61-.41-.08.08-.13.31-.42.32.52.93.69-.49,1.28-.49l.28.86c.4-.31,1-1.16,1.82-.74l0,.47a1.87,1.87,0,0,0,.24-.31l.23-.23a3.59,3.59,0,0,1,.57-.32,7,7,0,0,0,1.25-.6,2.57,2.57,0,0,1-.15.64c.71-.55.66-.63.52-.77s-.37-.33.65-1.34c-.59,1.06-.38.85.12.44s1.33-1.05,1.32-.68c-.54.86-1.15.66-1.69,1.64,1.15-1.23.61-.43,1.27-.86-1.24,1.19.49,0-1.16,1.41a37.85,37.85,0,0,1,3.92-2.55c-.74.69-.25.51.33.26-.37.07.43-.47,1.21-1s1.58-1,1.31-1.18c-1.26.43-2.6.86-3.78,1.19a14.67,14.67,0,0,1-3.18.58c-.42.68-.69.75-1,.82a.92.92,0,0,0-.84.64,8.76,8.76,0,0,0-.1-1c-.71.35-.6.48-.41.59s.45.24.3.5c-.44.29-.9-.25-.94-.65-1,.25-.07.33-.34,1.05l-.91-1c-1.18.61-2.49,1.44-3.85,2.21-.68.38-1.37.76-2.08,1.08a6.94,6.94,0,0,1-1.81.62,6.69,6.69,0,0,0,.14.78c-.5.06-.95.63-1.55,1.26s-1.26,1.28-1.54,1.12l0-.13c0-.05,0-.19.06-.29s.13-.46.22-.73a4.58,4.58,0,0,1-.6.44c.33-.26.93-1.71,1.42-2.12-.26.06-.05-.59-.29-.62-.09.3-.17.63-.25,1-.63.34-.34-.73.17-1.33-.4-.07-.7.25-.94.87s-.44,1.48-.69,2c.43.1.51.34.46.82,0,.24-.1.52-.17.84-.05.17-.09.33-.13.5l-.08.43c.06.4.37.6,1.32-.23.73-.67.74-.88.66-1S434.41,145.61,434.55,145.3Z"/><path class="cls-17" d="M434.81,142.47a.7.7,0,0,0-.19.14A.47.47,0,0,0,434.81,142.47Z"/><path class="cls-17" d="M452.91,137.81H453s0,0,0,0a.29.29,0,0,0,0,.09c.2-.11.25-.15.23-.17h-.06s0,0-.06,0Z"/><path class="cls-17" d="M434.26,141.64h0Z"/><path class="cls-17" d="M432.46,142.4l0,.52.31-.36A2.72,2.72,0,0,1,432.46,142.4Z"/><path class="cls-17" d="M449.39,141.05l.72-.3C449.9,140.83,449.67,140.92,449.39,141.05Z"/><path class="cls-17" d="M444.34,147.41l.15-.17A.2.2,0,0,0,444.34,147.41Z"/><path class="cls-17" d="M427.17,155.6a4.25,4.25,0,0,0-2.4.36l.18-.37c-.42.06-1.75.3-1.24,1.22l.28-.27c1-.29.39.83.94,1.29.81.09,1.78-1.17,2.34-.57.31.07.12.43-.07.68.64.36,1.32-.61,1.84-.56-1,2.86,2.41.09,2.64,2.31a4.88,4.88,0,0,1,1.12.34,3.42,3.42,0,0,0,1.41.2c-.79.46.9.5.52,1.24.33-.84.94-.29,1.76-.22s1.49-.51.93-1.54c.55-.22.56-.29.54-.35s0-.15.63-.59c.21.14,0,.37,0,.49.4-.15.33-.45.31-.7s0-.47.55-.35c.8-.78-.36-.51-.45-1.39.9-.76.94-.32,2.06-.28-.79-.72,0-1-.07-1.73-.13.08-.76.58-.78-.07.93-1,.08-1.27.6-2.44,1.31.19-.72,1,.68.69,0,1-.44,1.4,0,2.25a8.11,8.11,0,0,0,1.6-3.17c.51-.42.25.59.64.25,1.09-.61.1-2.12,1.06-2.55l.36.51c-.3-.92,1.35-1.51,1.64-2.63-.33-.07-.54-.12-.62-.35,1.2.91.26-1.66,1.74-1.86a1.29,1.29,0,0,1-.59-1.09,2.07,2.07,0,0,1,.06-.61l.13-.43a2.69,2.69,0,0,1,.84.38c-.45.14-.44.57-.25,1a2.74,2.74,0,0,1,.39,1.35,2.29,2.29,0,0,1,.54-1.16c.26-.38.56-.86.4-1.22a5.27,5.27,0,0,1,.56.51c.42-.48.14-.81-.12-1s-.48-.4.25-.77l.63.07c.6-.88,1.73-2,2.56-3s1.44-2,.69-1.9c-.46.26-1.49,1-2.41,1.6s-1.78,1.18-2.17,1.41c.62-.17,2-.64,2.26-.37l-1.56.64c1-.39,1.1.11,2.17-.55.18.13-.22.35-.6.54s-.72.36-.55.55a20,20,0,0,0-2.49.4,2.14,2.14,0,0,1,.48.1c-.45,0-.56.25-1,.26.63.07.3.34,0,.47s-.69.19-.59.47l.33-.19c.54.12.35.29.38.5a3.89,3.89,0,0,0-.71-.08,1.1,1.1,0,0,0-.52.19c0,.65.56,1.41.14,2-.67-.69-1.09.61-1.82.23.68.69-.53,1.28-.14,1.68-.07.42-.45.76-.86.45a1.52,1.52,0,0,1,0-.32l-.25.28c-.07-.1-.14-.14-.13-.18-.21.25.34.67-.29.72-.2-.15-.06-.33,0-.54-.65.6.24,2.09-.89,2.16.27.38-.3,1.21.64,1.65-.45,0-1-.56-1.36.11.43.85-.74.48-.64,1.25-.27-1.13-.19-.15-.49-1.18-.58.19-.11,1.48-.76,2.08-.22,0-.42-.2-.63-.25,0,.44.38,1.16-.38,1l.51.32c-.6.3-.95,1.08-1.86,1.19l.47,1.29a1.39,1.39,0,0,0-.89.33,1.07,1.07,0,0,0-.14.16.41.41,0,0,0-.07.11,1,1,0,0,0-.07.32c0,.24,0,.57,0,.95a4.22,4.22,0,0,1-.13,1.19c-.37.18-1-.1-1-.41.06-.09.16-.27.26-.46-.23,0-.47-.25-.65-.37s-.32-.1-.53.33c-.52.08-.14-.8-.3-1-1.54.75-2.64-2.3-3.77-.54a11.44,11.44,0,0,0,1.89,1.2c-.32.13-.32.57-.63.48-.83-.27-.94-1.15-1.87-1.18l.6-1.16C430,155.37,427.6,157.77,427.17,155.6Z"/><path class="cls-17" d="M436.74,159a1.86,1.86,0,0,1-.6-.47l.23.61C436.47,159,436.56,158.89,436.74,159Z"/><path class="cls-17" d="M436.37,159.13a4,4,0,0,0-.18.36c.11,0,.21-.05.25-.21Z"/><path class="cls-17" d="M424.68,155a.79.79,0,0,0-.66-.23C424.15,154.94,424.48,155.11,424.68,155Z"/><polygon class="cls-17" points="423.85 155.11 424.09 155.4 424.18 155.27 423.85 155.11"/><path class="cls-17" d="M409.84,146.51l-.78-1c.41-.17,0-1.35.64-.95-.93-.65.05-2-1.34-1.51.17,1.53,0,3.34.05,5.21v.7l0,.8a6.33,6.33,0,0,0,.37,2.21,3.12,3.12,0,0,0,1.32,1.6,3.91,3.91,0,0,0,2,.48,5.86,5.86,0,0,1-1.06.25,8.86,8.86,0,0,1,1.89.16,4.75,4.75,0,0,1,.87.4c.52.28,1,.41,1.94-.48l-.43,1c.71.48,1.88-1.21,2.42.14l0-.46c.22.05.25.27.47.33l0-.22a1.19,1.19,0,0,1,1.51.32c-.05.35-.3.07-.5.11.17.42.81-.18,1.25,0,.25.4-.15.49-.24.62,1.45-.1,1.69,1.2,3.11-.07.18-.26-.17-.65.36-.63-.72-.77-1.63-.37-2.54-.18l.22.07c-1.08,1.35-.38-.49-1.58-.11.44-.56.88-.42,1.15-.71-.85-1.52-1.93.44-2.32-1.29l.1,0c-.13-.2-.53,0-.83.09,0,.22.28.38.42.57-.31.08-.62.73-.78,1-.13-.76-.48.23-.88-.23,0-.68.54-.49.81-.78l-.69.29c-.54-.08-.36-.81-.55-1.22-.57.38.19.41-.34,1-.19-.47-.92-.77-1.77-.91a27.5,27.5,0,0,0-2.76-.1c.52.11.56-.51,1-.28-.11-.15-.92-.09-1.27.26a1.46,1.46,0,0,1-1.19-1.17,2.78,2.78,0,0,1,.25-1.75l-.5.37c-.87-.95.61-1.85.13-3l0,0c-.1-.37-1.33-.71-1.06-1.4C409.29,146.18,409.23,146.54,409.84,146.51Z"/><path class="cls-17" d="M408.8,142.38l.68.41c.18-.41-.7-1-1.15-.91.13.29-.2.65.2.72C408.64,142.55,408.89,142.57,408.8,142.38Z"/><path class="cls-17" d="M409.26,134.54c-.14-.17-.41-.15-.6-.24-.09,1.67,0,3.74-.56,4.37-.25.54.8.72,1,1.44l-.73.27c.43.41-.4,1.53.78,1.18.1,0-.53-.36-.31-.68l.4.08-.1-.76.49.27c.78-1-1.46-.81-.91-2l1,.08c.12-.83-.19-1.28.49-2,0,0-.51-.05-.32.11a.76.76,0,0,1-.78.16c-.67-1.33.59.25,1.07-.6-.59-1.12-.95-3.25-.07-3.74-.66.43-1.22-.39-1.09-1,.39-.24.58.26.87.4.13-.27.42-.47.3-.76a1.16,1.16,0,0,1-1.57-.74C407.82,131.77,409.53,133.12,409.26,134.54Z"/><path class="cls-17" d="M408.46,134a.31.31,0,0,0,.2.27c0-.19,0-.39,0-.58Z"/><path class="cls-18" d="M576.66,133.76v12l-1.24-.42c-2.17-.72-4.34-1.45-6.52-2.16a.39.39,0,0,1-.32-.44q0-5.5,0-11v-.34Z"/><path class="cls-18" d="M627.57,128.68,619.5,126V114.31l2,.59,5.77,1.7c.19.06.32.11.32.37q0,5.73,0,11.46Z"/><path class="cls-18" d="M578.79,148.44l8,2.39v12l-2.4-.8L579,160.21a.32.32,0,0,1-.28-.37q0-5.55,0-11.11C578.77,148.65,578.78,148.57,578.79,148.44Z"/><path class="cls-18" d="M589,162.79v-.36q0-5.61,0-11.23c0-.28.07-.39.35-.47,2.47-.72,4.93-1.46,7.4-2.19l.34-.08v.34q0,5.5,0,11c0,.18,0,.31-.22.38l-7.65,2.55Z"/><path class="cls-18" d="M578.78,145.72V133.77l8.07-2.39v.33c0,3.67,0,7.35,0,11a.37.37,0,0,1-.3.42c-2.49.82-5,1.66-7.47,2.49Z"/><path class="cls-18" d="M629.66,128.68v-.38c0-3.75,0-7.51,0-11.26,0-.25.06-.36.31-.43,2.5-.73,5-1.48,7.49-2.22l.27-.06V126Z"/><path class="cls-18" d="M597,145.73l-2-.66-5.83-1.93a.32.32,0,0,1-.26-.36q0-5.57,0-11.14c0-.07,0-.14,0-.26l1.64.48,6.16,1.83c.17.05.27.1.27.31,0,3.85,0,7.7,0,11.55C597,145.59,597,145.63,597,145.73Z"/><path class="cls-18" d="M607.2,128.67l-2.71-.9-5.08-1.69c-.2-.07-.28-.14-.28-.37,0-3.7,0-7.41,0-11.11,0-.08,0-.17,0-.29l2.06.61,5.66,1.67a.41.41,0,0,1,.36.47c0,3.73,0,7.47,0,11.21Z"/><path class="cls-18" d="M609.31,128.66v-.37c0-3.75,0-7.49,0-11.24a.4.4,0,0,1,.33-.46c2.47-.71,4.94-1.45,7.41-2.18l.35-.1v.35c0,3.66,0,7.32,0,11a.38.38,0,0,1-.32.44l-7.41,2.48Z"/><path class="cls-18" d="M607.22,131.39v.38c0,3.65,0,7.3,0,10.95a.39.39,0,0,1-.32.44c-2.46.81-4.92,1.64-7.38,2.47l-.34.09c0-.13,0-.24,0-.35,0-3.76,0-7.52,0-11.27,0-.26.07-.36.32-.43l7.46-2.2Z"/><path class="cls-18" d="M585.14,130.13l-3.89,1-3.17.84a1.42,1.42,0,0,1-.79,0l-6.82-1.83-.16-.06.3-.12,6.83-2.13a.75.75,0,0,1,.42,0L585,130Z"/><path class="cls-18" d="M605.43,130.15l-4.56,1.21-2.56.67a.79.79,0,0,1-.4,0l-7.27-1.94A4,4,0,0,1,591,130c2.25-.71,4.5-1.42,6.76-2.11a.78.78,0,0,1,.45,0l7,2.18.17.06Z"/><path class="cls-18" d="M595.33,147.19l-3.27.87-4,1.06a.81.81,0,0,1-.31,0l-7.28-1.95.35-.12,6.82-2.13a.79.79,0,0,1,.43,0l7.07,2.18Z"/><path class="cls-18" d="M621.19,113l3.84-1.2,3.3-1a.66.66,0,0,1,.39,0q3.6,1.1,7.2,2.22s0,0,.08,0a.74.74,0,0,1-.15.08L628.78,115a.68.68,0,0,1-.4,0l-6.93-1.86Z"/><path class="cls-18" d="M615.71,113.05l-2.54.68c-1.56.41-3.12.83-4.69,1.23a1,1,0,0,1-.46,0l-7-1.87-.22-.08,1.48-.47L608,110.8a.76.76,0,0,1,.42,0l7.16,2.21Z"/><path class="cls-19" d="M571.54,135.62v12l-1.24-.42L563.79,145c-.24-.08-.32-.17-.32-.43q0-5.52,0-11v-.34Z"/><path class="cls-19" d="M622.45,130.54l-8.07-2.7V116.17l2,.59,5.77,1.7c.19.06.32.11.31.37q0,5.73,0,11.46Z"/><path class="cls-19" d="M573.67,150.3l8.05,2.39v12l-2.41-.8-5.38-1.79c-.19-.06-.29-.13-.29-.37q0-5.55,0-11.11C573.65,150.51,573.66,150.43,573.67,150.3Z"/><path class="cls-19" d="M583.83,164.65v-.36q0-5.61,0-11.23a.4.4,0,0,1,.35-.47c2.47-.72,4.94-1.46,7.4-2.19l.34-.08v.34q0,5.51,0,11c0,.18,0,.31-.22.38-2.55.84-5.09,1.7-7.64,2.56Z"/><path class="cls-19" d="M573.67,147.58v-12l8.06-2.39v.33c0,3.67,0,7.35,0,11a.37.37,0,0,1-.3.42L574,147.5Z"/><path class="cls-19" d="M624.55,130.54v-.38q0-5.62,0-11.26a.37.37,0,0,1,.32-.43c2.5-.73,5-1.48,7.49-2.22l.26-.06v11.65Z"/><path class="cls-19" d="M591.88,147.59l-2-.66L584.09,145a.32.32,0,0,1-.26-.36V133.5c0-.07,0-.14,0-.26l1.64.48,6.16,1.83c.18,0,.27.1.27.31,0,3.85,0,7.7,0,11.55C591.9,147.45,591.89,147.49,591.88,147.59Z"/><path class="cls-19" d="M602.09,130.53l-2.71-.9-5.08-1.69c-.2-.07-.29-.14-.29-.37,0-3.7,0-7.41,0-11.11,0-.08,0-.17,0-.29l2.06.61,5.65,1.67a.41.41,0,0,1,.36.47c0,3.73,0,7.47,0,11.21Z"/><path class="cls-19" d="M604.2,130.52v-.37c0-3.75,0-7.49,0-11.24a.4.4,0,0,1,.33-.46c2.48-.71,4.94-1.45,7.41-2.18l.35-.1v.35l0,11a.38.38,0,0,1-.31.44c-2.48.82-4.94,1.65-7.41,2.48Z"/><path class="cls-19" d="M602.1,133.25v.38c0,3.65,0,7.3,0,11a.39.39,0,0,1-.31.44c-2.47.81-4.92,1.64-7.38,2.47l-.34.09c0-.13,0-.24,0-.35q0-5.64,0-11.27a.37.37,0,0,1,.32-.43l7.47-2.2Z"/><path class="cls-19" d="M580,132l-3.89,1c-1,.28-2.11.55-3.16.85a1.55,1.55,0,0,1-.8,0c-2.27-.62-4.54-1.22-6.82-1.83l-.16-.06.3-.12,6.83-2.13a.76.76,0,0,1,.42,0l7.14,2.2Z"/><path class="cls-19" d="M600.31,132l-4.56,1.21-2.56.67a.75.75,0,0,1-.39,0L585.52,132l.38-.14,6.76-2.11a.81.81,0,0,1,.46,0l7,2.18.16.06Z"/><path class="cls-19" d="M590.21,149.05l-3.27.87-4,1.06a.61.61,0,0,1-.3,0l-7.28-2,.34-.12c2.27-.71,4.55-1.43,6.83-2.13a.75.75,0,0,1,.42,0L590,149Z"/><path class="cls-19" d="M616.08,114.89l3.83-1.2,3.31-1a.65.65,0,0,1,.39,0c2.4.73,4.79,1.47,7.19,2.22,0,0,0,0,.08,0a.74.74,0,0,1-.15.08l-7.06,1.87a.68.68,0,0,1-.4,0c-2.32-.61-4.63-1.24-6.94-1.86Z"/><path class="cls-19" d="M610.6,114.91l-2.54.68c-1.57.41-3.13.83-4.7,1.23a1,1,0,0,1-.45,0l-7-1.87-.23-.08,1.48-.47,5.65-1.76a.76.76,0,0,1,.42,0l7.17,2.21Z"/><path class="cls-18" d="M338.11,42c.67.11,1.29.19,1.9.31a44.83,44.83,0,0,1,12.33,4.3,34.62,34.62,0,0,1,9.93,7.56,11.18,11.18,0,0,1,1.3,2,19.35,19.35,0,0,1,2.22,7.11,27,27,0,0,1-.64,9.69.82.82,0,0,0,.19.79,7.6,7.6,0,0,0,2.84,2,15.94,15.94,0,0,0,3,.95l.18.05-.55,2.61c-.8-.23-1.6-.43-2.37-.68a12,12,0,0,1-4.09-2.16A7.75,7.75,0,0,1,362.94,75a.39.39,0,0,0-.28-.15,27.43,27.43,0,0,1-10-2.57,16.88,16.88,0,0,1-6.3-5A15.29,15.29,0,0,1,343.79,62c-1-3.66-1.87-7.36-2.71-11.06a43.39,43.39,0,0,0-2-6.77c-.26-.64-.57-1.26-.85-1.9C338.2,42.23,338.17,42.16,338.11,42Zm22.72,28.36c-.24-.74-.46-1.42-.7-2.11a51.8,51.8,0,0,0-4.95-10.65A31.52,31.52,0,0,0,349,50.24a18.13,18.13,0,0,0-4.86-3.11l-.59-.22.06,0,.81.92c.28.31.58.61.84.93a33.61,33.61,0,0,1,6,10.64,25.13,25.13,0,0,0,2.15,4.93,14,14,0,0,0,5.26,5.2A11.11,11.11,0,0,0,360.83,70.39Z"/><path class="cls-18" d="M368.91,70.49c1.18-7.59-.4-14.44-5.3-20.45l0,0a74,74,0,0,1,8.08-4,26.8,26.8,0,0,1,4.88-1.52,24.26,24.26,0,0,1,4.74-.37,35.92,35.92,0,0,0,4.75-.26l.69-.09s0,0,0,.07a18.25,18.25,0,0,0-3,4.4,49.11,49.11,0,0,0-3.49,9c-.22.77-.34,1.56-.57,2.32A15.75,15.75,0,0,1,373.6,68,22.25,22.25,0,0,1,369,70.45Z"/><path class="cls-18" d="M385.23,83.23l-.73-2.63a.24.24,0,0,1,.09-.06,13.29,13.29,0,0,0,5.86-6.09,22.78,22.78,0,0,0,1.94-6,50.64,50.64,0,0,0,.66-11.53,40.11,40.11,0,0,0-.7-6.27A21.19,21.19,0,0,0,390,44.05a12.33,12.33,0,0,0-5.42-5.13l-.1-.06.73-2.64.47.16a20,20,0,0,1,6.5,3.76,17.92,17.92,0,0,1,4.8,7,27.85,27.85,0,0,1,1.56,6.21,47.24,47.24,0,0,1,.38,8.32,33.57,33.57,0,0,1-1.5,9.33,18.51,18.51,0,0,1-4.77,7.82,19.6,19.6,0,0,1-6.53,4.06l-.8.3Z"/><path class="cls-18" d="M339,36.23l.68,2.63-.08.06a12.6,12.6,0,0,0-5.88,5.94,22.27,22.27,0,0,0-1.93,6,51.54,51.54,0,0,0-.67,11.57,40.57,40.57,0,0,0,.71,6.22,21.5,21.5,0,0,0,2.49,6.89,13,13,0,0,0,5.22,5c.05,0,.12.13.11.18-.21.84-.43,1.68-.65,2.55l-.79-.3a19.27,19.27,0,0,1-7.05-4.49,18.43,18.43,0,0,1-4.12-6.7,28.3,28.3,0,0,1-1.43-6.08,48.38,48.38,0,0,1-.28-8.76,32.74,32.74,0,0,1,1.49-8.61,19,19,0,0,1,3.83-6.8,18.42,18.42,0,0,1,6.7-4.66c.51-.21,1-.4,1.54-.6Z"/><path class="cls-19" d="M332.64,46.81c.67.11,1.29.2,1.9.32a45,45,0,0,1,12.34,4.29A34.71,34.71,0,0,1,356.8,59a10.91,10.91,0,0,1,1.3,2,19.3,19.3,0,0,1,2.22,7.1,27.25,27.25,0,0,1-.63,9.69.81.81,0,0,0,.18.79,7.6,7.6,0,0,0,2.84,2,15.94,15.94,0,0,0,3,1l.18,0-.55,2.61c-.8-.23-1.59-.43-2.37-.68a12.1,12.1,0,0,1-4.09-2.16,7.48,7.48,0,0,1-1.42-1.55.41.41,0,0,0-.27-.15,27.62,27.62,0,0,1-10-2.56,17,17,0,0,1-6.3-5,15.33,15.33,0,0,1-2.56-5.3c-1-3.66-1.87-7.36-2.71-11.06a43,43,0,0,0-2-6.76c-.26-.65-.57-1.27-.85-1.91Zm22.72,28.37c-.24-.74-.46-1.43-.69-2.11a52.2,52.2,0,0,0-5-10.66A31.52,31.52,0,0,0,343.53,55a18.13,18.13,0,0,0-4.86-3.11c-.19-.08-.39-.14-.59-.21l.07-.05c.27.31.53.62.81.93s.57.6.84.92a33.59,33.59,0,0,1,6,10.64,24.67,24.67,0,0,0,2.16,4.94,14,14,0,0,0,5.25,5.19A11.13,11.13,0,0,0,355.36,75.18Z"/><path class="cls-19" d="M363.44,75.27c1.18-7.59-.4-14.44-5.3-20.45l.05,0a72.92,72.92,0,0,1,8.07-4,26.83,26.83,0,0,1,4.88-1.53,24.32,24.32,0,0,1,4.74-.37,34.21,34.21,0,0,0,4.75-.26l.69-.09s0,.06,0,.07a18.34,18.34,0,0,0-3,4.41,49.55,49.55,0,0,0-3.49,9c-.21.76-.34,1.56-.57,2.32a15.74,15.74,0,0,1-6.13,8.4,22.47,22.47,0,0,1-4.58,2.47Z"/><path class="cls-19" d="M379.76,88,379,85.38l.09-.06A13.17,13.17,0,0,0,385,79.24a22.87,22.87,0,0,0,1.95-6,51.74,51.74,0,0,0,.66-11.53,41.23,41.23,0,0,0-.71-6.26,21.14,21.14,0,0,0-2.32-6.59,12.46,12.46,0,0,0-5.43-5.13l-.1-.05.73-2.65.47.16a20,20,0,0,1,6.5,3.76,17.78,17.78,0,0,1,4.8,7,27.63,27.63,0,0,1,1.56,6.2,47.35,47.35,0,0,1,.38,8.33,33.56,33.56,0,0,1-1.5,9.32,18.5,18.5,0,0,1-4.77,7.83,19.63,19.63,0,0,1-6.52,4c-.27.11-.54.2-.81.3Z"/><path class="cls-19" d="M333.51,41l.68,2.63s-.05,0-.08.06a12.6,12.6,0,0,0-5.88,5.94,22.62,22.62,0,0,0-1.93,6,51.53,51.53,0,0,0-.66,11.57,39.61,39.61,0,0,0,.7,6.23,21.36,21.36,0,0,0,2.49,6.88,13,13,0,0,0,5.22,5c.06,0,.13.13.12.18-.21.84-.44,1.68-.66,2.55l-.79-.29a19.48,19.48,0,0,1-7.05-4.49,18.51,18.51,0,0,1-4.12-6.7,29.63,29.63,0,0,1-1.43-6.09,48.3,48.3,0,0,1-.28-8.75,32.67,32.67,0,0,1,1.49-8.61,18.93,18.93,0,0,1,3.83-6.8,18.41,18.41,0,0,1,6.7-4.67c.51-.21,1-.4,1.54-.59Z"/><path class="cls-18" d="M524.6,48c3.42,2.45,5.22,6,6.61,9.8a3.59,3.59,0,0,0,1.35,1.88,13.13,13.13,0,0,1,5.61,8.93c.49,3.15.54,6.45-1,9.4-2.87,5.37-7.27,8.79-13.48,9.17-4.36.26-8.75,0-13.13,0a1.86,1.86,0,0,1-.79-1.37c-.08-2.54-.39-5.09.26-7.59.36-1.19,1.38-1.1,2.27-1.12,3.2-.08,6.39,0,9.59,0a6,6,0,0,0,3-.56c1.9-1,3.21-2.55,3.13-4.83a4.93,4.93,0,0,0-3.5-4.93,3.38,3.38,0,0,1-2.77-3.67,11.84,11.84,0,0,0-2.56-6.42c-.38-.55-.93-1-1.05-1.7a2.66,2.66,0,0,1,1-2.46c1.12-1,2.19-2.16,3.26-3.28A3.53,3.53,0,0,1,524.6,48Z"/><path class="cls-18" d="M488.66,83.52a12,12,0,0,1-5.14-6.67A14.48,14.48,0,0,1,485.3,63a9.42,9.42,0,0,1,3.22-3.27A4,4,0,0,0,489.87,58c1.81-2.65,4.69-2.77,7.45-3.1a10.86,10.86,0,0,1,5.5.9,19,19,0,0,1,6.34,3.33c2,1.51,2.22,2.87.55,4.73-1.35,1.51-2.83,2.91-4.3,4.32a1.88,1.88,0,0,1-2.92.13,11.33,11.33,0,0,0-1.35-1,5.13,5.13,0,0,0-6.73.55,5.25,5.25,0,0,0-.22,7.08c.52.66,1.31,1.17,1.32,2.15a5.19,5.19,0,0,1-1.88,3.09c-.93,1-2,1.83-2.87,2.85C490.22,83.67,489.52,84.12,488.66,83.52Z"/><path class="cls-18" d="M502.9,56.78c-1.31.57-2-.88-3.15-1a17.72,17.72,0,0,0-8.88,1.72l-1,.44c.28-3.8,2.8-6.31,5.19-8.86a21.36,21.36,0,0,1,6.78-4.79c6.5-3,12.81-2.42,18.93,1A11.76,11.76,0,0,1,524.6,48c-1.28,1.93-3.12,3.36-4.69,5-.45.49-1,.84-1.22,1.54-.55.78-1.15.46-1.75.08a12.22,12.22,0,0,0-10.08-1.31C505,53.87,503.46,54.76,502.9,56.78Z"/><path class="cls-18" d="M488.66,83.52a51.43,51.43,0,0,0,6.43-6.35,1,1,0,0,1,1-.42c4.08.59,8.18.12,12.26.33.83,0,1.77-.09,2.21.92v9.16c-5.4.13-10.82.35-16.17-.4A8.39,8.39,0,0,1,488.66,83.52Z"/><path class="cls-20" d="M518.5,51.59c3.42,2.45,5.22,6,6.6,9.8a3.66,3.66,0,0,0,1.36,1.88,13.13,13.13,0,0,1,5.61,8.93c.49,3.14.54,6.45-1,9.4-2.87,5.37-7.27,8.79-13.48,9.16-4.36.27-8.75,0-13.13,0a1.83,1.83,0,0,1-.79-1.38c-.08-2.53-.39-5.08.26-7.59.35-1.18,1.37-1.09,2.27-1.11,3.2-.09,6.39,0,9.59,0a6.24,6.24,0,0,0,3-.56c1.9-1,3.21-2.55,3.13-4.83a4.94,4.94,0,0,0-3.5-4.93,3.38,3.38,0,0,1-2.77-3.67,11.84,11.84,0,0,0-2.56-6.42,4.27,4.27,0,0,1-1.05-1.71,2.65,2.65,0,0,1,1-2.45c1.12-1.06,2.19-2.17,3.26-3.28A3.46,3.46,0,0,1,518.5,51.59Z"/><path class="cls-21" d="M482.56,87.1a12.08,12.08,0,0,1-5.14-6.67,14.48,14.48,0,0,1,1.78-13.9,9.45,9.45,0,0,1,3.22-3.28,3.9,3.9,0,0,0,1.35-1.7c1.81-2.65,4.69-2.78,7.45-3.1a10.86,10.86,0,0,1,5.5.9,18.81,18.81,0,0,1,6.34,3.33c2,1.51,2.22,2.86.55,4.73-1.36,1.51-2.83,2.91-4.3,4.32a1.88,1.88,0,0,1-2.92.13,11.88,11.88,0,0,0-1.36-1,5.12,5.12,0,0,0-6.72.56,5.25,5.25,0,0,0-.22,7.08c.52.66,1.31,1.17,1.32,2.15a5.19,5.19,0,0,1-1.88,3.09c-.93,1-2,1.82-2.87,2.85C484.12,87.25,483.42,87.69,482.56,87.1Z"/><path class="cls-22" d="M496.8,60.36c-1.31.57-2-.88-3.15-1a17.72,17.72,0,0,0-8.88,1.72c-.33.16-.67.3-1,.45.28-3.8,2.8-6.31,5.19-8.86a21.44,21.44,0,0,1,6.78-4.8c6.5-3,12.8-2.41,18.93,1a11.61,11.61,0,0,1,3.83,2.67c-1.29,1.93-3.13,3.35-4.69,5-.45.48-1,.84-1.22,1.54-.55.78-1.15.45-1.75.08a12.18,12.18,0,0,0-10.08-1.31C498.91,57.45,497.36,58.33,496.8,60.36Z"/><path class="cls-23" d="M482.56,87.1A51.51,51.51,0,0,0,489,80.74a1.06,1.06,0,0,1,1-.41c4.08.59,8.18.12,12.26.33.83,0,1.77-.09,2.21.92v9.16c-5.4.12-10.82.35-16.17-.4A8.39,8.39,0,0,1,482.56,87.1Z"/></g></g></svg>