<svg xmlns="http://www.w3.org/2000/svg" xmlns:xlink="http://www.w3.org/1999/xlink" viewBox="0 0 381 228.09"><defs><style>.cls-1,.cls-11,.cls-13,.cls-15{fill:none;}.cls-2{fill:#86fed4;}.cls-3{fill:#e7fff6;}.cls-4{fill:#cfffee;}.cls-5{fill:#b6fee5;}.cls-6{fill:url(#dots);}.cls-16,.cls-18,.cls-7{fill:#fff;}.cls-11,.cls-12,.cls-13,.cls-14,.cls-15,.cls-16,.cls-7,.cls-9{stroke:#3f3a37;}.cls-12,.cls-14,.cls-15,.cls-7{stroke-linejoin:round;}.cls-10,.cls-11,.cls-12,.cls-16,.cls-7,.cls-8{stroke-width:2px;}.cls-12,.cls-14,.cls-19,.cls-8,.cls-9{fill:#3f3a37;}.cls-10,.cls-8{stroke:#fff;}.cls-10,.cls-11,.cls-13,.cls-16,.cls-8,.cls-9{stroke-miterlimit:10;}.cls-10{fill:#f7f7f7;}.cls-17{fill:#575350;}.cls-20{fill:#3f3f3f;}.cls-21{fill:#1a1a1a;}.cls-22{fill:#2e2e2e;}.cls-23{fill:#070707;}</style><pattern id="dots" data-name="dots" width="19.21" height="19.21" patternTransform="translate(0 18.74) scale(1 0.99)" patternUnits="userSpaceOnUse" viewBox="0 0 19.21 19.21"><rect class="cls-1" width="19.21" height="19.21"/><circle class="cls-2" cx="9.6" cy="9.6" r="4.6"/></pattern></defs><title>Blog_Productivity</title><g id="Layer_2" data-name="Layer 2"><g id="otter_drawing"><rect class="cls-3" width="381" height="228.09"/><path class="cls-4" d="M381,77.06V219.37q-1.63,4.41-3.47,8.72H1.1c-.37-.88-.74-1.76-1.1-2.64V71A204.76,204.76,0,0,1,48.54,0H330.1A204.65,204.65,0,0,1,381,77.06Z"/><path class="cls-5" d="M328.54,148.21a138.57,138.57,0,0,1-25.19,79.88H75.28a139.23,139.23,0,1,1,253.26-79.88Z"/><circle class="cls-2" cx="189.32" cy="148.21" r="78.09"/><rect class="cls-6" width="381" height="228.09"/><polyline class="cls-7" points="211.43 202.47 159.54 202.66 176.9 123.57 198.17 122.57"/><path class="cls-8" d="M146.85,195.73c-1.58.74-4.29-1.69-6.17-5.46l-.42.33c1.74,3.9,1.87,7.59.27,8.34s-4.36-1.76-6.25-5.62a4.91,4.91,0,0,1-.5.1v0c1.88,4,2.08,7.94.43,8.71s-4.51-1.89-6.39-5.93a13.91,13.91,0,0,1-1.52-6.56c-.11-2.67,2.47-5.87,6.43-7.72,3.08-1.44,6.22-1.7,8.41-.91l.09,0c1.63.48,3.71,2.79,5.19,6C148.3,191.06,148.5,195,146.85,195.73Z"/><path class="cls-8" d="M229.23,197.23c1.6.71,4.26-1.77,6.06-5.58.14.11.28.22.43.32-1.66,3.94-1.72,7.63-.11,8.35s4.33-1.84,6.14-5.74c.17,0,.34.07.51.09v0c-1.8,4.07-1.92,8-.26,8.71s4.47-2,6.27-6.05a13.89,13.89,0,0,0,1.4-6.6c.05-2.66-2.58-5.81-6.58-7.58-3.11-1.38-6.26-1.58-8.43-.74l-.09,0c-1.62.5-3.65,2.86-5.07,6.06C227.69,192.59,227.57,196.49,229.23,197.23Z"/><path class="cls-7" d="M199.78,104.16a13.11,13.11,0,0,1,1.76,5.27l.06.57a14.61,14.61,0,0,1-1.22,8,18.81,18.81,0,0,1-3.48,5.42c-6.22,7-10.45,10.07-15.64,8.8-2.46-.6-4.26-1.85-4.85-3.29-3-7.33-5.59-12.75-4.5-19v0a26.51,26.51,0,0,1,2.52-5.85,2,2,0,0,1,.11-.2,13.8,13.8,0,0,1,3.57-3.29,19.57,19.57,0,0,1,12.17-2.67A12.7,12.7,0,0,1,199.78,104.16Z"/><path class="cls-9" d="M204.58,116.83c-.47,1.15-2,1.71-3.81,1.6.08-.17.17-.34.25-.52a12.94,12.94,0,0,0,1.23-5.41C204.13,113.79,205.12,115.51,204.58,116.83Z"/><path class="cls-9" d="M168.78,109.18c-.14,1.24.91,2.44,2.59,3.23a5.44,5.44,0,0,1,0-.57,13,13,0,0,1,1.49-5.35C170.63,106.73,168.94,107.77,168.78,109.18Z"/><circle class="cls-9" cx="180.22" cy="111.83" r="1.2"/><ellipse class="cls-9" cx="183.24" cy="126.61" rx="2.69" ry="3.59" transform="translate(28.53 286.83) rotate(-80.65)"/><circle class="cls-9" cx="192.59" cy="114.7" r="1.2"/><path class="cls-10" d="M78.79,98.59c-2.59,0-5.19,0-7.78,0a3,3,0,0,1-2.58-1.27c-1.36-1.72-2.74-3.42-4.12-5.13s-2.84-3.53-4.25-5.3c-.45-.55-.88-1.12-1.34-1.66a2.84,2.84,0,0,1-.62-2.65q1.53-6.6,3-13.2c.17-.74.33-1.47.51-2.21a2.65,2.65,0,0,1,1.48-1.81c2.36-1.14,4.72-2.26,7.08-3.39l7.29-3.49a2.91,2.91,0,0,1,2.65,0l12.69,6.07c.47.23.93.46,1.41.67a3.05,3.05,0,0,1,1.84,2.31c.74,3.33,1.52,6.65,2.28,10q.59,2.55,1.18,5.1a3.05,3.05,0,0,1-.74,2.78c-1.45,1.76-2.87,3.56-4.31,5.34L90,96.3c-.32.4-.64.81-1,1.21a2.74,2.74,0,0,1-2.22,1.08Z"/><path class="cls-10" d="M78.16,66.76a16.2,16.2,0,0,0-.2-1.88,1.29,1.29,0,0,1,.23-1.14.84.84,0,0,1,1.43.26,2,2,0,0,1,0,1.14,8.9,8.9,0,0,0-.16,1.79.53.53,0,0,0,.08.33.87.87,0,0,1,.24.52c0,.11.13.11.21.11a11.28,11.28,0,0,1,5.59,2.23,13.73,13.73,0,0,1,1.22,1.07c.11.11.2.14.32,0a.28.28,0,0,1,.24-.11,1.06,1.06,0,0,0,.89-.42,14,14,0,0,0,1-1,1.8,1.8,0,0,1,.81-.6.87.87,0,0,1,1,.32A.94.94,0,0,1,91,70.46a2.84,2.84,0,0,1-.82.6,10.2,10.2,0,0,0-1.38.9.63.63,0,0,0-.29.5c0,.12-.1.19-.18.26a.2.2,0,0,0,0,.3,11.24,11.24,0,0,1,1.62,4.09,11.46,11.46,0,0,1,.1,3.36c0,.14,0,.21.16.23a.21.21,0,0,1,.17.09c.28.43.74.42,1.16.5s1.14.06,1.7.18a1.16,1.16,0,0,1,.61.29.81.81,0,0,1,.24.91.92.92,0,0,1-.8.58,2.3,2.3,0,0,1-.93-.21,11.08,11.08,0,0,0-1.68-.57.79.79,0,0,0-.62.07.23.23,0,0,1-.21,0c-.21-.06-.28,0-.34.23a11.22,11.22,0,0,1-3.1,4.68,9.54,9.54,0,0,1-1.57,1.19c-.16.09-.24.19-.15.37a.22.22,0,0,1,0,.19.91.91,0,0,0,.12.77,10.36,10.36,0,0,0,.88,1.41,2.06,2.06,0,0,1,.38.77.89.89,0,0,1-.51,1.06.93.93,0,0,1-1.1-.42,3.61,3.61,0,0,1-.35-.86,9.71,9.71,0,0,0-.57-1.56.7.7,0,0,0-.41-.38.29.29,0,0,1-.2-.17c-.06-.18-.17-.18-.33-.12a10.43,10.43,0,0,1-2.92.62,11.15,11.15,0,0,1-4.51-.6A1,1,0,0,1,75,89.7c-.12,0-.2,0-.25.09a.44.44,0,0,1-.31.27.49.49,0,0,0-.29.29A8.74,8.74,0,0,0,73.53,92a2.33,2.33,0,0,1-.47,1,.88.88,0,0,1-1.09.21.91.91,0,0,1-.36-1.1,2.62,2.62,0,0,1,.39-.74,9,9,0,0,0,.92-1.52.62.62,0,0,0,.06-.53A.36.36,0,0,1,73,89c.1-.17,0-.25-.12-.33a11.15,11.15,0,0,1-2.23-1.83,11,11,0,0,1-2.45-4c-.07-.2-.14-.34-.38-.25a.2.2,0,0,1-.17,0,.91.91,0,0,0-.77-.06,11.52,11.52,0,0,0-1.53.53,2.06,2.06,0,0,1-1,.2.84.84,0,0,1-.39-1.54,1.8,1.8,0,0,1,1-.29,10.93,10.93,0,0,0,1.8-.22.7.7,0,0,0,.47-.3.46.46,0,0,1,.3-.19c.12,0,.15-.1.13-.23a11.18,11.18,0,0,1,1.66-7.41c.1-.16.14-.27-.05-.38a.25.25,0,0,1-.11-.18.87.87,0,0,0-.46-.65A10.55,10.55,0,0,0,67.32,71a2.12,2.12,0,0,1-.77-.63.85.85,0,0,1,1.08-1.27,2.89,2.89,0,0,1,.9.77A8.25,8.25,0,0,0,69.71,71a.58.58,0,0,0,.5.14c.13,0,.21.05.3.11a.15.15,0,0,0,.24,0,11,11,0,0,1,6.43-3.28,2.51,2.51,0,0,1,.27,0c.22,0,.44,0,.43-.34a.13.13,0,0,1,0-.1A.83.83,0,0,0,78.16,66.76Z"/><path class="cls-10" d="M81.89,82.13a.75.75,0,0,1,.85-.73l3.72.62c.19,0,.38.08.57.1s.22.11.15.28a8.81,8.81,0,0,1-3.31,4.14c-.13.09-.19.1-.27-.07-.52-1.28-1-2.55-1.57-3.82A1.34,1.34,0,0,1,81.89,82.13Z"/><path class="cls-10" d="M77.71,70.48c-.08,1.18-.15,2.34-.22,3.49a4.46,4.46,0,0,1,0,.82.74.74,0,0,1-1.15.53c-.41-.25-.8-.55-1.2-.83l-2.34-1.66c-.16-.11-.2-.17,0-.32a8.93,8.93,0,0,1,4.81-2.28C77.77,70.19,77.69,70.37,77.71,70.48Z"/><path class="cls-10" d="M69.85,79.07a9.17,9.17,0,0,1,1.2-4.48c.08-.14.14-.16.26,0,.8.72,1.61,1.42,2.4,2.15a7,7,0,0,1,.89.83.72.72,0,0,1-.32,1.2c-.47.17-1,.3-1.45.44l-2.69.77c-.24.07-.25.06-.26-.18S69.86,79.25,69.85,79.07Z"/><path class="cls-10" d="M87.81,79.18c0,.2,0,.4,0,.59s-.06.22-.23.17l-2.49-.72L83.6,78.8a1.75,1.75,0,0,1-.32-.12A.73.73,0,0,1,83,77.5c.38-.42.83-.76,1.24-1.15l2-1.79c.13-.12.2-.14.29,0a9,9,0,0,1,1.2,4.08C87.77,78.84,87.82,79,87.81,79.18Z"/><path class="cls-10" d="M78.81,88.09a9.91,9.91,0,0,1-2.65-.42c-.16,0-.16-.12-.09-.25.69-1.25,1.38-2.5,2.08-3.75a.75.75,0,0,1,1.37,0c.25.41.48.83.71,1.26.45.81.89,1.62,1.35,2.42.1.18.06.25-.12.3a8.89,8.89,0,0,1-2.23.37C79.09,88.06,79,88.08,78.81,88.09Z"/><path class="cls-10" d="M74.89,81.42a.75.75,0,0,1,.82,1c-.17.59-.46,1.14-.68,1.71-.32.78-.65,1.54-1,2.32-.07.18-.14.2-.3.09a9,9,0,0,1-3.27-4.09c-.1-.25-.09-.24.17-.29l4-.69Z"/><path class="cls-10" d="M79.94,70.54c0-.33,0-.34.26-.3a9.06,9.06,0,0,1,4.39,2c.12.1.22.21.33.3s.12.17,0,.26L83,74.14l-1.54,1.09a.78.78,0,0,1-1.14-.1,1.24,1.24,0,0,1-.18-.7c0-.93-.08-1.86-.15-2.79A7.36,7.36,0,0,0,79.94,70.54Z"/><polygon class="cls-10" points="78.27 77.89 77.57 78.77 77.82 79.86 78.83 80.35 79.84 79.86 80.09 78.77 79.39 77.89 78.27 77.89"/><path class="cls-11" d="M76.15,101.6H68.37a3.09,3.09,0,0,1-2.59-1.26c-1.35-1.72-2.74-3.42-4.11-5.13l-4.26-5.3c-.44-.56-.87-1.12-1.33-1.66a2.86,2.86,0,0,1-.62-2.66Q57,79,58.5,72.4c.17-.74.33-1.48.51-2.21a2.67,2.67,0,0,1,1.48-1.82L67.56,65l7.3-3.5a2.91,2.91,0,0,1,2.65,0L90.2,67.57c.47.22.93.46,1.41.66a3.05,3.05,0,0,1,1.83,2.32q1.13,5,2.29,10,.58,2.57,1.18,5.11a3,3,0,0,1-.74,2.77c-1.46,1.77-2.87,3.57-4.31,5.35l-4.47,5.56-1,1.21a2.77,2.77,0,0,1-2.22,1.08Z"/><path class="cls-11" d="M75.52,69.76a14.38,14.38,0,0,0-.21-1.88,1.31,1.31,0,0,1,.24-1.13A.84.84,0,0,1,77,67a2.07,2.07,0,0,1,0,1.13,9,9,0,0,0-.16,1.79.56.56,0,0,0,.08.34.87.87,0,0,1,.24.51c0,.11.12.11.21.12A11.28,11.28,0,0,1,83,73.13a13.62,13.62,0,0,1,1.22,1.06c.11.11.19.14.32,0a.34.34,0,0,1,.23-.11,1,1,0,0,0,.89-.41c.35-.33.7-.67,1-1a1.9,1.9,0,0,1,.81-.61.88.88,0,0,1,1,.33.94.94,0,0,1-.11,1.08,2.84,2.84,0,0,1-.82.6,9.61,9.61,0,0,0-1.38.9.61.61,0,0,0-.29.49.4.4,0,0,1-.18.27c-.11.09-.12.17,0,.3a11.2,11.2,0,0,1,1.62,4.08,11.48,11.48,0,0,1,.1,3.36c0,.15,0,.21.16.24a.25.25,0,0,1,.17.08c.27.44.74.42,1.16.5s1.14.07,1.7.19a1.09,1.09,0,0,1,.61.29.83.83,0,0,1,.24.91.91.91,0,0,1-.81.57,2.09,2.09,0,0,1-.92-.2A10.07,10.07,0,0,0,88,85.48a.75.75,0,0,0-.62.07.29.29,0,0,1-.22,0c-.2-.06-.27,0-.34.23a11.23,11.23,0,0,1-3.09,4.68,9.7,9.7,0,0,1-1.58,1.18c-.15.1-.24.19-.14.37a.2.2,0,0,1,0,.2,1,1,0,0,0,.12.76A12,12,0,0,0,83,94.43a2,2,0,0,1,.39.77.89.89,0,0,1-.52,1.06.92.92,0,0,1-1.09-.42,3.79,3.79,0,0,1-.35-.86,8.6,8.6,0,0,0-.58-1.56.67.67,0,0,0-.41-.38.29.29,0,0,1-.19-.17c-.06-.18-.17-.18-.33-.12a10.07,10.07,0,0,1-2.92.61,11,11,0,0,1-4.51-.59,1,1,0,0,1-.16-.06c-.12,0-.21,0-.25.09a.49.49,0,0,1-.31.27.55.55,0,0,0-.3.28A10.07,10.07,0,0,0,70.89,95a2.31,2.31,0,0,1-.47,1,.88.88,0,0,1-1.09.2A.91.91,0,0,1,69,95.12a2.94,2.94,0,0,1,.4-.74,9.76,9.76,0,0,0,.92-1.52.68.68,0,0,0,.06-.54.36.36,0,0,1,0-.32c.1-.16,0-.24-.12-.33a11.35,11.35,0,0,1-4.68-5.8c-.07-.2-.14-.35-.38-.25a.18.18,0,0,1-.17,0,.91.91,0,0,0-.77-.06,13.15,13.15,0,0,0-1.53.53,2,2,0,0,1-1,.21.85.85,0,0,1-.4-1.55,1.94,1.94,0,0,1,1-.28,10.94,10.94,0,0,0,1.8-.23.65.65,0,0,0,.47-.3.42.42,0,0,1,.29-.18c.13,0,.16-.1.14-.23a11.11,11.11,0,0,1,1.66-7.41c.09-.16.14-.27-.05-.38a.27.27,0,0,1-.11-.19.88.88,0,0,0-.46-.64A11.86,11.86,0,0,0,64.68,74a2.12,2.12,0,0,1-.77-.62.9.9,0,0,1,0-1.08.88.88,0,0,1,1-.2,2.92,2.92,0,0,1,.9.78A8.86,8.86,0,0,0,67.07,74a.61.61,0,0,0,.5.14c.13,0,.21,0,.3.11a.15.15,0,0,0,.24,0,11.12,11.12,0,0,1,6.43-3.28,2.48,2.48,0,0,1,.27,0c.22,0,.43,0,.42-.34a.18.18,0,0,1,0-.1A.85.85,0,0,0,75.52,69.76Z"/><path class="cls-11" d="M79.25,85.14a.75.75,0,0,1,.85-.73l3.72.62a5.62,5.62,0,0,0,.57.09c.23,0,.22.12.15.29a9.43,9.43,0,0,1-1.21,2.14,9.07,9.07,0,0,1-2.1,2c-.13.09-.2.1-.27-.08-.52-1.27-1-2.54-1.58-3.82A1.48,1.48,0,0,1,79.25,85.14Z"/><path class="cls-11" d="M75.06,73.48c-.07,1.18-.14,2.34-.21,3.5a5.64,5.64,0,0,1,0,.82.74.74,0,0,1-1.15.53,14.32,14.32,0,0,1-1.2-.84L70.1,75.84c-.15-.11-.19-.17,0-.32a8.91,8.91,0,0,1,4.8-2.29C75.13,73.19,75.05,73.38,75.06,73.48Z"/><path class="cls-11" d="M67.21,82.08a9.17,9.17,0,0,1,1.2-4.48c.08-.14.14-.16.26,0l2.4,2.15a7,7,0,0,1,.89.83.73.73,0,0,1-.32,1.21c-.48.17-1,.29-1.45.43L67.5,83c-.24.07-.25.06-.26-.19S67.21,82.26,67.21,82.08Z"/><path class="cls-11" d="M85.17,82.18a4,4,0,0,0,0,.6c0,.18-.06.22-.23.17-.83-.25-1.66-.48-2.5-.72L81,81.8a1.92,1.92,0,0,1-.31-.11.73.73,0,0,1-.24-1.19c.38-.41.83-.76,1.24-1.14.66-.6,1.34-1.19,2-1.8.13-.11.19-.13.29,0a9,9,0,0,1,1.2,4.07C85.13,81.84,85.18,82,85.17,82.18Z"/><path class="cls-11" d="M76.17,91.1a10.32,10.32,0,0,1-2.65-.42c-.17-.06-.17-.12-.09-.25.69-1.25,1.38-2.51,2.08-3.75a.75.75,0,0,1,1.37,0c.25.41.48.84.71,1.26.45.81.89,1.63,1.35,2.43.1.18,0,.24-.13.29a8.81,8.81,0,0,1-2.22.37A3,3,0,0,0,76.17,91.1Z"/><path class="cls-11" d="M72.25,84.43c.62,0,1,.42.81,1a15.75,15.75,0,0,1-.68,1.72c-.31.77-.64,1.54-.95,2.32-.08.18-.14.2-.3.09a8.93,8.93,0,0,1-3.27-4.09c-.1-.25-.09-.25.17-.29l4-.69A.77.77,0,0,1,72.25,84.43Z"/><path class="cls-11" d="M77.3,73.54c0-.32,0-.33.26-.29a9,9,0,0,1,4.39,2c.12.09.21.21.33.3s.11.17,0,.26l-1.89,1.34c-.51.36-1,.73-1.54,1.08a.78.78,0,0,1-1.15-.1,1.24,1.24,0,0,1-.17-.7c0-.93-.08-1.86-.15-2.79A7.45,7.45,0,0,0,77.3,73.54Z"/><polygon class="cls-11" points="75.62 80.9 74.92 81.78 75.17 82.87 76.19 83.36 77.2 82.87 77.45 81.78 76.75 80.9 75.62 80.9"/><polyline class="cls-12" points="211.43 202.47 198.17 122.57 202.18 202.47"/><line class="cls-13" x1="184.74" y1="109.7" x2="188.62" y2="110.34"/><polygon class="cls-14" points="188.79 110.02 200.22 111.3 199.82 112.5 188.79 110.02"/><path class="cls-15" d="M187.84,115.47l.95-5.45L200,111.88l-3.85,5.81a1.37,1.37,0,0,1-1.57.55l-6.26-2.06A.64.64,0,0,1,187.84,115.47Z"/><polygon class="cls-14" points="184.93 109.27 173.77 106.49 173.72 107.75 184.93 109.27"/><path class="cls-15" d="M183.91,114.71l1-5.44-11.1-2.15,1.58,6.79a1.36,1.36,0,0,0,1.28,1.06l6.58.26A.63.63,0,0,0,183.91,114.71Z"/><rect class="cls-16" x="149.83" y="153.48" width="77.79" height="53.46" rx="12"/><polygon class="cls-17" points="180.22 186.3 180.24 186.15 180.03 186.5 180.22 186.3"/><path class="cls-17" d="M180.7,184.87l-.17.1a6.9,6.9,0,0,0-.7,1.56,3.33,3.33,0,0,0,.65-.86c-.06,0-.33.39-.31.24.19-.29.22-.22.46-.6s-.19.23-.2,0Z"/><path class="cls-17" d="M180,185.85l.3-.5A2.42,2.42,0,0,0,180,185.85Z"/><path class="cls-17" d="M179.91,185.93c0-.07.21-.38.24-.44l-.44.63Z"/><path class="cls-17" d="M179.7,185.76l-.06.05C179.59,185.92,179.65,185.83,179.7,185.76Z"/><path class="cls-17" d="M179.54,185.78c-.1.24,0,.12.1,0l0-.05c.08-.21.38-.67.36-.52.11-.08-.16.39.06.11l.15-.42C180.12,184.94,179.68,185.6,179.54,185.78Z"/><path class="cls-17" d="M179.7,185.76l.05,0C179.78,185.66,179.75,185.7,179.7,185.76Z"/><polygon class="cls-17" points="179.79 185.88 179.87 185.79 179.98 185.59 179.79 185.88"/><path class="cls-17" d="M179.34,185.7c.38-.64.09.15.39-.35-.09,0,.12-.52.34-.87l-.2.16A6.54,6.54,0,0,0,179.34,185.7Z"/><path class="cls-17" d="M180.11,184l-.08.11Z"/><path class="cls-17" d="M179.07,184.85l.56-.54a2.65,2.65,0,0,1-.33.46c0,.13.28-.28.31-.17-.33.61-.15,0-.42.53.06,0,.15,0,.48-.46l-.15.45.34-.67c.08-.21-.35.48-.11,0a.94.94,0,0,1,.27-.38c-.12.1.16-.6,0-.57S179.32,184.58,179.07,184.85Z"/><polygon class="cls-17" points="179.47 184.13 179.61 183.86 179.42 184.21 179.47 184.13"/><path class="cls-17" d="M178.77,184.86l.34-.35c0,.06-.1.2-.16.33l.33-.53c.3-.62-.23.12-.34.2,0-.35.19-.32.46-.91,0,0-.05.18,0,.25.31-.72-.16-.16-.31,0s-.12.25-.06.22l-.17.16C178.62,184.71,178.6,184.86,178.77,184.86Z"/><path class="cls-17" d="M179,185c-.06,0,0,0,0-.11C178.86,185,178.81,185.14,179,185Z"/><path class="cls-17" d="M179,183.82s0,0,0,0S179.07,183.78,179,183.82Z"/><path class="cls-17" d="M178.68,184.56l0-.1-.13.29A.88.88,0,0,0,178.68,184.56Z"/><path class="cls-17" d="M176.65,182.08c-.15.24-.2.37-.12.36-.2.31-.23.2-.38.36s-.24.37-.41.69c0,.08.35-.31.38-.17a2.53,2.53,0,0,0-.21.34c.23-.14.58-.32.51,0,0,.17.18.07.37,0,.24.38.79.27,1,.79l.42-.6c-.17.32.09.06-.16.45,0-.09,0,0-.06,0-.25.59.23.08.21.33a4.66,4.66,0,0,1,.45-.75c-.42.69.11,0-.33.87,0,.25.36-.61.4-.44.25-.4,0-.25.18-.57s0,.19.26-.25c0-.29-.83.39-1.21.48l.26-.37c-.29.2-.5.1-.21-.59-.2.38-.06-.3-.55.54.09-.21.06-.19.06-.28l-.18.25c-.05,0,.21-.44.12-.46a3.39,3.39,0,0,1-.49.74c.15-.45.28-.85.41-1.22a3.27,3.27,0,0,0-.21.42c0-.16-.18.19-.26.3s.23-.47.38-.7-.59.65-.47.32l-.2.38c-.15,0,0-.41-.15-.36.27-.52.35-.37.53-.56a1.85,1.85,0,0,1,.11-.34l-.69.73C176.8,182.18,176.66,182.14,176.65,182.08Z"/><path class="cls-17" d="M177.08,182l.16-.18s-.06.05-.06,0Z"/><path class="cls-17" d="M176.65,182.08l0-.06S176.65,182.06,176.65,182.08Z"/><path class="cls-17" d="M176.41,183.71v0s0,0,0,0Z"/><path class="cls-17" d="M177.52,182.1c-.06.14-.12.29-.17.44A.91.91,0,0,0,177.52,182.1Z"/><path class="cls-17" d="M177.86,182.88a2.71,2.71,0,0,0,.2-.27S178,182.68,177.86,182.88Z"/><polygon class="cls-17" points="177.03 181.84 176.89 181.9 176.8 181.98 177.03 181.84"/><path class="cls-17" d="M174.31,182.72c-.22.47.05.27.08.41.29-.12.64-.92.81-.88l-.61.87c.18,0,.26.35.89-.34a1.29,1.29,0,0,1-.24.37c.12,0,.87-1.23.8-.86-.47.48-.3.55-.68,1.08l-.07,0c.12,0,.42-.23.45-.16.14-.22.32-.6.41-.58a2.79,2.79,0,0,1,.33-.55c-.23.21-.17,0-.41.3.15-.32.09-.08.24-.4l-.24.24c0-.1.24-.27.21-.38-.12.17-.29.32-.32.25l.08-.09c-.11.09-.07-.09-.38.41l.27-.52-.21.34c0-.2.46-1,.05-.7a.86.86,0,0,1-.24.33c-.09.27.24-.2.32-.21-.21.34-.57.67-.63.92.19-.45-.17-.05.34-.89-.05-.12-.35.27-.32,0l.09-.12c-.38.54.09-.29-.35.22l0,.16c-.15.22-.18.21-.24.23a.63.63,0,0,0,.13-.2,1.89,1.89,0,0,1-.52.49c0,.1.27-.19.39-.26C174.52,182.48,174.31,182.81,174.31,182.72Z"/><path class="cls-17" d="M176.2,181.88l-.16.17A1.46,1.46,0,0,0,176.2,181.88Z"/><path class="cls-17" d="M174.37,181.75c0-.13.25-.33.31-.54-.24.24-.31.61-.65,1,.13-.26-.21.1-.24.1a8,8,0,0,0,.59-.86c-.12.13,0-.16,0-.2-.14.39-.22.14-.38.55s-.47.47-.33.21.16-.15.19-.14c.31-.41.11-.26.4-.63-.49.53-.74.3-1.52,1.14-.13.18.12,0,.19,0,.05-.24.44-.43.59-.58-.09.16.22-.06-.07.23l-.36.27a.7.7,0,0,0,.33.39,1.12,1.12,0,0,0,.46.12l-.09-.09a1.09,1.09,0,0,1,.36-.33l.38-.66c0,.07.09,0-.07.22a2.76,2.76,0,0,0,.43-.64c.15-.07,0,.19.33-.18.23-.6-.39.35-.22-.19Z"/><polygon class="cls-17" points="174.87 181.59 174.63 181.88 174.78 181.76 174.87 181.59"/><path class="cls-17" d="M173.89,182.93l.25-.32C174.14,182.48,174,182.67,173.89,182.93Z"/><path class="cls-17" d="M174.23,181.17l-.13.07-.07.13A1.1,1.1,0,0,1,174.23,181.17Z"/><path class="cls-17" d="M172.2,182.15c.22.06.56-.14.41.23.45-.29.68-.65,1.06-.94,0-.1-.62.46-.82.51.33-.28-.17,0-.16-.12A4.13,4.13,0,0,1,172.2,182.15Z"/><path class="cls-17" d="M173.42,181s-.42.1-.23,0,.43-.15.37-.11c.65-.28-.14,0,.29-.17a3.17,3.17,0,0,1-.34.13c.1-.11-.62.17-.32,0a4.76,4.76,0,0,0-.73.17c.56-.23.59-.2,1.11-.38l-1.64.4c.78-.31-.31-.1.33-.3.05,0,.24,0,.17,0,1-.17-.25,0-.1-.09l.88-.11c-.16,0-.83,0-.19-.08l.47,0a2.76,2.76,0,0,1-1-.13h0l.66,0c-.68-.09-.44.07-1.91,0,1.9,0-.54-.06.29-.12s.3.07,1.18.07c-.93,0-.24,0-.48-.07.86.05.19,0,1.13,0-.5-.06-1-.13-1.43-.22.48,0,.44,0,.36,0s-1.13-.17-1.59-.13c.16.17.2.34-.26.49l-.05.05c1.23,0,.12.1,1.12.09l-1.05.07c.39.09.6-.06,1.07-.05.19,0-.45.1-.86.12,0,.08.32,0,1,0l-1.16.15c.36.11.82.21,1.14.3s.5.21.42.43l.54-.23c-.1.11.27,0,.5,0s.34-.08-.14.25l.46-.21c-.26.12-.71.44-1.07.6.2-.07.07.07.26,0l.15-.19c.45-.21.24,0-.07.21.56-.24.72-.57,1.12-.81-1,.44.8-.55.39-.37A6.39,6.39,0,0,0,173.42,181Z"/><path class="cls-17" d="M172.19,181.84l.16-.05Z"/><path class="cls-17" d="M172.31,179.92s0,0,0,0C172.12,179.86,172.23,179.89,172.31,179.92Z"/><polygon class="cls-17" points="172.69 181.83 172.69 181.83 172.69 181.83 172.69 181.83"/><polygon class="cls-17" points="173.83 181.12 173.82 181.09 173.63 181.24 173.83 181.12"/><path class="cls-17" d="M173.45,179.89l-.34-.09Z"/><path class="cls-17" d="M174.16,179.58h0S174.18,179.6,174.16,179.58Z"/><path class="cls-17" d="M176.2,177.63a1.78,1.78,0,0,0-.16-.78l.13.23a2,2,0,0,0-.44-.94l.1.21c.11.4-.3-.34-.46-.44,0,.16.44,1.05.24.89,0,0-.15-.18-.25-.36-.11,0,.26.66.25.78-1.07-1.71,0,.61-.73-.41,0,.19-.18.1-.07.49-.21-.45-.1,0-.39-.47.6,1-.55-.27.23,1-.35-.27,0,.09-.28-.11-.09-.14-.07-.16-.07-.19-.23-.22.25.59-.16.05-.18,0,.2.35.34.73-.21-.07-.28-.26-.68-.73.37.6.11.36.26.7a.55.55,0,0,1,.28.34c-.2,0,.15.46.12.7-.49-.6.12-.1-.33-.54a3.18,3.18,0,0,0-.31-.87c-.13,0-.21.24-.14.59-.13,0-.18-.32-.28-.34-.38-.16.32.74,0,.54l-.27-.3c.33.42-.33.08-.22.37a1.9,1.9,0,0,1,.41.29c-.43-.32-.36-.21-.26-.07s.24.29-.15.12a5.36,5.36,0,0,1,1,.65c-.2-.08-.47-.22-.65-.3.46.14-.63-.41-.8-.65.24.23-.24.16.17.43l-.49-.26c-.22.06,1.13.58.5.44l-.4-.16c-.08.09-.38.12-.58.2s-.27.18.21.33,1.49.2,1.8.26a9.16,9.16,0,0,1-1.25-.42l.74.19c-.5-.13-.71-.28-1.14-.35s.66.15.34,0c.71.23.76.28,1.38.46l-.33-.13c.27.09.27.06.54.16-.79-.34.38.07.06-.1l-.14,0a1,1,0,0,1-.39-.21c.51.21.45.17.69.26-.25-.15-.82-.49-.76-.53.6.37.41.15.89.47-.55-.39-.13-.19-.43-.43-.08-.1,0-.08.27.15l.07.08h0l.11.09s-.33-.32-.07-.11a.7.7,0,0,1,.15.17c.11.06-.6-.75-.15-.36-.2-.22-.14-.3-.58-.81.17.16.5.59.49.48-.29-.48.18.14,0-.2a4.86,4.86,0,0,0,.36.64c.14.19-.18-.52,0-.48l.26.35c-.08-.18-.3-.6,0-.22l-.23-.34c.17.13.19,0,.49.3l-.34-.69c.55.61.29-.08,0-.73a.57.57,0,0,1,.28.23c0,.06.06.17.1.26s.38.32.07-.24c0-.2.27.35.37.41-.36-.84.69.35,0-.84,0,0-.29-.15-.35,0-.06-.16-.22-.38-.21-.42s.38.29.35,0l.45.75C176.36,178.49,175.43,176.63,176.2,177.63Z"/><path class="cls-17" d="M175,178.33l.3.33-.21-.31C175.13,178.41,175.11,178.43,175,178.33Z"/><path class="cls-17" d="M175.12,178.35a1.24,1.24,0,0,0-.06-.18s0,0,0,.1Z"/><path class="cls-17" d="M176.39,177.34s.1.07.08,0S176.34,177.22,176.39,177.34Z"/><polygon class="cls-17" points="176.34 177.07 176.23 176.97 176.28 177.06 176.34 177.07"/><path class="cls-17" d="M178,175.28l-.13-.53c.14.23.12-.12.3.31-.23-.6.2-.13-.27-.91-.19.45-.91.23-.91,1.16l-.11-.36c.15.75-.66-.54-.12.8l-.34-.65c-.19-.13.35,1-.13.4l.16.25s-.1-.09-.13-.08l.08.11c.08.3,0,.29-.14.15s0-.11,0-.17.05.27,0,.29a1.05,1.05,0,0,1-.21-.38c0,.37-.45-.26,0,.75.09.18.23.3.23.42.27.23.13-.18.07-.49h0c-.46-1,.18.18.06-.29.19.4.13.42.23.63.54.63-.12-.64.49.21v0c.07.07,0-.12,0-.22a1.64,1.64,0,0,0-.21-.23c0-.11-.24-.52-.32-.7.26.39-.07-.23.1-.05a2.25,2.25,0,0,1,.25.58l-.09-.29c.05-.06.3.38.44.57-.11-.32-.14-.19-.33-.62.33.43.53.15.45-.29,0,.08.21.42.12.38.07.08,0-.16-.13-.45s.17-.19.4,0l-.19-.28c-.19-.54.38.27.35-.09h0c0-.09-.35-.83-.19-.72A7.56,7.56,0,0,0,178,175.28Z"/><path class="cls-17" d="M178.06,174.36l.18.43c.09.07-.13-.49-.28-.75,0,.1-.12-.06,0,.18C178,174.28,178.07,174.43,178.06,174.36Z"/><path class="cls-17" d="M178.9,173.85a3.89,3.89,0,0,0-.16-.38c-.16.14-.31.43-.55.14-.12-.1.19.54.18.72l-.25-.4c.1.29-.27-.1.13.56,0,.06-.13-.34,0-.24l.12.24,0-.12.12.31c.33.36-.38-.93-.09-.73l.3.6c.11,0,0-.24.32.08,0,0-.15-.3-.11-.17a2.27,2.27,0,0,1-.25-.44c-.09-.54.16.37.38.57-.09-.48,0-.94.28-.48-.24-.34-.34-.77-.26-.77a2,2,0,0,1,.23.56c.07,0,.17.19.15.08a3.11,3.11,0,0,1-.42-1C178.69,172.67,179.1,173.84,178.9,173.85Z"/><path class="cls-17" d="M178.7,173.32a.29.29,0,0,0,0,.15l.06-.05Z"/><polygon class="cls-17" points="183.65 185.89 183.8 185.92 183.43 185.73 183.65 185.89"/><path class="cls-17" d="M185.06,186.37l-.12-.14a10.84,10.84,0,0,0-1.57-.65,5.66,5.66,0,0,0,.91.56s-.42-.28-.28-.25c.31.16.25.18.65.39s-.25-.16-.07-.15Z"/><path class="cls-17" d="M184,185.78l.52.26A5,5,0,0,0,184,185.78Z"/><path class="cls-17" d="M183.94,185.69c.06,0,.39.19.45.21l-.67-.37Z"/><path class="cls-17" d="M184.06,185.55l-.05-.05C183.89,185.45,184,185.5,184.06,185.55Z"/><path class="cls-17" d="M184,185.43c-.25-.1-.11,0,0,.07l0,0c.21.08.7.34.55.31.09.09-.39-.15-.09,0l.42.15A6.89,6.89,0,0,0,184,185.43Z"/><path class="cls-17" d="M184.06,185.55s0,0,0,0S184.12,185.59,184.06,185.55Z"/><polygon class="cls-17" points="183.97 185.6 184.06 185.67 184.27 185.77 183.97 185.6"/><path class="cls-17" d="M184.05,185.28c.66.34-.12.06.39.32a2.43,2.43,0,0,1,.87.33l-.18-.16A10.11,10.11,0,0,0,184.05,185.28Z"/><path class="cls-17" d="M185.79,186l-.11-.07A.52.52,0,0,0,185.79,186Z"/><path class="cls-17" d="M184.79,185.15l.6.47a2.89,2.89,0,0,1-.48-.29c-.12,0,.3.23.21.25-.63-.3,0-.11-.57-.36,0,.05,0,.11.52.4l-.45-.16.69.32c.21.08-.52-.31,0-.08a1.34,1.34,0,0,1,.4.23c-.12-.1.58.17.52.06S185.09,185.36,184.79,185.15Z"/><polygon class="cls-17" points="185.54 185.52 185.81 185.65 185.44 185.47 185.54 185.52"/><path class="cls-17" d="M184.72,184.93l.39.28-.33-.14.55.29c.63.27-.16-.18-.25-.28.33,0,.33.18.93.43,0,0-.18,0-.24,0,.73.29.13-.1,0-.23s-.26-.11-.21-.06l-.18-.14C184.84,184.83,184.69,184.8,184.72,184.93Z"/><path class="cls-17" d="M184.66,185.06c0-.05,0,0,.11,0C184.6,185,184.47,184.93,184.66,185.06Z"/><path class="cls-17" d="M185.74,185.21s0,0,0,0S185.78,185.25,185.74,185.21Z"/><path class="cls-17" d="M185,184.88h.08l-.29-.13A.73.73,0,0,0,185,184.88Z"/><path class="cls-17" d="M186.87,183.57c-.25-.14-.38-.18-.35-.12-.33-.19-.24-.2-.41-.32a5.53,5.53,0,0,1-.71-.37c-.06,0,.35.29.23.3l-.35-.19c.17.19.41.47.09.39-.16,0,0,.13.08.28-.3.15-.09.58-.53.67l.63.37c-.33-.15,0,.06-.45-.16.09,0,0,0,0,0-.6-.24,0,.17-.27.13a8.14,8.14,0,0,1,.78.4c-.72-.38,0,.08-.87-.32-.23,0,.63.32.48.33.43.23.24,0,.57.19s-.17,0,.27.22c.27,0-.51-.66-.66-1l.38.22c-.24-.23-.18-.38.5-.11-.38-.18.27,0-.59-.45a.54.54,0,0,0,.27.06l-.27-.15s.44.19.44.13a5.41,5.41,0,0,1-.77-.44l1.2.42-.43-.2c.15,0-.2-.14-.32-.22a3.85,3.85,0,0,1,.71.34c.18,0-.71-.49-.39-.37l-.38-.19c-.06-.11.38.06.3-.08.53.25.41.3.62.45a2.08,2.08,0,0,1,.33.11l-.81-.59C186.81,183.67,186.82,183.57,186.87,183.57Z"/><path class="cls-17" d="M187,183.9l.2.13s-.06-.05,0,0Z"/><path class="cls-17" d="M186.87,183.57l.06,0S186.89,183.57,186.87,183.57Z"/><path class="cls-17" d="M185.33,183.25h0Z"/><path class="cls-17" d="M187,184.22l-.43-.16A1.45,1.45,0,0,0,187,184.22Z"/><path class="cls-17" d="M186.37,184.42l.3.17S186.58,184.5,186.37,184.42Z"/><polygon class="cls-17" points="187.17 183.88 187.08 183.76 186.99 183.69 187.17 183.88"/><path class="cls-17" d="M185.81,181.73c-.47-.2-.24,0-.36,0,.18.23,1,.56,1,.69l-.91-.53c0,.13-.27.17.49.7a1.86,1.86,0,0,1-.39-.21c0,.08,1.3.76.94.68a7.07,7.07,0,0,0-1.11-.61l-.06,0c0,.09.29.33.23.34.23.14.62.3.62.37s.32.16.56.29c-.24-.19-.06-.13-.36-.33.33.14.09.07.42.21l-.27-.2c.09,0,.3.21.39.19-.18-.1-.36-.25-.3-.26l.1.07c-.1-.1.07-.05-.45-.33l.53.25-.35-.18c.18,0,1,.43.65.09a1.37,1.37,0,0,1-.36-.21c-.26-.09.24.2.27.26a7,7,0,0,0-1-.55c.44.17,0-.13.88.33.09,0-.32-.3-.08-.24l.13.07c-.57-.34.29.09-.27-.29l-.15,0c-.24-.14-.23-.16-.26-.21a1,1,0,0,0,.2.11,2.72,2.72,0,0,1-.55-.43c-.09,0,.23.22.32.32C186.07,181.91,185.72,181.72,185.81,181.73Z"/><path class="cls-17" d="M187,183.24l-.19-.13Z"/><path class="cls-17" d="M186.7,181.86c.12,0,.35.21.56.28-.27-.21-.62-.29-1-.58.26.12-.15-.17-.15-.19a10.06,10.06,0,0,0,.91.52c-.15-.1.14,0,.18,0-.39-.13-.18-.17-.59-.33s-.52-.39-.26-.27.18.13.18.15a6.87,6.87,0,0,0,.67.33c-.58-.42-.42-.6-1.44-1.12-.21-.09,0,.07,0,.12a2.69,2.69,0,0,1,.7.41c-.18-.07.11.17-.24-.05l-.34-.26c-.27,0-.32.27-.26.52l.06-.06a1.5,1.5,0,0,1,.37.3l.68.34c-.06,0,0,.07-.21-.07a4.41,4.41,0,0,0,.67.39c.09.11-.17,0,.23.26.59.22-.4-.33.12-.16Z"/><polygon class="cls-17" points="186.95 182.25 186.63 182.04 186.78 182.17 186.95 182.25"/><path class="cls-17" d="M185.53,181.39l.35.22C186,181.62,185.79,181.51,185.53,181.39Z"/><path class="cls-17" d="M187.24,181.73l-.09-.12-.14,0A1.09,1.09,0,0,1,187.24,181.73Z"/><path class="cls-17" d="M185.76,180.37c0,.11.31.32-.08.21.41.29.81.45,1.19.69.12,0-.61-.4-.72-.53.38.2,0-.11.07-.1A4,4,0,0,1,185.76,180.37Z"/><path class="cls-17" d="M187.31,181s-.25-.23-.05-.15.3.21.22.19c.53.3-.06-.08.31.09a1.6,1.6,0,0,1-.26-.15c.17,0-.4-.31,0-.24a2.37,2.37,0,0,0-.47-.32c.48.2.46.23.88.38-.2-.12-.68-.37-1.11-.64.68.26,0-.16.48,0,0,0,.13.09.06.08.6.36-.08-.13.07-.09l.51.31c-.06-.08-.36-.35,0-.16l.25.16c-.33-.33-.09-.32-.23-.52l.34.16c-.32-.35-.24,0-1-.56.95.57-.27-.25.14-.08s.16.18.61.42c-.47-.31-.12-.12-.24-.24.45.29.11,0,.6.31l-.77-.64c.27.14.25.08.2,0s-.66-.45-.92-.51c.16.24.21.51-.11.49.61.4-.06.07.43.41l-.58-.34c.09.17.36.2.57.36s-.33-.12-.55-.26c-.07,0,.16.11.48.35l-.71-.39c.1.32.41.85-.11.82l.45.25c-.3,0,.87.73-.11.26l.35.25c-.2-.14-.66-.37-.94-.57.13.11-.05,0,.07.15l.23.07c.35.26.1.16-.23,0a5.36,5.36,0,0,0,1.16.6c-.75-.57.84.37.56.08A3,3,0,0,0,187.31,181Z"/><path class="cls-17" d="M186,180.36l.11.09Z"/><path class="cls-17" d="M187.9,179.33s0,0,0,0S187.86,179.27,187.9,179.33Z"/><polygon class="cls-17" points="186.22 180.64 186.22 180.65 186.22 180.64 186.22 180.64"/><polygon class="cls-17" points="187.26 181.32 187.29 181.31 187.08 181.19 187.26 181.32"/><path class="cls-17" d="M188.61,179.4l-.22-.15Z"/><path class="cls-17" d="M189.22,178.75h0S189.24,178.77,189.22,178.75Z"/><path class="cls-17" d="M190,176.7a2.54,2.54,0,0,0-.51-.58l.22.16a2.86,2.86,0,0,0-.81-.65l.18.15c.28.29-.39-.22-.56-.27.06.13.86.74.63.66,0,0-.21-.12-.37-.24s.52.47.57.56c-1.65-1.14.35.47-.76-.19.1.14-.09.11.2.39-.39-.32-.08,0-.53-.3.95.68-.56-.12.65.73-.39-.16.08,0-.27-.05a.53.53,0,0,1-.15-.13c-.27-.13.49.41-.09.07-.15,0,.32.23.62.5-.2,0-.35-.15-.89-.45.58.4.27.26.54.5a.85.85,0,0,1,.39.22c-.16,0,.33.33.43.52-.67-.39,0-.09-.52-.36a4.1,4.1,0,0,0-.66-.63c-.08.06,0,.22.18.48-.12,0-.29-.23-.37-.23-.34-.11.58.56.25.43l-.33-.23c.42.33-.19.07,0,.31a3.38,3.38,0,0,1,.39.25c-.84-.55.38.39-.27.08a2.41,2.41,0,0,1,.82.69c-.16-.08-.37-.23-.51-.32.36.13-.54-.45-.75-.67.24.23-.1.12.26.42l-.4-.29c-.11,0,.91.67.46.48l-.3-.2c0,.17-.72,0-.09.54.25.17.88.5,1.08.62-.17-.21-.6-.53-.79-.73l.49.31a5.8,5.8,0,0,0-.77-.54c-.22-.21.45.24.2,0,.51.33.54.4,1,.67l-.23-.2c.19.14.19.08.38.22-.56-.47.3,0,.08-.21h-.12c-.28-.19-.23-.19-.3-.27a1.75,1.75,0,0,0,.56.26c-.2-.18-.69-.53-.65-.57.52.36.34.11.79.39-.52-.35-.12-.21-.43-.42-.09-.1,0-.09.27.09l.08.08h0l.11.08s-.36-.27-.07-.12a.43.43,0,0,1,.17.15c.13,0-.73-.63-.22-.37a6,6,0,0,0-.79-.61c.21.11.65.41.61.31-.45-.34.21.06-.07-.18.46.38.14.09.58.45.22.1-.38-.38-.25-.38l.37.23c-.15-.13-.52-.42-.11-.17l-.34-.23c.2.08.13-.05.53.15l-.6-.48c.72.39.18-.11-.36-.56a.79.79,0,0,1,.33.13l.21.19s.44.18-.07-.2c-.14-.15.38.22.48.25-.68-.59.7.15-.41-.65,0,0-.29-.07-.28,0a3.71,3.71,0,0,1-.37-.29c0-.09.43.16.29,0l.71.51C190.5,177.35,188.88,176.06,190,176.7Z"/><path class="cls-17" d="M189.41,177.46l.39.2-.31-.21C189.53,177.5,189.52,177.52,189.41,177.46Z"/><path class="cls-17" d="M189.49,177.45l-.13-.12s0,0,0,.07Z"/><path class="cls-17" d="M190,176.45s.11,0,0,0S189.85,176.36,190,176.45Z"/><polygon class="cls-17" points="189.78 176.25 189.65 176.19 189.73 176.25 189.78 176.25"/><path class="cls-17" d="M190.08,174.54l-.37-.39c.23.15,0-.12.38.18-.48-.42.08-.14-.67-.66.1.4-.55.36-.07,1.08l-.26-.25c.49.55-.77-.3.32.64l-.59-.44c-.21-.07.78.73.11.33l.25.17s-.13,0-.14,0l.11.07c.21.22.16.22,0,.14s-.07-.07-.11-.13c-.21-.12.17.21.15.24a2,2,0,0,1-.36-.26c.2.28-.46-.12.39.58.15.13.32.2.37.29.32.13,0-.17-.19-.4v0c-.84-.67.22.1-.11-.24.34.27.31.3.5.45.72.39-.42-.48.46.07l0,0c.09,0-.06-.09-.12-.17l-.28-.14c-.06-.08-.44-.36-.59-.49.4.26-.17-.16.05-.05a2.6,2.6,0,0,1,.48.41l-.21-.22c0-.05.41.25.62.37-.25-.23-.21-.12-.57-.42.47.27.47,0,.19-.32,0,.07.37.29.29.28.09,0-.07-.13-.34-.33s0-.18.32-.05l-.28-.18c-.43-.39.41.13.21-.14h0c0-.07-.68-.58-.51-.53C189.8,174.29,189.76,174.3,190.08,174.54Z"/><path class="cls-17" d="M189.67,173.8l.35.3c.11,0-.34-.36-.59-.54.06.08-.12,0,.09.15C189.58,173.75,189.71,173.85,189.67,173.8Z"/><path class="cls-17" d="M190,173.23a3.21,3.21,0,0,0-.32-.27c0,.15,0,.4-.32.22-.14-.05.42.39.51.54l-.39-.27c.22.21-.25,0,.39.41.05,0-.28-.24-.15-.18l.21.17,0-.11.26.22c.43.22-.76-.66-.45-.55l.53.41c.07,0-.09-.2.28,0,0,0-.27-.21-.17-.12a2.31,2.31,0,0,1-.41-.29c-.36-.41.3.26.57.37-.31-.36-.51-.73-.06-.44-.34-.21-.64-.53-.58-.55a4.68,4.68,0,0,1,.46.39c.07,0,.21.12.15,0a4.25,4.25,0,0,1-.84-.72C189.23,172.35,190.15,173.18,190,173.23Z"/><path class="cls-17" d="M189.59,172.85a.44.44,0,0,0,.1.11l0-.05Z"/><polygon class="cls-17" points="196.15 185.37 196.28 185.45 196.06 185.11 196.15 185.37"/><path class="cls-17" d="M197.23,186.42l0-.2a8,8,0,0,0-1.1-1.31,3.4,3.4,0,0,0,.5,1c0-.06-.22-.46-.09-.38.18.3.11.3.35.68s-.13-.27,0-.2Z"/><path class="cls-17" d="M196.63,185.38l.33.48A3.24,3.24,0,0,0,196.63,185.38Z"/><path class="cls-17" d="M196.61,185.25c.08,0,.25.36.3.41l-.39-.67Z"/><path class="cls-17" d="M196.85,185.14a.64.64,0,0,1,0-.07C196.75,185,196.8,185.06,196.85,185.14Z"/><path class="cls-17" d="M196.89,185c-.17-.2-.1-.06-.06.07l0,0c.16.16.45.62.32.54,0,.13-.29-.31-.12,0l.31.32A4.36,4.36,0,0,0,196.89,185Z"/><path class="cls-17" d="M196.85,185.14s0,.05,0,.05S196.88,185.21,196.85,185.14Z"/><polygon class="cls-17" points="196.7 185.17 196.75 185.28 196.89 185.46 196.7 185.17"/><path class="cls-17" d="M197,184.84c.42.62-.17,0,.15.5.05-.07.42.34.65.68l-.06-.24A6.59,6.59,0,0,0,197,184.84Z"/><path class="cls-17" d="M198.28,186.27l-.06-.11A.64.64,0,0,0,198.28,186.27Z"/><path class="cls-17" d="M197.91,185l.26.74a2.6,2.6,0,0,1-.27-.49c-.14,0,.13.37,0,.35-.42-.55.08-.12-.31-.6,0,0-.08.12.22.62l-.34-.33.46.6c.16.16-.29-.52,0-.11a.92.92,0,0,1,.23.41c0-.15.47.4.51.25A13.87,13.87,0,0,0,197.91,185Z"/><polygon class="cls-17" points="198.4 185.64 198.59 185.87 198.34 185.55 198.4 185.64"/><path class="cls-17" d="M198,184.7l.19.45c0-.05-.14-.17-.23-.28l.34.51c.44.53,0-.25,0-.39.31.17.21.31.64.8,0,0-.15-.12-.22-.12.53.58.21-.08.15-.27-.05,0-.18-.21-.17-.14l-.09-.23C198.21,184.63,198.08,184.54,198,184.7Z"/><path class="cls-17" d="M197.86,184.82c0-.07,0,0,.1,0C197.84,184.72,197.75,184.61,197.86,184.82Z"/><path class="cls-17" d="M198.85,185.37s0,0,0,0S198.87,185.42,198.85,185.37Z"/><path class="cls-17" d="M198.33,184.74h.1l-.21-.25A.51.51,0,0,0,198.33,184.74Z"/><path class="cls-17" d="M201.35,183.88c-.17-.23-.27-.33-.29-.25-.21-.3-.1-.29-.2-.49s-.25-.35-.48-.64c-.09,0,.16.45,0,.42a2,2,0,0,0-.24-.32c.05.26.09.65-.18.45s-.13.14-.13.35c-.43.06-.53.61-1.07.57l.37.62c-.22-.28-.08.06-.34-.33.07.06,0,0,.06,0-.44-.46-.16.18-.38.06a6.65,6.65,0,0,1,.51.71c-.47-.66-.1.09-.66-.65-.23-.13.4.58.24.53.27.4.22.13.44.41s-.17-.07.12.33c.29.09,0-.91,0-1.29l.24.39c-.07-.35.1-.49.62,0-.27-.33.29.07-.29-.71.16.16.15.12.24.16l-.17-.26c.06,0,.33.36.38.29a3.05,3.05,0,0,1-.49-.74c.35.32.67.6,1,.85a4.12,4.12,0,0,0-.31-.35c.14.09-.11-.23-.18-.36s.35.4.5.62c.18.07-.38-.79-.12-.55l-.27-.33c0-.15.37.18.38,0,.38.45.21.47.32.7a2.28,2.28,0,0,1,.28.24c-.14-.28-.31-.66-.42-.92C201.2,184,201.29,183.86,201.35,183.88Z"/><path class="cls-17" d="M201.27,184.31l.11.2s0-.07,0-.06Z"/><path class="cls-17" d="M201.35,183.88l0,.05S201.37,183.88,201.35,183.88Z"/><path class="cls-17" d="M199.94,183l0,0h0Z"/><path class="cls-17" d="M201,184.67l-.34-.33A1,1,0,0,0,201,184.67Z"/><path class="cls-17" d="M200.16,184.68c0,.07.11.17.18.29S200.32,184.84,200.16,184.68Z"/><polygon class="cls-17" points="201.43 184.32 201.43 184.16 201.39 184.05 201.43 184.32"/><path class="cls-17" d="M201.57,181.48c-.36-.37-.27,0-.41-.07,0,.31.63.92.54,1.06l-.59-.87c-.1.15-.42.1,0,.94a1.23,1.23,0,0,1-.26-.36c-.06.1.83,1.25.51,1-.27-.61-.4-.47-.75-1l0-.07c0,.11.06.46,0,.46.15.22.44.53.39.6a3.8,3.8,0,0,1,.38.51c-.11-.29,0-.17-.13-.49.25.26,0,.11.29.37l-.14-.31c.09,0,.17.32.27.34-.11-.18-.19-.4-.11-.4l.05.11c0-.14.12,0-.24-.5l.38.44-.24-.31c.19.05.79.8.63.3a1,1,0,0,1-.22-.35c-.22-.18.11.3.08.38a5.17,5.17,0,0,0-.63-.92c.35.33.1-.15.71.64.12,0-.13-.43.09-.3l.09.12c-.37-.54.24.19-.09-.4l-.13-.09c-.15-.22-.14-.24-.13-.3a.89.89,0,0,0,.14.18,2.06,2.06,0,0,1-.29-.65c-.09,0,.09.32.12.45C201.72,181.77,201.48,181.45,201.57,181.48Z"/><path class="cls-17" d="M201.7,183.53l-.11-.21A1.08,1.08,0,0,0,201.7,183.53Z"/><path class="cls-17" d="M202.54,181.82c.15,0,.28.3.51.39-.17-.28-.59-.41-.89-.8.25.17-.07-.21-.06-.22a7.63,7.63,0,0,0,.83.68c-.11-.14.21,0,.28,0-.45-.16-.1-.22-.57-.41-.31-.24-.47-.46-.18-.31s.16.15.14.17c.43.32.31.12.75.38-.51-.51-.2-.67-1.46-1.18-.25-.09,0,.05.05.1a3,3,0,0,1,.8.42c-.22-.07.06.17-.31-.06l-.37-.27c-.35,0-.42.13-.48.38l.09,0a1,1,0,0,1,.26.4c.18.18.38.35.57.52-.07,0,0,.09-.21-.11a2.09,2.09,0,0,0,.53.57c0,.19-.23,0,0,.42.62.32-.17-.51.43-.27C203,182.32,202.78,182.07,202.54,181.82Z"/><polygon class="cls-17" points="202.47 182.38 202.27 182.05 202.32 182.24 202.47 182.38"/><path class="cls-17" d="M201.46,181.05l.25.32C201.83,181.42,201.67,181.25,201.46,181.05Z"/><path class="cls-17" d="M203.49,181.63l0-.15-.2,0A.63.63,0,0,1,203.49,181.63Z"/><path class="cls-17" d="M201.92,180.33c0,.06.39.25-.1.12.48.27,1,.43,1.45.66.19,0-.72-.38-.85-.48.49.17,0-.1.12-.08Z"/><path class="cls-17" d="M204.26,180.66c.07,0-.32-.17,0-.15s.46.12.33.13c.84.14-.07-.07.56,0a3,3,0,0,1-.42-.06c.37-.1-.63-.17.08-.25a3.64,3.64,0,0,0-.8-.13c.88,0,.81,0,1.67,0-.39,0-1.28,0-2.06-.11,1.28,0,0-.11.95-.15,0,0,.23,0,.09,0,1.19,0-.11-.07.18-.11h1a2,2,0,0,1-.26-.09c-.16,0-.19-.06.15-.1h.53a7.06,7.06,0,0,1-1.32-.32l.48-.13c-.89,0-.12.18-1.63.24,1.66-.22-.63,0-.05-.13s.43,0,1.12-.13c-.85.11-.29,0-.59,0,.78-.12,0-.1.86-.23-.54,0-1.06.07-1.56.14.38-.12.25-.14.11-.14.09.06-1,.26-1.28.39.42,0,.92.1.62.24,1.17-.1.08.06,1.07,0l-1.07.08a7.41,7.41,0,0,0,1.09-.07c.22,0-.48.09-.93.11a8.22,8.22,0,0,0,1.05,0l-1.34.07.16,0c.33.09.65.38-.17.45l.72.11c-.26,0,.08.12.25.21s.2.18-.54,0l.49.19c-.28-.11-.95-.26-1.35-.4.19.08-.07,0,.08.11l.35.05c.47.19.1.13-.35,0a6.33,6.33,0,0,0,1.63.44c-1-.46,1.33.17,1.07-.12S204.61,180.75,204.26,180.66Z"/><path class="cls-17" d="M202.32,180.34l.15.06Z"/><path class="cls-17" d="M203.7,179s0,0-.08,0S203.58,179,203.7,179Z"/><polygon class="cls-17" points="202.54 180.55 202.55 180.55 202.54 180.55 202.54 180.55"/><polygon class="cls-17" points="203.9 181.1 203.97 181.07 203.69 180.99 203.9 181.1"/><path class="cls-17" d="M204,178.35l-.29.12Z"/><path class="cls-17" d="M202.53,177.19l0,0S202.55,177.18,202.53,177.19Z"/><path class="cls-17" d="M199.64,175.9a2,2,0,0,0-.64.48l.16-.22a2.11,2.11,0,0,0-.66.81l.15-.18c.31-.27-.19.4-.22.59.16,0,.77-.85.7-.6.05,0-.1.22-.22.38,0,.11.49-.51.59-.56-1.11,1.68.54-.31-.08.83.16-.09.15.12.46-.15-.32.38.06.09-.28.55.69-1,0,.6.8-.61-.11.42.06-.08,0,.3-.09.13-.11.12-.14.14-.12.29.44-.47.1.12,0,.16.25-.32.53-.6,0,.22-.12.36-.41.91.41-.58.29-.25.55-.52a.54.54,0,0,1,.2-.39c.07.19.37-.31.6-.38-.38.68-.14-.07-.38.51a3.2,3.2,0,0,0-.67.62c.08.11.27.09.57-.1,0,.13-.24.28-.23.37-.08.36.62-.54.52-.19l-.24.32c.36-.4.1.21.37,0a3.24,3.24,0,0,1,.31-.36c-.34.38-.22.3-.05.21s.4-.18.18.1a1.76,1.76,0,0,1,1.07-.56,3.25,3.25,0,0,1-.5.4c.19-.33-.71.36-1,.52.32-.18.12.1.59-.15l-.47.29c0,.09,1.11-.61.77-.27l-.36.2c.11.05.05.19.07.27s.14.11.72,0a11.4,11.4,0,0,0,1.43-.54,9.29,9.29,0,0,0-1.51.26l.64-.27a6.24,6.24,0,0,0-1.09.4c-.36.11.5-.28.08-.16.62-.3.74-.3,1.27-.55l-.39.09c.26-.1.15-.14.42-.24-.88.28,0-.32-.47-.26v.13a.78.78,0,0,1-.45.17c.38-.31.29-.29.37-.49-.3.12-.82.49-.89.43.5-.42.11-.34.47-.74-.47.45-.36,0-.61.3-.13.07-.15,0,0-.3a.54.54,0,0,1,.11-.06l0-.05.09-.11c0-.05-.31.33-.19,0,.09-.14.13-.11.2-.14-.11-.2-.73.67-.49.13a4.17,4.17,0,0,0-.65.77c.1-.22.42-.65.29-.62-.36.44,0-.23-.22,0,.4-.44.09-.13.47-.56.09-.23-.42.35-.44.21l.22-.38c-.14.15-.44.51-.2.09l-.23.34c.06-.21-.09-.16.09-.57l-.5.59c.36-.74-.18-.23-.65.29a.46.46,0,0,1,.1-.34l.19-.2c0-.07.15-.47-.24,0-.16.12.21-.39.22-.51-.61.67,0-.77-.75.35,0,0,0,.32.09.32-.11.13-.25.36-.3.36s.12-.45-.09-.32l.5-.72C200.35,175.39,199.05,177,199.64,175.9Z"/><path class="cls-17" d="M200.73,176.66l.19-.4-.21.31S200.78,176.55,200.73,176.66Z"/><path class="cls-17" d="M200.71,176.57l-.14.13s0,0,.09,0Z"/><path class="cls-17" d="M199.3,175.85s0-.11-.06,0S199.21,176,199.3,175.85Z"/><polygon class="cls-17" points="199.08 176.02 199.04 176.16 199.1 176.07 199.08 176.02"/><path class="cls-17" d="M196.82,175.41l-.39.37c.13-.24-.17-.05.13-.41-.41.49-.2-.11-.66.68.47-.06.57.66,1.37.22l-.26.26c.59-.48-.2.82.75-.27l-.43.6c0,.23.75-.77.39-.07l.17-.26s0,.14,0,.15l.07-.11c.23-.21.24-.15.18.05s-.08.07-.13.11c-.11.21.22-.17.26-.13a1.26,1.26,0,0,1-.25.35c.32-.17-.05.51.66-.33.12-.16.17-.34.28-.38.1-.35-.22,0-.47.15l0,0c-.67.84.08-.23-.28.08a6.51,6.51,0,0,1,.46-.49c.34-.76-.52.4,0-.52l0,0c0-.1-.1,0-.18.1a2,2,0,0,0-.12.29c-.08.07-.36.45-.48.61.23-.42-.17.16-.09-.07s.27-.3.42-.48l-.23.2c-.07,0,.21-.43.32-.64-.23.24-.11.21-.41.57.25-.48-.08-.53-.44-.26.08,0,.27-.37.29-.28,0-.1-.16.05-.35.33s-.23-.06-.14-.37l-.16.3c-.38.42.07-.46-.23-.26h0c-.08,0-.57.7-.54.51C196.58,175.69,196.6,175.74,196.82,175.41Z"/><path class="cls-17" d="M196,175.78l.3-.36c0-.12-.37.34-.53.6.08-.06,0,.13.15-.09C196,175.88,196,175.74,196,175.78Z"/><path class="cls-17" d="M195.18,175.32c-.07.08-.17.23-.25.34.2.06.5,0,.36.38,0,.15.38-.42.54-.51l-.23.41c.2-.22,0,.28.42-.39,0-.06-.24.28-.19.15l.16-.22-.13,0,.21-.26c.17-.46-.63.78-.58.44l.38-.56c-.06-.08-.23.08-.07-.31,0,0-.19.28-.1.18a2.14,2.14,0,0,1-.27.43c-.41.35.25-.32.32-.6-.37.31-.78.49-.54,0-.18.37-.49.67-.53.6a2.65,2.65,0,0,1,.37-.48c0-.08.08-.23,0-.17a3.48,3.48,0,0,1-.67.88C194.28,176.11,195.09,175.16,195.18,175.32Z"/><path class="cls-17" d="M194.82,175.77s.07-.06.11-.11l-.06,0Z"/><polygon class="cls-17" points="183.83 81.28 183.92 80.92 183.31 81.05 183.83 81.28"/><path class="cls-17" d="M185.49,79.3l-.36-.36c-1.66.72-1.27.19-2.27,1.33a2,2,0,0,0,1.77.27c-.13-.15-.88-.21-.75-.56.52,0,.56.28,1.24.19.38-.59-.51-.12-.41-.67Z"/><path class="cls-17" d="M183.63,79.22a4.24,4.24,0,0,0,.86-.12C184.18,79.13,183.76,79,183.63,79.22Z"/><path class="cls-17" d="M183.38,79c0-.33.65-.14.73-.19-.4,0-.79-.07-1.2-.12Z"/><path class="cls-17" d="M183.24,77.64l-.13-.14C182.93,77.57,183.09,77.6,183.24,77.64Z"/><path class="cls-17" d="M183,77c-.38.16-.13.32.08.5l.07,0c.32-.21,1.15-.13,1,.17.22.25-.59.36,0,.52l.61-.43C184.58,77.32,183.37,77.17,183,77Z"/><path class="cls-17" d="M183.24,77.64a.44.44,0,0,1,.07.17C183.43,77.71,183.35,77.67,183.24,77.64Z"/><polygon class="cls-17" points="183.24 78.32 183.43 78.45 183.77 78.35 183.24 78.32"/><path class="cls-17" d="M182.94,75.9c1.11.07-.12.79.76.83-.07-.42.76-.74,1.37-.66l-.15-.18L181.61,77l.31.09a2.87,2.87,0,0,0,1.24-1.25v0l-.18.09Z"/><path class="cls-17" d="M181.45,78.19a.48.48,0,0,1,.22,0A.35.35,0,0,0,181.45,78.19Z"/><path class="cls-17" d="M184.38,79l-1.55-.27c.35-.12.62-.35.87-.22-.16-.49-.78-.13-.92-.52.78-.7.47.54,1.1-.19-.19-.21-.48-.54-1.33-.21l.31-.77-.83.79c-.16.34.94-.23.36.33-.36.33-.55.24-.71.2.35.1-.28,1.15.17,1.53S183.69,79,184.38,79Z"/><polygon class="cls-17" points="183.36 79.76 183.03 80.06 183.5 79.69 183.36 79.76"/><path class="cls-17" d="M185.26,79.93l-.91-.09a2.6,2.6,0,0,1,.38-.41c-.21.16-.66.28-.83.42-.72.79.65.4,1,.56,0,.93-.49.27-1.14,1.06-.1-.2.11-.34,0-.64-.35.52-.23.76,0,.89l.23.08a2.29,2.29,0,0,0,.31.16l.51.23c0-.2.24-.43,0-.6l.53.21a3.09,3.09,0,0,0,.28-1.09A1.16,1.16,0,0,0,185.26,79.93Z"/><path class="cls-17" d="M184.69,79.08c.18.13.16.24.05.33C184.94,79.21,185.07,79,184.69,79.08Z"/><path class="cls-17" d="M185,82.42c0-.1-.06-.16-.18-.23C184.82,82.28,184.86,82.36,185,82.42Z"/><path class="cls-17" d="M185.69,81.2l.19.51c.08-.17.17-.34.26-.5C186.06,81.19,185.88,81,185.69,81.2Z"/><path class="cls-17" d="M193.82,81.81c.06-.94,0-1.33,0-1a9.67,9.67,0,0,1,.29-2,3.92,3.92,0,0,1,0-1.08c0-.22.05-.47.08-.72l0-.4c0-.14,0-.28,0-.35a1.14,1.14,0,0,0-.19.37c-.06.2-.11.44-.16.67-.1.46-.17.87-.29.91a8.28,8.28,0,0,0-.05-1.06c-.17.5-.33,1.29-.48,1.76s-.31.78-.53.69c-.35.19-.45.9-.54,1.58a6.27,6.27,0,0,0-.61.91l-.34.62-.39.74c-.26.5-.53,1-.81,1.53l-.43.73-.22.33c-.07.1-.14.28-.2.11-.16-.38-.32-.8-.48-1.23-.1.57-.23,1.11-.37,1.62,0-1.07-.36-.66-.13-1.73,0,.35.13.29.22.42,0-1.08-.18-1.29-.4-1.47a1.12,1.12,0,0,1-.56-.78c-.06.28-.42,1.57-.63,1.54.3-.69.19-.89.07-1.13s-.26-.56.12-1.3c-.11-.85-.67,1-1,.11-.54.49.18,1-.06,1.65-.51.26-.29-1-.76-.3a5.8,5.8,0,0,0,1.88,2.35c.75.61,1.41.82,1.87,1.24l-.15,1.16a.62.62,0,0,1,.32.15l.1-.14.11-.27.23-.47a3.5,3.5,0,0,1,.49-.71,1.25,1.25,0,0,1,1.2-.44c-.22-.26.09-.63.35-1.13s.45-1.07-.11-1.55c.38,0,.4-.14.73-.46-.11-.13-.22-.26-.33-.37.17-.29.32-.18.49-.14s.33.12.36,0c-.57-.27-.65-.51-1-1a2.26,2.26,0,0,1,1.63.94,4,4,0,0,0-.43-.67c.19.12-.15-.51-.23-.79.08-.21.45.77.65,1.25.1.09,0-.36-.1-.82s-.11-.92,0-.63c-.08-.3-.16-.58-.25-.86.07-.29.21-.25.32-.19s.21.16.3-.2a15.76,15.76,0,0,1,0,2.3,3.92,3.92,0,0,1,.14.83,20.35,20.35,0,0,1,.11-3.15C193.66,82,193.8,81.69,193.82,81.81Z"/><path class="cls-17" d="M193.64,83c0,.25,0,.47,0,.63,0-.1,0-.2,0-.13C193.66,83.28,193.65,83.13,193.64,83Z"/><path class="cls-17" d="M193.82,81.81a1.41,1.41,0,0,0,0,.21C193.82,81.88,193.82,81.83,193.82,81.81Z"/><path class="cls-17" d="M192.44,79.59s0,0,.06,0,0,0,.05,0Z"/><path class="cls-17" d="M193.6,83.48a3.77,3.77,0,0,0-.38-.72Z"/><path class="cls-17" d="M191.88,85.05c0,.32.15.37.18.73C192.36,85.31,192.3,85,191.88,85.05Z"/><path class="cls-17" d="M193.69,83.23a3.37,3.37,0,0,1,0-.44l0-.38A8.17,8.17,0,0,0,193.69,83.23Z"/><path class="cls-17" d="M197.34,76.82a6.92,6.92,0,0,0,.65-2c0-.18-.21-.14-.15-.51a1.66,1.66,0,0,0-.45.66l-.25.54-.3.69c-.39.92-.74,1.75-.76,1.58l1.51-3.66c0-.25,0-.74,0-1,0,0,0-.09,0-.07l-.21.18a3.49,3.49,0,0,0-.41.44l-.21.28c-.08.13-.18.36-.28.55-.19.42-.38.9-.58,1.45,0-.27.12-.58.17-.86s.08-.32.14-.49a1.72,1.72,0,0,1,.19-.46.72.72,0,0,0-.21.33c-.08.22-.18.5-.28.81-.19.62-.4,1.38-.6,2.09-.39,1.42-.68,2.58-.66,2a15.63,15.63,0,0,0,.62-2.66c0-.29.06-.6.1-.92a8.84,8.84,0,0,1,.23-1.2l.11-.23a6.39,6.39,0,0,0-.65,1,3.86,3.86,0,0,1-.48,1,14.31,14.31,0,0,1-.35,2.64,20.89,20.89,0,0,1-.2,2.19c.23-1.21.2-.6.51-2.06-.15,1.28-.12.48-.28,1.77.1-.45.21-.92.34-1.4,0,.27-.35,1.5-.31,1.7a5,5,0,0,1,.57-1.77l-.17.54a9.77,9.77,0,0,0,.83-2.52c-.18.81-.39,1.64-.62,2.48l.51-1.75a9.41,9.41,0,0,1-.5,2.31c-.32,1-.51,1.49-.13.56.2-.57.54-1.42.66-1.68.46-1.34-.46,1.07-.54,1.23.3-.82.66-1.78,1-2.66s.61-1.55.82-2.25a17,17,0,0,0-.49,1.64c-.09.33-.29.91-1.08,2.91-.12.42.63-1.22.25-.11l-.23.48c.72-1.55.16-.21.17-.15s.09-.11.37-.61l.23-.62c.41-.84.42-.75.48-.73-.15.28-.15.28-.35.71.71-1.38.78-1,1-1.27.12-.49-.45.27-.62.4l.66-1.18C197.28,76.74,197.43,76.51,197.34,76.82Z"/><path class="cls-17" d="M194.34,81l.28-1C194.56,80.17,194.47,80.47,194.34,81Z"/><path class="cls-17" d="M196,81.1c-.16.4-.59.63-.9,1.14a3.88,3.88,0,0,0,.76-.85,4.55,4.55,0,0,1,.94-1c-.42.63.3.23.33.39a10,10,0,0,0-1.52,1.34c.26-.13-.2.43-.22.54.28-.35.37-.36.46-.33s.2.07.51-.35c.54-.37,1,0,.55.42-.4.16-.32,0-.34-.15-.75.31-.4.5-1.08.82,1-.21,1.11,1.77,2.78,1.11.32-.21-.11-.33-.19-.52-.31.57-.91.06-1.22,0,.26-.27-.3-.58.31-.6a4.8,4.8,0,0,1,.67.35,29.37,29.37,0,0,0,0-5.47l-.09.86c-.5.53-.51.25-.76.37-.37.63-.74,1.21-1.11,1.76.09-.23-.07-.11.32-.66A12.22,12.22,0,0,0,195,81.86c-.19.13.25-.63-.47.46-.46.84-.27.52-.07.27s.41-.45,0,.17C195,82.17,195.47,81.61,196,81.1Z"/><path class="cls-17" d="M195.38,80.93l.55-.8a2.23,2.23,0,0,0-.26.27Z"/><path class="cls-17" d="M198,77c-.29.47-.42.53-.71,1C197.07,78.67,197.46,78.06,198,77Z"/><path class="cls-17" d="M195.41,83.29a2.08,2.08,0,0,1,.21.21l.21-.21A.88.88,0,0,1,195.41,83.29Z"/><path class="cls-17" d="M198.6,85.92c-.18-.59-.74-.81-.22-1.55-.77-.29-1.38.27-2.06.17-.13.38,1.11.23,1.39.56-.62.2.19.52.08.88A1.73,1.73,0,0,1,198.6,85.92Z"/><path class="cls-17" d="M198.59,88c.24-.13.26-.7.6-.54.16.37.08.58-.11.57.53.75.2-.28.75.12-.07-.07-.24-.16-.26-.37.39-.08.39-.3.44-.49s.21-.39.58-.28a1.76,1.76,0,0,0-.05-.92,1.41,1.41,0,0,1,.46.61c.07.17.17.31.32.61,0-.4-.14-1.23-.19-2,.47.37.62.27.83.1s.39-.35.5,0c-.08.07-.21.34-.3.27-.14.64-.06.55.12.31s.46-.64.54-.56l-.52,1.22a5.8,5.8,0,0,1,.56-.6c.2-.17.36-.2.17.24l-.45.68a3.57,3.57,0,0,1,1.15-1,5.12,5.12,0,0,0,1-.57c-.22.29-.46.59-.72.89.84-.65.89-.76,1-1s.23-.56,1.62-1.78c-1.3,1.39-1,1.14-.41.65s1.55-1.22,1.18-.7c-1.08,1.11-1.1.72-2.3,2,1.68-1.52.66-.48,1.35-1-1.67,1.45.18.11-1.86,1.77,1.22-.94,2.6-1.9,4.13-2.9-1,.83-.59.65-.1.4-.1,0,0-.12.33-.35l1.1-.8c.67-.47,1.44-1,1.4-1.19-1.81.72-3.65,1.41-4.36,1.18-1.39,1.46-.74.16-1.89,1.43.37-.5.55-.83.87-1.28-1,.55-.37.69-1,1.32-.23.16-.19,0-.12-.23a3.52,3.52,0,0,1,.43-.8c-.52.1-.31.39-1.09,1.27.24-.51.42-1,.59-1.44-1.11.52-2.32,1.28-3.33,1.89A7.77,7.77,0,0,1,198.61,86l.48.61c-.84,0-.49,1.7-1.42,1.32l-.91-.38,0,0a2.07,2.07,0,0,1,.37-.29l-.68-.16c.39.08,1.11-.29,1.65-.15-.28-.18,0-.46-.29-.66l-.3.46c-.68-.21-.32-.58.23-.74-.83-.53-1.27.51-1.89.73.79.37.42.64,0,.94l2.27,1.09c.39.27.81.6,1,.17C199.37,88.28,198.76,88.31,198.59,88Z"/><path class="cls-17" d="M198.36,87l-.22-.1A.76.76,0,0,0,198.36,87Z"/><path class="cls-17" d="M208.62,83.78c.09,0,.07,0,.1,0,.24-.15.28-.19.25-.18A2.45,2.45,0,0,0,208.62,83.78Z"/><path class="cls-17" d="M197.79,86h0Z"/><polygon class="cls-17" points="195.89 85.76 195.89 86 196.23 85.92 195.89 85.76"/><path class="cls-17" d="M205.36,86.63l.89-.53Z"/><path class="cls-17" d="M202.92,89.5l.06,0C202.9,89.45,202.9,89.47,202.92,89.5Z"/><path class="cls-17" d="M193.22,94.13a2.63,2.63,0,0,0-1.64.62l.15-.37c-.28.11-1.19.49-1,1.31l.22-.29c.7-.39.16.75.47,1.13.53,0,1.32-1.33,1.62-.83.21,0,0,.4-.13.66.38.26,1-.75,1.32-.77-1,2.84,1.62-.23,1.48,1.82.38-.09,1.18.56,1.83.2-.4.63.58.32.44,1.14.1-.9.49-.49,1-.41s.95-.2.5-1.28c.79,0-.08-.14.78-.42a.39.39,0,0,1,0,.44c.27,0,.23-.3.2-.55s0-.4.45-.19c.64-.58-.37-.51-.59-1.21.64-.42.76-.08,1.73.15-.81-.68-.14-.72-.37-1.33-.09,0-.55.31-.68-.19.63-.56-.16-1,.08-1.74,1.17.38-.44.64.71.64.14.72-.13,1,.39,1.71a3.4,3.4,0,0,0,.82-2.12c.37-.23.32.49.6.3.84-.27-.3-1.59.46-1.75.15.14.29.28.43.43-.21-.39,0-.61.34-.9s.76-.65.73-1a1.69,1.69,0,0,1-.87,0c.88.09.82-.16.68-.4s-.38-.42.58-.81a6.2,6.2,0,0,1-1.52.15c-.33,0-.5,0-.52-.09.47-.2,1.13-.41,1.54-.55-1.19.66,1.39-.1,1.63.31-.2-.14,0-.4.16-.65s.28-.48-.21-.41l1.19-.34c.34-.35-.35-.16-.87,0s-1,.29-.14-.26l1-.39c.32-.51,1.15-1.3,1.71-2s.85-1.21,0-.83c-.48.32-1.6,1.14-2.57,1.84s-1.92,1.36-2.36,1.66A26.48,26.48,0,0,1,208.19,85l-1.94,1.15c.65-.37,1.1-.57,1.51-.77.21-.1.42-.19.65-.32a5.28,5.28,0,0,0,.66-.4c.29-.06-.1.19-.48.43s-.8.5-.43.41c-1.81.92-1.92.9-3.51,1.78a8.5,8.5,0,0,1,.8-.33c-.68.32-.7.42-1.37.74,1-.44.68-.18.28.06s-.92.5-.59.46l.39-.25c.9-.37.72-.22.9-.21-1.27.52-1.14.51-1.73.78.56-.09,1.84-.3,1.61,0-1.31.17-1,.49-2.05.54,1.17,0,.17.33.78.44.12.16-.13.33-.63.15,0,0-.1-.07-.12-.11l-.1.07a.74.74,0,0,1-.2-.08c-.07.05.59.33.07.24-.23-.11-.2-.16-.27-.23s.16.27.31.52.14.58-.33.48c.31.34,0,.87.85,1.37-.39-.08-1-.61-1.15-.15.52.72-.57.22-.34.83-.43-.91-.19-.15-.63-1-.48,0,.16,1.1-.29,1.45-.2-.08-.4-.23-.59-.31.11.34.53,1-.15.68l.5.35c-.47.11-.63.64-1.4.56.2.37.49.62.69,1-.6-.23-.7-.15-.71.28,0,.21,0,.51,0,.86a5.46,5.46,0,0,1,0,1.07.59.59,0,0,1-.68-.47c0-.1.08-.29.12-.48-.33,0-.58-.91-.71.09-.29.18-.16-.81-.28-1-.67,1.16-1.21-1.64-2.18.19.26.12.59.71,1.13.86-.24.17-.3.58-.5.54-.53-.14-.48-1-1.12-.85l.57-1.18C195.18,93.56,193.24,96.15,193.22,94.13Z"/><path class="cls-17" d="M199,96.17a3.74,3.74,0,0,1-.46-.61l.21.65C198.81,96.07,198.86,96,199,96.17Z"/><path class="cls-17" d="M198.75,96.21a3.17,3.17,0,0,0-.08.35c.07,0,.13,0,.14-.19Z"/><path class="cls-17" d="M191.63,93.81a.36.36,0,0,0-.42-.15C191.28,93.84,191.48,94,191.63,93.81Z"/><polygon class="cls-17" points="191.06 94.04 191.19 94.29 191.26 94.16 191.06 94.04"/><path class="cls-17" d="M181.93,88.75l-.78-.66c.4-.1-.06-.85.63-.59-.94-.42,0-1.23-1.36-1a7.17,7.17,0,0,1,.11,1.57c0,.27,0,.56,0,.85V90a9.58,9.58,0,0,0,.09,1.4A3.08,3.08,0,0,0,181,92.7a2.23,2.23,0,0,0,.9.9,2.45,2.45,0,0,0,1.26.27,4.67,4.67,0,0,1-.8.26,3.51,3.51,0,0,1,1.21.1,3.84,3.84,0,0,1,.78.41,1.42,1.42,0,0,0,.4.17.78.78,0,0,0,.21,0,.24.24,0,0,0,.15,0c.2-.07.44-.28.77-.76l-.35,1.05c.4.41,1.3-1.33,1.53-.07l.06-.45c.13,0,.14.24.27.28v-.21c.46-.34.67-.22.94.17-.07.34-.2.1-.33.16.06.39.53-.26.81-.18.12.36-.15.49-.22.63,1-.24,1,1,2-.4.15-.27,0-.6.31-.64-.39-.67-1-.19-1.66.09l.14,0c-.84,1.43-.2-.43-1,.06.34-.58.62-.5.83-.8-.42-1.4-1.3.61-1.4-1l.07,0c-.07-.18-.35.06-.55.16,0,.21.15.35.22.53-.21.1-.46.76-.59,1,0-.74-.33.27-.55-.15,0-.66.39-.52.59-.83l-.47.34c-.34,0-.16-.77-.25-1.15-.4.42.08.38-.3,1-.09-.44-.51-.67-1.09-.76A10.54,10.54,0,0,0,183,93c.34,0,.57-.49.81-.32,0-.13-.63,0-1,.32a.79.79,0,0,1-.79-.68,1.91,1.91,0,0,1,.28-1.19c-.16.12-.32.24-.47.37-.43-.08-.3-.54-.12-1s.45-.86.21-1.23h0c-.1-.23-1.33-.45-1.07-.89C181.38,88.54,181.33,88.77,181.93,88.75Z"/><path class="cls-17" d="M180.85,86.13l.69.27c.16-.25-.72-.62-1.17-.59.14.19-.18.41.22.46C180.69,86.24,180.94,86.26,180.85,86.13Z"/><path class="cls-17" d="M181.1,81.18a2.18,2.18,0,0,0-.61-.17c0,1.06.16,2.38-.42,2.76-.23.34.82.48,1,.93l-.72.16c.44.27-.37,1,.8.76.11,0-.53-.24-.32-.43l.4.06-.11-.48.49.18c.75-.6-1.48-.55-.95-1.31l1,.08c.1-.52-.22-.82.43-1.23,0,0-.51,0-.31.06a1.08,1.08,0,0,1-.77.08c-.72-.87.59.17,1.05-.35-.63-.73-1.07-2.09-.22-2.37-.64.25-1.23-.3-1.12-.68.37-.13.58.19.87.29.13-.16.4-.27.27-.47a1.52,1.52,0,0,1-1.6-.54C179.56,79.35,181.31,80.29,181.1,81.18Z"/><path class="cls-17" d="M180.28,80.82c0,.1.11.15.21.19,0-.13,0-.26,0-.37Z"/><path class="cls-18" d="M286.73,80.77v7.5L286,88l-4.08-1.35a.24.24,0,0,1-.2-.27V79.28Z"/><path class="cls-18" d="M318.61,77.59l-5.06-1.69V68.59l1.25.37L318.42,70c.12,0,.2.06.2.23q0,3.58,0,7.17Z"/><path class="cls-18" d="M288.06,90l5,1.49V99l-1.51-.5-3.37-1.12c-.12,0-.18-.09-.18-.23,0-2.32,0-4.64,0-7A1.28,1.28,0,0,1,288.06,90Z"/><path class="cls-18" d="M294.42,99V91.69c0-.17,0-.24.21-.29L299.27,90l.21,0v.21c0,2.3,0,4.6,0,6.89,0,.12,0,.2-.14.24l-4.79,1.6Z"/><path class="cls-18" d="M288.05,88.26V80.78l5.06-1.5v.21q0,3.45,0,6.9a.23.23,0,0,1-.19.26l-4.68,1.56Z"/><path class="cls-18" d="M319.92,77.59V70.3c0-.16,0-.23.19-.27l4.69-1.39.17,0v7.3Z"/><path class="cls-18" d="M299.46,88.27l-1.23-.41-3.65-1.22a.19.19,0,0,1-.16-.22v-7s0-.09,0-.17l1,.3c1.29.38,2.57.77,3.86,1.14.11,0,.17.07.17.2q0,3.61,0,7.23A1,1,0,0,1,299.46,88.27Z"/><path class="cls-18" d="M305.85,77.59,304.16,77,301,76a.2.2,0,0,1-.17-.23v-7s0-.1,0-.18l1.29.38,3.54,1a.25.25,0,0,1,.23.29c0,2.34,0,4.68,0,7Z"/><path class="cls-18" d="M307.18,77.58v-.24c0-2.34,0-4.69,0-7,0-.17,0-.24.21-.29L312,68.65l.22-.06v.22c0,2.29,0,4.59,0,6.88a.24.24,0,0,1-.2.28l-4.64,1.55Z"/><path class="cls-18" d="M305.86,79.29v.23c0,2.29,0,4.57,0,6.86,0,.16,0,.23-.19.28L301,88.2l-.21.06c0-.08,0-.15,0-.22V81c0-.16,0-.22.2-.27,1.56-.45,3.12-.92,4.67-1.38Z"/><path class="cls-18" d="M292,78.5l-2.44.64-2,.53a.94.94,0,0,1-.5,0l-4.27-1.15-.1,0,.19-.08,4.27-1.33a.5.5,0,0,1,.27,0L292,78.44Z"/><path class="cls-18" d="M304.74,78.51l-2.86.76-1.6.42a.53.53,0,0,1-.25,0l-4.55-1.22.24-.09L300,77.08a.48.48,0,0,1,.29,0l4.41,1.36.1,0Z"/><path class="cls-18" d="M298.42,89.18l-2.05.55-2.52.66a.41.41,0,0,1-.19,0l-4.56-1.22.22-.08,4.27-1.33a.5.5,0,0,1,.27,0l4.43,1.37Z"/><path class="cls-18" d="M314.61,67.79,317,67l2.07-.65a.4.4,0,0,1,.24,0l4.51,1.39.05,0-.1,0L319.37,69a.53.53,0,0,1-.25,0l-4.34-1.17Z"/><path class="cls-18" d="M311.18,67.8l-1.59.43-2.94.77a.66.66,0,0,1-.28,0L302,67.84l-.14,0,.93-.29,3.54-1.11a.46.46,0,0,1,.26,0l4.49,1.39Z"/><path class="cls-19" d="M283.52,81.94v7.5l-.78-.26-4.08-1.36a.24.24,0,0,1-.2-.27q0-3.45,0-6.9v-.21Z"/><path class="cls-19" d="M315.4,78.75l-5-1.68V69.76l1.25.36,3.61,1.07c.12,0,.2.07.2.23q0,3.58,0,7.18Z"/><path class="cls-19" d="M284.85,91.13l5,1.49v7.51l-1.5-.51L285,98.5c-.12,0-.18-.08-.18-.23v-7S284.85,91.21,284.85,91.13Z"/><path class="cls-19" d="M291.22,100.12v-.23c0-2.34,0-4.69,0-7a.26.26,0,0,1,.22-.3l4.64-1.37.21,0v.21q0,3.45,0,6.9c0,.11,0,.19-.14.24l-4.79,1.6Z"/><path class="cls-19" d="M284.85,89.43V81.94l5-1.5v.21c0,2.3,0,4.6,0,6.9a.24.24,0,0,1-.19.27L285,89.38Z"/><path class="cls-19" d="M316.72,78.76v-.24q0-3.52,0-7a.24.24,0,0,1,.2-.28l4.69-1.38.17,0v7.29Z"/><path class="cls-19" d="M296.26,89.43,295,89l-3.65-1.21c-.12,0-.17-.09-.17-.22,0-2.33,0-4.65,0-7a1.23,1.23,0,0,1,0-.17l1,.31,3.86,1.14c.1,0,.16.06.16.2,0,2.41,0,4.82,0,7.23A.59.59,0,0,1,296.26,89.43Z"/><path class="cls-19" d="M302.65,78.75l-1.7-.57c-1.06-.35-2.12-.71-3.18-1.05-.12,0-.18-.09-.18-.23q0-3.48,0-7a1.15,1.15,0,0,1,0-.18l1.29.38,3.54,1c.16,0,.23.12.22.3q0,3.51,0,7Z"/><path class="cls-19" d="M304,78.74V71.47c0-.16,0-.24.21-.28l4.63-1.37.22-.06V70c0,2.3,0,4.59,0,6.88a.25.25,0,0,1-.2.28c-1.55.51-3.09,1-4.64,1.56Z"/><path class="cls-19" d="M302.66,80.45v.24q0,3.42,0,6.86a.24.24,0,0,1-.2.27l-4.62,1.55-.21.06a1.86,1.86,0,0,1,0-.22q0-3.54,0-7.06a.23.23,0,0,1,.2-.27l4.68-1.38Z"/><path class="cls-19" d="M288.83,79.66l-2.43.65c-.66.18-1.33.34-2,.53a.85.85,0,0,1-.5,0l-4.27-1.14-.1,0,.19-.07L284,78.24a.46.46,0,0,1,.26,0l4.47,1.38S288.78,79.63,288.83,79.66Z"/><path class="cls-19" d="M301.54,79.67l-2.86.76-1.6.42a.43.43,0,0,1-.25,0l-4.55-1.22.23-.08,4.24-1.32a.45.45,0,0,1,.28,0l4.41,1.36.1,0Z"/><path class="cls-19" d="M295.21,90.35l-2,.54c-.84.22-1.68.45-2.52.66a.31.31,0,0,1-.19,0l-4.56-1.22.21-.07,4.28-1.34a.39.39,0,0,1,.26,0l4.43,1.36Z"/><path class="cls-19" d="M311.41,69l2.4-.75,2.07-.65a.43.43,0,0,1,.25,0l4.5,1.39.06,0s-.07,0-.1,0l-4.42,1.18a.57.57,0,0,1-.26,0L311.57,69Z"/><path class="cls-19" d="M308,69l-1.59.42-2.94.77a.48.48,0,0,1-.29,0L298.8,69l-.14-.05.92-.3,3.54-1.11a.62.62,0,0,1,.27,0l4.48,1.38Z"/><path class="cls-18" d="M137.33,23.32c.42.07.81.12,1.19.2a28.21,28.21,0,0,1,7.72,2.69,21.78,21.78,0,0,1,6.22,4.73,6.86,6.86,0,0,1,.81,1.25,12,12,0,0,1,1.39,4.45,17.22,17.22,0,0,1-.39,6.07.51.51,0,0,0,.11.5,5.07,5.07,0,0,0,1.78,1.26,10.36,10.36,0,0,0,1.89.59l.11,0-.34,1.64c-.51-.15-1-.27-1.49-.43A7.59,7.59,0,0,1,153.77,45a5.1,5.1,0,0,1-.89-1,.3.3,0,0,0-.17-.1,17.33,17.33,0,0,1-6.28-1.6,10.6,10.6,0,0,1-3.94-3.12,9.5,9.5,0,0,1-1.6-3.31c-.64-2.29-1.17-4.61-1.7-6.93a27,27,0,0,0-1.25-4.23c-.16-.41-.35-.8-.53-1.2Zm14.23,17.77c-.15-.47-.29-.9-.44-1.33a32.34,32.34,0,0,0-3.1-6.67,20,20,0,0,0-3.87-4.63,11.45,11.45,0,0,0-3.05-1.94l-.36-.14,0,0c.16.2.33.39.5.58s.36.38.53.58a21.19,21.19,0,0,1,3.75,6.66,15.82,15.82,0,0,0,1.35,3.1,8.77,8.77,0,0,0,3.29,3.25A6.94,6.94,0,0,0,151.56,41.09Z"/><path class="cls-18" d="M156.62,41.15a15.56,15.56,0,0,0-3.32-12.81.07.07,0,0,1,0,0,49.43,49.43,0,0,1,5-2.51,17.21,17.21,0,0,1,3.06-.95,15.52,15.52,0,0,1,3-.23,22.65,22.65,0,0,0,3-.16l.44-.06a.08.08,0,0,0,0,0,11.68,11.68,0,0,0-1.87,2.76,31.11,31.11,0,0,0-2.19,5.66c-.13.48-.21,1-.36,1.46a9.8,9.8,0,0,1-3.84,5.26,14.08,14.08,0,0,1-2.86,1.54Z"/><path class="cls-18" d="M166.84,49.13l-.46-1.65.06,0a8.31,8.31,0,0,0,3.67-3.81,14.07,14.07,0,0,0,1.21-3.77,31.76,31.76,0,0,0,.42-7.22,27.32,27.32,0,0,0-.44-3.93,13.42,13.42,0,0,0-1.46-4.12,7.7,7.7,0,0,0-3.4-3.21l-.06,0,.46-1.66.29.1a12.63,12.63,0,0,1,4.08,2.36,11.23,11.23,0,0,1,3,4.41,17.25,17.25,0,0,1,1,3.88,29.29,29.29,0,0,1,.23,5.21,21.34,21.34,0,0,1-.93,5.84,11.65,11.65,0,0,1-3,4.91,12.3,12.3,0,0,1-4.09,2.53l-.5.19Z"/><path class="cls-18" d="M137.87,19.69l.43,1.65-.05,0a7.88,7.88,0,0,0-3.68,3.71,13.89,13.89,0,0,0-1.21,3.76,32,32,0,0,0-.42,7.25,25.58,25.58,0,0,0,.44,3.9,13.6,13.6,0,0,0,1.56,4.31,8.25,8.25,0,0,0,3.27,3.12s.08.08.07.11c-.13.53-.27,1.05-.41,1.6l-.49-.19A12.26,12.26,0,0,1,133,46.14a11.67,11.67,0,0,1-2.58-4.2,18.35,18.35,0,0,1-.89-3.81,30.41,30.41,0,0,1-.18-5.48,20.6,20.6,0,0,1,.94-5.39A11.81,11.81,0,0,1,132.64,23a11.62,11.62,0,0,1,4.2-2.92c.32-.14.64-.25,1-.38Z"/><path class="cls-19" d="M133.9,26.32l1.19.19a28.5,28.5,0,0,1,7.73,2.69A21.82,21.82,0,0,1,149,33.94a6.28,6.28,0,0,1,.82,1.25,12.23,12.23,0,0,1,1.39,4.45,17,17,0,0,1-.4,6.07.49.49,0,0,0,.12.49,4.67,4.67,0,0,0,1.78,1.26,10.29,10.29,0,0,0,1.88.6l.12,0-.35,1.63c-.5-.14-1-.27-1.48-.42a7.52,7.52,0,0,1-2.56-1.36,4.89,4.89,0,0,1-.9-1,.22.22,0,0,0-.17-.09A17.24,17.24,0,0,1,143,45.27a10.63,10.63,0,0,1-3.95-3.11,9.73,9.73,0,0,1-1.6-3.32c-.64-2.29-1.17-4.6-1.7-6.92a27.1,27.1,0,0,0-1.24-4.24c-.17-.4-.36-.79-.54-1.19Zm14.23,17.76c-.15-.46-.28-.89-.43-1.32a33.42,33.42,0,0,0-3.1-6.67,19.83,19.83,0,0,0-3.88-4.63,11.43,11.43,0,0,0-3-1.95l-.37-.13,0,0,.51.58c.17.19.36.38.53.58a21.05,21.05,0,0,1,3.74,6.66,15.73,15.73,0,0,0,1.35,3.09,8.8,8.8,0,0,0,3.29,3.26A7.18,7.18,0,0,0,148.13,44.08Z"/><path class="cls-19" d="M153.19,44.14a15.6,15.6,0,0,0-3.31-12.81l0,0A45.77,45.77,0,0,1,155,28.8a16.2,16.2,0,0,1,3.06-.95,14.72,14.72,0,0,1,3-.24,21.18,21.18,0,0,0,3-.16l.43-.06s0,0,0,.05a11.29,11.29,0,0,0-1.87,2.76,31.07,31.07,0,0,0-2.18,5.66c-.14.48-.22,1-.36,1.45a9.83,9.83,0,0,1-3.84,5.26,13.48,13.48,0,0,1-2.87,1.55Z"/><path class="cls-19" d="M163.41,52.12,163,50.47l0,0a8.28,8.28,0,0,0,3.67-3.82,13.86,13.86,0,0,0,1.22-3.77,31.75,31.75,0,0,0,.41-7.22,24.5,24.5,0,0,0-.44-3.92,13.2,13.2,0,0,0-1.45-4.13,7.81,7.81,0,0,0-3.4-3.21l-.06,0,.45-1.66.3.1a12.69,12.69,0,0,1,4.07,2.36,11.25,11.25,0,0,1,3,4.4,17.45,17.45,0,0,1,1,3.89,29.29,29.29,0,0,1,.24,5.21,21.09,21.09,0,0,1-.94,5.84,11.62,11.62,0,0,1-3,4.9A12.35,12.35,0,0,1,164,51.92l-.51.19Z"/><path class="cls-19" d="M134.45,22.68l.43,1.65-.06,0a7.91,7.91,0,0,0-3.68,3.72,14.5,14.5,0,0,0-1.21,3.76,32.55,32.55,0,0,0-.41,7.24A24.25,24.25,0,0,0,130,43a13.19,13.19,0,0,0,1.56,4.31,8.05,8.05,0,0,0,3.27,3.12s.08.08.07.12c-.13.52-.27,1.05-.41,1.59L134,52a12.13,12.13,0,0,1-4.41-2.81,11.57,11.57,0,0,1-2.58-4.2,17.88,17.88,0,0,1-.89-3.81,29.52,29.52,0,0,1-.18-5.48,20.18,20.18,0,0,1,.93-5.4,12,12,0,0,1,2.4-4.26,11.66,11.66,0,0,1,4.19-2.92l1-.37Z"/><path class="cls-18" d="M254.13,27.07a12.29,12.29,0,0,1,4.13,6.14,2.23,2.23,0,0,0,.85,1.17,8.22,8.22,0,0,1,3.51,5.6,9.24,9.24,0,0,1-.64,5.88c-1.8,3.37-4.56,5.51-8.44,5.74-2.74.17-5.49,0-8.23,0a1.16,1.16,0,0,1-.49-.86A16.16,16.16,0,0,1,245,46c.22-.74.86-.68,1.42-.7,2-.05,4,0,6,0a3.79,3.79,0,0,0,1.91-.35,3.26,3.26,0,0,0,2-3,3.08,3.08,0,0,0-2.19-3.08,2.13,2.13,0,0,1-1.74-2.3,7.45,7.45,0,0,0-1.6-4c-.24-.35-.59-.62-.66-1.07a1.67,1.67,0,0,1,.6-1.54c.7-.66,1.37-1.35,2-2.05A2.2,2.2,0,0,1,254.13,27.07Z"/><path class="cls-18" d="M231.61,49.31a7.64,7.64,0,0,1-3.22-4.18,9.08,9.08,0,0,1,1.12-8.71,6,6,0,0,1,2-2.05,2.44,2.44,0,0,0,.84-1.06c1.14-1.66,2.94-1.74,4.67-1.94a6.79,6.79,0,0,1,3.44.56,11.89,11.89,0,0,1,4,2.08c1.28,1,1.39,1.8.35,3-.85.94-1.78,1.82-2.69,2.7a1.18,1.18,0,0,1-1.83.09,6.9,6.9,0,0,0-.85-.6,3.21,3.21,0,0,0-4.22.35,3.3,3.3,0,0,0-.13,4.43c.33.41.82.73.82,1.34a3.22,3.22,0,0,1-1.17,1.94c-.58.61-1.24,1.14-1.8,1.79C232.59,49.4,232.15,49.68,231.61,49.31Z"/><path class="cls-18" d="M240.53,32.56c-.82.36-1.23-.55-2-.61A11.09,11.09,0,0,0,233,33l-.63.28c.17-2.38,1.76-4,3.25-5.55a13.28,13.28,0,0,1,4.25-3,12.38,12.38,0,0,1,11.86.64,7.36,7.36,0,0,1,2.4,1.67,26.55,26.55,0,0,1-2.94,3.15c-.29.3-.66.52-.77,1-.34.49-.72.29-1.1.06a7.62,7.62,0,0,0-6.31-.83A3.13,3.13,0,0,0,240.53,32.56Z"/><path class="cls-18" d="M231.61,49.31a32.94,32.94,0,0,0,4-4,.65.65,0,0,1,.61-.26c2.55.37,5.12.07,7.68.2.51,0,1.11-.05,1.38.58v5.74a63.29,63.29,0,0,1-10.12-.25A5.27,5.27,0,0,1,231.61,49.31Z"/><path class="cls-20" d="M250.3,29.31a12.25,12.25,0,0,1,4.14,6.14,2.23,2.23,0,0,0,.85,1.17,8.22,8.22,0,0,1,3.51,5.6,9.17,9.17,0,0,1-.65,5.88c-1.79,3.37-4.55,5.51-8.44,5.74-2.73.17-5.48,0-8.22,0A1.16,1.16,0,0,1,241,53a16.16,16.16,0,0,1,.16-4.76c.22-.74.86-.68,1.42-.7,2,0,4,0,6,0a3.81,3.81,0,0,0,1.91-.35,3.26,3.26,0,0,0,2-3A3.09,3.09,0,0,0,250.27,41a2.13,2.13,0,0,1-1.74-2.3,7.45,7.45,0,0,0-1.6-4,2.54,2.54,0,0,1-.66-1.07,1.67,1.67,0,0,1,.6-1.54c.7-.66,1.37-1.35,2-2.05A2.2,2.2,0,0,1,250.3,29.31Z"/><path class="cls-21" d="M227.79,51.55a7.6,7.6,0,0,1-3.22-4.18,9.08,9.08,0,0,1,1.12-8.71,6,6,0,0,1,2-2,2.53,2.53,0,0,0,.84-1.07c1.14-1.66,2.94-1.74,4.67-1.94a6.79,6.79,0,0,1,3.44.56,12,12,0,0,1,4,2.08c1.28,1,1.39,1.8.35,3-.85.94-1.78,1.82-2.69,2.7a1.18,1.18,0,0,1-1.83.09,6.9,6.9,0,0,0-.85-.6,3.21,3.21,0,0,0-4.22.35,3.3,3.3,0,0,0-.13,4.43c.32.41.82.73.82,1.34a3.22,3.22,0,0,1-1.17,1.94c-.58.61-1.24,1.14-1.8,1.79C228.77,51.64,228.33,51.92,227.79,51.55Z"/><path class="cls-22" d="M236.71,34.8c-.82.36-1.24-.55-2-.61a11.2,11.2,0,0,0-5.56,1.08l-.63.28c.17-2.38,1.76-4,3.25-5.55a13.28,13.28,0,0,1,4.25-3,12.38,12.38,0,0,1,11.86.64,7.32,7.32,0,0,1,2.39,1.67,26.47,26.47,0,0,1-2.93,3.15c-.29.3-.66.53-.77,1-.34.49-.72.29-1.1.06a7.62,7.62,0,0,0-6.31-.83A3.13,3.13,0,0,0,236.71,34.8Z"/><path class="cls-23" d="M227.79,51.55a32.94,32.94,0,0,0,4-4,.65.65,0,0,1,.61-.26c2.55.37,5.12.07,7.68.2.51,0,1.11,0,1.38.58v5.74a62.3,62.3,0,0,1-10.13-.25A5.27,5.27,0,0,1,227.79,51.55Z"/></g></g></svg>