<svg xmlns="http://www.w3.org/2000/svg" xmlns:xlink="http://www.w3.org/1999/xlink" viewBox="0 0 600 315"><defs><style>.cls-1,.cls-11,.cls-13,.cls-15{fill:none;}.cls-2{fill:#86fed4;}.cls-3{fill:#e7fff6;}.cls-4{fill:#cfffee;}.cls-5{fill:#b6fee5;}.cls-6{fill:url(#dots);}.cls-16,.cls-18,.cls-7{fill:#fff;}.cls-11,.cls-12,.cls-13,.cls-14,.cls-15,.cls-16,.cls-7,.cls-9{stroke:#3f3a37;}.cls-12,.cls-14,.cls-15,.cls-7{stroke-linejoin:round;}.cls-10,.cls-11,.cls-12,.cls-16,.cls-7,.cls-8{stroke-width:2px;}.cls-12,.cls-14,.cls-19,.cls-8,.cls-9{fill:#3f3a37;}.cls-10,.cls-8{stroke:#fff;}.cls-10,.cls-11,.cls-13,.cls-16,.cls-8,.cls-9{stroke-miterlimit:10;}.cls-10{fill:#f7f7f7;}.cls-17{fill:#575350;}.cls-20{fill:#3f3f3f;}.cls-21{fill:#1a1a1a;}.cls-22{fill:#2e2e2e;}.cls-23{fill:#070707;}</style><pattern id="dots" data-name="dots" width="19.21" height="19.21" patternUnits="userSpaceOnUse" viewBox="0 0 19.21 19.21"><rect class="cls-1" width="19.21" height="19.21"/><circle class="cls-2" cx="9.6" cy="9.6" r="4.6"/></pattern></defs><title>OG_Productivity</title><g id="Layer_2" data-name="Layer 2"><g id="otter_drawing"><path class="cls-3" d="M600,5.14V315H0V1L.66,0H596.54C597.71,1.7,598.86,3.42,600,5.14Z"/><path class="cls-4" d="M574.53,204.11A274.79,274.79,0,0,1,551.34,315H45.85A276.19,276.19,0,0,1,112.91,0H484.29A275.22,275.22,0,0,1,574.53,204.11Z"/><path class="cls-5" d="M486.53,204.11A187.06,187.06,0,0,1,450.34,315H146.85a187.06,187.06,0,0,1-36.18-110.89c0-103.79,84.14-187.93,187.93-187.93S486.53,100.32,486.53,204.11Z"/><circle class="cls-2" cx="298.6" cy="204.11" r="105.42"/><rect class="cls-6" width="600" height="315"/><polyline class="cls-7" points="328.45 277.36 258.4 277.62 281.84 170.85 310.56 169.5"/><path class="cls-8" d="M241.27,268.26c-2.13,1-5.79-2.27-8.32-7.37l-.58.45c2.35,5.27,2.53,10.25.37,11.26s-5.89-2.38-8.43-7.59c-.23.06-.46.1-.69.14v0c2.54,5.46,2.8,10.72.58,11.75s-6.08-2.54-8.62-8a18.73,18.73,0,0,1-2.06-8.86c-.14-3.59,3.33-7.92,8.68-10.41,4.16-2,8.4-2.3,11.35-1.23l.13,0c2.19.64,5,3.76,7,8C243.23,262,243.5,267.22,241.27,268.26Z"/><path class="cls-8" d="M352.48,270.29c2.15.95,5.74-2.39,8.18-7.53l.58.43c-2.25,5.32-2.33,10.3-.15,11.27s5.84-2.49,8.28-7.76a6,6,0,0,0,.69.13s0,0,0,0c-2.43,5.51-2.59,10.77-.35,11.76s6-2.66,8.47-8.16a18.74,18.74,0,0,0,1.88-8.9c.07-3.6-3.48-7.86-8.88-10.24-4.2-1.87-8.45-2.14-11.37-1l-.13,0c-2.18.68-4.93,3.85-6.84,8.18C350.4,264,350.23,269.29,352.48,270.29Z"/><path class="cls-7" d="M312.73,144.65a17.76,17.76,0,0,1,2.37,7.12c0,.25,0,.51.08.77a19.79,19.79,0,0,1-1.65,10.86,26,26,0,0,1-4.69,7.3c-8.4,9.46-14.11,13.6-21.12,11.89-3.32-.82-5.75-2.5-6.55-4.45-4.05-9.89-7.55-17.21-6.07-25.66v0c.4-2.25,2.34-5.9,3.39-7.91,0-.08.1-.17.15-.26a18.19,18.19,0,0,1,4.82-4.44,26.39,26.39,0,0,1,16.43-3.61A17.17,17.17,0,0,1,312.73,144.65Z"/><path class="cls-9" d="M319.2,161.76c-.63,1.55-2.65,2.3-5.14,2.15.11-.22.23-.46.33-.69a17.53,17.53,0,0,0,1.67-7.32C318.59,157.65,319.93,160,319.2,161.76Z"/><path class="cls-9" d="M270.88,151.44c-.19,1.66,1.22,3.29,3.49,4.34,0-.25,0-.51,0-.76a17.63,17.63,0,0,1,2-7.23C273.38,148.12,271.09,149.52,270.88,151.44Z"/><circle class="cls-9" cx="286.32" cy="155.01" r="1.61"/><ellipse class="cls-9" cx="290.39" cy="174.96" rx="3.63" ry="4.84" transform="translate(70.57 433.05) rotate(-80.65)"/><circle class="cls-9" cx="303.01" cy="158.88" r="1.61"/><path class="cls-10" d="M149.4,137.14c-3.5,0-7,0-10.5,0a4.15,4.15,0,0,1-3.49-1.72c-1.83-2.32-3.7-4.61-5.55-6.92l-5.75-7.15c-.6-.75-1.18-1.51-1.8-2.25a3.83,3.83,0,0,1-.83-3.58q2.05-8.9,4.1-17.81c.23-1,.45-2,.69-3a3.57,3.57,0,0,1,2-2.45l9.55-4.57L147.66,83a3.9,3.9,0,0,1,3.58,0q8.56,4.11,17.13,8.19c.63.3,1.26.62,1.9.9a4.14,4.14,0,0,1,2.48,3.12c1,4.5,2.05,9,3.08,13.47.53,2.3,1,4.6,1.59,6.89a4.08,4.08,0,0,1-1,3.75c-2,2.38-3.87,4.8-5.81,7.21l-6,7.5c-.44.55-.88,1.09-1.31,1.64a3.69,3.69,0,0,1-3,1.45C156.65,137.15,153,137.14,149.4,137.14Z"/><path class="cls-10" d="M148.55,94.16a20.42,20.42,0,0,0-.27-2.54,1.72,1.72,0,0,1,.31-1.53,1.13,1.13,0,0,1,1.93.35,2.69,2.69,0,0,1,0,1.54,13,13,0,0,0-.22,2.41.79.79,0,0,0,.12.46,1.26,1.26,0,0,1,.32.69c0,.15.17.15.29.16a15.1,15.1,0,0,1,7.54,3,18.57,18.57,0,0,1,1.65,1.43c.15.15.26.19.43,0A.4.4,0,0,1,161,100a1.45,1.45,0,0,0,1.21-.56c.47-.45.93-.9,1.36-1.4a2.59,2.59,0,0,1,1.09-.81,1.17,1.17,0,0,1,1.38.44,1.24,1.24,0,0,1-.14,1.45,4,4,0,0,1-1.11.81,14.18,14.18,0,0,0-1.86,1.22.87.87,0,0,0-.4.67.48.48,0,0,1-.24.36c-.15.12-.16.23,0,.4a15,15,0,0,1,2.18,5.52,15.29,15.29,0,0,1,.15,4.53c0,.19,0,.28.2.32a.34.34,0,0,1,.24.11c.37.59,1,.57,1.57.68.75.14,1.53.09,2.29.24a1.62,1.62,0,0,1,.82.4,1.13,1.13,0,0,1,.33,1.23,1.24,1.24,0,0,1-1.09.77,3,3,0,0,1-1.25-.27,14.11,14.11,0,0,0-2.27-.77,1,1,0,0,0-.84.09.38.38,0,0,1-.29.06c-.28-.09-.37.06-.45.3a15.14,15.14,0,0,1-4.18,6.32,12.89,12.89,0,0,1-2.13,1.6c-.21.13-.32.26-.19.5a.36.36,0,0,1,0,.27,1.25,1.25,0,0,0,.16,1,16.44,16.44,0,0,0,1.19,1.91,2.91,2.91,0,0,1,.52,1,1.2,1.2,0,0,1-.7,1.43,1.24,1.24,0,0,1-1.47-.57,4.71,4.71,0,0,1-.47-1.16,13.37,13.37,0,0,0-.78-2.11.91.91,0,0,0-.56-.51.36.36,0,0,1-.25-.23c-.09-.24-.23-.24-.45-.16a14.06,14.06,0,0,1-4,.83,15,15,0,0,1-6.08-.8l-.23-.08c-.15-.07-.27,0-.33.12a.61.61,0,0,1-.41.36.7.7,0,0,0-.4.39,11.62,11.62,0,0,0-.85,2.24,3.24,3.24,0,0,1-.63,1.34,1.2,1.2,0,0,1-1.47.28,1.24,1.24,0,0,1-.5-1.48,3.87,3.87,0,0,1,.54-1,13.8,13.8,0,0,0,1.24-2,.87.87,0,0,0,.08-.72.49.49,0,0,1,0-.44c.13-.22,0-.32-.16-.44a15.19,15.19,0,0,1-3-2.46,15,15,0,0,1-3.3-5.38c-.1-.27-.19-.46-.52-.34a.27.27,0,0,1-.23,0,1.19,1.19,0,0,0-1-.08,16.9,16.9,0,0,0-2.07.72,2.77,2.77,0,0,1-1.39.27,1.14,1.14,0,0,1-.54-2.09,2.55,2.55,0,0,1,1.37-.38,15.22,15.22,0,0,0,2.43-.3,1,1,0,0,0,.64-.41.62.62,0,0,1,.39-.25c.17,0,.21-.13.19-.31a15.09,15.09,0,0,1,2.24-10c.13-.2.19-.36-.07-.5a.35.35,0,0,1-.15-.25,1.2,1.2,0,0,0-.61-.88,14.42,14.42,0,0,0-1.83-1.15,2.84,2.84,0,0,1-1-.84,1.16,1.16,0,0,1,1.45-1.73,3.85,3.85,0,0,1,1.22,1,10.81,10.81,0,0,0,1.6,1.5.77.77,0,0,0,.67.19c.17,0,.28.06.4.15a.21.21,0,0,0,.33,0,14.87,14.87,0,0,1,8.68-4.42,2.23,2.23,0,0,1,.36-.05c.31,0,.59,0,.58-.46a.21.21,0,0,1,.05-.13A1.18,1.18,0,0,0,148.55,94.16Z"/><path class="cls-10" d="M153.59,114.92a1,1,0,0,1,1.14-1l5,.84c.26,0,.51.11.77.13s.29.15.2.38a12.09,12.09,0,0,1-4.47,5.59c-.18.12-.26.14-.36-.1-.7-1.72-1.42-3.44-2.13-5.16A1.81,1.81,0,0,1,153.59,114.92Z"/><path class="cls-10" d="M147.94,99.18c-.1,1.6-.2,3.16-.29,4.73a6.85,6.85,0,0,1-.07,1.1,1,1,0,0,1-1.55.72c-.56-.34-1.09-.75-1.63-1.13-1.05-.74-2.1-1.5-3.16-2.23-.21-.15-.26-.23,0-.44a12,12,0,0,1,6.48-3.08C148,98.79,147.92,99,147.94,99.18Z"/><path class="cls-10" d="M137.33,110.79a12.4,12.4,0,0,1,1.62-6.05c.11-.19.19-.21.36-.06,1.07,1,2.16,1.93,3.24,2.9a10.61,10.61,0,0,1,1.2,1.12,1,1,0,0,1-.44,1.63c-.64.23-1.3.39-1.95.58L137.73,112c-.32.09-.34.07-.35-.26S137.34,111,137.33,110.79Z"/><path class="cls-10" d="M161.58,110.93c0,.27-.06.54-.06.81s-.07.29-.3.22l-3.37-1-2-.57a1.92,1.92,0,0,1-.42-.16,1,1,0,0,1-.33-1.6c.51-.56,1.12-1,1.68-1.54.89-.82,1.8-1.61,2.7-2.43.17-.16.26-.18.38,0a12,12,0,0,1,1.62,5.5C161.53,110.47,161.59,110.7,161.58,110.93Z"/><path class="cls-10" d="M149.43,123a13.05,13.05,0,0,1-3.57-.57c-.23-.07-.23-.16-.13-.34.94-1.68,1.86-3.37,2.81-5.06a1,1,0,0,1,1.85.05c.34.56.64,1.13,1,1.7.6,1.1,1.2,2.19,1.81,3.28.14.24.08.33-.16.4a11.83,11.83,0,0,1-3,.49Z"/><path class="cls-10" d="M144.14,114c.84,0,1.3.57,1.1,1.3a24.14,24.14,0,0,1-.92,2.31c-.42,1.05-.87,2.09-1.29,3.14-.1.24-.19.27-.41.12a12.19,12.19,0,0,1-4.41-5.52c-.13-.33-.12-.33.23-.39l5.46-.94Z"/><path class="cls-10" d="M151,99.26c0-.44,0-.45.36-.39a12.11,12.11,0,0,1,5.93,2.7c.15.13.28.28.44.4s.15.23,0,.36c-.85.59-1.7,1.2-2.54,1.8s-1.38,1-2.09,1.47a1.05,1.05,0,0,1-1.54-.14,1.65,1.65,0,0,1-.24-.94c-.07-1.26-.1-2.52-.2-3.77A9.7,9.7,0,0,0,151,99.26Z"/><polygon class="cls-10" points="148.69 109.19 147.75 110.38 148.09 111.86 149.45 112.51 150.81 111.86 151.15 110.38 150.21 109.19 148.69 109.19"/><path class="cls-11" d="M145.84,141.2c-3.51,0-7,0-10.51,0a4.15,4.15,0,0,1-3.49-1.71c-1.83-2.32-3.69-4.62-5.55-6.92l-5.74-7.16c-.61-.74-1.19-1.51-1.81-2.24a3.86,3.86,0,0,1-.83-3.58q2.07-8.91,4.1-17.81c.23-1,.45-2,.69-3a3.57,3.57,0,0,1,2-2.46l9.55-4.57,9.85-4.71a3.9,3.9,0,0,1,3.58,0q8.55,4.11,17.13,8.19c.63.3,1.25.62,1.89.9a4.1,4.1,0,0,1,2.48,3.12c1,4.5,2,9,3.09,13.47.52,2.3,1,4.59,1.59,6.89a4.08,4.08,0,0,1-1,3.74c-2,2.39-3.88,4.81-5.81,7.22l-6,7.5-1.31,1.64a3.72,3.72,0,0,1-3,1.45Z"/><path class="cls-11" d="M145,98.22a20.11,20.11,0,0,0-.28-2.54,1.73,1.73,0,0,1,.32-1.53,1.12,1.12,0,0,1,1.92.35A2.69,2.69,0,0,1,147,96a12.21,12.21,0,0,0-.22,2.41.73.73,0,0,0,.11.46,1.11,1.11,0,0,1,.32.69c0,.14.17.14.29.16a15.15,15.15,0,0,1,7.54,3,16.2,16.2,0,0,1,1.65,1.44c.15.15.26.19.43,0a.41.41,0,0,1,.32-.15,1.37,1.37,0,0,0,1.2-.56c.47-.44.94-.9,1.37-1.39a2.51,2.51,0,0,1,1.09-.81,1.16,1.16,0,0,1,1.38.44,1.26,1.26,0,0,1-.15,1.45,3.87,3.87,0,0,1-1.11.81,13.44,13.44,0,0,0-1.85,1.22.83.83,0,0,0-.4.67c0,.17-.13.26-.24.36a.26.26,0,0,0-.06.4,14.89,14.89,0,0,1,2.19,5.51,15.71,15.71,0,0,1,.14,4.54c0,.19,0,.28.21.32a.3.3,0,0,1,.24.11c.36.59,1,.57,1.56.68.76.14,1.54.09,2.29.24a1.62,1.62,0,0,1,.83.4,1.12,1.12,0,0,1,.32,1.23,1.23,1.23,0,0,1-1.09.77,3,3,0,0,1-1.25-.27,12.91,12.91,0,0,0-2.27-.77,1,1,0,0,0-.84.09.31.31,0,0,1-.28,0c-.28-.08-.38.07-.46.31a15.12,15.12,0,0,1-4.17,6.32,13.79,13.79,0,0,1-2.13,1.6c-.22.13-.33.26-.2.5a.3.3,0,0,1,0,.26,1.27,1.27,0,0,0,.16,1,19.68,19.68,0,0,0,1.19,1.91,2.68,2.68,0,0,1,.52,1A1.2,1.2,0,0,1,155,134a1.26,1.26,0,0,1-1.48-.57,4.87,4.87,0,0,1-.47-1.16,13.37,13.37,0,0,0-.78-2.11.9.9,0,0,0-.55-.51.36.36,0,0,1-.26-.23c-.09-.24-.23-.24-.45-.16a14,14,0,0,1-3.94.83,15,15,0,0,1-6.09-.8l-.22-.08c-.16-.07-.27,0-.34.12a.59.59,0,0,1-.41.36.71.71,0,0,0-.4.38,12.9,12.9,0,0,0-.85,2.24,3.22,3.22,0,0,1-.63,1.35,1.19,1.19,0,0,1-1.47.28,1.25,1.25,0,0,1-.49-1.48,3.84,3.84,0,0,1,.53-1,13,13,0,0,0,1.24-2,.84.84,0,0,0,.08-.72.52.52,0,0,1,0-.44c.13-.22,0-.32-.16-.44a15.49,15.49,0,0,1-3-2.46,14.91,14.91,0,0,1-3.31-5.38c-.09-.27-.18-.46-.52-.34a.28.28,0,0,1-.23,0,1.17,1.17,0,0,0-1-.08,16.29,16.29,0,0,0-2.07.71,2.71,2.71,0,0,1-1.4.28,1.14,1.14,0,0,1-.53-2.09,2.41,2.41,0,0,1,1.36-.38,15.49,15.49,0,0,0,2.44-.3,1,1,0,0,0,.64-.41.54.54,0,0,1,.39-.25c.17,0,.21-.13.19-.31a15,15,0,0,1,2.23-10c.13-.21.19-.36-.06-.51a.28.28,0,0,1-.15-.25,1.21,1.21,0,0,0-.62-.87,14.42,14.42,0,0,0-1.83-1.15,2.82,2.82,0,0,1-1-.85,1.15,1.15,0,0,1,1.45-1.72,4,4,0,0,1,1.22,1,10.27,10.27,0,0,0,1.59,1.5.79.79,0,0,0,.67.19.44.44,0,0,1,.4.15.23.23,0,0,0,.34,0,14.84,14.84,0,0,1,8.68-4.42,2.11,2.11,0,0,1,.35,0c.31,0,.59,0,.58-.46a.27.27,0,0,1,.05-.14A1.13,1.13,0,0,0,145,98.22Z"/><path class="cls-11" d="M150,119a1,1,0,0,1,1.15-1c1.68.27,3.35.56,5,.84a6.83,6.83,0,0,0,.77.12c.32,0,.29.16.2.39a12.28,12.28,0,0,1-1.63,2.89,12,12,0,0,1-2.84,2.7c-.18.12-.26.13-.36-.1-.7-1.72-1.42-3.44-2.13-5.16A1.81,1.81,0,0,1,150,119Z"/><path class="cls-11" d="M144.37,103.24c-.1,1.59-.19,3.16-.29,4.72a6.9,6.9,0,0,1-.07,1.11,1,1,0,0,1-1.55.72c-.56-.35-1.08-.75-1.62-1.13l-3.16-2.24c-.22-.14-.27-.23-.05-.43a12,12,0,0,1,6.48-3.08C144.46,102.85,144.35,103.1,144.37,103.24Z"/><path class="cls-11" d="M133.76,114.85a12.38,12.38,0,0,1,1.63-6c.1-.19.18-.22.35-.06,1.08,1,2.17,1.92,3.24,2.9a9.82,9.82,0,0,1,1.2,1.12,1,1,0,0,1-.44,1.63c-.63.23-1.29.39-2,.58q-1.81.54-3.63,1c-.32.1-.34.08-.35-.25S133.78,115.09,133.76,114.85Z"/><path class="cls-11" d="M158,115c0,.27-.06.54-.06.8s-.07.3-.3.23l-3.37-1-2-.56-.42-.16a1,1,0,0,1-.33-1.6c.52-.56,1.12-1,1.68-1.54.89-.82,1.81-1.61,2.7-2.43.18-.16.26-.18.39,0a12.1,12.1,0,0,1,1.61,5.5C158,114.53,158,114.76,158,115Z"/><path class="cls-11" d="M145.86,127a13.51,13.51,0,0,1-3.57-.57c-.23-.07-.23-.16-.13-.34.94-1.68,1.87-3.38,2.81-5.06a1,1,0,0,1,1.86,0c.33.56.63,1.13.95,1.7.6,1.1,1.2,2.19,1.82,3.28.13.24.08.33-.17.39a11.28,11.28,0,0,1-3,.5Z"/><path class="cls-11" d="M140.58,118c.83,0,1.3.57,1.09,1.3a21.78,21.78,0,0,1-.92,2.31c-.42,1.05-.87,2.09-1.29,3.13-.1.25-.18.28-.4.13a12.06,12.06,0,0,1-4.41-5.52c-.14-.34-.13-.34.22-.4l5.46-.93A1.46,1.46,0,0,1,140.58,118Z"/><path class="cls-11" d="M147.38,103.32c0-.44,0-.45.36-.4a12.13,12.13,0,0,1,5.93,2.71c.15.12.29.28.45.4s.15.23,0,.35l-2.54,1.81c-.69.49-1.38,1-2.08,1.47a1.06,1.06,0,0,1-1.55-.14,1.64,1.64,0,0,1-.23-.94c-.07-1.26-.11-2.52-.21-3.77A9.7,9.7,0,0,0,147.38,103.32Z"/><polygon class="cls-11" points="145.13 113.25 144.18 114.44 144.52 115.91 145.88 116.57 147.25 115.91 147.59 114.44 146.64 113.25 145.13 113.25"/><polyline class="cls-12" points="328.45 277.36 310.56 169.5 315.96 277.36"/><line class="cls-13" x1="292.42" y1="152.13" x2="297.65" y2="152.99"/><polygon class="cls-14" points="297.89 152.56 313.32 154.29 312.78 155.91 297.89 152.56"/><path class="cls-15" d="M296.61,159.91l1.28-7.35L313,155.07l-5.19,7.85a1.85,1.85,0,0,1-2.13.73l-8.44-2.77A.86.86,0,0,1,296.61,159.91Z"/><polygon class="cls-14" points="292.67 151.55 277.61 147.79 277.55 149.5 292.67 151.55"/><path class="cls-15" d="M291.31,158.89l1.36-7.34-15-2.9,2.13,9.17a1.85,1.85,0,0,0,1.73,1.43l8.89.35A.88.88,0,0,0,291.31,158.89Z"/><rect class="cls-16" x="245.3" y="211.23" width="105.01" height="72.17" rx="12"/><polygon class="cls-17" points="286.36 255.48 286.36 255.31 286.14 255.66 286.36 255.48"/><path class="cls-17" d="M286.74,254l-.2.08a6,6,0,0,0-.66,1.58,2.59,2.59,0,0,0,.71-.83c-.07,0-.36.38-.36.21.2-.28.25-.2.5-.58.07-.38-.21.22-.25,0Z"/><path class="cls-17" d="M286,255l.3-.49C286.22,254.64,286,254.83,286,255Z"/><path class="cls-17" d="M285.9,255c0-.08.21-.39.24-.45l-.46.63Z"/><path class="cls-17" d="M285.62,254.81l-.07,0C285.5,255,285.56,254.89,285.62,254.81Z"/><path class="cls-17" d="M285.42,254.81c-.1.24,0,.13.13,0v0c.07-.22.38-.68.38-.51.13-.07-.14.4.09.12l.13-.43C286,254,285.57,254.64,285.42,254.81Z"/><path class="cls-17" d="M285.62,254.81h.05C285.7,254.71,285.66,254.76,285.62,254.81Z"/><polygon class="cls-17" points="285.74 254.96 285.83 254.88 285.94 254.67 285.74 254.96"/><path class="cls-17" d="M285.14,254.7c.39-.64.15.17.45-.32-.12,0,.07-.55.3-.9l-.23.14A5.17,5.17,0,0,0,285.14,254.7Z"/><path class="cls-17" d="M285.86,252.94a.36.36,0,0,1-.09.09A.25.25,0,0,0,285.86,252.94Z"/><path class="cls-17" d="M284.67,253.73l.63-.5c-.14.19-.25.4-.35.44.06.16.31-.25.37-.13-.32.62-.19,0-.44.52.07,0,.19.05.53-.43l-.13.47.34-.69c.07-.21-.38.47-.14,0,.15-.29.22-.32.29-.37-.15.09.11-.62-.08-.61S285,253.47,284.67,253.73Z"/><polygon class="cls-17" points="285.08 253 285.21 252.74 285.02 253.09 285.08 253"/><path class="cls-17" d="M284.3,253.7l.38-.33c0,.06-.09.2-.15.33.08-.15.26-.39.33-.52.28-.63-.27.09-.4.16,0-.38.19-.32.45-.92,0,0,0,.19,0,.27.27-.74-.23-.21-.4-.08,0,.07-.12.26,0,.23l-.19.15C284.09,253.51,284.08,253.67,284.3,253.7Z"/><path class="cls-17" d="M284.55,253.83c-.08,0-.07,0,0-.12C284.44,253.88,284.39,254,284.55,253.83Z"/><path class="cls-17" d="M284.47,252.6s0,0,0,0S284.52,252.56,284.47,252.6Z"/><path class="cls-17" d="M284.13,253.35l-.05-.11-.13.3A.45.45,0,0,0,284.13,253.35Z"/><path class="cls-17" d="M281.19,250.31c-.14.24-.18.38-.08.38-.21.31-.26.19-.42.34s-.24.37-.41.69c.08.1.39-.28.45-.13a2.8,2.8,0,0,0-.21.34c.26-.11.67-.26.63.1.06.19.24.1.47.05.36.45,1,.41,1.35,1l.44-.58c-.16.32.12.07-.13.46,0-.09,0,0-.09-.05-.22.61.31.12.32.39a4.66,4.66,0,0,1,.45-.75c-.42.69.16.08-.28.9,0,.27.37-.61.43-.42.26-.4,0-.27.15-.59s0,.2.29-.23c-.09-.33-1,.3-1.45.33l.26-.36c-.33.17-.6,0-.35-.68-.2.38-.12-.34-.61.5.08-.22,0-.19,0-.3l-.18.25c-.08-.06.18-.45.07-.48a2.35,2.35,0,0,1-.5.73c.13-.47.22-.89.33-1.28a2.48,2.48,0,0,0-.2.43c0-.17-.19.18-.28.29s.22-.48.36-.7c0-.22-.63.62-.53.27l-.2.38c-.18,0,0-.45-.23-.41.25-.54.38-.36.57-.54s0-.18.08-.36c-.21.22-.53.5-.75.7C281.4,250.45,281.21,250.38,281.19,250.31Z"/><path class="cls-17" d="M281.72,250.29l.17-.17s-.07,0-.07,0A.59.59,0,0,0,281.72,250.29Z"/><path class="cls-17" d="M281.19,250.31l0-.06S281.19,250.29,281.19,250.31Z"/><path class="cls-17" d="M281.15,252.07s0,0,0,0,0,0,0,0Z"/><path class="cls-17" d="M282.29,250.48c-.05.14-.1.29-.14.45A.76.76,0,0,0,282.29,250.48Z"/><path class="cls-17" d="M282.85,251.39a3.17,3.17,0,0,0,.2-.27C283,251.07,282.92,251.18,282.85,251.39Z"/><polygon class="cls-17" points="281.64 250.11 281.46 250.16 281.37 250.23 281.64 250.11"/><path class="cls-17" d="M278.38,250.64c-.2.48.11.31.16.47.35-.09.65-.92.87-.84l-.61.85c.22.08.38.44,1-.22a.74.74,0,0,1-.24.36c.16.05.89-1.21.87-.81-.52.45-.29.56-.69,1.07l-.06,0c.14,0,.48-.18.52-.1.15-.22.31-.61.43-.58a2,2,0,0,1,.32-.54c-.26.18-.21,0-.47.25.14-.33.1-.07.24-.4l-.26.23c0-.11.25-.26.2-.38-.12.16-.31.3-.36.22l.09-.09c-.13.08-.11-.11-.41.4l.26-.53-.21.34c-.07-.23.41-1.06-.06-.78a.69.69,0,0,1-.25.34c-.07.28.27-.19.37-.19-.2.34-.6.66-.64.92.17-.47-.22-.08.29-.94-.09-.13-.4.25-.4,0l.09-.12c-.39.53.06-.31-.4.19l0,.16c-.15.22-.19.21-.26.22a.87.87,0,0,0,.12-.2c-.28.39-.46.36-.56.46s.31-.17.44-.22C278.6,250.41,278.39,250.75,278.38,250.64Z"/><path class="cls-17" d="M280.59,250l-.16.17A.66.66,0,0,0,280.59,250Z"/><path class="cls-17" d="M278.3,249.57c0-.14.25-.32.3-.54-.27.22-.3.62-.65,1,.11-.26-.24.09-.28.08a7.08,7.08,0,0,0,.59-.86c-.13.12,0-.18-.06-.23-.1.41-.23.12-.37.56s-.49.44-.38.17.17-.14.21-.13c.31-.4.07-.28.32-.68-.52.51-.87.2-1.42,1.21-.09.21.11,0,.18,0,0-.27.35-.5.47-.66,0,.19.25-.05,0,.28l-.32.29a1.2,1.2,0,0,0,1,.63l-.12-.11c.19-.25.26-.22.4-.31l.36-.67c0,.07.1,0-.05.22a2.25,2.25,0,0,0,.43-.64c.17,0,0,.22.38-.14.18-.62-.43.33-.31-.25Z"/><polygon class="cls-17" points="278.89 249.48 278.64 249.76 278.81 249.65 278.89 249.48"/><path class="cls-17" d="M277.9,250.81c.09-.14.15-.18.25-.32S278,250.54,277.9,250.81Z"/><path class="cls-17" d="M277.9,248.81l-.17,0,0,.17A.82.82,0,0,1,277.9,248.81Z"/><path class="cls-17" d="M276.07,249.93c.2.06.45-.21.39.22a10.91,10.91,0,0,0,.78-1.13c0-.14-.48.55-.65.63.21-.37-.17,0-.2-.15A1.78,1.78,0,0,1,276.07,249.93Z"/><path class="cls-17" d="M276.71,248.39s-.37.14-.23,0,.35-.2.31-.14c.51-.38-.13,0,.2-.24a2.46,2.46,0,0,1-.27.18c0-.14-.54.23-.34-.06a4.54,4.54,0,0,0-.64.24,7.2,7.2,0,0,1,.91-.52l-1.43.55c.63-.43-.35-.13.19-.4,0,0,.22,0,.17,0,.89-.23-.25,0-.14-.11l.82-.16c-.16,0-.82,0-.23-.1l.45-.05c-.76,0-.57-.11-1-.17l.68,0a4.64,4.64,0,0,0-1.16,0h-.34l-.41,0c1.88,0-.5-.08.35-.16s.27.09,1.13.09c-.9-.05-.22,0-.43-.09a10.58,10.58,0,0,1,1.09,0A10.07,10.07,0,0,1,275,247c.47,0,.44,0,.38-.05s-1-.23-1.53-.17c.09.22.05.46-.48.65a.12.12,0,0,1,0,.08c1.22,0,.17.14,1.16.12l-1,.09c.43.12.57-.08,1-.07.21,0-.39.14-.79.17.08.11.31,0,1,0l-1.09.2c.41.15.92.28,1.28.41s.6.27.63.58l.42-.32c0,.15.29,0,.49,0s.29-.11,0,.34l.35-.29c-.2.17-.48.59-.77.81.17-.08.11.11.27,0s0-.18.05-.26c.35-.28.24,0,0,.29.43-.32.42-.77.69-1.1-.36.32-.26.11-.06-.12s.45-.49.27-.38A3,3,0,0,0,276.71,248.39Z"/><path class="cls-17" d="M275.9,249.52l.13-.08Z"/><path class="cls-17" d="M275.42,246.92s0,0,0,0S275.36,246.88,275.42,246.92Z"/><polygon class="cls-17" points="276.39 249.5 276.4 249.5 276.39 249.5 276.39 249.5"/><polygon class="cls-17" points="277.2 248.56 277.16 248.51 277.04 248.7 277.2 248.56"/><path class="cls-17" d="M276.56,246.88l-.29-.12Z"/><path class="cls-17" d="M277.56,246.37h0S277.56,246.4,277.56,246.37Z"/><path class="cls-17" d="M280.79,243.64a1.63,1.63,0,0,0-.09-.82l.13.23a1.48,1.48,0,0,0-.41-1l.09.22c.08.41-.32-.33-.5-.41-.06.18.39,1.08.16.94,0,0-.16-.18-.25-.36-.15,0,.21.68.19.81-1.08-1.7,0,.67-.86-.33,0,.2-.24.13-.15.54-.2-.46-.14,0-.42-.45.59,1-.64-.22.13,1-.39-.24.05.09-.33-.08-.09-.14-.06-.16-.06-.19-.24-.21.22.6-.21.08-.21,0,.19.35.32.74-.26,0-.32-.24-.74-.69.37.6.09.38.21.73a.45.45,0,0,1,.3.33c-.25,0,.11.49,0,.76-.52-.59.16-.13-.33-.55a2.5,2.5,0,0,0-.24-.91c-.17.07-.29.29-.26.67-.15,0-.16-.34-.27-.35-.35-.18.2.82-.12.62l-.2-.35c.22.5-.35.1-.33.44a1.51,1.51,0,0,1,.28.38c-.28-.41-.26-.27-.23-.09s.1.39-.21.17a3.35,3.35,0,0,1,.62.87c-.16-.11-.36-.29-.5-.4.4.18-.42-.55-.48-.87.13.31-.32.21,0,.57l-.37-.35c-.25.08.84.79.29.6l-.32-.22a3.84,3.84,0,0,1-.68.27c-.23.09-.36.25.05.45s1.38.26,1.66.35a6,6,0,0,1-1-.56l.64.25a6,6,0,0,0-1-.47c-.22-.21.59.2.35,0,.59.31.62.37,1.14.62l-.25-.18c.22.13.23.08.45.22-.62-.46.35.09.11-.14l-.13,0c-.29-.21-.23-.21-.28-.29a5.55,5.55,0,0,0,.56.36c-.18-.2-.57-.66-.49-.71.41.49.33.19.65.62-.37-.51,0-.3-.16-.61,0-.14.08-.13.27.15a.35.35,0,0,1,0,.11h.06l.07.12c.05,0-.21-.4,0-.18a.33.33,0,0,1,.07.23c.18,0-.33-.94.09-.53-.15-.26,0-.37-.43-.91.17.17.46.62.5.48-.25-.51.23.1.11-.26.22.56.09.14.31.67.2.15-.12-.55.06-.54l.27.35c-.07-.2-.27-.62,0-.25l-.23-.34c.2.12.24-.06.57.25l-.31-.71c.58.6.37-.13.11-.79a.4.4,0,0,1,.31.2l.09.27c.09,0,.42.29.12-.27,0-.22.29.33.4.39-.31-.87.81.27.14-.93-.06,0-.33-.12-.42,0-.06-.16-.23-.37-.2-.43s.43.26.43,0l.44.76C280.85,244.56,280,242.68,280.79,243.64Z"/><path class="cls-17" d="M279.2,244.6l.33.32-.21-.31C279.32,244.68,279.29,244.7,279.2,244.6Z"/><path class="cls-17" d="M279.32,244.61c0-.05,0-.11-.05-.19s0,0,0,.11Z"/><path class="cls-17" d="M281.07,243.3s.11.06.1-.05S281,243.18,281.07,243.3Z"/><polygon class="cls-17" points="281.04 243.01 280.93 242.92 280.97 243.01 281.04 243.01"/><path class="cls-17" d="M283.38,240.83l-.1-.54c.16.22.18-.16.34.28-.2-.61.28-.16-.22-.93-.3.51-1.18.37-1.3,1.37l-.1-.37c.09.78-.75-.49-.26.88l-.33-.66c-.23-.11.29,1.06-.22.46l.16.25s-.12-.09-.15-.07l.08.11c.06.31,0,.3-.2.18s0-.11,0-.18c-.16-.19,0,.28,0,.32a.81.81,0,0,1-.21-.38c0,.4-.53-.22-.11.81.09.18.24.3.21.42.31.22.2-.22.17-.54h0c-.44-1,.2.17.12-.32a4.44,4.44,0,0,1,.2.65c.58.61-.06-.68.58.16v0c.08.08,0-.12,0-.23a1.17,1.17,0,0,0-.23-.22,4.39,4.39,0,0,0-.31-.71c.28.38-.05-.23.14-.07.24.36.14.38.23.6l-.06-.31c.06-.07.31.37.46.55-.09-.33-.15-.18-.33-.62.36.42.65.09.62-.38,0,.09.21.42.1.4.07.07.06-.18-.1-.47s.23-.23.5,0l-.2-.28c-.17-.55.44.23.46-.15h0c0-.09-.32-.84-.13-.75A4.48,4.48,0,0,0,283.38,240.83Z"/><path class="cls-17" d="M283.63,239.83l.16.44c.11.06-.09-.51-.25-.77,0,.11-.14-.05,0,.2C283.55,239.75,283.63,239.9,283.63,239.83Z"/><path class="cls-17" d="M284.76,239.17c0-.11-.11-.26-.15-.39-.23.18-.45.5-.72.23-.14-.08.16.55.13.75l-.26-.4c.08.3-.33-.07.09.59,0,.06-.12-.35,0-.26l.11.25.07-.14.12.31c.37.35-.35-1,0-.76l.3.6c.14,0,.1-.27.39,0,0,0-.15-.3-.11-.17a1.89,1.89,0,0,1-.26-.44c0-.56.15.38.41.56-.05-.5.09-1,.42-.55-.26-.33-.33-.77-.22-.78a2.17,2.17,0,0,1,.22.56c.07,0,.18.18.18.07a2.23,2.23,0,0,1-.4-1C284.64,237.94,285,239.13,284.76,239.17Z"/><path class="cls-17" d="M284.58,238.63s0,.09,0,.15l.08-.05Z"/><polygon class="cls-17" points="291 255.01 291.16 255.02 290.8 254.83 291 255.01"/><path class="cls-17" d="M292.45,255.42l-.11-.15a8.36,8.36,0,0,0-1.59-.63,3.6,3.6,0,0,0,.9.6c0-.06-.42-.3-.26-.29.3.17.23.2.63.42s-.24-.17,0-.18Z"/><path class="cls-17" d="M291.43,254.81l.51.27A2.58,2.58,0,0,0,291.43,254.81Z"/><path class="cls-17" d="M291.34,254.71c.07,0,.4.19.46.21l-.66-.39Z"/><path class="cls-17" d="M291.5,254.51l-.06,0C291.33,254.41,291.42,254.47,291.5,254.51Z"/><path class="cls-17" d="M291.46,254.37c-.24-.1-.11,0,0,.09l.05,0c.21.06.69.33.54.32.08.1-.4-.14-.1.06l.43.13A5.76,5.76,0,0,0,291.46,254.37Z"/><path class="cls-17" d="M291.5,254.51s0,0,0,.05S291.56,254.55,291.5,254.51Z"/><polygon class="cls-17" points="291.38 254.59 291.47 254.67 291.69 254.77 291.38 254.59"/><path class="cls-17" d="M291.51,254.17c.66.34-.13.09.38.36,0-.08.53.1.89.3l-.17-.18A7.56,7.56,0,0,0,291.51,254.17Z"/><path class="cls-17" d="M293.28,254.86l-.11-.08Z"/><path class="cls-17" d="M292.32,253.9l.59.51a2.26,2.26,0,0,1-.48-.3c-.13,0,.29.26.19.29-.63-.29,0-.13-.56-.37,0,.05,0,.13.5.43l-.46-.13.69.31c.21.07-.5-.33,0-.11a1.07,1.07,0,0,1,.4.25c-.12-.12.6.14.55,0A13.31,13.31,0,0,0,292.32,253.9Z"/><polygon class="cls-17" points="293.07 254.27 293.35 254.39 292.98 254.22 293.07 254.27"/><path class="cls-17" d="M292.29,253.63l.38.31-.34-.14.54.29c.64.27-.14-.21-.22-.32.34,0,.33.18.94.42,0,0-.19-.05-.25,0,.73.27.14-.15,0-.28s-.26-.11-.22-.06l-.18-.15C292.43,253.48,292.27,253.47,292.29,253.63Z"/><path class="cls-17" d="M292.21,253.8c0-.06,0-.05.11,0C292.15,253.72,292,253.67,292.21,253.8Z"/><path class="cls-17" d="M293.33,253.85s0,0,0,0S293.38,253.89,293.33,253.85Z"/><path class="cls-17" d="M292.58,253.53l.09,0-.3-.12A.67.67,0,0,0,292.58,253.53Z"/><path class="cls-17" d="M294.8,251.57c-.25-.13-.38-.17-.36-.1-.33-.18-.23-.21-.4-.34a4.94,4.94,0,0,1-.71-.37c-.07.05.34.32.21.35a2.41,2.41,0,0,0-.36-.18c.16.2.38.53.05.47-.17,0-.06.17,0,.35-.35.23-.18.74-.67.93l.62.38c-.33-.15,0,.08-.46-.14.09,0,0,0,0-.06-.6-.22-.05.22-.31.21a5.7,5.7,0,0,1,.78.4c-.71-.38,0,.11-.88-.29-.25,0,.63.33.47.36.42.23.25,0,.58.17s-.19,0,.26.23c.28,0-.46-.77-.58-1.12l.39.23c-.23-.26-.15-.46.55-.21-.39-.18.29-.06-.58-.5.22.08.19,0,.28,0l-.26-.16s.45.18.46.1a3.47,3.47,0,0,1-.77-.44l1.23.35-.43-.19c.16,0-.2-.15-.32-.23s.48.2.72.33-.7-.52-.36-.42l-.39-.18c-.05-.14.41,0,.33-.15.54.23.41.32.61.48a1.8,1.8,0,0,1,.35.09c-.25-.18-.57-.44-.79-.63C294.71,251.72,294.74,251.58,294.8,251.57Z"/><path class="cls-17" d="M294.93,252l.19.14s-.06-.05,0-.05Z"/><path class="cls-17" d="M294.8,251.57l.06,0A.08.08,0,0,0,294.8,251.57Z"/><path class="cls-17" d="M293.19,251.39h0Z"/><path class="cls-17" d="M294.86,252.39a4.53,4.53,0,0,0-.44-.15A1.2,1.2,0,0,0,294.86,252.39Z"/><path class="cls-17" d="M294.14,252.73a3.31,3.31,0,0,0,.29.18S294.35,252.8,294.14,252.73Z"/><polygon class="cls-17" points="295.08 251.92 295 251.79 294.91 251.71 295.08 251.92"/><path class="cls-17" d="M293.93,249.4c-.48-.19-.26.06-.4.09.16.27,1,.56,1,.73l-.91-.54c0,.16-.32.25.42.82a1.49,1.49,0,0,1-.38-.22c0,.12,1.29.78.92.73-.51-.43-.57-.27-1.12-.61l-.06-.06c0,.11.27.38.2.41.23.13.63.29.62.37a3.79,3.79,0,0,1,.56.29c-.23-.21,0-.16-.33-.37.33.13.08.08.41.21l-.26-.22c.1,0,.29.22.39.19-.17-.11-.34-.27-.27-.29l.09.07c-.1-.11.09-.08-.44-.34l.54.24-.36-.19c.2,0,1.05.4.7,0a1,1,0,0,1-.36-.22c-.27-.07.23.22.25.3a5.82,5.82,0,0,0-1-.56c.46.16,0-.17.91.29.1,0-.31-.33,0-.3l.12.08c-.56-.34.3.07-.25-.32l-.15,0c-.23-.14-.23-.16-.25-.22a.62.62,0,0,0,.2.11,1.91,1.91,0,0,1-.53-.46c-.1,0,.22.24.29.35C294.19,249.59,293.83,249.4,293.93,249.4Z"/><path class="cls-17" d="M295,251.14l-.19-.14Z"/><path class="cls-17" d="M294.88,249.42c.12,0,.34.22.55.28-.25-.22-.62-.28-1-.58.27.11-.13-.19-.12-.22a7.29,7.29,0,0,0,.9.52c-.14-.11.16,0,.19,0-.39-.11-.16-.2-.58-.33s-.51-.42-.24-.31.17.14.17.17c.43.27.27.08.68.3-.57-.44-.37-.68-1.4-1.18-.21-.09,0,.08,0,.13.25,0,.52.31.7.42-.18-.06.09.19-.25,0l-.34-.27c-.3.08-.38.38-.36.69l.07-.09a1.26,1.26,0,0,1,.37.33l.68.33c-.07,0,0,.08-.22-.05a3.61,3.61,0,0,0,.67.38c.08.13-.18,0,.21.3.61.19-.39-.36.16-.22Z"/><polygon class="cls-17" points="295.09 249.89 294.77 249.67 294.91 249.81 295.09 249.89"/><path class="cls-17" d="M293.67,249l.35.21C294.14,249.23,293.94,249.12,293.67,249Z"/><path class="cls-17" d="M295.48,249.18l-.07-.14-.16,0A1,1,0,0,1,295.48,249.18Z"/><path class="cls-17" d="M294.07,247.69c0,.13.29.36-.11.27.4.31.82.45,1.19.7.13,0-.6-.42-.7-.56.37.2,0-.13.08-.13C294.38,247.88,294.2,247.78,294.07,247.69Z"/><path class="cls-17" d="M295.67,248.18s-.22-.25,0-.18.3.22.22.21c.53.29-.05-.1.33.06a1.6,1.6,0,0,1-.27-.15c.2,0-.38-.32,0-.29a2.25,2.25,0,0,0-.46-.34c.49.18.46.22.9.35-.2-.12-.69-.37-1.12-.63.7.22,0-.2.52,0,0,0,.12.1.05.09.61.36-.06-.14.09-.12l.51.32c-.05-.1-.34-.39.08-.22l.24.17c-.31-.37,0-.4-.17-.62l.35.14c-.29-.39-.27,0-1-.55,1,.57-.26-.27.16-.12s.15.21.6.43c-.47-.32-.11-.13-.22-.26.45.3.12,0,.61.3l-.74-.69c.27.14.26.07.21,0s-.66-.46-.93-.49c.13.27.14.6-.2.62.61.41-.08.11.41.45l-.58-.33c.07.19.36.18.57.35,0,.1-.35-.09-.57-.24-.08.06.16.12.48.37l-.72-.37c.06.38.32,1-.25,1l.45.24c-.32,0,.84.79-.16.35l.35.26c-.2-.15-.67-.37-.94-.58.12.12-.06.06.05.18l.25.06c.34.26.08.18-.25,0a4,4,0,0,0,1.17.59c-.73-.62.86.33.6,0S295.9,248.33,295.67,248.18Z"/><path class="cls-17" d="M294.38,247.64l.11.09Z"/><path class="cls-17" d="M296.58,246.06s0,0,0-.06S296.54,246,296.58,246.06Z"/><polygon class="cls-17" points="294.53 247.97 294.54 247.97 294.53 247.97 294.53 247.97"/><polygon class="cls-17" points="295.56 248.66 295.6 248.64 295.39 248.53 295.56 248.66"/><path class="cls-17" d="M297.35,246l-.22-.14A1.64,1.64,0,0,0,297.35,246Z"/><path class="cls-17" d="M298.13,245.12h0S298.15,245.14,298.13,245.12Z"/><path class="cls-17" d="M299.29,242.46a1.92,1.92,0,0,0-.48-.63l.21.15a2.28,2.28,0,0,0-.79-.67l.18.15c.27.32-.4-.19-.59-.23.05.15.84.78.6.71,0,0-.22-.12-.37-.24-.11,0,.5.5.55.6-1.67-1.14.3.52-.82-.11.09.16-.12.14.15.45-.38-.33-.08.06-.54-.29.95.69-.6,0,.61.8-.41-.13.08.06-.29,0-.14-.1-.12-.12-.14-.14-.29-.12.46.43-.12.09-.16,0,.31.24.6.53-.22,0-.36-.13-.91-.42.58.41.26.28.52.54a.54.54,0,0,1,.39.21c-.17.06.32.35.4.57-.68-.37.06-.12-.52-.36a3.2,3.2,0,0,0-.62-.67c-.11.08-.08.27.12.56-.13,0-.29-.24-.38-.23-.36-.08.55.6.21.5l-.33-.24c.41.35-.22.13,0,.39a2.57,2.57,0,0,1,.4.25c-.85-.55.34.43-.31.14.53.34.77.63.79.73-.16-.08-.38-.23-.52-.32.38.11-.52-.48-.72-.72.24.25-.12.17.23.48l-.41-.29c-.12,0,.9.69.44.53l-.3-.21c-.08.22-.79.09-.19.69.25.18.9.48,1.1.6-.16-.23-.58-.57-.75-.78l.48.31a3.87,3.87,0,0,0-.76-.56c-.21-.22.46.23.22,0,.51.33.54.4,1,.68l-.21-.22c.18.14.19.08.38.22-.55-.5.32,0,.12-.28h-.13c-.28-.18-.23-.19-.29-.27a1.6,1.6,0,0,0,.58.23c-.19-.19-.68-.55-.63-.61.52.36.36.08.81.36-.52-.36-.1-.25-.4-.46-.09-.1,0-.11.28.07,0,0,.06.06.07.09l.05,0,.11.08s-.35-.28-.07-.14a.42.42,0,0,1,.17.16c.15,0-.71-.67-.18-.42a4.27,4.27,0,0,0-.77-.64c.21.11.65.41.62.29-.45-.35.22,0-.05-.21.45.4.14.09.57.47.23.08-.36-.41-.22-.43l.38.22c-.15-.14-.51-.43-.1-.2l-.33-.22c.2.06.15-.09.56.1l-.59-.5c.73.37.22-.17-.31-.64a.59.59,0,0,1,.34.11l.21.2c.06,0,.46.15,0-.24-.12-.16.39.21.5.23-.67-.61.75.08-.35-.74,0,0-.31,0-.32.08-.12-.11-.35-.25-.36-.3s.45.13.32-.08l.71.51C299.79,243.16,298.19,241.85,299.29,242.46Z"/><path class="cls-17" d="M298.55,243.48l.41.19-.32-.21C298.68,243.52,298.67,243.53,298.55,243.48Z"/><path class="cls-17" d="M298.64,243.46l-.12-.13s0,0,0,.08Z"/><path class="cls-17" d="M299.33,242.14s.11,0,.05-.06S299.23,242.05,299.33,242.14Z"/><polygon class="cls-17" points="299.16 241.92 299.03 241.87 299.11 241.93 299.16 241.92"/><path class="cls-17" d="M299.79,239.77l-.35-.41c.23.15.05-.15.39.16-.46-.44.12-.19-.64-.69,0,.46-.67.52-.25,1.32l-.26-.26c.46.59-.81-.24.25.74l-.58-.45c-.22-.05.75.77.06.39l.26.17s-.14-.05-.15,0l.11.07c.2.23.15.24-.06.17s-.06-.08-.1-.13c-.21-.12.16.22.13.26a1.48,1.48,0,0,1-.35-.26c.17.32-.5-.08.33.65.15.13.32.19.37.29.34.11,0-.21-.15-.46l0,0c-.82-.69.23.09-.07-.28a6.57,6.57,0,0,1,.47.47c.75.37-.38-.52.52,0l0,0c.09,0-.05-.11-.11-.19a1.68,1.68,0,0,0-.28-.13,7.44,7.44,0,0,0-.59-.5c.4.25-.16-.17.07-.08.36.24.29.28.47.43l-.2-.23c0-.07.42.23.63.34-.24-.23-.21-.11-.56-.42.47.26.52,0,.26-.42,0,.08.36.29.28.3.09,0-.05-.15-.32-.35s.06-.23.36-.11l-.29-.18c-.41-.4.45.09.26-.2h0c0-.07-.67-.59-.49-.56A6.83,6.83,0,0,0,299.79,239.77Z"/><path class="cls-17" d="M299.45,238.94l.35.31c.11,0-.33-.38-.58-.56.06.09-.13,0,.08.16C299.36,238.89,299.49,239,299.45,238.94Z"/><path class="cls-17" d="M299.93,238.19c-.07-.08-.22-.18-.31-.27-.07.18-.07.48-.4.32-.15,0,.4.4.48.56l-.4-.25c.22.21-.27,0,.37.44.06,0-.27-.26-.14-.2l.21.17,0-.13.25.23c.45.19-.75-.68-.41-.6l.53.41c.09-.05-.07-.23.31-.05,0,0-.27-.2-.17-.11a2.27,2.27,0,0,1-.42-.29c-.33-.43.31.27.59.35-.3-.37-.46-.79,0-.52-.36-.2-.64-.53-.57-.56a2.94,2.94,0,0,1,.45.39c.08,0,.23.11.17,0a3.24,3.24,0,0,1-.83-.73C299.2,237.25,300.09,238.11,299.93,238.19Z"/><path class="cls-17" d="M299.51,237.8a.36.36,0,0,0,.11.12.14.14,0,0,1,0-.06Z"/><polygon class="cls-17" points="307.86 254.32 308.01 254.4 307.79 254.05 307.86 254.32"/><path class="cls-17" d="M309,255.32v-.22a5.74,5.74,0,0,0-1.13-1.27,2.58,2.58,0,0,0,.45,1c0-.06-.19-.48,0-.41.17.3.08.32.31.7s-.11-.28.1-.22Z"/><path class="cls-17" d="M308.45,254.26c.11.18.22.35.32.49C308.66,254.57,308.57,254.33,308.45,254.26Z"/><path class="cls-17" d="M308.45,254.12c.09,0,.25.36.29.4l-.37-.68Z"/><path class="cls-17" d="M308.75,254a.25.25,0,0,0,0-.08C308.66,253.79,308.71,253.88,308.75,254Z"/><path class="cls-17" d="M308.84,253.79c-.18-.2-.13,0-.1.09l0,0c.16.15.45.63.3.55,0,.15-.3-.3-.15,0l.34.31C309.33,254.68,308.92,254,308.84,253.79Z"/><path class="cls-17" d="M308.75,254a.06.06,0,0,1,0,.06C308.81,254.08,308.79,254,308.75,254Z"/><polygon class="cls-17" points="308.58 254.01 308.61 254.13 308.75 254.31 308.58 254.01"/><path class="cls-17" d="M309,253.59c.42.62-.21,0,.11.54.07-.09.46.3.68.65l0-.26A4.78,4.78,0,0,0,309,253.59Z"/><path class="cls-17" d="M310.33,255a.87.87,0,0,0-.05-.12A.51.51,0,0,0,310.33,255Z"/><path class="cls-17" d="M310.09,253.58l.21.78c-.12-.21-.27-.39-.26-.5-.16,0,.1.39,0,.39-.43-.55.12-.15-.29-.62-.05.06-.12.15.18.66l-.37-.31.47.59c.17.15-.27-.54.06-.13a.77.77,0,0,1,.22.42c0-.17.52.37.58.2S310.22,253.94,310.09,253.58Z"/><polygon class="cls-17" points="310.59 254.26 310.78 254.49 310.53 254.17 310.59 254.26"/><path class="cls-17" d="M310.27,253.27l.15.47a2.55,2.55,0,0,1-.24-.27c.11.14.25.4.34.52.45.52,0-.29,0-.43.36.13.21.31.66.79-.06,0-.16-.12-.25-.11.55.56.27-.11.23-.32-.06,0-.19-.21-.19-.14l-.07-.23C310.53,253.16,310.38,253.08,310.27,253.27Z"/><path class="cls-17" d="M310.05,253.43c0-.08.07-.05.12,0C310.05,253.32,310,253.22,310.05,253.43Z"/><path class="cls-17" d="M311.19,253.88s0,0,0,0S311.21,253.94,311.19,253.88Z"/><path class="cls-17" d="M310.65,253.26h.12l-.22-.24A.42.42,0,0,0,310.65,253.26Z"/><path class="cls-17" d="M314.51,251.8c-.17-.23-.28-.32-.31-.22-.21-.32-.09-.32-.17-.52s-.25-.36-.48-.63c-.12,0,.12.46,0,.45a2.27,2.27,0,0,0-.25-.31c0,.28,0,.71-.3.54s-.19.17-.22.4c-.53.15-.75.77-1.41.81l.36.64c-.24-.28-.11.08-.37-.31.08,0,.05,0,.08-.05-.47-.45-.23.22-.48.12a4.68,4.68,0,0,1,.51.71c-.46-.66-.13.12-.71-.62-.25-.1.41.58.21.56.27.4.25.11.49.39s-.21-.06.09.35c.33,0,.12-1,.26-1.45l.23.39c0-.38.2-.56.75-.06-.28-.32.36,0-.23-.74.17.15.16.11.26.14l-.16-.26c.08,0,.34.34.42.25a2.32,2.32,0,0,1-.49-.74c.38.3.73.55,1.05.79-.09-.1-.19-.22-.32-.34.15.07-.1-.25-.16-.37s.35.38.51.6c.2.06-.34-.81-.06-.59l-.28-.33c0-.16.42.15.46-.05.41.43.2.48.29.73.1.08.17.07.3.21-.12-.28-.27-.68-.37-1C314.31,251.94,314.44,251.79,314.51,251.8Z"/><path class="cls-17" d="M314.34,252.29l.1.22s0-.08,0-.07A1,1,0,0,0,314.34,252.29Z"/><path class="cls-17" d="M314.51,251.8l0,0S314.53,251.8,314.51,251.8Z"/><path class="cls-17" d="M312.92,251.09l0,0s0,0,0,0Z"/><path class="cls-17" d="M314,252.74c-.11-.1-.23-.21-.36-.31A.79.79,0,0,0,314,252.74Z"/><path class="cls-17" d="M312.91,252.89a1.8,1.8,0,0,0,.18.3C313.15,253.17,313.08,253.05,312.91,252.89Z"/><polygon class="cls-17" points="314.54 252.28 314.56 252.1 314.53 251.99 314.54 252.28"/><path class="cls-17" d="M315.17,249.09c-.38-.36-.32,0-.48,0,0,.35.63.93.48,1.1l-.58-.88c-.15.18-.53.19-.14,1.05a1,1,0,0,1-.26-.36c-.09.12.81,1.27.45,1.1-.23-.64-.41-.47-.75-1l0-.08c-.06.13,0,.51-.09.52.16.22.46.52.39.61s.23.27.38.5c-.08-.31.08-.2-.07-.53.26.25,0,.12.29.37l-.12-.32c.1,0,.15.33.28.33-.11-.18-.17-.41-.08-.42l0,.11c0-.15.15-.06-.22-.52l.4.43-.24-.32c.23,0,.84.77.73.24a.71.71,0,0,1-.22-.35c-.24-.17.08.31,0,.4-.24-.31-.4-.79-.62-.92.37.32.14-.18.76.6.15,0-.09-.46.17-.35l.08.12c-.36-.55.27.18,0-.43l-.15-.08c-.15-.22-.13-.25-.11-.32a.55.55,0,0,0,.14.18,1.54,1.54,0,0,1-.24-.68c-.1,0,.06.34.06.49C315.31,249.38,315.07,249.06,315.17,249.09Z"/><path class="cls-17" d="M315,251.35l-.1-.21A.88.88,0,0,0,315,251.35Z"/><path class="cls-17" d="M316.18,249.4c.14,0,.22.34.41.47-.12-.33-.48-.5-.69-1,.21.2,0-.25,0-.28a6.64,6.64,0,0,0,.6.85c-.07-.17.17,0,.23,0-.35-.24,0-.26-.39-.54s-.26-.61-.05-.41.09.21.06.24c.27.43.25.16.56.51-.26-.69.13-.91-.87-1.6-.2-.13,0,.07,0,.13.26.1.46.42.59.58-.19-.1,0,.23-.28-.09-.07-.12-.15-.24-.23-.36-.29-.06-.61.27-.81.62l.14-.07a.91.91,0,0,1,.16.47l.5.57c-.07,0,0,.1-.2-.12a2.38,2.38,0,0,0,.46.62c0,.18-.21-.05,0,.4.51.4-.17-.51.33-.2Z"/><polygon class="cls-17" points="316.08 249.98 315.89 249.64 315.94 249.84 316.08 249.98"/><path class="cls-17" d="M315.17,248.58c.1.14.12.21.22.35S315.38,248.78,315.17,248.58Z"/><path class="cls-17" d="M317.09,249.23l.05-.19-.18,0A.39.39,0,0,1,317.09,249.23Z"/><path class="cls-17" d="M316.18,247.47c0,.08.26.34-.16.16.34.37.78.59,1.12.9.18,0-.53-.52-.6-.66.4.23,0-.13.15-.11C316.51,247.67,316.33,247.56,316.18,247.47Z"/><path class="cls-17" d="M318.35,247.92c.09,0-.24-.23.07-.2s.39.17.25.18c.78.2,0-.1.58,0a1.29,1.29,0,0,1-.39-.08c.41-.13-.54-.23.2-.34a2.05,2.05,0,0,0-.73-.17,11.64,11.64,0,0,0,1.67,0c-.37,0-1.25-.07-2-.15,1.29-.05,0-.15,1-.2,0,0,.21,0,.06.06,1.17,0-.07-.11.23-.15l1,0s-.17-.08-.22-.12-.23-.09.1-.15h.53c-1-.14-.95-.35-1.5-.44l.43-.17c-.93-.07,0,.24-1.52.31,1.55-.28-.63,0-.12-.17s.45,0,1.07-.17c-.81.14-.31,0-.61,0,.73-.16-.07-.14.75-.31a12.86,12.86,0,0,0-1.49.19c.31-.15.17-.19,0-.19.11.09-.92.35-1.1.53.42,0,1,.13.75.31,1.13-.12.11.09,1.08,0l-1,.11a5.2,5.2,0,0,0,1.07-.09c.23,0-.44.12-.89.14,0,.06.34,0,1.06,0l-1.31.09.18,0c.12.07.25.19.22.31s-.22.27-.63.3l.67.15c-.26,0,0,.16.14.3s.11.24-.56.05l.4.25c-.23-.14-.82-.35-1.14-.54.14.1-.1,0,0,.15l.32.06c.38.26,0,.18-.34,0a3.33,3.33,0,0,0,1.4.6c-.35-.33-.08-.24.32-.16s.88.19.8,0S318.64,248,318.35,247.92Z"/><path class="cls-17" d="M316.57,247.49l.13.08Z"/><path class="cls-17" d="M317.8,245.61l-.1,0C317.55,245.63,317.67,245.61,317.8,245.61Z"/><polygon class="cls-17" points="316.69 247.76 316.7 247.77 316.69 247.76 316.69 247.76"/><polygon class="cls-17" points="317.76 248.53 317.84 248.49 317.61 248.37 317.76 248.53"/><path class="cls-17" d="M317.74,244.81l-.23.16A1.19,1.19,0,0,0,317.74,244.81Z"/><path class="cls-17" d="M316.11,243.51l0,0S316.13,243.5,316.11,243.51Z"/><path class="cls-17" d="M312.41,241.67a1.62,1.62,0,0,0-.71.43l.16-.22a1.63,1.63,0,0,0-.69.79l.16-.18c.34-.25-.16.42-.17.63.18,0,.81-.82.77-.56.06,0-.1.23-.22.38.06.13.53-.48.65-.52-1.1,1.69.61-.25,0,.91.19-.07.21.16.55-.09-.34.37.09.11-.26.56.69-1,0,.66.89-.55-.07.45.07-.07.05.34-.09.13-.12.11-.15.13-.1.3.47-.45.15.15.08.19.25-.31.56-.58.05.25-.1.38-.36.94.41-.57.31-.23.59-.48a.44.44,0,0,1,.19-.4c.11.21.4-.29.67-.33-.35.7-.18-.09-.38.51-.3.23-.36.15-.74.58.12.13.36.14.7,0,0,.14-.25.27-.22.38,0,.38.68-.5.61-.14l-.25.32c.37-.39.2.28.51.13a1.74,1.74,0,0,1,.25-.4c-.57.84.49-.3.23.39.35-.54.68-.75.81-.74a4.52,4.52,0,0,1-.32.52c.07-.41-.53.48-.8.65.27-.21.23.18.57-.15l-.32.38c0,.12.81-.82.64-.35l-.27.26c.14.06.16.25.22.36s.18.14.72,0a8.19,8.19,0,0,0,1.17-.72,5.24,5.24,0,0,0-1.39.34l.5-.36c-.38.22-.69.29-.89.54s.36-.38,0-.22c.47-.41.59-.41,1-.74l-.35.12c.21-.13.08-.19.29-.33-.74.38-.13-.42-.59-.34l.06.17c-.21.26-.25.19-.36.23a1.19,1.19,0,0,0,.18-.61c-.21.17-.59.64-.68.57.38-.51,0-.38.33-.84-.38.51-.31.07-.53.36-.12.08-.15,0,0-.31l.1-.06,0,0a.82.82,0,0,1,.09-.11s-.29.34-.17,0a.34.34,0,0,1,.18-.16c-.05-.16-.74.66-.51.12-.19.23-.34.16-.69.74.1-.22.41-.65.26-.64-.37.43,0-.25-.27,0,.43-.42.09-.13.5-.55.06-.24-.47.33-.52.16l.22-.38c-.16.14-.47.49-.24.07l-.22.34c0-.22-.15-.19,0-.62l-.53.57c.33-.76-.26-.28-.76.22a.44.44,0,0,1,.07-.36l.21-.2c-.05-.07.11-.49-.29,0-.19.11.19-.4.19-.52-.65.64-.07-.85-.88.25.06.05,0,.36.17.38-.12.12-.25.36-.31.36s.07-.49-.17-.38l.5-.72C313.21,241.22,311.86,242.81,312.41,241.67Z"/><path class="cls-17" d="M313.89,242.69l.16-.42-.2.32C313.91,242.56,313.94,242.57,313.89,242.69Z"/><path class="cls-17" d="M313.85,242.59l-.15.11s0,0,.1,0Z"/><path class="cls-17" d="M312,241.56s0-.12-.09-.07S311.89,241.66,312,241.56Z"/><polygon class="cls-17" points="311.74 241.71 311.71 241.85 311.77 241.78 311.74 241.71"/><path class="cls-17" d="M308.84,240.66l-.43.35c.13-.24-.21-.07.1-.43-.43.47-.27-.15-.71.64.57,0,.82.83,1.74.47l-.28.25c.65-.43-.12.88.88-.17l-.44.59c0,.24.81-.74.48,0l.16-.25s0,.14,0,.16l.06-.12c.25-.19.28-.13.24.09s-.09.06-.15.1c-.1.22.24-.15.3-.11a.85.85,0,0,1-.25.36c.37-.14,0,.56.76-.27.13-.15.17-.34.29-.37.07-.37-.27-.08-.55.09l0,0c-.69.83.07-.24-.33.05.28-.34.33-.29.49-.47.3-.79-.58.36-.1-.58l0,0c0-.1-.12,0-.22.09a1.42,1.42,0,0,0-.09.3,4.62,4.62,0,0,0-.5.59c.22-.42-.19.16-.12-.08s.28-.3.43-.47l-.24.19c-.09,0,.19-.45.29-.67-.25.24-.1.22-.41.58.22-.5-.2-.61-.6-.37.09,0,.29-.37.31-.26,0-.1-.18,0-.37.3s-.3-.1-.23-.42l-.16.3c-.4.41,0-.49-.32-.33h0c-.09,0-.59.68-.59.47A4.72,4.72,0,0,0,308.84,240.66Z"/><path class="cls-17" d="M307.87,240.94l.31-.35c0-.13-.4.32-.56.58.09-.06,0,.15.18-.07C307.83,241,307.93,240.9,307.87,240.94Z"/><path class="cls-17" d="M306.8,240.3c-.08.08-.18.23-.26.33.25.1.62.13.51.49,0,.16.4-.41.58-.48l-.22.42c.22-.22.08.31.46-.37,0-.06-.25.28-.21.13l.16-.21h-.15l.21-.26c.14-.48-.65.77-.64.4l.38-.55c-.09-.11-.28,0-.14-.36,0,0-.2.28-.1.18a1.62,1.62,0,0,1-.26.44c-.46.32.26-.32.29-.62-.4.28-.88.42-.66-.08-.16.38-.5.67-.56.58a2,2,0,0,1,.38-.47c0-.08.06-.24,0-.19a2.33,2.33,0,0,1-.69.87C305.81,241,306.65,240.11,306.8,240.3Z"/><path class="cls-17" d="M306.42,240.74a.29.29,0,0,0,.12-.11l-.08,0Z"/><polygon class="cls-17" points="291.28 113.73 291.34 113.27 290.72 113.37 291.28 113.73"/><path class="cls-17" d="M292.79,111.29l-.41-.53c-1.63.81-1.29.15-2.21,1.56.37.31,1.25.89,1.86.53-.15-.21-.93-.36-.84-.81.54,0,.61.42,1.31.38.33-.74-.55-.22-.5-.94Z"/><path class="cls-17" d="M290.87,111a4.34,4.34,0,0,0,.87-.1C291.42,110.93,291,110.69,290.87,111Z"/><path class="cls-17" d="M290.6,110.64c0-.43.64-.13.73-.19l-1.23-.25Z"/><path class="cls-17" d="M290.37,108.86a1.27,1.27,0,0,0-.13-.19C290.07,108.76,290.22,108.8,290.37,108.86Z"/><path class="cls-17" d="M290.15,108c-.39.21-.13.42.09.68l.07,0c.31-.28,1.15-.13,1,.26.23.37-.57.46,0,.72l.59-.56C291.7,108.47,290.49,108.23,290.15,108Z"/><path class="cls-17" d="M290.37,108.86a.58.58,0,0,1,.08.22C290.57,109,290.48,108.9,290.37,108.86Z"/><polygon class="cls-17" points="290.4 109.77 290.61 109.96 290.95 109.84 290.4 109.77"/><path class="cls-17" d="M290,106.51c1.11.09-.11,1.06.77,1.13-.08-.57.75-1,1.36-.9l-.15-.25-3.31,1.08.37.17c.45-.07.94-.74,1.18-1.32l0-.06-.19.11Z"/><path class="cls-17" d="M288.74,109a.38.38,0,0,1,.24,0A.33.33,0,0,0,288.74,109Z"/><path class="cls-17" d="M292.15,110.56l-1.77-.58c.38-.1.63-.34.93-.14-.25-.62-.89-.28-1.11-.79.76-.74.62.74,1.2,0a1.24,1.24,0,0,0-1.52-.48l.22-.91-.8.85c-.13.38,1-.13.46.46a.59.59,0,0,1-.77.13c.42.18-.11,1.38.46,1.93S291.39,110.41,292.15,110.56Z"/><polygon class="cls-17" points="291.15 111.32 290.83 111.64 291.29 111.25 291.15 111.32"/><path class="cls-17" d="M293.28,111.85l-1-.26a1.55,1.55,0,0,1,.35-.46c-.2.17-.69.25-.85.4-.67.86.79.6,1.17.85.2,1.18-.49.26-1.08,1.15-.14-.27.06-.42-.12-.81-.61,1.19.73,1.31,1.2,1.52,0-.16.28-.35.08-.5l.52.19A1.51,1.51,0,0,0,293.28,111.85Z"/><path class="cls-17" d="M292.51,110.69c.22.2.22.33.11.43C292.81,110.9,292.92,110.71,292.51,110.69Z"/><path class="cls-17" d="M293.08,114.42c0-.07,0-.12-.15-.18S293,114.38,293.08,114.42Z"/><path class="cls-17" d="M293.89,113.4l.2.52.3-.44C294.3,113.45,294.1,113.26,293.89,113.4Z"/><path class="cls-17" d="M305.42,111.42c-.05-.73-.14-1-.22-.71a4.8,4.8,0,0,1,.14-1.67,1.44,1.44,0,0,1-.15-.8,5.94,5.94,0,0,0,0-1.19,2.38,2.38,0,0,0-.38,1.08c-.09.42-.15.8-.33.93a2.17,2.17,0,0,0-.25-.73c-.17.57-.33,1.29-.5,1.8a1.61,1.61,0,0,1-.75,1.08,3.68,3.68,0,0,0-.78,2,30,30,0,0,0-2,3.36c-.33.63-.67,1.26-1,1.89l-.53.91-.27.43-.13.21c0,.06-.09.16-.13.06-.23-.52-.46-1.06-.68-1.63a10.18,10.18,0,0,1-.51,1.36c.06-1-.48-.88-.17-1.8,0,.37.18.38.29.56-.05-1.09-.24-1.4-.52-1.7a2.26,2.26,0,0,1-.76-1.12c-.08.24-.58,1.29-.86,1.13a.78.78,0,0,0,.09-1.07.87.87,0,0,1,.17-1.2c-.13-.87-.93.51-1.18-.27-.65.31.06.75-.19,1.4-.32,0-.49-.37-.5-.46s-.07-.24-.39,0a6.22,6.22,0,0,0,.92,1.46,22.26,22.26,0,0,0,1.48,1.7c1,1.06,1.9,1.7,2.52,2.42-.07.36-.13.71-.21,1a1.86,1.86,0,0,1,.49.43l.06-.07.07-.15.13-.28c.08-.18.17-.35.26-.51a3.88,3.88,0,0,1,.54-.79,1.22,1.22,0,0,1,1.22-.49c-.2-.29.12-.7.41-1.25a1.51,1.51,0,0,0,0-1.8c.37,0,.39-.14.74-.49l-.26-.49c.34-.58.84,0,1.25-.84-.81.16-.63-.53-1-.89.94-.24,1.85-.61,2.64-.85a1.72,1.72,0,0,0-.76-.08c.39-.24-.17-.48-.3-.67.16-.35.85.08,1.19.29a.58.58,0,0,0-.07-.86c-.19-.25-.31-.56,0-.5a5,5,0,0,0-.54-.35.72.72,0,0,1,.5-.49c.2-.08.36-.11.44-.45.47,1,.16,1.22.34,1.67a1.08,1.08,0,0,1,.35.46,6.9,6.9,0,0,1-.31-2.39,3.72,3.72,0,0,0,.27,1.28C305.35,111.46,305.4,111.39,305.42,111.42Z"/><path class="cls-17" d="M305.32,112.44c.06.16.12.3.17.41,0-.06-.06-.13,0-.09Z"/><path class="cls-17" d="M305.42,111.42l0,.17C305.44,111.47,305.44,111.44,305.42,111.42Z"/><path class="cls-17" d="M302.87,111.27l.09-.06s.05-.06.09-.09Z"/><path class="cls-17" d="M305.12,113.22a4.93,4.93,0,0,0-.9.2A.76.76,0,0,0,305.12,113.22Z"/><path class="cls-17" d="M301.29,118.54c-.07.36.11.43.12.83C301.72,118.88,301.68,118.52,301.29,118.54Z"/><path class="cls-17" d="M305.44,112.57a1.83,1.83,0,0,1,0-.35l0-.29A3.14,3.14,0,0,0,305.44,112.57Z"/><path class="cls-17" d="M309.26,108.29a4.85,4.85,0,0,0,.62-1.89A7.09,7.09,0,0,1,310,105c-.12-.23-.39.15-.71.7s-.57,1-.83,1.5-.41.68-.42.49l1.77-3.45a11.41,11.41,0,0,1-.14-1.35s0-.13,0-.11l-.27.21a5.12,5.12,0,0,0-.55.51l-.26.31a6.13,6.13,0,0,0-.33.55c-.21.41-.43.88-.65,1.39.05-.23.08-.48.14-.76a3.14,3.14,0,0,1,.13-.45,2.2,2.2,0,0,1,.22-.46,2.65,2.65,0,0,0-.56,1.13c-.2.58-.4,1.28-.59,1.92-.38,1.31-.64,2.36-.69,1.89a9.26,9.26,0,0,0,.54-2.38c0-.24,0-.46,0-.76a6.15,6.15,0,0,1,.18-1.1l.15-.26a6.68,6.68,0,0,0-.84,1.24,5.2,5.2,0,0,1-.59,1.09,6.52,6.52,0,0,1-.14,2.2,8.68,8.68,0,0,1,0,1.77c.17-1.06.22-.59.48-1.89,0,1.07-.12.44-.18,1.52.09-.41.2-.83.32-1.27,0,.2-.31,1.34-.23,1.48.14-.74.46-1.7.59-1.66l-.16.5a7.63,7.63,0,0,0,.87-2.36c-.17.72-.36,1.47-.57,2.24l.5-1.61a5.94,5.94,0,0,1-.42,2.08c-.34,1-.56,1.43-.15.64a13.07,13.07,0,0,1,.7-1.49c.49-1.3-.49.87-.57,1,.35-.84.73-1.68,1.06-2.42a21.44,21.44,0,0,0,.88-2.1,13,13,0,0,0-.54,1.7,22.94,22.94,0,0,1-1.15,2.69c-.05.18,0,.1.11,0s.39-.45.13.2l-.23.38c.52-.84.39-.55.27-.27s-.24.52.28,0l.25-.58c.42-.61.42-.48.48-.36a4.26,4.26,0,0,0-.36.52c.74-1,.81-.27,1-.38.14-.52-.44-.25-.62-.3.22-.21.47-.52.68-.74S309.34,108,309.26,108.29Z"/><path class="cls-17" d="M306.09,110.46l.28-.92A8,8,0,0,0,306.09,110.46Z"/><path class="cls-17" d="M307.86,112.32c-.16.34-.61.09-.93.37a1.07,1.07,0,0,0,.79-.15c.28-.13.6-.36,1-.21-.22.18-.14.33,0,.5s.33.34.34.43a2.7,2.7,0,0,0-1.56,0c.27.18-.2.6-.22.93.57-.8.37.64,1-.08.56,0,1,.75.57,1.06-.4,0-.33-.25-.35-.44-.77-.14-.4.5-1.09.64.55.35.83,1.12,1.2,1.69s.81.82,1.63.34c.31-.24-.11-.24-.19-.49a.49.49,0,0,1-.61.3c-.22-.06-.45-.26-.61-.28.25-.34-.32-.87.3-.77l.67.47a15.53,15.53,0,0,0,.08-2.77c0-.86-.13-2.4-.21-3.46l-.07,1c-.47,0-.48-.35-.71-.53a9.56,9.56,0,0,1-1.14,1c.09-.2-.08-.25.33-.49a2.89,2.89,0,0,0-1.17.72c-.19-.08.26-.54-.49,0-.47.56-.28.36-.07.3s.43-.08,0,.24A8.31,8.31,0,0,1,307.86,112.32Z"/><path class="cls-17" d="M307.27,111.31q.28-.19.57-.36a1.34,1.34,0,0,0-.28,0Z"/><path class="cls-17" d="M309.82,109.45c-.27.23-.37.14-.64.38C309,110.47,309.34,110.19,309.82,109.45Z"/><path class="cls-17" d="M307.35,116l.23.61.2-.42A.47.47,0,0,1,307.35,116Z"/><path class="cls-17" d="M310.53,118.82c-.08-.19-.25-.24-.34-.4s-.11-.43.15-.83a1.85,1.85,0,0,0-1,.3c-.33.19-.63.47-1,.47-.11.67,1.09,0,1.36.26-.3.28-.24.44-.14.55s.28.17.23.43A4.7,4.7,0,0,1,310.53,118.82Z"/><path class="cls-17" d="M309.79,123.11c.48-.26,1.1-1.18,1.34-1-.16.55-.51.92-.77.94-.1.58.08.44.29.24s.46-.48.69-.25a.4.4,0,0,1,0-.52,2,2,0,0,0,1.07-.84c.23-.3.43-.51,1.31-.66.14-.35.37-.45.06-1,1,.38.67.52,1.77.77a11.94,11.94,0,0,1-1.09-1.62c1.63.45,1.18-.68,2.26-.25-.07.07-.1.29-.35.28.49.94.59-.45,1.06-.4l.27.86a3,3,0,0,1,.38-.51c.18-.15.42-.22.52.1l-.12.53a2.16,2.16,0,0,1,1-.86,6.46,6.46,0,0,0,1.14-.58,4.94,4.94,0,0,1-.37.72c.76-.58.75-.67.7-.84s-.14-.41,1-1.48c-.86,1.16-.62.94-.09.51s1.4-1.09,1.26-.68c-.75.94-1.12.68-1.92,1.74,1.35-1.31.63-.43,1.3-.88-1.4,1.27.36.05-1.43,1.52a47.09,47.09,0,0,1,4-2.64c-.83.73-.39.56.16.31-.15,0,0-.1.23-.29L326,116l.57-.38c.71-.49,1.53-1,1.36-1.19-1.11.4-2.28.8-3.3,1.09A9,9,0,0,1,322,116c-.55.7-.78.76-1,.81s-.49,0-.86.64c.17-.43.2-.74.33-1.15-.64.32-.61.47-.52.62s.23.29,0,.58c-.43.29-.54-.36-.4-.82-.8.19-.18.37-.67,1.16a4.6,4.6,0,0,0-.36-1.16l-1,.53c-.34.19-.71.4-1,.55l-1.66,1a8.86,8.86,0,0,1-3.17,1.35c0,.29,0,.56,0,.85-.39,0-.79.53-1.32,1.11s-1.12,1.2-1.35,1.07a.51.51,0,0,1,0-.13V123l0-.16c.06-.23.14-.48.24-.77a4.68,4.68,0,0,1-.59.52c.33-.3.93-1.7,1.42-2.18-.25.12,0-.5-.27-.47-.09.29-.18.59-.26.92-.62.44-.32-.56.18-1.2-.39,0-.69.38-.93,1s-.44,1.38-.7,1.89c.44,0,.5.21.42.69s-.33,1.22-.43,1.74.27.55,1.05-.16.68-.85.64-1S309.64,123.43,309.79,123.11Z"/><path class="cls-17" d="M310.31,120.19a1.37,1.37,0,0,0-.19.17A.53.53,0,0,0,310.31,120.19Z"/><path class="cls-17" d="M325.24,116.68s.12-.05.09,0a.2.2,0,0,0,0,.07c.22-.13.26-.16.24-.17h-.07s0,0-.08,0Z"/><path class="cls-17" d="M309.78,119.6h0Z"/><path class="cls-17" d="M308,120.67l0,.45.31-.38Z"/><path class="cls-17" d="M321.85,119.73l.78-.38C322.4,119.45,322.15,119.57,321.85,119.73Z"/><path class="cls-17" d="M318,124.46l.13-.14A.15.15,0,0,0,318,124.46Z"/><path class="cls-17" d="M303.76,131.42a3.43,3.43,0,0,0-2.09.46l.17-.37c-.36.08-1.52.38-1.12,1.26l.25-.28c.89-.33.3.8.74,1.22.7,0,1.6-1.23,2.05-.67.27.05.09.41-.09.67.53.31,1.17-.67,1.62-.65-1,2.85,2.09,0,2.16,2.11a3.22,3.22,0,0,1,.95.26,2.59,2.59,0,0,0,1.3.14c-.61.54.75.42.48,1.2.23-.87.75-.38,1.45-.3s1.27-.38.75-1.44c.48-.12.49-.19.47-.25s0-.14.54-.47c.18.17,0,.36,0,.47.33-.06.3-.42.28-.67s0-.43.51-.28c.69-.65-.39-.49-.53-1.29.79-.62.86-.22,1.92-.1-.8-.7,0-.86-.2-1.57-.11.07-.67.47-.73-.11.81-.81,0-1.14.38-2.16,1.25.27-.6.87.69.68,0,.85-.31,1.23.16,2a5.82,5.82,0,0,0,1.28-2.74c.45-.34.27.55.62.28,1-.47-.06-1.91.81-2.22l.39.49c-.36-.86,1.16-1.27,1.34-2.25-.31-.09-.52-.15-.61-.37,1.21.92.13-1.48,1.5-1.53a2,2,0,0,1-.84-.74c-.16-.24-.23-.42-.2-.53a5,5,0,0,1,1.11,0c-.53.23-.31.38,0,.64s.68.6.61,1a2.11,2.11,0,0,1,.5-1.1c.24-.35.45-.71.17-.92a7.16,7.16,0,0,1,.8.19c.38-.42,0-.57-.41-.66s-.68-.13.09-.56l.78-.12c.52-.75,1.48-1.69,2.21-2.58s1.19-1.68.38-1.45c-.47.27-1.52,1-2.45,1.66s-1.82,1.23-2.22,1.48a9.09,9.09,0,0,1,2.59-.83l-1.69.83c1.12-.52,1.37-.24,2.41-.91.45.13-1.56.86-1.05,1-1.5.5-1.52.37-2.87.91a3.4,3.4,0,0,1,.61-.06c-.55.14-.62.31-1.15.43.77-.12.45.14.1.31s-.77.3-.59.46l.36-.21c.67-.06.49.1.57.23a6.83,6.83,0,0,0-1.35.27c.34.22,1.09.71.79,1.1-.39-.27-.54-.29-.81-.11s-.51.34-.86.14c.68.67-.41,1.11,0,1.51a.46.46,0,0,1-.78.34s0-.18,0-.29l-.21.23c-.07-.09-.15-.13-.14-.17-.18.21.37.63-.22.63-.2-.15-.08-.31-.07-.49-.57.5.39,1.9-.68,1.88.29.36-.19,1.07.73,1.53-.42,0-1-.58-1.27,0,.46.79-.67.37-.52,1.07-.34-1-.19-.15-.55-1.1-.54.13,0,1.32-.57,1.82-.2-.06-.4-.22-.61-.27.08.4.45,1.07-.28.86l.5.33c-.55.22-.81.89-1.67.93l.55,1.19c-.8.06-.93.17-1,.64,0,.23,0,.54,0,.91a5.3,5.3,0,0,1-.07,1.14.68.68,0,0,1-.87-.43,5.08,5.08,0,0,0,.2-.47c-.19,0-.41-.26-.56-.36s-.27-.08-.42.37c-.43.12-.16-.8-.32-1.06-.45.53-1.09,0-1.57-.43s-1-.68-1.52.21c.36.16.87.83,1.57,1-.28.15-.3.58-.57.51-.7-.21-.75-1.06-1.56-1l.59-1.17C306.24,131,304,133.52,303.76,131.42Z"/><path class="cls-17" d="M311.76,134.24a2.45,2.45,0,0,1-.54-.53l.23.63C311.52,134.19,311.6,134.12,311.76,134.24Z"/><path class="cls-17" d="M311.45,134.34a2.06,2.06,0,0,0-.15.36c.1,0,.18,0,.21-.2Z"/><path class="cls-17" d="M301.64,130.91a.62.62,0,0,0-.56-.2C301.18,130.91,301.46,131.06,301.64,130.91Z"/><polygon class="cls-17" points="300.92 131.08 301.11 131.36 301.2 131.23 300.92 131.08"/><path class="cls-17" d="M288.93,123.86l-.78-.89c.4-.14,0-1.14.64-.8-.94-.55,0-1.65-1.35-1.28a35.23,35.23,0,0,1,.06,4.41v.64l.05.94a4.7,4.7,0,0,0,.36,1.8,2.85,2.85,0,0,0,1.15,1.3,3.35,3.35,0,0,0,1.67.4,4.91,4.91,0,0,1-.95.25,6.46,6.46,0,0,1,1.61.15,3.74,3.74,0,0,1,.59.21,3.61,3.61,0,0,1,.36.2c.43.26.84.38,1.66-.54l-.4,1c.58.45,1.64-1.26,2.05.05l0-.45c.19,0,.21.26.39.31l0-.21a.88.88,0,0,1,1.28.25c-.06.35-.26.08-.44.13.13.41.7-.21,1.07-.1.2.38-.15.49-.23.62,1.25-.15,1.39,1.11,2.67-.21.17-.26-.12-.62.33-.63-.57-.73-1.38-.29-2.17-.07l.19.06c-1,1.38-.31-.46-1.35,0,.4-.57.77-.45,1-.74-.68-1.47-1.67.5-1.94-1.19l.09,0c-.11-.19-.46,0-.72.12,0,.22.23.37.34.56-.27.09-.56.74-.7,1-.09-.75-.42.25-.74-.19,0-.67.48-.5.71-.8l-.59.31c-.46-.06-.29-.8-.43-1.19-.5.39.14.39-.32,1-.15-.45-.77-.73-1.48-.84a19.58,19.58,0,0,0-2.43,0c.44.09.56-.5.93-.29-.07-.15-.81-.06-1.16.28a1.18,1.18,0,0,1-1-1,2.39,2.39,0,0,1,.27-1.51l-.49.37c-.44-.23-.29-.79-.1-1.31s.45-.88.21-1.38v0c-.11-.32-1.34-.61-1.07-1.19C288.38,123.57,288.32,123.88,288.93,123.86Z"/><path class="cls-17" d="M287.87,120.35l.69.35c.17-.34-.71-.83-1.17-.77.14.25-.18.55.22.61C287.71,120.5,288,120.52,287.87,120.35Z"/><path class="cls-17" d="M288.25,113.71c-.15-.15-.42-.14-.61-.21-.06,1.42.08,3.17-.5,3.7-.24.46.81.62,1,1.23l-.72.22c.43.35-.39,1.3.79,1,.1,0-.54-.31-.32-.57l.4.06-.1-.64.48.23c.77-.81-1.46-.7-.92-1.73l1,.08c.1-.7-.21-1.09.46-1.65,0,0-.51,0-.32.09a.85.85,0,0,1-.77.12c-.69-1.14.58.22,1.06-.49-.61-1-1-2.78-.13-3.18a.78.78,0,0,1-1.1-.86c.38-.19.57.23.86.35.14-.22.41-.38.29-.64a1.25,1.25,0,0,1-1.58-.66C286.76,111.32,288.49,112.51,288.25,113.71Z"/><path class="cls-17" d="M287.44,113.26a.31.31,0,0,0,.2.24c0-.17,0-.34,0-.49Z"/><path class="cls-18" d="M430.09,113.08V123.2l-1-.34c-1.84-.61-3.67-1.23-5.51-1.83a.33.33,0,0,1-.27-.37c0-3.1,0-6.21,0-9.31v-.29Z"/><path class="cls-18" d="M473.12,108.78l-6.82-2.27V96.64l1.69.49,4.88,1.45c.16,0,.27.09.27.31,0,3.23,0,6.45,0,9.68Z"/><path class="cls-18" d="M431.89,125.49l6.8,2v10.12l-2-.68-4.54-1.51c-.17-.05-.25-.11-.25-.31q0-4.69,0-9.39C431.87,125.67,431.88,125.6,431.89,125.49Z"/><path class="cls-18" d="M440.48,137.62v-.3c0-3.16,0-6.33,0-9.49,0-.24.06-.34.3-.4l6.25-1.85c.08,0,.17,0,.29-.07v.28c0,3.11,0,6.21,0,9.31,0,.15,0,.26-.18.32l-6.47,2.16Z"/><path class="cls-18" d="M431.88,123.19v-10.1l6.82-2v.28c0,3.1,0,6.21,0,9.31a.32.32,0,0,1-.25.36l-6.31,2.11Z"/><path class="cls-18" d="M474.9,108.79v-.32q0-4.77,0-9.52c0-.22.06-.31.27-.37l6.33-1.87.22-.06v9.85Z"/><path class="cls-18" d="M447.28,123.2l-1.66-.55L440.69,121a.27.27,0,0,1-.22-.3q0-4.71,0-9.42c0-.06,0-.12,0-.22l1.39.41,5.21,1.54c.15,0,.22.09.22.26,0,3.26,0,6.51,0,9.77C447.3,123.08,447.29,123.12,447.28,123.2Z"/><path class="cls-18" d="M455.91,108.78l-2.29-.76-4.3-1.43c-.17-.06-.24-.12-.24-.31,0-3.13,0-6.27,0-9.4,0-.07,0-.14,0-.24l1.75.52,4.77,1.4c.22.07.31.16.31.4q0,4.74,0,9.48Z"/><path class="cls-18" d="M457.69,108.77v-.32c0-3.16,0-6.33,0-9.5a.32.32,0,0,1,.28-.38l6.26-1.85.3-.08v.29l0,9.29a.33.33,0,0,1-.26.38L458,108.69Z"/><path class="cls-18" d="M455.92,111.08v.31q0,4.64,0,9.26a.34.34,0,0,1-.27.38l-6.24,2.08-.29.08c0-.11,0-.2,0-.3,0-3.17,0-6.35,0-9.52a.32.32,0,0,1,.28-.37l6.31-1.86Z"/><path class="cls-18" d="M437.26,110l-3.29.88c-.89.23-1.79.46-2.68.71a1.27,1.27,0,0,1-.67,0L424.85,110l-.13,0,.25-.1,5.78-1.81a.6.6,0,0,1,.35,0q3,.92,6,1.86S437.18,110,437.26,110Z"/><path class="cls-18" d="M454.41,110l-3.86,1c-.72.19-1.44.39-2.16.57a.66.66,0,0,1-.34,0L441.91,110l.32-.12,5.71-1.78a.65.65,0,0,1,.39,0l5.95,1.84.14,0Z"/><path class="cls-18" d="M445.87,124.43l-2.76.74-3.4.89a.39.39,0,0,1-.26,0l-6.15-1.64.28-.1,5.78-1.81a.63.63,0,0,1,.36,0l6,1.84Z"/><path class="cls-18" d="M467.74,95.55l3.24-1,2.79-.88a.63.63,0,0,1,.33,0l6.08,1.88.07,0a.52.52,0,0,1-.12.07l-6,1.59a.74.74,0,0,1-.33,0L468,95.63Z"/><path class="cls-18" d="M463.1,95.57l-2.14.58-4,1a.86.86,0,0,1-.39,0l-5.89-1.57-.19-.07,1.25-.4,4.78-1.49a.53.53,0,0,1,.35,0c2,.61,4,1.24,6.06,1.86Z"/><path class="cls-19" d="M425.76,114.65v10.13l-1.05-.35-5.5-1.83a.32.32,0,0,1-.27-.37c0-3.1,0-6.2,0-9.31v-.29Z"/><path class="cls-19" d="M468.8,110.36,462,108.08V98.21l1.69.5,4.87,1.44c.17,0,.27.09.27.31q0,4.85,0,9.68Z"/><path class="cls-19" d="M427.56,127.07l6.81,2v10.13l-2-.68L427.78,137c-.16,0-.24-.11-.24-.31,0-3.13,0-6.26,0-9.39A2.18,2.18,0,0,1,427.56,127.07Z"/><path class="cls-19" d="M436.15,139.2v-9.8c0-.24.06-.33.29-.4l6.26-1.85.28-.07v.29c0,3.1,0,6.2,0,9.31,0,.15,0,.25-.19.32-2.16.71-4.31,1.44-6.46,2.16Z"/><path class="cls-19" d="M427.56,124.76v-10.1l6.82-2v.28q0,4.67,0,9.31a.31.31,0,0,1-.25.36l-6.32,2.11Z"/><path class="cls-19" d="M470.57,110.36V110c0-3.17,0-6.35,0-9.52,0-.21.05-.31.26-.37l6.34-1.87.22-.06v9.85Z"/><path class="cls-19" d="M443,124.77l-1.67-.55-4.92-1.64a.26.26,0,0,1-.22-.3v-9.42c0-.06,0-.12,0-.22l1.39.41,5.21,1.54c.14,0,.22.09.22.26,0,3.26,0,6.51,0,9.77A1.06,1.06,0,0,1,443,124.77Z"/><path class="cls-19" d="M451.59,110.35l-2.3-.76L445,108.16c-.17-.06-.24-.12-.24-.31,0-3.13,0-6.26,0-9.39,0-.07,0-.14,0-.25l1.74.52,4.78,1.41c.22.06.31.15.3.39q0,4.74,0,9.48Z"/><path class="cls-19" d="M453.37,110.34V110q0-4.75,0-9.5a.33.33,0,0,1,.29-.39c2.08-.6,4.17-1.23,6.26-1.84l.29-.09v.3c0,3.09,0,6.19,0,9.28a.33.33,0,0,1-.27.38c-2.09.69-4.17,1.4-6.26,2.1Z"/><path class="cls-19" d="M451.6,112.65V113c0,3.08,0,6.17,0,9.26a.32.32,0,0,1-.27.37l-6.23,2.09-.29.08c0-.12,0-.21,0-.3,0-3.18,0-6.35,0-9.53a.31.31,0,0,1,.27-.36l6.31-1.87Z"/><path class="cls-19" d="M432.93,111.58l-3.29.88c-.89.24-1.78.46-2.67.71a1.21,1.21,0,0,1-.68,0l-5.76-1.54-.14-.05.26-.1,5.77-1.8a.63.63,0,0,1,.36,0c2,.61,4,1.24,6,1.86Z"/><path class="cls-19" d="M450.09,111.6l-3.86,1c-.72.19-1.44.39-2.17.57a.74.74,0,0,1-.33,0l-6.15-1.65c.15,0,.23-.09.32-.11l5.72-1.79a.71.71,0,0,1,.38,0l5.95,1.84.14.05Z"/><path class="cls-19" d="M441.55,126l-2.77.73-3.4.9a.53.53,0,0,1-.25,0L429,126l.29-.1,5.77-1.81a.73.73,0,0,1,.36,0l6,1.84Z"/><path class="cls-19" d="M463.41,97.13l3.24-1,2.8-.87a.53.53,0,0,1,.33,0l6.08,1.87.07,0c-.05,0-.09.06-.13.07l-6,1.58a.65.65,0,0,1-.34,0l-5.86-1.58Z"/><path class="cls-19" d="M458.78,97.14l-2.15.58-4,1a.62.62,0,0,1-.38,0l-5.9-1.57-.18-.07,1.24-.4,4.78-1.49a.73.73,0,0,1,.36,0l6.06,1.87Z"/><path class="cls-18" d="M228.42,35.53c.57.09,1.09.17,1.61.27a37.9,37.9,0,0,1,10.43,3.63,29.39,29.39,0,0,1,8.38,6.39,8.32,8.32,0,0,1,1.1,1.69,16.49,16.49,0,0,1,1.88,6,22.8,22.8,0,0,1-.54,8.19.7.7,0,0,0,.16.67,6.35,6.35,0,0,0,2.4,1.7,13.5,13.5,0,0,0,2.55.81l.15,0-.46,2.2c-.69-.19-1.36-.36-2-.57a10.06,10.06,0,0,1-3.45-1.83,6.28,6.28,0,0,1-1.21-1.31.38.38,0,0,0-.23-.13,23.09,23.09,0,0,1-8.47-2.16,14.39,14.39,0,0,1-5.33-4.2,13.29,13.29,0,0,1-2.16-4.48c-.86-3.09-1.58-6.22-2.29-9.35a35.7,35.7,0,0,0-1.68-5.72c-.22-.54-.48-1.07-.72-1.61Zm19.21,24c-.21-.62-.39-1.21-.59-1.78a43.41,43.41,0,0,0-4.19-9,26.8,26.8,0,0,0-5.22-6.25,15.73,15.73,0,0,0-4.11-2.63c-.16-.07-.33-.12-.5-.18l0,0,.69.79c.23.26.48.51.71.78a28.44,28.44,0,0,1,5.06,9,21.25,21.25,0,0,0,1.82,4.18,11.91,11.91,0,0,0,4.44,4.39A9.47,9.47,0,0,0,247.63,59.51Z"/><path class="cls-18" d="M254.46,59.59A21,21,0,0,0,250,42.3s0,0,0,0a63.64,63.64,0,0,1,6.82-3.39A23,23,0,0,1,261,37.6a20.63,20.63,0,0,1,4-.32,29.91,29.91,0,0,0,4-.22l.59-.08s0,.05,0,.06A15.69,15.69,0,0,0,267,40.77a41.18,41.18,0,0,0-3,7.64c-.18.65-.29,1.32-.48,2a13.29,13.29,0,0,1-5.19,7.1,18.31,18.31,0,0,1-3.87,2.09Z"/><path class="cls-18" d="M268.25,70.37l-.61-2.23.08,0a11.22,11.22,0,0,0,4.95-5.15,18.94,18.94,0,0,0,1.64-5.09,43,43,0,0,0,.56-9.75,34.82,34.82,0,0,0-.59-5.29,18.06,18.06,0,0,0-2-5.57,10.52,10.52,0,0,0-4.59-4.34l-.08,0,.62-2.24.39.14a16.84,16.84,0,0,1,5.5,3.18,15.21,15.21,0,0,1,4.06,5.94,23.77,23.77,0,0,1,1.32,5.25,40.29,40.29,0,0,1,.32,7,28.91,28.91,0,0,1-1.27,7.89,15.69,15.69,0,0,1-4,6.61A16.58,16.58,0,0,1,269,70.09l-.68.25Z"/><path class="cls-18" d="M229.16,30.63l.57,2.22a.18.18,0,0,1-.07,0,10.69,10.69,0,0,0-5,5A19,19,0,0,0,223.06,43a43.86,43.86,0,0,0-.56,9.78,34.43,34.43,0,0,0,.59,5.26,18,18,0,0,0,2.11,5.82,11,11,0,0,0,4.41,4.21s.11.11.1.15c-.18.71-.36,1.42-.56,2.16l-.66-.25a16.29,16.29,0,0,1-6-3.8,15.42,15.42,0,0,1-3.48-5.66,24,24,0,0,1-1.21-5.15,40.65,40.65,0,0,1-.24-7.4,27.8,27.8,0,0,1,1.26-7.28,15.8,15.8,0,0,1,3.24-5.74,15.58,15.58,0,0,1,5.66-4c.43-.18.87-.33,1.31-.5Z"/><path class="cls-19" d="M223.8,39.57c.57.1,1.09.17,1.61.27a38.17,38.17,0,0,1,10.42,3.63,29.29,29.29,0,0,1,8.39,6.39,9.08,9.08,0,0,1,1.1,1.69,16.48,16.48,0,0,1,1.88,6,22.83,22.83,0,0,1-.54,8.19.71.71,0,0,0,.16.67,6.46,6.46,0,0,0,2.4,1.7,13.25,13.25,0,0,0,2.55.8l.15,0-.47,2.21c-.68-.2-1.35-.36-2-.58A10.18,10.18,0,0,1,246,68.77a6.77,6.77,0,0,1-1.2-1.31.32.32,0,0,0-.23-.13,23.25,23.25,0,0,1-8.47-2.17,14.39,14.39,0,0,1-5.33-4.2,13,13,0,0,1-2.16-4.48c-.86-3.09-1.58-6.22-2.29-9.34a37.55,37.55,0,0,0-1.68-5.72c-.22-.55-.48-1.08-.72-1.61C223.88,39.75,223.85,39.69,223.8,39.57Zm19.21,24c-.21-.62-.39-1.2-.59-1.78a43.93,43.93,0,0,0-4.19-9A27,27,0,0,0,233,46.51a15.23,15.23,0,0,0-4.1-2.62l-.5-.18,0,0,.69.78c.23.26.48.51.71.78a28.35,28.35,0,0,1,5.05,9,21.81,21.81,0,0,0,1.83,4.17,11.84,11.84,0,0,0,4.44,4.39A9.47,9.47,0,0,0,243,63.55Z"/><path class="cls-19" d="M249.84,63.64a21,21,0,0,0-4.48-17.29s0,0,0,0a63.72,63.72,0,0,1,6.83-3.38,22,22,0,0,1,4.13-1.29,20.63,20.63,0,0,1,4-.32,28.35,28.35,0,0,0,4-.21L265,41s0,0,0,.06a15.67,15.67,0,0,0-2.53,3.72,42,42,0,0,0-2.94,7.65c-.19.64-.29,1.31-.49,2a13.26,13.26,0,0,1-5.18,7.1,18.73,18.73,0,0,1-3.87,2.08Z"/><path class="cls-19" d="M263.63,74.41,263,72.18l.08-.05a11.22,11.22,0,0,0,5-5.14,19.48,19.48,0,0,0,1.64-5.1,43.5,43.5,0,0,0,.56-9.74,33.73,33.73,0,0,0-.6-5.3,17.88,17.88,0,0,0-2-5.57A10.5,10.5,0,0,0,263.1,37L263,36.9l.62-2.23.4.13a17,17,0,0,1,5.5,3.18,15,15,0,0,1,4.05,6,23.14,23.14,0,0,1,1.32,5.24,39.49,39.49,0,0,1,.32,7A28.46,28.46,0,0,1,274,64.09a15.81,15.81,0,0,1-4,6.62,16.41,16.41,0,0,1-5.51,3.42l-.68.26Z"/><path class="cls-19" d="M224.53,34.67l.58,2.22L225,37a10.66,10.66,0,0,0-5,5A18.44,18.44,0,0,0,218.44,47a43.89,43.89,0,0,0-.56,9.78,34.29,34.29,0,0,0,.59,5.26,18.14,18.14,0,0,0,2.11,5.83,10.94,10.94,0,0,0,4.41,4.2s.11.11.1.16c-.18.71-.37,1.42-.56,2.15l-.67-.25a16.31,16.31,0,0,1-6-3.79,15.54,15.54,0,0,1-3.48-5.67,23.87,23.87,0,0,1-1.21-5.14,39.8,39.8,0,0,1-.24-7.4,27.25,27.25,0,0,1,1.26-7.28,16,16,0,0,1,3.23-5.75,15.55,15.55,0,0,1,5.67-3.94c.43-.18.87-.34,1.3-.51Z"/><path class="cls-18" d="M386.08,40.59c2.89,2.07,4.41,5.08,5.58,8.29a3,3,0,0,0,1.15,1.58A11.12,11.12,0,0,1,397.55,58a12.52,12.52,0,0,1-.87,7.95c-2.43,4.54-6.15,7.43-11.39,7.75-3.69.22-7.4,0-11.11,0a1.6,1.6,0,0,1-.66-1.17,22.22,22.22,0,0,1,.22-6.41c.3-1,1.16-.93,1.92-1,2.7-.07,5.4,0,8.1,0a5.19,5.19,0,0,0,2.58-.47A4.39,4.39,0,0,0,389,60.57a4.17,4.17,0,0,0-3-4.16,2.87,2.87,0,0,1-2.35-3.1,10,10,0,0,0-2.16-5.43c-.32-.47-.79-.84-.88-1.44a2.23,2.23,0,0,1,.81-2.08c.94-.89,1.85-1.83,2.75-2.77A3,3,0,0,1,386.08,40.59Z"/><path class="cls-18" d="M355.69,70.61A10.23,10.23,0,0,1,351.35,65a12.23,12.23,0,0,1,1.5-11.75,8,8,0,0,1,2.73-2.77A3.44,3.44,0,0,0,356.72,49c1.53-2.24,4-2.35,6.3-2.62a9.21,9.21,0,0,1,4.65.76A16,16,0,0,1,373,50c1.73,1.28,1.88,2.43.47,4-1.14,1.28-2.39,2.46-3.63,3.66a1.6,1.6,0,0,1-2.47.11,9.16,9.16,0,0,0-1.15-.81,4.32,4.32,0,0,0-5.68.47,4.44,4.44,0,0,0-.19,6c.44.56,1.11,1,1.12,1.82a4.38,4.38,0,0,1-1.59,2.61c-.79.82-1.68,1.55-2.43,2.42A1.25,1.25,0,0,1,355.69,70.61Z"/><path class="cls-18" d="M367.73,48c-1.1.49-1.67-.74-2.66-.82a15,15,0,0,0-7.5,1.45l-.85.38c.23-3.21,2.37-5.34,4.38-7.49a18.18,18.18,0,0,1,5.74-4.05c5.5-2.54,10.82-2,16,.86a9.87,9.87,0,0,1,3.24,2.26,35.4,35.4,0,0,1-4,4.25c-.38.41-.89.71-1,1.3-.46.66-1,.39-1.48.07a10.31,10.31,0,0,0-8.52-1.11A4.24,4.24,0,0,0,367.73,48Z"/><path class="cls-18" d="M355.69,70.61a43.12,43.12,0,0,0,5.44-5.37.92.92,0,0,1,.82-.36c3.45.5,6.92.11,10.37.28.69,0,1.49-.07,1.87.78v7.75a85.3,85.3,0,0,1-13.66-.34A7.14,7.14,0,0,1,355.69,70.61Z"/><path class="cls-20" d="M380.92,43.62c2.89,2.06,4.42,5.07,5.58,8.28a3.14,3.14,0,0,0,1.15,1.59A11,11,0,0,1,392.39,61a12.43,12.43,0,0,1-.87,7.94c-2.42,4.55-6.15,7.44-11.39,7.75-3.69.22-7.4,0-11.1,0a1.56,1.56,0,0,1-.67-1.16,22.28,22.28,0,0,1,.22-6.42c.3-1,1.16-.92,1.92-.94,2.7-.07,5.4,0,8.1,0a5.18,5.18,0,0,0,2.58-.48,4.35,4.35,0,0,0,2.65-4.08,4.18,4.18,0,0,0-3-4.17,2.85,2.85,0,0,1-2.34-3.1,10,10,0,0,0-2.16-5.43,3.6,3.6,0,0,1-.89-1.44,2.24,2.24,0,0,1,.81-2.08c.95-.89,1.85-1.83,2.75-2.77A3,3,0,0,1,380.92,43.62Z"/><path class="cls-21" d="M350.53,73.64A10.25,10.25,0,0,1,346.19,68a12.24,12.24,0,0,1,1.51-11.75,7.9,7.9,0,0,1,2.72-2.76A3.34,3.34,0,0,0,351.56,52c1.53-2.23,4-2.34,6.3-2.62a9.2,9.2,0,0,1,4.65.77A16,16,0,0,1,367.86,53c1.74,1.28,1.88,2.42.47,4-1.14,1.28-2.39,2.46-3.63,3.65a1.59,1.59,0,0,1-2.47.11,9.16,9.16,0,0,0-1.15-.81,4.33,4.33,0,0,0-5.68.47,4.44,4.44,0,0,0-.18,6c.43.56,1.1,1,1.11,1.81a4.43,4.43,0,0,1-1.59,2.62c-.78.82-1.68,1.54-2.43,2.41C351.86,73.76,351.27,74.14,350.53,73.64Z"/><path class="cls-22" d="M362.58,51c-1.11.48-1.67-.75-2.67-.83a15,15,0,0,0-7.5,1.46l-.85.37c.23-3.21,2.37-5.33,4.39-7.49a18.14,18.14,0,0,1,5.73-4c5.5-2.53,10.83-2,16,.87a9.93,9.93,0,0,1,3.23,2.26,36.18,36.18,0,0,1-4,4.25c-.38.41-.89.71-1,1.3-.46.66-1,.38-1.48.07a10.27,10.27,0,0,0-8.52-1.11A4.21,4.21,0,0,0,362.58,51Z"/><path class="cls-23" d="M350.53,73.64A44.67,44.67,0,0,0,356,68.26a.89.89,0,0,1,.82-.35c3.44.5,6.91.1,10.36.28.7,0,1.5-.08,1.87.78v7.74a84.25,84.25,0,0,1-13.67-.34A7.09,7.09,0,0,1,350.53,73.64Z"/></g></g></svg>