<svg xmlns="http://www.w3.org/2000/svg" viewBox="0 0 860 372.83"><defs><style>.cls-1{fill:#86fed4;opacity:0.5;}.cls-10,.cls-11,.cls-14,.cls-2,.cls-3,.cls-4,.cls-5,.cls-6,.cls-7,.cls-8,.cls-9{fill:none;stroke:#3f3a37;stroke-miterlimit:10;}.cls-10,.cls-11,.cls-2,.cls-3,.cls-4,.cls-5,.cls-6,.cls-7,.cls-8,.cls-9{stroke-width:2px;}.cls-3{stroke-dasharray:4.96 4.96;}.cls-4{stroke-dasharray:4.97 4.97;}.cls-5{stroke-dasharray:4.91 4.91;}.cls-6{stroke-dasharray:5.03 5.03;}.cls-7{stroke-dasharray:5.14 5.14;}.cls-8{stroke-dasharray:5.12 5.12;}.cls-9{stroke-dasharray:5 5;}.cls-10{stroke-dasharray:4.97 4.97;}.cls-11{stroke-dasharray:5.17 5.17;}.cls-12{fill:#fff;}.cls-13{fill:#575350;}.cls-14{stroke-width:3px;}.cls-15{fill:#3f3a37;}</style></defs><title>repayme</title><g id="Layer_2" data-name="Layer 2"><g id="otter_drawing"><rect class="cls-1" width="860" height="372.83"/><line class="cls-2" x1="74.71" y1="103.02" x2="77.21" y2="103.02"/><line class="cls-3" x1="82.17" y1="103.02" x2="446.72" y2="103.02"/><line class="cls-2" x1="449.2" y1="103.02" x2="451.7" y2="103.02"/><line class="cls-2" x1="415.04" y1="109.26" x2="415.04" y2="111.76"/><line class="cls-4" x1="415.04" y1="116.73" x2="415.04" y2="173.83"/><line class="cls-2" x1="415.04" y1="176.31" x2="415.04" y2="178.81"/><line class="cls-2" x1="630.62" y1="26.89" x2="630.62" y2="29.39"/><line class="cls-5" x1="630.62" y1="34.31" x2="630.62" y2="248.08"/><line class="cls-2" x1="630.62" y1="250.53" x2="630.62" y2="253.03"/><line class="cls-2" x1="170.87" y1="41.73" x2="170.87" y2="44.23"/><line class="cls-6" x1="170.87" y1="49.26" x2="170.87" y2="308.37"/><line class="cls-2" x1="170.87" y1="310.88" x2="170.87" y2="313.38"/><line class="cls-2" x1="373.34" y1="3.06" x2="373.34" y2="5.56"/><line class="cls-7" x1="373.34" y1="10.7" x2="373.34" y2="80.09"/><line class="cls-2" x1="373.34" y1="82.66" x2="373.34" y2="85.16"/><line class="cls-2" x1="425.75" y1="300.99" x2="425.75" y2="303.49"/><line class="cls-8" x1="425.75" y1="308.62" x2="425.75" y2="367.54"/><line class="cls-2" x1="425.75" y1="370.1" x2="425.75" y2="372.6"/><line class="cls-2" x1="788.01" y1="282.52" x2="785.51" y2="282.52"/><line class="cls-9" x1="780.52" y1="282.52" x2="453.18" y2="282.52"/><line class="cls-2" x1="450.68" y1="282.52" x2="448.18" y2="282.52"/><line class="cls-2" x1="854.93" y1="81.75" x2="852.43" y2="81.75"/><line class="cls-10" x1="847.46" y1="81.75" x2="641.05" y2="81.75"/><line class="cls-2" x1="638.56" y1="81.75" x2="636.06" y2="81.75"/><line class="cls-2" x1="137.99" y1="343.58" x2="135.49" y2="343.58"/><line class="cls-11" x1="130.32" y1="343.58" x2="8.86" y2="343.58"/><line class="cls-2" x1="6.27" y1="343.58" x2="3.77" y2="343.58"/><path class="cls-12" d="M341.38,276.12c-5.41,0-10.82,0-16.23,0a6.45,6.45,0,0,1-5.39-2.62c-2.83-3.55-5.71-7.05-8.58-10.58L302.3,252c-.92-1.14-1.83-2.31-2.78-3.43a5.84,5.84,0,0,1-1.29-5.47q3.19-13.6,6.34-27.22c.36-1.52.69-3,1.07-4.55a5.45,5.45,0,0,1,3.08-3.75q7.36-3.51,14.76-7,7.61-3.6,15.21-7.2a6.12,6.12,0,0,1,5.53,0q13.23,6.28,26.47,12.52c1,.46,1.94,1,2.94,1.37a6.29,6.29,0,0,1,3.82,4.78c1.55,6.87,3.17,13.72,4.77,20.57.82,3.52,1.62,7,2.46,10.53a6.22,6.22,0,0,1-1.55,5.73c-3,3.64-6,7.35-9,11l-9.32,11.46-2,2.5a5.76,5.76,0,0,1-4.63,2.22C352.57,276.13,347,276.12,341.38,276.12Z"/><path class="cls-12" d="M340.07,210.45a30.24,30.24,0,0,0-.43-3.88,2.63,2.63,0,0,1,.49-2.34,1.75,1.75,0,0,1,3,.53,4,4,0,0,1,.06,2.35,19,19,0,0,0-.33,3.69,1,1,0,0,0,.18.69,1.83,1.83,0,0,1,.49,1.06c0,.22.26.22.44.24a23.56,23.56,0,0,1,11.65,4.6,25.47,25.47,0,0,1,2.55,2.2c.23.22.41.28.67.06a.62.62,0,0,1,.49-.23,2.19,2.19,0,0,0,1.85-.85,28.26,28.26,0,0,0,2.11-2.13,4,4,0,0,1,1.69-1.25,1.83,1.83,0,0,1,2.14.68,1.91,1.91,0,0,1-.23,2.22,6.35,6.35,0,0,1-1.71,1.24,20.06,20.06,0,0,0-2.87,1.85,1.28,1.28,0,0,0-.62,1c0,.27-.2.41-.37.56a.38.38,0,0,0-.08.61,22.88,22.88,0,0,1,3.37,8.43,23.34,23.34,0,0,1,.22,6.93c0,.29.05.43.32.48a.55.55,0,0,1,.37.18c.57.9,1.54.87,2.42,1,1.17.22,2.37.14,3.54.38a2.35,2.35,0,0,1,1.27.6,1.71,1.71,0,0,1,.51,1.88,2,2,0,0,1-1.69,1.18,4.6,4.6,0,0,1-1.93-.42,22.24,22.24,0,0,0-3.51-1.17,1.58,1.58,0,0,0-1.29.14.5.5,0,0,1-.44.08c-.44-.12-.59.1-.71.47a23.08,23.08,0,0,1-6.45,9.65,19.66,19.66,0,0,1-3.29,2.45c-.33.2-.5.39-.3.77a.51.51,0,0,1,.05.4,1.88,1.88,0,0,0,.25,1.58,25.84,25.84,0,0,0,1.83,2.91,4.26,4.26,0,0,1,.8,1.59,1.83,1.83,0,0,1-1.07,2.19,2,2,0,0,1-2.28-.86,7.49,7.49,0,0,1-.73-1.78,19.48,19.48,0,0,0-1.2-3.22,1.43,1.43,0,0,0-.86-.79.57.57,0,0,1-.4-.35c-.13-.36-.35-.36-.68-.24a22,22,0,0,1-6.1,1.27,23.61,23.61,0,0,1-9.4-1.22l-.35-.13c-.24-.1-.42-.07-.52.19a.92.92,0,0,1-.64.54,1.21,1.21,0,0,0-.62.6,19.11,19.11,0,0,0-1.3,3.42,4.76,4.76,0,0,1-1,2.05,1.84,1.84,0,0,1-2.27.43,1.88,1.88,0,0,1-.76-2.26,5.65,5.65,0,0,1,.82-1.53,19.76,19.76,0,0,0,1.92-3.13,1.3,1.3,0,0,0,.12-1.1.72.72,0,0,1,.05-.67c.2-.34,0-.5-.25-.68a23.43,23.43,0,0,1-4.66-3.76,22.73,22.73,0,0,1-5.1-8.21c-.15-.42-.29-.71-.81-.52a.37.37,0,0,1-.35-.07,1.87,1.87,0,0,0-1.6-.12,26.78,26.78,0,0,0-3.2,1.09,4.21,4.21,0,0,1-2.15.42,1.79,1.79,0,0,1-1.58-1.34,1.76,1.76,0,0,1,.75-1.84,3.83,3.83,0,0,1,2.11-.59,23.84,23.84,0,0,0,3.76-.46,1.48,1.48,0,0,0,1-.63.89.89,0,0,1,.6-.38c.26-.06.32-.2.29-.47a22.84,22.84,0,0,1,3.45-15.29c.21-.32.3-.55-.09-.78a.45.45,0,0,1-.23-.38,1.88,1.88,0,0,0-1-1.34,25.58,25.58,0,0,0-2.82-1.76,4.28,4.28,0,0,1-1.6-1.29,1.83,1.83,0,0,1,.07-2.22,1.89,1.89,0,0,1,2.17-.41,5.92,5.92,0,0,1,1.88,1.6,16.66,16.66,0,0,0,2.46,2.29,1.24,1.24,0,0,0,1,.29c.27-.06.44.1.62.23a.34.34,0,0,0,.52,0A23.05,23.05,0,0,1,338,212.88a5.17,5.17,0,0,1,.55-.07c.47,0,.91-.06.89-.7a.32.32,0,0,1,.08-.21A1.74,1.74,0,0,0,340.07,210.45Z"/><path class="cls-12" d="M347.85,242.17a1.55,1.55,0,0,1,1.77-1.51c2.59.41,5.18.85,7.77,1.27a11.62,11.62,0,0,0,1.18.2c.49,0,.45.24.31.59a19.32,19.32,0,0,1-2.51,4.42,18.84,18.84,0,0,1-4.39,4.11c-.28.19-.41.22-.56-.15-1.08-2.63-2.19-5.25-3.29-7.88A2.78,2.78,0,0,1,347.85,242.17Z"/><path class="cls-12" d="M339.12,218.12c-.15,2.43-.3,4.82-.45,7.22a10.54,10.54,0,0,1-.11,1.68,1.54,1.54,0,0,1-2.39,1.1c-.87-.52-1.68-1.14-2.51-1.73-1.63-1.13-3.25-2.28-4.89-3.41-.32-.22-.41-.35-.06-.66a18.66,18.66,0,0,1,10-4.71C339.25,217.52,339.09,217.9,339.12,218.12Z"/><path class="cls-12" d="M322.73,235.85a18.9,18.9,0,0,1,2.5-9.24c.17-.29.29-.33.55-.1,1.67,1.49,3.35,3,5,4.44a14.42,14.42,0,0,1,1.86,1.72,1.5,1.5,0,0,1-.68,2.48c-1,.35-2,.6-3,.89l-5.6,1.61c-.5.14-.53.12-.55-.39S322.75,236.23,322.73,235.85Z"/><path class="cls-12" d="M360.19,236.07c0,.41-.09.82-.09,1.23s-.11.45-.46.34c-1.74-.51-3.48-1-5.21-1.49l-3-.86c-.22-.07-.44-.15-.65-.24a1.5,1.5,0,0,1-.5-2.45c.79-.85,1.72-1.57,2.59-2.35,1.38-1.25,2.79-2.47,4.17-3.71.27-.25.4-.28.6.07A18.39,18.39,0,0,1,360.1,235,9.1,9.1,0,0,1,360.19,236.07Z"/><path class="cls-12" d="M341.42,254.45a20.65,20.65,0,0,1-5.52-.87c-.35-.11-.35-.24-.2-.51,1.45-2.58,2.89-5.17,4.35-7.74a1.58,1.58,0,0,1,2.86.08c.52.85,1,1.73,1.47,2.6.94,1.67,1.86,3.35,2.82,5,.21.37.12.5-.26.6a18.75,18.75,0,0,1-4.65.76C342,254.39,341.71,254.43,341.42,254.45Z"/><path class="cls-12" d="M333.25,240.7c1.3,0,2,.87,1.7,2s-.95,2.35-1.42,3.53c-.65,1.6-1.34,3.19-2,4.79-.15.37-.28.42-.62.18a18.46,18.46,0,0,1-6.82-8.43c-.2-.51-.19-.51.35-.6l8.44-1.43Z"/><path class="cls-12" d="M343.77,218.24c0-.67,0-.69.56-.61a19,19,0,0,1,9.16,4.13c.23.2.44.43.68.61s.24.37,0,.55l-3.93,2.75c-1.07.75-2.13,1.52-3.22,2.25a1.65,1.65,0,0,1-2.39-.21,2.52,2.52,0,0,1-.36-1.44c-.11-1.92-.16-3.84-.31-5.76A14.34,14.34,0,0,0,343.77,218.24Z"/><polygon class="cls-12" points="340.29 233.42 338.83 235.23 339.35 237.48 341.46 238.49 343.56 237.48 344.08 235.23 342.63 233.42 340.29 233.42"/><polygon class="cls-13" points="365.95 191.65 367.14 191.59 367.28 190.69 365.95 191.65"/><path class="cls-13" d="M371.61,193.46c.57-.19,1.16-.3,1.75-.45a10.36,10.36,0,0,1-.64-1.92c-.17-.32-.53-.61-2.21-1.27a10,10,0,0,0-2,1.2c-.6.52-1,1.06-.71,1.47a6.38,6.38,0,0,0,1.19-.79,2.54,2.54,0,0,1,1.58-.47c-.38.75-1.57.84-1.89,1.87.9.15,1.13,0,1.39-.25a1.55,1.55,0,0,1,1.5-.47Z"/><path class="cls-13" d="M373.67,191a2.76,2.76,0,0,0-.31,1.16C373.52,191.72,374.47,191.23,373.67,191Z"/><path class="cls-13" d="M374.86,190.75c1.23.16-.06.87.06,1,.48-.49,1-1,1.5-1.45Z"/><path class="cls-13" d="M379.93,191.5a5.82,5.82,0,0,0,.6,0C380.4,191.2,380.18,191.36,379.93,191.5Z"/><path class="cls-13" d="M382.43,192c-.34-.64-1.05-.53-1.9-.47a.67.67,0,0,1,.06.12c.57.58-.33,1.51-1.32,1-1.16.06-.9-1-2-.44.41.34.81.72,1.19,1.08C380.19,193.38,381.58,192.16,382.43,192Z"/><path class="cls-13" d="M379.93,191.5a5.3,5.3,0,0,1-.66-.07A.51.51,0,0,0,379.93,191.5Z"/><polygon class="cls-13" points="377.42 190.94 376.76 191.09 376.86 191.57 377.42 190.94"/><path class="cls-13" d="M386.41,193.39c-.46.62-1.09.26-1.76-.09s-1.34-.72-1.68-.21a2.85,2.85,0,0,1,1.66,1.25,1.12,1.12,0,0,1,0,1.37,16.72,16.72,0,0,1,1.72.3C387.1,195.77,387,194.45,386.41,193.39Z"/><path class="cls-13" d="M387.56,198.32a.8.8,0,0,1,.46,0A.55.55,0,0,0,387.56,198.32Z"/><path class="cls-13" d="M395.67,202.07a28.23,28.23,0,0,0-3.89-1.87c.6-.12.8-.56,1.6,0-1.19-1.41-2-.81-3.05-1.84.24-.69.78-.3,1.26.08s.89.77,1,0c-.82-.69-2.2-1.62-3.55-1.11-.29-.55-.58-1.14-.91-1.68-.09.54-.19,1.06-.3,1.59.29.71,1.78-.29,1.5.84-.21.65-.8.36-1.26.26,1,.32,1.54,2.51,3.07,3.71S394.1,201.4,395.67,202.07Z"/><polygon class="cls-13" points="394.5 203.27 394.19 203.84 394.7 203.19 394.5 203.27"/><path class="cls-13" d="M398.7,205.72c-.65-.46-1.33-.87-2-1.27a1.86,1.86,0,0,1,.28-.84c-.23.27-1.05.17-1.23.42-.52,1.55,1.83,1.81,2.65,2.71.95,2.94-.7.25-1.27,1.9-.37-.71-.07-.92-.61-1.92a3.25,3.25,0,0,0,.88,2.72c.61.7,1.38,1.28,1.78,1.73,0-.36.35-.61,0-1.15.31.3.61.61.91.92C400.55,209.35,400.37,208.13,398.7,205.72Z"/><path class="cls-13" d="M396.43,202.53c.6.57.68.89.57,1.05C397.17,203.2,397.23,202.79,396.43,202.53Z"/><path class="cls-13" d="M399.48,211.73c0-.15-.08-.34-.29-.56A.91.91,0,0,0,399.48,211.73Z"/><path class="cls-13" d="M400.49,210c.17.48.33,1,.48,1.45l.36-.8C401.18,210.45,400.78,209.8,400.49,210Z"/><path class="cls-13" d="M386.27,262.11c.5.29,1.09.08,1.82-.84.45.61-.72,1.62-.91,2.44,1.44-.8.61.63,1.4.85,1.3-1.24,1.14-2.46,2.52-3.77a.75.75,0,0,0,.72.39c.61-1,1.3-2.43,2.14-3.71a14.6,14.6,0,0,1,2.5-3.35,15.08,15.08,0,0,0,2.67-5.48,40.51,40.51,0,0,0,4.11-11,71.58,71.58,0,0,0,1.56-12.13c-.5-.37-1-.74-1.51-1.09.35-.21.34-.7.33-1.1s0-.74.48-.67c-.13.46.08.87.11,1.41.62-.92.39-2.11.14-3.31a14.64,14.64,0,0,1-.79-3.46c-.19.3-1.34.89-1.71.35,1.59-.23-.62-2.33.93-3.45-.26-2.16-1.37.37-1.83-1.76-1,.13.23,2.1-.32,2.68-.95-.38-.32-1.9-1.23-1.47a19.91,19.91,0,0,0,.94,2.79c.21.52.44,1.07.7,1.64s.46,1.18.7,1.8c.13.31.25.63.38.94s.21.66.31,1c.21.66.45,1.33.62,2a23.93,23.93,0,0,1,.7,4.1l-.89-.57a11.09,11.09,0,0,1,.28,2.27,16.74,16.74,0,0,1-.18,2.53,13,13,0,0,1-.72,2.35,5.18,5.18,0,0,1-1.21,1.74c.46-.15.18.79-.06,1.76s-.38,2,.6,2.06a4.5,4.5,0,0,0-1.09,1.62l.49.45c-.48,1.32-1.26.78-1.82,2.26,1.18-.65,1,.51,1.41,1.22-.77.69-1.6,1.41-2.4,2.09a26.43,26.43,0,0,1-2.3,1.84,2.08,2.08,0,0,0,1.22-.28c-.8.82,0,1,.1,1.44-.49,1-1.37.32-1.81,0a3.33,3.33,0,0,0-.66,2.3c0,.76,0,1.45-.77,1.84l1,.06a9.6,9.6,0,0,1-1.91,2.24,10.29,10.29,0,0,0-2.08,2.29c-.81,0-.67-.47-.38-1.14a10.66,10.66,0,0,0,.91-2c-.47.2-1.11.9-1.59.88a25.8,25.8,0,0,1-.91,4.11c-.14-.89-.64-.77-1.22-.41A15.28,15.28,0,0,0,386.27,262.11Z"/><path class="cls-13" d="M389.89,257.16a5.46,5.46,0,0,0,0-.78,1.23,1.23,0,0,1-.37.63A.39.39,0,0,0,389.89,257.16Z"/><path class="cls-13" d="M386.27,262.11s-.08,0-.12-.06C386.05,262.26,386.13,262.23,386.27,262.11Z"/><path class="cls-13" d="M396.68,253.91c-.07.06-.14.15-.22.21s-.14.2-.23.3Z"/><path class="cls-13" d="M394.26,250.46a10,10,0,0,0,1.6-1C395.43,249.45,395.09,249.45,394.26,250.46Z"/><path class="cls-13" d="M400.34,238.82c0-.43-.35-.28-.54-.63C399.54,239,399.73,239.33,400.34,238.82Z"/><path class="cls-13" d="M388.18,258.84c-.3.47-.58,1-.9,1.42l-.26.59C387.44,260.2,387.81,259.51,388.18,258.84Z"/><path class="cls-13" d="M362.9,282.75c1.84.23,3.63-1.34,5.4-2.11,2.83-2.15-.69-2.15,2.1-3.9l.58,2.1c2.81-1.76,7.08-4.06,8.18-7.27.35.05,1,0,.51.71,1.73-1.39-.94-3.07,1.75-4.31-1.28,2.71,1.49.4,1.75,1.86l-.25.39c1.38-1.31,2.77-3.48,3.7-4.27-.34-.43-1.68-.3-.55-1.47-.55.38-.78-.25-1.12-.68-.77,1.59-1.7,1.91-2,3.1-1.16.09.32-.58-.84-.5l-.58,1.38c-.87.48.33-1.18-1-.34.13.43-.56,1.56-1.56,2.24l.13-.41c-.56.79-1.82,1.27-.76,2l-1.56-.29.62.53a9.34,9.34,0,0,1-3.16.87,5.23,5.23,0,0,0-3.11,1.87c.79-.21.42.53.14.89,1.45-.27,1.1-1.41,2.12-2.19.61.56-.75,2.55.85,2.1-2,.14-2.72,1.88-4.38.54-1.83.94-2.05,2.17-4.14,2.76l-.08-.29c.28,1.37-1.78.27-2.58,2.17l1.14-.24c.19.51-.28.77-.93,1.2,0-.22,0-.22-.35-.35.23,1-1.91,2.13-2.07,2.51,1-.28,1.8-1.5,2.75-2.26C363.36,281.81,363.88,282.46,362.9,282.75Z"/><path class="cls-13" d="M379.39,268.49l-.23.78A1.14,1.14,0,0,0,379.39,268.49Z"/><path class="cls-13" d="M353.43,285c-1.32.28.05-.89-1.27-.85-1,1.09,1.94.73,1,2.12-1-.26-1.9,1.13-2.42,1.34.39-.74-.37-1.81-.68-2-.36.51-1.67.27-2.51.51,2.3.08-1.58,1,.55,1.24.1.74-1.71,1.93-2.68,1.6-.1-.54.58-.62,1.1-.81.12-1.1-1.48-.12-2.05-.93-1.53,2-8.05,3.52-5.67,5.29.81.26,1.28-.43,2-.73-2.23.13-.32-1.17-.25-1.61,1,.12,2.33-1,2.2-.11l-1.2,1.21a63,63,0,0,0,15.79-5.4c-.73.3-1.47.56-2.21.83,0-.68,1.05-1.11,1.73-1.71l-1.62-1c.66-.13,1.16-.59,1.32-.07.5-.91,0-1.12-.64-1.41,1.47-.92,2-.48,2.77-1.91-3.08,0-1.78,1.94-5.21,2.11Z"/><path class="cls-13" d="M358.92,281.83l-.33,1c.28-.26.56-.5.82-.77Z"/><path class="cls-13" d="M359.24,285.31c-.16-.29.17-.59,0-.88C357.91,284.76,358.24,285.12,359.24,285.31Z"/><path class="cls-13" d="M342.8,287.68c-.53.25-1.06.47-1.59.71h1.16C342.26,288.06,342.62,287.82,342.8,287.68Z"/><path class="cls-13" d="M331.77,294.32a28.27,28.27,0,0,0,2.89-1,9,9,0,0,1,3.25-.41c1.09-1.29-1-1.67-.68-2.67-1.36.09-.82,1.7-2.15,2.3-.69-.73-2,.63-3.36.68A.9.9,0,0,1,331.77,294.32Z"/><path class="cls-13" d="M323,292.38c-1.09.13-2.12.92-3,.59.07-.55.7-.8,1.38-.73-.56-1.16-1.19.31-2.45-.39.12.12.56.29.26.58-2.95,0-1.58,1.14-5.45.72-.54.35-1.09.36-1,1.16-2.23-.95-1.13-.93-3.75-1.79.1.47,1,1.54,1,2.55-3.75-1.37-3.83.23-6.2-.88A2.06,2.06,0,0,1,305,294c-.28-1.43-2,.24-3.31-.12l.18-1.2c-1.2.15-3.35.83-4.8-.19l.39-.57c-3.14.68-6.69-.15-9.32-.15l-1.25-1c-1.84.1-1,.38,0,.79s2,.91.57,1.56c0-2.25-2,.4-3.87-.95-.75-1.07,2.15,0,1.31-1.2-.69,1-1.14.08-2.27.13.49-1-2.16-.73-1.19-1.72-1.38.29-2.79.54-4.24.7-.37-.79-1.43-1.1-2.24-1.31,1.92.85-1.21,1.24.84,2.63,1.76.44,4.06,1,6.45,1.48s4.89,1,7,1.63c.69-1.37,2.78.41,3.61-.73.05.48.33.92.38,1.4,2.82,0-.57-.87.17-1.33,1.23-.07,2.12.92,2,1.44,2,.23.26-.38,1.35-1.1l1.18,1.72c3.16,0,6.82-.27,10.55-.55s7.56-.5,11.15-.4l-.63-.95a8.38,8.38,0,0,0,4.14-1.09,4.15,4.15,0,0,1,4,0l.82-1c-.44.56.79,1.42.07,2.22.81-.46,1.8-.26,2.64-.73l-1.67-.19a1.82,1.82,0,0,1,2.78-.07c2.16-1.43-1.74-1.46-2.38-2.22a2.56,2.56,0,0,1-3.3.42,3.52,3.52,0,0,0-3.3-.5C320.85,291.75,323.05,291.83,323,292.38Z"/><path class="cls-13" d="M327.51,294.55a1.89,1.89,0,0,0,.45-.34A2.05,2.05,0,0,0,327.51,294.55Z"/><path class="cls-13" d="M274.93,288.83l-.86-.34C273.68,288.57,274.2,288.67,274.93,288.83Z"/><path class="cls-13" d="M331.72,293.24v0l0,0Z"/><polygon class="cls-13" points="332.81 290.49 331.94 290.64 332.18 291.06 332.81 290.49"/><path class="cls-13" d="M268.16,282.88l-.38.37A.56.56,0,0,0,268.16,282.88Z"/><path class="cls-13" d="M264,261c-.05.17-.11.34-.16.51A.79.79,0,0,0,264,261Z"/><path class="cls-13" d="M294.26,209.23c.91-1.43,2.34-3.13,2.66-4.62l.27.48c.44-.82,2.16-3.32.09-2.83l0,.65c-1.08,2-1.74.39-3.23,1.28-1.36,1.57-.72,3.86-2.33,4.77-.5.6-.8.14-.93-.31-1.35,1.22-.69,2.79-1.37,3.81-1.67-1.18-2.38.07-3.1,1.62s-1.39,3.45-3.24,3.69c-.41.75-1,1.54-1.56,2.41a9.09,9.09,0,0,0-1.43,2.91c-.17-1.51-1.22,1.6-1.88.57.78.92-.31,2-1.28,3.19s-1.88,2.35-.71,3.3c-2.22,2,.1.2-2.23,2.68-.28-.18,0-.66.07-.88-1.21.82.06,2.39-1.66,2.65-1.54,2.2.46.78.37,2.55-1.64,2.24-1.62,1.36-3.43,2.13,1.12.89-.25,2-.24,3.56.22-.27,1.35-1.8,1.24-.46-1.69,2.72-.35,2.7-1.37,5.52-2.06.66,1.3-2.68-1-.89.22-2,.92-3.26.4-4.69a27.51,27.51,0,0,0-3,8c-.83,1.33-.34-1-1,0-1.76,2.33-.18,4.55-1.53,6.38l-.61-.7c.31.83-.19,1.95-.64,3.27a11.2,11.2,0,0,0-1,4.11c.45-.26.77-.41,1,0-1-.2-.86.75-.71,2,.06.62.24,1.32.24,2a4.33,4.33,0,0,1-.43,2c.64-.1,1.14.45,1.51,1.16a8.61,8.61,0,0,1,.89,2.27c-.24.54-.78.54-1.11.59a3.26,3.26,0,0,0-.13-1.41,2.24,2.24,0,0,0-.67-.86,3.84,3.84,0,0,1-1.56-2c.54,1.69.34,4.63,1.59,5.87l-1.1-.34a3.05,3.05,0,0,0,.22.77,2.06,2.06,0,0,0,.4.51,4.25,4.25,0,0,0,.92.62,2,2,0,0,1,.77.65,2.22,2.22,0,0,1,.42,1.31l-.77.09c.5,1.16,1.2,2.26,1.85,3.43a24.92,24.92,0,0,0,2.46,3.15,10.46,10.46,0,0,0,6.18,3.42c.56-.39-.4-2.56-.2-3-2.09-.67-3.72-.66-5.38-1.49l.82-.81a3.26,3.26,0,0,1-1.57-.17c-.49-.13-.85-.15-.7.52a1.08,1.08,0,0,1-.69-1.15c0-.41-.06-.75-.77-1.27,1.05-.54,1.73.11,2.54-.51l-.65-.32-.6-.4c.61.09-.07-.88.54-.79a2.69,2.69,0,0,1-1.64-2.35c-.09-.41,0-.89-.13-1.35a5.9,5.9,0,0,0-.52-1.51,7.89,7.89,0,0,0,.17,1.38c-.63.19-.88-.58-1.15-1.16a2.22,2.22,0,0,0,.59-1.12c0-.19,0-.38.06-.61s.08-.51.15-.84a15.5,15.5,0,0,0-1.2-1.39,3,3,0,0,1-.67-1.86c1.23.37.84-2.6,2-2.75-.6-.24-.6-1-.54-1.76s.28-1.46-.06-1.65c-.1-.9.38-2,1-1.83a5.18,5.18,0,0,1,0,.67l.27-.8c.12.11.23.11.23.22.23-.71-.68-1,.22-1.75.32.11.15.61.17,1.06a6,6,0,0,0,.12-2.82,2.37,2.37,0,0,1,.83-2.37c-.44-.53.44-2.77-1-2.82.68-.42,1.57.24,2.12-1.44-.63-1.4,1.22-1.58,1.13-3.11.3,2.12.29.16.65,2,.92-.84.36-3.12,1.51-4.89.33-.07.63.09,1,0,0-.87-.39-2.1.8-2.32l-.76-.3c1-1.07,1.78-2.92,3.28-3.82-.16-.77-.29-1.53-.44-2.3,2.6-1.26,3-4.71,2.89-7.09.55-.71,1.5-1.66,1.78-1.47,0,.24,0,.66-.05,1.11.75-1.06,2.35-1.87,1.72-3.19.44-1.31,1.28-.29,2-1,.05-1.6,1.5-3,2.73-4.25s2.25-2.34,1.45-3.53c-.68.86-2.46,2.13-3.62,3.9.06-.65-.63-.62-.2-1.29,1.23-1.75,2.67-2,3.69-3.9l1.18,1.31c1.84-.79,2.47-2.47,3.22-4a8.45,8.45,0,0,1,1.25-2.07A3.1,3.1,0,0,1,294.26,209.23Z"/><path class="cls-13" d="M277.65,230.2c.51-.28,1-.54,1.56-.8l-.71-.28A1.81,1.81,0,0,1,277.65,230.2Z"/><path class="cls-13" d="M278.5,229.12a5,5,0,0,0,.19-.93,1.74,1.74,0,0,0-.38.87Z"/><path class="cls-13" d="M298.45,204.86a3.39,3.39,0,0,0,1.27-1.05C299.25,203.93,298.53,204.44,298.45,204.86Z"/><polygon class="cls-13" points="299.45 203.32 298.69 203.61 298.74 203.83 299.45 203.32"/><path class="cls-13" d="M338.94,182.66c.76-.49,1.51-1,2.29-1.5.52.47,3.25-.57,2.46.48,1.32-1.52,4.73-.5,3.34-2.23-1.86.26-3.87.65-6,1-1.07.16-2.14.41-3.24.61s-2.23.42-3.34.73a41,41,0,0,0-12.61,5.09c.33-.4.65-.82,1-1.2a10.3,10.3,0,0,1-4.74,2.13,5,5,0,0,0-3.54,3l-.25-1.53c-1,.28-1.62,1.26-2.29,2.07a3.12,3.12,0,0,1-2.72,1.42l.49.4c-.48.3-.81.19-1.3.49l.34.11a5.64,5.64,0,0,1-3.16,2.21c-.35-.33.45-.56.75-.93-.82,0-1.2,1.48-2.13,2.13-1,.17-.38-.56-.4-.79a21.25,21.25,0,0,1-3.22,2.51,3.87,3.87,0,0,0-1.79,3c.08.45,1.14,0,.33.94,2.11-.93,3-2.64,4.24-4.38l-.44.35c0-2.72,1.27-.34,2.84-2.59-.07,1.1-1,1.74-1.08,2.37a4.08,4.08,0,0,0,3-1.79,2.24,2.24,0,0,1,2.6-.95l-.14.17c.47,0,.92-.8,1.38-1.33a4.49,4.49,0,0,0-1.44.19c.47-.54.28-1.52.28-2,1.14.42.66-.9,2-1.1.81.55-.5,1.19-.66,1.82l1-1.23c1.15-.71,1.61.19,2.4.29.68-1.14-.8-.1-.43-1.37.89.15,2.67-.49,4.51-1.45a32.61,32.61,0,0,0,5.08-2.92c-.9.48,0,1-1.19,1.3.48,0,1.79-.94,1.57-1.58a8.12,8.12,0,0,1,3-1.33A15.14,15.14,0,0,1,331,185l-.72-.48c.6-.79,1.64-.89,2.84-.9a9.24,9.24,0,0,0,3.85-.65h-.06c.86-.32,1.31-2.08,3-2.07C339.6,181.78,338.7,181.88,338.94,182.66Z"/><path class="cls-13" d="M348.68,179.82l-.86,1c1,.12,2.23-1.18,2-1.77-.69.26-1.63-.08-1.71.47C348.21,179.65,348.22,180,348.68,179.82Z"/><path class="cls-13" d="M368,180.81c.42-.14.39-.51.61-.74-4.14-.69-9.24-.85-10.86-1.56-1.39-.33-1.7,1-3.42,1.34l-.79-.92c-.93.61-3.84-.34-2.76,1.18.11.14.79-.75,1.6-.49l-.12.54,1.83-.23-.58.68a1.73,1.73,0,0,0,2.2-.56,2.42,2.42,0,0,1,2.68-.71l-.1,1.34c1,.06,1.79.07,2.53.14a5.09,5.09,0,0,1,2.27.73s.11-.67-.28-.44c-.32-.1-.7-.68-.42-1.06,3.25-.71-.58.74,1.51,1.52a20.21,20.21,0,0,1,5.12-.15c1.78.26,3.37.74,3.93,1.43-.5-.54-.24-.91.33-1.08a3.93,3.93,0,0,1,2.15.22c.52.67-.7.61-1,.92.62.35,1,.85,1.77.88-.61-1,.25-1.76,2-1.66a9.2,9.2,0,0,0-5-1.11A17.43,17.43,0,0,1,368,180.81Z"/><path class="cls-13" d="M369.25,179.91a.71.71,0,0,0-.67.16c.48.08,1,.21,1.41.31Z"/><path class="cls-13" d="M569.05,197.59l0,0c-.06,0-.08-.11-.16-.13s-.05,0,0,0,.11-.11.07-.06.13.15.23.2a1.45,1.45,0,0,0,.06-.62c0-.05,0,0,0,0V197a1.19,1.19,0,0,1,0-.17.13.13,0,0,1,0,.06,1.27,1.27,0,0,1-.07.12c0,.19-.26.46-.3.44h0l.11.08C569.1,197.67,569.05,197.61,569.05,197.59Z"/><path class="cls-13" d="M569.81,193.84a1.63,1.63,0,0,1-.48-.18l-.57-.27a13.17,13.17,0,0,1-1,1.72,1.2,1.2,0,0,0-.1.62,3.78,3.78,0,0,0,.36,1.42,5,5,0,0,0,.67,0,1.78,1.78,0,0,1,.65,0,.83.83,0,0,1,.32.2.51.51,0,0,1,.06.44c-.06.3-.2.56,0,.74a1.19,1.19,0,0,0,.52-.4,1.07,1.07,0,0,0,.21-.8.93.93,0,0,0-.23-.47,1.65,1.65,0,0,0-.32-.28c-.46-.28-.86-.29-1.1-.62a1.14,1.14,0,0,1,1.06-.08,3.82,3.82,0,0,1,1.54,1.09,2.36,2.36,0,0,0-.24-1.16,2,2,0,0,0-.42-.56,1,1,0,0,0-.64-.26c-.35,0-.78.05-1-.32Z"/><path class="cls-13" d="M567.24,194.76a4,4,0,0,0,.93-.72C567.81,194.27,567,194.23,567.24,194.76Z"/><path class="cls-13" d="M566.5,194.42c-.53-.61.61-.64.64-.79-.58.18-1.14.34-1.72.49C565.78,194.22,566.14,194.33,566.5,194.42Z"/><path class="cls-13" d="M564.19,192a3,3,0,0,0-.36-.18C563.73,192.06,564,192,564.19,192Z"/><path class="cls-13" d="M562.94,190.88c-.17.6.34.71.89.92a.93.93,0,0,1,0-.1c0-.64,1.12-1.07,1.4-.34.7.37-.11,1.08.86,1v-1.26C565.21,190.41,563.59,191,562.94,190.88Z"/><path class="cls-13" d="M564.19,192a1.73,1.73,0,0,1,.35.27C564.54,192,564.37,192,564.19,192Z"/><polygon class="cls-13" points="565.27 193.28 565.73 193.41 565.98 193.01 565.27 193.28"/><path class="cls-13" d="M561.12,188.8c1.27-.76,1.1,1.64,2.14,1.06a1.59,1.59,0,0,1,.38-2.46l-1.07-.62C561.89,186.81,561.28,187.87,561.12,188.8Z"/><path class="cls-13" d="M562.8,184.73a.7.7,0,0,1-.37-.06A.5.5,0,0,0,562.8,184.73Z"/><path class="cls-13" d="M556.88,179.65a6.09,6.09,0,0,1,2.43,1.4c-.43.2-.58.91-1.07.36a2.1,2.1,0,0,0,1,1.27,2.08,2.08,0,0,1,1,1.11c-.36.75-.68.25-1-.21s-.52-.9-.67.1a5.17,5.17,0,0,0,.9,1.07,2.71,2.71,0,0,0,1.62.51c0,.57-.07,1-.1,1.5l1-1.2c0-.31-.31-.3-.63-.37s-.6-.26-.32-.8c.18-.32.39-.35.62-.24a2,2,0,0,1,.36.25c.11.09.25.25.31.26s-.21-.23-.29-.37-.18-.36-.27-.58c-.16-.44-.34-1-.52-1.58s-.41-1.35-.7-2.08a15.67,15.67,0,0,0-1-2.21c-.82-1.47-1.32-1.08-1.71-.25S557.24,179.55,556.88,179.65Z"/><polygon class="cls-13" points="557.08 176.27 557.02 174.8 557 176.59 557.08 176.27"/><path class="cls-13" d="M555.18,179.73l.31-1.75.18-.94a6,6,0,0,1,.2-.83h0a17.69,17.69,0,0,1,.21,2.09c0-.87.23-1.69.21-2.4a6.48,6.48,0,0,0-.47-2.1l-.08.12c0,.07,0,.17-.08.26s-.11.4-.16.63c-.11.46-.21,1-.3,1.49-.18,1-.33,2-.47,2.52-.71.74-.8.5-.75-.22s.2-1.89-.32-2.31c.49-.95.6-.39,1.23-1.53-.62-.52-1.31.88-1.78,2.37s-.74,3.07-.94,3.91c.26-.22.52.22.77-.58l-.35,1.72C553.8,182.22,554.22,182.13,555.18,179.73Z"/><path class="cls-13" d="M556.52,179.63a2.1,2.1,0,0,1-.41-1.28C556.19,179.36,556.24,180.07,556.52,179.63Z"/><path class="cls-13" d="M551.87,181.74c.12-.05.22-.3.32-.71A1.27,1.27,0,0,0,551.87,181.74Z"/><path class="cls-13" d="M553.33,182.47l-.69,1a3.19,3.19,0,0,1,.61.23A2.33,2.33,0,0,0,553.33,182.47Z"/><path class="cls-13" d="M551.72,194c.54-1.27.8-2.09.68-2.17.72-1.86.59-.92,1-1.55a8.34,8.34,0,0,1,.67-1.88,14.44,14.44,0,0,0,.86-1.83c0-.69-.2-.6-.41-.47s-.4.3-.31-.52c.2-.57.51-1.53.75-2.44a1.3,1.3,0,0,1-.64-.4,1.09,1.09,0,0,1-.1-.26c0-.13-.07.07-.11.18L554,183c-.17.39-.3.61-.38.62s-.06,0-.07-.11c-.4.33-1.12,2.38-1.83,4.3-.73,1.08-1.63,2.65-2.51,4.12-.45.75-.89,1.47-1.37,2.19l-.36.55-.44.63c-.29.42-.6.82-.91,1.23l-1.08-.85c.88-1,1.79-2,2.74-3l-.71-1.48c.74.22.75-1,1.43-.36-.32.13-.36.45-.56.75,1.73-.19,1.7-2.58,2.83-3.5-.31,0-1.5-.5-1.46-1,1.32.95.82-1.36,2.64-.79.58-.52.3-.76,0-1.05s-.56-.61,0-1.4c-.53-1-1.32,1.43-2.16,1.39a1.68,1.68,0,0,1,.49-1.35c.26-.36.44-.64,0-1a16.5,16.5,0,0,0-.92,1.49l-.24.43-.12.25-.22.51c-.29.71-.56,1.54-.84,2.41a28.28,28.28,0,0,1-2.08,5.25l-.47-.85a7.16,7.16,0,0,1-1.42,2.4l3,2.39a7.49,7.49,0,0,1,1.39-1.42,1.89,1.89,0,0,1,.37-.24,1.5,1.5,0,0,1,.29-.06,1.08,1.08,0,0,1,.58.1c-.34-.27-.12-.39,0-.61s.2-.63-.2-1.78c.31.31.32.17.54.11l-.08-1c.33-.51.39,1.15.61.65a7.68,7.68,0,0,1-.06-1.64c.05-.54.15-1.16.23-1.94a6.64,6.64,0,0,1,.38,4c.11-.69.24-1.5.3-2.27,0,.47.37-1.63.57-2.52.25-.56-.39,2.62-.69,4.18,0,.21.14-.37.36-1.24s.5-2,.71-2.74.3-1,.19-.4l.61-2.73c.15-.41.24-.57.29-.59s0,0,0,0,0,.05,0,.12l0,.19-.11.78c-.15,1.06-.3,2-.16,2a18.44,18.44,0,0,1-1,2.9,5.31,5.31,0,0,0-.49,1.19c-.23.94-.28,1.3-.65,2.57a29.58,29.58,0,0,1,1.89-4.89,30.32,30.32,0,0,0-1.11,3.18A8.82,8.82,0,0,0,551.72,194Z"/><path class="cls-13" d="M551.13,194.8c-.18.62-.34,1.14-.44,1.48.07-.24.14-.48.09-.29Z"/><path class="cls-13" d="M551.72,194l-.13.31A1,1,0,0,0,551.72,194Z"/><path class="cls-13" d="M553.5,183.41c0,.05,0,0,0,.06s.06-.09.07-.08Z"/><path class="cls-13" d="M550.77,195.78c.16-.85.3-1.68.39-2.42Z"/><path class="cls-13" d="M550.05,195.19a4.44,4.44,0,0,0,.29.8S550.31,195.6,550.05,195.19Z"/><path class="cls-13" d="M550.93,195.63a6.08,6.08,0,0,1,.25-.6l.22-.5A8.44,8.44,0,0,0,550.93,195.63Z"/><path class="cls-13" d="M555.61,207.41c1-1,.35-2.51.53-3.77-.58-2.27-2.24-.24-2.41-2.41l2.12.33c-.08-1.08,0-2.4-.19-3.67s-.55-2.74-1.48-3c.26-.24.56-.82.87-.4-.11-1.5-3,1.26-2.31-.25a1.83,1.83,0,0,0,1.26-1,5.14,5.14,0,0,1,1.24-1.82l.15.14a5.23,5.23,0,0,0-.48-1.52,2,2,0,0,1-.31-1.15c-.52,1-1.32,3-1.39,2.44a18.14,18.14,0,0,1-1.22,2.56c.29-.39.35-.28.43-.25s.15,0,.5-.26c-.68,1.24-.22.14-.9,1.34a2.76,2.76,0,0,1,.65-.44c-.08.25-.26.35-.43.5a1.34,1.34,0,0,0-.41.56c.41-.44.85-.46.77,0l-.24.06c.28.08-.06.65,1.1,0a5.64,5.64,0,0,1-1.15.77l.8-.27a1.29,1.29,0,0,1-.46.64c-.2.32-.43.64-.62,1a2.34,2.34,0,0,0-.08,2.44c.23-.53.67,0,.83.22.54-.92-.63-1.11-.75-2,.79-.14,1.78,1.31,2.24.25-.93,1.16.16,2.17-1.82,2.7-.1,1.39.89,1.9.45,3.31l-.3,0c1.32.23-.57,1.15.8,2.17l.28-.75c.54,0,.56.39.67.89-.21-.05-.21-.05-.47.11,1,.14,1.14,1.72,1.42,1.92.16-.67-.64-1.48-.9-2.25C555,206.88,555.77,206.74,555.61,207.41Z"/><path class="cls-13" d="M551.9,195.53a2.19,2.19,0,0,1,.46-.18C552.28,195.33,552.14,195.37,551.9,195.53Z"/><path class="cls-13" d="M554,213.67c-.23.87-.81-.25-1.25.55.64.91,1.38-1,2.34-.09-.59.53.38,1.44.38,1.81a2.63,2.63,0,0,0-2.08-.1c.34.35-.33,1.06-.41,1.62.88-1.34.41,1.21,1.35,0,.74.13,1.19,1.53.56,2-.54-.09-.38-.51-.38-.88-1-.37-.62.85-1.58,1,.65.73.81,2.16,1.07,3.31s.63,2,1.88,1.63c.53-.4,0-.91,0-1.43-.7,1.36-1.2-.19-1.59-.36.46-.54-.12-1.67.65-1.33l.72,1.08a31.4,31.4,0,0,0,.63-10.95l-.06,1.54c-.62-.19-.65-.92-.94-1.48l-1.52.74c.12-.44-.1-.86.43-.82-.64-.54-1-.29-1.54,0-.27-1.12.32-1.32-.67-2.18-1.23,1.87,1,1.59-.07,3.7Z"/><polygon class="cls-13" points="553.14 209.56 553.9 210 553.52 209.31 553.14 209.56"/><path class="cls-13" d="M556.47,210.26c-.33,0-.48-.26-.81-.23C555.44,210.92,555.9,210.81,556.47,210.26Z"/><path class="cls-13" d="M552.69,220.69c0,.37.09.75.12,1.12l.39-.67A.63.63,0,0,1,552.69,220.69Z"/><path class="cls-13" d="M554.91,229.34c.33-1.66-.19-2.48,1-4.14-.8-1.08-1.9,0-2.71-.52-.39.81,1.27,1.06,1.36,2-.9.13-.16,1.38-.62,2.19A1.3,1.3,0,0,1,554.91,229.34Z"/><path class="cls-13" d="M549.83,233.22c-.3.61-.08,1.55-.71,1.83a.68.68,0,0,1-.07-1.09c-1.19-.36-.19.77-1.28,1,.15,0,.46-.1.58.21a1.85,1.85,0,0,0-.57,1.43c0,.38-.14.81-1.16,1.53,0,.47-.2.74.45,1.22-1.71.34-1.22-.13-3,.33a14.93,14.93,0,0,1,2.19,1.44,5.83,5.83,0,0,0-1.46.55,3.2,3.2,0,0,0-.68.59,1.65,1.65,0,0,1-1.52.75c.11-.14.14-.45.53-.6-1-1-.88.93-1.76,1.16l-.56-1.07c-.27.27-.59.73-1,1.09a1.65,1.65,0,0,1-1.57.38l-.06-.64c-1.34,1.64-3.68,2-5.17,2.81l-1-.51c-1,.69-.45.68.25.74s1.49.18.87,1.27c-.77-2.09-1,1-2.58.4-.79-.73,1.25-.71.36-1.57-.06,1.18-.64.46-1.28.91,0-1.07-1.49.1-1.24-1.16-.71.78-1.46,1.55-2.22,2.31a1.47,1.47,0,0,0-1.73-.17c1.38-.13-.22,1.63,1.39,2a43.86,43.86,0,0,1,8.84-2c-.11-1.51,1.79-.51,1.83-1.83.22.42.56.73.78,1.15,1.65-.94-.69-.6-.44-1.27a1.25,1.25,0,0,1,1.74.64c1.27-.45,0-.43.28-1.42.48.37,1,.73,1.47,1.09a29.44,29.44,0,0,0,5.45-4.64c1.73-1.84,3.26-3.83,4.88-5.63l-1-.23a3.54,3.54,0,0,0,.78-2.7,2,2,0,0,1,1.57-2.09c-.19-.3-.38-.6-.58-.9.34.5,1.55.2,2,1-.11-.67.47-1.12.36-1.8-.26.29-.53.57-.81.85-.54-1,.19-1.56,1-1.59-.26-.91-.76-.8-1.28-.48s-1.14.85-1.59.86c.53,1.31-.11,1.67-.86,1.9s-1.59.38-1.67,1.4C548.47,233.94,549.38,232.92,549.83,233.22Z"/><path class="cls-13" d="M553.48,231.87a1,1,0,0,0-.13-.41A1.39,1.39,0,0,0,553.48,231.87Z"/><path class="cls-13" d="M524.42,248.32a3.72,3.72,0,0,0-.6.11C523.64,248.7,524,248.5,524.42,248.32Z"/><path class="cls-13" d="M553.9,228.92h0v0Z"/><polygon class="cls-13" points="551.82 227.22 551.63 227.75 552.1 227.79 551.82 227.22"/><path class="cls-13" d="M518.21,247.49l0,.53A.75.75,0,0,0,518.21,247.49Z"/><path class="cls-13" d="M501.51,247.84l.36,0A.34.34,0,0,0,501.51,247.84Z"/><path class="cls-13" d="M461.33,249.87a7.38,7.38,0,0,0-3.3,1.63l.05-.53c-.57.28-2.43,1.21-1.17,2.11l.28-.48c1.35-.84,1,.85,2.12,1.15,1.29-.31,2-2.33,3.15-1.89.5-.08.44.47.3.87,1.17.11,1.57-1.44,2.37-1.66.43,4,3.53-1.21,5.31,1.33,1.08-.35,2.54,0,3.91-.86-.72,1,1.3.05,1,1.19.35-2.35,4,1,4.2-2,1.89.79.07-.2,2.25.45,0,.33-.36.34-.5.4.87.6,1.29-1.29,2,.05,1.74.18.28-.8,1.29-1.62,1.82.32,1.31.72,2.34,1.92.13-1.41,1.22-.75,2.09-1.5-.22-.06-1.46-.31-.66-.86,2.1.18,1.66-1,3.62-1.38,1,1.53-2,.08-.21,1.28-1.23.74-2.17.69-2.82,1.84a14.8,14.8,0,0,0,5.51-.94c1,.19-.5.74.3.87,1.83.65,2.74-1.65,4.2-1l-.28.81c.85-1.09,3.2.14,4.86-.49-.23-.4-.37-.67-.16-.94,0,2,2.29-1.13,4,.23-.17-1.27,1.4-2.05,2.41-2.21a1.54,1.54,0,0,1,.32,1.2c-1.69-.69-1.55,1.45-2.85,2.09,1.07-.7,2.91-.08,3.83-1l-.34,1c1.53.1,1.24-2.32,2.86-1.44l-.12.74c3.18-.26,7,.89,9.48-1,.17-.62-1.22-1.93-1.31-2.4-1.46.62-2.28,1.74-3.41,2.33l0-1.15c-.22.8-1.6,1.33-.79,1.92-.92.63-.77-1-1.83-.27,0-1.21.67-1.37.63-2.37l-.92.64c.28-.49-.58-.38-.32-.87-1.68,1.54-2.46-.43-4.25.3l1,.17c0,.67-.56.63-1,.83-.53-.92-.82-.78-1.77-1.16-.78.56-1.18,1.78-2.27,1.81.18-1.28-1.83-.62-2.07-1.69-.19,1.28-2.09.51-2.21,1.25-.58.28-1.38.16-1.39-.51a2.63,2.63,0,0,1,.43-.23l-.58,0c.05-.15,0-.26.09-.29-.51,0-.49.91-1.18.3,0-.33.36-.34.65-.48-1.38-.18-2.36,2-3.54.87-.21.61-1.8.69-1.43,2-.44-.46-.3-1.53-1.46-1.32-.64,1.15-1.31-.39-2.17.36,1.14-1.22,0-.33,1-1.49-.8-.46-1.95,1.1-3.33.91-.15-.26-.15-.6-.3-.86-.5.41-1.07,1.35-1.59.41l.08.81c-.94-.4-2.25-.12-3.27-1l-1.15,1.56c-1.61-1.6-3.7-.1-4.92,1.32-.58-.06-1.46-.32-1.46-.66a8.13,8.13,0,0,1,.62-.57c-.86,0-1.91-.9-2.37.39-.86.41-.66-.86-1.31-1.06-1.73,1.84-5.25-1.2-5.72,1.55a18.6,18.6,0,0,0,3.49.36c-.36.34-.06.87-.57.95-1.38.15-2.11-.85-3.48-.36l.11-1.75C465.3,248.11,463.26,252.32,461.33,249.87Z"/><path class="cls-13" d="M479.05,249.48l-1-.87.12.75A.83.83,0,0,1,479.05,249.48Z"/><path class="cls-13" d="M478.14,249.36a2.22,2.22,0,0,0-.57.37.85.85,0,0,0,.61-.18Z"/><path class="cls-13" d="M457.34,250.32a1.51,1.51,0,0,0-1.09,0C456.55,250.54,457.13,250.59,457.34,250.32Z"/><polygon class="cls-13" points="456.2 250.89 456.71 251.14 456.77 250.94 456.2 250.89"/><path class="cls-13" d="M427.08,254.49l-1.47,1.22c-.34-.51-2.07.35-1.6-.64-.78,1.38-3,.44-2,2.14,4.55-1.26,11.08-.81,16.35-2.87l-.81.8c2.71-1.68,4,1.31,6-1.71l-.21,1.49c1.32.33,2.34-2.3,3.79-.81l-.17-.59c.36,0,.52.24.88.23l-.16-.26a2.19,2.19,0,0,1,2.45-.24c.09.46-.42.22-.71.36.46.45,1.14-.58,1.87-.61.58.38,0,.67,0,.88,2.15-.78,3.2.75,4.66-1.51.13-.41-.6-.72.19-1-1.47-.62-2.61.28-3.89.94l.36,0c-.94,2.19-.81-.44-2.44.57.4-.89,1.13-.91,1.4-1.4-2-1.53-2.71,1.39-4.1-.63l.14-.08c-.3-.19-.79.24-1.22.45.16.27.6.38.91.57-.43.23-.61,1.17-.73,1.58-.55-.92-.63.49-1.44.07-.34-.85.6-.84.87-1.32l-.91.65c-.86.12-.91-.89-1.37-1.33-.7.71.46.44-.08,1.41-1-1-5-.48-6.78.56.64-.18.16-.95,1-.88-.3-.18-1.28.37-1.23,1a5.17,5.17,0,0,1-4.22-.08l.41.64c-.91,1.2-2.66-.58-4.4.27h0c-.56.2-.88,1.89-2,1.67C426.65,255.28,427.23,255.28,427.08,254.49Z"/><path class="cls-13" d="M421,256.8l.46-1c-.67-.12-1.31,1.17-1.09,1.75.41-.25,1,.08,1-.46C421.26,257,421.23,256.63,421,256.8Z"/><path class="cls-13" d="M409.07,258.82c-.2.26-.07.59-.12.87,2.47-.61,5.53-1.43,6.63-.89.89.15.83-1.29,1.85-1.77l.62.88c.5-.67,2.41.1,1.57-1.35-.09-.12-.41.8-.94.59v-.54l-1.12.34.27-.71c-1.71-.73-.8,2.15-2.8,1.84l-.19-1.34c-1.29.14-1.86.7-3.12.07,0,0,.1.67.27.37a.91.91,0,0,1,.51.94c-1.75,1.35.17-.84-1.28-1.16-1.5,1.14-4.43,2.57-5.55,1.67.92.65-.05,1.71-1,1.82-.51-.39.13-.85.2-1.27-.46-.05-.87-.32-1.25,0a1.45,1.45,0,0,1-.35,2.31C405.63,261.85,406.85,259.1,409.07,258.82Z"/><path class="cls-13" d="M408.63,260.06a.48.48,0,0,0,.32-.37l-.86.2Z"/><path class="cls-12" d="M560.14,159.2h-39a6.28,6.28,0,0,1-5.43-3.11L496.3,122.8a6.3,6.3,0,0,1,0-6.34l19.43-33.28a6.29,6.29,0,0,1,5.43-3.12h39a6.29,6.29,0,0,1,5.43,3.12L585,116.46a6.3,6.3,0,0,1,0,6.34l-19.43,33.29A6.28,6.28,0,0,1,560.14,159.2Z"/><path class="cls-14" d="M335.52,283.08c-5.41,0-10.83,0-16.24,0a6.45,6.45,0,0,1-5.38-2.62c-2.83-3.55-5.71-7.06-8.58-10.58L296.44,259c-.93-1.14-1.83-2.31-2.79-3.43a5.87,5.87,0,0,1-1.28-5.47q3.19-13.6,6.34-27.22c.35-1.52.69-3,1.07-4.55a5.43,5.43,0,0,1,3.07-3.75q7.38-3.51,14.76-7l15.22-7.2a6.12,6.12,0,0,1,5.53,0q13.23,6.28,26.47,12.52c1,.46,1.94,1,2.93,1.37a6.32,6.32,0,0,1,3.83,4.78c1.55,6.86,3.17,13.72,4.77,20.57.81,3.51,1.62,7,2.46,10.53a6.25,6.25,0,0,1-1.55,5.73c-3,3.64-6,7.34-9,11L359,278.34l-2,2.51a5.77,5.77,0,0,1-4.63,2.22C346.71,283.09,341.11,283.08,335.52,283.08Z"/><path class="cls-14" d="M334.21,217.41a30,30,0,0,0-.43-3.88,2.63,2.63,0,0,1,.49-2.34,1.75,1.75,0,0,1,3,.53,4.17,4.17,0,0,1,.06,2.35,19,19,0,0,0-.34,3.68,1.18,1.18,0,0,0,.18.7,1.84,1.84,0,0,1,.5,1.06c0,.22.26.22.44.24a23.55,23.55,0,0,1,11.65,4.6,25.47,25.47,0,0,1,2.55,2.2c.23.22.41.28.66,0a.66.66,0,0,1,.49-.22,2.18,2.18,0,0,0,1.86-.86c.73-.68,1.45-1.37,2.11-2.12a4,4,0,0,1,1.69-1.25,1.82,1.82,0,0,1,2.13.68A1.88,1.88,0,0,1,361,225a5.81,5.81,0,0,1-1.71,1.24,20.7,20.7,0,0,0-2.87,1.86,1.27,1.27,0,0,0-.61,1c0,.27-.2.41-.38.56a.39.39,0,0,0-.08.61,22.73,22.73,0,0,1,3.38,8.43,23.67,23.67,0,0,1,.22,6.93c0,.29,0,.43.32.48a.55.55,0,0,1,.37.18c.56.89,1.53.86,2.41,1,1.17.21,2.38.14,3.54.37a2.43,2.43,0,0,1,1.28.61,1.68,1.68,0,0,1,.5,1.88,1.93,1.93,0,0,1-1.68,1.18,4.6,4.6,0,0,1-1.93-.42,20.66,20.66,0,0,0-3.51-1.17A1.58,1.58,0,0,0,359,250a.55.55,0,0,1-.45.08c-.43-.13-.58.1-.71.47a23.06,23.06,0,0,1-6.44,9.65,20.67,20.67,0,0,1-3.29,2.45c-.33.2-.51.39-.3.77a.47.47,0,0,1,0,.4,1.92,1.92,0,0,0,.25,1.58,24.56,24.56,0,0,0,1.84,2.91,4.42,4.42,0,0,1,.8,1.59,1.83,1.83,0,0,1-1.07,2.19,1.94,1.94,0,0,1-2.28-.86,7.1,7.1,0,0,1-.73-1.78,19.52,19.52,0,0,0-1.21-3.22,1.41,1.41,0,0,0-.85-.79.59.59,0,0,1-.4-.35c-.13-.37-.35-.36-.69-.24a22.33,22.33,0,0,1-6.1,1.27,23.39,23.39,0,0,1-9.39-1.23,3.59,3.59,0,0,1-.35-.12c-.24-.11-.42-.07-.52.18a.91.91,0,0,1-.64.55,1.12,1.12,0,0,0-.62.59,19.2,19.2,0,0,0-1.3,3.43,5,5,0,0,1-1,2.05,1.85,1.85,0,0,1-2.26.43,1.89,1.89,0,0,1-.77-2.26,5.68,5.68,0,0,1,.83-1.53,21.35,21.35,0,0,0,1.92-3.13,1.35,1.35,0,0,0,.12-1.11.73.73,0,0,1,0-.66c.21-.34.05-.5-.24-.68a23.15,23.15,0,0,1-4.66-3.76,22.71,22.71,0,0,1-5.11-8.22c-.14-.41-.29-.7-.8-.51a.4.4,0,0,1-.35-.07,1.86,1.86,0,0,0-1.61-.12,24,24,0,0,0-3.19,1.09,4.23,4.23,0,0,1-2.16.42,1.79,1.79,0,0,1-1.57-1.35,1.77,1.77,0,0,1,.74-1.84,3.93,3.93,0,0,1,2.11-.58,22.72,22.72,0,0,0,3.77-.47,1.44,1.44,0,0,0,1-.62.91.91,0,0,1,.61-.38c.26-.06.32-.2.29-.47a22.72,22.72,0,0,1,3.45-15.29c.2-.32.3-.55-.1-.78a.48.48,0,0,1-.23-.38,1.84,1.84,0,0,0-.95-1.34,22.89,22.89,0,0,0-2.82-1.76,4.13,4.13,0,0,1-1.6-1.29,1.81,1.81,0,0,1,.07-2.22,1.85,1.85,0,0,1,2.16-.41,6,6,0,0,1,1.89,1.6,16.66,16.66,0,0,0,2.46,2.29,1.24,1.24,0,0,0,1,.29c.27-.06.44.1.62.23s.33.13.51,0a23.08,23.08,0,0,1,13.42-6.77,3.31,3.31,0,0,1,.55-.07c.47,0,.91-.06.89-.7a.32.32,0,0,1,.08-.21A1.76,1.76,0,0,0,334.21,217.41Z"/><path class="cls-14" d="M342,249.12a1.54,1.54,0,0,1,1.77-1.5c2.59.41,5.17.85,7.76,1.27.4.07.79.17,1.19.2s.45.24.31.58a18.85,18.85,0,0,1-2.52,4.43,18.6,18.6,0,0,1-4.38,4.11c-.29.19-.41.21-.56-.15-1.09-2.63-2.19-5.25-3.29-7.88A2.61,2.61,0,0,1,342,249.12Z"/><path class="cls-14" d="M333.25,225.08c-.14,2.43-.29,4.82-.44,7.21a10.59,10.59,0,0,1-.11,1.69,1.54,1.54,0,0,1-2.39,1.1c-.87-.53-1.68-1.15-2.52-1.73-1.62-1.13-3.24-2.28-4.88-3.41-.33-.22-.41-.35-.07-.66a18.67,18.67,0,0,1,10-4.72C333.39,224.48,333.23,224.86,333.25,225.08Z"/><path class="cls-14" d="M316.86,242.81a18.8,18.8,0,0,1,2.51-9.24c.17-.29.29-.33.55-.1,1.66,1.49,3.35,2.95,5,4.44a15.75,15.75,0,0,1,1.85,1.71,1.5,1.5,0,0,1-.67,2.49c-1,.35-2,.6-3,.89l-5.61,1.61c-.5.14-.52.11-.54-.39S316.88,243.18,316.86,242.81Z"/><path class="cls-14" d="M354.33,243c0,.41-.09.82-.09,1.23s-.11.44-.47.34c-1.73-.51-3.47-1-5.2-1.49l-3-.87a5,5,0,0,1-.65-.23,1.51,1.51,0,0,1-.51-2.45c.8-.86,1.73-1.57,2.6-2.36,1.37-1.24,2.78-2.46,4.16-3.7.28-.25.41-.28.61.07a18.39,18.39,0,0,1,2.49,8.4C354.25,242.32,354.35,242.67,354.33,243Z"/><path class="cls-14" d="M335.56,261.41a20.59,20.59,0,0,1-5.52-.87c-.35-.11-.35-.24-.2-.51,1.45-2.58,2.88-5.17,4.35-7.74a1.58,1.58,0,0,1,2.86.08c.52.85,1,1.73,1.47,2.6.94,1.67,1.86,3.34,2.81,5,.21.36.12.5-.25.6a18.75,18.75,0,0,1-4.65.76C336.14,261.34,335.85,261.39,335.56,261.41Z"/><path class="cls-14" d="M327.39,247.66c1.29,0,2,.87,1.69,2a35.63,35.63,0,0,1-1.42,3.53c-.64,1.6-1.34,3.18-2,4.78-.15.37-.29.42-.63.19a18.49,18.49,0,0,1-6.81-8.43c-.21-.51-.2-.51.34-.6l8.44-1.43A2.3,2.3,0,0,1,327.39,247.66Z"/><path class="cls-14" d="M337.91,225.2c0-.67,0-.69.56-.61a18.92,18.92,0,0,1,9.15,4.13c.24.19.45.43.69.61s.23.36,0,.55c-1.32.91-2.62,1.83-3.93,2.75-1.07.75-2.14,1.52-3.22,2.25a1.65,1.65,0,0,1-2.39-.21,2.46,2.46,0,0,1-.36-1.44c-.11-1.92-.17-3.84-.32-5.76A14.41,14.41,0,0,0,337.91,225.2Z"/><polygon class="cls-14" points="334.42 240.38 332.96 242.18 333.49 244.44 335.59 245.44 337.7 244.44 338.22 242.18 336.76 240.38 334.42 240.38"/><path class="cls-15" d="M534.64,162.37c-5.7,0-11.41,0-17.12,0a8.5,8.5,0,0,1-8-4.65q-8.57-15.16-17.19-30.29a8.32,8.32,0,0,1,0-8.73l16.75-29.51c.35-.61.66-1.24,1.07-1.82a8.27,8.27,0,0,1,7.12-3.65c2.91,0,5.83,0,8.74,0q12.91,0,25.81,0a8.41,8.41,0,0,1,7.84,4.54l17.25,30.38a8.34,8.34,0,0,1,0,8.77q-8.71,15.36-17.44,30.7a8,8,0,0,1-7.36,4.25C546.3,162.38,540.47,162.37,534.64,162.37Zm0-18.72h11.5a.66.66,0,0,0,.69-.32q5.82-10,11.66-19.9a.65.65,0,0,0,0-.76q-5.81-9.9-11.6-19.82a.73.73,0,0,0-.71-.4H523.07a.65.65,0,0,0-.67.37q-5.77,9.87-11.56,19.72a.87.87,0,0,0,0,1q5.77,9.84,11.52,19.68a.74.74,0,0,0,.76.41Zm-26.22-24.38c.12-.19.19-.28.25-.39q5.74-9.84,11.48-19.7a.81.81,0,0,1,.82-.49c3.83,0,7.66,0,11.5,0h28.76c-.13-.24-.2-.39-.29-.54-1.48-2.62-3-5.21-4.45-7.86a5,5,0,0,0-4.93-2.84q-17.07.06-34.13,0a4.79,4.79,0,0,0-4.53,2.61c-3.44,6.1-6.92,12.18-10.39,18.26a.72.72,0,0,0,0,.85c1.54,2.61,3.06,5.23,4.59,7.84Zm36,28.12H521a.7.7,0,0,1-.74-.35c-1-1.76-2.06-3.5-3.08-5.26L500.34,113c-.07-.12-.16-.23-.26-.38l-.16.22c-1.49,2.63-3,5.26-4.47,7.91a4.58,4.58,0,0,0,.05,4.66c.9,1.62,1.83,3.23,2.75,4.84l10.15,17.8,4.64,8.17a4.47,4.47,0,0,0,4.13,2.38h20.19a.79.79,0,0,0,.79-.44c1.69-2.93,3.41-5.84,5.11-8.76C543.64,148.79,544,148.14,544.44,147.39Zm-2.08,11.2.6,0H552a4.58,4.58,0,0,0,4.28-2.5q8.67-15.26,17.36-30.49a4.84,4.84,0,0,0,0-5.13c-.95-1.65-1.89-3.31-2.84-5q-3.6-6.32-7.2-12.64a.75.75,0,0,0-.74-.44H551.62l-.56,0c.12.21.19.36.28.51q5.7,9.75,11.4,19.5a.93.93,0,0,1,0,1.09c-1.47,2.47-2.91,4.95-4.35,7.43l-15.57,26.74C542.67,158,542.54,158.27,542.36,158.59Z"/><path class="cls-15" d="M546,123a11.36,11.36,0,1,1-11.38-11.23A11.34,11.34,0,0,1,546,123ZM542.2,123a7.57,7.57,0,1,0-7.49,7.57A7.5,7.5,0,0,0,542.2,123Z"/></g></g></svg>