<svg xmlns="http://www.w3.org/2000/svg" viewBox="0 0 510 305"><defs><style>.cls-1{fill:#86fed4;}.cls-2{fill:#3f3a37;}.cls-3{fill:#fff;}.cls-4{fill:#2dfefe;}.cls-5,.cls-6{fill:none;stroke:#3f3a37;stroke-width:2px;}.cls-5{stroke-miterlimit:10;}.cls-6{stroke-linecap:round;stroke-linejoin:round;}.cls-7{fill:#575350;}</style></defs><title>Asset 14</title><g id="Layer_2" data-name="Layer 2"><g id="Layer_1-2" data-name="Layer 1"><rect class="cls-1" width="510" height="305"/><path class="cls-2" d="M245.69,182.77l-.17-.12-13-7.52-.12-.06a.16.16,0,0,1-.09-.15.56.56,0,0,0,0-.13V159.56l.19.1,12,6.9c.36.21.71.42,1.08.62a.2.2,0,0,1,.12.21.53.53,0,0,0,0,.13v15.25Z"/><path class="cls-2" d="M261.5,156.62l-1.72,1-11.45,6.64-.2.11c0-.08,0-.13,0-.18v-15.1a.23.23,0,0,1,.15-.26l4.91-2.84,8.15-4.72.17-.11Z"/><path class="cls-2" d="M216.43,132.19l13.4,7.77v15.45l-.17-.09-8.07-4.68-5-2.88a.32.32,0,0,1-.18-.32V132.19Z"/><path class="cls-2" d="M232.34,141.15l13.38,7.75v15.45l-.17-.09-13-7.55a.28.28,0,0,1-.17-.29V141.15Z"/><path class="cls-2" d="M318.74,133.23h.81c3.23,1.9,6.46,3.79,9.67,5.7a8.76,8.76,0,0,1,1.17.94v12.3a24.87,24.87,0,0,1-2,1.54c-1.35.86-2.75,1.65-4.25,2.55,1,.55,1,1.39,1,2.25,0,3.53,0,7.06,0,10.59a1.49,1.49,0,0,1-.81,1.45q-9.6,5.44-19.18,10.91a1.51,1.51,0,0,1-1.67,0q-9.7-5.49-19.43-11a1.46,1.46,0,0,1-.8-1.38q-.09-11.35-.21-22.72a1.54,1.54,0,0,1,.85-1.51q9.79-5.59,19.57-11.23a1.56,1.56,0,0,1,1.73,0c1.75,1,3.58,1.91,5.26,3a2.25,2.25,0,0,0,2.87-.06C315.05,135.43,316.92,134.36,318.74,133.23ZM285.55,148.3c0,.32,0,.47,0,.63,0,6.39,0,12.78,0,19.17a1.06,1.06,0,0,0,.69,1l16.19,9.13c.2.11.41.2.67.32,0-.25,0-.41,0-.57q0-9.58,0-19.16a1,1,0,0,0-.66-1l-15.95-9.06C286.23,148.66,286,148.52,285.55,148.3Zm37.56,11.26c-.46.25-.74.38-1,.54-2.35,1.31-4.7,2.63-7.06,3.93-1.12.61-1.93.14-1.95-1.11,0-.3,0-.6,0-.89v-8.19c-.33.17-.56.28-.78.41-2.08,1.2-4.15,2.42-6.24,3.59a1.19,1.19,0,0,0-.68,1.21c0,6.23,0,12.46,0,18.69,0,.26,0,.52,0,.74.1,0,.14.06.15.05l17.17-9.88a.78.78,0,0,0,.34-.56C323.12,165.31,323.11,162.54,323.11,159.56Zm-11.25-7.83c-.36-.22-.62-.39-.89-.54-2.31-1.34-4.62-2.67-6.93-4-1.15-.67-1.16-1.56,0-2.29s2.42-1.51,3.6-2.32a1.14,1.14,0,0,0,.47-.81c0-1.17-.1-2.37,1.47-2.91-1.67-1-3.19-1.84-4.68-2.75a1,1,0,0,0-1.24,0q-8.22,4.83-16.48,9.61c-.19.11-.36.25-.61.42l17.35,9.94a.82.82,0,0,0,.65,0C307,154.66,309.35,153.22,311.86,151.73Zm-.35-11.55c2.47,1.45,4.79,2.8,7.09,4.2a1,1,0,0,0,1.23,0c2.13-1.26,4.29-2.48,6.43-3.72.19-.11.37-.25.64-.43-2.52-1.48-5-2.91-7.4-4.31a.68.68,0,0,0-.59,0Zm16.57,2.13a2.72,2.72,0,0,0-.38.14c-2.31,1.33-4.63,2.65-6.92,4a1.16,1.16,0,0,0-.42.83c0,1.54,0,3.07,0,4.61v3.56a1.43,1.43,0,0,0,.32-.07c2.36-1.36,4.71-2.72,7.05-4.11a.88.88,0,0,0,.37-.62C328.09,147.91,328.08,145.16,328.08,142.31ZM318,155.45a1.21,1.21,0,0,0,.08-.3c0-2.67,0-5.34,0-8a1.15,1.15,0,0,0-.55-.76c-1.86-1.09-3.74-2.13-5.62-3.19-.48-.28-.94-.57-1.52-.93,0,2,0,3.86,0,5.71,0,.2.25.45.45.57.83.5,1.68,1,2.53,1.44,2.25,1.27,2,.83,2,3.33,0,.25,0,.62.2.72C316.31,154.54,317.14,155,318,155.45Zm2,3.34a2.16,2.16,0,0,1-2.16-.55c-.77-.57-1.57-1.08-2.43-1.66v4.92Zm-11.93-11.73v-2l-1.55,1Z"/><path class="cls-2" d="M355.87,154.68V165.8l-1.16-.38c-2-.67-4-1.35-6-2a.35.35,0,0,1-.3-.4q0-5.12,0-10.23v-.32Z"/><path class="cls-2" d="M403.16,150l-7.5-2.5V136.61l1.86.54,5.36,1.59c.17,0,.29.1.29.34q0,5.32,0,10.64Z"/><path class="cls-2" d="M357.84,168.32l7.48,2.21v11.13l-2.24-.75-5-1.66c-.18-.06-.26-.12-.26-.34,0-3.44,0-6.88,0-10.32C357.82,168.51,357.83,168.44,357.84,168.32Z"/><path class="cls-2" d="M367.28,181.65v-.33q0-5.22,0-10.44c0-.26.07-.36.33-.44l6.87-2,.32-.08v.32q0,5.11,0,10.23c0,.16,0,.28-.2.35l-7.11,2.37Z"/><path class="cls-2" d="M357.84,165.79V154.68l7.49-2.22v.32c0,3.41,0,6.82,0,10.23a.34.34,0,0,1-.28.39l-6.94,2.32Z"/><path class="cls-2" d="M405.11,150v-.35q0-5.24,0-10.46c0-.24.06-.34.29-.41l7-2.05a1.31,1.31,0,0,1,.25-.06v10.82Z"/><path class="cls-2" d="M374.76,165.8l-1.83-.61c-1.8-.6-3.6-1.21-5.41-1.8a.29.29,0,0,1-.24-.33V152.71c0-.06,0-.13,0-.24l1.52.45,5.73,1.69c.16,0,.25.1.24.29,0,3.58,0,7.15,0,10.73C374.78,165.67,374.77,165.71,374.76,165.8Z"/><path class="cls-2" d="M384.24,150l-2.52-.84L377,147.54c-.18-.06-.26-.13-.26-.34q0-5.16,0-10.32c0-.08,0-.15,0-.27l1.92.57,5.25,1.55a.37.37,0,0,1,.33.43c0,3.47,0,6.94,0,10.41Z"/><path class="cls-2" d="M386.2,149.94V139.15c0-.24.06-.35.3-.42,2.3-.66,4.59-1.35,6.88-2l.33-.09v.33l0,10.2c0,.24-.06.34-.29.41-2.3.76-4.59,1.54-6.88,2.31Z"/><path class="cls-2" d="M384.25,152.48v.35q0,5.08,0,10.17a.36.36,0,0,1-.3.41l-6.85,2.29-.32.09c0-.13,0-.23,0-.33q0-5.24,0-10.47a.34.34,0,0,1,.3-.4l6.93-2Z"/><path class="cls-2" d="M363.74,151.3l-3.61,1-2.94.78a1.33,1.33,0,0,1-.74,0l-6.34-1.7-.15-.05.28-.11c2.12-.66,4.23-1.33,6.35-2a.65.65,0,0,1,.39,0l6.63,2Z"/><path class="cls-2" d="M382.59,151.32l-4.24,1.13-2.37.62a.79.79,0,0,1-.37,0l-6.76-1.81c.17-.06.26-.1.35-.12l6.29-2a.75.75,0,0,1,.42,0l6.54,2,.15.06Z"/><path class="cls-2" d="M373.21,167.15l-3,.81-3.73,1a.67.67,0,0,1-.28,0l-6.77-1.81.32-.12,6.34-2a.78.78,0,0,1,.4,0l6.57,2Z"/><path class="cls-2" d="M397.24,135.42l3.56-1.12,3.07-1a.73.73,0,0,1,.36,0l6.69,2.06.07,0-.14.08-6.56,1.74a.66.66,0,0,1-.37,0l-6.45-1.73A1.61,1.61,0,0,1,397.24,135.42Z"/><path class="cls-2" d="M392.15,135.44l-2.36.63-4.36,1.15a1,1,0,0,1-.43,0l-6.47-1.73-.21-.08,1.37-.43,5.25-1.64a.75.75,0,0,1,.39,0l6.66,2.06S392,135.4,392.15,135.44Z"/><path class="cls-3" d="M189.21,175.36a29.56,29.56,0,0,1-3.33,2.32c-.54.32-.84.63-.46,1.24a.71.71,0,0,1,.07.63,2.74,2.74,0,0,0,.29,2.28,60.71,60.71,0,0,0,3.49,5.64,3.82,3.82,0,0,1,.75,2.84,2.82,2.82,0,0,1-2.08,2.4,3.12,3.12,0,0,1-3.16-1.45,11.45,11.45,0,0,1-1.16-2.86,31.32,31.32,0,0,0-1.91-5.13,1.76,1.76,0,0,0-.77-.92c-.59-.28-1.17-.53-1.39-1.23-.08-.26-.32-.15-.49-.08a34.84,34.84,0,0,1-7,1.77,38,38,0,0,1-9,.26A36,36,0,0,1,153.9,181c-.37-.13-.54,0-.67.27a1.67,1.67,0,0,1-1.07,1c-.8.3-1.07,1.08-1.37,1.78a54.58,54.58,0,0,0-1.88,5.44,5.42,5.42,0,0,1-1.61,2.69,2.74,2.74,0,0,1-4.43-1.38,3.84,3.84,0,0,1,.32-2.53c.74-1.53,1.9-2.78,2.7-4.26.38-.7.77-1.4,1.16-2.09a2.39,2.39,0,0,0,.3-2.31.79.79,0,0,1,.11-.76c.35-.56.13-.83-.38-1.15a36.69,36.69,0,0,1-15.24-19c-.21-.62-.44-1-1.16-.68a.64.64,0,0,1-.62-.11,2.73,2.73,0,0,0-2.41-.22,39.41,39.41,0,0,0-5.1,1.77,7.15,7.15,0,0,1-3.2.66,2.89,2.89,0,0,1-2.68-2.57,3.13,3.13,0,0,1,2.14-2.95,8.7,8.7,0,0,1,2.54-.46,30.37,30.37,0,0,0,5.77-.73,1.87,1.87,0,0,0,1.2-.6,2.23,2.23,0,0,1,1.47-1,.32.32,0,0,0,.29-.42,27.51,27.51,0,0,1-.36-4.44,20.26,20.26,0,0,1,.11-3.39,38.74,38.74,0,0,1,1.83-8.7,36.69,36.69,0,0,1,3.8-7.91c.29-.45.45-.76-.13-1.07a.8.8,0,0,1-.44-.64,2.72,2.72,0,0,0-1.45-2.12,34.54,34.54,0,0,0-4.51-2.84,9.14,9.14,0,0,1-1.88-1.33,3,3,0,0,1-.47-4.1,3,3,0,0,1,4.1-.34,13,13,0,0,1,2.25,2.14,26.09,26.09,0,0,0,3.82,3.61,1.93,1.93,0,0,0,1.75.46c.43-.13.65.24.94.43s.42.2.66,0A35.57,35.57,0,0,1,158,110.82a28.43,28.43,0,0,1,4.32-.72c.51,0,1-.12.92-.85a.71.71,0,0,1,.17-.53,3,3,0,0,0,.79-2.74,45.76,45.76,0,0,0-.64-5.71,4.31,4.31,0,0,1,.82-3.74,2.72,2.72,0,0,1,4.59.9,6.28,6.28,0,0,1,.11,3.69,30.33,30.33,0,0,0-.53,6,1.65,1.65,0,0,0,.51,1.24,1.36,1.36,0,0,1,.48,1.08c0,.49.24.62.65.66a35.83,35.83,0,0,1,16.15,5.77L205.9,96.36,192.63,90l-22-10.55a8.94,8.94,0,0,0-7.85-.21c-1.08.48-2.14,1-3.2,1.49L131.72,94.06l-16.32,7.81a8.87,8.87,0,0,0-3.9,3.62,14.83,14.83,0,0,0-1.4,4.36q-2.56,11.22-5.17,22.44c-2,8.51-3.9,17-5.88,25.52a9,9,0,0,0,1.11,7.51c.91,1.32,2,2.56,3,3.81,3.27,4.07,6.56,8.12,9.83,12.18s6.45,8.08,9.69,12.11l10.5,13a8.78,8.78,0,0,0,7.06,3.47c8.72,0,17.45,0,26.18,0s17.35,0,26,0a8.79,8.79,0,0,0,7.05-3.21c2.47-3,4.86-6,7.29-9l2.13-2.66Z"/><path class="cls-4" d="M207.43,172.43a28.76,28.76,0,0,1-3.33,2.33c-.53.32-.83.62-.46,1.24a.69.69,0,0,1,.07.62,2.74,2.74,0,0,0,.29,2.28,61.53,61.53,0,0,0,3.49,5.64,3.83,3.83,0,0,1,.76,2.84,2.83,2.83,0,0,1-2.09,2.4,3.11,3.11,0,0,1-3.15-1.45,11.18,11.18,0,0,1-1.17-2.86,30.29,30.29,0,0,0-1.9-5.12,1.88,1.88,0,0,0-.78-.93c-.59-.28-1.17-.52-1.39-1.22-.08-.27-.31-.15-.49-.09a34.77,34.77,0,0,1-6.95,1.78,38,38,0,0,1-9,.25,36,36,0,0,1-9.17-2.07c-.36-.13-.54,0-.67.26a1.66,1.66,0,0,1-1.07,1c-.79.29-1.07,1.08-1.36,1.78a52.15,52.15,0,0,0-1.88,5.44,5.54,5.54,0,0,1-1.61,2.68,2.74,2.74,0,0,1-4.43-1.38,3.79,3.79,0,0,1,.32-2.53c.73-1.53,1.89-2.78,2.7-4.26.38-.7.76-1.39,1.16-2.08a2.43,2.43,0,0,0,.29-2.32.8.8,0,0,1,.12-.76c.34-.55.13-.83-.39-1.15a36.72,36.72,0,0,1-15.24-19c-.21-.62-.44-1-1.16-.69a.6.6,0,0,1-.61-.11,2.75,2.75,0,0,0-2.42-.21,40.43,40.43,0,0,0-5.1,1.76,7.16,7.16,0,0,1-3.2.67,2.92,2.92,0,0,1-2.68-2.58,3.16,3.16,0,0,1,2.14-2.95,9.11,9.11,0,0,1,2.54-.46,30.16,30.16,0,0,0,5.77-.72,1.89,1.89,0,0,0,1.2-.61,2.21,2.21,0,0,1,1.48-1,.32.32,0,0,0,.28-.42,28.92,28.92,0,0,1-.36-4.45,21.23,21.23,0,0,1,.12-3.38,37.64,37.64,0,0,1,1.83-8.71,36.16,36.16,0,0,1,3.8-7.9c.28-.45.44-.77-.14-1.08a.76.76,0,0,1-.43-.63,2.76,2.76,0,0,0-1.45-2.12,33,33,0,0,0-4.52-2.84,9.23,9.23,0,0,1-1.87-1.34,2.87,2.87,0,1,1,3.63-4.43,13.28,13.28,0,0,1,2.24,2.13,26.78,26.78,0,0,0,3.83,3.62,1.9,1.9,0,0,0,1.74.45c.43-.12.65.25.94.43s.43.2.67-.05a35.53,35.53,0,0,1,17.92-10.17,27.43,27.43,0,0,1,4.32-.72c.52,0,1-.12.92-.85a.75.75,0,0,1,.17-.54,3,3,0,0,0,.8-2.74,45.76,45.76,0,0,0-.64-5.71,4.25,4.25,0,0,1,.81-3.73,2.73,2.73,0,0,1,4.6.9,6.27,6.27,0,0,1,.1,3.69,30.26,30.26,0,0,0-.53,6,1.72,1.72,0,0,0,.51,1.23,1.39,1.39,0,0,1,.48,1.08c0,.5.24.62.65.67A35.68,35.68,0,0,1,204.59,113l19.53-19.53-13.27-6.34-22-10.54a8.93,8.93,0,0,0-7.86-.21c-1.07.48-2.14,1-3.2,1.49L149.94,91.14l-16.31,7.8a9,9,0,0,0-3.91,3.62,14.9,14.9,0,0,0-1.39,4.36q-2.58,11.24-5.17,22.45-2.94,12.75-5.89,25.51a9,9,0,0,0,1.11,7.51c.92,1.33,2,2.56,3,3.82q4.91,6.09,9.82,12.18c3.24,4,6.46,8.07,9.7,12.1,3.49,4.35,7,8.69,10.49,13a8.77,8.77,0,0,0,7.06,3.48c8.73,0,17.45,0,26.18,0s17.36,0,26,0a8.8,8.8,0,0,0,7-3.22c2.48-3,4.87-6,7.29-9l2.13-2.66Z"/><path class="cls-5" d="M173.32,116.62c-.24,3.83-.47,7.59-.7,11.35a20.85,20.85,0,0,1-.17,2.73,2.4,2.4,0,0,1-3.61,1.78c-1.71-1-3.24-2.24-4.85-3.37-2.34-1.65-4.66-3.33-7-5-.46-.31-.36-.45,0-.76a28.59,28.59,0,0,1,14.38-7.32c.35-.07.71-.11,1.07-.16C173.34,115.75,173.34,115.75,173.32,116.62Z"/><path class="cls-5" d="M147.76,144.61a29.81,29.81,0,0,1,4-14.69c.2-.35.32-.47.68-.15,2.14,1.94,4.31,3.85,6.46,5.77,1.21,1.08,2.43,2.13,3.61,3.22.86.8,1.62,1.66,1.31,3a2.57,2.57,0,0,1-2,1.92c-4.42,1.29-8.85,2.54-13.28,3.82-.45.14-.59.07-.6-.41C147.85,146.17,147.79,145.25,147.76,144.61Z"/><path class="cls-5" d="M176.84,173.93a32.25,32.25,0,0,1-8.56-1.39c-.55-.17-.56-.31-.31-.76,1.66-3,3.3-6,5-9,.55-1,1.12-2,1.68-3,1.21-2.18,3.42-2.21,4.68,0,1.05,1.8,2,3.65,3.05,5.48,1.2,2.17,2.39,4.34,3.61,6.5.28.49.23.68-.32.83a28.89,28.89,0,0,1-7.43,1.24C177.75,173.81,177.29,173.89,176.84,173.93Z"/><path class="cls-5" d="M167,154.56a10.5,10.5,0,0,1-1.07,3.23c-1.47,3.6-3,7.19-4.45,10.79-.2.49-.35.6-.84.26a29.21,29.21,0,0,1-10.82-13.56c-.2-.51-.09-.65.42-.73,4.18-.7,8.35-1.43,12.53-2.13a4.31,4.31,0,0,1,3,.1A2.56,2.56,0,0,1,167,154.56Z"/><polygon class="cls-5" points="174.77 138.57 172.03 142.01 173 146.29 176.97 148.2 180.93 146.29 181.91 142.01 179.16 138.57 174.77 138.57"/><path class="cls-6" d="M199.74,173.49a28.76,28.76,0,0,1-3.33,2.33c-.54.32-.83.62-.46,1.24a.69.69,0,0,1,.07.62,2.74,2.74,0,0,0,.29,2.28,60.2,60.2,0,0,0,3.49,5.64,3.83,3.83,0,0,1,.76,2.84,2.83,2.83,0,0,1-2.09,2.4,3.11,3.11,0,0,1-3.15-1.45,11.18,11.18,0,0,1-1.17-2.86,30.33,30.33,0,0,0-1.91-5.12,1.82,1.82,0,0,0-.77-.93c-.59-.28-1.17-.52-1.39-1.22-.08-.27-.31-.15-.49-.09a34.69,34.69,0,0,1-7,1.78,38,38,0,0,1-9,.25,36,36,0,0,1-9.16-2.07c-.36-.13-.54,0-.67.26a1.66,1.66,0,0,1-1.07,1c-.79.29-1.07,1.08-1.37,1.78a54.53,54.53,0,0,0-1.87,5.44,5.54,5.54,0,0,1-1.61,2.68,2.74,2.74,0,0,1-4.43-1.38,3.85,3.85,0,0,1,.31-2.53c.74-1.53,1.9-2.78,2.71-4.26.38-.7.76-1.39,1.15-2.08a2.41,2.41,0,0,0,.3-2.32.8.8,0,0,1,.12-.76c.34-.55.13-.83-.39-1.15a35.32,35.32,0,0,1-7.2-5.86,35.74,35.74,0,0,1-8-13.12c-.21-.62-.44-1-1.16-.68a.62.62,0,0,1-.61-.12,2.75,2.75,0,0,0-2.42-.21,39.89,39.89,0,0,0-5.1,1.76,7.16,7.16,0,0,1-3.2.67,2.92,2.92,0,0,1-2.68-2.58,3.15,3.15,0,0,1,2.14-2.95,9.11,9.11,0,0,1,2.54-.46,30.26,30.26,0,0,0,5.77-.72,1.84,1.84,0,0,0,1.2-.61,2.21,2.21,0,0,1,1.48-1,.32.32,0,0,0,.28-.42,28.92,28.92,0,0,1-.36-4.45,21.23,21.23,0,0,1,.12-3.38,37.64,37.64,0,0,1,1.83-8.71A36.38,36.38,0,0,1,146,125c.28-.45.44-.77-.14-1.08a.76.76,0,0,1-.43-.63,2.76,2.76,0,0,0-1.45-2.12,33.62,33.62,0,0,0-4.52-2.84,9.23,9.23,0,0,1-1.87-1.34,2.86,2.86,0,1,1,3.62-4.43,13,13,0,0,1,2.25,2.13,26.78,26.78,0,0,0,3.83,3.62,1.9,1.9,0,0,0,1.74.45c.43-.12.65.25.94.43s.43.2.67-.05A35.49,35.49,0,0,1,168.56,109a27.24,27.24,0,0,1,4.32-.72c.52,0,1-.12.92-.85a.75.75,0,0,1,.17-.54,3,3,0,0,0,.8-2.74,49.45,49.45,0,0,0-.64-5.7,4.27,4.27,0,0,1,.81-3.74,2.73,2.73,0,0,1,4.6.9,6.35,6.35,0,0,1,.1,3.69,30.26,30.26,0,0,0-.53,6,1.72,1.72,0,0,0,.51,1.23,1.39,1.39,0,0,1,.48,1.08c0,.5.24.62.65.67A35.72,35.72,0,0,1,196.9,114l19.53-19.53-13.27-6.34-22-10.54a8.93,8.93,0,0,0-7.86-.21c-1.07.48-2.14,1-3.2,1.49L142.25,92.2,125.94,100a9,9,0,0,0-3.91,3.62,14.61,14.61,0,0,0-1.39,4.36q-2.58,11.24-5.17,22.45c-2,8.5-3.91,17-5.89,25.51a9,9,0,0,0,1.11,7.51c.92,1.33,2,2.56,3,3.82,3.27,4.06,6.56,8.11,9.83,12.18s6.46,8.07,9.69,12.1l10.5,13a8.77,8.77,0,0,0,7.06,3.48c8.73,0,17.45,0,26.18,0s17.36,0,26,0a8.8,8.8,0,0,0,7-3.22c2.48-3,4.87-6,7.29-9l2.13-2.66Z"/><path class="cls-5" d="M181,123.22c.12,2.45.21,4.9.44,7.34a2.25,2.25,0,0,0,1.35,1.94l10.38-12a28.74,28.74,0,0,0-11.59-4.57c-1-.16-1-.19-1,.6C180.71,118.81,180.87,121,181,123.22Z"/><polygon class="cls-7" points="179.76 148.1 179.73 148.27 180.01 147.97 179.76 148.1"/><path class="cls-7" d="M179.08,149.48l.22,0a5.32,5.32,0,0,0,1-1.41,2.44,2.44,0,0,0-.86.67c.07,0,.43-.3.39-.14-.25.24-.28.15-.6.47-.15.36.25-.17.24.05Z"/><path class="cls-7" d="M180,148.69c-.15.15-.29.29-.4.42C179.73,149,180,148.82,180,148.69Z"/><path class="cls-7" d="M180.13,148.66c0,.09-.29.32-.33.38l.59-.51Z"/><path class="cls-7" d="M180.37,148.94l.08,0C180.52,148.82,180.45,148.89,180.37,148.94Z"/><path class="cls-7" d="M180.57,149c.15-.22,0-.13-.12-.08l0,0c-.11.2-.52.57-.48.41-.14,0,.23-.36-.07-.15l-.23.39C179.78,149.65,180.38,149.12,180.57,149Z"/><path class="cls-7" d="M180.37,148.94h-.06C180.27,149,180.31,149,180.37,148.94Z"/><polygon class="cls-7" points="180.28 148.77 180.17 148.82 180.02 149 180.28 148.77"/><path class="cls-7" d="M180.82,149.18c-.53.52-.1-.21-.52.2.11.06-.21.51-.51.79l.25-.08A4.47,4.47,0,0,0,180.82,149.18Z"/><path class="cls-7" d="M179.67,150.7l.11-.07Z"/><path class="cls-7" d="M181,150.26l-.75.31c.2-.15.36-.32.47-.33,0-.17-.38.15-.4,0,.47-.51.17.11.57-.37-.07,0-.18-.11-.63.27l.24-.43-.51.57c-.12.19.5-.35.14,0a.8.8,0,0,1-.37.28c.16,0-.28.56-.11.6S180.69,150.43,181,150.26Z"/><polygon class="cls-7" points="180.43 150.84 180.23 151.06 180.51 150.78 180.43 150.84"/><path class="cls-7" d="M181.38,150.41l-.46.21c0-.06.15-.18.24-.28-.12.12-.37.3-.47.4-.45.52.29,0,.44,0-.08.37-.28.24-.71.74,0,0,.1-.17.07-.26-.48.62.16.26.36.2,0-.07.19-.22.11-.21l.23-.08C181.53,150.66,181.59,150.5,181.38,150.41Z"/><path class="cls-7" d="M181.18,150.2c.08,0,.06.06,0,.13C181.3,150.19,181.38,150.09,181.18,150.2Z"/><path class="cls-7" d="M180.89,151.41s0,0,0,0S180.84,151.43,180.89,151.41Z"/><path class="cls-7" d="M181.44,150.8l0,.13.22-.25A.37.37,0,0,0,181.44,150.8Z"/><path class="cls-7" d="M183.17,154.75c.22-.17.31-.28.22-.32.31-.2.32-.07.52-.15s.37-.24.65-.47c0-.13-.48.1-.47-.07a2,2,0,0,0,.32-.24c-.29,0-.73,0-.57-.34s-.18-.2-.42-.24c-.18-.57-.83-.79-.94-1.47l-.61.39c.26-.25-.09-.1.28-.39-.05.08,0,.06.06.08.41-.5-.25-.23-.18-.49a3.61,3.61,0,0,1-.67.57c.63-.52-.12-.13.55-.77.07-.27-.54.46-.54.26-.37.3-.08.26-.33.52s0-.21-.34.13c0,.33,1,0,1.48.16l-.37.25c.37,0,.58.2.1.77.32-.29,0,.36.75-.25-.15.18-.11.17-.14.28l.26-.18c.06.09-.33.36-.24.44a2.36,2.36,0,0,1,.74-.5l-.77,1.07a3.19,3.19,0,0,0,.34-.32c-.07.15.25-.1.37-.16s-.38.36-.6.51c-.05.21.82-.33.6,0l.33-.27c.17.05-.14.43.07.48-.44.4-.49.18-.74.27-.08.1-.07.17-.22.3l1-.34C183,154.53,183.17,154.68,183.17,154.75Z"/><path class="cls-7" d="M182.66,154.55l-.21.1s.08,0,.07,0A.58.58,0,0,0,182.66,154.55Z"/><path class="cls-7" d="M183.17,154.75l-.06,0S183.17,154.77,183.17,154.75Z"/><path class="cls-7" d="M183.86,153.12s0,0,0,0,0,0,0,0Z"/><path class="cls-7" d="M182.21,154.16c.1-.11.2-.24.3-.37C182.36,153.92,182.24,154,182.21,154.16Z"/><path class="cls-7" d="M182,153.1a1.79,1.79,0,0,0-.29.18C181.75,153.34,181.87,153.27,182,153.1Z"/><polygon class="cls-7" points="182.68 154.76 182.85 154.78 182.97 154.76 182.68 154.76"/><path class="cls-7" d="M185.93,155.63c.37-.37,0-.34,0-.51-.36-.07-.95.58-1.13.41l.9-.54c-.18-.16-.19-.57-1.07-.23a.8.8,0,0,1,.37-.24c-.13-.11-1.3.76-1.12.4.65-.21.48-.4,1-.72l.08,0c-.13-.07-.52,0-.53-.13-.23.15-.53.45-.62.37a2.07,2.07,0,0,1-.51.38c.31-.07.2.09.53-.05-.25.25-.11,0-.37.28l.33-.11c0,.11-.34.14-.34.27.18-.1.42-.15.43-.05l-.12,0c.16,0,.06.16.54-.19l-.45.38.33-.23c0,.24-.79.82-.25.75a.65.65,0,0,1,.36-.21c.18-.23-.32.07-.42,0,.33-.23.82-.36.95-.59-.32.37.19.17-.62.76,0,.16.47-.06.36.2l-.13.07c.57-.33-.18.27.45,0L185,156c.23-.14.26-.11.33-.09a.92.92,0,0,0-.19.13c.41-.24.57-.13.7-.19s-.36,0-.5,0C185.62,155.75,186,155.52,185.93,155.63Z"/><path class="cls-7" d="M183.61,155.27l.22-.09A.89.89,0,0,0,183.61,155.27Z"/><path class="cls-7" d="M185.59,156.66c0,.14-.36.19-.49.38.33-.09.51-.45,1-.64-.21.21.26,0,.29.06a6,6,0,0,0-.88.55c.17-.06-.05.17,0,.24.26-.35.28,0,.57-.37.32-.18.63-.2.42,0s-.21.07-.24,0c-.45.24-.18.23-.57.5.69-.25.9.18,1.8-.54.16-.16-.1,0-.17-.07-.11.25-.52.32-.7.42.12-.16-.24-.06.12-.26l.42-.13a1.3,1.3,0,0,0-.67-1l.08.16a.93.93,0,0,1-.5.11l-.59.48c0-.07-.1-.05.13-.19a2.07,2.07,0,0,0-.65.41c-.18,0,.06-.21-.41,0-.41.5.53-.13.2.36Z"/><polygon class="cls-7" points="185 156.5 185.34 156.33 185.15 156.37 185 156.5"/><path class="cls-7" d="M186.44,155.67c-.13.09-.21.11-.35.2S186.23,155.88,186.44,155.67Z"/><path class="cls-7" d="M185.67,157.54l.18,0,.08-.15A.55.55,0,0,1,185.67,157.54Z"/><path class="cls-7" d="M187.81,157.25c-.16-.11-.5,0-.27-.35a9.36,9.36,0,0,0-1.17.73c0,.14.66-.32.85-.31-.34.25.16.07.13.21A2.46,2.46,0,0,1,187.81,157.25Z"/><path class="cls-7" d="M186.74,158.62c0,.08.37,0,.23.13s-.34.15-.31.07c-.5.34.13,0-.17.31a.81.81,0,0,1,.25-.17c0,.26.48-.16.34.26a1.44,1.44,0,0,0,.52-.24,6.35,6.35,0,0,0-.67.73c.2-.13.62-.47,1-.73-.46.6.23.18-.13.6,0,0-.15,0-.12,0-.59.4.18.06.12.21l-.52.32c.13,0,.55-.06.23.27l-.27.14c.51-.06.47.28.77.32l-.26.29c.53,0,0-.34.9-.65-.92.61.38-.08.09.28s-.28,0-.66.33c.49-.27.18,0,.36,0-.46.28,0,.18-.51.47l1-.3c-.23.2-.14.24-.05.25-.07-.13.7-.39.82-.67-.35-.07-.73-.32-.66-.73-.64.36-.1-.18-.63.1l.55-.39c-.24-.08-.32.25-.57.36s.21-.32.44-.46c-.05-.14-.18.1-.56.25l.64-.51c-.45-.25-1.23-.46-1.11-1.14l-.41.3c.12-.34-1.16.27-.34-.48l-.41.17c.23-.09.63-.43.95-.56-.18,0,0-.12-.22-.1l-.14.23c-.41.16-.23-.06.07-.28-.52.13-.69.55-1,.81.92-.29-.65.69-.19.68S186.51,158.76,186.74,158.62Z"/><path class="cls-7" d="M187.76,157.64l-.13,0Z"/><path class="cls-7" d="M188.92,161.44s0,0,.07,0S189,161.45,188.92,161.44Z"/><polygon class="cls-7" points="187.35 157.53 187.34 157.53 187.35 157.53 187.35 157.53"/><polygon class="cls-7" points="186.23 158.09 186.25 158.15 186.44 158.02 186.23 158.09"/><path class="cls-7" d="M188.76,162.36l.22-.14Z"/><path class="cls-7" d="M189.64,164l0,0S189.61,164,189.64,164Z"/><path class="cls-7" d="M192.6,167.37a1.49,1.49,0,0,0,.83-.14l-.22.15a1.42,1.42,0,0,0,.92-.49l-.21.11c-.41.11.3-.35.37-.54-.19,0-1,.47-.93.23-.06,0,.17-.18.34-.28,0-.15-.67.26-.8.24,1.62-1.18-.68,0,.26-.89-.2,0-.14-.23-.56-.13.46-.22,0-.15.44-.44-1,.63.19-.66-1,.16.22-.41-.09.05.06-.35.14-.09.16-.06.19-.06.2-.25-.6.24-.09-.21,0-.22-.34.2-.73.33,0-.27.22-.33.67-.76-.59.38-.38.09-.74.21a.41.41,0,0,1-.32.31c0-.26-.49.1-.77,0,.59-.53.14.16.55-.34a2.23,2.23,0,0,0,.91-.23c-.07-.18-.29-.29-.68-.28,0-.15.34-.16.35-.27.18-.35-.83.19-.63-.14l.35-.19c-.49.21-.09-.36-.44-.35a1.5,1.5,0,0,1-.38.27c.84-.55-.58.07-.09-.47-.52.36-.92.41-1,.35a3.16,3.16,0,0,1,.49-.35c-.21.35.69-.24,1-.28-.34.08-.16-.27-.61-.11l.44-.23c0-.18-1,.49-.72.08l.32-.18c-.24-.27.09-1-.75-.76a12.22,12.22,0,0,0-1,.78c.31,0,.82-.21,1.11-.24l-.49.31c.35-.19.63-.19.84-.43.31-.07-.38.34,0,.27-.51.31-.6.29-1,.56l.3-.07c-.21.1-.13.16-.35.26.72-.23-.09.38.3.37l0-.15c.29-.18.29-.11.4-.12a1.09,1.09,0,0,0-.41.5c.27-.07.8-.36.86-.26-.54.33-.17.36-.61.67.54-.32.31.07.63-.11.14,0,.13.09-.15.27a.2.2,0,0,1-.11,0v.07l-.12.07c0,.05.4-.2.18,0a.28.28,0,0,1-.23.07c0,.19,1-.31.54.12.26-.15.38,0,.92-.42-.17.17-.63.45-.48.51.52-.25-.09.23.27.11-.57.23-.14.09-.68.32-.15.2.56-.12.56.07l-.35.27c.2-.07.62-.27.26,0l.33-.23c-.11.2.08.25-.23.59l.71-.32c-.57.6.16.38.82.1a.45.45,0,0,1-.2.32l-.27.11c0,.09-.26.43.3.11.21,0-.33.31-.37.43.85-.35-.21.85.94.12,0-.07.1-.35,0-.44.16-.06.37-.24.42-.22s-.23.45,0,.44l-.72.49C191.68,167.48,193.5,166.48,192.6,167.37Z"/><path class="cls-7" d="M191.5,165.75l-.3.35.3-.23C191.43,165.88,191.41,165.85,191.5,165.75Z"/><path class="cls-7" d="M191.5,165.87a.74.74,0,0,0,.18,0s0,0-.1,0Z"/><path class="cls-7" d="M193,167.64s0,.12.07.11S193.1,167.59,193,167.64Z"/><polygon class="cls-7" points="193.27 167.59 193.35 167.47 193.26 167.52 193.27 167.59"/><path class="cls-7" d="M195.81,169.72l.52-.19c-.19.19.19.14-.22.38.56-.31.22.25.88-.38-.56-.21-.56-1.09-1.57-1.07l.35-.15c-.76.19.38-.81-.91-.15l.61-.41c.08-.24-1,.41-.48-.17l-.23.19s.07-.12.05-.15l-.1.09c-.3.09-.31,0-.2-.18s.11,0,.18,0c.16-.18-.29,0-.33,0a.84.84,0,0,1,.36-.25c-.41,0,.16-.55-.83,0-.17.11-.27.27-.4.26-.18.33.24.18.57.12l0,0c.93-.54-.14.21.34.08a6,6,0,0,1-.63.27c-.53.65.68-.13-.07.61h0c-.06.09.13,0,.24,0a1.68,1.68,0,0,0,.19-.26,4.18,4.18,0,0,0,.67-.39c-.35.33.23-.08.09.13-.34.29-.37.18-.57.3l.3-.1c.08.06-.33.36-.49.54.31-.13.16-.18.57-.4-.37.4,0,.66.48.57-.09,0-.39.26-.38.15-.06.09.19,0,.45-.16s.27.2.1.5l.25-.24c.51-.25-.16.48.22.44h0c.09,0,.77-.45.71-.26A4.53,4.53,0,0,0,195.81,169.72Z"/><path class="cls-7" d="M196.85,169.78l-.41.24c0,.12.49-.18.72-.38-.11,0,0-.15-.2,0C196.91,169.69,196.78,169.8,196.85,169.78Z"/><path class="cls-7" d="M197.74,170.76a3.19,3.19,0,0,0,.33-.25c-.22-.17-.58-.32-.36-.63,0-.16-.51.27-.71.28l.33-.34c-.27.14,0-.34-.56.2,0,0,.32-.18.25-.06l-.21.16.15,0-.29.18c-.26.44.86-.53.75-.17l-.52.42c.06.13.28,0,0,.4,0,0,.26-.21.14-.15a2.16,2.16,0,0,1,.37-.35c.54-.17-.33.23-.45.52.48-.15,1-.13.64.29.26-.33.67-.5.71-.4a2.27,2.27,0,0,1-.5.35c0,.08-.12.22,0,.19a2.25,2.25,0,0,1,.9-.64C198.9,170.35,197.83,171,197.74,170.76Z"/><path class="cls-7" d="M198.22,170.45s-.09,0-.15.06l.08.07Z"/><polygon class="cls-7" points="191.1 119.08 191.24 119.13 190.88 118.93 191.1 119.08"/><path class="cls-7" d="M192.44,119.72l-.14-.11c-1-.57-.73-.42-1.5-.79.15.1.5.34.91.56,0,0-.43-.27-.29-.22.29.18.25.17.63.4s-.24-.16-.08-.11Z"/><path class="cls-7" d="M191.42,119.11l.5.28A4.7,4.7,0,0,0,191.42,119.11Z"/><path class="cls-7" d="M191.33,119a3.89,3.89,0,0,1,.44.24l-.66-.4Z"/><path class="cls-7" d="M191.42,119l-.06,0C191.25,118.88,191.34,118.93,191.42,119Z"/><path class="cls-7" d="M191.36,118.89c-.24-.12-.1,0,0,0l0,0c.2.1.67.38.53.32.1.08-.37-.19-.07,0l.4.2C192.22,119.42,191.54,119,191.36,118.89Z"/><path class="cls-7" d="M191.42,119l0,0C191.52,119,191.47,119,191.42,119Z"/><polygon class="cls-7" points="191.34 118.98 191.43 119.05 191.63 119.16 191.34 118.98"/><path class="cls-7" d="M191.36,118.81c.64.38-.1,0,.4.3a4.63,4.63,0,0,1,.82.43l-.19-.14C192.16,119.25,191.67,119,191.36,118.81Z"/><path class="cls-7" d="M193,119.72l-.11-.07Z"/><path class="cls-7" d="M192,118.93l.61.45c-.21-.13-.41-.25-.48-.31s.31.23.23.21c-.6-.35,0-.06-.56-.37,0,0,0,.07.52.38l-.42-.22.66.38c.2.1-.5-.32,0-.06a3.38,3.38,0,0,1,.39.25c-.12-.09.54.27.47.19S192.29,119.14,192,118.93Z"/><polygon class="cls-7" points="192.7 119.36 192.96 119.52 192.62 119.31 192.7 119.36"/><path class="cls-7" d="M191.9,118.78l.38.28-.31-.18.52.33c.6.34-.16-.15-.25-.23a8.5,8.5,0,0,1,.88.52s-.17-.09-.22-.09c.68.38.09,0-.06-.15s-.25-.14-.2-.1l-.18-.14C192,118.76,191.85,118.7,191.9,118.78Z"/><path class="cls-7" d="M191.87,118.84s0,0,.09,0C191.8,118.78,191.68,118.72,191.87,118.84Z"/><path class="cls-7" d="M192.83,119.24s0,0,0,0S192.87,119.28,192.83,119.24Z"/><path class="cls-7" d="M192.12,118.83l.07,0-.28-.17Z"/><path class="cls-7" d="M193.52,118.63c-.23-.16-.34-.24-.31-.19a3.77,3.77,0,0,1-.39-.33,8,8,0,0,1-.66-.47s.34.3.24.27l-.32-.23c.17.17.41.42.13.27s0,.07.11.2c-.24,0,0,.33-.36.25l.6.41c-.31-.19,0,0-.41-.23.08,0,0,0,0,0-.55-.31,0,.1-.21,0,.11.06.65.4.74.47-.68-.44,0,0-.8-.45-.21-.09.6.38.47.34.4.26.21.09.52.28s-.15-.06.27.21c.23.08-.55-.54-.73-.76l.37.25c-.24-.21-.21-.29.41.09-.36-.23.23.07-.58-.46a.93.93,0,0,0,.24.12l-.25-.17s.41.25.4.21c-.36-.22-.45-.3-.73-.5l1.08.63-.39-.26c.14.07-.2-.15-.31-.24s.44.29.66.44-.68-.53-.39-.35l-.35-.24c-.07-.09.33.16.24,0a3.55,3.55,0,0,1,.59.47l.3.18-.77-.62C193.49,118.67,193.48,118.61,193.52,118.63Z"/><path class="cls-7" d="M193.71,118.88l.19.15s-.06,0,0,0Z"/><path class="cls-7" d="M193.52,118.63l.06,0S193.54,118.63,193.52,118.63Z"/><path class="cls-7" d="M192.18,117.93l0,0h0Z"/><path class="cls-7" d="M193.76,119.07l-.4-.24A3.47,3.47,0,0,0,193.76,119.07Z"/><path class="cls-7" d="M193.24,119l.28.2A1.18,1.18,0,0,0,193.24,119Z"/><polygon class="cls-7" points="193.82 118.92 193.73 118.82 193.65 118.75 193.82 118.92"/><path class="cls-7" d="M192.38,117.13c-.42-.3-.2-.07-.3-.11.18.21.88.69.9.77l-.83-.65c0,.09-.21,0,.5.61a2.63,2.63,0,0,1-.35-.26c0,.06,1.19.91.88.74-.5-.42-.51-.36-1-.75l-.06,0c0,.06.29.3.24.29a5.69,5.69,0,0,1,.58.43l.51.37a3.67,3.67,0,0,0-.34-.32l.37.27-.25-.21c.08,0,.28.22.35.24-.16-.12-.33-.27-.28-.26l.09.08c-.1-.1,0,0-.42-.35l.47.33-.32-.24c.15.06.92.63.56.29a2.54,2.54,0,0,1-.33-.26c-.23-.15.23.21.26.26-.32-.24-.68-.56-.89-.68a4.08,4.08,0,0,1,.79.51c.07,0-.31-.29-.11-.18l.12.09c-.52-.4.25.16-.27-.27l-.12-.08a1.14,1.14,0,0,1-.25-.21l.19.14a5.63,5.63,0,0,1-.52-.47c-.08,0,.22.22.31.31A4.33,4.33,0,0,1,192.38,117.13Z"/><path class="cls-7" d="M193.55,118.46l-.18-.14Z"/><path class="cls-7" d="M193.14,117.52c.09,0,.31.26.49.37-.25-.22-.55-.4-.92-.73.23.17-.14-.16-.14-.17.21.18.71.58.81.65-.13-.11.13.07.15.07-.33-.22-.17-.17-.52-.42s-.48-.44-.25-.27.16.15.16.16c.39.33.23.16.59.45a12.38,12.38,0,0,0-1.32-1.24c-.18-.13,0,.06.06.1a4,4,0,0,1,.62.52c-.15-.11.11.14-.2-.12l-.31-.29c-.22-.08-.23.07-.16.25l0,0a2.5,2.5,0,0,1,.35.32l.61.46c-.06,0,0,0-.18-.12a7,7,0,0,0,.6.48c.09.1-.15-.07.23.25s-.38-.35.08,0Z"/><polygon class="cls-7" points="193.4 117.86 193.1 117.61 193.24 117.74 193.4 117.86"/><path class="cls-7" d="M192.1,116.81l.32.26C192.52,117.12,192.33,117,192.1,116.81Z"/><path class="cls-7" d="M193.56,117.63l-.09-.11-.12-.08Z"/><path class="cls-7" d="M192.18,116.21c0,.08.29.32,0,.11.37.34.72.59,1.06.88.1.06-.55-.48-.65-.6.33.27-.05-.09,0,0Z"/><path class="cls-7" d="M193.51,117.16s-.22-.24-.06-.12.27.25.21.21c.46.39-.06-.08.26.17l-.23-.19c.14.06-.36-.35-.05-.17-.12-.11-.11-.12-.42-.38.41.31.4.32.76.58l-1-.84c.57.43,0-.11.39.21,0,0,.11.11,0,.08.53.46-.07-.11.05,0l.44.41c-.06-.08-.32-.37,0-.09l.22.2c-.31-.34-.11-.24-.25-.43l.29.24c-.29-.36-.19-.1-.82-.75.81.76-.24-.27.1,0s.15.18.53.52c-.41-.4-.11-.13-.22-.26.39.38.08,0,.51.45l-.67-.73c.23.2.2.15.16.09s-.57-.56-.78-.7c.14.22.21.41-.05.28.53.51,0,0,.39.44l-.5-.45c.09.15.31.27.49.46s-.27-.2-.47-.39c0,0,.15.14.43.43l-.61-.53c.1.25.42.71,0,.5l.39.33c-.25-.14.79.8-.06.13l.32.29-.84-.72c.12.13,0,0,.07.13l.21.13c.31.3.1.14-.2-.1a12.64,12.64,0,0,0,1,.82c-.68-.65.73.55.47.26A4.84,4.84,0,0,0,193.51,117.16Z"/><path class="cls-7" d="M192.41,116.31l.1.09Z"/><path class="cls-7" d="M193.81,116.33a.08.08,0,0,0,0,0C193.71,116.2,193.77,116.27,193.81,116.33Z"/><polygon class="cls-7" points="192.59 116.56 192.59 116.56 192.59 116.56 192.59 116.56"/><polygon class="cls-7" points="193.52 117.38 193.54 117.38 193.36 117.23 193.52 117.38"/><path class="cls-7" d="M194.37,116.66l-.19-.19Z"/><path class="cls-7" d="M194.77,116.49h0S194.78,116.51,194.77,116.49Z"/><path class="cls-7" d="M195.14,115.42a4.2,4.2,0,0,0-.41-.63l.17.2a6.44,6.44,0,0,0-.63-.82l.14.19c.22.33-.3-.33-.43-.44.05.12.67.91.49.74a2.27,2.27,0,0,1-.28-.33c-.07,0,.41.56.46.65-1.31-1.53.28.48-.58-.47.08.15-.06,0,.17.37-.32-.4-.06,0-.42-.45.76.89-.43-.32.54.8-.31-.28.06.07-.21-.15a.58.58,0,0,1-.12-.16c-.22-.21.39.5-.07,0-.11-.05.26.3.5.61a6.29,6.29,0,0,1-.7-.69,4.34,4.34,0,0,1,.45.58,1.53,1.53,0,0,1,.31.31c-.12,0,.28.37.37.55-.54-.56,0-.05-.43-.48-.22-.28-.17-.27-.54-.7-.07,0,0,.13.17.4-.1-.06-.24-.28-.31-.32-.27-.21.49.63.23.41l-.27-.3c.35.4-.15,0,0,.22a4.57,4.57,0,0,1,.32.33c-.7-.72.33.42-.2-.06a6,6,0,0,1,.7.8l-.43-.42c.29.24-.46-.53-.64-.76.21.25-.07,0,.24.39l-.34-.36c-.09,0,.77.82.4.51l-.25-.26c0,.1-.57-.29,0,.33l.91.85c-.16-.2-.52-.59-.69-.8l.41.4c-.28-.28-.42-.47-.65-.67s.37.34.16.09l.81.84-.19-.23c.16.17.15.14.31.31-.48-.55.24.15,0-.11l-.09-.06a1.43,1.43,0,0,1-.26-.3,3.84,3.84,0,0,0,.46.41,8.35,8.35,0,0,1-.56-.66c.44.46.27.22.65.6-.44-.46-.12-.2-.37-.46-.08-.11,0-.07.21.17l.07.09h0l.09.1s-.3-.33-.07-.12a1.56,1.56,0,0,1,.15.18c.1.06-.62-.74-.2-.33-.21-.23-.19-.27-.66-.76.17.17.53.56.49.47-.38-.42.16.13-.07-.15l.48.56c.18.16-.32-.42-.22-.37l.3.32c-.13-.16-.43-.51-.11-.17l-.27-.3a2,2,0,0,1,.41.34l-.49-.59c.57.58.13,0-.31-.55a1.54,1.54,0,0,1,.25.24l.18.22s.34.32-.07-.17c-.11-.16.3.32.38.39-.55-.71.53.42-.35-.64,0,0-.23-.17-.21-.1-.11-.14-.29-.33-.3-.37s.34.3.22.11l.56.67C195.59,116.12,194.31,114.49,195.14,115.42Z"/><path class="cls-7" d="M194.79,115.7l.31.31-.25-.28S194.88,115.79,194.79,115.7Z"/><path class="cls-7" d="M194.85,115.73l-.1-.14s0,0,0,.07Z"/><path class="cls-7" d="M195.12,115.24s.08.07,0,0S195.05,115.14,195.12,115.24Z"/><polygon class="cls-7" points="194.98 115.02 194.89 114.92 194.95 115 194.98 115.02"/><path class="cls-7" d="M195.13,114l-.27-.46c.16.22,0-.08.27.31-.35-.53.06-.06-.49-.79.08.33-.4,0,0,.75l-.2-.3c.38.62-.57-.56.25.61l-.44-.58c-.16-.15.59.88.08.29l.19.23s-.09-.1-.1-.09l.09.1c.16.25.12.23,0,.09s-.06-.09-.09-.14.14.22.12.23a3.18,3.18,0,0,1-.27-.34c.16.29-.35-.3.3.59a4.28,4.28,0,0,1,.3.36c.24.25,0-.11-.17-.36h0c-.65-.85.16.18-.09-.21.26.35.24.35.38.54.55.61-.33-.53.35.27l0,0c.07.07-.05-.09-.1-.18l-.21-.22c-.05-.09-.33-.46-.45-.62.3.36-.13-.19,0,0,.28.34.23.33.37.51l-.16-.24a5.44,5.44,0,0,1,.46.54c-.19-.28-.15-.18-.43-.56.36.41.34.23.13-.14,0,.06.28.37.22.33s0-.12-.25-.39,0-.12.22.11l-.21-.26c-.31-.48.31.29.15,0h0c0-.07-.51-.74-.38-.62C194.93,113.64,194.9,113.62,195.13,114Z"/><path class="cls-7" d="M194.83,113.21l.25.39a4.41,4.41,0,0,0-.43-.67c0,.09-.09-.07.07.15C194.76,113.13,194.86,113.27,194.83,113.21Z"/><path class="cls-7" d="M195.07,113l-.23-.34c0,.09,0,.29-.23,0-.1-.1.3.48.37.63l-.29-.38c.16.26-.18-.13.29.49,0,.06-.2-.31-.11-.2l.15.22,0-.1.19.28c.3.37-.55-.84-.33-.62l.38.56c.06,0-.06-.19.2.13,0,0-.19-.28-.12-.17a3.37,3.37,0,0,1-.3-.41c-.25-.46.22.34.41.54-.22-.4-.36-.78,0-.34a2.69,2.69,0,0,1-.41-.69c.14.19.21.34.32.51s.15.19.11.1a8.39,8.39,0,0,1-.59-.93C194.52,111.93,195.16,113,195.07,113Z"/><path class="cls-7" d="M194.77,112.47a.59.59,0,0,0,.07.14s0,0,0,0Z"/><polygon class="cls-7" points="177.85 139.07 177.99 139.12 177.63 138.92 177.85 139.07"/><path class="cls-7" d="M179.22,139.66l-.14-.11a15.09,15.09,0,0,0-1.53-.74,9.93,9.93,0,0,0,.92.54s-.43-.26-.29-.21c.3.16.25.16.64.38s-.25-.15-.08-.11Z"/><path class="cls-7" d="M178.19,139.07l.51.28C178.51,139.25,178.3,139.11,178.19,139.07Z"/><path class="cls-7" d="M178.09,139a4,4,0,0,1,.45.24l-.67-.39Z"/><path class="cls-7" d="M178.18,138.93l-.05,0C178,138.83,178.1,138.88,178.18,138.93Z"/><path class="cls-7" d="M178.12,138.84c-.23-.11-.1,0,0,0l0,0c.2.09.68.36.54.31.1.08-.38-.18-.07,0l.4.18C179,139.35,178.31,139,178.12,138.84Z"/><path class="cls-7" d="M178.18,138.93l0,0C178.29,139,178.24,139,178.18,138.93Z"/><polygon class="cls-7" points="178.1 138.94 178.2 139.01 178.4 139.11 178.1 138.94"/><path class="cls-7" d="M178.13,138.75c.65.36-.1,0,.41.29a4.46,4.46,0,0,1,.83.4l-.18-.14C178.94,139.15,178.45,138.9,178.13,138.75Z"/><path class="cls-7" d="M179.82,139.59l-.11-.07Z"/><path class="cls-7" d="M178.78,138.82l.62.43a3.82,3.82,0,0,1-.48-.29c-.11,0,.31.22.23.21-.62-.33,0-.07-.57-.35,0,0,0,.07.52.36l-.43-.19.68.35c.2.1-.51-.31,0-.06a1.88,1.88,0,0,1,.4.24c-.12-.09.55.24.49.15S179.08,139,178.78,138.82Z"/><polygon class="cls-7" points="179.51 139.22 179.77 139.36 179.42 139.17 179.51 139.22"/><path class="cls-7" d="M178.69,138.66l.39.27-.32-.17.54.31c.61.32-.17-.15-.26-.23a9.08,9.08,0,0,1,.9.48s-.17-.07-.22-.07c.69.34.09,0-.06-.16s-.25-.13-.21-.09l-.18-.13C178.78,138.62,178.64,138.57,178.69,138.66Z"/><path class="cls-7" d="M178.66,138.73s0,0,.09,0C178.59,138.67,178.47,138.61,178.66,138.73Z"/><path class="cls-7" d="M179.64,139.07l0,0S179.69,139.1,179.64,139.07Z"/><path class="cls-7" d="M178.92,138.69H179l-.29-.15A1.08,1.08,0,0,0,178.92,138.69Z"/><path class="cls-7" d="M180.4,138.27c-.24-.15-.36-.22-.33-.17a4,4,0,0,1-.41-.31,7.18,7.18,0,0,1-.68-.42s.36.28.25.26l-.34-.21c.18.16.43.41.14.28s0,.08.11.21c-.25,0,0,.36-.38.32l.62.39c-.32-.18,0,0-.43-.21.09,0,0,0,0,0-.57-.29,0,.1-.22,0,.12.06.67.36.76.43-.7-.4,0,.05-.82-.4-.22-.08.61.35.48.32a5.42,5.42,0,0,0,.53.25c.33.21-.15,0,.28.2.24.06-.56-.54-.74-.76l.38.23c-.25-.21-.22-.29.43.05-.37-.21.23,0-.6-.44a1.36,1.36,0,0,0,.25.11l-.26-.17s.42.23.41.19a7.66,7.66,0,0,1-.75-.47l1.13.56-.41-.23c.14.06-.21-.15-.32-.23s.45.26.68.4-.71-.5-.4-.34l-.37-.22c-.07-.09.35.13.25,0a2.81,2.81,0,0,1,.62.45c.11.06.15.06.32.16l-.81-.59C180.36,138.32,180.35,138.25,180.4,138.27Z"/><path class="cls-7" d="M180.6,138.53l.19.13s-.06,0,0,0Z"/><path class="cls-7" d="M180.4,138.27l.06,0Z"/><path class="cls-7" d="M179,137.69h0Z"/><path class="cls-7" d="M180.64,138.73l-.41-.21A2,2,0,0,0,180.64,138.73Z"/><path class="cls-7" d="M180.09,138.7l.29.18S180.29,138.8,180.09,138.7Z"/><polygon class="cls-7" points="180.71 138.54 180.62 138.45 180.53 138.38 180.71 138.54"/><path class="cls-7" d="M179.2,136.77c-.44-.25-.21,0-.31-.07.18.21.93.62.94.71l-.87-.59c0,.09-.22.06.53.6a2.31,2.31,0,0,1-.37-.24c0,.06,1.25.83.93.69-.53-.4-.54-.32-1.08-.68l-.06-.05c0,.07.31.3.26.29a4.92,4.92,0,0,1,.6.4,4.84,4.84,0,0,1,.54.33c-.24-.19-.08-.11-.37-.31.31.17.09.07.4.24l-.26-.2c.08,0,.29.21.36.23-.17-.12-.34-.26-.29-.25l.09.07c-.1-.09.06,0-.44-.33l.5.3-.34-.21c.16,0,1,.54.59.22a2,2,0,0,1-.34-.23c-.25-.13.23.19.26.24-.33-.21-.71-.51-.93-.61a3.6,3.6,0,0,1,.83.44c.07,0-.33-.28-.11-.18l.12.08c-.54-.37.27.14-.28-.26l-.13-.06a1,1,0,0,1-.26-.2l.2.12a3.84,3.84,0,0,1-.55-.43c-.08,0,.23.21.32.3A4.79,4.79,0,0,1,179.2,136.77Z"/><path class="cls-7" d="M180.43,138.07l-.19-.13Z"/><path class="cls-7" d="M180,137.08c.1,0,.33.24.52.34-.26-.21-.58-.36-1-.66.24.15-.15-.15-.15-.16.22.16.75.51.86.58-.14-.11.13,0,.16,0-.36-.19-.18-.16-.56-.38s-.51-.4-.26-.25.16.13.17.15c.42.3.24.13.63.39A11,11,0,0,0,179,136c-.19-.12,0,.05.06.09a7.13,7.13,0,0,1,.67.46c-.17-.08.12.15-.22-.09l-.33-.27c-.24,0-.24.11-.16.29l0,0a2.18,2.18,0,0,1,.37.3l.64.4c-.05,0,0,.06-.19-.1a5.52,5.52,0,0,0,.64.43c.1.11-.15-.05.24.24.55.3-.4-.32.09-.07Z"/><polygon class="cls-7" points="180.28 137.41 179.97 137.19 180.11 137.31 180.28 137.41"/><path class="cls-7" d="M178.9,136.47l.34.23C179.34,136.74,179.15,136.62,178.9,136.47Z"/><path class="cls-7" d="M180.45,137.13l-.09-.1-.14-.06Z"/><path class="cls-7" d="M179,135.81c0,.09.31.31,0,.13.39.31.77.52,1.13.79.11,0-.58-.44-.7-.55.36.23-.05-.09,0-.05Z"/><path class="cls-7" d="M180.39,136.62s-.24-.22-.06-.12.29.23.22.2c.5.34-.06-.08.28.14l-.25-.17c.15,0-.38-.32-.06-.18a4.77,4.77,0,0,0-.44-.34c.43.26.42.28.81.5l-1-.74c.62.36,0-.12.42.16,0,0,.12.1.06.07.57.41-.08-.11.05,0l.48.36c-.07-.07-.36-.34,0-.1l.24.18c-.33-.32-.12-.25-.27-.42l.31.2c-.32-.33-.21-.07-.89-.65.89.66-.27-.25.11,0s.16.17.57.46c-.45-.35-.12-.11-.23-.23.42.33.08,0,.55.39l-.74-.67c.25.18.22.13.17.07s-.63-.5-.85-.61c.16.21.24.41,0,.31.58.45,0,0,.43.41l-.54-.39c.09.14.33.23.53.4s-.3-.17-.51-.33c-.06,0,.16.12.47.37l-.67-.46c.13.25.47.7,0,.55l.41.28c-.26-.11.86.74-.06.16l.35.26c-.2-.15-.63-.43-.9-.64.13.11,0,0,.08.12l.21.12c.34.26.11.13-.2-.08a9.71,9.71,0,0,0,1.09.72c-.73-.6.78.47.5.2A5.68,5.68,0,0,0,180.39,136.62Z"/><path class="cls-7" d="M179.21,135.89l.11.08Z"/><path class="cls-7" d="M180.68,135.66v0C180.57,135.54,180.63,135.61,180.68,135.66Z"/><polygon class="cls-7" points="179.41 136.13 179.41 136.13 179.41 136.13 179.41 136.13"/><polygon class="cls-7" points="180.4 136.86 180.43 136.86 180.24 136.73 180.4 136.86"/><path class="cls-7" d="M181.29,135.91l-.21-.17Z"/><path class="cls-7" d="M181.72,135.63h0S181.73,135.65,181.72,135.63Z"/><path class="cls-7" d="M182.05,134.39a3.43,3.43,0,0,0-.49-.58l.2.18a5.67,5.67,0,0,0-.74-.72l.16.16c.27.3-.34-.27-.49-.36.06.12.79.81.59.67a2.46,2.46,0,0,1-.33-.29c-.08,0,.48.51.54.59-1.51-1.33.34.44-.65-.37.1.14-.06.05.21.35-.37-.35-.06,0-.48-.38.87.78-.48-.25.63.72-.35-.23.08.07-.23-.11a.66.66,0,0,1-.14-.14c-.25-.18.45.44-.07,0-.12,0,.3.27.58.55a6.79,6.79,0,0,1-.8-.59c.54.46.26.27.52.52a1.51,1.51,0,0,1,.35.27c-.13,0,.32.34.43.5-.61-.47,0-.06-.49-.41a6.66,6.66,0,0,0-.62-.64c-.07,0,0,.14.2.39-.1,0-.27-.25-.34-.27-.3-.18.56.57.27.38l-.31-.26c.4.36-.15,0,0,.23a3.72,3.72,0,0,1,.37.29c-.78-.64.37.38-.22,0a4.69,4.69,0,0,1,.79.73c-.15-.1-.35-.27-.48-.38.32.2-.52-.47-.72-.69.24.24-.07.07.28.38l-.39-.32c-.09,0,.86.73.46.47l-.28-.23c0,.11-.61-.21,0,.36.24.19.82.6,1,.74-.18-.19-.59-.54-.77-.73l.45.35c-.3-.25-.46-.42-.72-.6s.41.3.17.07l.91.74-.22-.2c.18.15.17.11.35.26-.54-.49.26.12,0-.12l-.1,0a1,1,0,0,1-.29-.27,2.82,2.82,0,0,0,.51.35,5.57,5.57,0,0,1-.63-.6c.49.41.3.18.72.51-.49-.4-.14-.19-.42-.42-.09-.1,0-.07.24.14l.08.08h0l.1.09s-.34-.3-.08-.11a.9.9,0,0,1,.17.16c.11,0-.7-.67-.24-.33-.22-.19-.21-.24-.74-.67.19.14.6.49.55.4-.42-.37.19.11-.08-.14l.55.49c.19.13-.37-.38-.27-.35l.34.28c-.14-.14-.48-.45-.11-.16l-.31-.26a1.83,1.83,0,0,1,.45.27l-.56-.53c.65.5.14,0-.37-.51a1.08,1.08,0,0,1,.29.19l.2.2s.39.27-.08-.16c-.13-.15.34.27.43.33-.64-.64.6.32-.42-.6,0,0-.25-.14-.23-.07-.12-.12-.33-.29-.34-.32s.37.25.23.07l.65.58C182.59,135,181.09,133.6,182.05,134.39Z"/><path class="cls-7" d="M181.7,134.77l.35.26-.29-.24C181.8,134.84,181.8,134.85,181.7,134.77Z"/><path class="cls-7" d="M181.76,134.79l-.12-.13s0,0,.05.07Z"/><path class="cls-7" d="M182,134.21s.09,0,0,0S181.93,134.11,182,134.21Z"/><polygon class="cls-7" points="181.85 134 181.74 133.92 181.81 133.99 181.85 134"/><path class="cls-7" d="M181.91,132.84l-.35-.41c.2.19,0-.08.33.26-.43-.47.05-.08-.61-.71.12.33-.42.11.05.79l-.24-.27c.46.56-.66-.45.33.58l-.53-.51c-.18-.11.72.78.12.28l.23.2s-.11-.08-.12-.07l.1.09c.2.22.16.21,0,.09s-.06-.07-.11-.12.17.2.15.21a3.43,3.43,0,0,1-.32-.3c.2.27-.4-.23.38.55a4.43,4.43,0,0,1,.35.32c.28.2,0-.12-.21-.35h0c-.76-.75.2.15-.11-.2.31.3.29.31.46.48.64.51-.4-.49.39.2l0,0c.08.07,0-.08-.11-.16l-.25-.19-.54-.54c.35.31-.16-.17,0,0a5.55,5.55,0,0,1,.45.46l-.2-.23a5.56,5.56,0,0,1,.54.46c-.22-.24-.18-.15-.5-.48.41.35.38.16.11-.18,0,.06.34.33.27.3.08.06-.07-.12-.31-.35s0-.12.25.06l-.25-.22c-.38-.42.36.23.16,0h0c0-.07-.61-.65-.47-.56C181.65,132.57,181.62,132.56,181.91,132.84Z"/><path class="cls-7" d="M181.49,132.15l.32.35a4,4,0,0,0-.53-.6c.06.08-.1-.05.09.14C181.41,132.09,181.53,132.21,181.49,132.15Z"/><path class="cls-7" d="M181.72,131.83l-.29-.3c0,.1,0,.3-.24.07-.12-.08.38.42.47.56l-.35-.33c.2.23-.2-.09.36.44.05,0-.25-.27-.14-.18l.19.19,0-.09.23.24c.37.3-.69-.73-.42-.56l.47.48s-.09-.18.22.09c0,0-.24-.24-.15-.14l-.36-.36c-.32-.41.28.3.5.46-.29-.36-.48-.71-.09-.34-.3-.28-.57-.61-.52-.61.17.16.27.3.41.45s.18.15.12.07a7.39,7.39,0,0,1-.75-.81C181,130.91,181.82,131.84,181.72,131.83Z"/><path class="cls-7" d="M181.33,131.41a.67.67,0,0,0,.1.12v0Z"/><path class="cls-7" d="M157.84,99.69a1.41,1.41,0,0,1,.17.18c.05-.13.11-.26.17-.38A2.18,2.18,0,0,0,157.84,99.69Z"/><path class="cls-7" d="M157.68,101.16a.38.38,0,0,1,.17-.06c.46-.37.62-.51.75-.63s.22-.22.25-.76a1,1,0,0,0-.57.14.87.87,0,0,0-.36.55c.06,0,.42-.39.48-.15-.26.23-.36.13-.56.54s.19-.24.22,0Z"/><path class="cls-7" d="M158.71,100.56a3.66,3.66,0,0,0-.5.3C158.38,100.74,158.67,100.72,158.71,100.56Z"/><path class="cls-7" d="M158.9,100.66c0,.18-.39.19-.43.24a4,4,0,0,1,.78-.13Z"/><path class="cls-7" d="M159.11,101.42a.6.6,0,0,0,.08.08C159.31,101.45,159.21,101.44,159.11,101.42Z"/><path class="cls-7" d="M159.25,101.8c.26-.1.09-.2-.06-.3l0,0c-.21.14-.76.12-.64,0-.15-.11.37-.24,0-.27a3.48,3.48,0,0,1-.39.28C158.23,101.65,159,101.7,159.25,101.8Z"/><path class="cls-7" d="M159.11,101.42a.18.18,0,0,1-.06-.09C159,101.39,159,101.41,159.11,101.42Z"/><polygon class="cls-7" points="159.07 101.02 158.93 100.97 158.72 101.06 159.07 101.02"/><path class="cls-7" d="M159.3,102.46c-.73-.07.09-.47-.49-.5,0,.25-.52.4-.92.33l.21.22A2,2,0,0,0,159.3,102.46Z"/><path class="cls-7" d="M157.37,102.7a.23.23,0,0,1,.12.08A.17.17,0,0,0,157.37,102.7Z"/><path class="cls-7" d="M158.31,104.26a9.29,9.29,0,0,0-.56-.79c.22.11.45.14.5.3.17-.24-.29-.39-.17-.59.7.08,0,.41.6.42,0-.17,0-.42-.52-.66l.51-.17-.77,0c-.23.06.56.31,0,.27-.33,0-.37-.14-.44-.22.13.18-.66.28-.63.57S158,103.93,158.31,104.26Z"/><polygon class="cls-7" points="157.5 104.04 157.21 103.98 157.6 104.08 157.5 104.04"/><path class="cls-7" d="M158.22,105l-.33-.48a2,2,0,0,1,.36,0c-.16,0-.42-.22-.56-.26-.7-.08.08.43.13.65-.46.31-.34-.16-1-.24.06-.1.22,0,.32-.18-.82,0-.27.5-.18.75.09,0,.29.06.27-.05l.13.26C157.93,105.55,158.14,105.45,158.22,105Z"/><path class="cls-7" d="M158.41,104.43c0,.13,0,.16-.14.14C158.45,104.6,158.59,104.6,158.41,104.43Z"/><path class="cls-7" d="M156.93,105.38s0,0,0-.09S156.9,105.32,156.93,105.38Z"/><path class="cls-7" d="M157.75,105.56l-.16.18.33.06A.29.29,0,0,0,157.75,105.56Z"/><path class="cls-7" d="M151,110.8c.16.24.3.32.43.18.16.34-.08.39-.07.63.33.09.21.38.44.67.26-.1.12-.58.43-.65a1,1,0,0,0,.22.33c.2-.38.51-1,1-.91s.46-.36.65-.71c1.08-.57,1.71-1.68,2.74-2.47l-.48-.57c.33.16.16-.24.53.06-.11,0-.09.1-.13.17.69.15.36-.62.72-.77-.13,0-.7-.31-.75-.45.69.43.16-.31,1,0,.36-.18-.62-.34-.36-.57-.41-.24-.34.17-.69,0s.28-.17-.18-.39c-.4.3,0,1.58-.32,2.4l-.3-.35a.78.78,0,0,1-1.18.72c.36.26-.56.23.13.9-.23-.09-.22,0-.39,0l.17.26c-.16.13-.44-.25-.6-.08.38.22.33.43.48.74-.51-.18-1-.31-1.43-.48a1.36,1.36,0,0,0,.38.3c-.22,0,0,.29.08.43-.13.11-.42-.34-.57-.57-.33,0,.13,1-.25.79l.3.32c-.2.26-.68,0-.9.3-.44-.42,0-.58,0-.87-.13-.07-.26,0-.4-.16a8.64,8.64,0,0,1,0,1.14C151.48,110.54,151.13,110.78,151,110.8Z"/><path class="cls-7" d="M151.66,110.08c0-.1,0-.19,0-.25s0,.09-.07.09A.5.5,0,0,0,151.66,110.08Z"/><path class="cls-7" d="M151,110.8l0,0S151,110.8,151,110.8Z"/><path class="cls-7" d="M153.48,111.05h-.06l-.06,0Z"/><path class="cls-7" d="M152.59,109.3a2.48,2.48,0,0,0,.46.24A.55.55,0,0,0,152.59,109.3Z"/><path class="cls-7" d="M154.4,108.48c0-.1-.12-.17-.19-.3C154.11,108.25,154.18,108.38,154.4,108.48Z"/><polygon class="cls-7" points="151.29 110.17 151.14 110.41 151.11 110.55 151.29 110.17"/><path class="cls-7" d="M147.27,114.22c.3.51.67.13,1,.15.48-.42-.24-1.09.2-1.3l.27,1c.49-.23,1.26-.36,1.24-1.38.09.1.25.2.19.39.29-.19-.5-1.42.05-1.31-.08.77.41.5.6,1.13l0,.1c.23-.2.41-.68.6-.73-.12-.24-.46-.53-.25-.68-.12,0-.23-.29-.35-.53-.08.38-.29.28-.27.67-.28-.25,0-.14-.25-.39l0,.39c-.18,0,0-.39-.27-.35.07.19,0,.48-.19.52v-.13c-.07.19-.33.12,0,.62l-.41-.46.2.35c-.42,0-1-.77-1.15-.15.14.07.14.31.11.4.28.18.1-.37.24-.49.2.35.08.92.4,1-.43-.32-.44.25-.89-.64-.26,0-.22.53-.54.36l0-.14c.09.65-.24-.25-.32.43l.16.13c0,.27,0,.29-.14.35a.4.4,0,0,0,0-.23c0,.48-.34.56-.4.7.17.08.35-.31.5-.45C147.38,113.9,147.44,114.3,147.27,114.22Z"/><path class="cls-7" d="M149.76,111.54v.25A.43.43,0,0,0,149.76,111.54Z"/><path class="cls-7" d="M146,113.22c-.13-.16.17-.38.1-.62-.28.25,0,.7-.37,1.11,0-.3-.38.08-.47,0a2.93,2.93,0,0,0,.43-.94c-.13.13-.13-.21-.21-.29.05.5-.33.09-.31.6-.19.31-.63.39-.58.07s.21-.11.29-.08c.32-.4,0-.34.21-.76-.64.47-1.37-.29-1.94.73-.07.25.2.12.33.17-.12-.42.4-.44.55-.59,0,.23.41.1.11.39l-.45.18a3.21,3.21,0,0,0,2.52,1.23l-.4-.11c.14-.29.32-.27.48-.38q0-.39,0-.78c.07.08.17,0,.12.25a1.33,1.33,0,0,0,.14-.76c.19-.09.2.18.37-.29-.11-.32-.16-.19-.24-.06s-.2.24-.28,0C146.27,112.59,146.13,112.91,146,113.22Z"/><polygon class="cls-7" points="146.83 112.97 146.72 113.34 146.87 113.17 146.83 112.97"/><path class="cls-7" d="M146.51,114.61c0-.17.1-.23.11-.4C146.42,114.08,146.4,114.31,146.51,114.61Z"/><path class="cls-7" d="M144.91,112.2l-.26,0,0,.21A.38.38,0,0,1,144.91,112.2Z"/><path class="cls-7" d="M142.21,112.26c.33.28.7.16.74.77.51-.2.58-.73,1-1-.06-.22-.64.38-.92.32.26-.34-.29-.19-.35-.43A1.13,1.13,0,0,1,142.21,112.26Z"/><path class="cls-7" d="M142.8,110.25c-.08-.14-.46-.11-.34-.33s.37-.07.36,0c.5-.35-.17-.1.11-.45-.05,0-.12.15-.25.17-.08-.44-.56,0-.5-.65a.68.68,0,0,0-.57.09c.33-.51.39-.36.66-.89-.22.1-.67.43-1.14.62.45-.8-.31-.52.07-1,0,0,.17,0,.14.15.65-.28-.22-.24-.15-.48l.58-.17c-.15-.13-.62-.33-.25-.67l.31,0c-.57-.31-.47-.88-.76-1.22l.34-.26c-.52-.47-.13.55-1.08.3,1.09-.22-.4-.24,0-.62.42-.19.27.29.75.07-.57,0-.18-.14-.36-.29.54,0,.05-.34.66-.29a11,11,0,0,1-1-.53c.3-.1.26-.26.19-.39,0,.32-.8-.12-1.06.27a3.87,3.87,0,0,1,.36,2.18c.74-.06.07.44.69.42-.23.06-.41.16-.64.23.26.4.37-.2.66-.15.13.16-.26.42-.52.47,0,.31.2,0,.63,0l-.73.42c.52.93,1.47,1.89,1.6,3.09l.4-.32c0,.6,1.36.11.69,1.06l.44-.13c-.25.08-.57.51-.92.6.22,0,.15.25.37.27l0-.35c.45-.11.34.2.09.48.64,0,.54-.72.85-1-1.05.15.48-.91-.08-1C143,109.77,143,110.13,142.8,110.25Z"/><path class="cls-7" d="M142,111.55a.45.45,0,0,0,.16,0Z"/><path class="cls-7" d="M140.55,103.37a.44.44,0,0,0,0-.14C140.39,103.17,140.48,103.26,140.55,103.37Z"/><polygon class="cls-7" points="142.65 111.94 142.65 111.94 142.65 111.94 142.65 111.94"/><polygon class="cls-7" points="143.76 111.34 143.69 111.23 143.53 111.4 143.76 111.34"/><path class="cls-7" d="M141.31,102.08l-.26,0A.75.75,0,0,0,141.31,102.08Z"/><path class="cls-7" d="M142.86,99l-.06.06S142.86,99,142.86,99Z"/><path class="cls-7" d="M150.13,94.45a2.07,2.07,0,0,0,.74-.8l0,.27c.12-.13.61-.56.31-1l-.08.23c-.35.4-.26-.45-.55-.6-.36.14-.45,1.15-.76,1-.11,0-.13-.23-.12-.43-.31,0-.3.75-.47.88-.21-1-.42-.81-.63-.53s-.41.67-.8.11c-.21.24-.62.18-.8.68,0-.53-.31.08-.46-.48.37,1.11-1.15-.06-.56,1.3-.59-.16,0,.09-.59,0-.08-.14,0-.18,0-.23-.33-.16,0,.7-.45.21-.42.13.14.38.14.85-.45.08-.46-.16-1-.52.37.6,0,.47,0,.89.06,0,.38-.06.38.27-.45.2,0,.59-.23,1-.67-.45.32-.29-.37-.52,0-.46.19-.57,0-1.12A1.69,1.69,0,0,0,143,97c-.25.1-.16-.35-.35-.27-.58.08.09,1-.38,1l-.26-.31c.26.49-.59.53-.59,1a.87.87,0,0,1,.41.24c-.85-.55.14.73-.65.7a1.15,1.15,0,0,1,.72,1,1.59,1.59,0,0,1-.58-.19c.48-.18-.48-.62-.59-1.06.16.39-.34.65,0,1l-.42-.28c-.22.34.94.71.36.89l-.34-.14c-.19.71-1,1.59-.21,2.28a9.42,9.42,0,0,0,1.27-.15c-.24-.34-.72-.6-.94-.92l.56.1c-.37-.12-.53-.49-.87-.38-.24-.29.52-.05.27-.38.57.17.6.33,1.09.45l-.24-.27c.21.12.23-.06.44.06-.6-.57.42-.39.24-.83l-.18.15c-.31-.12-.24-.22-.29-.35a.9.9,0,0,0,.71-.07c-.17-.26-.67-.62-.54-.84.53.36.49-.17,1,.09-.52-.38.05-.49-.23-.72,0-.19.13-.28.4-.07a1.3,1.3,0,0,1,0,.13l.09-.08c.05.06.1.09.1.11s-.28-.37,0-.28c.13.11.08.17.09.25.25-.13-.4-1,.2-.81-.19-.24,0-.51-.48-.94.24.1.58.51.7.27-.27-.52.35,0,.27-.44.18.62.1.13.3.7.28.07,0-.68.29-.78.11.09.21.22.32.31,0-.22-.21-.68.16-.36l-.25-.32c.29.05.46-.22.88,0l-.17-.79c.71.52.75-.32.73-1.09.14,0,.39,0,.45.18s0,.19,0,.31c.19,0,.56.26.43-.37.12-.26.3.35.47.4,0-.49.37-.43.64-.41s.5,0,.4-.65c-.17,0-.56-.15-.85,0,0-.18-.12-.42,0-.49.32-.15.61.28.88,0l.17.86c.35.37.52,0,.73-.25S149.86,93.85,150.13,94.45Z"/><path class="cls-7" d="M146.32,95.52l.39.31-.18-.34C146.49,95.58,146.43,95.61,146.32,95.52Z"/><path class="cls-7" d="M146.53,95.49a.59.59,0,0,0,.05-.21.13.13,0,0,0-.1.13Z"/><path class="cls-7" d="M151,94.26a.18.18,0,0,0,.24,0C151.2,94.16,151.07,94.13,151,94.26Z"/><polygon class="cls-7" points="151.29 94 151.18 93.86 151.16 93.96 151.29 94"/><path class="cls-7" d="M157.68,96.6c.23,0,.44.05.67.09-.19.19.33.47-.16.55.68-.06.36.73,1.11.17-.42-.57-.76-1.3-1.29-2a3.14,3.14,0,0,0-2.11-1.29l.41-.16c-.53,0-.65-.24-.83-.46s-.4-.35-1,.18l.37-.64c-.29-.35-1,.74-1.11-.1l-.05.3c-.09,0-.09-.17-.19-.2v.14c-.32.22-.45.16-.65-.09,0-.24.13-.08.22-.12-.06-.26-.35.19-.53.15-.12-.22,0-.33.09-.43-.61.24-.83-.55-1.29.52,0,.2.12.38-.07.47.32.36.61-.06,1-.3h-.09c.42-1,.17.25.66-.12-.2.41-.37.36-.48.59.29.88.8-.49.83.61l0,0c0,.11.2,0,.33-.11a1,1,0,0,0-.11-.35c.13-.07.32-.5.42-.68,0,.48.23-.16.35.13-.08.44-.29.32-.43.52l.32-.2c.22,0,0,.51,0,.77.29-.24,0-.26.31-.64,0,.59.88.85,1.52.83-.17,0-.32.35-.44.18,0,.12.33.08.54-.19.45,0,.67.45.65.88l.17-.3c.62-.19.16.77.68.94v0c.14.08.9-.27.92.08C158.06,96.51,158,96.37,157.68,96.6Z"/><path class="cls-7" d="M159.15,97.79h-.5c0,.2.61.21.88.08-.14-.09,0-.32-.26-.25C159.21,97.68,159.06,97.73,159.15,97.79Z"/><path class="cls-7" d="M159.64,101.3c.09.09.27.1.4.15.09-.85-.18-1.8.12-2.17.09-.29-.6-.23-.83-.49l.42-.25c-.32-.1,0-.75-.67-.34-.06,0,.39,0,.3.21l-.27.06.18.29-.35,0c-.36.51,1.05.08.84.72l-.67.09c0,.35.25.53-.16.85,0,0,.34,0,.2-.06a.74.74,0,0,1,.51-.11c.51.59-.4-.08-.68.3.49.44.64,1.54,0,1.64.44-.11.78.36.61.64-.27,0-.34-.23-.51-.34-.11.1-.31.13-.26.28a.89.89,0,0,1,.89.71.88.88,0,0,0,.16-1.08A2.13,2.13,0,0,1,159.64,101.3Z"/><path class="cls-7" d="M160.17,101.6a.2.2,0,0,0-.13-.15l0,.29Z"/><path class="cls-2" d="M157.69,101.43a2.16,2.16,0,0,0,.56-2.18,4.1,4.1,0,0,0-1.35-1.91,5.21,5.21,0,0,0-2.72-1.28,3.45,3.45,0,0,0-2.81.87,4.89,4.89,0,0,0-1,1.6,17.14,17.14,0,0,0-1.41,6.92c0,1.23.26,2.64,1.31,3.3a2.83,2.83,0,0,0,2.8-.06,8.42,8.42,0,0,0,2.19-1.94l1-1.15a10,10,0,0,0,1.29-1.68,5,5,0,0,0,.53-3.52"/><polygon class="cls-7" points="158.31 100.36 158.18 100.49 158.59 100.45 158.31 100.36"/><path class="cls-7" d="M156.92,101l.18.11c1.18-.2.85,0,1.67-.4a1.75,1.75,0,0,0-1.1-.11c.06.05.52.07.39.19-.34,0-.31-.1-.76-.06s.3,0,.16.21Z"/><path class="cls-7" d="M158.12,101.09a5.15,5.15,0,0,0-.58,0C157.74,101.1,158,101.17,158.12,101.09Z"/><path class="cls-7" d="M158.24,101.19c0,.11-.44,0-.5,0,.26,0,.52.06.78.09Z"/><path class="cls-7" d="M158.2,101.64a.22.22,0,0,0,.07.06C158.39,101.68,158.29,101.66,158.2,101.64Z"/><path class="cls-7" d="M158.28,101.87c.26,0,.11-.1,0-.17h-.05c-.23,0-.78,0-.62-.12-.12-.09.41-.08.06-.16l-.45.1C157.28,101.65,158.07,101.78,158.28,101.87Z"/><path class="cls-7" d="M158.2,101.64s0,0,0-.06S158.13,101.62,158.2,101.64Z"/><polygon class="cls-7" points="158.26 101.41 158.15 101.36 157.92 101.38 158.26 101.41"/><path class="cls-7" d="M158.27,102.25c-.73-.13.12-.25-.46-.34,0,.14-.54.17-.94.08l.21.16A3.49,3.49,0,0,0,158.27,102.25Z"/><path class="cls-7" d="M156.37,102.17l.12,0A.27.27,0,0,0,156.37,102.17Z"/><path class="cls-7" d="M157.4,103.15a6.2,6.2,0,0,0-.6-.55c.22.1.45.16.51.26.14-.11-.31-.26-.21-.35.68.15,0,.22.6.32,0-.09,0-.24-.54-.43l.49,0-.76-.12c-.22,0,.56.24,0,.14a.81.81,0,0,1-.44-.17c.14.11-.62,0-.55.16S157.11,102.9,157.4,103.15Z"/><polygon class="cls-7" points="156.62 102.85 156.34 102.75 156.71 102.9 156.62 102.85"/><path class="cls-7" d="M157.38,103.58c-.11-.13-.23-.25-.35-.37l.34.11c-.16-.06-.41-.22-.55-.27-.65-.23.13.25.19.4-.39,0-.33-.18-.94-.42,0,0,.19,0,.26,0-.74-.26-.17.19-.06.38.07,0,.26.12.23,0l.14.2C157.16,103.85,157.34,103.84,157.38,103.58Z"/><path class="cls-7" d="M157.51,103.28c0,.08,0,.08-.12,0C157.56,103.39,157.7,103.42,157.51,103.28Z"/><path class="cls-7" d="M156.26,103.44s0,0,0,0S156.23,103.4,156.26,103.44Z"/><path class="cls-7" d="M157,103.8l-.12.07.3.13A.38.38,0,0,0,157,103.8Z"/><path class="cls-7" d="M152.91,106.85c.19.21.31.28.34.18.24.29.1.32.2.52.25.1.28.33.53.59.15-.08-.12-.49.06-.52a2.6,2.6,0,0,0,.29.28c0-.32,0-.79.34-.72s.2-.27.21-.54c.61-.39.81-1.18,1.57-1.51l-.49-.55c.3.21.11-.13.46.19-.1,0-.06,0-.09.09.59.3.23-.35.52-.35a3.37,3.37,0,0,1-.69-.54c.64.51.11-.16.89.34.29,0-.57-.41-.37-.48-.38-.28-.28,0-.59-.18s.22,0-.2-.31c-.3,0,.16,1,0,1.61l-.3-.34c.08.4-.19.71-.86.37.35.25-.42.13.33.74a.37.37,0,0,0-.32,0l.21.23c-.09.09-.43-.24-.5-.11.37.2.39.37.62.63-.46-.19-.89-.31-1.27-.46a3.1,3.1,0,0,0,.4.26c-.18,0,.13.23.22.34s-.44-.28-.64-.47c-.23,0,.46.76.13.62l.34.26c-.05.21-.49,0-.52.21-.47-.36-.25-.47-.38-.7-.11-.06-.18,0-.33-.15a6.58,6.58,0,0,1,.46.92C153.11,106.68,153,106.85,152.91,106.85Z"/><path class="cls-7" d="M153,106.33l-.13-.2s0,.07,0,.07Z"/><path class="cls-7" d="M152.91,106.85l0,0S152.89,106.85,152.91,106.85Z"/><path class="cls-7" d="M154.72,107.19h0Z"/><path class="cls-7" d="M153.38,105.76l.44.2A.64.64,0,0,0,153.38,105.76Z"/><path class="cls-7" d="M154.56,105.17c0-.08-.14-.15-.22-.27C154.27,105,154.35,105.06,154.56,105.17Z"/><polygon class="cls-7" points="152.83 106.37 152.84 106.55 152.88 106.66 152.83 106.37"/><path class="cls-7" d="M151.39,109.29c.13.52.38.2.58.27.3-.31-.13-1.11.11-1.21l.18,1c.29-.11.87-.11.64-1a.61.61,0,0,1,.2.39c.16-.14-.65-1.36-.3-1.16.17.66.39.49.7,1.06v.09c.12-.16.09-.57.2-.6-.16-.21-.48-.49-.4-.59-.08,0-.25-.27-.42-.48.1.31-.07.19.08.53-.25-.26,0-.12-.28-.37l.11.32c-.1,0-.14-.33-.26-.34.1.18.15.41.05.41l0-.11c0,.15-.14,0,.16.54-.11-.16-.22-.32-.32-.49l.18.35c-.24-.06-.6-.94-.59-.42a.91.91,0,0,1,.1.4c.16.24,0-.32.05-.39.16.36.16.87.35,1.06-.27-.41-.24.13-.53-.82-.11,0-.09.45-.24.23v-.14c0,.65-.1-.29-.17.38l.07.15c0,.27,0,.28-.09.33a1,1,0,0,0,0-.24,1,1,0,0,1-.28.68c.09.1.23-.29.31-.42C151.48,109,151.48,109.38,151.39,109.29Z"/><path class="cls-7" d="M152.46,107.27l.08.22A.49.49,0,0,0,152.46,107.27Z"/><path class="cls-7" d="M150.82,108.32c0-.13.18-.37.22-.58-.22.26-.21.65-.49,1.06.06-.28-.26.1-.32.08a6,6,0,0,0,.54-.89c-.12.14,0-.17,0-.2-.14.39-.24.12-.4.54s-.56.37-.42.11.19-.12.23-.09c.36-.37.11-.27.43-.62-.58.46-.88-.09-1.77.63-.15.19.13.1.22.15.06-.33.5-.33.67-.45-.1.17.27.06-.07.29l-.43.14a1.52,1.52,0,0,0,1.48,1l-.23-.1c.14-.28.25-.26.36-.39s.09-.49.15-.74c0,.07.09,0,0,.23a2.67,2.67,0,0,0,.21-.75c.09-.11.05.18.18-.3,0-.31,0-.18-.06,0s-.13.26-.07,0A9.83,9.83,0,0,1,150.82,108.32Z"/><polygon class="cls-7" points="151.28 108.02 151.17 108.39 151.27 108.22 151.28 108.02"/><path class="cls-7" d="M150.89,109.64c0-.16.09-.22.11-.39S150.86,109.35,150.89,109.64Z"/><path class="cls-7" d="M150.57,107.65h-.16l-.08.14A.84.84,0,0,1,150.57,107.65Z"/><path class="cls-7" d="M148.38,107.68c.16.24.52.17.32.62.5-.11.78-.5,1.21-.66.05-.14-.7.26-.9.19.37-.22-.17-.15-.12-.32A1.7,1.7,0,0,1,148.38,107.68Z"/><path class="cls-7" d="M149.76,106.53c0-.08-.35-.13-.15-.22s.37,0,.31.07c.59-.12-.11-.08.28-.22a1,1,0,0,1-.3,0c.12-.24-.51-.09-.19-.43a1.29,1.29,0,0,0-.56-.06,8.53,8.53,0,0,0,.94-.33c-.23,0-.77.09-1.28.09.71-.33-.1-.34.44-.54,0,0,.15,0,.08.1.71,0-.12-.17,0-.29l.6,0c-.09-.11-.48-.31,0-.42l.3,0c-.44-.29-.21-.58-.41-.83l.39-.08c-.42-.36-.25.29-1.11,0,1.1.09-.35-.2.12-.34s.2.21.71.18c-.56-.11-.14-.11-.3-.23.53.09.1-.19.69,0l-.93-.49c.31,0,.28-.11.21-.19,0,.18-.78-.19-1.05,0a1.13,1.13,0,0,1,0,1.26c.72.11,0,.25.56.36h-.68c.14.27.41,0,.67.06.09.11-.35.17-.62.14-.05.18.2,0,.59.15l-.81.07c.22.61.74,1.31.36,2l.5-.11c-.24.35,1.17.24.16.7l.44,0c-.25,0-.72.25-1.07.26.18,0,0,.18.2.22l.19-.22c.44,0,.22.15-.12.31.55,0,.78-.41,1.19-.56-1,0,.82-.45.4-.55S150,106.49,149.76,106.53Z"/><path class="cls-7" d="M148.49,107.18l.14,0Z"/><path class="cls-7" d="M149.59,102.36a.1.1,0,0,0,0-.09C149.46,102.22,149.54,102.28,149.59,102.36Z"/><polygon class="cls-7" points="148.89 107.52 148.9 107.51 148.89 107.51 148.89 107.52"/><polygon class="cls-7" points="150.1 107.21 150.09 107.14 149.88 107.24 150.1 107.21"/><path class="cls-7" d="M150.38,101.69l-.26-.06A1,1,0,0,0,150.38,101.69Z"/><path class="cls-7" d="M151.15,99.7l0,0S151.16,99.72,151.15,99.7Z"/><path class="cls-7" d="M153.87,96.64a2.36,2.36,0,0,0,.5-.71l-.05.27a1.26,1.26,0,0,0,.37-1l-.09.22c-.28.35-.08-.46-.25-.66-.27.1-.44,1.1-.6.85-.07,0-.06-.23,0-.43-.2-.08-.24.7-.33.8-.11-1-.26-.84-.4-.59s-.21.61-.52,0c-.12.2-.42.12-.45.58-.11-.51-.2,0-.42-.47.24.53,0,.49-.14.5s-.36.08.09.66c-.47-.14.07.07-.4,0-.12-.11-.08-.15-.08-.19-.33-.12.31.57-.26.2-.26.14.27.3.49.65-.28.09-.39-.09-1-.3.58.41.21.36.46.65a.36.36,0,0,1,.42.15c-.23.17.3.4.37.69-.75-.23.09-.23-.56-.31-.25-.3-.16-.39-.6-.76a.78.78,0,0,0,0,.88c-.16.08-.31-.22-.42-.14-.42.1.58.66.19.71l-.36-.19c.45.31-.27.37-.07.69a1.19,1.19,0,0,1,.45.15c-.95-.34.38.46-.35.44.61.19.88.49.91.64a2.83,2.83,0,0,1-.59-.15c.42-.1-.61-.4-.83-.67.27.24-.13.38.28.64l-.47-.19c-.14.19,1,.49.52.56l-.35-.11c-.06.42-.82.81-.08,1.32.29.08,1,0,1.25.09-.21-.24-.71-.46-.93-.68l.56.13c-.38-.12-.56-.36-.89-.33-.25-.19.52,0,.23-.2.59.17.63.26,1.12.38l-.26-.19c.21.1.21,0,.43.08-.64-.4.35-.23.1-.53l-.14.09c-.32-.09-.27-.16-.34-.24a1,1,0,0,0,.65,0c-.23-.18-.78-.41-.73-.55.59.23.4-.12.92,0-.59-.24-.13-.33-.46-.47-.1-.12,0-.19.32-.07l.08.09,0-.06c.06,0,.12,0,.12.06s-.39-.22-.07-.19c.16.06.14.11.19.16.16-.11-.78-.64-.19-.56-.26-.14-.21-.34-.84-.57.24,0,.72.28.69.1-.48-.31.26-.06,0-.31.47.39.15.07.61.43.25,0-.38-.44-.2-.54l.39.19c-.15-.14-.51-.44-.08-.24l-.34-.21c.22,0,.2-.17.61,0-.18-.19-.35-.38-.51-.58.71.41.29-.18.06-.88a.37.37,0,0,1,.35.17l.09.28c.1,0,.4.3.15-.29,0-.23.27.36.37.42-.1-.45.12-.35.27-.29s.25.1.15-.58c-.09,0-.34-.21-.51-.09,0-.17-.13-.41-.06-.47s.41.34.56.08l.14.86c.21.42.26.11.38-.15S153.78,96,153.87,96.64Z"/><path class="cls-7" d="M152,97.17l.34.29-.23-.3C152.11,97.23,152.09,97.25,152,97.17Z"/><path class="cls-7" d="M152.1,97.16a.86.86,0,0,0,0-.18s0,0,0,.11Z"/><path class="cls-7" d="M154.35,96.54s.06.12.13,0S154.4,96.42,154.35,96.54Z"/><polygon class="cls-7" points="154.55 96.32 154.51 96.17 154.48 96.27 154.55 96.32"/><path class="cls-7" d="M158.28,98a4,4,0,0,1,.6,0c-.21.17.22.3-.24.42.65-.13.23.48,1,0-.32-.4-.55-.9-.89-1.31a1.63,1.63,0,0,0-1.37-.67l.34-.19c-.78.29-.06-1-1.16-.06l.43-.6c-.09-.3-.88.71-.7-.08l-.12.28c-.05,0,0-.15-.06-.19l0,.14c-.27.2-.32.13-.38-.12s.11-.06.17-.1c0-.25-.27.16-.37.12,0-.22.12-.31.17-.4-.44.18-.41-.62-.93.39-.06.19,0,.38-.13.45.11.38.35,0,.65-.21l-.05,0c.51-1,0,.26.43-.07-.24.37-.33.33-.45.53-.08.85.61-.41.32.6l0,0c0,.1.13,0,.23-.1a1,1,0,0,0,0-.33,4.54,4.54,0,0,0,.46-.62c-.16.45.2-.16.19.11-.18.4-.28.3-.43.48l.26-.19c.13,0-.13.47-.21.7.26-.22.07-.23.39-.58-.16.53.34.7.83.57-.12,0-.33.33-.37.21,0,.1.22,0,.44-.24.34-.09.4.25.3.59l.2-.27c.54-.26,0,.57.38.58h0c.11,0,.84-.37.81-.1C158.64,97.88,158.61,97.79,158.28,98Z"/><path class="cls-7" d="M159.48,98.69l-.48,0c-.06.13.55.1.84,0-.12-.07,0-.25-.23-.18C159.55,98.6,159.4,98.65,159.48,98.69Z"/><path class="cls-7" d="M159.49,101.26a1.82,1.82,0,0,0,.36.22c.22-.65.08-1.39.43-1.63.14-.22-.57-.23-.76-.42l.46-.18c-.31-.08.09-.59-.63-.25-.06,0,.38,0,.27.15l-.26,0,.13.21-.34,0c-.44.33,1,.1.73.57h-.67c0,.23.17.4-.28.53,0,0,.34.07.21,0a1,1,0,0,1,.51,0c.44.52-.38-.13-.7.08.42.37.42,1.27-.16,1.12.44.08.66.53.47.7-.25-.07-.27-.31-.42-.45-.11,0-.29,0-.27.1a1,1,0,0,1,.67.89c.38-.07.41-.44.34-.78S159.36,101.48,159.49,101.26Z"/><path class="cls-7" d="M160,101.63a.19.19,0,0,0-.1-.15,1.31,1.31,0,0,1-.08.21Z"/></g></g></svg>