<svg xmlns="http://www.w3.org/2000/svg" viewBox="0 0 461.27 438.03"><defs><style>.cls-1,.cls-12,.cls-13,.cls-2,.cls-3,.cls-4,.cls-6,.cls-7,.cls-9{fill:#3f3a37;}.cls-1{opacity:0.05;}.cls-13,.cls-16,.cls-2,.cls-3,.cls-7{stroke:#fff;}.cls-14,.cls-15,.cls-17,.cls-18,.cls-19,.cls-2,.cls-20{stroke-linecap:round;}.cls-14,.cls-15,.cls-17,.cls-18,.cls-19,.cls-2,.cls-20,.cls-3,.cls-4,.cls-5{stroke-linejoin:round;}.cls-10,.cls-11,.cls-12,.cls-14,.cls-15,.cls-16,.cls-2,.cls-3,.cls-4,.cls-5,.cls-7,.cls-8{stroke-width:2px;}.cls-11,.cls-12,.cls-14,.cls-15,.cls-17,.cls-18,.cls-19,.cls-20,.cls-4,.cls-5,.cls-8,.cls-9{stroke:#3f3a37;}.cls-11,.cls-14,.cls-5{fill:#fff;}.cls-10,.cls-11,.cls-12,.cls-13,.cls-16,.cls-7,.cls-8,.cls-9{stroke-miterlimit:10;}.cls-15,.cls-16,.cls-17,.cls-18,.cls-19,.cls-20,.cls-8{fill:none;}.cls-10{fill:#86fed4;stroke:#86fed4;}.cls-17,.cls-18,.cls-19,.cls-20{stroke-width:3px;}.cls-18{stroke-dasharray:0 8.03;}.cls-19{stroke-dasharray:0 7.95;}.cls-20{stroke-dasharray:0 8;}</style></defs><title>Asset 45</title><g id="Layer_2" data-name="Layer 2"><g id="Layer_1-2" data-name="Layer 1"><polygon class="cls-1" points="95.61 430.22 318.62 404.37 140.84 377.53 95.61 430.22"/><rect class="cls-2" x="252.47" y="222.19" width="13.97" height="13.97" transform="translate(-51.76 77.56) rotate(-15.48)"/><polygon class="cls-2" points="276.65 238.91 268.05 234.04 264.32 220.58 272.92 225.45 276.65 238.91"/><polygon class="cls-3" points="276.65 238.91 263.18 242.64 254.59 237.77 268.05 234.04 276.65 238.91"/><rect class="cls-2" x="303.71" y="235.1" width="12.9" height="12.9" transform="translate(-29.57 439.36) rotate(-68.12)"/><polygon class="cls-2" points="293.38 248.72 301.77 245.13 313.74 249.94 305.35 253.52 293.38 248.72"/><polygon class="cls-3" points="293.38 248.72 298.19 236.75 306.58 233.17 301.77 245.13 293.38 248.72"/><rect class="cls-2" x="445.43" y="225.04" width="12.9" height="12.9" transform="translate(68.67 564.56) rotate(-68.12)"/><polygon class="cls-2" points="435.1 238.65 443.49 235.07 455.46 239.88 447.07 243.46 435.1 238.65"/><polygon class="cls-3" points="435.1 238.65 439.91 226.69 448.3 223.1 443.49 235.07 435.1 238.65"/><rect class="cls-2" x="350.87" y="235.12" width="14.36" height="14.36" transform="translate(-31.43 54.65) rotate(-8.36)"/><polygon class="cls-2" points="370.17 226 364.11 234.15 349.9 236.24 355.96 228.09 370.17 226"/><polygon class="cls-3" points="370.17 226 372.26 240.21 366.2 248.36 364.11 234.15 370.17 226"/><rect class="cls-2" x="392.18" y="204.18" width="14.36" height="14.36" transform="translate(113.67 561.42) rotate(-78.67)"/><polygon class="cls-2" points="410.62 228.26 404.99 219.81 407.81 205.73 413.44 214.18 410.62 228.26"/><polygon class="cls-3" points="410.62 228.26 396.54 225.44 390.9 216.99 404.99 219.81 410.62 228.26"/><path class="cls-4" d="M54.39,270.12,52.7,257c-4.26,5.69-6.66,11.85-6.8,18.31a29.82,29.82,0,0,0,3.33,14.15,26.19,26.19,0,0,1-.11-3.2A30.5,30.5,0,0,1,54.39,270.12Z"/><path class="cls-5" d="M212.63,294.5S154,322,129.44,319l10.13,26.5S196.09,327.77,212.63,294.5Z"/><path class="cls-6" d="M135.55,332.88s64.71-16.13,77.08-38.38c0,0-12.6,31-73.06,51Z"/><path class="cls-7" d="M24.53,191.08c-1.74.92-4.93-1.65-7.26-5.8l-.46.4c2.18,4.3,2.54,8.45.79,9.38s-5-1.73-7.37-6l-.57.14s0,0,0,0c2.36,4.45,2.8,8.83,1,9.79s-5.19-1.87-7.55-6.31A15.73,15.73,0,0,1,1,185.42c-.27-3,2.44-6.76,6.81-9.07,3.38-1.8,6.91-2.28,9.42-1.5l.11,0c1.86.44,4.33,2.93,6.18,6.42C25.9,185.73,26.34,190.12,24.53,191.08Z"/><path class="cls-7" d="M130.89,247.6c-1.19,1.57.84,5.13,4.56,8.09l-.46.4c-3.9-2.85-7.94-3.86-9.14-2.28s.91,5.23,4.73,8.22a4.85,4.85,0,0,0-.23.54h0c-4-3-8.27-4.16-9.51-2.53s1,5.42,5,8.45a15.61,15.61,0,0,0,6.89,3.23c2.91.74,7-1.34,10-5.27,2.31-3.06,3.35-6.47,3-9.06a.24.24,0,0,0,0-.12c-.13-1.9-2.19-4.75-5.35-7.13C136.38,247.1,132.13,246,130.89,247.6Z"/><path class="cls-5" d="M86.05,415.46C74.18,405.6,60.91,393.69,54.32,370c-5.73-20.66,4.34-59.13,4.34-59.13L42.4,175.49,66,162.13l75.52,176.76-11,1.7L141.6,339l0-.1,48-7.41a.42.42,0,0,1,0-.07l5.45,9.14c-1,3.4-13.06,43-38.24,43.61-18.14.46-35.33-5.87-50.37-16.61a114.08,114.08,0,0,1-12-10l-6.86-7.05q3.3,3.69,6.86,7.05l3.48,3.57L97,410.31"/><path class="cls-7" d="M98.21,429.32a23.06,23.06,0,0,1-2.95,2.76s0,0,0,0a21.79,21.79,0,0,1-2,1.7c-3.87,2.92-7.92,4.07-9,2.58a1.47,1.47,0,0,1-.28-.72c-.16-1.37,1.13-3.53,3.33-5.61.35-.24.71-.49,1.06-.75a23.45,23.45,0,0,0,2-1.65c-.36.24-.72.49-1.08.76a21.27,21.27,0,0,0-1.93,1.64c-3,2-6,2.91-7.43,2.25a1.31,1.31,0,0,1-.55-.43,2.13,2.13,0,0,1-.09-2,12.06,12.06,0,0,1,3.12-4.32c.36-.23.72-.49,1.08-.75a23,23,0,0,0,1.93-1.64c-.35.23-.71.49-1.06.75a23.39,23.39,0,0,0-2,1.64,18,18,0,0,1-3.06,1.67c-2.28,1-4.19,1.09-4.9.14-1.12-1.49,1.11-5.05,5-8,1.93-1.45,6-3.89,6-3.89,2.94-1.84,6-4.27,10.89-4.95a7.33,7.33,0,0,1,5.15,1.39C105.22,415.37,103.78,423.15,98.21,429.32Z"/><path class="cls-8" d="M94.33,357.58q-3.56-3.36-6.86-7.05Z"/><polygon class="cls-8" points="141.6 338.99 130.54 340.59 141.56 338.88 141.6 338.99"/><path class="cls-5" d="M67.6,154.56a14.78,14.78,0,0,1-1.09,6.18c-.07.2-.16.4-.24.59a16.46,16.46,0,0,1-5.53,7.34,21.44,21.44,0,0,1-6.35,3.51c-9.93,3.62-15.77,4.4-20.25.36-2.12-1.92-3.24-4.13-3.05-5.87.95-8.89,1.28-15.66,5.72-21.29l0,0c1.19-1.5,4.07-3.41,5.64-4.47l.21-.14A15.41,15.41,0,0,1,48,139.4a22.08,22.08,0,0,1,13.52,3.87A14.36,14.36,0,0,1,67.6,154.56Z"/><path class="cls-9" d="M42.68,140.75l-.21.14c-1.57,1.06-4.45,3-5.64,4.47a3.12,3.12,0,0,1-.74-2.91C36.71,140.66,39.55,140,42.68,140.75Z"/><path class="cls-9" d="M70.47,159.31c-.46,1.32-2.11,2-4.2,2,.08-.19.17-.39.24-.59a14.78,14.78,0,0,0,1.09-6.18C69.78,155.91,71,157.79,70.47,159.31Z"/><circle class="cls-9" cx="38.89" cy="153.04" r="1.35"/><ellipse class="cls-9" cx="35.62" cy="168.41" rx="4.05" ry="3.04" transform="translate(-8.53 2.03) rotate(-2.92)"/><circle class="cls-9" cx="48.56" cy="157.28" r="1.35"/><polygon class="cls-4" points="87.82 350.85 96.94 410.51 97.81 361.15 87.82 350.85"/><polygon class="cls-4" points="66.04 162.13 125.85 341.48 141.92 338.64 66.04 162.13"/><path class="cls-10" d="M33.88,241.65c-2.91.15-5.83.28-8.74.45a3.46,3.46,0,0,1-3-1.28c-1.62-1.85-3.27-3.68-4.91-5.52l-5.09-5.72c-.53-.59-1.05-1.2-1.6-1.79a3.21,3.21,0,0,1-.84-2.94q1.33-7.5,2.66-15c.15-.83.29-1.67.45-2.5a3,3,0,0,1,1.55-2.13q3.87-2.11,7.76-4.21l8-4.35a3.26,3.26,0,0,1,3-.14q7.31,3.06,14.61,6.09c.54.23,1.07.47,1.62.67a3.45,3.45,0,0,1,2.19,2.5c1,3.69,2.09,7.38,3.14,11.07.54,1.89,1.07,3.79,1.62,5.67a3.42,3.42,0,0,1-.68,3.16c-1.53,2.07-3,4.17-4.53,6.26l-4.7,6.5-1,1.42a3.05,3.05,0,0,1-2.43,1.33C39.92,241.35,36.9,241.5,33.88,241.65Z"/><path class="cls-10" d="M31.35,205.91a16.27,16.27,0,0,0-.33-2.1,1.45,1.45,0,0,1,.19-1.29.94.94,0,0,1,1.62.21,2.23,2.23,0,0,1,.1,1.28,11.27,11.27,0,0,0-.08,2,.62.62,0,0,0,.12.38,1.06,1.06,0,0,1,.3.56c0,.12.14.12.24.12a12.6,12.6,0,0,1,6.41,2.19,13.8,13.8,0,0,1,1.43,1.12c.13.12.23.15.36,0a.34.34,0,0,1,.26-.14,1.14,1.14,0,0,0,1-.52A15.32,15.32,0,0,0,44,208.54a2.15,2.15,0,0,1,.88-.73,1,1,0,0,1,1.17.31,1.06,1.06,0,0,1-.07,1.22,3.39,3.39,0,0,1-.88.72,10.62,10.62,0,0,0-1.5,1.09.71.71,0,0,0-.3.57.41.41,0,0,1-.19.31c-.12.11-.12.2,0,.34a12.6,12.6,0,0,1,2,4.5,12.92,12.92,0,0,1,.31,3.77c0,.16,0,.23.19.25a.29.29,0,0,1,.2.09c.33.47.85.43,1.33.49.64.09,1.28,0,1.92.11a1.26,1.26,0,0,1,.7.3.93.93,0,0,1,.33,1,1.05,1.05,0,0,1-.88.68,2.37,2.37,0,0,1-1-.17,11.65,11.65,0,0,0-1.92-.54.82.82,0,0,0-.7.11.28.28,0,0,1-.23.06c-.24-.06-.31.07-.37.27a12.67,12.67,0,0,1-3.21,5.44,11,11,0,0,1-1.7,1.42c-.18.12-.26.23-.14.43a.23.23,0,0,1,0,.21,1.06,1.06,0,0,0,.18.86,13.64,13.64,0,0,0,1.07,1.54,2.27,2.27,0,0,1,.48.84,1,1,0,0,1-.52,1.22,1,1,0,0,1-1.25-.41,3.58,3.58,0,0,1-.44-.95,11.89,11.89,0,0,0-.74-1.72.74.74,0,0,0-.48-.4.33.33,0,0,1-.23-.18c-.08-.2-.2-.19-.38-.12a11.48,11.48,0,0,1-3.25.86,12.51,12.51,0,0,1-5.09-.4l-.2-.06c-.13,0-.22,0-.27.11a.52.52,0,0,1-.33.32.6.6,0,0,0-.32.34,9.54,9.54,0,0,0-.6,1.9,2.68,2.68,0,0,1-.48,1.14,1,1,0,0,1-1.21.3,1,1,0,0,1-.47-1.21,3.06,3.06,0,0,1,.4-.86,11.47,11.47,0,0,0,.95-1.76.7.7,0,0,0,0-.6.41.41,0,0,1,0-.36c.1-.19,0-.28-.15-.37a12.74,12.74,0,0,1-5.6-6.25c-.09-.22-.17-.38-.44-.26a.21.21,0,0,1-.19,0,1,1,0,0,0-.87,0,13,13,0,0,0-1.69.68,2.34,2.34,0,0,1-1.15.29.95.95,0,0,1-.54-1.71,2.06,2.06,0,0,1,1.12-.38,12.57,12.57,0,0,0,2-.36.79.79,0,0,0,.51-.36.5.5,0,0,1,.32-.23c.13,0,.17-.12.14-.26a12.57,12.57,0,0,1,1.43-8.43c.1-.18.15-.31-.07-.42a.26.26,0,0,1-.13-.2,1,1,0,0,0-.56-.7,12.06,12.06,0,0,0-1.56-.89,2.24,2.24,0,0,1-.9-.65,1,1,0,0,1,1.13-1.5,3.25,3.25,0,0,1,1.06.82,8.68,8.68,0,0,0,1.39,1.18.65.65,0,0,0,.57.13.39.39,0,0,1,.34.11.18.18,0,0,0,.27,0,12.42,12.42,0,0,1,7-4.06l.3,0c.25,0,.49-.06.46-.41a.13.13,0,0,1,0-.11A1,1,0,0,0,31.35,205.91Z"/><path class="cls-10" d="M36.43,223a.83.83,0,0,1,.91-.87c1.41.15,2.81.32,4.22.48.21,0,.43.07.64.07s.25.12.18.31a10.07,10.07,0,0,1-1.23,2.48,9.89,9.89,0,0,1-2.25,2.36c-.14.11-.21.13-.3-.06-.66-1.41-1.33-2.81-2-4.21A1.42,1.42,0,0,1,36.43,223Z"/><path class="cls-10" d="M31.05,210.11c0,1.34,0,2.64,0,3.95a7.07,7.07,0,0,1,0,.92.83.83,0,0,1-1.26.66c-.48-.26-.93-.57-1.4-.87l-2.72-1.72c-.19-.11-.24-.18-.06-.36a10,10,0,0,1,5.27-2.84C31.11,209.79,31,210,31.05,210.11Z"/><path class="cls-10" d="M22.72,220.23a10.31,10.31,0,0,1,1.09-5.11c.08-.16.15-.18.29-.06.94.76,1.89,1.51,2.82,2.27a7.48,7.48,0,0,1,1,.89.82.82,0,0,1-.29,1.37c-.52.22-1.07.38-1.6.57l-3,1c-.27.09-.28.08-.31-.2S22.74,220.43,22.72,220.23Z"/><path class="cls-10" d="M42.91,219.31c0,.23,0,.45,0,.68s0,.24-.24.2l-2.85-.67-1.65-.39a2.47,2.47,0,0,1-.36-.11.82.82,0,0,1-.34-1.32c.41-.49.89-.9,1.33-1.36.71-.71,1.44-1.41,2.15-2.13.14-.14.21-.16.32,0a10,10,0,0,1,1.58,4.5A5.58,5.58,0,0,1,42.91,219.31Z"/><path class="cls-10" d="M33.3,229.85a10.76,10.76,0,0,1-3-.33c-.19-.05-.2-.12-.12-.27.71-1.44,1.4-2.89,2.12-4.33a.85.85,0,0,1,1.55,0c.3.45.58.91.86,1.37.55.89,1.1,1.78,1.66,2.66.12.19.07.26-.13.33a9.47,9.47,0,0,1-2.48.54A4.11,4.11,0,0,0,33.3,229.85Z"/><path class="cls-10" d="M28.52,222.58c.7,0,1.11.42,1,1a19.86,19.86,0,0,1-.67,2c-.3.89-.63,1.77-.94,2.66-.07.21-.14.24-.33.12A10.12,10.12,0,0,1,23.64,224c-.12-.27-.12-.27.17-.33l4.51-1Z"/><path class="cls-10" d="M33.57,210.05c0-.36,0-.37.28-.34a10.18,10.18,0,0,1,5,2c.13.09.25.22.38.31s.14.19,0,.3l-2,1.61-1.67,1.31a.88.88,0,0,1-1.29-.05,1.36,1.36,0,0,1-.24-.78c-.11-1-.2-2.08-.33-3.12A7.44,7.44,0,0,0,33.57,210.05Z"/><polygon class="cls-10" points="32.11 218.42 31.37 219.44 31.72 220.66 32.88 221.15 33.99 220.54 34.21 219.3 33.37 218.35 32.11 218.42"/><path class="cls-10" d="M105.84,263.73c-3.65.18-7.3.35-11,.56a4.32,4.32,0,0,1-3.73-1.6c-2-2.32-4.1-4.61-6.15-6.92s-4.25-4.77-6.37-7.15c-.67-.75-1.32-1.51-2-2.24a4,4,0,0,1-1.06-3.69q1.68-9.39,3.33-18.79c.19-1.05.36-2.1.56-3.14a3.73,3.73,0,0,1,2-2.67l9.71-5.27,10-5.44a4.12,4.12,0,0,1,3.73-.18l18.29,7.63c.68.28,1.35.58,2,.84a4.3,4.3,0,0,1,2.75,3.12c1.28,4.63,2.61,9.25,3.93,13.88.67,2.36,1.34,4.73,2,7.09a4.25,4.25,0,0,1-.84,4c-1.92,2.59-3.78,5.22-5.67,7.83l-5.89,8.14-1.29,1.78a3.82,3.82,0,0,1-3,1.67C113.39,263.35,109.61,263.53,105.84,263.73Z"/><path class="cls-10" d="M102.67,219a22,22,0,0,0-.42-2.63,1.76,1.76,0,0,1,.25-1.61,1.17,1.17,0,0,1,2,.26,2.82,2.82,0,0,1,.13,1.6,12.58,12.58,0,0,0-.1,2.53.77.77,0,0,0,.14.47,1.17,1.17,0,0,1,.37.7c0,.15.19.14.31.15a15.89,15.89,0,0,1,8,2.73,17.55,17.55,0,0,1,1.8,1.42c.16.14.28.18.45,0a.43.43,0,0,1,.32-.17,1.46,1.46,0,0,0,1.22-.64,19.68,19.68,0,0,0,1.35-1.53,2.78,2.78,0,0,1,1.1-.91,1.24,1.24,0,0,1,1.46.39,1.3,1.3,0,0,1-.08,1.52,3.89,3.89,0,0,1-1.11.91,13.72,13.72,0,0,0-1.87,1.36.9.9,0,0,0-.38.72.5.5,0,0,1-.23.39.26.26,0,0,0,0,.42A15.88,15.88,0,0,1,120,232.7a16.57,16.57,0,0,1,.39,4.71c0,.21,0,.3.23.32s.2,0,.25.11c.42.59,1.07.54,1.67.62.8.11,1.61,0,2.4.14a1.61,1.61,0,0,1,.88.37,1.16,1.16,0,0,1,.41,1.26,1.3,1.3,0,0,1-1.1.86,3,3,0,0,1-1.31-.22,16.57,16.57,0,0,0-2.41-.68,1.1,1.1,0,0,0-.87.14.37.37,0,0,1-.3.08c-.29-.07-.38.08-.46.34a15.83,15.83,0,0,1-4,6.81,13.57,13.57,0,0,1-2.14,1.78c-.21.15-.32.29-.17.53a.35.35,0,0,1,0,.28,1.3,1.3,0,0,0,.23,1.06,16.18,16.18,0,0,0,1.34,1.93,3.07,3.07,0,0,1,.59,1.06,1.26,1.26,0,0,1-.64,1.53,1.3,1.3,0,0,1-1.57-.51,4.93,4.93,0,0,1-.55-1.19,14.21,14.21,0,0,0-.93-2.16.93.93,0,0,0-.61-.5.41.41,0,0,1-.28-.23c-.1-.25-.25-.24-.47-.14a14.74,14.74,0,0,1-4.07,1.07,15.46,15.46,0,0,1-6.38-.51l-.24-.07c-.17-.06-.29,0-.35.14a.61.61,0,0,1-.41.4.7.7,0,0,0-.39.42,13.48,13.48,0,0,0-.77,2.38,3.27,3.27,0,0,1-.59,1.44,1.23,1.23,0,0,1-1.51.37,1.31,1.31,0,0,1-.6-1.52,4,4,0,0,1,.51-1.07,14.1,14.1,0,0,0,1.18-2.2.92.92,0,0,0,0-.76.51.51,0,0,1,0-.45c.13-.24,0-.34-.19-.46a15.94,15.94,0,0,1-7-7.83c-.11-.28-.22-.47-.56-.32a.29.29,0,0,1-.24,0,1.26,1.26,0,0,0-1.09,0,17.6,17.6,0,0,0-2.11.86,2.9,2.9,0,0,1-1.44.36,1.21,1.21,0,0,1-1.11-.87A1.2,1.2,0,0,1,83.7,241a2.61,2.61,0,0,1,1.4-.47,15.48,15.48,0,0,0,2.52-.45,1,1,0,0,0,.65-.46.59.59,0,0,1,.39-.28c.17-.05.21-.14.18-.33a15.72,15.72,0,0,1,1.8-10.55c.12-.22.18-.38-.1-.52a.33.33,0,0,1-.16-.26,1.3,1.3,0,0,0-.7-.88,15.63,15.63,0,0,0-2-1.1,2.86,2.86,0,0,1-1.12-.82A1.2,1.2,0,0,1,88,223a3.91,3.91,0,0,1,1.33,1,11.65,11.65,0,0,0,1.74,1.48.83.83,0,0,0,.71.16c.18,0,.3.05.43.14a.22.22,0,0,0,.34-.06,15.53,15.53,0,0,1,8.82-5.07l.37-.08c.32,0,.61-.07.57-.5a.27.27,0,0,1,.05-.15A1.22,1.22,0,0,0,102.67,219Z"/><path class="cls-10" d="M109,240.34a1,1,0,0,1,1.14-1.08c1.77.19,3.53.4,5.29.6a7.53,7.53,0,0,0,.8.09c.33,0,.32.15.23.39a12.82,12.82,0,0,1-1.54,3.1,12.59,12.59,0,0,1-2.82,3c-.18.14-.26.16-.38-.08-.82-1.76-1.66-3.51-2.49-5.26A2,2,0,0,1,109,240.34Z"/><path class="cls-10" d="M102.29,224.24c0,1.67,0,3.3,0,4.94a8.83,8.83,0,0,1,0,1.15,1,1,0,0,1-1.58.83c-.6-.32-1.17-.72-1.75-1.09l-3.42-2.16c-.22-.14-.29-.22-.06-.45A12.54,12.54,0,0,1,102,223.9C102.36,223.83,102.27,224.09,102.29,224.24Z"/><path class="cls-10" d="M91.85,236.9a13,13,0,0,1,1.37-6.39c.1-.2.19-.23.37-.08,1.17.95,2.36,1.89,3.53,2.85a10,10,0,0,1,1.32,1.11,1,1,0,0,1-.38,1.71c-.65.28-1.33.49-2,.72l-3.73,1.29c-.33.11-.35.09-.38-.25S91.88,237.16,91.85,236.9Z"/><path class="cls-10" d="M117.14,235.76a7.85,7.85,0,0,0,0,.84c0,.25-.06.31-.3.25l-3.57-.83-2.07-.49a3.88,3.88,0,0,1-.45-.14,1,1,0,0,1-.42-1.65c.5-.61,1.11-1.14,1.66-1.7.89-.9,1.8-1.77,2.69-2.67.17-.18.26-.2.41,0a12.68,12.68,0,0,1,2,5.64C117.06,235.28,117.14,235.52,117.14,235.76Z"/><path class="cls-10" d="M105.11,249a13.92,13.92,0,0,1-3.75-.41c-.24-.06-.25-.15-.15-.34.89-1.81,1.76-3.62,2.66-5.43a1.06,1.06,0,0,1,1.93,0c.38.56.73,1.14,1.09,1.72.69,1.11,1.37,2.22,2.07,3.32.15.24.1.34-.15.42a12.81,12.81,0,0,1-3.11.68C105.5,248.88,105.31,248.92,105.11,249Z"/><path class="cls-10" d="M99.12,239.85c.88,0,1.39.52,1.21,1.29a23.7,23.7,0,0,1-.83,2.46c-.38,1.12-.79,2.22-1.18,3.34-.09.25-.18.29-.41.14A12.5,12.5,0,0,1,93,241.57c-.16-.34-.16-.34.21-.42l5.64-1.27Z"/><path class="cls-10" d="M105.44,224.16c0-.45,0-.47.35-.43a12.66,12.66,0,0,1,6.32,2.5c.17.13.32.28.49.39s.17.24,0,.38L110,229c-.7.55-1.39,1.11-2.09,1.65a1.12,1.12,0,0,1-1.62-.06,1.66,1.66,0,0,1-.29-1c-.15-1.3-.25-2.61-.42-3.91A9.86,9.86,0,0,0,105.44,224.16Z"/><polygon class="cls-10" points="103.61 234.63 102.69 235.92 103.12 237.44 104.58 238.05 105.97 237.29 106.24 235.74 105.19 234.55 103.61 234.63"/><path class="cls-11" d="M100.15,259.85c-3.65.19-7.3.36-11,.57a4.31,4.31,0,0,1-3.72-1.6q-3.06-3.48-6.16-6.92T73,244.75c-.67-.75-1.32-1.52-2-2.25a4,4,0,0,1-1.06-3.69q1.68-9.39,3.33-18.78c.19-1.05.36-2.1.57-3.14a3.72,3.72,0,0,1,1.94-2.67L85.45,209c3.33-1.81,6.68-3.62,10-5.44a4.09,4.09,0,0,1,3.73-.18l18.3,7.63c.67.28,1.34.58,2,.83a4.31,4.31,0,0,1,2.75,3.13c1.29,4.63,2.62,9.25,3.93,13.87.67,2.37,1.34,4.74,2,7.1a4.28,4.28,0,0,1-.85,4c-1.91,2.59-3.78,5.22-5.67,7.83l-5.89,8.14c-.43.59-.86,1.18-1.28,1.78a3.91,3.91,0,0,1-3,1.67C107.7,259.48,103.93,259.66,100.15,259.85Z"/><path class="cls-11" d="M97,215.1a20.14,20.14,0,0,0-.42-2.63,1.81,1.81,0,0,1,.25-1.61,1.17,1.17,0,0,1,2,.26,2.87,2.87,0,0,1,.12,1.59,13.43,13.43,0,0,0-.1,2.53.78.78,0,0,0,.15.47,1.26,1.26,0,0,1,.37.71c0,.15.18.14.3.15a15.83,15.83,0,0,1,8,2.73,18.81,18.81,0,0,1,1.79,1.41c.17.15.29.18.45,0a.46.46,0,0,1,.32-.17,1.46,1.46,0,0,0,1.23-.65,19.53,19.53,0,0,0,1.35-1.52,2.61,2.61,0,0,1,1.09-.91,1.24,1.24,0,0,1,1.47.39,1.31,1.31,0,0,1-.08,1.52,4.18,4.18,0,0,1-1.11.9,13.41,13.41,0,0,0-1.87,1.37.87.87,0,0,0-.39.72c0,.18-.12.28-.23.39a.26.26,0,0,0,0,.42,15.74,15.74,0,0,1,2.57,5.63,16.31,16.31,0,0,1,.39,4.72c0,.2,0,.29.23.32a.35.35,0,0,1,.26.11c.41.59,1.06.54,1.66.62.8.11,1.61,0,2.4.13a1.62,1.62,0,0,1,.89.38,1.17,1.17,0,0,1,.4,1.26,1.31,1.31,0,0,1-1.09.86,3,3,0,0,1-1.32-.22,14.38,14.38,0,0,0-2.41-.68,1.08,1.08,0,0,0-.87.14.32.32,0,0,1-.29.07c-.3-.07-.39.09-.46.35a15.91,15.91,0,0,1-4,6.81,14,14,0,0,1-2.13,1.78c-.22.14-.33.28-.18.53a.37.37,0,0,1,0,.27,1.28,1.28,0,0,0,.22,1.07,17,17,0,0,0,1.34,1.93,2.9,2.9,0,0,1,.6,1,1.25,1.25,0,0,1-.65,1.53,1.29,1.29,0,0,1-1.57-.51,4.7,4.7,0,0,1-.55-1.18,13.79,13.79,0,0,0-.93-2.16,1,1,0,0,0-.6-.51.37.37,0,0,1-.28-.22c-.11-.25-.26-.24-.48-.14a15,15,0,0,1-4.07,1.07,15.82,15.82,0,0,1-6.38-.51l-.24-.07c-.16-.07-.29,0-.35.14a.64.64,0,0,1-.4.4.75.75,0,0,0-.4.42,13.19,13.19,0,0,0-.76,2.38,3.35,3.35,0,0,1-.59,1.43,1.24,1.24,0,0,1-1.52.38,1.3,1.3,0,0,1-.59-1.52,3.87,3.87,0,0,1,.5-1.07,14.15,14.15,0,0,0,1.19-2.2.92.92,0,0,0,0-.76.48.48,0,0,1,0-.45c.12-.24,0-.35-.19-.46a16.45,16.45,0,0,1-3.28-2.4,15.74,15.74,0,0,1-3.73-5.43c-.11-.28-.22-.48-.56-.33a.26.26,0,0,1-.24,0,1.24,1.24,0,0,0-1.08,0,17.69,17.69,0,0,0-2.12.85,2.81,2.81,0,0,1-1.44.37,1.19,1.19,0,0,1-.67-2.15,2.61,2.61,0,0,1,1.4-.47,15.29,15.29,0,0,0,2.52-.45,1,1,0,0,0,.65-.46.61.61,0,0,1,.39-.28c.18-.05.22-.15.18-.33A15.7,15.7,0,0,1,85,224.62c.13-.23.18-.39-.09-.53a.29.29,0,0,1-.17-.25A1.26,1.26,0,0,0,84,223a15.21,15.21,0,0,0-2-1.1,3,3,0,0,1-1.12-.83,1.2,1.2,0,0,1,1.42-1.87,3.91,3.91,0,0,1,1.32,1,11.81,11.81,0,0,0,1.75,1.48.84.84,0,0,0,.7.16c.19-.06.31,0,.43.13a.23.23,0,0,0,.35-.05,15.52,15.52,0,0,1,8.81-5.08c.13,0,.25-.06.37-.07.32,0,.61-.07.58-.5a.17.17,0,0,1,0-.15A1.18,1.18,0,0,0,97,215.1Z"/><path class="cls-11" d="M103.34,236.47a1,1,0,0,1,1.14-1.09l5.28.6a7.46,7.46,0,0,0,.81.1c.33,0,.31.14.23.39a13.22,13.22,0,0,1-1.55,3.1,12.54,12.54,0,0,1-2.81,3c-.19.14-.27.16-.38-.09-.83-1.75-1.67-3.5-2.5-5.26A1.74,1.74,0,0,1,103.34,236.47Z"/><path class="cls-11" d="M96.61,220.37c0,1.66,0,3.3,0,4.93a7.49,7.49,0,0,1,0,1.16,1,1,0,0,1-1.57.83c-.61-.33-1.18-.72-1.76-1.09-1.14-.72-2.27-1.45-3.41-2.16-.23-.14-.29-.23-.07-.45A12.58,12.58,0,0,1,96.32,220C96.68,220,96.58,220.22,96.61,220.37Z"/><path class="cls-11" d="M86.17,233a12.86,12.86,0,0,1,1.37-6.39c.1-.2.18-.24.36-.09l3.54,2.85a11.64,11.64,0,0,1,1.31,1.11,1,1,0,0,1-.37,1.72c-.65.27-1.34.48-2,.71q-1.86.66-3.72,1.29c-.34.12-.35.1-.39-.24S86.19,233.28,86.17,233Z"/><path class="cls-11" d="M111.45,231.89c0,.28,0,.56,0,.84s-.06.31-.3.25l-3.57-.84-2.07-.49a3.19,3.19,0,0,1-.44-.13,1,1,0,0,1-.43-1.66c.51-.61,1.11-1.13,1.67-1.69.88-.9,1.79-1.78,2.68-2.67.18-.18.26-.21.41,0a12.51,12.51,0,0,1,2,5.64A5.67,5.67,0,0,1,111.45,231.89Z"/><path class="cls-11" d="M99.42,245.07a13.56,13.56,0,0,1-3.75-.4c-.24-.06-.24-.15-.15-.34.89-1.81,1.76-3.63,2.66-5.43a1.06,1.06,0,0,1,1.94-.05c.38.56.72,1.15,1.08,1.72.69,1.11,1.37,2.23,2.07,3.33.16.24.1.33-.15.42A12.25,12.25,0,0,1,100,245Z"/><path class="cls-11" d="M93.44,236c.87,0,1.38.53,1.21,1.3s-.56,1.64-.84,2.46c-.38,1.11-.79,2.22-1.18,3.33-.08.26-.17.3-.41.15a12.52,12.52,0,0,1-4.89-5.52c-.16-.34-.15-.34.21-.42L93.18,236C93.3,236,93.41,236,93.44,236Z"/><path class="cls-11" d="M99.75,220.29c0-.46,0-.47.36-.44a12.81,12.81,0,0,1,6.32,2.51c.16.12.31.27.48.39s.17.24,0,.38c-.86.66-1.71,1.34-2.56,2-.69.55-1.38,1.11-2.09,1.64a1.1,1.1,0,0,1-1.62-.06,1.75,1.75,0,0,1-.29-1c-.14-1.31-.25-2.61-.41-3.92A9.82,9.82,0,0,0,99.75,220.29Z"/><polygon class="cls-11" points="97.93 230.76 97.01 232.05 97.44 233.57 98.89 234.18 100.28 233.42 100.55 231.87 99.51 230.68 97.93 230.76"/><path class="cls-12" d="M28.62,238.33c-2.92.15-5.83.28-8.75.45a3.44,3.44,0,0,1-3-1.28c-1.62-1.85-3.28-3.68-4.92-5.53l-5.09-5.71c-.53-.59-1-1.2-1.59-1.79a3.22,3.22,0,0,1-.85-2.94q1.35-7.5,2.66-15c.15-.83.29-1.67.45-2.51a3,3,0,0,1,1.56-2.12l7.75-4.21,8-4.35a3.27,3.27,0,0,1,3-.14l14.61,6.09c.54.23,1.07.47,1.62.67a3.43,3.43,0,0,1,2.19,2.49c1,3.7,2.09,7.39,3.14,11.08.54,1.89,1.07,3.79,1.62,5.67a3.39,3.39,0,0,1-.67,3.16c-1.53,2.07-3,4.17-4.53,6.26l-4.71,6.5-1,1.42a3.1,3.1,0,0,1-2.44,1.33C34.65,238,31.63,238.17,28.62,238.33Z"/><path class="cls-13" d="M26.09,202.59a16.19,16.19,0,0,0-.34-2.1,1.45,1.45,0,0,1,.2-1.29.94.94,0,0,1,1.62.21,2.2,2.2,0,0,1,.1,1.27,10.51,10.51,0,0,0-.08,2,.63.63,0,0,0,.11.38.94.94,0,0,1,.3.56c0,.12.15.11.25.12a12.68,12.68,0,0,1,6.4,2.18,13.15,13.15,0,0,1,1.43,1.13c.14.12.23.14.36,0a.36.36,0,0,1,.26-.13,1.16,1.16,0,0,0,1-.52c.37-.39.74-.79,1.08-1.22a2.11,2.11,0,0,1,.87-.72,1,1,0,0,1,1.17.31,1,1,0,0,1-.06,1.21,3.28,3.28,0,0,1-.89.73,10,10,0,0,0-1.49,1.09.69.69,0,0,0-.31.57.39.39,0,0,1-.18.31.22.22,0,0,0,0,.34,12.43,12.43,0,0,1,2,4.5,12.89,12.89,0,0,1,.31,3.77c0,.16,0,.23.19.25s.16,0,.2.09c.33.47.85.43,1.33.49.64.09,1.29,0,1.92.11a1.26,1.26,0,0,1,.71.3.92.92,0,0,1,.32,1,1,1,0,0,1-.87.69,2.39,2.39,0,0,1-1.06-.17,12.76,12.76,0,0,0-1.92-.55.85.85,0,0,0-.69.12.3.3,0,0,1-.24,0c-.24,0-.31.07-.37.28a12.75,12.75,0,0,1-3.2,5.44,10.57,10.57,0,0,1-1.71,1.42c-.17.12-.26.23-.14.42a.29.29,0,0,1,0,.22,1.06,1.06,0,0,0,.18.86A14.49,14.49,0,0,0,36,229.87a2.53,2.53,0,0,1,.47.85,1,1,0,0,1-.51,1.22,1,1,0,0,1-1.26-.41,4.1,4.1,0,0,1-.44-.95,10,10,0,0,0-.74-1.72.71.71,0,0,0-.48-.4.38.38,0,0,1-.23-.18c-.08-.2-.2-.19-.37-.12a11.48,11.48,0,0,1-3.25.86,12.55,12.55,0,0,1-5.1-.41l-.19-.05a.18.18,0,0,0-.28.11.51.51,0,0,1-.32.32.6.6,0,0,0-.32.34,10.27,10.27,0,0,0-.61,1.9,2.79,2.79,0,0,1-.47,1.14,1,1,0,0,1-1.21.3,1,1,0,0,1-.48-1.21,3.4,3.4,0,0,1,.41-.86,10.62,10.62,0,0,0,.94-1.76.7.7,0,0,0,0-.6.38.38,0,0,1,0-.36c.1-.19,0-.28-.15-.37a12.8,12.8,0,0,1-5.59-6.25c-.09-.23-.18-.38-.45-.26a.22.22,0,0,1-.19,0,1,1,0,0,0-.87,0,13,13,0,0,0-1.69.68,2.29,2.29,0,0,1-1.15.29,1,1,0,0,1-.89-.69,1,1,0,0,1,.36-1,2,2,0,0,1,1.12-.38,12.45,12.45,0,0,0,2-.36.75.75,0,0,0,.51-.37.55.55,0,0,1,.32-.22c.14,0,.17-.12.14-.26a12.57,12.57,0,0,1,1.44-8.43c.1-.18.14-.31-.08-.42a.28.28,0,0,1-.13-.2,1,1,0,0,0-.55-.7,12.17,12.17,0,0,0-1.57-.89,2.24,2.24,0,0,1-.9-.65,1,1,0,0,1,0-1.22,1,1,0,0,1,1.15-.28,3.06,3.06,0,0,1,1.06.82,9.14,9.14,0,0,0,1.39,1.18.66.66,0,0,0,.57.13.38.38,0,0,1,.34.11.19.19,0,0,0,.28,0,12.36,12.36,0,0,1,7-4.06c.1,0,.19-.05.29-.06.26,0,.49,0,.46-.4a.18.18,0,0,1,0-.11A1,1,0,0,0,26.09,202.59Z"/><path class="cls-13" d="M31.16,219.65a.83.83,0,0,1,.91-.86c1.41.15,2.82.31,4.22.48.22,0,.43.07.65.07s.25.12.18.31a10.82,10.82,0,0,1-1.23,2.48,10.29,10.29,0,0,1-2.25,2.36c-.15.11-.22.13-.31-.06-.65-1.41-1.32-2.81-2-4.21A1.59,1.59,0,0,1,31.16,219.65Z"/><path class="cls-13" d="M25.79,206.79c0,1.33,0,2.64,0,4a5.65,5.65,0,0,1,0,.92.83.83,0,0,1-1.26.66c-.49-.26-.94-.57-1.4-.87l-2.73-1.72c-.18-.12-.23-.18-.05-.36a10.1,10.1,0,0,1,5.26-2.85C25.84,206.47,25.77,206.68,25.79,206.79Z"/><path class="cls-13" d="M17.45,216.91a10.31,10.31,0,0,1,1.09-5.11c.08-.16.15-.19.3-.07.93.77,1.88,1.52,2.82,2.28a8.83,8.83,0,0,1,1.05.89.82.82,0,0,1-.3,1.37c-.52.22-1.06.38-1.6.57l-3,1c-.26.09-.28.07-.3-.2S17.47,217.11,17.45,216.91Z"/><path class="cls-13" d="M37.64,216c0,.23,0,.45,0,.68s-.05.24-.24.2l-2.85-.67-1.66-.39-.35-.11a.83.83,0,0,1-.34-1.32A18.94,18.94,0,0,1,33.52,213c.7-.71,1.43-1.41,2.14-2.13.14-.14.21-.16.33,0a10.16,10.16,0,0,1,1.57,4.51A5.58,5.58,0,0,1,37.64,216Z"/><path class="cls-13" d="M28,226.52a10.83,10.83,0,0,1-3-.32c-.19,0-.2-.12-.12-.27.71-1.45,1.41-2.9,2.13-4.34a.84.84,0,0,1,1.54,0c.3.44.58.91.87,1.37.55.89,1.09,1.78,1.65,2.65.12.2.08.27-.12.34a9.65,9.65,0,0,1-2.48.54C28.35,226.47,28.19,226.5,28,226.52Z"/><path class="cls-13" d="M23.26,219.26c.69,0,1.1.42,1,1a19.8,19.8,0,0,1-.66,2c-.31.89-.64,1.77-.94,2.66-.08.2-.15.24-.34.12a10.16,10.16,0,0,1-3.9-4.41c-.13-.27-.12-.27.17-.34l4.5-1Z"/><path class="cls-13" d="M28.3,206.73c0-.36,0-.38.28-.34a10.09,10.09,0,0,1,5.05,2c.13.1.25.23.39.32s.13.19,0,.3c-.69.53-1.37,1.07-2.05,1.61s-1.1.88-1.67,1.31a.88.88,0,0,1-1.29,0,1.37,1.37,0,0,1-.23-.78c-.12-1-.2-2.08-.33-3.12A8.59,8.59,0,0,0,28.3,206.73Z"/><polygon class="cls-13" points="26.84 215.09 26.11 216.12 26.45 217.34 27.61 217.82 28.72 217.22 28.94 215.98 28.1 215.03 26.84 215.09"/><path class="cls-7" d="M208.25,328.69a23,23,0,0,1,2.95,2.77,0,0,0,0,1,0,0,22.09,22.09,0,0,1,1.84,1.89c3.16,3.68,4.57,7.64,3.16,8.85a1.33,1.33,0,0,1-.7.32c-1.36.26-3.59-.89-5.82-2.94-.26-.34-.53-.68-.82-1a20.79,20.79,0,0,0-1.77-1.84c.26.34.54.68.83,1a22,22,0,0,0,1.76,1.83c2.22,2.9,3.3,5.8,2.74,7.26a1.47,1.47,0,0,1-.4.58,2.13,2.13,0,0,1-2,.22,12,12,0,0,1-4.52-2.83c-.26-.35-.53-.69-.82-1a21.93,21.93,0,0,0-1.77-1.82c.26.33.54.68.82,1a24,24,0,0,0,1.77,1.84,19,19,0,0,1,1.87,2.94c1.11,2.22,1.36,4.11.46,4.88-1.41,1.22-5.12-.78-8.27-4.45-1.58-1.83-4.29-5.78-4.29-5.78-2-2.82-4.65-5.74-5.65-10.55a7.28,7.28,0,0,1,1.06-5.22C193.87,322.62,201.72,323.54,208.25,328.69Z"/><path class="cls-14" d="M216.1,277.28l-10.55-2.23,8.62-10.64C69.11,322.92,49.58,285,49.58,285s-10.54,61.72,166-7.7"/><path class="cls-14" d="M305.4,275.5c-16-8.32-38.63-14.14-64.38-15.91l-13.39,5,12.75,7.94c26.5,2.16,49.51,8.62,65,17.66Z"/><path class="cls-15" d="M107.55,98.5c0-1.08-1.79-2-4-2s-4,.87-4,2V199.2a20.46,20.46,0,0,1,8,1.66Z"/><path class="cls-15" d="M107.73,85.29S168.08,86.62,207,76s63.39-25.14,94.27-20.49c5.62.85,8.14.85,23.23,6.72"/><polygon class="cls-9" points="192.26 48.03 186.15 75.42 208.23 71.11 192.26 48.03"/><polygon class="cls-5" points="163.27 114.55 149.9 89.88 172.31 87.98 163.27 114.55"/><polygon class="cls-5" points="126.75 115.75 114.51 90.49 136.98 89.61 126.75 115.75"/><polygon class="cls-9" points="310.15 19.6 291.47 48.43 318.63 52.89 310.15 19.6"/><polygon class="cls-5" points="242.59 103.98 220.06 78.05 246.34 69.83 242.59 103.98"/><polygon class="cls-5" points="274.66 93.06 252.13 67.12 278.4 58.91 274.66 93.06"/><ellipse class="cls-12" cx="376.9" cy="63.23" rx="11.87" ry="28.93" transform="translate(-4.77 82.67) rotate(-12.44)"/><ellipse class="cls-12" cx="337.59" cy="71.86" rx="2.74" ry="6.26" transform="translate(-7.55 74.4) rotate(-12.44)"/><path class="cls-12" d="M336.24,65.75l32.11-29.56Z"/><path class="cls-12" d="M340.41,77.65l40.22,13.6Z"/><ellipse class="cls-7" cx="377.23" cy="63.73" rx="2.74" ry="3.43" transform="translate(-4.87 82.75) rotate(-12.44)"/><line class="cls-16" x1="364.66" y1="60.88" x2="376.49" y2="60.38"/><line class="cls-16" x1="377.97" y1="67.08" x2="367.03" y2="71.6"/><ellipse class="cls-12" cx="69.33" cy="84.34" rx="17.9" ry="7.34" transform="translate(-33.17 121.94) rotate(-70.72)"/><ellipse class="cls-12" cx="92.85" cy="92.53" rx="3.87" ry="1.7" transform="translate(-25.15 149.62) rotate(-70.72)"/><path class="cls-12" d="M94.13,88.88,76.58,68.36Z"/><path class="cls-12" d="M91.2,96l-25.71,5.39Z"/><ellipse class="cls-7" cx="69.09" cy="85.39" rx="2.12" ry="1.7" transform="translate(-30.78 131.14) rotate(-75.63)"/><line class="cls-7" x1="76.92" y1="83.9" x2="69.61" y2="83.34"/><line class="cls-7" x1="68.56" y1="87.45" x2="75.23" y2="90.47"/><path class="cls-8" d="M97.66,101s-5.49,6.17,0,11.66,13.71,4.11,15.08,2.74,2.06-3.43,0-4.8"/><path class="cls-11" d="M326.69,78.72c-2.22,0-4,1.1-4,2.45V415.72c0,1.35,1.79,2.44,4,2.44s4-1.09,4-2.44V81.17C330.7,79.82,328.91,78.72,326.69,78.72Z"/><path class="cls-8" d="M318.14,90s-5.48,6.17,0,11.66,13.72,4.11,15.09,2.74,2.06-3.43,0-4.8"/><line class="cls-17" x1="374.61" y1="16.48" x2="374.61" y2="16.48"/><path class="cls-18" d="M379.82,22.23c1.62,3.18,3.14,6.69,5.35,7.75,4.24,2,13.69-3.53,17.14-.35s-1.36,13,1,17.11c2.27,4,13.22,4.79,14.25,9.5.94,4.24-8.61,9.28-8.85,13.41C408.47,73.94,417.35,80,416,84s-12.15,3.33-14.56,6.81c-1.73,2.49.06,8.28,0,12.35"/><line class="cls-17" x1="400.13" y1="106.84" x2="400.13" y2="106.84"/><line class="cls-17" x1="383.84" y1="1.5" x2="383.84" y2="1.5"/><path class="cls-19" d="M390.92,4.67c3.79,3.21,7.37,7.85,11.28,9.07,6.35,2,16.81-3.69,22.06.32s2.53,15.55,6.13,21.19c3.48,5.45,15.17,7.81,16.64,14.49,1.36,6.15-8.2,12.84-8.84,18.78-.66,6.16,7.18,14.73,4.64,20.24s-14.2,5.16-18.41,9.62c-3.27,3.49-3.27,11.46-5.82,16.1"/><line class="cls-17" x1="415.91" y1="117.32" x2="415.91" y2="117.32"/><path class="cls-20" d="M40,107.21c-2.07-2,4-10.39,2.57-12.89S30.83,92.82,30.12,90,39,83.27,39,80.34,29.82,73,30.71,70.18c1-3.14,11.29-1.67,13.07-4.24s-3.09-11.79-.59-13.73,10.16,5.11,13.15,4,4.12-11.46,7.35-11.63"/><path class="cls-8" d="M97.63,119s-5.44,6.13,0,11.57,13.61,4.08,15,2.72,2-3.4,0-4.76"/><path class="cls-8" d="M97.63,140.72s-5.44,6.13,0,11.57,10.21,3.4,10.21,3.4"/><path class="cls-8" d="M319.27,111.19s-5.45,6.13,0,11.57,13.6,4.08,15,2.72,2-3.4,0-4.76"/><path class="cls-8" d="M319.27,133s-5.45,6.12,0,11.56,13.6,4.08,15,2.72,2-3.4,0-4.76"/><path class="cls-8" d="M319.27,154.74s-5.45,6.12,0,11.56,13.6,4.09,15,2.73,2-3.41,0-4.77"/></g></g></svg>