<svg xmlns="http://www.w3.org/2000/svg" viewBox="0 0 549.67 520.9"><defs><style>.cls-1,.cls-12,.cls-13,.cls-2,.cls-3,.cls-4,.cls-6,.cls-7,.cls-9{fill:#3f3a37;}.cls-1{opacity:0.05;}.cls-13,.cls-16,.cls-2,.cls-3,.cls-7{stroke:#fff;}.cls-14,.cls-15,.cls-17,.cls-18,.cls-19,.cls-2,.cls-20{stroke-linecap:round;}.cls-14,.cls-15,.cls-17,.cls-18,.cls-19,.cls-2,.cls-20,.cls-3,.cls-4,.cls-5{stroke-linejoin:round;}.cls-10,.cls-11,.cls-12,.cls-14,.cls-15,.cls-16,.cls-2,.cls-3,.cls-4,.cls-5,.cls-7,.cls-8{stroke-width:2px;}.cls-11,.cls-12,.cls-14,.cls-15,.cls-17,.cls-18,.cls-19,.cls-20,.cls-4,.cls-5,.cls-8,.cls-9{stroke:#3f3a37;}.cls-11,.cls-14,.cls-5{fill:#fff;}.cls-10,.cls-11,.cls-12,.cls-13,.cls-16,.cls-7,.cls-8,.cls-9{stroke-miterlimit:10;}.cls-15,.cls-16,.cls-17,.cls-18,.cls-19,.cls-20,.cls-8{fill:none;}.cls-10{fill:#86fed4;stroke:#86fed4;}.cls-17,.cls-18,.cls-19,.cls-20{stroke-width:3px;}.cls-18{stroke-dasharray:0 8.07;}.cls-19{stroke-dasharray:0 8.05;}.cls-20{stroke-dasharray:0 8;}</style></defs><title>main_new2</title><g id="Layer_2" data-name="Layer 2"><g id="Layer_1-2" data-name="Layer 1"><polygon class="cls-1" points="113.82 511.79 379.76 480.95 167.76 448.95 113.82 511.79"/><rect class="cls-2" x="300.88" y="263.71" width="16.66" height="16.66" transform="translate(-61.39 92.4) rotate(-15.48)"/><polygon class="cls-2" points="329.71 283.65 319.46 277.84 315.01 261.79 325.26 267.59 329.71 283.65"/><polygon class="cls-3" points="329.71 283.65 313.65 288.1 303.4 282.29 319.46 277.84 329.71 283.65"/><rect class="cls-2" x="361.98" y="279.11" width="15.38" height="15.38" transform="translate(-34.23 522.97) rotate(-68.12)"/><polygon class="cls-2" points="349.66 295.34 359.67 291.07 373.94 296.8 363.94 301.07 349.66 295.34"/><polygon class="cls-3" points="349.66 295.34 355.39 281.07 365.4 276.8 359.67 291.07 349.66 295.34"/><rect class="cls-2" x="530.98" y="267.11" width="15.38" height="15.38" transform="translate(82.93 672.27) rotate(-68.12)"/><polygon class="cls-2" points="518.66 283.34 528.66 279.07 542.94 284.8 532.94 289.07 518.66 283.34"/><polygon class="cls-3" points="518.66 283.34 524.39 269.07 534.4 264.8 528.66 279.07 518.66 283.34"/><rect class="cls-2" x="418.22" y="279.13" width="17.13" height="17.13" transform="translate(-37.31 65.13) rotate(-8.36)"/><polygon class="cls-2" points="441.23 268.26 434.01 277.97 417.06 280.46 424.29 270.75 441.23 268.26"/><polygon class="cls-3" points="441.23 268.26 443.72 285.2 436.5 294.92 434.01 277.97 441.23 268.26"/><rect class="cls-2" x="467.47" y="242.23" width="17.13" height="17.13" transform="translate(136.62 668.29) rotate(-78.67)"/><polygon class="cls-2" points="489.46 270.95 482.75 260.87 486.11 244.08 492.83 254.16 489.46 270.95"/><polygon class="cls-3" points="489.46 270.95 472.67 267.58 465.96 257.51 482.75 260.87 489.46 270.95"/><path class="cls-4" d="M64.66,320.86l-2-15.64c-5.08,6.78-7.94,14.13-8.11,21.84a35.47,35.47,0,0,0,4,16.87,32.44,32.44,0,0,1-.14-3.82A36.42,36.42,0,0,1,64.66,320.86Z"/><path class="cls-5" d="M253.37,349.93s-70,32.85-99.21,29.23l12.08,31.61S233.64,389.61,253.37,349.93Z"/><path class="cls-6" d="M161.45,395.71s77.16-19.24,91.92-45.78c0,0-15,37-87.13,60.84Z"/><path class="cls-7" d="M29.06,226.61c-2.08,1.1-5.88-2-8.66-6.91l-.55.47c2.6,5.13,3,10.08.94,11.19s-6-2.06-8.78-7.13c-.23.07-.45.13-.68.18a0,0,0,0,1,0,0c2.81,5.3,3.33,10.53,1.18,11.67s-6.19-2.22-9-7.53A18.77,18.77,0,0,1,1,219.86c-.32-3.57,2.92-8.06,8.12-10.81,4-2.15,8.25-2.72,11.23-1.8l.14,0c2.21.52,5.17,3.49,7.37,7.65C30.69,220.24,31.22,225.46,29.06,226.61Z"/><path class="cls-7" d="M155.89,294c-1.41,1.87,1,6.12,5.45,9.65l-.56.47c-4.64-3.39-9.46-4.6-10.89-2.71s1.08,6.24,5.63,9.8c-.1.22-.2.43-.28.64h0c-4.79-3.62-9.86-5-11.33-3s1.21,6.46,6,10.08a18.84,18.84,0,0,0,8.21,3.86c3.48.88,8.42-1.6,12-6.3,2.76-3.64,4-7.71,3.56-10.8,0-.05,0-.09,0-.14-.17-2.27-2.63-5.66-6.39-8.5C162.44,293.42,157.37,292.06,155.89,294Z"/><path class="cls-5" d="M102.42,494.18c-14.15-11.76-30-26-37.83-54.27-6.84-24.63,5.16-70.51,5.16-70.51L50.37,208l28.19-15.94,90.05,210.79-13.14,2,13.2-1.91-.06-.12,57.2-8.83V394l6.51,10.9c-1.19,4.05-15.57,51.24-45.6,52-21.63.54-42.14-7-60.06-19.81a136.26,136.26,0,0,1-14.37-11.89l-8.18-8.4q3.94,4.39,8.18,8.4l4.15,4.26-1,58.62"/><path class="cls-7" d="M116.93,510.71a29.28,29.28,0,0,1-3.52,3.3h0a24.62,24.62,0,0,1-2.4,2c-4.62,3.48-9.45,4.85-10.78,3.08a1.7,1.7,0,0,1-.32-.87c-.2-1.63,1.34-4.2,4-6.68.42-.28.85-.59,1.27-.9a29.11,29.11,0,0,0,2.32-2c-.43.28-.86.58-1.28.9a24,24,0,0,0-2.31,2c-3.63,2.41-7.16,3.47-8.86,2.69a1.7,1.7,0,0,1-.66-.52,2.55,2.55,0,0,1-.1-2.39A14.11,14.11,0,0,1,98,506.21c.43-.28.86-.59,1.28-.91a25.46,25.46,0,0,0,2.31-1.95c-.42.28-.85.58-1.26.89a25.92,25.92,0,0,0-2.33,2,22.91,22.91,0,0,1-3.64,2c-2.73,1.15-5,1.3-5.85.17-1.34-1.78,1.33-6,5.94-9.5,2.31-1.74,7.22-4.64,7.22-4.64,3.51-2.2,7.19-5.09,13-5.9a8.63,8.63,0,0,1,6.13,1.66C125.28,494.07,123.57,503.35,116.93,510.71Z"/><path class="cls-8" d="M112.29,425.16q-4.23-4-8.18-8.4Z"/><polygon class="cls-8" points="168.67 402.99 155.47 404.9 168.61 402.87 168.67 402.99"/><path class="cls-5" d="M80.42,183.06a17.67,17.67,0,0,1-1.29,7.37l-.3.71a19.6,19.6,0,0,1-6.59,8.74,25.47,25.47,0,0,1-7.57,4.19c-11.84,4.32-18.81,5.25-24.15.43-2.53-2.29-3.87-4.92-3.64-7,1.13-10.6,1.53-18.67,6.82-25.39l0,0c1.41-1.79,4.85-4.07,6.72-5.33l.25-.16A18.1,18.1,0,0,1,57,165a26.22,26.22,0,0,1,16.12,4.61A17.11,17.11,0,0,1,80.42,183.06Z"/><path class="cls-9" d="M50.7,166.6l-.25.16c-1.87,1.26-5.31,3.54-6.72,5.33a3.73,3.73,0,0,1-.89-3.46C43.59,166.49,47,165.68,50.7,166.6Z"/><path class="cls-9" d="M83.84,188.73c-.55,1.57-2.52,2.43-5,2.41l.3-.71a17.67,17.67,0,0,0,1.29-7.37C83,184.67,84.47,186.92,83.84,188.73Z"/><circle class="cls-9" cx="46.18" cy="181.25" r="1.61"/><ellipse class="cls-9" cx="42.28" cy="199.57" rx="4.83" ry="3.62" transform="translate(-10.11 2.41) rotate(-2.92)"/><circle class="cls-9" cx="57.72" cy="186.3" r="1.61"/><polygon class="cls-4" points="104.53 417.14 115.41 488.29 116.44 429.42 104.53 417.14"/><polygon class="cls-4" points="78.56 192.09 149.88 405.96 169.05 402.57 78.56 192.09"/><path class="cls-10" d="M40.21,286.91c-3.47.18-7,.34-10.43.54a4.1,4.1,0,0,1-3.54-1.52c-1.94-2.21-3.91-4.4-5.86-6.59l-6.07-6.81c-.64-.71-1.25-1.44-1.91-2.14a3.84,3.84,0,0,1-1-3.51Q13,257.94,14.57,249c.18-1,.34-2,.54-3A3.52,3.52,0,0,1,17,243.46l9.25-5,9.54-5.18a3.9,3.9,0,0,1,3.55-.17q8.7,3.65,17.42,7.26c.64.27,1.28.56,1.93.8a4.08,4.08,0,0,1,2.62,3c1.22,4.41,2.49,8.81,3.74,13.22.64,2.25,1.28,4.51,1.93,6.75a4.09,4.09,0,0,1-.8,3.77c-1.83,2.47-3.61,5-5.41,7.46l-5.61,7.75c-.4.57-.81,1.13-1.22,1.69a3.69,3.69,0,0,1-2.9,1.6C47.41,286.56,43.81,286.73,40.21,286.91Z"/><path class="cls-10" d="M37.2,244.3a19.94,19.94,0,0,0-.41-2.51,1.77,1.77,0,0,1,.24-1.54,1.12,1.12,0,0,1,1.93.25,2.63,2.63,0,0,1,.12,1.52,12.13,12.13,0,0,0-.09,2.41.77.77,0,0,0,.13.45,1.17,1.17,0,0,1,.36.67c0,.14.17.14.29.14a15,15,0,0,1,7.64,2.61,16.79,16.79,0,0,1,1.71,1.34c.15.14.27.17.43,0s.17-.18.3-.16a1.43,1.43,0,0,0,1.17-.62c.45-.47.88-.94,1.28-1.45a2.69,2.69,0,0,1,1.05-.87,1.16,1.16,0,0,1,1.39.37,1.25,1.25,0,0,1-.07,1.45,4,4,0,0,1-1.06.86,13.53,13.53,0,0,0-1.78,1.3.86.86,0,0,0-.37.69c0,.17-.11.27-.22.37a.25.25,0,0,0,0,.4,14.93,14.93,0,0,1,2.45,5.36,15.46,15.46,0,0,1,.37,4.5c0,.19,0,.28.22.3a.3.3,0,0,1,.24.11c.4.56,1,.51,1.59.58.76.11,1.53,0,2.29.13a1.58,1.58,0,0,1,.84.36,1.1,1.1,0,0,1,.38,1.2,1.25,1.25,0,0,1-1,.82,2.94,2.94,0,0,1-1.25-.21,15.09,15.09,0,0,0-2.3-.65,1,1,0,0,0-.82.14.39.39,0,0,1-.29.07c-.28-.07-.37.08-.44.32a15.09,15.09,0,0,1-3.82,6.49,13.76,13.76,0,0,1-2,1.7c-.21.13-.31.27-.17.5a.34.34,0,0,1,0,.26,1.2,1.2,0,0,0,.21,1A15.39,15.39,0,0,0,49,276.83a2.87,2.87,0,0,1,.56,1,1.2,1.2,0,0,1-.61,1.46,1.25,1.25,0,0,1-1.5-.49,4.44,4.44,0,0,1-.52-1.13,12.45,12.45,0,0,0-.89-2.05.9.9,0,0,0-.57-.49.37.37,0,0,1-.27-.21c-.1-.24-.24-.23-.45-.14a14.09,14.09,0,0,1-3.88,1,15,15,0,0,1-6.07-.49l-.23-.07c-.16-.06-.28,0-.33.14a.61.61,0,0,1-.39.38.71.71,0,0,0-.38.4,12,12,0,0,0-.72,2.27,3.22,3.22,0,0,1-.57,1.36,1.17,1.17,0,0,1-1.44.35,1.22,1.22,0,0,1-.57-1.44,3.56,3.56,0,0,1,.49-1,12.82,12.82,0,0,0,1.12-2.1.9.9,0,0,0,.05-.72.47.47,0,0,1,0-.43c.12-.23,0-.33-.18-.43a15.56,15.56,0,0,1-3.12-2.29A14.85,14.85,0,0,1,25,266.56c-.11-.27-.21-.45-.53-.31a.24.24,0,0,1-.23,0,1.22,1.22,0,0,0-1,0,15.92,15.92,0,0,0-2,.81,2.77,2.77,0,0,1-1.37.35,1.14,1.14,0,0,1-.64-2.05,2.47,2.47,0,0,1,1.33-.45,15,15,0,0,0,2.41-.42,1,1,0,0,0,.61-.44.59.59,0,0,1,.38-.27c.16-.05.2-.14.17-.31a14.92,14.92,0,0,1,1.71-10.05c.12-.21.17-.37-.09-.5a.31.31,0,0,1-.16-.24,1.2,1.2,0,0,0-.66-.84A14.91,14.91,0,0,0,23,250.73a2.7,2.7,0,0,1-1.07-.79,1.14,1.14,0,0,1,1.35-1.78,3.9,3.9,0,0,1,1.26,1,11.15,11.15,0,0,0,1.66,1.41.8.8,0,0,0,.68.15c.17,0,.28.05.41.13s.21.07.32-.05A14.79,14.79,0,0,1,36,246a2,2,0,0,1,.35-.07c.3,0,.58-.07.55-.48a.17.17,0,0,1,0-.14A1.15,1.15,0,0,0,37.2,244.3Z"/><path class="cls-10" d="M43.25,264.65a1,1,0,0,1,1.08-1c1.68.18,3.36.38,5,.57a7,7,0,0,0,.77.09c.32,0,.3.14.22.37a12.08,12.08,0,0,1-4.15,5.78c-.17.13-.26.15-.36-.08-.79-1.68-1.59-3.35-2.38-5A1.75,1.75,0,0,1,43.25,264.65Z"/><path class="cls-10" d="M36.84,249.31c0,1.59,0,3.14-.05,4.7a6.72,6.72,0,0,1,0,1.1,1,1,0,0,1-1.5.79c-.58-.31-1.12-.68-1.68-1-1.08-.69-2.16-1.38-3.25-2.06-.21-.14-.27-.22-.06-.43A11.91,11.91,0,0,1,36.57,249C36.9,248.92,36.81,249.17,36.84,249.31Z"/><path class="cls-10" d="M26.9,261.37a12.37,12.37,0,0,1,1.3-6.09c.1-.19.17-.22.35-.08,1.12.91,2.25,1.81,3.36,2.72A9,9,0,0,1,33.16,259a1,1,0,0,1-.35,1.64c-.62.26-1.27.46-1.91.68l-3.55,1.23c-.31.1-.33.09-.36-.24S26.92,261.61,26.9,261.37Z"/><path class="cls-10" d="M51,260.28c0,.27,0,.54,0,.8s-.06.3-.29.24l-3.4-.79-2-.47a3.52,3.52,0,0,1-.43-.13,1,1,0,0,1-.4-1.58c.48-.58,1.06-1.07,1.59-1.61.84-.86,1.71-1.69,2.55-2.54.17-.17.25-.2.39,0a12.06,12.06,0,0,1,1.88,5.38A5.28,5.28,0,0,1,51,260.28Z"/><path class="cls-10" d="M39.52,272.84a13.39,13.39,0,0,1-3.57-.38c-.23-.07-.24-.15-.15-.33.85-1.72,1.68-3.45,2.54-5.17a1,1,0,0,1,1.84,0c.36.54.69,1.1,1,1.65l2,3.16c.15.23.1.32-.14.4a11.51,11.51,0,0,1-3,.64Z"/><path class="cls-10" d="M33.82,264.17c.83,0,1.32.5,1.15,1.24s-.53,1.56-.79,2.34c-.37,1.06-.76,2.11-1.12,3.17-.09.25-.17.29-.4.15A12.12,12.12,0,0,1,28,265.81c-.15-.32-.14-.32.2-.4l5.38-1.2A2.28,2.28,0,0,1,33.82,264.17Z"/><path class="cls-10" d="M39.83,249.24c0-.44,0-.45.34-.42a12.12,12.12,0,0,1,6,2.39c.16.12.3.26.46.37s.17.23,0,.36c-.82.63-1.62,1.28-2.43,1.92s-1.32,1-2,1.56a1,1,0,0,1-1.54-.06,1.69,1.69,0,0,1-.28-.92c-.13-1.25-.23-2.49-.39-3.73A8.82,8.82,0,0,0,39.83,249.24Z"/><polygon class="cls-10" points="38.1 259.21 37.22 260.43 37.63 261.88 39.02 262.46 40.34 261.74 40.6 260.26 39.6 259.13 38.1 259.21"/><path class="cls-10" d="M126,313.24c-4.35.22-8.71.43-13.06.68a5.2,5.2,0,0,1-4.44-1.91c-2.42-2.77-4.89-5.51-7.34-8.26l-7.6-8.52c-.79-.9-1.57-1.81-2.39-2.68a4.82,4.82,0,0,1-1.26-4.4q2-11.19,4-22.4c.22-1.25.43-2.5.67-3.75a4.39,4.39,0,0,1,2.32-3.17c3.85-2.11,7.72-4.2,11.58-6.29l12-6.49a4.87,4.87,0,0,1,4.44-.21l21.82,9.1c.8.33,1.6.69,2.42,1a5.11,5.11,0,0,1,3.27,3.73c1.54,5.52,3.12,11,4.69,16.54.8,2.82,1.6,5.65,2.42,8.47a5.13,5.13,0,0,1-1,4.72c-2.29,3.08-4.51,6.22-6.77,9.34l-7,9.7-1.53,2.12a4.62,4.62,0,0,1-3.63,2C135,312.79,130.52,313,126,313.24Z"/><path class="cls-10" d="M122.24,259.88a23.59,23.59,0,0,0-.51-3.15,2.16,2.16,0,0,1,.3-1.92,1.41,1.41,0,0,1,2.42.31,3.37,3.37,0,0,1,.15,1.91,15.14,15.14,0,0,0-.12,3,1,1,0,0,0,.17.56,1.51,1.51,0,0,1,.45.84c0,.19.21.17.36.18a19,19,0,0,1,9.57,3.26,23,23,0,0,1,2.14,1.69c.19.17.34.21.53,0a.56.56,0,0,1,.39-.21,1.75,1.75,0,0,0,1.46-.77c.56-.58,1.11-1.18,1.61-1.81a3.16,3.16,0,0,1,1.31-1.09,1.47,1.47,0,0,1,1.74.46,1.58,1.58,0,0,1-.09,1.82,5.13,5.13,0,0,1-1.33,1.08,16.91,16.91,0,0,0-2.23,1.62,1.1,1.1,0,0,0-.46.86c0,.22-.14.34-.27.47a.31.31,0,0,0,0,.5,18.56,18.56,0,0,1,3.06,6.72,19,19,0,0,1,.47,5.62c0,.24.05.35.28.39a.38.38,0,0,1,.3.13c.49.7,1.27.64,2,.73,1,.13,1.91,0,2.86.16a1.87,1.87,0,0,1,1.05.45,1.38,1.38,0,0,1,.49,1.5,1.58,1.58,0,0,1-1.31,1,3.66,3.66,0,0,1-1.57-.26,18,18,0,0,0-2.87-.81,1.28,1.28,0,0,0-1,.17.4.4,0,0,1-.35.08c-.35-.08-.46.11-.55.41a18.81,18.81,0,0,1-4.79,8.12,16.67,16.67,0,0,1-2.54,2.13c-.26.17-.39.34-.21.63a.43.43,0,0,1,.05.33,1.53,1.53,0,0,0,.27,1.27,19.27,19.27,0,0,0,1.6,2.3,3.57,3.57,0,0,1,.71,1.26,1.51,1.51,0,0,1-.77,1.82,1.54,1.54,0,0,1-1.87-.61,5.67,5.67,0,0,1-.66-1.41,16.74,16.74,0,0,0-1.11-2.57,1.13,1.13,0,0,0-.72-.61.44.44,0,0,1-.33-.27c-.13-.29-.31-.28-.57-.17a17,17,0,0,1-4.85,1.28,18.63,18.63,0,0,1-7.61-.6,2.46,2.46,0,0,1-.29-.09c-.2-.08-.34,0-.41.17a.72.72,0,0,1-.49.47.88.88,0,0,0-.47.51,14.92,14.92,0,0,0-.91,2.84,4,4,0,0,1-.71,1.71,1.47,1.47,0,0,1-1.8.44,1.55,1.55,0,0,1-.71-1.81,4.62,4.62,0,0,1,.6-1.27,16.63,16.63,0,0,0,1.41-2.63,1.09,1.09,0,0,0,.06-.9.62.62,0,0,1,0-.55c.15-.28,0-.41-.22-.54a18.92,18.92,0,0,1-3.91-2.87,18.48,18.48,0,0,1-4.44-6.47c-.14-.33-.27-.56-.67-.39a.33.33,0,0,1-.29,0,1.52,1.52,0,0,0-1.3,0,21.08,21.08,0,0,0-2.52,1,3.33,3.33,0,0,1-1.72.43,1.45,1.45,0,0,1-1.32-1,1.43,1.43,0,0,1,.52-1.53,3.07,3.07,0,0,1,1.68-.56,19.06,19.06,0,0,0,3-.54,1.17,1.17,0,0,0,.77-.54.76.76,0,0,1,.48-.34c.2-.06.25-.18.21-.39a18.69,18.69,0,0,1,2.14-12.58c.15-.27.22-.47-.11-.63a.39.39,0,0,1-.2-.3,1.49,1.49,0,0,0-.82-1.05,19.35,19.35,0,0,0-2.35-1.32,3.5,3.5,0,0,1-1.34-1,1.5,1.5,0,0,1,0-1.81,1.48,1.48,0,0,1,1.72-.42,4.74,4.74,0,0,1,1.59,1.22,13.87,13.87,0,0,0,2.07,1.76,1,1,0,0,0,.85.2c.21-.07.36.06.51.16s.27.09.41-.07a18.51,18.51,0,0,1,10.51-6.05c.15,0,.29-.07.44-.09.38,0,.73-.08.69-.6a.22.22,0,0,1,.06-.17A1.44,1.44,0,0,0,122.24,259.88Z"/><path class="cls-10" d="M129.82,285.36a1.25,1.25,0,0,1,1.36-1.3l6.3.72c.32,0,.64.1,1,.11s.37.17.27.46a15.1,15.1,0,0,1-5.2,7.23c-.21.17-.32.19-.45-.1-1-2.1-2-4.18-3-6.27A2.33,2.33,0,0,1,129.82,285.36Z"/><path class="cls-10" d="M121.79,266.15c0,2,0,3.94-.05,5.89a10.59,10.59,0,0,1,0,1.38,1.24,1.24,0,0,1-1.88,1c-.73-.39-1.4-.86-2.1-1.3-1.35-.86-2.71-1.73-4.07-2.58-.27-.17-.34-.27-.08-.53a15,15,0,0,1,7.86-4.25C121.87,265.66,121.76,266,121.79,266.15Z"/><path class="cls-10" d="M109.34,281.25a15.54,15.54,0,0,1,1.63-7.62c.13-.24.22-.28.44-.1,1.4,1.14,2.82,2.26,4.21,3.4a11.67,11.67,0,0,1,1.57,1.32,1.22,1.22,0,0,1-.44,2.05c-.78.33-1.59.58-2.39.85l-4.45,1.54c-.39.13-.41.11-.45-.29S109.37,281.56,109.34,281.25Z"/><path class="cls-10" d="M139.49,279.89c0,.34,0,.67,0,1s-.07.36-.36.29c-1.41-.34-2.83-.66-4.25-1l-2.47-.59a3.68,3.68,0,0,1-.54-.16,1.23,1.23,0,0,1-.5-2c.6-.73,1.32-1.35,2-2,1.06-1.08,2.15-2.12,3.2-3.19.21-.21.32-.24.49,0a15.14,15.14,0,0,1,2.36,6.73C139.4,279.32,139.49,279.6,139.49,279.89Z"/><path class="cls-10" d="M125.15,295.62a16.79,16.79,0,0,1-4.47-.48c-.29-.08-.3-.19-.18-.42,1.06-2.15,2.1-4.32,3.17-6.47a1.27,1.27,0,0,1,2.31-.05c.45.67.86,1.37,1.29,2.05.82,1.32,1.63,2.65,2.47,4,.18.29.12.4-.18.5a14.74,14.74,0,0,1-3.71.81C125.62,295.54,125.38,295.58,125.15,295.62Z"/><path class="cls-10" d="M118,284.76c1-.05,1.65.63,1.45,1.55a29.72,29.72,0,0,1-1,2.93c-.45,1.33-.95,2.65-1.41,4-.1.31-.21.35-.49.18a15,15,0,0,1-5.83-6.58c-.19-.41-.18-.41.25-.51l6.73-1.5Z"/><path class="cls-10" d="M125.54,266.06c0-.54,0-.56.43-.52a15.23,15.23,0,0,1,7.53,3c.2.15.38.33.58.47s.21.28,0,.44l-3.05,2.4c-.83.66-1.65,1.32-2.49,2a1.33,1.33,0,0,1-1.94-.07,2.06,2.06,0,0,1-.35-1.16c-.16-1.55-.29-3.11-.49-4.67A10.92,10.92,0,0,0,125.54,266.06Z"/><polygon class="cls-10" points="123.37 278.55 122.27 280.08 122.78 281.89 124.52 282.63 126.17 281.72 126.5 279.87 125.25 278.45 123.37 278.55"/><path class="cls-11" d="M119.24,308.62c-4.36.22-8.71.43-13.06.68a5.17,5.17,0,0,1-4.44-1.91c-2.43-2.77-4.89-5.51-7.34-8.26l-7.6-8.52c-.8-.89-1.57-1.81-2.39-2.68a4.81,4.81,0,0,1-1.26-4.4c1.34-7.46,2.65-14.93,4-22.4.22-1.25.42-2.5.67-3.75a4.41,4.41,0,0,1,2.32-3.17c3.85-2.11,7.72-4.2,11.58-6.29s8-4.32,11.94-6.49a4.89,4.89,0,0,1,4.45-.21l21.82,9.1c.8.33,1.6.69,2.42,1A5.13,5.13,0,0,1,145.6,255c1.53,5.52,3.12,11,4.69,16.54.8,2.83,1.59,5.65,2.42,8.47a5.13,5.13,0,0,1-1,4.72c-2.29,3.09-4.51,6.22-6.77,9.34l-7,9.7-1.53,2.12a4.62,4.62,0,0,1-3.63,2Z"/><path class="cls-11" d="M115.46,255.26a23.16,23.16,0,0,0-.51-3.14,2.18,2.18,0,0,1,.3-1.93,1.41,1.41,0,0,1,2.42.31,3.46,3.46,0,0,1,.15,1.91,15.17,15.17,0,0,0-.12,3,1,1,0,0,0,.17.57,1.41,1.41,0,0,1,.44.83c0,.19.22.18.37.18a19,19,0,0,1,9.57,3.26,23,23,0,0,1,2.14,1.69c.19.17.34.21.53,0s.23-.22.39-.2c.66.07,1.06-.37,1.46-.78a23.11,23.11,0,0,0,1.61-1.81,3.13,3.13,0,0,1,1.3-1.09,1.47,1.47,0,0,1,1.75.47,1.55,1.55,0,0,1-.1,1.81,4.74,4.74,0,0,1-1.32,1.08,16.12,16.12,0,0,0-2.23,1.63,1,1,0,0,0-.46.85c0,.22-.14.34-.27.47a.31.31,0,0,0,0,.5,18.64,18.64,0,0,1,3.06,6.72,19.37,19.37,0,0,1,.47,5.63c0,.24.05.34.28.38a.38.38,0,0,1,.3.13c.49.7,1.27.64,2,.73.95.13,1.91,0,2.86.17a2,2,0,0,1,1.05.44,1.4,1.4,0,0,1,.49,1.5,1.58,1.58,0,0,1-1.31,1,3.49,3.49,0,0,1-1.57-.26,18,18,0,0,0-2.87-.81,1.27,1.27,0,0,0-1,.17.41.41,0,0,1-.35.08c-.36-.08-.47.11-.55.41a18.91,18.91,0,0,1-4.79,8.12,16.28,16.28,0,0,1-2.55,2.13c-.25.17-.38.34-.2.63a.43.43,0,0,1,.05.33,1.52,1.52,0,0,0,.27,1.27,18.17,18.17,0,0,0,1.6,2.3,3.57,3.57,0,0,1,.71,1.26,1.5,1.5,0,0,1-.78,1.82,1.55,1.55,0,0,1-1.87-.61,6.48,6.48,0,0,1-.66-1.41,15.78,15.78,0,0,0-1.1-2.57,1.13,1.13,0,0,0-.72-.61.45.45,0,0,1-.34-.27c-.12-.29-.3-.28-.56-.17a17.4,17.4,0,0,1-4.85,1.29,18.87,18.87,0,0,1-7.62-.61c-.09,0-.19-.05-.28-.09s-.34,0-.41.17a.74.74,0,0,1-.49.47.92.92,0,0,0-.48.51,15.63,15.63,0,0,0-.9,2.84,4,4,0,0,1-.71,1.71,1.48,1.48,0,0,1-1.81.44,1.55,1.55,0,0,1-.7-1.8,4.29,4.29,0,0,1,.6-1.28,16.63,16.63,0,0,0,1.41-2.63,1.09,1.09,0,0,0,.06-.9.57.57,0,0,1,0-.54c.15-.29,0-.41-.22-.55a19.25,19.25,0,0,1-3.91-2.86,18.68,18.68,0,0,1-4.45-6.48c-.13-.33-.26-.56-.66-.39a.3.3,0,0,1-.29,0,1.52,1.52,0,0,0-1.3,0,21.08,21.08,0,0,0-2.52,1,3.33,3.33,0,0,1-1.72.43,1.45,1.45,0,0,1-1.32-1,1.43,1.43,0,0,1,.52-1.53,3.07,3.07,0,0,1,1.68-.56,19,19,0,0,0,3-.53,1.18,1.18,0,0,0,.77-.55.77.77,0,0,1,.47-.34c.21-.06.26-.17.22-.39a18.7,18.7,0,0,1,2.14-12.58c.15-.27.22-.46-.11-.63a.38.38,0,0,1-.2-.3,1.5,1.5,0,0,0-.83-1.05,18.5,18.5,0,0,0-2.34-1.32,3.5,3.5,0,0,1-1.34-1,1.5,1.5,0,0,1,0-1.81A1.48,1.48,0,0,1,98,260.1a4.73,4.73,0,0,1,1.58,1.22,13.46,13.46,0,0,0,2.08,1.76,1,1,0,0,0,.85.2c.21-.07.36.06.51.16s.27.09.41-.07a18.51,18.51,0,0,1,10.51-6.05,3.39,3.39,0,0,1,.44-.08c.38,0,.73-.09.69-.61a.26.26,0,0,1,0-.17A1.45,1.45,0,0,0,115.46,255.26Z"/><path class="cls-11" d="M123,280.74a1.26,1.26,0,0,1,1.37-1.3l6.3.72c.32,0,.64.1,1,.11s.37.17.27.46a15.47,15.47,0,0,1-1.84,3.71,15.18,15.18,0,0,1-3.36,3.52c-.22.17-.32.19-.45-.1-1-2.09-2-4.18-3-6.27A2.29,2.29,0,0,1,123,280.74Z"/><path class="cls-11" d="M115,261.53c0,2,0,3.94-.06,5.89a9.08,9.08,0,0,1,0,1.38,1.25,1.25,0,0,1-1.89,1c-.72-.39-1.39-.86-2.09-1.3-1.36-.86-2.71-1.73-4.07-2.57-.27-.17-.34-.27-.08-.54a15,15,0,0,1,7.86-4.25C115.09,261.05,115,261.36,115,261.53Z"/><path class="cls-11" d="M102.56,276.63a15.43,15.43,0,0,1,1.63-7.62c.12-.24.22-.28.44-.1,1.4,1.14,2.82,2.26,4.21,3.4a12.33,12.33,0,0,1,1.57,1.32,1.22,1.22,0,0,1-.44,2.05c-.78.33-1.59.58-2.39.85l-4.45,1.54c-.39.14-.41.12-.45-.29S102.59,276.94,102.56,276.63Z"/><path class="cls-11" d="M132.71,275.27c0,.34,0,.67,0,1s-.07.36-.36.29l-4.25-1-2.47-.58a5.6,5.6,0,0,1-.54-.17,1.24,1.24,0,0,1-.51-2c.61-.73,1.33-1.35,2-2,1.06-1.08,2.14-2.12,3.2-3.19.21-.21.32-.24.49,0a15.14,15.14,0,0,1,2.36,6.73C132.62,274.7,132.71,275,132.71,275.27Z"/><path class="cls-11" d="M118.37,291a16.79,16.79,0,0,1-4.47-.48c-.29-.08-.3-.19-.19-.41,1.06-2.16,2.11-4.32,3.18-6.47a1.27,1.27,0,0,1,2.31-.06c.45.67.86,1.37,1.29,2.05.82,1.32,1.63,2.65,2.47,4,.18.29.12.41-.18.5a14.74,14.74,0,0,1-3.71.81C118.84,290.92,118.6,291,118.37,291Z"/><path class="cls-11" d="M111.23,280.14c1-.05,1.65.63,1.44,1.55a29.67,29.67,0,0,1-1,2.93c-.46,1.33-1,2.65-1.41,4-.1.31-.21.35-.49.18A15,15,0,0,1,104,282.2c-.19-.41-.18-.41.25-.51l6.73-1.5Z"/><path class="cls-11" d="M118.76,261.44c0-.54,0-.56.42-.52a15.22,15.22,0,0,1,7.54,3c.2.15.38.33.58.47s.2.28,0,.45c-1,.79-2,1.59-3,2.4-.83.65-1.65,1.32-2.5,2a1.32,1.32,0,0,1-1.93-.08,2.06,2.06,0,0,1-.35-1.16c-.17-1.55-.29-3.11-.49-4.66A11,11,0,0,0,118.76,261.44Z"/><polygon class="cls-11" points="116.59 273.93 115.49 275.46 116 277.28 117.74 278.01 119.39 277.1 119.72 275.25 118.47 273.83 116.59 273.93"/><path class="cls-12" d="M33.93,283c-3.47.18-6.95.34-10.42.54A4.11,4.11,0,0,1,20,282c-1.94-2.21-3.91-4.4-5.86-6.59L8,268.57c-.63-.72-1.25-1.44-1.91-2.14a3.84,3.84,0,0,1-1-3.51Q6.71,254,8.29,245c.18-1,.34-2,.54-3a3.5,3.5,0,0,1,1.85-2.54l9.25-5,9.54-5.18a3.9,3.9,0,0,1,3.55-.17l17.42,7.26c.64.27,1.28.55,1.93.8a4.08,4.08,0,0,1,2.62,3c1.22,4.41,2.49,8.81,3.74,13.21q1,3.39,1.93,6.76a4.09,4.09,0,0,1-.8,3.77c-1.83,2.47-3.61,5-5.41,7.46s-3.74,5.17-5.61,7.75c-.4.57-.81,1.13-1.22,1.69a3.69,3.69,0,0,1-2.9,1.6Z"/><path class="cls-13" d="M30.92,240.34a19.94,19.94,0,0,0-.41-2.51,1.76,1.76,0,0,1,.24-1.54,1.12,1.12,0,0,1,1.93.25,2.63,2.63,0,0,1,.12,1.52,12.13,12.13,0,0,0-.09,2.41.71.71,0,0,0,.14.45,1.18,1.18,0,0,1,.35.67c0,.14.17.14.29.14a15,15,0,0,1,7.64,2.61,16.79,16.79,0,0,1,1.71,1.34c.15.14.27.17.43,0s.17-.18.3-.17a1.41,1.41,0,0,0,1.17-.61A17.46,17.46,0,0,0,46,243.47a2.69,2.69,0,0,1,1-.87,1.16,1.16,0,0,1,1.39.37,1.25,1.25,0,0,1-.07,1.45,4,4,0,0,1-1.06.86,12.68,12.68,0,0,0-1.78,1.3.86.86,0,0,0-.37.68.47.47,0,0,1-.22.38.25.25,0,0,0,0,.4,14.77,14.77,0,0,1,2.45,5.36,15.46,15.46,0,0,1,.37,4.5c0,.19,0,.27.22.3a.33.33,0,0,1,.24.1c.4.57,1,.52,1.59.59.76.11,1.53,0,2.29.13a1.55,1.55,0,0,1,.84.36,1.08,1.08,0,0,1,.38,1.2,1.25,1.25,0,0,1-1,.82,3,3,0,0,1-1.25-.21,15.09,15.09,0,0,0-2.3-.65,1,1,0,0,0-.82.14.32.32,0,0,1-.28.06c-.29-.06-.37.09-.44.33a15.21,15.21,0,0,1-3.83,6.49,13.26,13.26,0,0,1-2,1.7c-.21.13-.31.26-.17.5a.34.34,0,0,1,.05.26,1.24,1.24,0,0,0,.21,1,15.39,15.39,0,0,0,1.28,1.83,2.87,2.87,0,0,1,.56,1,1.2,1.2,0,0,1-.61,1.46,1.26,1.26,0,0,1-1.5-.49,4.82,4.82,0,0,1-.52-1.13,12.45,12.45,0,0,0-.89-2.05.9.9,0,0,0-.57-.49.37.37,0,0,1-.27-.21c-.1-.24-.24-.23-.45-.14a14.09,14.09,0,0,1-3.88,1,15,15,0,0,1-6.07-.49l-.23-.07c-.16-.06-.27,0-.33.14a.6.6,0,0,1-.39.37.7.7,0,0,0-.38.41,12,12,0,0,0-.72,2.27,3.22,3.22,0,0,1-.57,1.36,1.17,1.17,0,0,1-1.44.35,1.24,1.24,0,0,1-.57-1.44,3.56,3.56,0,0,1,.49-1,12.82,12.82,0,0,0,1.12-2.1.87.87,0,0,0,.05-.72.47.47,0,0,1,0-.43c.12-.23,0-.33-.18-.43a15.56,15.56,0,0,1-3.12-2.29,15,15,0,0,1-3.55-5.17c-.11-.27-.21-.45-.53-.31a.27.27,0,0,1-.23,0,1.19,1.19,0,0,0-1,0,15.92,15.92,0,0,0-2,.81,2.77,2.77,0,0,1-1.37.35,1.14,1.14,0,0,1-.64-2.05,2.47,2.47,0,0,1,1.33-.45,15,15,0,0,0,2.41-.42.92.92,0,0,0,.61-.44.59.59,0,0,1,.38-.27c.16-.05.2-.14.17-.31a14.92,14.92,0,0,1,1.71-10c.12-.21.17-.37-.09-.5a.31.31,0,0,1-.16-.24,1.2,1.2,0,0,0-.66-.84,14.91,14.91,0,0,0-1.87-1,2.87,2.87,0,0,1-1.07-.79A1.14,1.14,0,0,1,17,244.2a3.67,3.67,0,0,1,1.26,1,11.68,11.68,0,0,0,1.66,1.41.83.83,0,0,0,.68.15c.17-.05.28,0,.41.13s.21.07.32-.05a14.8,14.8,0,0,1,8.4-4.84c.12,0,.23,0,.35-.06.3,0,.58-.07.55-.48a.17.17,0,0,1,0-.14A1.15,1.15,0,0,0,30.92,240.34Z"/><path class="cls-13" d="M37,260.69a1,1,0,0,1,1.08-1l5,.57a6.56,6.56,0,0,0,.76.09c.32,0,.3.14.22.37a12.21,12.21,0,0,1-1.47,3,11.92,11.92,0,0,1-2.68,2.81c-.17.14-.26.15-.36-.08l-2.38-5A1.75,1.75,0,0,1,37,260.69Z"/><path class="cls-13" d="M30.56,245.35c0,1.59,0,3.14,0,4.7a6.73,6.73,0,0,1,0,1.1,1,1,0,0,1-1.5.79c-.58-.31-1.12-.68-1.67-1l-3.26-2.05c-.21-.14-.27-.22-.06-.43A12,12,0,0,1,30.29,245C30.62,245,30.54,245.21,30.56,245.35Z"/><path class="cls-13" d="M20.62,257.41a12.37,12.37,0,0,1,1.3-6.09c.1-.19.18-.22.35-.08,1.12.91,2.25,1.8,3.36,2.72a9,9,0,0,1,1.25,1,1,1,0,0,1-.35,1.64c-.62.26-1.27.46-1.91.68l-3.55,1.22c-.31.11-.33.1-.36-.23S20.64,257.65,20.62,257.41Z"/><path class="cls-13" d="M44.69,256.32c0,.27,0,.54,0,.8s-.06.3-.29.24l-3.4-.8-2-.46L38.6,256a1,1,0,0,1-.41-1.58c.48-.58,1.06-1.07,1.59-1.61.84-.86,1.71-1.69,2.55-2.55.17-.17.25-.19.39,0a12.06,12.06,0,0,1,1.88,5.38A5.28,5.28,0,0,1,44.69,256.32Z"/><path class="cls-13" d="M33.24,268.88a13,13,0,0,1-3.57-.39c-.23-.06-.24-.14-.15-.32.85-1.73,1.68-3.45,2.54-5.17A1,1,0,0,1,33.9,263c.36.54.69,1.1,1,1.64.66,1.06,1.31,2.12,2,3.17.14.23.09.32-.15.4a11.94,11.94,0,0,1-3,.64Z"/><path class="cls-13" d="M27.54,260.21c.83,0,1.32.5,1.15,1.24a22.2,22.2,0,0,1-.79,2.34c-.36,1.06-.76,2.11-1.12,3.17-.09.25-.17.29-.4.14a12,12,0,0,1-4.66-5.25c-.15-.32-.14-.32.2-.4l5.38-1.2A1.23,1.23,0,0,1,27.54,260.21Z"/><path class="cls-13" d="M33.56,245.28c0-.44,0-.45.33-.42a12.12,12.12,0,0,1,6,2.39c.16.11.3.26.46.37s.17.23,0,.36l-2.43,1.91c-.67.53-1.32,1.06-2,1.57a1,1,0,0,1-1.54-.06,1.69,1.69,0,0,1-.28-.92c-.13-1.25-.23-2.49-.39-3.73A10.09,10.09,0,0,0,33.56,245.28Z"/><polygon class="cls-13" points="31.82 255.25 30.94 256.47 31.35 257.92 32.74 258.5 34.06 257.78 34.32 256.3 33.32 255.17 31.82 255.25"/><path class="cls-7" d="M248.14,390.71a28.5,28.5,0,0,1,3.52,3.3h0a27.74,27.74,0,0,1,2.18,2.26c3.77,4.38,5.46,9.11,3.77,10.56a1.77,1.77,0,0,1-.83.38c-1.62.3-4.28-1.06-6.94-3.52-.3-.4-.63-.8-1-1.2a29.62,29.62,0,0,0-2.11-2.19c.3.41.63.81,1,1.22a25.62,25.62,0,0,0,2.1,2.17c2.64,3.46,3.94,6.92,3.27,8.66a1.83,1.83,0,0,1-.48.7,2.53,2.53,0,0,1-2.37.26,14.11,14.11,0,0,1-5.39-3.38c-.31-.41-.64-.82-1-1.22a24.31,24.31,0,0,0-2.1-2.18c.31.4.64.81,1,1.21a26,26,0,0,0,2.11,2.19,22.83,22.83,0,0,1,2.23,3.51c1.33,2.64,1.62,4.9.55,5.82-1.69,1.45-6.1-.93-9.87-5.31-1.88-2.18-5.11-6.89-5.11-6.89-2.41-3.36-5.54-6.84-6.73-12.58a8.68,8.68,0,0,1,1.25-6.23C231,383.47,240.36,384.56,248.14,390.71Z"/><path class="cls-14" d="M257.51,329.41l-12.59-2.66,10.29-12.69c-173,69.77-196.28,24.56-196.28,24.56s-12.57,73.6,197.89-9.18"/><path class="cls-14" d="M364,327.28c-19.05-9.92-46.06-16.86-76.76-19l-16,6,15.21,9.47c31.6,2.57,59,10.28,77.53,21.05Z"/><path class="cls-15" d="M128.05,116.21c0-1.28-2.13-2.32-4.76-2.32s-4.76,1-4.76,2.32V236.29a24.33,24.33,0,0,1,9.52,2Z"/><path class="cls-15" d="M128.28,100.46s72,1.58,118.36-11.08S322.23,59.4,359.06,65c6.7,1,9.7,1,27.7,8"/><polygon class="cls-9" points="229.07 56.02 221.79 88.69 248.12 83.55 229.07 56.02"/><polygon class="cls-5" points="194.5 135.35 178.56 105.92 205.29 103.67 194.5 135.35"/><polygon class="cls-5" points="150.96 136.78 136.35 106.66 163.16 105.61 150.96 136.78"/><polygon class="cls-9" points="369.66 22.12 347.38 56.5 379.77 61.82 369.66 22.12"/><polygon class="cls-5" points="289.1 122.74 262.23 91.82 293.56 82.02 289.1 122.74"/><polygon class="cls-5" points="327.33 109.72 300.47 78.79 331.8 69 327.33 109.72"/><ellipse class="cls-12" cx="449.26" cy="74.15" rx="14.15" ry="34.5" transform="translate(-5.43 98.51) rotate(-12.44)"/><ellipse class="cls-12" cx="402.38" cy="84.44" rx="3.27" ry="7.46" transform="translate(-8.74 88.65) rotate(-12.44)"/><path class="cls-12" d="M400.78,77.15l38.28-35.24Z"/><path class="cls-12" d="M405.74,91.35l48,16.22Z"/><ellipse class="cls-7" cx="449.65" cy="74.75" rx="3.27" ry="4.09" transform="translate(-5.55 98.61) rotate(-12.44)"/><line class="cls-16" x1="434.67" y1="71.35" x2="448.77" y2="70.75"/><line class="cls-16" x1="450.53" y1="78.74" x2="437.48" y2="84.13"/><ellipse class="cls-12" cx="82.49" cy="99.32" rx="21.35" ry="8.76" transform="translate(-38.5 144.39) rotate(-70.72)"/><ellipse class="cls-12" cx="110.53" cy="109.09" rx="4.62" ry="2.02" transform="translate(-28.94 177.41) rotate(-70.72)"/><path class="cls-12" d="M112.05,104.74,91.13,80.27Z"/><path class="cls-12" d="M108.57,113.17,77.91,119.6Z"/><ellipse class="cls-7" cx="82.19" cy="100.58" rx="2.53" ry="2.02" transform="translate(-35.64 155.25) rotate(-75.63)"/><line class="cls-7" x1="91.53" y1="98.79" x2="82.82" y2="98.13"/><line class="cls-7" x1="81.57" y1="103.03" x2="89.52" y2="106.64"/><path class="cls-8" d="M116.26,119.2s-6.54,7.36,0,13.91,16.36,4.9,18,3.27,2.46-4.09,0-5.73"/><path class="cls-11" d="M389.38,92.63c-2.64,0-4.78,1.3-4.78,2.91v399c0,1.61,2.14,2.92,4.78,2.92s4.79-1.31,4.79-2.92V95.54C394.17,93.93,392,92.63,389.38,92.63Z"/><path class="cls-8" d="M379.19,106.12s-6.54,7.36,0,13.9,16.35,4.91,18,3.27,2.45-4.09,0-5.72"/><line class="cls-17" x1="446.39" y1="19.36" x2="446.39" y2="19.36"/><path class="cls-18" d="M452.3,24.5c2.29,3.52,4.36,7.76,7.24,9.13,5,2.4,15.25-2.64,19.37,1.16S478.77,49.1,481.58,54c2.72,4.74,14,6.4,15.23,12,1.12,5.06-8.38,10.91-8.66,15.85-.29,5.11,8.43,12,6.79,16.73s-12.79,4.84-15.67,9c-2.15,3.1-.51,9.76-1.21,14.26"/><line class="cls-17" x1="476.35" y1="125.41" x2="476.35" y2="125.41"/><line class="cls-17" x1="457.58" y1="1.5" x2="457.58" y2="1.5"/><path class="cls-19" d="M465.09,4c5,3.24,9.62,8.66,14.62,10.22,7.57,2.36,19.17-2.72,25.44,2.06s4.41,17.26,8.7,24c4.15,6.49,16.34,10,18.09,18,1.62,7.34-7.87,15.21-8.64,22.29-.79,7.35,6.73,17.06,3.7,23.63s-15.36,7.22-20.37,12.54c-4.05,4.31-4.67,13.35-8.34,18.4"/><line class="cls-17" x1="495.32" y1="137.81" x2="495.32" y2="137.81"/><path class="cls-20" d="M48.14,125.91c-2.47-2.43,3.27-11.23,1.56-14.21s-12.19-2.5-13-5.86S45.29,98,45.4,94.53s-9.11-8.43-8.06-11.81C38.52,79,49.1,79.9,51.22,76.84s-2.31-12.75.68-15.06,11.19,4.43,14.76,3.09,5.3-11.79,9.14-12"/><path class="cls-8" d="M116.23,140.6s-6.49,7.3,0,13.79,16.23,4.87,17.85,3.25,2.44-4.06,0-5.68"/><path class="cls-8" d="M116.23,166.56s-6.49,7.3,0,13.79,12.17,4.06,12.17,4.06"/><path class="cls-8" d="M380.53,131.35s-6.49,7.3,0,13.79,16.23,4.87,17.85,3.25,2.43-4.06,0-5.68"/><path class="cls-8" d="M380.53,157.31s-6.49,7.3,0,13.79,16.23,4.87,17.85,3.25,2.43-4.06,0-5.68"/><path class="cls-8" d="M380.53,183.27s-6.49,7.3,0,13.8,16.23,4.86,17.85,3.24,2.43-4.06,0-5.68"/></g></g></svg>