<svg xmlns="http://www.w3.org/2000/svg" viewBox="0 0 689.21 595.83"><defs><style>.cls-1,.cls-5,.cls-6,.cls-8{fill:#fff;}.cls-2,.cls-20{fill:#2dfefe;}.cls-2{opacity:0.3;}.cls-15,.cls-18,.cls-3{fill:none;}.cls-10,.cls-11,.cls-15,.cls-16,.cls-17,.cls-18,.cls-19,.cls-20,.cls-3,.cls-5,.cls-6,.cls-8,.cls-9{stroke:#3f3a37;}.cls-10,.cls-12,.cls-18,.cls-3,.cls-8{stroke-linecap:round;}.cls-10,.cls-12,.cls-13,.cls-17,.cls-18,.cls-3,.cls-6,.cls-8{stroke-linejoin:round;}.cls-10,.cls-11,.cls-12,.cls-13,.cls-14,.cls-15,.cls-17,.cls-19,.cls-20,.cls-21,.cls-3,.cls-5,.cls-6,.cls-8{stroke-width:2px;}.cls-10,.cls-11,.cls-12,.cls-13,.cls-14,.cls-16,.cls-17,.cls-21,.cls-4,.cls-7{fill:#3f3a37;}.cls-4{opacity:0.05;}.cls-11,.cls-14,.cls-15,.cls-16,.cls-19,.cls-20,.cls-21,.cls-5,.cls-9{stroke-miterlimit:10;}.cls-19,.cls-9{fill:#86fed4;}.cls-12,.cls-13,.cls-14{stroke:#fff;}.cls-18{stroke-width:3px;stroke-dasharray:0 8;}.cls-21{stroke:#86fed4;}</style></defs><title>Asset 16</title><g id="Layer_2" data-name="Layer 2"><g id="Layer_1-2" data-name="Layer 1"><polygon class="cls-1" points="149.45 43.48 191.24 81.32 187.24 98.32 135.27 114.35 149.45 43.48"/><polygon class="cls-2" points="143.71 533.2 291.25 574.83 654.21 490.66 372.71 458.07 143.71 533.2"/><line class="cls-3" x1="263.17" y1="554.56" x2="534.71" y2="486.68"/><line class="cls-3" x1="171.3" y1="534.2" x2="422.93" y2="485.32"/><line class="cls-3" x1="204.79" y1="484.41" x2="515.25" y2="564.07"/><polygon class="cls-4" points="178.71 554.2 326.25 595.83 689.21 511.66 407.71 479.07 178.71 554.2"/><path class="cls-5" d="M198.42,105.16c-2.93,0-5.3,1.29-5.3,2.89v396.1c0,1.6,2.37,2.89,5.3,2.89s5.29-1.29,5.29-2.89V108.05C203.71,106.45,201.34,105.16,198.42,105.16Z"/><path class="cls-6" d="M281.72,402.05s-80.46,32.89-113.14,27.15l11.77,36.21S257.28,445.49,281.72,402.05Z"/><path class="cls-7" d="M175.82,448.21s87.8-17.2,105.9-46.16c0,0-19,40.73-101.37,63.36Z"/><path class="cls-8" d="M270.38,322.13a.71.71,0,0,1,0,.21c0,.85-1.33,2-3.2,2.57-2,.67-3.91.51-4.2-.37s1.14-2.11,3.17-2.78c1.87-.61,3.62-.53,4.1.18A.82.82,0,0,1,270.38,322.13Z"/><ellipse class="cls-8" cx="300.95" cy="331.89" rx="1.66" ry="3.87" transform="translate(-88.5 110.41) rotate(-18.17)"/><path class="cls-8" d="M302.16,335.57l-27.68,9.09a4.63,4.63,0,0,1-5.82-3L263,324.54c.29.88,2.17,1,4.2.37,1.87-.61,3.23-1.72,3.2-2.57l3.91,11.93a2.17,2.17,0,0,0,2.74,1.38l22.68-7.44c-.88.29-1,2.17-.37,4.2S301.29,335.86,302.16,335.57Z"/><ellipse class="cls-9" cx="300.95" cy="331.89" rx="1.66" ry="3.87" transform="translate(-88.5 110.41) rotate(-18.17)"/><path class="cls-10" d="M270.38,322.13a.71.71,0,0,1,0,.21c0,.85-1.33,2-3.2,2.57-2,.67-3.91.51-4.2-.37s1.14-2.11,3.17-2.78c1.87-.61,3.62-.53,4.1.18A.82.82,0,0,1,270.38,322.13Z"/><path class="cls-8" d="M270.38,322.13a.71.71,0,0,1,0,.21l-.13-.4A.82.82,0,0,1,270.38,322.13Z"/><ellipse class="cls-8" cx="492.4" cy="284.7" rx="1.66" ry="3.87" transform="translate(-52.17 448.89) rotate(-46.81)"/><path class="cls-8" d="M495.22,287.35,475.28,308.6a4.63,4.63,0,0,1-6.52.2l-2.69-2.52a.71.71,0,0,0,.18.12l-9.46-8.88a2.92,2.92,0,0,0-.29-.23,2.17,2.17,0,0,0-2.78.33L437.39,315c.63-.67-.13-2.4-1.69-3.86s-3.33-2.11-4-1.44l19.94-21.24a4.62,4.62,0,0,1,6.52-.21l2.69,2.52a.71.71,0,0,0-.18-.12l9.46,8.88a1.94,1.94,0,0,0,.29.23,2.18,2.18,0,0,0,2.78-.32l16.33-17.41c-.63.67.13,2.4,1.69,3.86S494.59,288,495.22,287.35Z"/><ellipse class="cls-9" cx="492.4" cy="284.7" rx="1.66" ry="3.87" transform="translate(-52.17 448.89) rotate(-46.81)"/><ellipse class="cls-11" cx="434.56" cy="312.37" rx="1.66" ry="3.87" transform="translate(-90.6 415.45) rotate(-46.81)"/><ellipse class="cls-8" cx="629.72" cy="339.16" rx="3.18" ry="1.36" transform="translate(236.65 936.71) rotate(-84.97)"/><path class="cls-8" d="M629.44,342.33l-23.85-2.1a3.81,3.81,0,0,1-3.45-4.11l.27-3a.56.56,0,0,0,0,.18l.94-10.63a2.91,2.91,0,0,0,0-.3,1.77,1.77,0,0,0-1.61-1.63L582.19,319c.76.06,1.49-1.31,1.64-3.05s-.33-3.23-1.08-3.3l23.86,2.1a3.82,3.82,0,0,1,3.44,4.11l-.26,3a.5.5,0,0,0,0-.17l-.93,10.62a1.61,1.61,0,0,0,0,.31,1.79,1.79,0,0,0,1.62,1.63L630,336c-.75-.07-1.48,1.3-1.64,3.05S628.69,342.26,629.44,342.33Z"/><ellipse class="cls-9" cx="629.72" cy="339.16" rx="3.18" ry="1.36" transform="translate(236.65 936.71) rotate(-84.97)"/><ellipse class="cls-11" cx="582.47" cy="315.83" rx="3.18" ry="1.36" transform="translate(216.79 868.36) rotate(-84.97)"/><path class="cls-11" d="M63.2,391.12a38.42,38.42,0,0,0-.06,4.29,40,40,0,0,1-3.5-19.18c1-13,8.61-24.7,21.29-34.47l-1.32,19C69.86,369.62,64,379.9,63.2,391.12Z"/><rect class="cls-12" x="333.23" y="315.04" width="17.7" height="17.7" transform="translate(-110.02 456.3) rotate(-59.76)"/><polygon class="cls-12" points="317.88 330.27 329.98 327.08 345.27 336 333.17 339.19 317.88 330.27"/><polygon class="cls-13" points="317.88 330.27 326.79 314.98 338.9 311.79 329.98 327.08 317.88 330.27"/><rect class="cls-12" x="381.5" y="292.19" width="17.7" height="17.7"/><polygon class="cls-12" points="408.06 283.34 399.2 292.19 381.5 292.19 390.35 283.34 408.06 283.34"/><polygon class="cls-13" points="408.06 283.34 408.06 301.05 399.2 309.9 399.2 292.19 408.06 283.34"/><rect class="cls-12" x="529.75" y="244.45" width="17.7" height="17.7" transform="translate(-48.07 152.95) rotate(-15.48)"/><polygon class="cls-12" points="560.39 265.64 549.5 259.47 544.77 242.41 555.67 248.58 560.39 265.64"/><polygon class="cls-13" points="560.39 265.64 543.33 270.36 532.44 264.19 549.5 259.47 560.39 265.64"/><rect class="cls-12" x="321.64" y="269.5" width="17.7" height="17.7" transform="translate(-62.3 98.31) rotate(-15.48)"/><polygon class="cls-12" points="352.27 290.69 341.38 284.52 336.65 267.46 347.55 273.62 352.27 290.69"/><polygon class="cls-13" points="352.27 290.69 335.21 295.41 324.32 289.24 341.38 284.52 352.27 290.69"/><rect class="cls-12" x="505.71" y="299.67" width="17.7" height="17.7" transform="translate(-63.68 148.53) rotate(-15.48)"/><polygon class="cls-12" points="536.35 320.86 525.46 314.69 520.73 297.63 531.63 303.8 536.35 320.86"/><polygon class="cls-13" points="536.35 320.86 519.29 325.58 508.4 319.41 525.46 314.69 536.35 320.86"/><path class="cls-14" d="M32.15,258.92c-2.39,1.11-6.49-2.56-9.33-8.27l-.65.5c2.64,5.91,2.84,11.5.42,12.63s-6.61-2.66-9.46-8.51a7.45,7.45,0,0,1-.77.15s0,0,0,0c2.85,6.12,3.14,12,.65,13.18s-6.82-2.85-9.67-9C1.6,255.92.81,252.26,1,249.72c-.16-4,3.74-8.88,9.74-11.68,4.66-2.18,9.42-2.58,12.72-1.37l.15,0c2.46.72,5.61,4.22,7.85,9C34.35,251.85,34.65,257.75,32.15,258.92Z"/><path class="cls-14" d="M172.45,340.81c-1.69,2,.79,6.93,5.57,11.15l-.65.49c-5-4.07-10.37-5.71-12.09-3.67s.86,7.07,5.77,11.34c-.13.24-.24.47-.34.7h0c-5.17-4.34-10.8-6.15-12.56-4s1,7.33,6.16,11.67c3.16,2.65,6.49,4.36,9,4.8,3.85,1.19,9.55-1.31,13.8-6.39,3.32-3.94,4.93-8.43,4.63-11.93a.81.81,0,0,0,0-.16c0-2.56-2.62-6.51-6.69-9.91C179.85,340.51,174.23,338.7,172.45,340.81Z"/><path class="cls-6" d="M103.86,555.47c-15.22-14-32.19-30.89-39.4-63.14-6.27-28.07,9.85-78.93,9.85-78.93L61.77,231l32.59-16.29,89.1,242-14.88,1.53,14.93-1.38,0-.15L248.23,450a.62.62,0,0,1,0-.09l6.68,12.62c-1.56,4.49-20.43,56.68-54.21,55.81-24.33-.63-46.94-10.28-66.34-25.7a151.41,151.41,0,0,1-15.46-14.17l-8.71-9.92c2.79,3.44,5.69,6.76,8.71,9.92l4.41,5-4.5,65.79"/><path class="cls-14" d="M119.21,574.87a31.88,31.88,0,0,1-4.14,3.5l0,0a29.7,29.7,0,0,1-2.82,2.14c-5.38,3.64-10.88,4.91-12.28,2.84a1.87,1.87,0,0,1-.31-1c-.13-1.85,1.74-4.64,4.83-7.29.49-.29,1-.6,1.47-.93a32.45,32.45,0,0,0,2.73-2.07c-.5.29-1,.6-1.49.94a28.68,28.68,0,0,0-2.71,2.06c-4.21,2.5-8.25,3.5-10.1,2.52a1.92,1.92,0,0,1-.72-.63,2.86,2.86,0,0,1,0-2.68,15.92,15.92,0,0,1,4.48-5.58c.5-.29,1-.61,1.49-.94a27.13,27.13,0,0,0,2.71-2.07c-.49.29-1,.61-1.47.94a29.08,29.08,0,0,0-2.73,2.07,25.87,25.87,0,0,1-4.21,2c-3.13,1.14-5.69,1.17-6.58-.15-1.4-2.07,1.84-6.7,7.22-10.33,2.69-1.81,8.38-4.8,8.38-4.8,4.07-2.26,8.37-5.3,14.93-5.88,1.78-.16,5.1.51,6.8,2.21C129.55,556.65,127.1,567,119.21,574.87Z"/><path class="cls-15" d="M118.91,478.49c-3-3.16-5.92-6.48-8.71-9.92Z"/><polygon class="cls-15" points="183.51 456.81 168.58 458.19 183.46 456.66 183.51 456.81"/><path class="cls-6" d="M97,204.65a19.63,19.63,0,0,1-1.87,8.2c-.12.27-.24.53-.37.78a22.08,22.08,0,0,1-7.9,9.45,29,29,0,0,1-8.75,4.27c-13.55,4.18-21.44,4.82-27.16-.9-2.71-2.72-4.06-5.75-3.69-8.07,1.88-11.84,2.79-20.9,9.12-28.14l0,0c1.69-1.92,5.68-4.29,7.86-5.61l.29-.16A20.51,20.51,0,0,1,71.73,183a29.6,29.6,0,0,1,17.85,6.11A19.2,19.2,0,0,1,97,204.65Z"/><path class="cls-16" d="M64.52,184.45l-.29.16c-2.18,1.32-6.17,3.69-7.86,5.61a4.2,4.2,0,0,1-.8-3.94C56.53,183.92,60.38,183.2,64.52,184.45Z"/><path class="cls-16" d="M100.49,211.22c-.71,1.73-3,2.58-5.77,2.41.13-.25.25-.51.37-.78a19.63,19.63,0,0,0,1.87-8.2C99.8,206.61,101.3,209.22,100.49,211.22Z"/><circle class="cls-16" cx="58.61" cy="200.65" r="1.81"/><ellipse class="cls-16" cx="53.17" cy="221.02" rx="5.43" ry="4.07"/><circle class="cls-16" cx="71.28" cy="206.99" r="1.81"/><polygon class="cls-17" points="110.65 469.03 118.8 549.59 123.32 483.51 110.65 469.03"/><polygon class="cls-17" points="94.36 214.68 162.24 459.07 183.97 456.36 94.36 214.68"/><path class="cls-5" d="M299.94,384.54l-15.07-3.18,12.32-15.2c-207.1,83.53-235,29.41-235,29.41s-15.05,88.1,236.91-11"/><path class="cls-11" d="M39.37,321c-3.8,0-7.61,0-11.41,0a4.51,4.51,0,0,1-3.78-1.86c-2-2.53-4-5-6-7.52l-6.24-7.77c-.65-.81-1.28-1.64-2-2.43a4.2,4.2,0,0,1-.9-3.89c1.5-6.44,3-12.89,4.46-19.34.25-1.08.48-2.16.75-3.23a3.89,3.89,0,0,1,2.16-2.67l10.37-5,10.69-5.12a4.3,4.3,0,0,1,3.89,0q9.29,4.47,18.59,8.9c.69.33,1.37.67,2.07,1a4.45,4.45,0,0,1,2.68,3.39c1.09,4.88,2.23,9.75,3.35,14.62.58,2.5,1.14,5,1.73,7.48a4.47,4.47,0,0,1-1.08,4.07c-2.13,2.59-4.21,5.22-6.31,7.83l-6.55,8.15-1.43,1.77A4,4,0,0,1,51.17,321C47.23,321,43.3,321,39.37,321Z"/><path class="cls-11" d="M38.45,274.33a23.14,23.14,0,0,0-.3-2.75,1.87,1.87,0,0,1,.34-1.66,1.22,1.22,0,0,1,2.09.37,3,3,0,0,1,.05,1.67,13.59,13.59,0,0,0-.24,2.62.85.85,0,0,0,.13.5,1.28,1.28,0,0,1,.35.75c0,.16.18.16.31.17a16.39,16.39,0,0,1,8.18,3.26,16.76,16.76,0,0,1,1.79,1.57c.17.15.29.2.47,0a.41.41,0,0,1,.34-.16,1.53,1.53,0,0,0,1.31-.61,21.09,21.09,0,0,0,1.48-1.51,2.84,2.84,0,0,1,1.19-.89,1.3,1.3,0,0,1,1.5.48,1.38,1.38,0,0,1-.16,1.58,4.37,4.37,0,0,1-1.21.88,13.92,13.92,0,0,0-2,1.32,1,1,0,0,0-.44.72.53.53,0,0,1-.26.4c-.16.13-.18.25,0,.44a16.34,16.34,0,0,1,2.37,6,16.91,16.91,0,0,1,.15,4.92c0,.21,0,.31.23.35a.36.36,0,0,1,.26.13c.39.63,1.07.61,1.69.73.83.15,1.67.09,2.49.26a1.66,1.66,0,0,1,.9.44,1.2,1.2,0,0,1,.35,1.33,1.37,1.37,0,0,1-1.18.84,3.21,3.21,0,0,1-1.36-.3,15.14,15.14,0,0,0-2.46-.83,1.08,1.08,0,0,0-.91.1.35.35,0,0,1-.31,0c-.31-.08-.41.08-.5.34a16.5,16.5,0,0,1-4.53,6.86,14.56,14.56,0,0,1-2.31,1.74c-.24.14-.36.27-.21.54a.35.35,0,0,1,0,.28,1.4,1.4,0,0,0,.17,1.13,17.92,17.92,0,0,0,1.3,2.07,3.32,3.32,0,0,1,.56,1.13,1.3,1.3,0,0,1-.76,1.55,1.35,1.35,0,0,1-1.6-.61,5.19,5.19,0,0,1-.51-1.27,14.2,14.2,0,0,0-.85-2.28,1,1,0,0,0-.6-.56.41.41,0,0,1-.28-.25c-.09-.26-.25-.26-.48-.17a15.78,15.78,0,0,1-4.29.9,16.29,16.29,0,0,1-6.6-.87,1.7,1.7,0,0,1-.24-.09c-.17-.07-.3,0-.37.13a.63.63,0,0,1-.45.39.8.8,0,0,0-.43.42,13.48,13.48,0,0,0-.92,2.43,3.46,3.46,0,0,1-.69,1.46,1.29,1.29,0,0,1-1.59.31,1.35,1.35,0,0,1-.54-1.61,4,4,0,0,1,.58-1.08,15.39,15.39,0,0,0,1.35-2.23,1,1,0,0,0,.09-.78.51.51,0,0,1,0-.48c.14-.24,0-.35-.18-.48a16.63,16.63,0,0,1-6.86-8.51c-.1-.29-.2-.5-.56-.36a.28.28,0,0,1-.25-.05,1.32,1.32,0,0,0-1.13-.09,16,16,0,0,0-2.24.78,3.07,3.07,0,0,1-1.52.3,1.24,1.24,0,0,1-.58-2.27,2.67,2.67,0,0,1,1.48-.41,15.75,15.75,0,0,0,2.65-.34,1,1,0,0,0,.69-.44.62.62,0,0,1,.43-.27c.18,0,.22-.14.2-.33a16.37,16.37,0,0,1,2.42-10.87c.15-.22.21-.39-.06-.55a.33.33,0,0,1-.17-.27,1.28,1.28,0,0,0-.67-.95,15.7,15.7,0,0,0-2-1.25,3,3,0,0,1-1.12-.92A1.25,1.25,0,0,1,23,277.78a4,4,0,0,1,1.32,1.13,12.11,12.11,0,0,0,1.73,1.63.86.86,0,0,0,.73.2c.19,0,.31.07.44.17s.23.09.36,0A16.2,16.2,0,0,1,37,276.06a2.32,2.32,0,0,1,.38-.05c.33,0,.64,0,.63-.49a.2.2,0,0,1,.06-.15A1.27,1.27,0,0,0,38.45,274.33Z"/><path class="cls-11" d="M43.91,296.87a1.09,1.09,0,0,1,1.25-1.07c1.82.29,3.64.6,5.45.9a8.17,8.17,0,0,0,.84.14c.34,0,.31.17.21.42a13.07,13.07,0,0,1-4.84,6.06c-.2.14-.29.15-.4-.1-.76-1.87-1.54-3.74-2.31-5.6A2,2,0,0,1,43.91,296.87Z"/><path class="cls-11" d="M37.78,279.78c-.11,1.73-.21,3.43-.31,5.13a9.67,9.67,0,0,1-.08,1.2,1.09,1.09,0,0,1-1.68.78c-.61-.37-1.18-.81-1.77-1.23-1.14-.81-2.28-1.62-3.43-2.42-.23-.16-.29-.25-.05-.47a13.06,13.06,0,0,1,7-3.35C37.87,279.36,37.76,279.63,37.78,279.78Z"/><path class="cls-11" d="M26.26,292.38A13.51,13.51,0,0,1,28,285.82c.12-.21.21-.24.39-.07,1.17,1.05,2.35,2.09,3.52,3.15a10,10,0,0,1,1.3,1.22,1.06,1.06,0,0,1-.47,1.76c-.7.25-1.41.43-2.12.64l-3.94,1.14c-.35.1-.37.08-.39-.28S26.28,292.65,26.26,292.38Z"/><path class="cls-11" d="M52.59,292.53c0,.3-.07.59-.07.88s-.07.32-.32.24l-3.66-1L46.41,292a4.28,4.28,0,0,1-.46-.17,1.07,1.07,0,0,1-.35-1.74c.56-.61,1.21-1.12,1.82-1.67,1-.89,2-1.75,2.93-2.63.19-.18.28-.2.42.05a12.93,12.93,0,0,1,1.75,6C52.53,292,52.6,292.28,52.59,292.53Z"/><path class="cls-11" d="M39.4,305.6a15,15,0,0,1-3.88-.62c-.25-.08-.25-.17-.14-.37,1-1.83,2-3.67,3-5.49a1.11,1.11,0,0,1,2,.05c.36.6.69,1.23,1,1.85.66,1.18,1.31,2.38,2,3.56.15.26.09.35-.17.42a12.94,12.94,0,0,1-3.27.55C39.81,305.55,39.6,305.58,39.4,305.6Z"/><path class="cls-11" d="M33.66,295.83a1.08,1.08,0,0,1,1.19,1.41,25.71,25.71,0,0,1-1,2.51c-.45,1.13-.94,2.26-1.4,3.4-.11.26-.2.3-.44.13a13.1,13.1,0,0,1-4.79-6c-.14-.36-.14-.36.24-.43l5.93-1A1.72,1.72,0,0,1,33.66,295.83Z"/><path class="cls-11" d="M41.05,279.87c0-.48,0-.49.39-.43a13.2,13.2,0,0,1,6.43,2.93c.17.14.32.31.49.44s.16.25,0,.38l-2.76,2c-.75.53-1.5,1.08-2.26,1.6a1.15,1.15,0,0,1-1.68-.15,1.78,1.78,0,0,1-.25-1c-.08-1.36-.12-2.73-.22-4.09A9.94,9.94,0,0,0,41.05,279.87Z"/><polygon class="cls-11" points="38.6 290.65 37.58 291.94 37.94 293.54 39.42 294.25 40.9 293.54 41.27 291.94 40.24 290.65 38.6 290.65"/><path class="cls-11" d="M135.76,359.46c-4.77,0-9.53,0-14.29,0a5.62,5.62,0,0,1-4.73-2.32c-2.49-3.16-5-6.28-7.55-9.42L101.37,338c-.81-1-1.61-2.06-2.45-3.05a5.26,5.26,0,0,1-1.13-4.87q2.8-12.1,5.58-24.22c.31-1.35.61-2.7.94-4.05a4.85,4.85,0,0,1,2.71-3.33l13-6.22q6.7-3.19,13.39-6.41a5.33,5.33,0,0,1,4.87,0q11.63,5.58,23.29,11.13c.85.42,1.7.85,2.58,1.22a5.58,5.58,0,0,1,3.36,4.25c1.37,6.11,2.79,12.21,4.2,18.31.71,3.12,1.42,6.25,2.16,9.36a5.59,5.59,0,0,1-1.36,5.1c-2.67,3.24-5.27,6.53-7.9,9.81l-8.2,10.19-1.79,2.23a5,5,0,0,1-4.07,2C145.6,359.47,140.68,359.46,135.76,359.46Z"/><path class="cls-11" d="M134.6,301a25.79,25.79,0,0,0-.38-3.45,2.36,2.36,0,0,1,.44-2.08,1.53,1.53,0,0,1,2.62.47,3.72,3.72,0,0,1,.05,2.09,17.1,17.1,0,0,0-.29,3.28,1,1,0,0,0,.15.62,1.59,1.59,0,0,1,.44.94c0,.2.23.2.39.22a20.47,20.47,0,0,1,10.25,4.09,21.88,21.88,0,0,1,2.24,1.95c.21.2.36.25.59.05a.57.57,0,0,1,.43-.2,1.89,1.89,0,0,0,1.63-.76,23.7,23.7,0,0,0,1.86-1.89,3.54,3.54,0,0,1,1.48-1.11,1.6,1.6,0,0,1,1.88.6,1.72,1.72,0,0,1-.2,2,5.33,5.33,0,0,1-1.51,1.1,18.2,18.2,0,0,0-2.52,1.65,1.13,1.13,0,0,0-.54.91.71.71,0,0,1-.33.49.36.36,0,0,0-.07.55,20.51,20.51,0,0,1,3,7.5,21.2,21.2,0,0,1,.19,6.16c0,.26,0,.38.28.43a.44.44,0,0,1,.33.16c.5.8,1.35.77,2.12.91,1,.2,2.09.13,3.12.34a2.18,2.18,0,0,1,1.12.54,1.52,1.52,0,0,1,.44,1.67,1.7,1.7,0,0,1-1.48,1.05,4,4,0,0,1-1.7-.37,18.64,18.64,0,0,0-3.08-1.05,1.38,1.38,0,0,0-1.14.13.46.46,0,0,1-.39.07c-.38-.11-.51.09-.63.42a20.54,20.54,0,0,1-5.67,8.59,17.74,17.74,0,0,1-2.9,2.18c-.28.17-.44.34-.26.68a.4.4,0,0,1,0,.35,1.75,1.75,0,0,0,.22,1.41,23.88,23.88,0,0,0,1.62,2.59,3.78,3.78,0,0,1,.7,1.42,1.63,1.63,0,0,1-.94,1.94,1.68,1.68,0,0,1-2-.77,6.05,6.05,0,0,1-.65-1.58,17.24,17.24,0,0,0-1.06-2.86,1.24,1.24,0,0,0-.75-.7.49.49,0,0,1-.35-.32c-.12-.32-.31-.32-.61-.21a19,19,0,0,1-5.36,1.13,20.39,20.39,0,0,1-8.27-1.09c-.1,0-.21-.06-.31-.11s-.37-.06-.46.16a.8.8,0,0,1-.55.49,1,1,0,0,0-.55.53,17.43,17.43,0,0,0-1.15,3,4.29,4.29,0,0,1-.86,1.83,1.62,1.62,0,0,1-2,.38,1.7,1.7,0,0,1-.67-2,5.11,5.11,0,0,1,.73-1.36,17.56,17.56,0,0,0,1.69-2.79,1.16,1.16,0,0,0,.1-1,.68.68,0,0,1,0-.59c.18-.3,0-.44-.22-.6a20.58,20.58,0,0,1-4.09-3.35,20.1,20.1,0,0,1-4.49-7.31c-.14-.37-.26-.63-.71-.46a.35.35,0,0,1-.31-.06,1.63,1.63,0,0,0-1.41-.11,22.92,22.92,0,0,0-2.82,1,3.63,3.63,0,0,1-1.89.37,1.59,1.59,0,0,1-1.39-1.2,1.56,1.56,0,0,1,.66-1.63,3.38,3.38,0,0,1,1.86-.53,19.57,19.57,0,0,0,3.31-.41,1.29,1.29,0,0,0,.86-.55.77.77,0,0,1,.54-.34c.23-.06.28-.18.25-.42a20.51,20.51,0,0,1,3-13.61c.18-.28.26-.49-.09-.69a.45.45,0,0,1-.2-.34,1.63,1.63,0,0,0-.84-1.19,20.63,20.63,0,0,0-2.48-1.56,3.85,3.85,0,0,1-1.41-1.15,1.57,1.57,0,0,1,2-2.34,5.18,5.18,0,0,1,1.66,1.43,15.37,15.37,0,0,0,2.16,2,1.1,1.1,0,0,0,.92.26c.23-.06.38.09.54.2a.3.3,0,0,0,.46,0,20.14,20.14,0,0,1,11.8-6,4,4,0,0,1,.48-.07c.42,0,.8-.05.79-.62a.21.21,0,0,1,.07-.18A1.61,1.61,0,0,0,134.6,301Z"/><path class="cls-11" d="M141.45,329.26a1.37,1.37,0,0,1,1.56-1.34l6.83,1.13a9.38,9.38,0,0,0,1,.17c.43,0,.4.22.27.53a17.09,17.09,0,0,1-2.21,3.93,16.56,16.56,0,0,1-3.86,3.66c-.25.17-.36.19-.49-.13q-1.44-3.51-2.9-7A2.56,2.56,0,0,1,141.45,329.26Z"/><path class="cls-11" d="M133.76,307.86c-.13,2.17-.26,4.3-.39,6.42a10.84,10.84,0,0,1-.09,1.51,1.36,1.36,0,0,1-2.11,1c-.77-.46-1.48-1-2.21-1.53-1.43-1-2.86-2-4.3-3-.28-.2-.36-.31-.06-.59a16.34,16.34,0,0,1,8.81-4.19C133.88,307.34,133.74,307.67,133.76,307.86Z"/><path class="cls-11" d="M119.34,323.64a16.89,16.89,0,0,1,2.21-8.22c.14-.26.25-.29.48-.09,1.47,1.32,3,2.62,4.41,3.95a13.07,13.07,0,0,1,1.63,1.53,1.33,1.33,0,0,1-.59,2.2c-.87.32-1.77.54-2.66.8l-4.93,1.43c-.44.13-.46.1-.48-.34S119.36,324,119.34,323.64Z"/><path class="cls-11" d="M152.31,323.83c0,.37-.08.73-.08,1.1s-.1.4-.41.3l-4.58-1.32-2.67-.77a5.54,5.54,0,0,1-.57-.21,1.35,1.35,0,0,1-.45-2.18c.71-.76,1.52-1.4,2.29-2.1,1.21-1.11,2.45-2.19,3.66-3.29.25-.22.36-.25.53.06a16.45,16.45,0,0,1,2.2,7.48C152.24,323.21,152.33,323.52,152.31,323.83Z"/><path class="cls-11" d="M135.79,340.19a18.47,18.47,0,0,1-4.85-.77c-.31-.1-.31-.22-.18-.46,1.28-2.3,2.54-4.6,3.82-6.88a1.38,1.38,0,0,1,2.52.06c.46.76.87,1.54,1.3,2.32.82,1.48,1.63,3,2.47,4.45.19.33.11.45-.22.54a16.2,16.2,0,0,1-4.09.68C136.3,340.13,136.05,340.17,135.79,340.19Z"/><path class="cls-11" d="M128.6,328c1.14,0,1.77.78,1.49,1.77a31.5,31.5,0,0,1-1.24,3.14c-.57,1.43-1.18,2.84-1.76,4.26-.13.33-.25.38-.55.17a16.4,16.4,0,0,1-6-7.5c-.19-.46-.18-.46.3-.54l7.42-1.27Z"/><path class="cls-11" d="M137.86,308c0-.59,0-.61.49-.54a16.63,16.63,0,0,1,8.06,3.68c.2.17.39.38.6.54s.21.32,0,.49c-1.16.81-2.31,1.63-3.46,2.45-.94.66-1.87,1.34-2.83,2a1.44,1.44,0,0,1-2.1-.19,2.24,2.24,0,0,1-.32-1.29c-.09-1.7-.14-3.41-.27-5.12A13.83,13.83,0,0,0,137.86,308Z"/><polygon class="cls-11" points="134.79 321.47 133.51 323.08 133.97 325.09 135.82 325.98 137.68 325.09 138.13 323.08 136.85 321.47 134.79 321.47"/><path class="cls-5" d="M133.94,357.65c-4.76,0-9.52,0-14.28,0a5.64,5.64,0,0,1-4.73-2.32c-2.49-3.16-5-6.28-7.55-9.42l-7.82-9.72c-.81-1-1.61-2.06-2.45-3.05A5.26,5.26,0,0,1,96,328.28q2.8-12.11,5.58-24.22c.31-1.35.61-2.7.94-4.05a4.85,4.85,0,0,1,2.71-3.33l13-6.22,13.39-6.41a5.33,5.33,0,0,1,4.87,0q11.63,5.58,23.28,11.13c.86.41,1.71.85,2.59,1.22a5.58,5.58,0,0,1,3.36,4.25c1.37,6.11,2.79,12.21,4.2,18.31.71,3.12,1.42,6.25,2.16,9.36a5.59,5.59,0,0,1-1.36,5.1c-2.67,3.24-5.27,6.53-7.9,9.81l-8.2,10.19-1.79,2.23a5,5,0,0,1-4.07,2C143.79,357.66,138.87,357.65,133.94,357.65Z"/><path class="cls-5" d="M132.79,299.23a25.79,25.79,0,0,0-.38-3.45,2.36,2.36,0,0,1,.44-2.08,1.53,1.53,0,0,1,2.62.47,3.72,3.72,0,0,1,.05,2.09,17.1,17.1,0,0,0-.29,3.28,1,1,0,0,0,.15.62,1.59,1.59,0,0,1,.44.94c0,.2.23.2.39.22a20.47,20.47,0,0,1,10.25,4.09,21.88,21.88,0,0,1,2.24,1.95c.21.2.36.25.58.05a.61.61,0,0,1,.44-.2,1.89,1.89,0,0,0,1.63-.76,23.7,23.7,0,0,0,1.86-1.89,3.54,3.54,0,0,1,1.48-1.11,1.6,1.6,0,0,1,1.88.6,1.72,1.72,0,0,1-.2,2,5.33,5.33,0,0,1-1.51,1.1,18.2,18.2,0,0,0-2.52,1.65,1.17,1.17,0,0,0-.55.91c0,.23-.17.36-.32.49a.36.36,0,0,0-.07.55,20.54,20.54,0,0,1,3,7.49,21.28,21.28,0,0,1,.19,6.17c0,.26,0,.38.28.43a.44.44,0,0,1,.33.16c.5.8,1.35.77,2.12.91,1,.2,2.09.13,3.12.34a2.1,2.1,0,0,1,1.12.54,1.52,1.52,0,0,1,.44,1.67,1.7,1.7,0,0,1-1.48,1.05,4,4,0,0,1-1.7-.37,18.64,18.64,0,0,0-3.08-1.05,1.38,1.38,0,0,0-1.14.13.46.46,0,0,1-.39.07c-.38-.11-.51.09-.63.42a20.54,20.54,0,0,1-5.67,8.59,17.74,17.74,0,0,1-2.9,2.18c-.28.17-.44.34-.26.68a.4.4,0,0,1,0,.35,1.75,1.75,0,0,0,.22,1.41,22.43,22.43,0,0,0,1.62,2.59,3.78,3.78,0,0,1,.7,1.42,1.63,1.63,0,0,1-.94,1.94,1.68,1.68,0,0,1-2-.77,6.05,6.05,0,0,1-.65-1.58,17.24,17.24,0,0,0-1.06-2.86,1.24,1.24,0,0,0-.75-.7.49.49,0,0,1-.35-.32c-.12-.32-.31-.32-.61-.21a19,19,0,0,1-5.36,1.13,20.56,20.56,0,0,1-8.27-1.09c-.1,0-.21-.06-.31-.11a.3.3,0,0,0-.46.16.8.8,0,0,1-.55.49,1,1,0,0,0-.55.53,17.43,17.43,0,0,0-1.15,3,4.29,4.29,0,0,1-.86,1.83,1.62,1.62,0,0,1-2,.38,1.7,1.7,0,0,1-.67-2,5.11,5.11,0,0,1,.73-1.36,18.33,18.33,0,0,0,1.69-2.79,1.16,1.16,0,0,0,.1-1,.68.68,0,0,1,0-.59c.18-.3,0-.44-.22-.6a20.58,20.58,0,0,1-4.09-3.35,20.26,20.26,0,0,1-4.5-7.31c-.13-.37-.25-.63-.7-.46a.35.35,0,0,1-.31-.06,1.63,1.63,0,0,0-1.41-.11,22.92,22.92,0,0,0-2.82,1,3.63,3.63,0,0,1-1.89.37,1.59,1.59,0,0,1-1.39-1.2,1.56,1.56,0,0,1,.66-1.63,3.37,3.37,0,0,1,1.85-.53,19.56,19.56,0,0,0,3.32-.41,1.27,1.27,0,0,0,.86-.56.85.85,0,0,1,.54-.34c.22-.05.28-.17.25-.41a20.51,20.51,0,0,1,3-13.61c.18-.28.26-.49-.09-.69a.45.45,0,0,1-.2-.34,1.63,1.63,0,0,0-.84-1.19A20.63,20.63,0,0,0,112.9,307a3.85,3.85,0,0,1-1.41-1.15,1.57,1.57,0,0,1,2-2.34,5.28,5.28,0,0,1,1.66,1.42,14.87,14.87,0,0,0,2.16,2,1.09,1.09,0,0,0,.91.26c.24-.06.39.09.55.2a.29.29,0,0,0,.45,0,20.19,20.19,0,0,1,11.81-6,2.65,2.65,0,0,1,.48-.07c.42,0,.8-.05.79-.62a.24.24,0,0,1,.07-.19A1.58,1.58,0,0,0,132.79,299.23Z"/><path class="cls-5" d="M139.64,327.45a1.37,1.37,0,0,1,1.56-1.34l6.83,1.13a9,9,0,0,0,1,.17c.43,0,.4.22.27.53a17.09,17.09,0,0,1-2.21,3.93,16.56,16.56,0,0,1-3.86,3.66c-.25.17-.36.19-.49-.13q-1.44-3.51-2.9-7A2.56,2.56,0,0,1,139.64,327.45Z"/><path class="cls-5" d="M132,306.05c-.13,2.17-.26,4.3-.39,6.42a10.84,10.84,0,0,1-.09,1.51,1.36,1.36,0,0,1-2.11,1c-.77-.46-1.48-1-2.21-1.53-1.43-1-2.86-2-4.3-3-.29-.2-.36-.31-.06-.59a16.34,16.34,0,0,1,8.81-4.19C132.07,305.53,131.93,305.86,132,306.05Z"/><path class="cls-5" d="M117.53,321.83a16.89,16.89,0,0,1,2.21-8.22c.14-.26.25-.29.48-.09,1.47,1.32,3,2.62,4.41,4a13.07,13.07,0,0,1,1.63,1.53,1.32,1.32,0,0,1-.6,2.2c-.86.32-1.76.54-2.65.8l-4.93,1.43c-.44.13-.46.1-.48-.34S117.55,322.16,117.53,321.83Z"/><path class="cls-5" d="M150.5,322c0,.37-.08.73-.08,1.1s-.1.39-.41.3l-4.59-1.32-2.66-.77a5.54,5.54,0,0,1-.57-.21,1.35,1.35,0,0,1-.45-2.18c.71-.76,1.52-1.4,2.29-2.1,1.21-1.11,2.45-2.19,3.66-3.29.24-.22.36-.25.53.06a16.45,16.45,0,0,1,2.2,7.48C150.43,321.4,150.51,321.71,150.5,322Z"/><path class="cls-5" d="M134,338.38a18.61,18.61,0,0,1-4.86-.77c-.3-.1-.3-.22-.17-.46,1.28-2.3,2.54-4.6,3.82-6.88a1.38,1.38,0,0,1,2.52.06c.46.76.87,1.54,1.3,2.31.82,1.49,1.63,3,2.47,4.46.19.33.11.45-.22.54a15.76,15.76,0,0,1-4.09.67C134.49,338.32,134.23,338.36,134,338.38Z"/><path class="cls-5" d="M126.79,326.14c1.14,0,1.77.78,1.49,1.77a31.5,31.5,0,0,1-1.24,3.14c-.58,1.43-1.19,2.84-1.76,4.26-.13.33-.25.38-.55.17a16.4,16.4,0,0,1-6-7.5c-.19-.46-.18-.46.3-.54l7.42-1.27Z"/><path class="cls-5" d="M136.05,306.16c0-.59,0-.61.49-.54a16.63,16.63,0,0,1,8.06,3.68c.2.17.39.38.6.54s.21.32,0,.49c-1.16.81-2.31,1.63-3.46,2.45-.94.66-1.87,1.34-2.83,2a1.44,1.44,0,0,1-2.1-.19,2.24,2.24,0,0,1-.32-1.29c-.09-1.7-.14-3.41-.27-5.12A13.83,13.83,0,0,0,136.05,306.16Z"/><polygon class="cls-5" points="132.98 319.66 131.7 321.27 132.16 323.28 134.01 324.17 135.87 323.28 136.32 321.27 135.04 319.66 132.98 319.66"/><path class="cls-5" d="M37.56,319.18c-3.8,0-7.61,0-11.41,0a4.51,4.51,0,0,1-3.78-1.86c-2-2.53-4-5-6-7.52L10.1,302c-.65-.81-1.28-1.64-2-2.43a4.2,4.2,0,0,1-.9-3.89c1.5-6.44,3-12.89,4.46-19.34.25-1.08.48-2.16.75-3.23a3.89,3.89,0,0,1,2.16-2.67l10.37-5,10.69-5.12a4.3,4.3,0,0,1,3.89,0c6.19,3,12.39,5.93,18.59,8.9.69.33,1.37.67,2.07,1a4.45,4.45,0,0,1,2.68,3.39c1.09,4.88,2.23,9.75,3.35,14.62.58,2.5,1.14,5,1.73,7.48a4.47,4.47,0,0,1-1.08,4.07c-2.14,2.59-4.21,5.22-6.31,7.83L54,315.82l-1.43,1.77a4,4,0,0,1-3.25,1.58C45.42,319.19,41.49,319.18,37.56,319.18Z"/><path class="cls-5" d="M36.64,272.52a23.14,23.14,0,0,0-.3-2.75,1.9,1.9,0,0,1,.34-1.67,1.22,1.22,0,0,1,2.09.38,3,3,0,0,1,0,1.67,13.59,13.59,0,0,0-.24,2.62.85.85,0,0,0,.13.5,1.28,1.28,0,0,1,.35.75c0,.16.18.16.31.17a16.39,16.39,0,0,1,8.18,3.26A17.8,17.8,0,0,1,49.34,279c.17.15.29.2.47,0a.41.41,0,0,1,.34-.16,1.53,1.53,0,0,0,1.31-.61,21.09,21.09,0,0,0,1.48-1.51,2.84,2.84,0,0,1,1.19-.89,1.3,1.3,0,0,1,1.5.48,1.38,1.38,0,0,1-.16,1.58,4.37,4.37,0,0,1-1.21.88,13.92,13.92,0,0,0-2,1.32,1,1,0,0,0-.44.72.53.53,0,0,1-.26.4c-.16.13-.18.25,0,.44a16.34,16.34,0,0,1,2.37,6,16.91,16.91,0,0,1,.15,4.92c0,.21,0,.31.23.35a.36.36,0,0,1,.26.13c.39.63,1.07.61,1.69.73.83.15,1.67.09,2.49.26a1.66,1.66,0,0,1,.9.44,1.2,1.2,0,0,1,.35,1.33,1.37,1.37,0,0,1-1.18.84,3.21,3.21,0,0,1-1.36-.3,15.14,15.14,0,0,0-2.46-.83,1,1,0,0,0-.91.1.35.35,0,0,1-.31,0c-.31-.09-.41.07-.5.34a16.5,16.5,0,0,1-4.53,6.86,14.56,14.56,0,0,1-2.31,1.74c-.24.13-.36.27-.21.54a.39.39,0,0,1,0,.28,1.4,1.4,0,0,0,.17,1.13,19.3,19.3,0,0,0,1.29,2.07,3.17,3.17,0,0,1,.57,1.13,1.31,1.31,0,0,1-.76,1.55,1.35,1.35,0,0,1-1.6-.61,5.19,5.19,0,0,1-.51-1.27,14.2,14.2,0,0,0-.85-2.28,1,1,0,0,0-.6-.56.41.41,0,0,1-.28-.25c-.09-.26-.25-.26-.48-.17a15.78,15.78,0,0,1-4.29.9,16.29,16.29,0,0,1-6.6-.87,2.5,2.5,0,0,1-.25-.09.23.23,0,0,0-.36.13.63.63,0,0,1-.45.39.8.8,0,0,0-.43.42,13.48,13.48,0,0,0-.92,2.43,3.46,3.46,0,0,1-.69,1.46,1.29,1.29,0,0,1-1.59.31,1.35,1.35,0,0,1-.54-1.61,4,4,0,0,1,.58-1.08A15.39,15.39,0,0,0,29,306.37a1,1,0,0,0,.09-.78.51.51,0,0,1,0-.48c.14-.24,0-.35-.18-.48A16.63,16.63,0,0,1,22,296.12c-.1-.29-.2-.5-.56-.36a.28.28,0,0,1-.25-.05,1.32,1.32,0,0,0-1.13-.09,16,16,0,0,0-2.24.78,3.07,3.07,0,0,1-1.52.3,1.29,1.29,0,0,1-1.11-1,1.27,1.27,0,0,1,.53-1.31,2.67,2.67,0,0,1,1.48-.41,15.75,15.75,0,0,0,2.65-.34,1,1,0,0,0,.69-.44A.62.62,0,0,1,21,293c.18,0,.22-.14.2-.33a16.37,16.37,0,0,1,2.42-10.87c.15-.22.21-.39-.06-.55a.33.33,0,0,1-.17-.27,1.28,1.28,0,0,0-.67-.95,15.7,15.7,0,0,0-2-1.25,3,3,0,0,1-1.12-.92A1.25,1.25,0,0,1,21.2,276a4,4,0,0,1,1.32,1.13,12.11,12.11,0,0,0,1.73,1.63.86.86,0,0,0,.73.2c.19,0,.31.07.44.17s.23.09.36,0a16.17,16.17,0,0,1,9.43-4.81,2.32,2.32,0,0,1,.38-.05c.33,0,.64,0,.63-.49a.2.2,0,0,1,.06-.15A1.27,1.27,0,0,0,36.64,272.52Z"/><path class="cls-5" d="M42.1,295.06A1.09,1.09,0,0,1,43.35,294c1.82.29,3.64.6,5.45.9a8.17,8.17,0,0,0,.84.14c.34,0,.31.17.21.42A13.07,13.07,0,0,1,45,301.51c-.2.14-.29.15-.4-.1-.76-1.87-1.54-3.74-2.31-5.6A2,2,0,0,1,42.1,295.06Z"/><path class="cls-5" d="M36,278c-.11,1.73-.21,3.43-.31,5.13a9.67,9.67,0,0,1-.08,1.2,1.09,1.09,0,0,1-1.68.78c-.61-.37-1.18-.81-1.77-1.23-1.14-.81-2.28-1.62-3.43-2.42-.23-.16-.29-.25-.05-.48a13.11,13.11,0,0,1,7-3.34C36.06,277.55,36,277.82,36,278Z"/><path class="cls-5" d="M24.45,290.57A13.51,13.51,0,0,1,26.21,284c.12-.21.21-.24.39-.07C27.77,285,29,286,30.12,287.09a10,10,0,0,1,1.3,1.22,1.06,1.06,0,0,1-.47,1.76c-.7.25-1.41.43-2.12.64l-3.94,1.14c-.35.1-.37.08-.39-.28S24.47,290.84,24.45,290.57Z"/><path class="cls-5" d="M50.78,290.72c0,.3-.07.59-.07.88s-.07.32-.32.24l-3.66-1-2.13-.62a3.61,3.61,0,0,1-.46-.17,1.07,1.07,0,0,1-.35-1.74c.56-.61,1.21-1.12,1.82-1.67,1-.89,2-1.75,2.93-2.64.19-.17.28-.19.42.06a13.05,13.05,0,0,1,1.75,6C50.72,290.23,50.79,290.47,50.78,290.72Z"/><path class="cls-5" d="M37.59,303.79a15,15,0,0,1-3.88-.62c-.25-.08-.25-.17-.14-.37,1-1.83,2-3.67,3-5.49a1.1,1.1,0,0,1,2,.05c.37.6.7,1.23,1,1.85.66,1.18,1.31,2.38,2,3.56.15.26.09.35-.17.42a12.94,12.94,0,0,1-3.27.55C38,303.74,37.79,303.77,37.59,303.79Z"/><path class="cls-5" d="M31.85,294A1.09,1.09,0,0,1,33,295.43a26.75,26.75,0,0,1-1,2.51c-.45,1.13-.94,2.26-1.4,3.4-.11.26-.2.3-.44.13a13.1,13.1,0,0,1-4.79-6c-.14-.36-.14-.36.24-.43l5.93-1Z"/><path class="cls-5" d="M39.24,278.06c0-.48,0-.49.39-.43a13.2,13.2,0,0,1,6.43,2.93c.17.14.32.31.49.44s.16.25,0,.38l-2.76,2c-.75.53-1.5,1.08-2.26,1.6a1.15,1.15,0,0,1-1.68-.15,1.78,1.78,0,0,1-.25-1c-.08-1.36-.12-2.73-.22-4.09A11.21,11.21,0,0,0,39.24,278.06Z"/><polygon class="cls-5" points="36.79 288.84 35.77 290.13 36.13 291.73 37.61 292.44 39.09 291.73 39.46 290.13 38.43 288.84 36.79 288.84"/><path class="cls-5" d="M457.32,383.94C433.7,371.63,400.2,363,362.13,360.41l-19.81,7.4,18.85,11.75c39.19,3.19,73.21,12.75,96.15,26.11Z"/><path class="cls-18" d="M142.07,28.16c-6.19.86-15-6.79-20.54-4.16s-5.21,14.34-9.77,18.55S95.63,45.4,92.51,50.83c-3,5.25,3.95,14.6,2.58,20.81-1.24,5.61-11.54,10.41-11.23,15.87.33,5.66,11.15,9.25,13,14.48s-4.45,14.81-1.27,19.4,14.27,2,18.6,5.61"/><path class="cls-18" d="M127.69,8.48C118.77,8,108.81-.58,100.59,2,92.21,4.59,88.89,17.4,82,22.69S61.81,27.75,57.05,35.2c-4.58,7.19,1.09,19-.85,27.86C54.4,71.19,44.15,78.76,45,86.6c.87,8.13,12.59,13.34,15.94,20.61s-.23,19.62,5.32,25.51,17.91,3,25.14,6.82"/><ellipse class="cls-11" cx="137.43" cy="78.37" rx="38.19" ry="15.67" transform="translate(31.29 195.69) rotate(-77.56)"/><ellipse class="cls-19" cx="189.32" cy="89.76" rx="8.26" ry="3.62" transform="translate(60.89 255.3) rotate(-77.56)"/><path class="cls-20" d="M191.1,81.69l-42.38-39Z"/><path class="cls-20" d="M186.7,97.41l-53.08,18Z"/><ellipse class="cls-21" cx="137" cy="79.03" rx="4.53" ry="3.62" transform="translate(30.31 195.79) rotate(-77.56)"/><line class="cls-21" x1="153.58" y1="75.27" x2="137.97" y2="74.61"/><line class="cls-21" x1="136.02" y1="83.45" x2="150.47" y2="89.42"/><ellipse class="cls-15" cx="137.43" cy="78.37" rx="38.19" ry="15.67" transform="translate(31.29 195.69) rotate(-77.56)"/><path class="cls-14" d="M273.51,447.56a31.46,31.46,0,0,1,3.77,3.91h0a29.51,29.51,0,0,1,2.33,2.67c4,5.14,5.61,10.54,3.63,12.07a1.83,1.83,0,0,1-1,.38c-1.83.25-4.75-1.44-7.59-4.34-.32-.47-.67-.95-1-1.41a30.7,30.7,0,0,0-2.24-2.59c.32.48.67,1,1,1.43a30.34,30.34,0,0,0,2.24,2.57c2.77,4,4,8,3.18,9.91a2,2,0,0,1-.58.76,2.85,2.85,0,0,1-2.68.15,15.87,15.87,0,0,1-5.86-4.1c-.32-.48-.67-1-1-1.43a27.17,27.17,0,0,0-2.24-2.56c.32.46.67.94,1,1.41a30.58,30.58,0,0,0,2.25,2.58,26.32,26.32,0,0,1,2.3,4.07c1.34,3.05,1.54,5.6.28,6.57-2,1.54-6.8-1.39-10.77-6.53-2-2.56-5.35-8-5.35-8-2.53-3.91-5.84-8-6.85-14.51-.28-1.77.18-5.12,1.77-6.93C254.66,438.44,265.12,440.21,273.51,447.56Z"/></g></g></svg>