<svg xmlns="http://www.w3.org/2000/svg" viewBox="0 0 500.5 453.27"><defs><style>.cls-1,.cls-11,.cls-12,.cls-6,.cls-7,.cls-8{fill:#3f3a37;}.cls-1{opacity:0.05;}.cls-2{fill:#2dfefe;opacity:0.3;}.cls-15,.cls-3{fill:#fff;}.cls-10,.cls-13,.cls-14,.cls-15,.cls-3,.cls-4,.cls-5,.cls-8,.cls-9{stroke:#3f3a37;}.cls-10,.cls-13,.cls-15,.cls-3,.cls-6,.cls-8,.cls-9{stroke-linecap:round;}.cls-10,.cls-13,.cls-14,.cls-15,.cls-3,.cls-6,.cls-7,.cls-8,.cls-9{stroke-linejoin:round;}.cls-10,.cls-14,.cls-3,.cls-4,.cls-6,.cls-7,.cls-8,.cls-9{stroke-width:2px;}.cls-4,.cls-5,.cls-9{fill:#86fed4;}.cls-4,.cls-5{stroke-miterlimit:10;}.cls-6,.cls-7{stroke:#fff;}.cls-10,.cls-13,.cls-14{fill:none;}.cls-12{font-size:16.07px;font-family:Montserrat-SemiBold, Montserrat;font-weight:600;}.cls-13,.cls-15{stroke-width:3px;stroke-dasharray:0 8;}</style></defs><title>Asset 17</title><g id="Layer_2" data-name="Layer 2"><g id="Layer_1-2" data-name="Layer 1"><polygon class="cls-1" points="443.69 286.13 315.46 375.26 0 195.06 244.66 125.3 443.69 286.13"/><polygon class="cls-2" points="475.69 272.13 347.46 361.26 32 181.06 276.66 111.3 475.69 272.13"/><path class="cls-3" d="M272.77,410.46l-.5-39.3a3.58,3.58,0,0,0-3-3.48,3.94,3.94,0,0,0-.6,0l-21.39.26a1,1,0,0,0,.29.05l-6,.08a7.64,7.64,0,0,1-7.7-7.51l-.59-48c0-1.51,2.83-2.77,6.35-2.8s6.4,1.14,6.41,2.65v0l.49,39.3a3.58,3.58,0,0,0,3,3.48,3.08,3.08,0,0,0,.61,0l21.39-.26a1.1,1.1,0,0,0-.35-.05l6.07-.08a7.64,7.64,0,0,1,7.7,7.51l.6,48c0-1.52-2.9-2.71-6.42-2.66S272.79,409,272.77,410.46Z"/><ellipse class="cls-4" cx="278.93" cy="410.14" rx="6.38" ry="2.74" transform="matrix(1, -0.03, 0.03, 1, -10.59, 7.41)"/><path class="cls-3" d="M204.53,278.57l-39.28,1.09a3.56,3.56,0,0,0-3.44,3.06,4,4,0,0,0,0,.61l.59,21.38a1.54,1.54,0,0,0,0-.3l.17,6a7.63,7.63,0,0,1-7.39,7.81l-48,1.32c-1.5.05-2.81-2.78-2.9-6.3s1-6.42,2.56-6.45h0l39.28-1.09a3.58,3.58,0,0,0,3.44-3.06,4.08,4.08,0,0,0,0-.61l-.59-21.38a1.06,1.06,0,0,0-.05.35l-.17-6.07a7.65,7.65,0,0,1,7.39-7.82l48-1.32c-1.52.05-2.66,2.94-2.57,6.46S203,278.57,204.53,278.57Z"/><ellipse class="cls-5" cx="204.39" cy="272.19" rx="2.74" ry="6.38" transform="translate(-7.43 5.74) rotate(-1.58)"/><rect class="cls-6" x="184.87" y="247.21" width="72.1" height="72.1"/><polygon class="cls-6" points="293.02 211.16 256.97 247.21 184.87 247.21 220.92 211.16 293.02 211.16"/><polygon class="cls-7" points="293.02 211.16 293.02 283.25 256.97 319.31 256.97 247.21 293.02 211.16"/><path class="cls-3" d="M208.37,190.51h20.7a3.59,3.59,0,0,1,3.57,3.57v39.34c0,1.5,2.86,2.73,6.38,2.73s6.39-1.23,6.39-2.73v-48a7.64,7.64,0,0,0-7.61-7.6H208c1.51,0,2.73,2.86,2.73,6.38C210.76,187.43,209.72,190.13,208.37,190.51Z"/><path class="cls-8" d="M208,190.56a1.06,1.06,0,0,0,.35-.05c1.35-.38,2.39-3.08,2.39-6.33,0-3.52-1.22-6.38-2.74-6.38s-2.73,2.86-2.73,6.38c0,3.25,1,5.95,2.39,6.33A1,1,0,0,0,208,190.56Z"/><path class="cls-3" d="M194.12,177.91h-20.7a3.58,3.58,0,0,1-3.57-3.58V135c0-1.51-2.87-2.73-6.39-2.73s-6.38,1.22-6.38,2.73v48a7.64,7.64,0,0,0,7.61,7.61h29.77c-1.51,0-2.73-2.87-2.73-6.39C191.73,181,192.76,178.29,194.12,177.91Z"/><path class="cls-9" d="M194.46,177.85a1,1,0,0,0-.34.06c-1.35.38-2.39,3.08-2.39,6.32,0,3.52,1.22,6.38,2.73,6.38s2.74-2.86,2.74-6.38c0-3.24-1-5.94-2.39-6.32A1.07,1.07,0,0,0,194.46,177.85Z"/><path class="cls-3" d="M318.17,428.76h20.7a3.57,3.57,0,0,0,3.57-3.57V385.86c0-1.51,2.87-2.73,6.39-2.73s6.38,1.22,6.38,2.73v48a7.64,7.64,0,0,1-7.61,7.61H317.83c1.51,0,2.73-2.87,2.73-6.39C320.56,431.84,319.53,429.15,318.17,428.76Z"/><path class="cls-8" d="M317.83,428.71a1.27,1.27,0,0,1,.34.05c1.35.39,2.39,3.08,2.39,6.33,0,3.52-1.22,6.38-2.73,6.38s-2.74-2.86-2.74-6.38c0-3.25,1-5.94,2.39-6.33A1.41,1.41,0,0,1,317.83,428.71Z"/><ellipse class="cls-4" cx="107.37" cy="312.97" rx="2.9" ry="6.25" transform="translate(-8.12 2.9) rotate(-1.49)"/><rect class="cls-6" x="316.99" y="338.75" width="40.93" height="40.93"/><polygon class="cls-6" points="378.38 318.28 357.92 338.75 316.99 338.75 337.45 318.28 378.38 318.28"/><polygon class="cls-7" points="378.38 318.28 378.38 359.21 357.92 379.67 357.92 338.75 378.38 318.28"/><path class="cls-3" d="M383.25,231.35l-1,39.28a3.58,3.58,0,0,1-3.06,3.44,4,4,0,0,1-.61,0l-21.38-.56a1,1,0,0,1,.29,0l-6-.16a7.63,7.63,0,0,0-7.8,7.4l-1.25,48c0,1.5,2.79,2.8,6.31,2.89s6.41-1.06,6.45-2.57v0l1-39.28a3.58,3.58,0,0,1,3.05-3.45,4,4,0,0,1,.61,0l21.38.55a1.06,1.06,0,0,1-.35.05L387,287a7.63,7.63,0,0,0,7.8-7.4l1.25-48c0,1.52-2.93,2.66-6.45,2.57S383.26,232.84,383.25,231.35Z"/><ellipse class="cls-5" cx="389.63" cy="231.48" rx="2.74" ry="6.38" transform="translate(148.08 614.95) rotate(-88.51)"/><rect class="cls-6" x="355.38" y="203.05" width="49.85" height="49.85"/><polygon class="cls-6" points="430.16 178.12 405.23 203.05 355.38 203.05 380.31 178.12 430.16 178.12"/><polygon class="cls-7" points="430.16 178.12 430.16 227.98 405.23 252.9 405.23 203.05 430.16 178.12"/><path class="cls-3" d="M369.16,229.67H329.87a3.55,3.55,0,0,0-3.52,3,3.94,3.94,0,0,0-.06.61v21.39a1.59,1.59,0,0,0,.06-.3v6a7.64,7.64,0,0,1-7.6,7.61h-48c-1.51,0-2.73-2.86-2.72-6.38s1.22-6.38,2.73-6.38h39.33a3.58,3.58,0,0,0,3.52-3,3.94,3.94,0,0,0,.05-.6V230.24a1,1,0,0,0-.05.34v-6.07a7.63,7.63,0,0,1,7.6-7.6h48c-1.52,0-2.74,2.86-2.74,6.38S367.67,229.63,369.16,229.67Z"/><ellipse class="cls-5" cx="369.2" cy="223.29" rx="2.74" ry="6.38"/><path class="cls-3" d="M361.24,90l.16,39.29a3.57,3.57,0,0,0,3,3.51,3.83,3.83,0,0,0,.6,0l21.39-.08a.93.93,0,0,0-.29-.05l6,0a7.63,7.63,0,0,1,7.63,7.58l.18,48c0,1.51-2.85,2.74-6.37,2.75s-6.39-1.2-6.39-2.71v0L387,149a3.58,3.58,0,0,0-3-3.51,4,4,0,0,0-.61,0l-21.39.08a1.51,1.51,0,0,0,.35.06l-6.07,0a7.64,7.64,0,0,1-7.64-7.57l-.18-48c0,1.51,2.87,2.73,6.39,2.71S361.21,91.49,361.24,90Z"/><ellipse class="cls-5" cx="354.86" cy="89.98" rx="6.38" ry="2.74" transform="translate(-0.34 1.37) rotate(-0.22)"/><path class="cls-3" d="M476,216.1l-.16,29.76c0-.16-.1,102.9-.1,102.9h-12.5s-.08-103.38-.11-103.29l.11-20.71a3.57,3.57,0,0,0-3.55-3.59L420.31,221c-1.51,0-2.72-2.88-2.7-6.4s1.25-6.37,2.76-6.36l48,.25A7.64,7.64,0,0,1,476,216.1Z"/><ellipse class="cls-4" cx="469.44" cy="348.54" rx="6.38" ry="2.74"/><circle class="cls-3" cx="76.89" cy="310.82" r="19"/><line class="cls-10" x1="76.89" y1="311.27" x2="76.89" y2="297.89"/><polygon class="cls-11" points="79.38 298.62 76.89 294.31 74.39 298.62 79.38 298.62"/><line class="cls-10" x1="77.53" y1="311.27" x2="86.44" y2="311.27"/><polygon class="cls-11" points="85.71 313.76 90.03 311.27 85.71 308.78 85.71 313.76"/><ellipse class="cls-9" cx="297.14" cy="435.13" rx="11.61" ry="13.84"/><ellipse class="cls-9" cx="290.82" cy="435.13" rx="11.61" ry="13.84"/><ellipse class="cls-3" cx="284.49" cy="435.13" rx="11.61" ry="13.84"/><text class="cls-12" transform="translate(276.88 440.51)">€</text><path class="cls-13" d="M163.56,113.14c0-14,10-14,10-27.92s-10-13.94-10-27.9,10-14,10-27.92-10-13.94-10-27.9"/><path d="M376.72,81.54a14.57,14.57,0,0,1,2.37-3.79,41.34,41.34,0,0,1,3.73-3.62,31.61,31.61,0,0,0,4.71-5,7.16,7.16,0,0,0,.56-.93A9.38,9.38,0,0,0,384.51,56a15.66,15.66,0,0,0-7.86-1.75,21.24,21.24,0,0,0-8.23,1.45,15.89,15.89,0,0,0-5.37,3.71,1.05,1.05,0,0,1-1.42.12l-1-.76a1.05,1.05,0,0,1-.14-1.54Q366.36,51,376.86,51q7.23,0,11.56,3.29a10.54,10.54,0,0,1,4.32,8.83,13.09,13.09,0,0,1-1,5.21,14.31,14.31,0,0,1-2.34,3.83,39.56,39.56,0,0,1-3.72,3.65c-1.46,1.32-2.6,2.44-3.4,3.33a12.59,12.59,0,0,0-2.06,3.23,9.93,9.93,0,0,0-.81,3.39,1.08,1.08,0,0,1-1.09,1h-1.55a1,1,0,0,1-1.05-1.09A11.93,11.93,0,0,1,376.72,81.54Z"/><path d="M375.51,100.43a2.91,2.91,0,0,1,2.06-5,2.89,2.89,0,0,1,2.13.85,2.91,2.91,0,0,1,0,4.11,2.89,2.89,0,0,1-2.13.85A2.79,2.79,0,0,1,375.51,100.43Z"/><line class="cls-14" x1="48.07" y1="278.24" x2="55.21" y2="289.84"/><line class="cls-14" x1="32.33" y1="311.72" x2="45.96" y2="311.72"/><line class="cls-14" x1="48.07" y1="341.62" x2="55.21" y2="330.02"/><path class="cls-15" d="M468.54,359.48c-7.57.55-15.18,17.31-10.71,27.67,2.13,5,5.69,5.38,6.25,9.82.8,6.39-6.06,9.31-9.82,17-4.84,9.86-4,26.48,6.25,33.93,8.54,6.19,21.65,4.62,29.46-1.79,11.31-9.28,11-28.36,4.46-39.28-6.27-10.43-16.91-11.15-17.85-20.53-.69-6.86,4.65-10.09,2.68-17C477.8,364.2,472.92,359.16,468.54,359.48Z"/></g></g></svg>