<svg xmlns="http://www.w3.org/2000/svg" xmlns:xlink="http://www.w3.org/1999/xlink" viewBox="0 0 467.34 525.92"><defs><style>.cls-1,.cls-10,.cls-2,.cls-8,.cls-9{fill:none;}.cls-10,.cls-12,.cls-13,.cls-14,.cls-15,.cls-16,.cls-17,.cls-2,.cls-7,.cls-8,.cls-9{stroke:#3f3a37;}.cls-10,.cls-13,.cls-14,.cls-15,.cls-2,.cls-8,.cls-9{stroke-linecap:round;}.cls-10,.cls-12,.cls-13,.cls-14,.cls-15,.cls-17,.cls-2,.cls-8,.cls-9{stroke-linejoin:round;}.cls-12,.cls-13,.cls-15,.cls-2,.cls-5,.cls-7{stroke-width:2px;}.cls-2,.cls-8{stroke-dasharray:0 8;}.cls-3{fill:#2dfefe;opacity:0.3;}.cls-4{fill:url(#small_dots);}.cls-14,.cls-15,.cls-16,.cls-17,.cls-5,.cls-6{fill:#3f3a37;}.cls-5{stroke:#fff;}.cls-16,.cls-5,.cls-7{stroke-miterlimit:10;}.cls-12,.cls-13,.cls-7{fill:#fff;}.cls-10,.cls-8,.cls-9{stroke-width:3px;}.cls-10{stroke-dasharray:0 8.15;}.cls-11{fill:#f7f7f7;}</style><pattern id="small_dots" data-name="small dots" width="8" height="8" patternTransform="translate(1.5 423.46) scale(1.03)" patternUnits="userSpaceOnUse" viewBox="0 0 8 8"><rect class="cls-1" width="8" height="8"/><circle class="cls-2" cx="4" cy="4" r="1"/></pattern></defs><title>Asset 19</title><g id="Layer_2" data-name="Layer 2"><g id="Layer_1-2" data-name="Layer 1"><path class="cls-3" d="M466.8,274.22q-2.55,22.89-17.47,42.76T413,345.86a85.79,85.79,0,0,1-44.87,6q-23.46-3-43.71-18.18-31.73-23.83-39.34-52.27-1.69-6.37-2.82-13.25-3.81-23.82-.38-53.7l-.12,0q.64-10.8,2.45-22.58l-.08,0A350.9,350.9,0,0,0,286,149.75a89.75,89.75,0,0,0-8.62-35.46c-.5-1.06-1-2.12-1.58-3.17q-8.28-15.59-25.63-28.62Q225.7,64.11,198,67.54T152.57,94.65q-17.79,23.68-13.37,51.21t28.88,45.89q19.1,14.37,38.11,17.28a93.36,93.36,0,0,0,19.63,1L222,190.63a3,3,0,0,1,4.45-3.14L264.16,210a3,3,0,0,1,.86,4.36l-26.38,35.09a3,3,0,0,1-5.31-1.22l-3.72-18.87a103.92,103.92,0,0,1-31-1.82q-21.27-4.32-43-20.67-20.25-15.21-30-36.86a83.45,83.45,0,0,1-7-44.73q2.67-23.08,17.61-42.95t36.34-28.88a83.42,83.42,0,0,1,44.92-5.7Q240.9,51,261.16,66.25,282.93,82.62,293,101.83a100.19,100.19,0,0,1,11.63,38.62q1.53,19.08-.87,44.19s0,.05,0,.08a224.16,224.16,0,0,0-3,25.81,337.46,337.46,0,0,0-1.6,39.39,83.54,83.54,0,0,0,1.55,13.79A93.3,93.3,0,0,0,308,285.52q8.31,17.61,27.41,32,24.43,18.34,52.07,14.61t45.42-27.44q17.81-23.68,13.42-50.89T417.49,208.2q-19.11-14.35-38.3-17.43a88.84,88.84,0,0,0-36.66,1.46q-9.46,2.46-20.84,6.39a1.18,1.18,0,0,1-1.56-1.21c.52-5.89,1.33-12,2.39-18.3a1.22,1.22,0,0,1,.81-.94q24.39-7.83,45.55-8.29,29.43-.6,61.14,23.23,20.25,15.21,29.79,36.72A84.68,84.68,0,0,1,466.8,274.22Z"/><path class="cls-4" d="M450.64,274.29q-2.55,22.88-17.47,42.76t-36.34,28.87A85.68,85.68,0,0,1,352,352q-23.46-3-43.71-18.19-31.72-23.83-39.34-52.26a135.54,135.54,0,0,1-2.81-13.26q-3.83-23.82-.38-53.7l-.13.06q.65-10.8,2.46-22.59l-.09,0a351.14,351.14,0,0,0,1.87-42.25,89.75,89.75,0,0,0-8.62-35.46c-.5-1.06-1-2.12-1.58-3.16Q251.35,95.59,234,82.56q-24.47-18.39-52.12-15T136.41,94.71q-17.79,23.7-13.37,51.21t28.88,45.9Q171,206.18,190,209.1a93.89,93.89,0,0,0,19.62,1l-3.82-19.42a3,3,0,0,1,4.46-3.13L248,210.05a3,3,0,0,1,.86,4.35l-26.38,35.1a3,3,0,0,1-5.31-1.22l-3.72-18.88a103.92,103.92,0,0,1-31-1.82q-21.27-4.31-43-20.67-20.25-15.21-30-36.86a83.46,83.46,0,0,1-7-44.73Q105,102.24,120,82.37t36.34-28.88a83.51,83.51,0,0,1,44.92-5.7q23.5,3.32,43.76,18.52,21.78,16.38,31.85,35.58a100.34,100.34,0,0,1,11.62,38.63q1.53,19.08-.86,44.18s0,.05,0,.08a219.82,219.82,0,0,0-3,25.81A335.26,335.26,0,0,0,283,250a83.53,83.53,0,0,0,1.54,13.79,92.72,92.72,0,0,0,7.27,21.81q8.31,17.61,27.41,31.95,24.44,18.36,52.06,14.61t45.42-27.43q17.81-23.7,13.43-50.89t-28.84-45.56q-19.11-14.35-38.3-17.42a88.85,88.85,0,0,0-36.66,1.45q-9.47,2.46-20.83,6.39a1.18,1.18,0,0,1-1.57-1.21c.52-5.89,1.33-12,2.39-18.3a1.24,1.24,0,0,1,.82-.94q24.38-7.83,45.54-8.28,29.43-.6,61.15,23.22,20.24,15.21,29.78,36.72A84.72,84.72,0,0,1,450.64,274.29Z"/><path class="cls-5" d="M112.13,162.47c1,2.49-3,6.44-8.93,9l.47.69c6.15-2.33,11.83-2.2,12.83.31s-3.08,6.55-9.19,9.1c0,.27.09.53.12.79h0c6.38-2.54,12.39-2.49,13.42.11s-3.3,6.76-9.68,9.29c-3.89,1.56-7.65,2.14-10.22,1.76-4.09-.08-8.79-4.31-11.27-10.57-1.94-4.86-2.07-9.71-.65-13a.66.66,0,0,1,0-.15c.87-2.46,4.61-5.45,9.62-7.43C105.09,159.82,111.09,159.86,112.13,162.47Z"/><path class="cls-5" d="M193.34,239c-2.46-1.06-6.51,2.79-9.23,8.68l-.67-.49c2.5-6.08,2.53-11.77,0-12.84s-6.63,2.9-9.35,8.93c-.27-.05-.53-.1-.79-.13,0,0,0,0,0,0,2.71-6.3,2.83-12.31.26-13.41s-6.85,3.11-9.56,9.41c-1.66,3.85-2.35,7.59-2,10.17,0,4.1,4.07,8.91,10.25,11.57,4.81,2.07,9.66,2.33,13,1l.14-.05c2.48-.81,5.58-4.46,7.7-9.41C195.79,246.11,195.92,240.11,193.34,239Z"/><path class="cls-6" d="M213.29,181.19c-6,0-12,0-18,0a7.13,7.13,0,0,1-6-2.93c-3.13-4-6.32-7.9-9.49-11.84l-9.83-12.23c-1-1.28-2-2.58-3.08-3.83a6.58,6.58,0,0,1-1.42-6.13q3.52-15.23,7-30.45c.4-1.7.77-3.4,1.18-5.09a6.13,6.13,0,0,1,3.41-4.2q8.16-3.93,16.33-7.81l16.84-8.06a6.71,6.71,0,0,1,6.12,0q14.63,7,29.28,14c1.08.52,2.15,1.06,3.25,1.53a7,7,0,0,1,4.23,5.34c1.72,7.69,3.51,15.35,5.28,23,.9,3.92,1.79,7.85,2.72,11.78a7,7,0,0,1-1.71,6.4c-3.36,4.08-6.63,8.22-9.94,12.34L239.24,175.9,237,178.7a6.32,6.32,0,0,1-5.12,2.48C225.68,181.21,219.48,181.19,213.29,181.19Z"/><path class="cls-6" d="M211.84,107.72a35.18,35.18,0,0,0-.47-4.34,2.93,2.93,0,0,1,.54-2.61,1.92,1.92,0,0,1,3.29.59,4.5,4.5,0,0,1,.07,2.62,21.22,21.22,0,0,0-.37,4.13,1.3,1.3,0,0,0,.2.78,2.09,2.09,0,0,1,.55,1.18c0,.26.29.26.49.28A25.87,25.87,0,0,1,229,115.49a29.92,29.92,0,0,1,2.82,2.46c.25.25.45.32.73.06a.71.71,0,0,1,.54-.25,2.41,2.41,0,0,0,2.06-1,30.8,30.8,0,0,0,2.33-2.38,4.51,4.51,0,0,1,1.87-1.39,2,2,0,0,1,2.36.76,2.14,2.14,0,0,1-.25,2.48,6.8,6.8,0,0,1-1.89,1.39,22.23,22.23,0,0,0-3.18,2.07,1.43,1.43,0,0,0-.68,1.14.85.85,0,0,1-.41.62.44.44,0,0,0-.09.69,25.78,25.78,0,0,1,3.73,9.43,26.5,26.5,0,0,1,.25,7.75c0,.33.05.48.35.54a.6.6,0,0,1,.41.2c.63,1,1.7,1,2.67,1.15,1.29.25,2.63.16,3.92.43a2.56,2.56,0,0,1,1.41.68,1.91,1.91,0,0,1,.56,2.1,2.13,2.13,0,0,1-1.87,1.31,4.89,4.89,0,0,1-2.13-.46,23.35,23.35,0,0,0-3.88-1.32,1.77,1.77,0,0,0-1.44.16.58.58,0,0,1-.49.09c-.48-.14-.64.12-.78.53a25.92,25.92,0,0,1-7.13,10.8,23.2,23.2,0,0,1-3.65,2.74c-.36.22-.55.44-.32.85a.59.59,0,0,1,.05.45,2.13,2.13,0,0,0,.27,1.77,28.66,28.66,0,0,0,2,3.26,5.05,5.05,0,0,1,.89,1.78,2.07,2.07,0,0,1-1.19,2.45,2.13,2.13,0,0,1-2.52-1,7.68,7.68,0,0,1-.8-2,22.27,22.27,0,0,0-1.34-3.6,1.54,1.54,0,0,0-.94-.88.64.64,0,0,1-.45-.39c-.14-.41-.39-.41-.76-.27a24,24,0,0,1-6.75,1.41A25.64,25.64,0,0,1,205,160.82c-.13,0-.27-.08-.39-.14s-.47-.08-.58.21a1,1,0,0,1-.7.61,1.24,1.24,0,0,0-.69.66,21.82,21.82,0,0,0-1.44,3.83,5.4,5.4,0,0,1-1.09,2.29,2,2,0,0,1-2.51.49,2.13,2.13,0,0,1-.84-2.53,6.29,6.29,0,0,1,.92-1.71,23.55,23.55,0,0,0,2.12-3.51,1.48,1.48,0,0,0,.13-1.23.8.8,0,0,1,.05-.74c.23-.38,0-.56-.27-.76a26.11,26.11,0,0,1-5.16-4.21,25.4,25.4,0,0,1-5.64-9.19c-.17-.47-.33-.79-.89-.58a.42.42,0,0,1-.39-.08,2.06,2.06,0,0,0-1.78-.13,27.92,27.92,0,0,0-3.54,1.22,4.65,4.65,0,0,1-2.38.47,1.95,1.95,0,0,1-.92-3.57,4.29,4.29,0,0,1,2.34-.65,25.3,25.3,0,0,0,4.16-.52,1.62,1.62,0,0,0,1.09-.7,1,1,0,0,1,.67-.43c.29-.07.36-.22.32-.52a25.76,25.76,0,0,1,3.82-17.11c.23-.36.33-.62-.11-.87A.54.54,0,0,1,191,121a2.07,2.07,0,0,0-1.06-1.49,24.09,24.09,0,0,0-3.12-2,4.71,4.71,0,0,1-1.77-1.45,2,2,0,0,1,2.48-2.94,6.76,6.76,0,0,1,2.08,1.79,18.87,18.87,0,0,0,2.73,2.56,1.34,1.34,0,0,0,1.14.33c.3-.07.49.11.69.26a.37.37,0,0,0,.57-.06,25.42,25.42,0,0,1,14.84-7.57c.21,0,.41-.08.61-.09.52,0,1-.06,1-.77a.36.36,0,0,1,.09-.24A2,2,0,0,0,211.84,107.72Z"/><path class="cls-6" d="M220.45,143.21a1.72,1.72,0,0,1,2-1.69L231,143c.44.07.87.19,1.31.22s.5.26.34.65a21.32,21.32,0,0,1-2.78,5,21,21,0,0,1-4.85,4.61c-.31.21-.46.23-.62-.17-1.2-3-2.43-5.88-3.64-8.82A3,3,0,0,1,220.45,143.21Z"/><path class="cls-6" d="M210.79,116.3c-.17,2.73-.33,5.4-.49,8.08a13.34,13.34,0,0,1-.13,1.89,1.7,1.7,0,0,1-2.65,1.22c-1-.58-1.85-1.28-2.78-1.93-1.8-1.27-3.59-2.55-5.4-3.81-.36-.26-.45-.4-.07-.75a20.61,20.61,0,0,1,11.08-5.27C210.93,115.64,210.76,116.06,210.79,116.3Z"/><path class="cls-6" d="M192.65,136.15a21.25,21.25,0,0,1,2.77-10.34c.19-.32.32-.37.61-.11,1.84,1.66,3.7,3.29,5.54,5a16.27,16.27,0,0,1,2.06,1.92,1.68,1.68,0,0,1-.75,2.78c-1.09.39-2.22.68-3.34,1l-6.21,1.8c-.55.15-.58.13-.6-.44S192.67,136.56,192.65,136.15Z"/><path class="cls-6" d="M234.1,136.39c0,.45-.1.91-.09,1.37s-.13.5-.52.39c-1.92-.57-3.84-1.12-5.76-1.67l-3.35-1a5.59,5.59,0,0,1-.72-.26,1.69,1.69,0,0,1-.56-2.74c.88-1,1.91-1.76,2.87-2.64,1.52-1.39,3.08-2.75,4.61-4.14.3-.28.45-.31.67.08a20.76,20.76,0,0,1,2.76,9.4A11.49,11.49,0,0,1,234.1,136.39Z"/><path class="cls-6" d="M213.33,157a22.53,22.53,0,0,1-6.1-1c-.39-.12-.39-.27-.22-.57,1.6-2.89,3.19-5.78,4.81-8.66.76-1.35,2.33-1.3,3.16.09.58.95,1.09,1.93,1.63,2.9,1,1.87,2.06,3.75,3.11,5.61.24.41.14.56-.28.67a19.88,19.88,0,0,1-5.14.85C214,156.88,213.65,156.93,213.33,157Z"/><path class="cls-6" d="M204.3,141.57c1.43,0,2.22,1,1.87,2.22a39.58,39.58,0,0,1-1.57,4c-.72,1.8-1.48,3.57-2.21,5.36-.16.41-.31.47-.69.21a20.63,20.63,0,0,1-7.54-9.44c-.23-.57-.22-.57.38-.67l9.34-1.59A3.35,3.35,0,0,1,204.3,141.57Z"/><path class="cls-6" d="M215.94,116.44c0-.75,0-.77.61-.68a20.81,20.81,0,0,1,10.13,4.62c.27.22.49.48.77.68s.25.41,0,.62c-1.46,1-2.9,2-4.35,3.08-1.19.84-2.36,1.69-3.56,2.51a1.82,1.82,0,0,1-2.65-.23,2.79,2.79,0,0,1-.39-1.62c-.12-2.14-.19-4.29-.35-6.44A16.47,16.47,0,0,0,215.94,116.44Z"/><polygon class="cls-6" points="212.08 133.42 210.47 135.44 211.04 137.97 213.37 139.09 215.71 137.97 216.28 135.44 214.67 133.42 212.08 133.42"/><path class="cls-7" d="M208.13,177.07c-6,0-12,0-18,0a7.08,7.08,0,0,1-6-2.93c-3.13-4-6.32-7.89-9.49-11.84l-9.83-12.23c-1-1.27-2-2.58-3.08-3.83a6.6,6.6,0,0,1-1.42-6.13q3.53-15.21,7-30.45c.39-1.69.76-3.4,1.18-5.09a6.06,6.06,0,0,1,3.4-4.19q8.16-3.93,16.33-7.82l16.84-8.06a6.71,6.71,0,0,1,6.12,0q14.63,7,29.28,14c1.08.52,2.15,1.06,3.25,1.54a7,7,0,0,1,4.23,5.34c1.72,7.68,3.51,15.35,5.28,23,.9,3.93,1.79,7.86,2.72,11.78a7,7,0,0,1-1.71,6.4c-3.35,4.08-6.63,8.23-9.94,12.34q-5.14,6.42-10.31,12.82l-2.25,2.8a6.32,6.32,0,0,1-5.12,2.49C220.52,177.08,214.32,177.07,208.13,177.07Z"/><path class="cls-7" d="M206.68,103.6a33.51,33.51,0,0,0-.47-4.35,2.93,2.93,0,0,1,.54-2.61,1.92,1.92,0,0,1,3.29.59,4.53,4.53,0,0,1,.07,2.63,22.74,22.74,0,0,0-.37,4.13,1.3,1.3,0,0,0,.2.78,2.06,2.06,0,0,1,.55,1.18c0,.25.29.25.49.27a25.87,25.87,0,0,1,12.89,5.14,29.92,29.92,0,0,1,2.82,2.46c.26.25.45.32.73.07a.68.68,0,0,1,.55-.25,2.43,2.43,0,0,0,2.05-1,32.84,32.84,0,0,0,2.34-2.38,4.33,4.33,0,0,1,1.87-1.4,2,2,0,0,1,2.35.76,2.12,2.12,0,0,1-.25,2.48,6.8,6.8,0,0,1-1.89,1.39,22.23,22.23,0,0,0-3.18,2.07,1.49,1.49,0,0,0-.68,1.15c0,.29-.22.46-.41.62a.44.44,0,0,0-.09.69,25.5,25.5,0,0,1,3.73,9.42,26.56,26.56,0,0,1,.25,7.76c0,.32.05.48.35.54a.54.54,0,0,1,.41.2c.63,1,1.7,1,2.67,1.15,1.3.24,2.63.15,3.92.42a2.63,2.63,0,0,1,1.41.68,1.9,1.9,0,0,1,.56,2.1,2.14,2.14,0,0,1-1.86,1.32,5.06,5.06,0,0,1-2.14-.47,24.26,24.26,0,0,0-3.88-1.31,1.78,1.78,0,0,0-1.44.15.53.53,0,0,1-.48.1c-.48-.14-.65.11-.79.52a25.79,25.79,0,0,1-7.13,10.8,22.52,22.52,0,0,1-3.64,2.74c-.37.22-.56.44-.33.86a.59.59,0,0,1,.05.45,2.11,2.11,0,0,0,.27,1.76,28.34,28.34,0,0,0,2,3.27,4.75,4.75,0,0,1,.88,1.77,2.06,2.06,0,0,1-1.18,2.45,2.14,2.14,0,0,1-2.53-1,8,8,0,0,1-.8-2,21.6,21.6,0,0,0-1.34-3.6,1.56,1.56,0,0,0-.94-.89.62.62,0,0,1-.44-.39c-.15-.41-.4-.41-.77-.27a24.41,24.41,0,0,1-6.75,1.42,25.69,25.69,0,0,1-10.39-1.37,3,3,0,0,1-.39-.14.38.38,0,0,0-.58.21,1,1,0,0,1-.7.61,1.22,1.22,0,0,0-.68.66,21.09,21.09,0,0,0-1.45,3.83,5.55,5.55,0,0,1-1.08,2.3,2,2,0,0,1-2.51.48,2.13,2.13,0,0,1-.85-2.53,6.29,6.29,0,0,1,.92-1.71,22.74,22.74,0,0,0,2.12-3.51,1.52,1.52,0,0,0,.14-1.23.84.84,0,0,1,0-.74c.23-.38,0-.56-.27-.76a25.7,25.7,0,0,1-5.15-4.21,25.34,25.34,0,0,1-5.65-9.19c-.17-.46-.32-.79-.89-.58a.45.45,0,0,1-.39-.07,2.06,2.06,0,0,0-1.78-.14,28.84,28.84,0,0,0-3.53,1.22,4.58,4.58,0,0,1-2.39.47,1.95,1.95,0,0,1-.92-3.56,4.23,4.23,0,0,1,2.34-.66,25.3,25.3,0,0,0,4.16-.52,1.6,1.6,0,0,0,1.09-.7,1,1,0,0,1,.68-.42c.28-.07.35-.23.32-.53a25.71,25.71,0,0,1,3.81-17.11c.23-.35.33-.61-.1-.87a.52.52,0,0,1-.26-.42,2,2,0,0,0-1.06-1.5,27.18,27.18,0,0,0-3.11-2,4.71,4.71,0,0,1-1.78-1.44,2.07,2.07,0,0,1,.09-2.49,2,2,0,0,1,2.39-.45,6.4,6.4,0,0,1,2.08,1.79,20,20,0,0,0,2.73,2.56,1.37,1.37,0,0,0,1.15.32c.3-.07.48.11.69.26a.36.36,0,0,0,.56-.06,25.47,25.47,0,0,1,14.85-7.57,4.11,4.11,0,0,1,.6-.08c.53,0,1-.07,1-.78a.42.42,0,0,1,.09-.24A2,2,0,0,0,206.68,103.6Z"/><path class="cls-7" d="M215.29,139.08a1.72,1.72,0,0,1,2-1.68c2.87.46,5.73.95,8.59,1.42a11.94,11.94,0,0,0,1.31.22c.54,0,.5.27.34.66a20.67,20.67,0,0,1-7.63,9.55c-.31.21-.45.24-.62-.17q-1.8-4.41-3.64-8.82A3,3,0,0,1,215.29,139.08Z"/><path class="cls-7" d="M205.63,112.18c-.17,2.72-.33,5.4-.49,8.07a13.33,13.33,0,0,1-.12,1.89,1.7,1.7,0,0,1-2.65,1.22c-1-.58-1.86-1.27-2.78-1.92-1.81-1.28-3.6-2.56-5.41-3.82-.36-.25-.45-.4-.07-.74a20.55,20.55,0,0,1,11.08-5.28C205.77,111.51,205.6,111.94,205.63,112.18Z"/><path class="cls-7" d="M187.49,132a21.15,21.15,0,0,1,2.78-10.34c.18-.32.31-.37.6-.11,1.84,1.66,3.71,3.3,5.54,5a17,17,0,0,1,2.06,1.92,1.68,1.68,0,0,1-.75,2.78c-1.09.4-2.22.68-3.34,1l-6.2,1.8c-.56.16-.58.13-.61-.43S187.51,132.44,187.49,132Z"/><path class="cls-7" d="M229,132.26c0,.46-.1.92-.1,1.38s-.12.5-.52.38c-1.92-.57-3.84-1.11-5.76-1.66l-3.35-1a4.77,4.77,0,0,1-.72-.26,1.69,1.69,0,0,1-.56-2.74c.88-1,1.91-1.76,2.87-2.63,1.52-1.4,3.08-2.76,4.61-4.15.31-.28.45-.31.67.08a20.8,20.8,0,0,1,2.76,9.4C228.86,131.47,229,131.86,229,132.26Z"/><path class="cls-7" d="M208.17,152.83a23,23,0,0,1-6.1-1c-.39-.13-.39-.28-.22-.58,1.61-2.88,3.19-5.78,4.81-8.65a1.74,1.74,0,0,1,3.17.08c.57.95,1.09,1.94,1.62,2.91,1,1.87,2.06,3.74,3.12,5.6.23.41.13.56-.29.68a20.32,20.32,0,0,1-5.14.85C208.82,152.75,208.5,152.8,208.17,152.83Z"/><path class="cls-7" d="M199.14,137.44c1.43,0,2.22,1,1.87,2.23a39.09,39.09,0,0,1-1.57,4c-.71,1.79-1.48,3.56-2.2,5.35-.17.42-.32.47-.7.21a20.72,20.72,0,0,1-7.54-9.43c-.22-.57-.21-.57.38-.67l9.34-1.6C198.91,137.45,199.1,137.45,199.14,137.44Z"/><path class="cls-7" d="M210.78,112.32c0-.76,0-.78.61-.69a20.93,20.93,0,0,1,10.14,4.62c.26.22.49.48.76.69s.26.4,0,.61c-1.46,1-2.9,2-4.35,3.08-1.18.84-2.36,1.7-3.56,2.52a1.8,1.8,0,0,1-2.64-.24,2.71,2.71,0,0,1-.4-1.61c-.12-2.15-.19-4.3-.35-6.44A16.29,16.29,0,0,0,210.78,112.32Z"/><polygon class="cls-7" points="206.92 129.29 205.31 131.32 205.88 133.84 208.22 134.96 210.55 133.84 211.13 131.32 209.51 129.29 206.92 129.29"/><path class="cls-6" d="M372.29,306.19c-6,0-12,0-18,0a7.13,7.13,0,0,1-6-2.93c-3.13-4-6.32-7.9-9.49-11.84l-9.83-12.23c-1-1.28-2-2.58-3.08-3.83a6.58,6.58,0,0,1-1.42-6.13q3.52-15.22,7-30.45c.4-1.7.77-3.4,1.18-5.09a6.13,6.13,0,0,1,3.41-4.2q8.16-3.93,16.33-7.81l16.84-8.06a6.71,6.71,0,0,1,6.12,0q14.63,7,29.28,14c1.08.52,2.15,1.06,3.25,1.53a7,7,0,0,1,4.23,5.34c1.72,7.69,3.51,15.35,5.28,23,.9,3.92,1.79,7.85,2.72,11.78a7,7,0,0,1-1.71,6.4c-3.36,4.08-6.63,8.22-9.94,12.34L398.24,300.9,396,303.7a6.32,6.32,0,0,1-5.12,2.48C384.68,306.21,378.48,306.19,372.29,306.19Z"/><path class="cls-6" d="M370.84,232.72a35.18,35.18,0,0,0-.47-4.34,2.93,2.93,0,0,1,.54-2.61,1.92,1.92,0,0,1,3.29.59,4.5,4.5,0,0,1,.07,2.62,21.22,21.22,0,0,0-.37,4.13,1.3,1.3,0,0,0,.2.78,2.09,2.09,0,0,1,.55,1.18c0,.26.29.26.49.28A25.87,25.87,0,0,1,388,240.49a29.92,29.92,0,0,1,2.82,2.46c.25.25.45.32.73.06a.71.71,0,0,1,.54-.25,2.41,2.41,0,0,0,2.06-1,30.8,30.8,0,0,0,2.33-2.38,4.51,4.51,0,0,1,1.87-1.39,2,2,0,0,1,2.36.76,2.14,2.14,0,0,1-.25,2.48,6.8,6.8,0,0,1-1.89,1.39,22.23,22.23,0,0,0-3.18,2.07,1.43,1.43,0,0,0-.68,1.14.85.85,0,0,1-.41.62.44.44,0,0,0-.09.69,25.78,25.78,0,0,1,3.73,9.43,26.5,26.5,0,0,1,.25,7.75c0,.33,0,.48.35.54a.6.6,0,0,1,.41.2c.63,1,1.7,1,2.67,1.15,1.29.25,2.63.16,3.92.43a2.56,2.56,0,0,1,1.41.68,1.91,1.91,0,0,1,.56,2.1,2.13,2.13,0,0,1-1.87,1.31,4.89,4.89,0,0,1-2.13-.46,23.35,23.35,0,0,0-3.88-1.32,1.77,1.77,0,0,0-1.44.16.58.58,0,0,1-.49.09c-.48-.14-.64.12-.78.53a25.92,25.92,0,0,1-7.13,10.8,23.2,23.2,0,0,1-3.65,2.74c-.36.22-.55.44-.32.85a.59.59,0,0,1,0,.45,2.13,2.13,0,0,0,.27,1.77,28.66,28.66,0,0,0,2,3.26,5.05,5.05,0,0,1,.89,1.78,2.07,2.07,0,0,1-1.19,2.45,2.13,2.13,0,0,1-2.52-1,7.68,7.68,0,0,1-.8-2,22.27,22.27,0,0,0-1.34-3.6,1.54,1.54,0,0,0-.94-.88.64.64,0,0,1-.45-.39c-.14-.41-.39-.41-.76-.27a24,24,0,0,1-6.75,1.41A25.64,25.64,0,0,1,364,285.82c-.13-.05-.27-.08-.39-.14s-.47-.08-.58.21a1,1,0,0,1-.7.61,1.24,1.24,0,0,0-.69.66,21.82,21.82,0,0,0-1.44,3.83,5.4,5.4,0,0,1-1.09,2.29,2,2,0,0,1-2.51.49,2.13,2.13,0,0,1-.84-2.53,6.29,6.29,0,0,1,.92-1.71,23.55,23.55,0,0,0,2.12-3.51,1.48,1.48,0,0,0,.13-1.23.8.8,0,0,1,.05-.74c.23-.38.05-.56-.27-.76a26.11,26.11,0,0,1-5.16-4.21,25.4,25.4,0,0,1-5.64-9.19c-.17-.47-.33-.79-.89-.58a.42.42,0,0,1-.39-.08,2.06,2.06,0,0,0-1.78-.13,27.92,27.92,0,0,0-3.54,1.22,4.65,4.65,0,0,1-2.38.47,1.95,1.95,0,0,1-.92-3.57,4.29,4.29,0,0,1,2.34-.65,25.3,25.3,0,0,0,4.16-.52,1.62,1.62,0,0,0,1.09-.7,1,1,0,0,1,.67-.43c.29-.07.36-.22.32-.52a25.76,25.76,0,0,1,3.82-17.11c.23-.36.33-.62-.11-.87A.54.54,0,0,1,350,246a2.07,2.07,0,0,0-1.06-1.49,24.09,24.09,0,0,0-3.12-2,4.71,4.71,0,0,1-1.77-1.45,2,2,0,0,1,2.48-2.94,6.76,6.76,0,0,1,2.08,1.79,18.87,18.87,0,0,0,2.73,2.56,1.34,1.34,0,0,0,1.14.33c.3-.07.49.11.69.26a.37.37,0,0,0,.57-.06,25.42,25.42,0,0,1,14.84-7.57c.21,0,.41-.08.61-.09.52,0,1-.06,1-.77a.36.36,0,0,1,.09-.24A2,2,0,0,0,370.84,232.72Z"/><path class="cls-6" d="M379.45,268.21a1.72,1.72,0,0,1,2-1.69L390,268c.44.07.87.19,1.31.22s.5.26.34.65a21.32,21.32,0,0,1-2.78,4.95,21,21,0,0,1-4.85,4.61c-.31.21-.46.23-.62-.17-1.2-2.95-2.43-5.88-3.64-8.82A3,3,0,0,1,379.45,268.21Z"/><path class="cls-6" d="M369.79,241.3c-.17,2.73-.33,5.4-.49,8.08a13.34,13.34,0,0,1-.13,1.89,1.7,1.7,0,0,1-2.65,1.22c-1-.58-1.85-1.28-2.78-1.93-1.8-1.27-3.59-2.55-5.4-3.81-.36-.26-.45-.4-.07-.75a20.61,20.61,0,0,1,11.08-5.27C369.93,240.64,369.76,241.06,369.79,241.3Z"/><path class="cls-6" d="M351.65,261.15a21.25,21.25,0,0,1,2.77-10.34c.19-.32.32-.37.61-.11,1.84,1.66,3.7,3.29,5.54,5a16.27,16.27,0,0,1,2.06,1.92,1.68,1.68,0,0,1-.75,2.78c-1.09.39-2.22.68-3.34,1l-6.21,1.8c-.55.15-.58.13-.6-.44S351.67,261.56,351.65,261.15Z"/><path class="cls-6" d="M393.1,261.39c0,.45-.1.91-.09,1.37s-.13.5-.52.39c-1.92-.57-3.84-1.12-5.76-1.67l-3.35-1a5.59,5.59,0,0,1-.72-.26,1.69,1.69,0,0,1-.56-2.74c.88-1,1.91-1.76,2.87-2.64,1.52-1.39,3.08-2.75,4.61-4.14.3-.28.45-.31.67.08a20.76,20.76,0,0,1,2.76,9.4A11.49,11.49,0,0,1,393.1,261.39Z"/><path class="cls-6" d="M372.33,282a22.53,22.53,0,0,1-6.1-1c-.39-.12-.39-.27-.22-.57,1.6-2.89,3.19-5.78,4.81-8.66.76-1.35,2.33-1.3,3.16.09.58,1,1.09,1.93,1.63,2.9,1,1.87,2.06,3.75,3.11,5.61.24.41.14.56-.28.67a19.88,19.88,0,0,1-5.14.85C373,281.88,372.65,281.93,372.33,282Z"/><path class="cls-6" d="M363.3,266.57c1.43,0,2.22,1,1.87,2.22a39.58,39.58,0,0,1-1.57,3.95c-.72,1.8-1.48,3.57-2.21,5.36-.16.41-.31.47-.69.21a20.63,20.63,0,0,1-7.54-9.44c-.23-.57-.22-.57.38-.67l9.34-1.59A3.35,3.35,0,0,1,363.3,266.57Z"/><path class="cls-6" d="M374.94,241.44c0-.75,0-.77.61-.68a20.81,20.81,0,0,1,10.13,4.62c.27.22.49.48.77.68s.25.41,0,.62c-1.46,1-2.9,2-4.35,3.08-1.19.84-2.36,1.69-3.56,2.51a1.82,1.82,0,0,1-2.65-.23,2.79,2.79,0,0,1-.39-1.62c-.12-2.14-.19-4.29-.35-6.44A16.47,16.47,0,0,0,374.94,241.44Z"/><polygon class="cls-6" points="371.08 258.42 369.47 260.44 370.04 262.97 372.37 264.09 374.71 262.97 375.28 260.44 373.67 258.42 371.08 258.42"/><path class="cls-7" d="M367.13,302.07c-6,0-12,0-18,0a7.08,7.08,0,0,1-6-2.93c-3.13-4-6.32-7.89-9.49-11.84l-9.83-12.23c-1-1.27-2-2.58-3.08-3.83a6.6,6.6,0,0,1-1.42-6.13q3.53-15.21,7-30.45c.39-1.69.76-3.4,1.18-5.09a6.06,6.06,0,0,1,3.4-4.19q8.16-3.93,16.33-7.82l16.84-8.06a6.71,6.71,0,0,1,6.12,0q14.63,7,29.28,14c1.08.52,2.15,1.06,3.25,1.54a7,7,0,0,1,4.23,5.34c1.72,7.68,3.51,15.35,5.28,23,.9,3.93,1.79,7.86,2.72,11.78a7,7,0,0,1-1.71,6.4c-3.35,4.08-6.63,8.23-9.94,12.34q-5.14,6.42-10.31,12.82l-2.25,2.8a6.32,6.32,0,0,1-5.12,2.49C379.52,302.08,373.32,302.07,367.13,302.07Z"/><path class="cls-7" d="M365.68,228.6a33.51,33.51,0,0,0-.47-4.35,2.93,2.93,0,0,1,.54-2.61,1.92,1.92,0,0,1,3.29.59,4.53,4.53,0,0,1,.07,2.63,22.74,22.74,0,0,0-.37,4.13,1.3,1.3,0,0,0,.2.78,2.06,2.06,0,0,1,.55,1.18c0,.25.29.25.49.27a25.87,25.87,0,0,1,12.89,5.14,29.92,29.92,0,0,1,2.82,2.46c.26.25.45.32.73.07a.68.68,0,0,1,.55-.25,2.43,2.43,0,0,0,2-1,32.84,32.84,0,0,0,2.34-2.38,4.33,4.33,0,0,1,1.87-1.4,2,2,0,0,1,2.35.76,2.12,2.12,0,0,1-.25,2.48,6.8,6.8,0,0,1-1.89,1.39,22.23,22.23,0,0,0-3.18,2.07,1.49,1.49,0,0,0-.68,1.15c0,.29-.22.46-.41.62a.44.44,0,0,0-.09.69,25.5,25.5,0,0,1,3.73,9.42,26.56,26.56,0,0,1,.25,7.76c0,.32.05.48.35.54a.54.54,0,0,1,.41.2c.63,1,1.7,1,2.67,1.15,1.3.24,2.63.15,3.92.42a2.63,2.63,0,0,1,1.41.68,1.9,1.9,0,0,1,.56,2.1,2.14,2.14,0,0,1-1.86,1.32,5.06,5.06,0,0,1-2.14-.47,24.26,24.26,0,0,0-3.88-1.31,1.78,1.78,0,0,0-1.44.15.53.53,0,0,1-.48.1c-.48-.14-.65.11-.79.52a25.79,25.79,0,0,1-7.13,10.8,22.52,22.52,0,0,1-3.64,2.74c-.37.22-.56.44-.33.86a.59.59,0,0,1,.05.45,2.11,2.11,0,0,0,.27,1.76,28.34,28.34,0,0,0,2,3.27,4.75,4.75,0,0,1,.88,1.77,2.06,2.06,0,0,1-1.18,2.45,2.14,2.14,0,0,1-2.53-1,8,8,0,0,1-.8-2,21.6,21.6,0,0,0-1.34-3.6,1.56,1.56,0,0,0-.94-.89.62.62,0,0,1-.44-.39c-.15-.41-.4-.41-.77-.27a24.41,24.41,0,0,1-6.75,1.42,25.69,25.69,0,0,1-10.39-1.37,3,3,0,0,1-.39-.14.38.38,0,0,0-.58.21,1,1,0,0,1-.7.61,1.22,1.22,0,0,0-.68.66,21.09,21.09,0,0,0-1.45,3.83,5.55,5.55,0,0,1-1.08,2.3,2,2,0,0,1-2.51.48,2.13,2.13,0,0,1-.85-2.53,6.29,6.29,0,0,1,.92-1.71,22.74,22.74,0,0,0,2.12-3.51,1.52,1.52,0,0,0,.14-1.23.84.84,0,0,1,0-.74c.23-.38.05-.56-.27-.76a25.7,25.7,0,0,1-5.15-4.21,25.34,25.34,0,0,1-5.65-9.19c-.17-.46-.32-.79-.89-.58a.45.45,0,0,1-.39-.07,2.06,2.06,0,0,0-1.78-.14,28.84,28.84,0,0,0-3.53,1.22,4.58,4.58,0,0,1-2.39.47,1.95,1.95,0,0,1-.92-3.56,4.23,4.23,0,0,1,2.34-.66,25.3,25.3,0,0,0,4.16-.52,1.6,1.6,0,0,0,1.09-.7,1,1,0,0,1,.68-.42c.28-.07.35-.23.32-.53a25.71,25.71,0,0,1,3.81-17.11c.23-.35.33-.61-.1-.87a.52.52,0,0,1-.26-.42,2,2,0,0,0-1.06-1.5,27.18,27.18,0,0,0-3.11-2,4.71,4.71,0,0,1-1.78-1.44,2.07,2.07,0,0,1,.09-2.49,2,2,0,0,1,2.39-.45,6.4,6.4,0,0,1,2.08,1.79,20,20,0,0,0,2.73,2.56,1.37,1.37,0,0,0,1.15.32c.3-.07.48.11.69.26a.36.36,0,0,0,.56-.06,25.47,25.47,0,0,1,14.85-7.57,4.11,4.11,0,0,1,.6-.08c.53,0,1-.07,1-.78a.42.42,0,0,1,.09-.24A2,2,0,0,0,365.68,228.6Z"/><path class="cls-7" d="M374.29,264.08a1.72,1.72,0,0,1,2-1.68c2.87.46,5.73,1,8.59,1.42a11.94,11.94,0,0,0,1.31.22c.54,0,.5.27.34.66a20.67,20.67,0,0,1-7.63,9.55c-.31.21-.45.24-.62-.17q-1.8-4.41-3.64-8.82A3,3,0,0,1,374.29,264.08Z"/><path class="cls-7" d="M364.63,237.18c-.17,2.72-.33,5.4-.49,8.07a13.33,13.33,0,0,1-.12,1.89,1.7,1.7,0,0,1-2.65,1.22c-1-.58-1.86-1.27-2.78-1.92-1.81-1.28-3.6-2.56-5.41-3.82-.36-.25-.45-.4-.07-.74a20.55,20.55,0,0,1,11.08-5.28C364.77,236.51,364.6,236.94,364.63,237.18Z"/><path class="cls-7" d="M346.49,257a21.15,21.15,0,0,1,2.78-10.34c.18-.32.31-.37.6-.11,1.84,1.66,3.71,3.3,5.54,5a17,17,0,0,1,2.06,1.92,1.68,1.68,0,0,1-.75,2.78c-1.09.4-2.22.68-3.34,1l-6.2,1.8c-.56.16-.58.13-.61-.43S346.51,257.44,346.49,257Z"/><path class="cls-7" d="M388,257.26c0,.46-.1.92-.1,1.38s-.12.5-.52.38c-1.92-.57-3.84-1.11-5.76-1.66l-3.35-1a4.77,4.77,0,0,1-.72-.26,1.69,1.69,0,0,1-.56-2.74c.88-1,1.91-1.76,2.87-2.63,1.52-1.4,3.08-2.76,4.61-4.15.31-.28.45-.31.67.08a20.8,20.8,0,0,1,2.76,9.4C387.86,256.47,388,256.86,388,257.26Z"/><path class="cls-7" d="M367.17,277.83a23,23,0,0,1-6.1-1c-.39-.13-.39-.28-.22-.58,1.61-2.88,3.19-5.78,4.81-8.65a1.74,1.74,0,0,1,3.17.08c.57,1,1.09,1.94,1.62,2.91,1,1.87,2.06,3.74,3.12,5.6.23.41.13.56-.29.68a20.32,20.32,0,0,1-5.14.85C367.82,277.75,367.5,277.8,367.17,277.83Z"/><path class="cls-7" d="M358.14,262.44c1.43,0,2.22,1,1.87,2.23a39.09,39.09,0,0,1-1.57,3.95c-.71,1.79-1.48,3.56-2.2,5.35-.17.42-.32.47-.7.21a20.72,20.72,0,0,1-7.54-9.43c-.22-.57-.21-.57.38-.67l9.34-1.6C357.91,262.45,358.1,262.45,358.14,262.44Z"/><path class="cls-7" d="M369.78,237.32c0-.76,0-.78.61-.69a20.93,20.93,0,0,1,10.14,4.62c.26.22.49.48.76.69s.26.4,0,.61c-1.46,1-2.9,2-4.35,3.08-1.18.84-2.36,1.7-3.56,2.52a1.8,1.8,0,0,1-2.64-.24,2.71,2.71,0,0,1-.4-1.61c-.12-2.15-.19-4.3-.35-6.44A16.29,16.29,0,0,0,369.78,237.32Z"/><polygon class="cls-7" points="365.92 254.29 364.31 256.32 364.88 258.84 367.22 259.96 369.55 258.84 370.13 256.32 368.51 254.29 365.92 254.29"/><path class="cls-8" d="M137.74,25.68a90.26,90.26,0,0,1,125.31,2.26"/><polygon class="cls-6" points="153.41 28.41 153.49 25.41 138.7 25.03 140.16 10.3 137.17 10.01 135.4 27.94 153.41 28.41"/><line class="cls-9" x1="312.83" y1="372.88" x2="312.83" y2="372.88"/><path class="cls-10" d="M318.85,378.38a90.29,90.29,0,0,0,116.26-.53"/><line class="cls-9" x1="438.15" y1="375.14" x2="438.15" y2="375.14"/><polygon class="cls-6" points="438.72 390.81 435.73 390.52 437.19 375.8 422.4 375.42 422.48 372.41 440.49 372.88 438.72 390.81"/><ellipse class="cls-11" cx="122.39" cy="512.21" rx="66.05" ry="13.71"/><path class="cls-12" d="M1,353.24S66.09,404,97.46,407.44l-20.13,29.5S12.11,398.78,1,353.24Z"/><path class="cls-6" d="M88.48,420.6S22.87,387.69,1.3,353.54c0,0,68.31,54.83,96.17,53.93Z"/><path class="cls-13" d="M160.49,494.22c8.09-13.21,16.87-28.83,15.66-53.9-1-21.82-22.51-56.12-22.51-56.12L126.73,247.78,100.32,242,87.43,414l11.18,3s-50.3-12.78-50.32-12.82l-6.41,13.32c2,3,16.22,53.64,45.07,55.78,18,1.33,28.69-4.31,39.48-19.34a114.19,114.19,0,0,0,8.23-13.35l4.25-8.94c-1.31,3.05-2.73,6-4.25,8.94l-2.16,4.53,16.13,47.48Z"/><path class="cls-5" d="M26.24,401.86a28.48,28.48,0,0,0-3.36,3.64l0,0A26.37,26.37,0,0,0,20.79,408c-3.53,4.77-4.91,9.74-3.07,11.1a1.88,1.88,0,0,0,.89.33c1.68.19,4.3-1.41,6.84-4.13.28-.43.59-.87.91-1.31a27.33,27.33,0,0,1,2-2.4c-.29.44-.6.88-.92,1.33a26.91,26.91,0,0,1-2,2.38c-2.45,3.75-3.52,7.39-2.7,9.12a1.81,1.81,0,0,0,.54.68,2.63,2.63,0,0,0,2.46.09A14.64,14.64,0,0,0,31,421.32c.29-.44.6-.88.92-1.32a24.23,24.23,0,0,1,2-2.39c-.28.43-.59.87-.91,1.31a27.33,27.33,0,0,1-2,2.4,24,24,0,0,0-2,3.76c-1.17,2.82-1.3,5.15-.13,6,1.83,1.37,6.18-1.41,9.71-6.18,1.76-2.38,4.72-7.45,4.72-7.45,2.22-3.63,5.16-7.43,6-13.4a9,9,0,0,0-1.76-6.29C43.27,393.14,33.75,395,26.24,401.86Z"/><path class="cls-5" d="M154.7,513a28.75,28.75,0,0,0,4.05,2.86h0a25.55,25.55,0,0,0,2.73,1.73c5.19,2.89,10.3,3.61,11.4,1.61a1.76,1.76,0,0,0,.21-.92c0-1.69-2-4.09-5-6.25-.47-.23-.95-.48-1.42-.73a28.54,28.54,0,0,1-2.64-1.67c.47.22.95.47,1.43.73a27.6,27.6,0,0,1,2.63,1.67c4,1.94,7.78,2.53,9.39,1.49a1.65,1.65,0,0,0,.6-.63,2.6,2.6,0,0,0-.23-2.44,14.51,14.51,0,0,0-4.52-4.72c-.47-.22-.95-.47-1.43-.74a25.71,25.71,0,0,1-2.63-1.66c.47.22,1,.47,1.42.73a26.57,26.57,0,0,1,2.64,1.67,23.21,23.21,0,0,0,4,1.51c2.94.79,5.28.62,6-.65,1.11-2-2.2-5.95-7.39-8.83-2.59-1.44-8-3.71-8-3.71-3.89-1.74-8-4.16-14.06-4.17a9,9,0,0,0-6,2.55C143.85,497.28,146.9,506.49,154.7,513Z"/><polygon class="cls-14" points="138.81 431.73 148.7 492.85 132.52 445.21 138.81 431.73"/><polygon class="cls-15" points="98.37 417.35 104.66 246.59 99.98 246.59 87.58 413.76 98.37 417.35"/><path class="cls-12" d="M98.65,252a20.54,20.54,0,0,0,8.47,2.33l.9,0a23.13,23.13,0,0,0,12.6-2.6,30.39,30.39,0,0,0,8.26-5.95c10.53-10.41,15-17.35,12.58-25.44-1.16-3.84-3.29-6.58-5.61-7.39-11.83-4.11-20.61-7.75-30.4-5.49h0c-2.6.61-6.76,3.11-9,4.46-.09.06-.19.12-.29.2a21.46,21.46,0,0,0-4.9,5.91A30.89,30.89,0,0,0,88,237.52,20.06,20.06,0,0,0,98.65,252Z"/><path class="cls-16" d="M90.88,219.89c.07-.14.15-.27.22-.39,1.73-2.84,4.87-8.05,7.39-10.26-1.77-1.24-3.6-1.69-5.15-1.07C90.23,209.41,89.27,214.45,90.88,219.89Z"/><path class="cls-17" d="M111.2,260.36c2.41-.46,4.1-3.14,4.6-6.78-.36.1-.73.19-1.09.27a25.87,25.87,0,0,1-11,.27C105.46,258.27,108.41,260.88,111.2,260.36Z"/><circle class="cls-16" cx="114.71" cy="215.28" r="1.92"/><ellipse class="cls-16" cx="136.26" cy="219.32" rx="4.45" ry="5.93" transform="translate(-57.23 48.35) rotate(-16.68)"/><circle class="cls-16" cx="116.21" cy="228.1" r="1.92"/></g></g></svg>