<svg xmlns="http://www.w3.org/2000/svg" xmlns:xlink="http://www.w3.org/1999/xlink" viewBox="0 0 534.21 440.13"><defs><style>.cls-1,.cls-12,.cls-2{fill:none;}.cls-10,.cls-11,.cls-12,.cls-13,.cls-2,.cls-6,.cls-7,.cls-8,.cls-9{stroke:#3f3a37;}.cls-12,.cls-13,.cls-2,.cls-6{stroke-linecap:round;}.cls-10,.cls-12,.cls-13,.cls-2,.cls-6,.cls-8{stroke-linejoin:round;}.cls-11,.cls-13,.cls-2,.cls-6,.cls-7,.cls-8{stroke-width:2px;}.cls-12,.cls-2{stroke-dasharray:0 8;}.cls-3,.cls-7{fill:#2dfefe;}.cls-3{opacity:0.3;}.cls-4{opacity:0.5;fill:url(#small_dots);}.cls-10,.cls-5,.cls-9{fill:#3f3a37;}.cls-11,.cls-6,.cls-8{fill:#fff;}.cls-11,.cls-7,.cls-9{stroke-miterlimit:10;}.cls-12{stroke-width:3px;}.cls-13{fill:#86fed4;}</style><pattern id="small_dots" data-name="small dots" width="8" height="8" patternTransform="translate(-86.89 398.88) scale(1.01)" patternUnits="userSpaceOnUse" viewBox="0 0 8 8"><rect class="cls-1" width="8" height="8"/><circle class="cls-2" cx="4" cy="4" r="1"/></pattern></defs><title>Asset 18</title><g id="Layer_2" data-name="Layer 2"><g id="Layer_1-2" data-name="Layer 1"><polygon class="cls-3" points="31.52 327.19 176.8 428.18 534.21 224.01 257.01 144.98 31.52 327.19"/><polygon class="cls-4" points="18.37 299.89 163.65 400.87 521.06 196.7 243.87 117.67 18.37 299.89"/><path class="cls-5" d="M255.5,245.74c-5.87,0-11.74,0-17.61,0a6.94,6.94,0,0,1-5.84-2.87c-3.07-3.89-6.2-7.74-9.31-11.6l-9.63-12c-1-1.26-2-2.54-3-3.76a6.5,6.5,0,0,1-1.39-6q3.47-14.93,6.88-29.86c.38-1.66.75-3.33,1.16-5a6,6,0,0,1,3.34-4.11c5.33-2.57,10.67-5.11,16-7.66L252.59,155a6.56,6.56,0,0,1,6,0q14.35,6.88,28.72,13.73c1.06.51,2.11,1,3.18,1.51a6.87,6.87,0,0,1,4.15,5.23c1.69,7.54,3.44,15.05,5.17,22.57.89,3.86,1.76,7.71,2.67,11.55a6.87,6.87,0,0,1-1.67,6.28c-3.29,4-6.5,8.06-9.75,12.1l-10.11,12.57-2.2,2.75a6.2,6.2,0,0,1-5,2.43C267.64,245.75,261.57,245.74,255.5,245.74Z"/><path class="cls-5" d="M254.08,173.71a31.86,31.86,0,0,0-.47-4.26,2.88,2.88,0,0,1,.54-2.56,1.88,1.88,0,0,1,3.23.58,4.59,4.59,0,0,1,.07,2.57,20.35,20.35,0,0,0-.37,4.05,1.18,1.18,0,0,0,.2.76,2,2,0,0,1,.53,1.16c0,.25.28.25.48.27a25.38,25.38,0,0,1,12.64,5,28.8,28.8,0,0,1,2.77,2.41c.25.24.44.31.72.07a.64.64,0,0,1,.53-.25,2.36,2.36,0,0,0,2-.94,31.43,31.43,0,0,0,2.29-2.33,4.31,4.31,0,0,1,1.84-1.37,2,2,0,0,1,2.31.74,2.12,2.12,0,0,1-.25,2.44,6.75,6.75,0,0,1-1.86,1.36,21.84,21.84,0,0,0-3.11,2,1.44,1.44,0,0,0-.67,1.12c0,.29-.21.45-.4.61a.43.43,0,0,0-.09.68,25,25,0,0,1,3.66,9.24,25.82,25.82,0,0,1,.24,7.6c0,.32.05.47.35.53a.58.58,0,0,1,.4.19c.61,1,1.66,1,2.62,1.13,1.27.24,2.57.15,3.84.42a2.58,2.58,0,0,1,1.38.66,1.87,1.87,0,0,1,.55,2.06,2.09,2.09,0,0,1-1.83,1.29,4.72,4.72,0,0,1-2.09-.46,23.05,23.05,0,0,0-3.81-1.28,1.72,1.72,0,0,0-1.4.15.56.56,0,0,1-.48.09c-.47-.13-.63.11-.77.52a25.46,25.46,0,0,1-7,10.59,21.76,21.76,0,0,1-3.57,2.68c-.35.22-.54.43-.32.84a.53.53,0,0,1,0,.44,2.07,2.07,0,0,0,.27,1.73,27.6,27.6,0,0,0,2,3.2,4.72,4.72,0,0,1,.87,1.75,2,2,0,0,1-1.16,2.4,2.1,2.1,0,0,1-2.47-.95,7.53,7.53,0,0,1-.79-2,22,22,0,0,0-1.31-3.53,1.54,1.54,0,0,0-.93-.87.59.59,0,0,1-.43-.38c-.15-.4-.39-.4-.75-.27a23.48,23.48,0,0,1-6.62,1.39,25,25,0,0,1-10.19-1.34l-.38-.13c-.26-.12-.45-.08-.57.2a1,1,0,0,1-.68.6,1.21,1.21,0,0,0-.68.65,21,21,0,0,0-1.41,3.76,5.29,5.29,0,0,1-1.07,2.24,2,2,0,0,1-2.46.48,2.1,2.1,0,0,1-.83-2.48,6.33,6.33,0,0,1,.9-1.68,21.86,21.86,0,0,0,2.08-3.44,1.47,1.47,0,0,0,.14-1.21.79.79,0,0,1,0-.72c.22-.38,0-.55-.27-.75a25.93,25.93,0,0,1-5-4.12,25,25,0,0,1-5.54-9c-.16-.45-.31-.77-.87-.56a.41.41,0,0,1-.38-.08,2,2,0,0,0-1.74-.13,26.34,26.34,0,0,0-3.47,1.2,4.6,4.6,0,0,1-2.34.46,1.91,1.91,0,0,1-.9-3.5,4.24,4.24,0,0,1,2.29-.64,24.21,24.21,0,0,0,4.08-.51,1.61,1.61,0,0,0,1.08-.68,1,1,0,0,1,.65-.42c.28-.07.35-.22.32-.52A25.2,25.2,0,0,1,234,188c.22-.35.32-.61-.1-.85a.52.52,0,0,1-.25-.42,2,2,0,0,0-1-1.47,24.24,24.24,0,0,0-3.06-1.93,4.69,4.69,0,0,1-1.74-1.42,1.93,1.93,0,0,1,2.43-2.88,6.54,6.54,0,0,1,2,1.76,18.67,18.67,0,0,0,2.67,2.51,1.31,1.31,0,0,0,1.12.31.81.81,0,0,1,.68.26.35.35,0,0,0,.55-.06,24.93,24.93,0,0,1,14.56-7.42c.2,0,.39-.08.59-.09.52,0,1-.06,1-.76a.41.41,0,0,1,.09-.23A1.91,1.91,0,0,0,254.08,173.71Z"/><path class="cls-5" d="M262.52,208.5a1.69,1.69,0,0,1,1.92-1.65c2.81.45,5.62.93,8.42,1.39a11.59,11.59,0,0,0,1.29.22c.53,0,.49.26.33.64a20.88,20.88,0,0,1-2.72,4.86,20.4,20.4,0,0,1-4.76,4.51c-.31.21-.45.23-.61-.17-1.17-2.89-2.38-5.76-3.57-8.64A3.11,3.11,0,0,1,262.52,208.5Z"/><path class="cls-5" d="M253.05,182.12c-.17,2.67-.33,5.29-.48,7.92a14.48,14.48,0,0,1-.12,1.85,1.68,1.68,0,0,1-2.6,1.2c-.95-.57-1.82-1.25-2.73-1.89-1.76-1.25-3.52-2.51-5.3-3.74-.35-.25-.44-.39-.07-.73a20.13,20.13,0,0,1,10.87-5.17C253.19,181.47,253,181.88,253.05,182.12Z"/><path class="cls-5" d="M235.26,201.57A20.9,20.9,0,0,1,238,191.44c.18-.32.32-.37.6-.11,1.81,1.63,3.63,3.23,5.43,4.86a17.19,17.19,0,0,1,2,1.89,1.64,1.64,0,0,1-.74,2.72c-1.07.39-2.18.67-3.27,1l-6.08,1.76c-.55.16-.57.13-.6-.42S235.29,202,235.26,201.57Z"/><path class="cls-5" d="M275.91,201.81c0,.45-.1.9-.1,1.35s-.12.49-.5.37l-5.65-1.63-3.29-1a4.19,4.19,0,0,1-.7-.26,1.65,1.65,0,0,1-.55-2.68c.86-.94,1.87-1.73,2.81-2.59,1.49-1.37,3-2.7,4.52-4.06.3-.27.44-.31.66.08a20.25,20.25,0,0,1,2.7,9.22A10.92,10.92,0,0,1,275.91,201.81Z"/><path class="cls-5" d="M255.54,222a22.09,22.09,0,0,1-6-.95c-.38-.12-.38-.26-.22-.56,1.58-2.83,3.13-5.67,4.72-8.49a1.7,1.7,0,0,1,3.1.08c.57.94,1.07,1.9,1.6,2.86,1,1.83,2,3.67,3.05,5.49.23.41.13.55-.28.66a19.55,19.55,0,0,1-5,.84C256.18,221.9,255.86,222,255.54,222Z"/><path class="cls-5" d="M246.68,206.89c1.41,0,2.18,1,1.84,2.18a39,39,0,0,1-1.54,3.87c-.7,1.76-1.45,3.5-2.16,5.26-.17.4-.31.46-.68.2a20.22,20.22,0,0,1-7.39-9.25c-.23-.56-.22-.56.37-.66l9.16-1.56A3.15,3.15,0,0,1,246.68,206.89Z"/><path class="cls-5" d="M258.1,182.26c0-.74,0-.77.6-.67a20.32,20.32,0,0,1,9.93,4.53c.26.21.48.47.75.67s.25.39,0,.6l-4.26,3c-1.16.82-2.31,1.66-3.49,2.46a1.77,1.77,0,0,1-2.59-.23,2.66,2.66,0,0,1-.39-1.58c-.12-2.1-.19-4.21-.35-6.31A15.79,15.79,0,0,0,258.1,182.26Z"/><polygon class="cls-5" points="254.31 198.9 252.73 200.88 253.3 203.36 255.58 204.46 257.87 203.36 258.44 200.88 256.85 198.9 254.31 198.9"/><path class="cls-5" d="M100.6,161.16c2,2.24-.63,8-5.93,13l.76.54c5.59-4.85,11.63-6.93,13.68-4.66s-.71,8.11-6.16,13.18a8.71,8.71,0,0,1,.42.79h0c5.75-5.16,12.11-7.45,14.21-5.11s-.85,8.42-6.59,13.58c-3.51,3.16-7.25,5.24-10.11,5.84-4.36,1.51-11-1.13-16-6.77-3.94-4.37-6-9.45-5.74-13.47a.48.48,0,0,1,0-.17c0-2.93,2.74-7.55,7.26-11.6C92.13,161.11,98.49,158.81,100.6,161.16Z"/><path class="cls-5" d="M291.09,238.3c1.94-2.31,8-.49,13.67,4.06.13-.27.28-.55.42-.82-5.58-4.86-8.49-10.56-6.53-12.9s8.14-.43,13.92,4.26c.24-.19.48-.37.72-.53l0,0c-5.91-5-9.06-10.94-7-13.35s8.46-.34,14.37,4.63c3.61,3,6.2,6.45,7.19,9.19,2.11,4.11.41,11-4.46,16.82-3.78,4.51-8.53,7.22-12.53,7.57a.58.58,0,0,1-.18,0c-2.89.45-7.85-1.66-12.49-5.57C292.22,246.69,289.06,240.72,291.09,238.3Z"/><path class="cls-6" d="M234.51,436.38,234,391.86a4,4,0,0,0-3.41-3.94,3.8,3.8,0,0,0-.69-.05l-24.23.3a1.27,1.27,0,0,0,.34.05l-6.82.09a8.65,8.65,0,0,1-8.73-8.51l-.67-54.39c0-1.71,3.2-3.14,7.19-3.18s7.25,1.3,7.27,3v0l.56,44.51a4,4,0,0,0,3.41,3.95,3.75,3.75,0,0,0,.68.05l24.24-.3a2,2,0,0,0-.4-.06l6.88-.08a8.64,8.64,0,0,1,8.72,8.5l.68,54.4c0-1.72-3.28-3.07-7.27-3S234.54,434.69,234.51,436.38Z"/><ellipse class="cls-7" cx="241.5" cy="436.02" rx="7.23" ry="3.1" transform="translate(-11.28 6.44) rotate(-1.49)"/><path class="cls-5" d="M223,336.25c3-.48,6.34,4.84,7.68,12l.87-.35c-1.05-7.32.47-13.53,3.49-14s6.43,5,7.74,12.32a8.64,8.64,0,0,1,.9.07s0,0,0,0c-1.23-7.63.3-14.21,3.4-14.71s6.62,5.27,7.84,12.9c.76,4.66.48,8.93-.56,11.66-1.09,4.48-6.89,8.6-14.37,9.8-5.81.94-11.18-.11-14.44-2.47a.67.67,0,0,1-.14-.09c-2.49-1.56-4.86-6.4-5.82-12.39C218.4,343.34,219.91,336.75,223,336.25Z"/><polygon class="cls-8" points="350.78 426.16 327.42 309.53 298.3 314.31 282.36 426.16 350.78 426.16"/><polygon class="cls-5" points="327.42 309.53 328.41 426.16 351.13 426.16 327.42 309.53"/><polygon class="cls-8" points="31.52 366.49 54.88 249.86 84 254.64 99.94 366.49 31.52 366.49"/><polygon class="cls-5" points="55.79 249.86 54.8 366.49 32.07 366.49 55.79 249.86"/><path class="cls-8" d="M63.52,264a24.78,24.78,0,0,0,10.55.37c.36-.05.72-.12,1.06-.2a27.73,27.73,0,0,0,14-6.53c5.81-5.06,8-9.23,8-9.24,9.43-15.09,12.76-24.45,7.67-33.23-2.42-4.17-5.66-6.79-8.61-7.09-15-1.54-26.24-3.36-37.07,2l0,0c-2.87,1.43-7,5.51-9.33,7.72l-.3.31a25.73,25.73,0,0,0-4.08,8.28A37.09,37.09,0,0,0,47.05,250,24.17,24.17,0,0,0,63.52,264Z"/><path class="cls-9" d="M43.58,230c.05-.17.09-.33.14-.48C44.88,226,47,219.47,49.16,216.4c-2.27-.91-4.38-.92-5.93.16C40.16,218.72,40.41,224.49,43.58,230Z"/><path class="cls-10" d="M79.87,269.66c-2.71.55-5.6-1.54-7.67-5.12l1.26-.18A29,29,0,0,0,85.06,260C85,265.05,83,269,79.87,269.66Z"/><ellipse class="cls-9" cx="95.89" cy="214.98" rx="5.01" ry="6.68" transform="translate(-101.73 87.08) rotate(-33.05)"/><circle class="cls-9" cx="78.18" cy="229.58" r="2.16"/><circle class="cls-9" cx="68.3" cy="216.39" r="2.16"/><path class="cls-11" d="M250.44,241.69c-5.87,0-11.74,0-17.61,0a7,7,0,0,1-5.84-2.87c-3.07-3.9-6.2-7.74-9.3-11.61l-9.64-12c-1-1.25-2-2.53-3-3.76a6.47,6.47,0,0,1-1.4-6q3.47-14.91,6.88-29.85c.39-1.67.75-3.34,1.16-5a6,6,0,0,1,3.34-4.12l16-7.66,16.51-7.9a6.58,6.58,0,0,1,6,0q14.34,6.89,28.71,13.74c1.06.5,2.11,1,3.18,1.5a6.91,6.91,0,0,1,4.16,5.24c1.68,7.53,3.44,15.05,5.17,22.57.88,3.85,1.75,7.7,2.67,11.55a6.88,6.88,0,0,1-1.68,6.28c-3.29,4-6.5,8.06-9.74,12.09L275.88,236.5c-.73.92-1.46,1.84-2.2,2.75a6.24,6.24,0,0,1-5,2.44C262.59,241.71,256.52,241.69,250.44,241.69Z"/><path class="cls-11" d="M249,169.66a34.11,34.11,0,0,0-.46-4.26,2.86,2.86,0,0,1,.53-2.56,1.89,1.89,0,0,1,3.23.58,4.62,4.62,0,0,1,.07,2.58,21.09,21.09,0,0,0-.37,4,1.27,1.27,0,0,0,.2.77,2,2,0,0,1,.53,1.16c0,.24.29.24.48.26a25.38,25.38,0,0,1,12.64,5,27.74,27.74,0,0,1,2.77,2.42c.25.24.44.31.72.06a.67.67,0,0,1,.53-.25,2.36,2.36,0,0,0,2-.94,31.5,31.5,0,0,0,2.29-2.33,4.31,4.31,0,0,1,1.83-1.37,2,2,0,0,1,2.31.75,2.08,2.08,0,0,1-.25,2.43,6.51,6.51,0,0,1-1.85,1.36,22.25,22.25,0,0,0-3.12,2,1.44,1.44,0,0,0-.67,1.13c0,.29-.21.44-.4.6a.43.43,0,0,0-.09.68,24.94,24.94,0,0,1,3.66,9.24,25.83,25.83,0,0,1,.24,7.6c0,.32.05.47.35.53a.57.57,0,0,1,.4.2c.62,1,1.66,1,2.62,1.13,1.27.23,2.57.15,3.84.41a2.6,2.6,0,0,1,1.38.67,1.85,1.85,0,0,1,.55,2.06,2.1,2.1,0,0,1-1.82,1.29,5.06,5.06,0,0,1-2.1-.46,24.29,24.29,0,0,0-3.8-1.29,1.7,1.7,0,0,0-1.41.16.55.55,0,0,1-.48.09c-.47-.14-.63.11-.77.51a25.37,25.37,0,0,1-7,10.59,22.26,22.26,0,0,1-3.57,2.69c-.36.21-.55.43-.33.84a.52.52,0,0,1,0,.44,2.08,2.08,0,0,0,.27,1.73,28,28,0,0,0,2,3.2,4.91,4.91,0,0,1,.87,1.74,2,2,0,0,1-1.17,2.4,2.08,2.08,0,0,1-2.47-1,7.9,7.9,0,0,1-.79-1.95,22.35,22.35,0,0,0-1.31-3.53,1.5,1.5,0,0,0-.93-.86.65.65,0,0,1-.43-.39c-.14-.4-.39-.4-.75-.26a23.76,23.76,0,0,1-6.61,1.39,25.28,25.28,0,0,1-10.2-1.34c-.12-.05-.25-.08-.38-.14a.36.36,0,0,0-.56.2,1.05,1.05,0,0,1-.69.61,1.2,1.2,0,0,0-.67.64,21.06,21.06,0,0,0-1.42,3.76,5.37,5.37,0,0,1-1.06,2.25,2,2,0,0,1-2.47.47,2.09,2.09,0,0,1-.82-2.48,5.75,5.75,0,0,1,.9-1.67,24.58,24.58,0,0,0,2.08-3.44,1.48,1.48,0,0,0,.13-1.21.79.79,0,0,1,0-.73c.22-.37.05-.55-.27-.75a24.68,24.68,0,0,1-5.05-4.12,24.94,24.94,0,0,1-5.54-9c-.16-.46-.32-.78-.87-.57a.45.45,0,0,1-.39-.07,2,2,0,0,0-1.74-.14,29.05,29.05,0,0,0-3.47,1.2,4.46,4.46,0,0,1-2.33.46,1.9,1.9,0,0,1-.9-3.49,4.11,4.11,0,0,1,2.29-.64,24.49,24.49,0,0,0,4.08-.52,1.58,1.58,0,0,0,1.07-.68,1,1,0,0,1,.66-.42c.28-.07.35-.22.31-.51A25.22,25.22,0,0,1,229,183.94c.21-.35.32-.6-.11-.85a.51.51,0,0,1-.25-.42,2,2,0,0,0-1-1.46,25.5,25.5,0,0,0-3.06-1.94,4.56,4.56,0,0,1-1.73-1.41,1.93,1.93,0,0,1,2.43-2.88,6.47,6.47,0,0,1,2,1.75,18.64,18.64,0,0,0,2.67,2.51,1.32,1.32,0,0,0,1.12.32c.3-.07.48.11.68.25s.36.14.56-.06a24.91,24.91,0,0,1,14.55-7.42c.2,0,.4-.07.6-.08.51,0,1-.07,1-.76a.36.36,0,0,1,.09-.23A1.93,1.93,0,0,0,249,169.66Z"/><path class="cls-11" d="M257.46,204.45a1.69,1.69,0,0,1,1.92-1.65c2.81.45,5.62.93,8.43,1.4.43.07.85.18,1.28.21s.49.26.34.65a21.44,21.44,0,0,1-2.73,4.85,20.4,20.4,0,0,1-4.76,4.51c-.3.21-.44.23-.6-.16-1.18-2.89-2.38-5.77-3.57-8.65A2.9,2.9,0,0,1,257.46,204.45Z"/><path class="cls-11" d="M248,178.07c-.16,2.67-.32,5.3-.48,7.92a12.68,12.68,0,0,1-.12,1.85,1.67,1.67,0,0,1-2.6,1.2c-.94-.57-1.82-1.25-2.73-1.89q-2.64-1.87-5.29-3.74c-.36-.25-.45-.39-.08-.73a20.23,20.23,0,0,1,10.87-5.17C248.13,177.42,248,177.84,248,178.07Z"/><path class="cls-11" d="M230.21,197.53a20.72,20.72,0,0,1,2.72-10.14c.18-.31.31-.36.59-.11,1.81,1.63,3.63,3.24,5.43,4.87a15.62,15.62,0,0,1,2,1.88,1.64,1.64,0,0,1-.74,2.72c-1.06.39-2.17.67-3.27,1l-6.08,1.76c-.54.15-.57.13-.59-.43S230.23,197.94,230.21,197.53Z"/><path class="cls-11" d="M270.85,197.76c0,.45-.1.9-.1,1.35s-.11.49-.5.38c-1.88-.56-3.77-1.09-5.65-1.63l-3.28-1c-.24-.08-.48-.16-.71-.26a1.67,1.67,0,0,1-.55-2.69c.87-.94,1.87-1.72,2.81-2.58,1.5-1.37,3-2.7,4.53-4.07.29-.27.43-.3.65.08a20.25,20.25,0,0,1,2.7,9.22A10.92,10.92,0,0,1,270.85,197.76Z"/><path class="cls-11" d="M250.48,217.93a22.49,22.49,0,0,1-6-1c-.38-.12-.38-.27-.21-.57,1.57-2.83,3.12-5.66,4.71-8.48.74-1.33,2.28-1.28,3.11.08.56.93,1.06,1.9,1.59,2.85,1,1.83,2,3.67,3.05,5.5.23.4.13.54-.27.66a20.12,20.12,0,0,1-5,.83C251.12,217.86,250.8,217.9,250.48,217.93Z"/><path class="cls-11" d="M241.63,202.84c1.4,0,2.18,1,1.83,2.18a39.12,39.12,0,0,1-1.54,3.88c-.7,1.76-1.45,3.49-2.16,5.25-.16.41-.31.46-.68.2a20.17,20.17,0,0,1-7.39-9.25c-.22-.56-.21-.55.37-.65l9.16-1.57C241.4,202.85,241.58,202.85,241.63,202.84Z"/><path class="cls-11" d="M253,178.21c0-.74,0-.76.6-.67a20.48,20.48,0,0,1,9.94,4.53c.25.21.48.47.74.67s.26.4,0,.6q-2.15,1.5-4.27,3c-1.16.83-2.31,1.66-3.49,2.47a1.78,1.78,0,0,1-2.59-.23,2.69,2.69,0,0,1-.39-1.59c-.12-2.1-.18-4.21-.34-6.31A17.1,17.1,0,0,0,253,178.21Z"/><polygon class="cls-11" points="249.26 194.85 247.67 196.84 248.24 199.31 250.53 200.41 252.81 199.31 253.38 196.84 251.79 194.85 249.26 194.85"/><path class="cls-5" d="M191,330.46c-4.85.07-8.71-2.17-12.08-5.21-7.1-6.41-10-14.31-7.34-23.75a23.58,23.58,0,0,1,7-10.81c1.23-1.16,2.68-2.59,3-4.11,1.1-5.07,4.52-8.38,7.83-11.95a30.29,30.29,0,0,1,11-7.43,28.25,28.25,0,0,1,23.45.57c5.38,2.45,10,5.69,13.45,10.38,2.08,2.86,3.33,6.34,5,9.51a7,7,0,0,0,1.75,2.58,19.64,19.64,0,0,1,8.36,13c.84,5,.83,10.21-1.89,14.8-3.78,6.35-8.94,11.26-16.58,12.07-7,.73-14.1.65-21.15.93C212.75,330.87,198.23,330.36,191,330.46Zm10.56-27.69c0,.05-.18-.2-.38-.47-2.79-3.74-7.32-4.7-12.13-2.56-3.33,1.47-5.53,6.31-4.39,10.55a9.47,9.47,0,0,0,9,6.88q18.39.12,36.78.11c5.58,0,10.12-6.13,8.58-11.49-1.28-4.45-4.36-6.84-8.8-7.4-.54-12.65-7-18.3-16.93-19.77-5.15-.77-13.13,2.66-14.59,6.36,4.57,2.25,9.71,3.77,13.13,9.22Z"/><path class="cls-11" d="M188,325.4c-4.86.07-8.72-2.16-12.09-5.21-7.09-6.4-10-14.31-7.34-23.75a23.66,23.66,0,0,1,7-10.8c1.24-1.17,2.69-2.59,3-4.12,1.11-5.07,4.53-8.38,7.83-11.95a30.42,30.42,0,0,1,11-7.43,28.29,28.29,0,0,1,23.45.57c5.37,2.46,10,5.69,13.44,10.38,2.09,2.87,3.33,6.34,5,9.51a7.27,7.27,0,0,0,1.75,2.58,19.57,19.57,0,0,1,8.36,13c.85,5,.84,10.22-1.89,14.8-3.77,6.35-8.93,11.26-16.57,12.07-7,.74-14.1.66-21.15.94C209.71,325.81,195.2,325.3,188,325.4Zm10.55-27.68s-.17-.21-.37-.48c-2.79-3.74-7.33-4.7-12.14-2.56-3.32,1.48-5.52,6.31-4.39,10.55a9.49,9.49,0,0,0,9,6.88q18.39.12,36.79.11c5.58,0,10.11-6.13,8.58-11.49-1.28-4.45-4.36-6.84-8.8-7.4-.54-12.64-7-18.3-16.93-19.77-5.15-.76-13.14,2.66-14.59,6.37,4.57,2.24,9.71,3.76,13.13,9.21Z"/><path class="cls-12" d="M125.81,43.89c-6.82-1.49-13.15-11.77-20-11.16S94.52,44.6,88.12,47.24,70.7,45,65.33,49.45c-5.18,4.33-2.4,16-6.25,22C55.61,76.87,44,78.4,42.22,84.25c-1.86,6,6.94,13.83,6.81,20s-9.25,13.65-7.7,19.69,13.09,8.1,16.24,13.54"/><path class="cls-12" d="M118.48,17.72C109.32,13.78,102,2,92.35,1.52,82.56,1,74,12,64.64,14.85s-22.55-1.49-30.43,4.47c-7.59,5.75-7.1,19.6-12.55,28.08C16.63,55.22,4,59.63,1.85,68.18-.38,77,8.72,86.94,9.41,95.87S2.68,116.06,6.2,124.39s16.65,10.67,22.73,17.52"/><path class="cls-8" d="M315.13,316.77a23.11,23.11,0,0,1-9.88.35c-.34-.05-.67-.12-1-.18a26.06,26.06,0,0,1-13.12-6.12c-5.45-4.74-7.5-8.65-7.5-8.66-8.84-14.13-11.95-22.89-7.18-31.12,2.26-3.9,5.3-6.35,8.05-6.63,14-1.44,24.58-3.15,34.72,1.86l0,0c2.69,1.34,6.59,5.16,8.74,7.23a3.84,3.84,0,0,1,.27.29,23.89,23.89,0,0,1,3.83,7.75,34.75,34.75,0,0,1-1.55,22.12A22.58,22.58,0,0,1,315.13,316.77Z"/><path class="cls-9" d="M332,283.63c0-.18-.09-.34-.14-.49-1.16-3.55-3.24-10.08-5.44-13.15,2.27-.9,4.38-.92,5.93.17C335.38,272.32,335.13,278.09,332,283.63Z"/><path class="cls-10" d="M287.53,316.54c-1.87-2-1.57-5.59.43-9.21.26.33.53.67.8,1A29.3,29.3,0,0,0,298.5,316C294.1,318.54,289.68,318.9,287.53,316.54Z"/><circle class="cls-9" cx="307.06" cy="272.4" r="2.16"/><ellipse class="cls-9" cx="282.41" cy="271.24" rx="6.68" ry="5.01" transform="translate(-93.7 380.19) rotate(-60)"/><circle class="cls-9" cx="297.92" cy="286.11" r="2.16"/><path class="cls-6" d="M72.33,419.41,58.9,400.18a4.07,4.07,0,0,1,1-5.64L96.44,369c1.4-1,.67-4.44-1.61-7.71s-5.27-5.13-6.68-4.15L43.56,388.32a8.65,8.65,0,0,0-2.13,12L60.74,428c-1-1.4.89-4.4,4.16-6.68C67.92,419.18,71.1,418.4,72.33,419.41Z"/><path class="cls-13" d="M72.6,419.69a1.48,1.48,0,0,0-.27-.29c-1.23-1-4.41-.22-7.43,1.89-3.27,2.28-5.13,5.28-4.15,6.68s4.43.68,7.7-1.6c3-2.1,4.85-4.82,4.33-6.32A1.11,1.11,0,0,0,72.6,419.69Z"/><path class="cls-5" d="M95.17,361.71c-2,2.23-8,.16-13.49-4.63-.15.27-.3.54-.46.81,5.38,5.09,8,10.9,6,13.15s-8.15.1-13.73-4.82c-.25.18-.49.35-.74.5l0,0c5.7,5.21,8.6,11.32,6.48,13.63s-8.46,0-14.16-5.22c-3.49-3.18-5.93-6.69-6.81-9.48-1.93-4.19,0-11,5.16-16.61,4-4.36,8.81-6.87,12.83-7.05l.17,0c2.92-.32,7.79,2,12.26,6.09C94.39,353.28,97.3,359.38,95.17,361.71Z"/><path class="cls-5" d="M160.4,195.4c-7.25,0-14.5,0-21.75,0a8.6,8.6,0,0,1-7.22-3.54c-3.79-4.81-7.65-9.56-11.49-14.34L108,162.73c-1.24-1.55-2.45-3.13-3.73-4.65a8,8,0,0,1-1.72-7.41q4.27-18.43,8.49-36.88c.48-2.05.93-4.11,1.43-6.16a7.4,7.4,0,0,1,4.12-5.08q9.89-4.76,19.78-9.46l20.39-9.76a8.06,8.06,0,0,1,7.4,0l35.47,17c1.3.62,2.6,1.28,3.93,1.85a8.5,8.5,0,0,1,5.12,6.47c2.08,9.3,4.25,18.59,6.39,27.88,1.09,4.75,2.17,9.51,3.3,14.26a8.49,8.49,0,0,1-2.07,7.75c-4.07,4.94-8,10-12,14.94L191.81,189l-2.72,3.39a7.66,7.66,0,0,1-6.2,3C175.39,195.41,167.89,195.4,160.4,195.4Z"/><path class="cls-5" d="M158.64,106.44a41.13,41.13,0,0,0-.57-5.26,3.58,3.58,0,0,1,.65-3.17,2.33,2.33,0,0,1,4,.72,5.64,5.64,0,0,1,.09,3.18,25.35,25.35,0,0,0-.45,5,1.51,1.51,0,0,0,.24.94,2.47,2.47,0,0,1,.66,1.43c0,.31.35.31.59.33a31.34,31.34,0,0,1,15.61,6.23,34.59,34.59,0,0,1,3.42,3c.31.3.54.38.88.08a.85.85,0,0,1,.66-.31,2.92,2.92,0,0,0,2.49-1.16c1-.92,1.94-1.86,2.83-2.88a5.34,5.34,0,0,1,2.26-1.69,2.45,2.45,0,0,1,2.86.92,2.59,2.59,0,0,1-.31,3,7.88,7.88,0,0,1-2.29,1.68,27,27,0,0,0-3.84,2.52,1.72,1.72,0,0,0-.83,1.38,1,1,0,0,1-.5.75.54.54,0,0,0-.11.84,31,31,0,0,1,4.52,11.41,32.13,32.13,0,0,1,.3,9.39c0,.39.06.58.43.65a.72.72,0,0,1,.49.24c.76,1.22,2.06,1.18,3.24,1.4,1.56.29,3.18.19,4.74.51a3.19,3.19,0,0,1,1.71.82,2.31,2.31,0,0,1,.68,2.54,2.6,2.6,0,0,1-2.26,1.6,6.11,6.11,0,0,1-2.59-.57,29.53,29.53,0,0,0-4.7-1.59,2.11,2.11,0,0,0-1.73.2.72.72,0,0,1-.6.11c-.58-.17-.77.13-.95.63a31.24,31.24,0,0,1-8.63,13.08,27.37,27.37,0,0,1-4.41,3.32c-.44.26-.68.53-.4,1a.71.71,0,0,1,.06.55,2.61,2.61,0,0,0,.33,2.14,35.22,35.22,0,0,0,2.47,4,6,6,0,0,1,1.07,2.15,2.5,2.5,0,0,1-1.44,3,2.6,2.6,0,0,1-3.05-1.17,10.08,10.08,0,0,1-1-2.41,25.94,25.94,0,0,0-1.62-4.36,1.86,1.86,0,0,0-1.14-1.07A.74.74,0,0,1,172,171c-.18-.49-.48-.49-.93-.33a28.91,28.91,0,0,1-8.17,1.72,31.14,31.14,0,0,1-12.59-1.65c-.15-.06-.32-.1-.47-.17a.45.45,0,0,0-.7.25,1.2,1.2,0,0,1-.85.74,1.55,1.55,0,0,0-.83.8A26.45,26.45,0,0,0,145.7,177a6.69,6.69,0,0,1-1.32,2.78,2.47,2.47,0,0,1-3,.58,2.58,2.58,0,0,1-1-3.06,7.53,7.53,0,0,1,1.11-2.07A28.26,28.26,0,0,0,144,171a1.81,1.81,0,0,0,.16-1.49,1,1,0,0,1,.06-.9c.27-.46.06-.68-.33-.92a31.16,31.16,0,0,1-6.24-5.09,30.84,30.84,0,0,1-6.84-11.13c-.2-.57-.39-1-1.08-.7a.51.51,0,0,1-.47-.1,2.5,2.5,0,0,0-2.15-.16,33.81,33.81,0,0,0-4.28,1.48,5.64,5.64,0,0,1-2.89.57,2.36,2.36,0,0,1-1.11-4.32,5.13,5.13,0,0,1,2.83-.79,31.71,31.71,0,0,0,5-.63,2,2,0,0,0,1.32-.85,1.18,1.18,0,0,1,.81-.51c.35-.09.43-.28.39-.64a31.11,31.11,0,0,1,4.63-20.72c.27-.43.39-.74-.14-1a.62.62,0,0,1-.3-.52,2.51,2.51,0,0,0-1.28-1.81,31.57,31.57,0,0,0-3.78-2.38,5.8,5.8,0,0,1-2.15-1.75,2.39,2.39,0,0,1,3-3.56,7.87,7.87,0,0,1,2.53,2.17,22.45,22.45,0,0,0,3.29,3.1,1.66,1.66,0,0,0,1.39.39c.37-.09.59.13.84.31s.45.17.69-.07a30.72,30.72,0,0,1,18-9.16,6.13,6.13,0,0,1,.73-.11c.64,0,1.23-.08,1.2-.94a.41.41,0,0,1,.11-.28A2.4,2.4,0,0,0,158.64,106.44Z"/><path class="cls-5" d="M169.06,149.4a2.1,2.1,0,0,1,2.38-2c3.47.56,6.93,1.15,10.4,1.73a14.24,14.24,0,0,0,1.59.26c.65.05.6.33.41.8a26,26,0,0,1-3.37,6,25.14,25.14,0,0,1-5.88,5.58c-.37.25-.54.28-.74-.21-1.46-3.56-2.94-7.12-4.41-10.67A3.8,3.8,0,0,1,169.06,149.4Z"/><path class="cls-5" d="M157.36,116.83c-.2,3.29-.39,6.53-.59,9.77a15.92,15.92,0,0,1-.15,2.29,2.06,2.06,0,0,1-3.21,1.48c-1.16-.7-2.25-1.54-3.36-2.33-2.18-1.54-4.35-3.1-6.55-4.62-.43-.31-.55-.48-.09-.9a25,25,0,0,1,13.42-6.39C157.54,116,157.33,116.54,157.36,116.83Z"/><path class="cls-5" d="M135.4,140.85a25.8,25.8,0,0,1,3.36-12.52c.22-.39.39-.45.74-.13,2.23,2,4.48,4,6.71,6a21,21,0,0,1,2.49,2.32,2,2,0,0,1-.91,3.37c-1.32.48-2.69.82-4,1.21l-7.52,2.18c-.67.19-.7.15-.73-.53S135.43,141.36,135.4,140.85Z"/><path class="cls-5" d="M185.6,141.14c0,.56-.12,1.11-.12,1.67s-.15.61-.63.46c-2.32-.68-4.65-1.34-7-2l-4.06-1.18a5.69,5.69,0,0,1-.87-.32,2,2,0,0,1-.68-3.31c1.07-1.16,2.32-2.13,3.48-3.19,1.84-1.7,3.73-3.34,5.58-5,.37-.34.54-.38.81.1a25,25,0,0,1,3.34,11.38A13.37,13.37,0,0,1,185.6,141.14Z"/><path class="cls-5" d="M160.45,166.05a27.62,27.62,0,0,1-7.39-1.18c-.47-.15-.47-.33-.27-.7,1.94-3.49,3.86-7,5.82-10.47.92-1.64,2.82-1.58,3.84.1.69,1.15,1.32,2.34,2,3.52,1.25,2.26,2.49,4.53,3.77,6.79.28.49.16.67-.34.81a24.82,24.82,0,0,1-6.23,1C161.23,166,160.84,166,160.45,166.05Z"/><path class="cls-5" d="M149.51,147.42c1.73,0,2.69,1.18,2.26,2.69a45.7,45.7,0,0,1-1.9,4.78c-.86,2.18-1.79,4.32-2.67,6.49-.2.5-.38.57-.84.25a25,25,0,0,1-9.12-11.42c-.28-.69-.27-.69.46-.81l11.3-1.94C149.23,147.43,149.46,147.42,149.51,147.42Z"/><path class="cls-5" d="M163.6,117c0-.91,0-.94.75-.82a25.23,25.23,0,0,1,12.26,5.59c.32.27.6.58.93.83s.31.49,0,.74l-5.27,3.73c-1.43,1-2.85,2.05-4.3,3.05a2.21,2.21,0,0,1-3.21-.29,3.36,3.36,0,0,1-.48-1.95c-.15-2.6-.22-5.2-.42-7.8A19.45,19.45,0,0,0,163.6,117Z"/><polygon class="cls-5" points="158.93 137.55 156.98 140 157.67 143.06 160.5 144.42 163.32 143.06 164.02 140 162.06 137.55 158.93 137.55"/><path class="cls-11" d="M155.34,190.34c-7.25,0-14.5,0-21.75,0a8.58,8.58,0,0,1-7.21-3.55c-3.79-4.81-7.66-9.56-11.5-14.33q-5.94-7.41-11.9-14.81c-1.24-1.55-2.45-3.13-3.73-4.64a8,8,0,0,1-1.72-7.42q4.27-18.44,8.5-36.87c.47-2.06.92-4.12,1.42-6.17a7.39,7.39,0,0,1,4.13-5.08q9.87-4.76,19.77-9.46l20.39-9.76a8.14,8.14,0,0,1,7.41,0q17.72,8.5,35.46,17c1.31.62,2.6,1.28,3.93,1.86a8.51,8.51,0,0,1,5.13,6.46c2.07,9.31,4.25,18.59,6.38,27.88,1.1,4.75,2.17,9.51,3.3,14.26a8.49,8.49,0,0,1-2.07,7.76c-4.06,4.93-8,9.95-12,14.93l-12.49,15.53L184,187.32a7.7,7.7,0,0,1-6.21,3C170.34,190.36,162.84,190.34,155.34,190.34Z"/><path class="cls-11" d="M153.58,101.38a41.13,41.13,0,0,0-.57-5.26,3.54,3.54,0,0,1,.66-3.16,2.32,2.32,0,0,1,4,.71,5.56,5.56,0,0,1,.09,3.18,25.48,25.48,0,0,0-.45,5,1.56,1.56,0,0,0,.24,1,2.41,2.41,0,0,1,.66,1.43c0,.3.35.3.6.33a31.4,31.4,0,0,1,15.61,6.22,35.83,35.83,0,0,1,3.41,3c.31.3.54.38.89.08a.85.85,0,0,1,.66-.31,2.89,2.89,0,0,0,2.48-1.15c1-.93,1.95-1.87,2.83-2.89a5.37,5.37,0,0,1,2.27-1.69,2.44,2.44,0,0,1,2.85.92,2.59,2.59,0,0,1-.31,3,8.26,8.26,0,0,1-2.29,1.68,27,27,0,0,0-3.84,2.51,1.76,1.76,0,0,0-.83,1.38c0,.36-.27.56-.5.75a.54.54,0,0,0-.11.84,30.86,30.86,0,0,1,4.52,11.41,31.8,31.8,0,0,1,.3,9.39c0,.4.06.58.43.66a.66.66,0,0,1,.49.24c.76,1.21,2.06,1.17,3.24,1.39,1.57.29,3.18.19,4.74.51a3.17,3.17,0,0,1,1.71.83,2.31,2.31,0,0,1,.68,2.54,2.58,2.58,0,0,1-2.26,1.59,5.88,5.88,0,0,1-2.58-.56,29.21,29.21,0,0,0-4.7-1.59,2.09,2.09,0,0,0-1.74.19.7.7,0,0,1-.59.11c-.58-.17-.78.14-1,.64a31.39,31.39,0,0,1-8.64,13.07,27.37,27.37,0,0,1-4.41,3.32c-.44.27-.67.53-.4,1a.64.64,0,0,1,.06.54,2.57,2.57,0,0,0,.34,2.14,32.16,32.16,0,0,0,2.46,4,6,6,0,0,1,1.07,2.15,2.5,2.5,0,0,1-1.44,3,2.58,2.58,0,0,1-3.05-1.17,9.51,9.51,0,0,1-1-2.41,28.18,28.18,0,0,0-1.62-4.36,1.87,1.87,0,0,0-1.15-1.07.77.77,0,0,1-.53-.48c-.18-.49-.48-.49-.92-.32a29,29,0,0,1-8.18,1.71,31,31,0,0,1-12.59-1.65c-.15-.06-.31-.1-.46-.17-.32-.14-.57-.09-.7.25a1.22,1.22,0,0,1-.85.74,1.51,1.51,0,0,0-.83.8,26,26,0,0,0-1.75,4.64,6.57,6.57,0,0,1-1.32,2.78,2.44,2.44,0,0,1-3,.58,2.58,2.58,0,0,1-1-3.06,8,8,0,0,1,1.11-2.07,28.16,28.16,0,0,0,2.57-4.24,1.84,1.84,0,0,0,.17-1.5,1,1,0,0,1,0-.89c.28-.46.07-.68-.33-.93a31.44,31.44,0,0,1-6.24-5.09,30.81,30.81,0,0,1-6.84-11.13c-.2-.56-.39-1-1.07-.7a.55.55,0,0,1-.48-.09,2.5,2.5,0,0,0-2.15-.17,34.36,34.36,0,0,0-4.28,1.48,5.64,5.64,0,0,1-2.89.57,2.35,2.35,0,0,1-1.11-4.31,5.08,5.08,0,0,1,2.83-.8,29.43,29.43,0,0,0,5-.63,2,2,0,0,0,1.32-.84,1.24,1.24,0,0,1,.82-.52c.34-.08.43-.27.38-.64A31.14,31.14,0,0,1,128.79,119c.27-.44.39-.75-.13-1a.66.66,0,0,1-.31-.52,2.49,2.49,0,0,0-1.28-1.81,31.65,31.65,0,0,0-3.78-2.39,5.8,5.8,0,0,1-2.15-1.75,2.39,2.39,0,0,1,3-3.56,8.12,8.12,0,0,1,2.53,2.17,22.53,22.53,0,0,0,3.3,3.1,1.64,1.64,0,0,0,1.39.39c.36-.08.59.14.83.32a.45.45,0,0,0,.69-.08,30.81,30.81,0,0,1,18-9.16,6.29,6.29,0,0,1,.74-.11c.63,0,1.22-.07,1.19-.94a.49.49,0,0,1,.11-.28A2.4,2.4,0,0,0,153.58,101.38Z"/><path class="cls-11" d="M164,144.35a2.08,2.08,0,0,1,2.37-2q5.2.84,10.4,1.72c.53.09,1.06.23,1.59.27s.6.32.41.79a26,26,0,0,1-3.36,6,25.3,25.3,0,0,1-5.88,5.57c-.38.26-.55.28-.75-.21-1.45-3.56-2.94-7.11-4.41-10.67A3.74,3.74,0,0,1,164,144.35Z"/><path class="cls-11" d="M152.31,111.77c-.2,3.3-.4,6.54-.6,9.78a14.68,14.68,0,0,1-.15,2.29,2.06,2.06,0,0,1-3.2,1.48c-1.17-.71-2.25-1.55-3.37-2.34-2.18-1.54-4.35-3.09-6.54-4.62-.44-.31-.55-.48-.09-.9a24.93,24.93,0,0,1,13.41-6.39C152.48,111,152.27,111.48,152.31,111.77Z"/><path class="cls-11" d="M130.35,135.8a25.6,25.6,0,0,1,3.36-12.53c.22-.38.38-.44.73-.13,2.23,2,4.48,4,6.71,6a20.33,20.33,0,0,1,2.49,2.33,2,2,0,0,1-.91,3.36c-1.32.48-2.69.82-4,1.21l-7.51,2.18c-.67.19-.71.16-.74-.53S130.37,136.3,130.35,135.8Z"/><path class="cls-11" d="M180.54,136.08c0,.56-.12,1.12-.12,1.67s-.14.61-.62.47c-2.32-.69-4.65-1.35-7-2l-4-1.17a5.48,5.48,0,0,1-.88-.33,2,2,0,0,1-.67-3.31c1.06-1.16,2.31-2.13,3.47-3.19,1.84-1.69,3.73-3.34,5.59-5,.36-.34.53-.38.8.1a25,25,0,0,1,3.34,11.38A13.6,13.6,0,0,1,180.54,136.08Z"/><path class="cls-11" d="M155.39,161a27.23,27.23,0,0,1-7.39-1.18c-.47-.15-.47-.32-.27-.69,2-3.49,3.86-7,5.82-10.48.92-1.64,2.82-1.58,3.84.1.7,1.15,1.32,2.34,2,3.52,1.26,2.26,2.49,4.54,3.77,6.79.28.5.16.68-.34.81a24.84,24.84,0,0,1-6.23,1C156.17,160.9,155.78,161,155.39,161Z"/><path class="cls-11" d="M144.45,142.36c1.73,0,2.69,1.18,2.27,2.69s-1.27,3.19-1.9,4.79c-.87,2.17-1.8,4.31-2.68,6.48-.2.5-.38.57-.83.25a24.86,24.86,0,0,1-9.13-11.42c-.28-.69-.27-.69.46-.81L144,142.41C144.17,142.37,144.4,142.37,144.45,142.36Z"/><path class="cls-11" d="M158.55,111.94c0-.91,0-.94.74-.83a25.23,25.23,0,0,1,12.27,5.6c.31.26.59.58.92.82s.31.49,0,.75c-1.76,1.23-3.51,2.48-5.26,3.73-1.44,1-2.86,2-4.31,3a2.19,2.19,0,0,1-3.2-.28,3.4,3.4,0,0,1-.49-2c-.14-2.6-.22-5.2-.42-7.8A20.55,20.55,0,0,0,158.55,111.94Z"/><polygon class="cls-11" points="153.87 132.49 151.92 134.94 152.62 138 155.44 139.36 158.26 138 158.96 134.94 157.01 132.49 153.87 132.49"/></g></g></svg>