<svg xmlns="http://www.w3.org/2000/svg" viewBox="0 0 128.51 71.56"><defs><style>.cls-1,.cls-2,.cls-5{fill:#3f3a37;}.cls-1,.cls-2{stroke:#fff;}.cls-1,.cls-3{stroke-linecap:round;}.cls-1,.cls-2,.cls-3{stroke-linejoin:round;}.cls-1,.cls-2,.cls-3,.cls-5{stroke-width:2px;}.cls-3{fill:#fff;}.cls-3,.cls-4,.cls-5{stroke:#3f3a37;}.cls-4{fill:#86fed4;}.cls-4,.cls-5{stroke-miterlimit:10;}</style></defs><title>Asset 50</title><g id="Layer_2" data-name="Layer 2"><g id="Layer_1-2" data-name="Layer 1"><rect class="cls-1" x="68.96" y="22.16" width="13.53" height="13.53" transform="translate(24.74 91.94) rotate(-71.93)"/><polygon class="cls-1" points="92.77 20.26 84.25 24.59 71.39 20.39 79.92 16.06 92.77 20.26"/><polygon class="cls-2" points="92.77 20.26 88.58 33.12 80.05 37.45 84.25 24.59 92.77 20.26"/><rect class="cls-1" x="104.1" y="50.76" width="13.53" height="13.53" transform="translate(-11.33 31.68) rotate(-15.48)"/><polygon class="cls-1" points="127.51 66.95 119.19 62.23 115.58 49.2 123.9 53.91 127.51 66.95"/><polygon class="cls-2" points="127.51 66.95 114.48 70.56 106.16 65.84 119.19 62.23 127.51 66.95"/><path class="cls-3" d="M2.86,1,24.52,7.43a3.6,3.6,0,0,1,2.41,4.45l-.81,2.74a.88.88,0,0,0,0-.16l-2.87,9.65a2.74,2.74,0,0,0-.05.28,1.67,1.67,0,0,0,1.19,1.81l17.74,5.27c-.68-.21-1.61.92-2.08,2.51s-.31,3,.37,3.25L18.78,30.8a3.6,3.6,0,0,1-2.41-4.45l.81-2.74a.88.88,0,0,0,0,.16L20,14.12a2.74,2.74,0,0,0,0-.28A1.67,1.67,0,0,0,18.89,12L1.15,6.76c.68.2,1.61-.93,2.09-2.51S3.54,1.2,2.86,1Z"/><ellipse class="cls-4" cx="2" cy="3.88" rx="3" ry="1.29" transform="translate(-2.29 4.69) rotate(-73.46)"/><ellipse class="cls-5" cx="41.3" cy="34.35" rx="3" ry="1.29" transform="translate(-3.38 64.16) rotate(-73.46)"/></g></g></svg>