<svg xmlns="http://www.w3.org/2000/svg" viewBox="0 0 113.93 187.58"><defs><style>.cls-1{fill:#fff;}.cls-1,.cls-2,.cls-3,.cls-6{stroke:#3f3a37;}.cls-1,.cls-3,.cls-4{stroke-linecap:round;}.cls-1,.cls-3,.cls-4,.cls-5{stroke-linejoin:round;}.cls-1,.cls-3,.cls-4,.cls-5,.cls-6{stroke-width:2px;}.cls-2{fill:#86fed4;}.cls-2,.cls-6{stroke-miterlimit:10;}.cls-3,.cls-4,.cls-5,.cls-6{fill:#3f3a37;}.cls-4,.cls-5{stroke:#fff;}</style></defs><title>Asset 46</title><g id="Layer_2" data-name="Layer 2"><g id="Layer_1-2" data-name="Layer 1"><path class="cls-1" d="M12.56,120l7-21.15A3.54,3.54,0,0,1,24,96.64L37.07,101c-.66-.22-1.62.86-2.12,2.41s-.41,2.77.13,3.13l-9.11-3a1.67,1.67,0,0,0-2.1,1l-5.69,17.33c.22-.67-.86-1.62-2.41-2.13S12.78,119.37,12.56,120Z"/><ellipse class="cls-2" cx="15.37" cy="120.96" rx="1.27" ry="2.96" transform="translate(-104.34 97.79) rotate(-71.8)"/><path class="cls-3" d="M35.23,106.58a.44.44,0,0,1-.15-.08c-.54-.36-.6-1.7-.13-3.13s1.46-2.63,2.12-2.41.79,1.65.28,3.2-1.31,2.47-2,2.44Z"/><rect class="cls-4" x="2.95" y="65.15" width="13.53" height="13.53" transform="translate(-24.81 8.08) rotate(-20.71)"/><polygon class="cls-4" points="17.59 54.48 13.65 63.2 1 67.98 4.93 59.26 17.59 54.48"/><polygon class="cls-5" points="17.59 54.48 22.37 67.13 18.43 75.85 13.65 63.2 17.59 54.48"/><rect class="cls-4" x="52.95" y="139.15" width="13.53" height="13.53" transform="translate(-47.75 30.55) rotate(-20.71)"/><polygon class="cls-4" points="67.59 128.48 63.65 137.2 51 141.98 54.93 133.26 67.59 128.48"/><polygon class="cls-5" points="67.59 128.48 72.37 141.13 68.44 149.85 63.65 137.2 67.59 128.48"/><rect class="cls-4" x="10.81" y="2.56" width="13.53" height="13.53" transform="translate(-1.85 5.03) rotate(-15.48)"/><polygon class="cls-4" points="34.21 18.75 25.89 14.04 22.28 1 30.6 5.71 34.21 18.75"/><polygon class="cls-5" points="34.21 18.75 21.18 22.36 12.86 17.64 25.89 14.04 34.21 18.75"/><path class="cls-1" d="M96.49,135.48l14.64,17.21a3.59,3.59,0,0,1-.41,5.05l-2.17,1.85a.32.32,0,0,0,.1-.13L101,166a1,1,0,0,0-.2.2,1.68,1.68,0,0,0,0,2.17l12,14.1c-.47-.54-1.87-.11-3.13,1s-1.91,2.39-1.45,2.93L93.57,169.14a3.6,3.6,0,0,1,.41-5l2.18-1.85a.47.47,0,0,0-.11.13l7.67-6.53a1.89,1.89,0,0,0,.2-.2,1.68,1.68,0,0,0,0-2.17l-12-14.1c.46.54,1.86.11,3.12-1S97,136,96.49,135.48Z"/><ellipse class="cls-2" cx="94.21" cy="137.42" rx="3" ry="1.29" transform="translate(-66.58 93.76) rotate(-40.38)"/><ellipse class="cls-6" cx="110.5" cy="184.4" rx="3" ry="1.29" transform="translate(-93.14 115.5) rotate(-40.38)"/></g></g></svg>