<svg xmlns="http://www.w3.org/2000/svg" xmlns:xlink="http://www.w3.org/1999/xlink" viewBox="0 0 302.88 336.93"><defs><style>.cls-1,.cls-2,.cls-8{fill:none;}.cls-10,.cls-11,.cls-12,.cls-13,.cls-14,.cls-15,.cls-2,.cls-7,.cls-8{stroke:#3f3a37;}.cls-11,.cls-12,.cls-13,.cls-2,.cls-8{stroke-linecap:round;}.cls-10,.cls-11,.cls-12,.cls-13,.cls-15,.cls-2,.cls-8{stroke-linejoin:round;}.cls-10,.cls-11,.cls-13,.cls-2,.cls-5,.cls-7{stroke-width:2px;}.cls-2{stroke-dasharray:0 8;}.cls-3{fill:url(#small_dots);}.cls-4{fill:#2dfefe;opacity:0.35;}.cls-12,.cls-13,.cls-14,.cls-15,.cls-5,.cls-6{fill:#3f3a37;}.cls-5{stroke:#fff;}.cls-14,.cls-5,.cls-7{stroke-miterlimit:10;}.cls-10,.cls-11,.cls-7{fill:#fff;}.cls-8{stroke-width:3px;}.cls-9{fill:#f7f7f7;}</style><pattern id="small_dots" data-name="small dots" width="8" height="8" patternTransform="translate(-3.95 -0.86) scale(1.01)" patternUnits="userSpaceOnUse" viewBox="0 0 8 8"><rect class="cls-1" width="8" height="8"/><circle class="cls-2" cx="4" cy="4" r="1"/></pattern></defs><title>Asset 49</title><g id="Layer_2" data-name="Layer 2"><g id="Layer_1-2" data-name="Layer 1"><path class="cls-3" d="M302.54,175.94a55.12,55.12,0,0,1-11.18,27.35,55.91,55.91,0,0,1-23.24,18.47,54.86,54.86,0,0,1-28.7,3.86,58.22,58.22,0,0,1-28-11.63q-20.29-15.24-25.16-33.43a83.54,83.54,0,0,1-1.8-8.48q-2.44-15.24-.25-34.35l-.08,0q.42-6.92,1.57-14.45l-.05,0a223.35,223.35,0,0,0,1.19-27,57.24,57.24,0,0,0-5.51-22.68c-.32-.68-.65-1.36-1-2q-5.3-10-16.39-18.31-15.65-11.76-33.34-9.57T101.55,61.08Q90.17,76.23,93,93.84t18.46,29.35q12.23,9.19,24.39,11.05a60,60,0,0,0,12.55.65L146,122.47a1.91,1.91,0,0,1,2.86-2l24.11,14.38a1.9,1.9,0,0,1,.55,2.79L156.6,160.08a1.91,1.91,0,0,1-3.4-.77l-2.38-12.08A66.33,66.33,0,0,1,131,146.07q-13.62-2.76-27.53-13.22a60,60,0,0,1-19.18-23.58,53.47,53.47,0,0,1-4.5-28.61A55.79,55.79,0,0,1,91,53.19a55.94,55.94,0,0,1,23.24-18.48A53.45,53.45,0,0,1,143,31.07a60.09,60.09,0,0,1,28,11.84q13.94,10.49,20.37,22.76a64.22,64.22,0,0,1,7.44,24.71,164,164,0,0,1-.56,28.26v0a141.37,141.37,0,0,0-1.9,16.51,217.33,217.33,0,0,0-1,25.19,53.77,53.77,0,0,0,1,8.83A59.56,59.56,0,0,0,201,183.17q5.31,11.25,17.53,20.43,15.63,11.75,33.3,9.34t29.05-17.54q11.38-15.15,8.59-32.55T271,133.71q-12.22-9.18-24.5-11.15a56.77,56.77,0,0,0-23.45.94q-6.06,1.56-13.33,4.08a.75.75,0,0,1-1-.77q.51-5.66,1.53-11.71a.78.78,0,0,1,.52-.6,102.75,102.75,0,0,1,29.13-5.3q18.82-.37,39.11,14.86a59,59,0,0,1,19.05,23.49A54.15,54.15,0,0,1,302.54,175.94Z"/><path class="cls-4" d="M293.1,176a55.12,55.12,0,0,1-11.18,27.35,55.85,55.85,0,0,1-23.24,18.47,54.84,54.84,0,0,1-28.7,3.86A58.26,58.26,0,0,1,202,214q-20.28-15.24-25.16-33.43c-.72-2.72-1.32-5.54-1.8-8.48q-2.44-15.23-.24-34.34l-.08,0q.4-6.92,1.57-14.45l-.06,0a223.6,223.6,0,0,0,1.2-27,57.42,57.42,0,0,0-5.52-22.68c-.31-.68-.65-1.36-1-2q-5.29-10-16.39-18.31-15.65-11.76-33.34-9.57T92.11,61.12Q80.72,76.27,83.56,93.88T102,123.23q12.21,9.2,24.38,11a60,60,0,0,0,12.55.65l-2.44-12.42a1.9,1.9,0,0,1,2.85-2l24.12,14.38a1.91,1.91,0,0,1,.54,2.79l-16.87,22.44a1.91,1.91,0,0,1-3.4-.77l-2.37-12.08a66.39,66.39,0,0,1-19.85-1.16Q107.94,143.35,94,132.89a60,60,0,0,1-19.17-23.58,53.37,53.37,0,0,1-4.5-28.61A55.87,55.87,0,0,1,81.6,53.23a56,56,0,0,1,23.25-18.48,53.43,53.43,0,0,1,28.73-3.64,60,60,0,0,1,28,11.85q13.92,10.47,20.37,22.75a64,64,0,0,1,7.43,24.71,163.94,163.94,0,0,1-.55,28.26.43.43,0,0,0,0,0,141.27,141.27,0,0,0-1.89,16.51,213,213,0,0,0-1,25.19,52.69,52.69,0,0,0,1,8.83,59.56,59.56,0,0,0,4.65,14q5.31,11.25,17.53,20.43,15.63,11.75,33.3,9.34t29.06-17.54q11.38-15.15,8.58-32.55t-18.44-29.14q-12.23-9.18-24.5-11.14a56.55,56.55,0,0,0-23.44.93q-6.06,1.56-13.33,4.08a.76.76,0,0,1-1-.77q.51-5.66,1.53-11.71a.82.82,0,0,1,.53-.6,102.69,102.69,0,0,1,29.13-5.3q18.83-.37,39.11,14.86a59.19,59.19,0,0,1,19.05,23.49A54.15,54.15,0,0,1,293.1,176Z"/><path class="cls-5" d="M72.08,104.46c.64,1.59-1.9,4.12-5.71,5.75l.3.43c3.93-1.49,7.57-1.4,8.21.21s-2,4.19-5.88,5.82a4.61,4.61,0,0,1,.07.5h0c4.08-1.62,7.92-1.59,8.58.07s-2.11,4.32-6.19,5.94A13.61,13.61,0,0,1,65,124.31c-2.62,0-5.63-2.76-7.22-6.76-1.24-3.11-1.32-6.22-.41-8.31a.29.29,0,0,1,0-.1c.56-1.57,2.95-3.48,6.15-4.75C67.58,102.77,71.42,102.79,72.08,104.46Z"/><path class="cls-5" d="M124,153.41c-1.58-.68-4.17,1.78-5.91,5.55l-.42-.31c1.59-3.89,1.61-7.53,0-8.21s-4.24,1.85-6,5.71a3.05,3.05,0,0,0-.5-.08v0c1.73-4,1.81-7.88.17-8.58s-4.38,2-6.12,6A13.62,13.62,0,0,0,104,160c0,2.62,2.6,5.7,6.55,7.4,3.08,1.33,6.18,1.49,8.3.65l.1,0c1.58-.51,3.56-2.85,4.92-6C125.59,158,125.67,154.12,124,153.41Z"/><path class="cls-6" d="M132,110.26c-3.07,0-6.14,0-9.21,0a3.67,3.67,0,0,1-3.06-1.5c-1.6-2-3.24-4-4.86-6.08l-5-6.27c-.53-.65-1-1.32-1.58-2a3.36,3.36,0,0,1-.73-3.14l3.6-15.62c.2-.87.39-1.74.6-2.61a3.09,3.09,0,0,1,1.75-2.15l8.37-4,8.64-4.13a3.39,3.39,0,0,1,3.13,0l15,7.18c.55.26,1.1.54,1.67.78a3.63,3.63,0,0,1,2.17,2.74c.88,3.94,1.8,7.87,2.7,11.81.46,2,.92,4,1.4,6a3.57,3.57,0,0,1-.88,3.28c-1.72,2.09-3.4,4.22-5.1,6.33l-5.28,6.57L144.12,109a3.25,3.25,0,0,1-2.62,1.28Z"/><path class="cls-6" d="M131.23,72.59a19.17,19.17,0,0,0-.25-2.23,1.5,1.5,0,0,1,.28-1.34,1,1,0,0,1,1.69.3,2.39,2.39,0,0,1,0,1.35,10.69,10.69,0,0,0-.19,2.11.6.6,0,0,0,.1.4,1.15,1.15,0,0,1,.28.61c0,.13.15.13.25.14A13.31,13.31,0,0,1,140,76.57a14.38,14.38,0,0,1,1.45,1.26c.13.13.23.16.37,0a.35.35,0,0,1,.28-.13,1.25,1.25,0,0,0,1.06-.49c.41-.39.82-.79,1.19-1.22a2.32,2.32,0,0,1,1-.71,1,1,0,0,1,1.21.38,1.11,1.11,0,0,1-.13,1.28,3.42,3.42,0,0,1-1,.71,11.67,11.67,0,0,0-1.63,1.06.76.76,0,0,0-.35.59c0,.15-.11.23-.21.32a.23.23,0,0,0-.05.35,13.06,13.06,0,0,1,1.92,4.83,13.62,13.62,0,0,1,.12,4c0,.17,0,.25.19.28a.28.28,0,0,1,.21.1c.32.51.87.5,1.37.59.66.12,1.34.08,2,.22a1.34,1.34,0,0,1,.73.34,1,1,0,0,1,.29,1.08,1.1,1.1,0,0,1-1,.68,2.59,2.59,0,0,1-1.1-.24,12.62,12.62,0,0,0-2-.68.93.93,0,0,0-.73.08.26.26,0,0,1-.25,0c-.25-.07-.33.06-.41.27A13.24,13.24,0,0,1,141,97.12a12.22,12.22,0,0,1-1.87,1.41c-.19.11-.29.22-.17.43a.31.31,0,0,1,0,.23,1.09,1.09,0,0,0,.14.91,15,15,0,0,0,1,1.67,2.61,2.61,0,0,1,.46.91,1.07,1.07,0,0,1-.61,1.26,1.09,1.09,0,0,1-1.3-.5,4,4,0,0,1-.41-1,11.93,11.93,0,0,0-.68-1.84.81.81,0,0,0-.49-.45.35.35,0,0,1-.23-.21c-.07-.21-.2-.2-.39-.14a12,12,0,0,1-3.46.73,13.23,13.23,0,0,1-5.33-.7l-.2-.07c-.13-.06-.24,0-.29.11a.53.53,0,0,1-.36.31.62.62,0,0,0-.35.34,10.8,10.8,0,0,0-.74,2,2.86,2.86,0,0,1-.56,1.18,1,1,0,0,1-1.29.25,1.09,1.09,0,0,1-.43-1.3,3.12,3.12,0,0,1,.47-.88A12.58,12.58,0,0,0,125,99.92a.84.84,0,0,0,.07-.64.39.39,0,0,1,0-.38c.12-.19,0-.28-.14-.39a13.37,13.37,0,0,1-5.54-6.87c-.08-.24-.16-.4-.46-.29a.25.25,0,0,1-.2,0,1,1,0,0,0-.91-.07,14.3,14.3,0,0,0-1.81.62,2.46,2.46,0,0,1-1.22.25,1,1,0,0,1-.47-1.83,2.09,2.09,0,0,1,1.19-.34,12.78,12.78,0,0,0,2.14-.27.84.84,0,0,0,.56-.35.49.49,0,0,1,.34-.22c.15,0,.19-.12.17-.27a13.19,13.19,0,0,1,2-8.78c.11-.18.16-.31-.06-.44a.29.29,0,0,1-.13-.22,1.08,1.08,0,0,0-.54-.77,14.83,14.83,0,0,0-1.6-1,2.42,2.42,0,0,1-.91-.74,1,1,0,0,1,1.27-1.51,3.63,3.63,0,0,1,1.07.92,9.72,9.72,0,0,0,1.4,1.32.68.68,0,0,0,.58.16c.16,0,.25.06.36.13s.19.08.29,0A13,13,0,0,1,130.07,74c.1,0,.21,0,.31,0,.27,0,.52,0,.51-.4a.25.25,0,0,1,0-.12A1,1,0,0,0,131.23,72.59Z"/><path class="cls-6" d="M135.64,90.78a.88.88,0,0,1,1-.86c1.47.23,2.93.48,4.4.73a5.5,5.5,0,0,0,.67.11c.28,0,.26.14.18.34a11,11,0,0,1-1.43,2.54A10.74,10.74,0,0,1,138,96c-.16.1-.23.12-.31-.09-.62-1.51-1.25-3-1.87-4.52A1.62,1.62,0,0,1,135.64,90.78Z"/><path class="cls-6" d="M130.69,77c-.09,1.4-.17,2.77-.26,4.15a5.16,5.16,0,0,1-.06,1,.87.87,0,0,1-1.36.63c-.49-.3-.95-.65-1.42-1l-2.77-2c-.19-.13-.24-.21,0-.39a10.62,10.62,0,0,1,5.68-2.7C130.76,76.64,130.67,76.86,130.69,77Z"/><path class="cls-6" d="M121.39,87.16a10.79,10.79,0,0,1,1.42-5.3c.09-.17.16-.19.31-.06L126,84.34a9,9,0,0,1,1.05,1,.85.85,0,0,1-.38,1.42c-.56.21-1.14.35-1.71.52l-3.18.92c-.29.08-.3.07-.31-.22S121.4,87.37,121.39,87.16Z"/><path class="cls-6" d="M142.64,87.28c0,.24,0,.47,0,.71s-.06.26-.26.19l-3-.85-1.71-.5a2.32,2.32,0,0,1-.37-.13.87.87,0,0,1-.29-1.41c.45-.49,1-.9,1.47-1.35.78-.71,1.58-1.41,2.37-2.12.15-.15.22-.16.34,0a10.61,10.61,0,0,1,1.41,4.82A4,4,0,0,1,142.64,87.28Z"/><path class="cls-6" d="M132,97.83a11.5,11.5,0,0,1-3.13-.5c-.2-.06-.2-.14-.11-.29.82-1.48,1.63-3,2.46-4.44a.9.9,0,0,1,1.63,0c.29.49.56,1,.83,1.49.53,1,1.06,1.92,1.6,2.88.12.21.07.28-.15.34a10.2,10.2,0,0,1-2.63.44C132.32,97.79,132.16,97.82,132,97.83Z"/><path class="cls-6" d="M127.36,89.94c.73,0,1.14.5,1,1.14s-.54,1.35-.81,2c-.36.92-.76,1.82-1.13,2.74-.08.22-.16.24-.35.11a10.57,10.57,0,0,1-3.87-4.84c-.12-.29-.11-.29.2-.34l4.79-.82A1,1,0,0,1,127.36,89.94Z"/><path class="cls-6" d="M133.33,77.06c0-.39,0-.4.31-.35a10.63,10.63,0,0,1,5.2,2.37c.13.11.25.24.39.35s.13.2,0,.31c-.75.52-1.49,1.05-2.23,1.58s-1.21.87-1.82,1.29a.94.94,0,0,1-1.36-.12,1.43,1.43,0,0,1-.21-.83c-.06-1.1-.09-2.2-.17-3.3A10.08,10.08,0,0,0,133.33,77.06Z"/><polygon class="cls-6" points="131.35 85.76 130.52 86.8 130.82 88.09 132.01 88.67 133.21 88.09 133.5 86.8 132.68 85.76 131.35 85.76"/><path class="cls-7" d="M129.32,108.14c-3.07,0-6.14,0-9.21,0a3.64,3.64,0,0,1-3-1.5c-1.61-2-3.24-4.05-4.87-6.07l-5-6.27c-.52-.66-1-1.33-1.58-2a3.39,3.39,0,0,1-.73-3.14q1.81-7.8,3.6-15.62c.2-.87.39-1.74.61-2.61a3.12,3.12,0,0,1,1.74-2.15l8.38-4,8.63-4.13a3.47,3.47,0,0,1,3.14,0l15,7.18c.55.27,1.1.55,1.66.79a3.6,3.6,0,0,1,2.17,2.74c.88,3.94,1.8,7.87,2.71,11.8q.69,3,1.39,6a3.61,3.61,0,0,1-.87,3.29c-1.73,2.09-3.4,4.21-5.1,6.32s-3.53,4.39-5.29,6.58l-1.15,1.43a3.25,3.25,0,0,1-2.63,1.28C135.68,108.15,132.5,108.14,129.32,108.14Z"/><path class="cls-7" d="M128.58,70.47a17.72,17.72,0,0,0-.24-2.23,1.51,1.51,0,0,1,.28-1.34,1,1,0,0,1,1.69.31,2.35,2.35,0,0,1,0,1.34,10.72,10.72,0,0,0-.19,2.12.62.62,0,0,0,.1.4,1,1,0,0,1,.28.6c0,.13.15.13.25.14a13.34,13.34,0,0,1,6.62,2.64,15.64,15.64,0,0,1,1.44,1.26c.13.13.23.16.38,0a.33.33,0,0,1,.28-.13,1.25,1.25,0,0,0,1.05-.49c.42-.39.82-.79,1.2-1.22a2.15,2.15,0,0,1,1-.72,1,1,0,0,1,1.21.39,1.11,1.11,0,0,1-.13,1.27,3.41,3.41,0,0,1-1,.71,11.64,11.64,0,0,0-1.62,1.07.71.71,0,0,0-.35.58.48.48,0,0,1-.21.32c-.14.11-.15.2,0,.35a13.09,13.09,0,0,1,1.91,4.84,13.55,13.55,0,0,1,.13,4c0,.17,0,.25.18.28s.17,0,.21.1c.32.52.87.5,1.37.59.66.13,1.35.08,2,.22a1.32,1.32,0,0,1,.72.35,1,1,0,0,1,.29,1.07,1.1,1.1,0,0,1-1,.68,2.58,2.58,0,0,1-1.09-.24,11.64,11.64,0,0,0-2-.67.88.88,0,0,0-.74.08.31.31,0,0,1-.25,0c-.24-.08-.33,0-.4.27A13.23,13.23,0,0,1,138.31,95a10.79,10.79,0,0,1-1.87,1.41c-.18.11-.28.22-.16.44a.3.3,0,0,1,0,.23,1.09,1.09,0,0,0,.14.9,13.89,13.89,0,0,0,1.05,1.68,2.36,2.36,0,0,1,.45.91,1,1,0,0,1-.61,1.25,1.09,1.09,0,0,1-1.29-.49,3.89,3.89,0,0,1-.41-1,12.09,12.09,0,0,0-.69-1.85.79.79,0,0,0-.48-.45.33.33,0,0,1-.23-.2c-.08-.21-.2-.21-.39-.14a12.49,12.49,0,0,1-3.46.73,13.21,13.21,0,0,1-5.33-.7l-.2-.08c-.14-.06-.24,0-.3.11a.49.49,0,0,1-.36.31.65.65,0,0,0-.35.34,10.62,10.62,0,0,0-.74,2,2.71,2.71,0,0,1-.56,1.17,1,1,0,0,1-1.28.25,1.09,1.09,0,0,1-.44-1.29,3.54,3.54,0,0,1,.47-.88,11.82,11.82,0,0,0,1.09-1.8.74.74,0,0,0,.07-.63.42.42,0,0,1,0-.38c.12-.2,0-.29-.14-.39a13.34,13.34,0,0,1-2.64-2.16,13.05,13.05,0,0,1-2.89-4.71c-.09-.24-.17-.41-.46-.3a.21.21,0,0,1-.2,0,1.08,1.08,0,0,0-.91-.07,12.92,12.92,0,0,0-1.81.63,2.47,2.47,0,0,1-1.23.24,1,1,0,0,1-.47-1.83,2.32,2.32,0,0,1,1.2-.34,12.65,12.65,0,0,0,2.13-.26.8.8,0,0,0,.56-.36A.53.53,0,0,1,116,87c.15,0,.18-.11.16-.27a13.21,13.21,0,0,1,2-8.77c.12-.19.17-.32,0-.45a.28.28,0,0,1-.14-.22,1,1,0,0,0-.54-.76,12,12,0,0,0-1.6-1,2.61,2.61,0,0,1-.91-.74,1.06,1.06,0,0,1,0-1.28,1,1,0,0,1,1.22-.23,3.16,3.16,0,0,1,1.07.92,10.2,10.2,0,0,0,1.4,1.31.71.71,0,0,0,.59.17c.15,0,.25,0,.35.13a.19.19,0,0,0,.29,0,13,13,0,0,1,7.61-3.88l.32-.05c.26,0,.51,0,.5-.4a.18.18,0,0,1,0-.12A1,1,0,0,0,128.58,70.47Z"/><path class="cls-7" d="M133,88.67a.88.88,0,0,1,1-.87l4.41.73a4.93,4.93,0,0,0,.67.11c.27,0,.25.14.17.34a10.52,10.52,0,0,1-3.91,4.9c-.16.11-.23.12-.32-.09-.61-1.51-1.24-3-1.87-4.52A1.56,1.56,0,0,1,133,88.67Z"/><path class="cls-7" d="M128,74.87c-.08,1.4-.17,2.77-.25,4.14a7.89,7.89,0,0,1-.06,1,.88.88,0,0,1-1.36.63c-.5-.3-1-.66-1.43-1l-2.77-2c-.18-.13-.23-.2,0-.38a10.63,10.63,0,0,1,5.69-2.71C128.12,74.53,128,74.75,128,74.87Z"/><path class="cls-7" d="M118.74,85a10.93,10.93,0,0,1,1.42-5.3c.1-.16.17-.19.32,0l2.84,2.54a8.83,8.83,0,0,1,1.05,1,.87.87,0,0,1-.38,1.43c-.56.2-1.14.35-1.72.51l-3.18.92c-.28.09-.3.07-.31-.22S118.75,85.26,118.74,85Z"/><path class="cls-7" d="M140,85.17c0,.23-.05.47-.05.7s-.06.26-.27.2l-3-.85-1.72-.5a2.79,2.79,0,0,1-.37-.14.86.86,0,0,1-.29-1.4c.46-.49,1-.9,1.48-1.35.78-.72,1.58-1.42,2.36-2.13.16-.14.23-.16.34,0A10.54,10.54,0,0,1,140,84.56,6,6,0,0,1,140,85.17Z"/><path class="cls-7" d="M129.35,95.71a11.82,11.82,0,0,1-3.13-.49c-.2-.07-.2-.14-.12-.3.83-1.48,1.64-3,2.47-4.44a.89.89,0,0,1,1.62,0c.3.48.56,1,.84,1.49.53,1,1.05,1.92,1.59,2.87.12.21.07.29-.14.35a10.71,10.71,0,0,1-2.64.43Z"/><path class="cls-7" d="M124.71,87.82c.74,0,1.14.51,1,1.14a17.83,17.83,0,0,1-.8,2c-.37.92-.76,1.83-1.13,2.75-.09.21-.16.24-.36.1A10.59,10.59,0,0,1,119.52,89c-.12-.3-.12-.3.19-.35l4.79-.82Z"/><path class="cls-7" d="M130.68,74.94c0-.39,0-.4.32-.35A10.6,10.6,0,0,1,136.19,77c.14.11.25.25.39.35s.14.21,0,.31c-.74.53-1.48,1.06-2.23,1.58s-1.21.87-1.82,1.29a.93.93,0,0,1-1.36-.12,1.48,1.48,0,0,1-.2-.83c-.06-1.1-.1-2.2-.18-3.3A7.44,7.44,0,0,0,130.68,74.94Z"/><polygon class="cls-7" points="128.7 83.64 127.88 84.68 128.17 85.98 129.37 86.55 130.56 85.98 130.86 84.68 130.03 83.64 128.7 83.64"/><path class="cls-6" d="M238.49,196.39c-3.83,0-7.66,0-11.49,0a4.53,4.53,0,0,1-3.81-1.87c-2-2.55-4.05-5.05-6.07-7.58s-4.19-5.21-6.29-7.82c-.66-.82-1.29-1.65-2-2.45a4.24,4.24,0,0,1-.91-3.92q2.25-9.73,4.49-19.48c.25-1.08.48-2.17.75-3.25a3.93,3.93,0,0,1,2.18-2.69l10.45-5,10.77-5.15a4.28,4.28,0,0,1,3.91,0l18.73,9c.69.33,1.37.68,2.08,1a4.5,4.5,0,0,1,2.71,3.41c1.09,4.92,2.24,9.82,3.37,14.73.58,2.51,1.15,5,1.74,7.53a4.5,4.5,0,0,1-1.09,4.1c-2.15,2.61-4.24,5.26-6.36,7.89l-6.6,8.2c-.48.6-1,1.2-1.43,1.79a4.05,4.05,0,0,1-3.28,1.59C246.41,196.4,242.45,196.39,238.49,196.39Z"/><path class="cls-6" d="M237.56,149.4a23.45,23.45,0,0,0-.3-2.78,1.86,1.86,0,0,1,.34-1.67,1.23,1.23,0,0,1,2.11.38,2.91,2.91,0,0,1,0,1.68,13.68,13.68,0,0,0-.23,2.63.78.78,0,0,0,.12.5,1.28,1.28,0,0,1,.35.76c0,.16.19.16.32.17a16.64,16.64,0,0,1,8.24,3.29,19.31,19.31,0,0,1,1.81,1.58c.16.15.28.2.47,0a.39.39,0,0,1,.34-.16,1.55,1.55,0,0,0,1.32-.62,19.45,19.45,0,0,0,1.49-1.52,2.81,2.81,0,0,1,1.2-.89,1.3,1.3,0,0,1,1.51.48,1.38,1.38,0,0,1-.17,1.59,4.08,4.08,0,0,1-1.21.89,15.08,15.08,0,0,0-2,1.33.93.93,0,0,0-.44.73c0,.19-.14.29-.26.39a.29.29,0,0,0-.06.45,16.29,16.29,0,0,1,2.39,6,16.84,16.84,0,0,1,.16,5c0,.21,0,.31.23.35a.38.38,0,0,1,.26.13c.4.64,1.08.62,1.71.73.82.16,1.68.1,2.5.27a1.7,1.7,0,0,1,.9.44,1.2,1.2,0,0,1,.36,1.34,1.35,1.35,0,0,1-1.19.84,3.24,3.24,0,0,1-1.37-.29,14.48,14.48,0,0,0-2.48-.84,1.07,1.07,0,0,0-.92.1.38.38,0,0,1-.31.06c-.31-.09-.41.07-.5.33A16.51,16.51,0,0,1,249.7,180a14.63,14.63,0,0,1-2.33,1.75c-.24.14-.36.28-.21.55a.37.37,0,0,1,0,.29,1.4,1.4,0,0,0,.17,1.13,19.61,19.61,0,0,0,1.31,2.08,3.28,3.28,0,0,1,.56,1.14,1.33,1.33,0,0,1-.76,1.57,1.38,1.38,0,0,1-1.61-.62,5.39,5.39,0,0,1-.52-1.27,13.61,13.61,0,0,0-.85-2.31,1,1,0,0,0-.6-.56.41.41,0,0,1-.29-.25c-.09-.27-.25-.26-.48-.18a15.28,15.28,0,0,1-4.32.91,16.51,16.51,0,0,1-6.65-.87l-.25-.09c-.17-.08-.3-.05-.37.13a.63.63,0,0,1-.45.39.86.86,0,0,0-.44.42,14.27,14.27,0,0,0-.92,2.46,3.46,3.46,0,0,1-.69,1.46,1.29,1.29,0,0,1-1.61.31,1.36,1.36,0,0,1-.54-1.62,4,4,0,0,1,.59-1.09,14.17,14.17,0,0,0,1.35-2.24.92.92,0,0,0,.09-.79.54.54,0,0,1,0-.48c.15-.24,0-.35-.17-.48a16.74,16.74,0,0,1-3.3-2.69,16.42,16.42,0,0,1-3.61-5.88c-.11-.3-.21-.51-.57-.37a.28.28,0,0,1-.25-.05,1.34,1.34,0,0,0-1.14-.09,20.1,20.1,0,0,0-2.26.78,3,3,0,0,1-1.52.3,1.24,1.24,0,0,1-.59-2.28A2.82,2.82,0,0,1,218,171a16,16,0,0,0,2.67-.33,1,1,0,0,0,.69-.44.65.65,0,0,1,.43-.28c.19,0,.23-.14.21-.33a16.42,16.42,0,0,1,2.44-10.95c.14-.23.21-.39-.07-.55a.37.37,0,0,1-.16-.28,1.31,1.31,0,0,0-.68-.95,15.88,15.88,0,0,0-2-1.26,3,3,0,0,1-1.14-.93,1.26,1.26,0,0,1,1.59-1.88,4.2,4.2,0,0,1,1.33,1.15,12.29,12.29,0,0,0,1.74,1.64.87.87,0,0,0,.74.2c.19,0,.31.07.44.17a.23.23,0,0,0,.36,0,16.29,16.29,0,0,1,9.5-4.84c.13,0,.25,0,.38-.06.34,0,.65,0,.64-.49a.2.2,0,0,1,.05-.15A1.26,1.26,0,0,0,237.56,149.4Z"/><path class="cls-6" d="M243.06,172.09a1.1,1.1,0,0,1,1.26-1.07c1.83.29,3.66.6,5.49.91.28,0,.56.12.84.14s.32.17.22.42a13.66,13.66,0,0,1-1.78,3.16,13.37,13.37,0,0,1-3.1,2.95c-.2.13-.29.15-.4-.11q-1.16-2.82-2.33-5.64A2,2,0,0,1,243.06,172.09Z"/><path class="cls-6" d="M236.88,154.88c-.1,1.75-.21,3.46-.31,5.17a7,7,0,0,1-.08,1.21,1.08,1.08,0,0,1-1.69.78c-.62-.37-1.19-.82-1.78-1.23-1.15-.82-2.3-1.64-3.46-2.44-.23-.17-.29-.26,0-.48a13.06,13.06,0,0,1,7.08-3.37C237,154.46,236.87,154.73,236.88,154.88Z"/><path class="cls-6" d="M225.28,167.58a13.62,13.62,0,0,1,1.78-6.62c.12-.2.2-.23.39-.07,1.18,1.06,2.37,2.11,3.54,3.18a10.91,10.91,0,0,1,1.32,1.22,1.08,1.08,0,0,1-.48,1.78c-.7.25-1.42.44-2.14.64l-4,1.15c-.35.1-.37.08-.38-.28S225.3,167.84,225.28,167.58Z"/><path class="cls-6" d="M251.8,167.73c0,.29-.06.59-.06.88s-.08.32-.33.25c-1.23-.37-2.46-.72-3.69-1.07l-2.14-.62a3.61,3.61,0,0,1-.46-.17,1.08,1.08,0,0,1-.36-1.75c.56-.61,1.22-1.13,1.83-1.69,1-.89,2-1.76,3-2.65.19-.18.28-.2.42.05a13.31,13.31,0,0,1,1.77,6C251.75,167.23,251.81,167.47,251.8,167.73Z"/><path class="cls-6" d="M238.51,180.89a14.78,14.78,0,0,1-3.9-.63c-.25-.08-.25-.17-.14-.36,1-1.85,2-3.7,3.07-5.54a1.12,1.12,0,0,1,2,0c.37.61.7,1.24,1,1.86.66,1.2,1.32,2.4,2,3.59.15.26.09.36-.18.43a12.65,12.65,0,0,1-3.29.54Z"/><path class="cls-6" d="M232.73,171c.92,0,1.43.63,1.2,1.43a23.58,23.58,0,0,1-1,2.52c-.46,1.15-1,2.28-1.41,3.43-.11.26-.21.3-.45.13a13.16,13.16,0,0,1-4.82-6c-.14-.37-.14-.37.24-.43l6-1Z"/><path class="cls-6" d="M240.18,155c0-.48,0-.49.39-.43a13.26,13.26,0,0,1,6.48,3c.17.14.32.31.49.44s.17.26,0,.39l-2.79,2c-.75.54-1.5,1.09-2.27,1.61a1.16,1.16,0,0,1-1.69-.15,1.8,1.8,0,0,1-.26-1c-.08-1.38-.12-2.75-.22-4.12A11.5,11.5,0,0,0,240.18,155Z"/><polygon class="cls-6" points="237.71 165.83 236.68 167.13 237.05 168.74 238.54 169.46 240.03 168.74 240.4 167.13 239.37 165.83 237.71 165.83"/><path class="cls-7" d="M235.19,193.75c-3.83,0-7.66,0-11.49,0a4.53,4.53,0,0,1-3.81-1.87c-2-2.54-4-5-6.07-7.58s-4.19-5.21-6.29-7.82c-.66-.82-1.29-1.65-2-2.45a4.24,4.24,0,0,1-.91-3.92q2.25-9.74,4.49-19.48c.25-1.08.49-2.17.75-3.25a3.93,3.93,0,0,1,2.18-2.69l10.45-5,10.77-5.15a4.28,4.28,0,0,1,3.91,0l18.73,9c.69.33,1.38.68,2.08,1a4.5,4.5,0,0,1,2.71,3.42c1.09,4.91,2.24,9.81,3.37,14.72.58,2.51,1.15,5,1.74,7.54a4.49,4.49,0,0,1-1.09,4.09c-2.15,2.61-4.24,5.26-6.36,7.89l-6.6,8.2c-.48.6-.95,1.2-1.43,1.79a4,4,0,0,1-3.28,1.59C243.11,193.76,239.15,193.75,235.19,193.75Z"/><path class="cls-7" d="M234.26,146.76A23.69,23.69,0,0,0,234,144a1.89,1.89,0,0,1,.34-1.67,1.23,1.23,0,0,1,2.11.38,3,3,0,0,1,.05,1.68,13,13,0,0,0-.24,2.64.81.81,0,0,0,.12.5,1.22,1.22,0,0,1,.35.75c0,.16.19.16.32.18a16.53,16.53,0,0,1,8.24,3.28,19.31,19.31,0,0,1,1.81,1.58c.16.16.28.2.47,0a.41.41,0,0,1,.34-.16,1.55,1.55,0,0,0,1.32-.61c.52-.49,1-1,1.49-1.53a2.87,2.87,0,0,1,1.2-.89,1.3,1.3,0,0,1,1.51.48,1.38,1.38,0,0,1-.17,1.59,4.08,4.08,0,0,1-1.21.89,15.08,15.08,0,0,0-2,1.33.91.91,0,0,0-.43.73c0,.19-.14.29-.27.4a.28.28,0,0,0-.06.44,16.27,16.27,0,0,1,2.39,6,16.76,16.76,0,0,1,.16,5c0,.21,0,.31.23.35a.36.36,0,0,1,.26.13c.4.64,1.08.62,1.71.73.82.16,1.68.1,2.5.27a1.67,1.67,0,0,1,.9.44,1.2,1.2,0,0,1,.36,1.34,1.38,1.38,0,0,1-1.19.85,3.25,3.25,0,0,1-1.37-.3,14.48,14.48,0,0,0-2.48-.84,1.11,1.11,0,0,0-.92.1.38.38,0,0,1-.31.06c-.31-.09-.41.07-.5.33a16.51,16.51,0,0,1-4.56,6.91,14.63,14.63,0,0,1-2.33,1.75c-.24.14-.36.28-.21.55a.37.37,0,0,1,0,.29,1.37,1.37,0,0,0,.18,1.13,17.22,17.22,0,0,0,1.3,2.08,3.11,3.11,0,0,1,.56,1.14,1.32,1.32,0,0,1-.76,1.57,1.36,1.36,0,0,1-1.61-.62,5,5,0,0,1-.51-1.27,14.57,14.57,0,0,0-.86-2.31,1,1,0,0,0-.6-.56.41.41,0,0,1-.29-.25c-.09-.26-.25-.26-.48-.18a15.28,15.28,0,0,1-4.32.91,16.51,16.51,0,0,1-6.65-.87,2.5,2.5,0,0,1-.25-.09.24.24,0,0,0-.37.13.61.61,0,0,1-.45.39.79.79,0,0,0-.43.43,13.9,13.9,0,0,0-.93,2.45,3.46,3.46,0,0,1-.69,1.46,1.29,1.29,0,0,1-1.61.31,1.35,1.35,0,0,1-.54-1.61,4.17,4.17,0,0,1,.59-1.1,15,15,0,0,0,1.36-2.24,1,1,0,0,0,.08-.79.54.54,0,0,1,0-.48c.15-.24,0-.35-.17-.48a16.74,16.74,0,0,1-3.3-2.69,16.42,16.42,0,0,1-3.61-5.88c-.11-.3-.21-.51-.57-.37a.28.28,0,0,1-.25,0,1.34,1.34,0,0,0-1.14-.09,20.1,20.1,0,0,0-2.26.78,3,3,0,0,1-1.52.31,1.3,1.3,0,0,1-1.12-1,1.28,1.28,0,0,1,.53-1.32,2.73,2.73,0,0,1,1.49-.41,17.1,17.1,0,0,0,2.67-.34,1,1,0,0,0,.69-.44.65.65,0,0,1,.43-.28c.19,0,.23-.14.21-.33a16.49,16.49,0,0,1,2.44-11c.14-.22.21-.39-.07-.55a.37.37,0,0,1-.16-.28,1.31,1.31,0,0,0-.68-1,15.88,15.88,0,0,0-2-1.26,3.1,3.1,0,0,1-1.14-.92,1.27,1.27,0,0,1,1.59-1.89,4.2,4.2,0,0,1,1.33,1.15,12.85,12.85,0,0,0,1.74,1.64.87.87,0,0,0,.74.2c.19,0,.31.07.44.17a.23.23,0,0,0,.36,0,16.29,16.29,0,0,1,9.5-4.84c.13,0,.26-.05.39-.06.33,0,.64,0,.63-.49a.2.2,0,0,1,0-.15A1.26,1.26,0,0,0,234.26,146.76Z"/><path class="cls-7" d="M239.77,169.45a1.09,1.09,0,0,1,1.25-1.07c1.83.29,3.66.6,5.49.91.28,0,.56.12.84.14s.32.17.22.42a13.66,13.66,0,0,1-1.78,3.16,13.37,13.37,0,0,1-3.1,3c-.2.13-.29.15-.4-.11-.76-1.88-1.55-3.76-2.33-5.64A2,2,0,0,1,239.77,169.45Z"/><path class="cls-7" d="M233.59,152.24c-.11,1.75-.21,3.46-.32,5.17a7,7,0,0,1-.08,1.21,1.08,1.08,0,0,1-1.69.78c-.62-.37-1.19-.82-1.78-1.23-1.15-.82-2.3-1.64-3.46-2.44-.23-.17-.29-.26,0-.48a13.06,13.06,0,0,1,7.08-3.37C233.68,151.82,233.57,152.09,233.59,152.24Z"/><path class="cls-7" d="M222,164.94a13.53,13.53,0,0,1,1.77-6.62c.12-.2.2-.23.39-.07,1.18,1.06,2.37,2.11,3.54,3.18a10.23,10.23,0,0,1,1.32,1.23,1.07,1.07,0,0,1-.48,1.77c-.7.26-1.42.44-2.14.64l-4,1.15c-.35.1-.37.09-.38-.28S222,165.2,222,164.94Z"/><path class="cls-7" d="M248.5,165.09c0,.29-.06.59-.06.88s-.08.32-.33.25c-1.23-.37-2.46-.71-3.69-1.07l-2.14-.62a3.61,3.61,0,0,1-.46-.17,1.08,1.08,0,0,1-.36-1.75c.57-.61,1.22-1.13,1.84-1.69,1-.89,2-1.76,2.95-2.65.19-.17.28-.2.42,0a13.31,13.31,0,0,1,1.77,6A6.32,6.32,0,0,1,248.5,165.09Z"/><path class="cls-7" d="M235.21,178.25a14.78,14.78,0,0,1-3.9-.63c-.25-.07-.25-.17-.14-.36,1-1.85,2-3.7,3.07-5.54a1.12,1.12,0,0,1,2,.05c.37.61.7,1.24,1,1.86.66,1.2,1.32,2.4,2,3.59.15.26.09.36-.18.43a13.09,13.09,0,0,1-3.29.55C235.63,178.2,235.42,178.23,235.21,178.25Z"/><path class="cls-7" d="M229.44,168.4a1.09,1.09,0,0,1,1.19,1.43,23.58,23.58,0,0,1-1,2.52c-.46,1.15-.95,2.28-1.41,3.43-.11.27-.2.3-.44.13a13.12,13.12,0,0,1-4.83-6c-.14-.37-.14-.36.25-.43l6-1Z"/><path class="cls-7" d="M236.88,152.33c0-.48,0-.49.39-.43a13.35,13.35,0,0,1,6.48,2.95c.17.14.32.31.49.44s.17.26,0,.39l-2.79,2c-.75.54-1.5,1.09-2.27,1.61a1.16,1.16,0,0,1-1.69-.15,1.8,1.8,0,0,1-.26-1c-.08-1.37-.12-2.75-.22-4.12A10.19,10.19,0,0,0,236.88,152.33Z"/><polygon class="cls-7" points="234.41 163.19 233.38 164.49 233.75 166.1 235.24 166.82 236.73 166.1 237.1 164.49 236.07 163.19 234.41 163.19"/><path class="cls-8" d="M89.33,16.17a57.75,57.75,0,0,1,79.29,2.24"/><polygon class="cls-6" points="104.95 19.5 105.13 16.51 90.37 15.62 92.34 0.95 89.36 0.56 86.97 18.41 104.95 19.5"/><path class="cls-8" d="M200.46,239.05a57.73,57.73,0,0,0,79.28,2.23"/><polygon class="cls-6" points="279.71 256.9 276.74 256.5 278.71 241.85 263.94 240.95 264.13 237.95 282.11 239.05 279.71 256.9"/><ellipse class="cls-9" cx="78.64" cy="328.16" rx="42.25" ry="8.77"/><path class="cls-10" d="M1,226.48S42.63,259,62.7,261.15L49.82,280S8.11,255.61,1,226.48Z"/><path class="cls-6" d="M57,269.57s-42-21-55.77-42.9c0,0,43.69,35.07,61.51,34.5Z"/><path class="cls-11" d="M103,316.65c5.17-8.44,10.78-18.44,10-34.47-.67-14-14.4-35.9-14.4-35.9L81.42,159l-16.89-3.68-8.25,110,7.15,1.89s-32.17-8.17-32.18-8.2l-4.1,8.52c1.28,1.92,10.38,34.31,28.83,35.67,11.48.86,18.35-2.75,25.25-12.36a73.41,73.41,0,0,0,5.26-8.54l2.72-5.72c-.84,2-1.74,3.86-2.72,5.72l-1.38,2.89,10.32,30.38Z"/><path class="cls-5" d="M17.14,257.58A19.46,19.46,0,0,0,15,259.91h0a18,18,0,0,0-1.32,1.59c-2.26,3.05-3.14,6.23-2,7.1a1.23,1.23,0,0,0,.57.21c1.08.12,2.76-.91,4.38-2.64.18-.28.38-.56.58-.84a16.59,16.59,0,0,1,1.28-1.54c-.18.29-.38.57-.59.85a16.63,16.63,0,0,1-1.27,1.53c-1.57,2.39-2.25,4.72-1.73,5.83a1.16,1.16,0,0,0,.35.44,1.66,1.66,0,0,0,1.57.05A9.42,9.42,0,0,0,20.2,270c.18-.28.38-.57.58-.85a16.43,16.43,0,0,1,1.28-1.53c-.18.28-.38.56-.58.84A18.67,18.67,0,0,1,20.2,270a15,15,0,0,0-1.29,2.4c-.75,1.8-.83,3.3-.09,3.85,1.18.87,4-.9,6.22-4,1.13-1.52,3-4.76,3-4.76,1.43-2.32,3.31-4.75,3.82-8.57a5.77,5.77,0,0,0-1.13-4C28,252,21.94,253.18,17.14,257.58Z"/><path class="cls-5" d="M99.31,328.69a18,18,0,0,0,2.59,1.83h0a16.4,16.4,0,0,0,1.75,1.11c3.32,1.84,6.59,2.3,7.29,1a1.2,1.2,0,0,0,.14-.59c0-1.09-1.26-2.62-3.19-4-.29-.15-.6-.3-.9-.47a16.92,16.92,0,0,1-1.69-1.07c.3.15.61.3.91.47a16.74,16.74,0,0,1,1.68,1.07c2.58,1.24,5,1.62,6,.95a1.15,1.15,0,0,0,.39-.4,1.66,1.66,0,0,0-.15-1.56,9.32,9.32,0,0,0-2.89-3c-.31-.14-.61-.3-.92-.47a18,18,0,0,1-1.68-1.07l.91.47a18.15,18.15,0,0,1,1.69,1.07,15.43,15.43,0,0,0,2.55,1c1.88.5,3.38.39,3.82-.42.72-1.28-1.4-3.81-4.72-5.65-1.66-.92-5.12-2.37-5.12-2.37-2.48-1.11-5.14-2.66-9-2.67A5.73,5.73,0,0,0,95,315.55C92.37,318.62,94.32,324.5,99.31,328.69Z"/><polygon class="cls-12" points="89.15 276.69 95.47 315.78 85.12 285.31 89.15 276.69"/><polygon class="cls-13" points="63.28 267.49 67.3 158.27 64.31 158.27 56.38 265.19 63.28 267.49"/><path class="cls-10" d="M63.46,161.72a13.12,13.12,0,0,0,5.42,1.49l.57,0a14.84,14.84,0,0,0,8.06-1.67,19.26,19.26,0,0,0,5.28-3.8c6.74-6.66,9.61-11.1,8-16.27-.74-2.46-2.1-4.21-3.59-4.73-7.56-2.63-13.18-5-19.44-3.52h0A26.81,26.81,0,0,0,62,136.12l-.19.12A13.77,13.77,0,0,0,58.68,140a19.72,19.72,0,0,0-2,12.43A12.83,12.83,0,0,0,63.46,161.72Z"/><path class="cls-14" d="M58.49,141.19a2.8,2.8,0,0,1,.14-.25c1.11-1.82,3.11-5.15,4.73-6.56a3.5,3.5,0,0,0-3.3-.69C58.08,134.49,57.46,137.71,58.49,141.19Z"/><path class="cls-15" d="M71.48,167.07c1.55-.29,2.63-2,3-4.33l-.7.17a16.32,16.32,0,0,1-7,.17C67.81,165.74,69.71,167.41,71.48,167.07Z"/><circle class="cls-14" cx="73.73" cy="138.24" r="1.23"/><ellipse class="cls-14" cx="87.52" cy="140.82" rx="2.85" ry="3.79" transform="translate(-36.74 31.05) rotate(-16.68)"/><circle class="cls-14" cx="74.69" cy="146.44" r="1.23"/></g></g></svg>