<svg xmlns="http://www.w3.org/2000/svg" viewBox="0 0 345.21 313.14"><defs><style>.cls-1,.cls-11,.cls-12,.cls-6,.cls-7,.cls-8{fill:#3f3a37;}.cls-1{opacity:0.05;}.cls-2{fill:#2dfefe;opacity:0.3;}.cls-15,.cls-3{fill:#fff;}.cls-10,.cls-13,.cls-14,.cls-15,.cls-3,.cls-4,.cls-5,.cls-8,.cls-9{stroke:#3f3a37;}.cls-10,.cls-13,.cls-15,.cls-3,.cls-6,.cls-8,.cls-9{stroke-linecap:round;}.cls-10,.cls-13,.cls-14,.cls-15,.cls-3,.cls-6,.cls-7,.cls-8,.cls-9{stroke-linejoin:round;}.cls-10,.cls-14,.cls-3,.cls-4,.cls-6,.cls-7,.cls-8,.cls-9{stroke-width:2px;}.cls-4,.cls-5,.cls-9{fill:#86fed4;}.cls-4,.cls-5{stroke-miterlimit:10;}.cls-6,.cls-7{stroke:#fff;}.cls-10,.cls-13,.cls-14{fill:none;}.cls-12{font-size:11.07px;font-family:Montserrat-SemiBold, Montserrat;font-weight:600;}.cls-13,.cls-15{stroke-width:3px;stroke-dasharray:0 8;}</style></defs><title>Asset 47</title><g id="Layer_2" data-name="Layer 2"><g id="Layer_1-2" data-name="Layer 1"><polygon class="cls-1" points="305.61 197.55 217.28 258.94 0 134.82 168.52 86.77 305.61 197.55"/><polygon class="cls-2" points="327.65 187.91 239.33 249.3 22.04 125.17 190.56 77.13 327.65 187.91"/><path class="cls-3" d="M187.88,283.18l-.34-27.06a2.46,2.46,0,0,0-2.07-2.4,2.86,2.86,0,0,0-.42,0l-14.73.18a.65.65,0,0,0,.2,0l-4.15.05a5.26,5.26,0,0,1-5.3-5.17l-.41-33.07c0-1,2-1.91,4.37-1.93s4.41.79,4.42,1.82v0l.34,27.06a2.46,2.46,0,0,0,2.07,2.4,1.93,1.93,0,0,0,.42,0L187,245a.66.66,0,0,0-.24,0l4.19-.06a5.27,5.27,0,0,1,5.3,5.17l.41,33.07c0-1-2-1.86-4.42-1.83S187.89,282.16,187.88,283.18Z"/><ellipse class="cls-4" cx="192.13" cy="282.97" rx="4.4" ry="1.88" transform="translate(-7.31 5.1) rotate(-1.49)"/><path class="cls-3" d="M140.88,192.34l-27.06.75a2.46,2.46,0,0,0-2.37,2.11c0,.13,0,.28,0,.42l.41,14.73a1.52,1.52,0,0,0,0-.21l.11,4.15a5.26,5.26,0,0,1-5.09,5.38l-33.06.91c-1,0-1.93-1.92-2-4.34s.72-4.42,1.75-4.45h0l27.06-.75a2.45,2.45,0,0,0,2.36-2.11,2.86,2.86,0,0,0,0-.42l-.41-14.72a1,1,0,0,0,0,.24l-.12-4.18a5.27,5.27,0,0,1,5.1-5.39l33.05-.91c-1,0-1.83,2-1.76,4.45S139.85,192.34,140.88,192.34Z"/><ellipse class="cls-5" cx="140.78" cy="187.95" rx="1.88" ry="4.4" transform="translate(-5.13 3.96) rotate(-1.58)"/><rect class="cls-6" x="127.34" y="170.74" width="49.66" height="49.66"/><polygon class="cls-6" points="201.83 145.91 177 170.74 127.33 170.74 152.17 145.91 201.83 145.91"/><polygon class="cls-7" points="201.83 145.91 201.83 195.57 177 220.4 177 170.74 201.83 145.91"/><path class="cls-3" d="M143.52,131.69h14.26a2.46,2.46,0,0,1,2.46,2.46v27.09c0,1,2,1.88,4.4,1.88s4.39-.84,4.39-1.88V128.17a5.26,5.26,0,0,0-5.24-5.24h-20.5c1,0,1.88,2,1.88,4.4C145.17,129.57,144.46,131.42,143.52,131.69Z"/><path class="cls-8" d="M143.28,131.72a.93.93,0,0,0,.24,0c.93-.27,1.65-2.13,1.65-4.36,0-2.43-.84-4.4-1.89-4.4s-1.88,2-1.88,4.4c0,2.23.72,4.09,1.65,4.36A.91.91,0,0,0,143.28,131.72Z"/><path class="cls-3" d="M133.71,123H119.45a2.46,2.46,0,0,1-2.46-2.45V93.45c0-1-2-1.88-4.4-1.88s-4.39.84-4.39,1.88v33.07a5.26,5.26,0,0,0,5.23,5.24h20.51c-1,0-1.88-2-1.88-4.4C132.06,125.13,132.77,123.27,133.71,123Z"/><path class="cls-9" d="M133.94,123a.62.62,0,0,0-.23,0c-.93.26-1.65,2.12-1.65,4.35,0,2.43.84,4.4,1.88,4.4s1.89-2,1.89-4.4c0-2.23-.72-4.09-1.65-4.35A.64.64,0,0,0,133.94,123Z"/><path class="cls-3" d="M219.15,295.79h14.26a2.46,2.46,0,0,0,2.46-2.46V266.24c0-1,2-1.88,4.4-1.88s4.4.84,4.4,1.88v33.07a5.26,5.26,0,0,1-5.24,5.24H218.92c1,0,1.88-2,1.88-4.4C220.8,297.91,220.09,296.06,219.15,295.79Z"/><path class="cls-8" d="M218.92,295.76a1.05,1.05,0,0,1,.24,0c.93.27,1.64,2.13,1.64,4.36,0,2.43-.84,4.4-1.88,4.4s-1.89-2-1.89-4.4c0-2.23.72-4.09,1.65-4.36A.93.93,0,0,1,218.92,295.76Z"/><ellipse class="cls-4" cx="73.96" cy="216.04" rx="2" ry="4.3" transform="matrix(1, -0.03, 0.03, 1, -5.6, 2)"/><rect class="cls-6" x="218.34" y="233.79" width="28.19" height="28.19"/><polygon class="cls-6" points="260.63 219.7 246.53 233.79 218.34 233.79 232.44 219.7 260.63 219.7"/><polygon class="cls-7" points="260.63 219.7 260.63 247.88 246.53 261.98 246.53 233.79 260.63 219.7"/><path class="cls-3" d="M264,159.82l-.71,27.05a2.44,2.44,0,0,1-2.1,2.37,2.86,2.86,0,0,1-.42,0L246,188.88l.21,0-4.15-.11a5.26,5.26,0,0,0-5.37,5.1l-.86,33.06c0,1,1.92,1.94,4.34,2s4.42-.72,4.45-1.76v0l.71-27a2.44,2.44,0,0,1,2.1-2.37,1.93,1.93,0,0,1,.42,0l14.73.38a.69.69,0,0,1-.24,0l4.18.12a5.26,5.26,0,0,0,5.37-5.1l.86-33.06c0,1-2,1.83-4.44,1.77S264,160.84,264,159.82Z"/><ellipse class="cls-5" cx="268.38" cy="159.9" rx="1.88" ry="4.4" transform="translate(101.54 424.02) rotate(-88.51)"/><rect class="cls-6" x="244.78" y="140.32" width="34.34" height="34.34"/><polygon class="cls-6" points="296.29 123.16 279.12 140.32 244.78 140.32 261.95 123.16 296.29 123.16"/><polygon class="cls-7" points="296.29 123.16 296.29 157.49 279.12 174.66 279.12 140.32 296.29 123.16"/><path class="cls-3" d="M254.28,158.66H227.21a2.45,2.45,0,0,0-2.42,2.05,1.78,1.78,0,0,0,0,.41v14.74a.76.76,0,0,0,0-.21v4.15a5.26,5.26,0,0,1-5.24,5.24H186.48c-1,0-1.88-2-1.88-4.4s.84-4.4,1.88-4.39h27.09a2.46,2.46,0,0,0,2.43-2,1.93,1.93,0,0,0,0-.42V159.05a1.05,1.05,0,0,0,0,.24v-4.18a5.25,5.25,0,0,1,5.23-5.24H254.3c-1,0-1.88,2-1.88,4.4S253.25,158.63,254.28,158.66Z"/><ellipse class="cls-5" cx="254.3" cy="154.27" rx="1.88" ry="4.4"/><path class="cls-3" d="M248.82,62.45l.11,27.07a2.46,2.46,0,0,0,2,2.42,2.86,2.86,0,0,0,.42,0l14.73-.06a.69.69,0,0,0-.2,0l4.14,0a5.26,5.26,0,0,1,5.26,5.22l.13,33.07c0,1-2,1.89-4.39,1.89s-4.4-.82-4.4-1.86v0l-.11-27.06a2.46,2.46,0,0,0-2.05-2.42,1.93,1.93,0,0,0-.42,0l-14.73,0a.67.67,0,0,0,.24,0l-4.19,0a5.26,5.26,0,0,1-5.25-5.22L240,62.46c0,1,2,1.88,4.4,1.87S248.8,63.48,248.82,62.45Z"/><ellipse class="cls-5" cx="244.43" cy="62.45" rx="4.4" ry="1.88" transform="translate(-0.24 0.94) rotate(-0.22)"/><path class="cls-3" d="M327.83,149.31l-.11,20.5c0-.11-.07,70.88-.07,70.88H319s-.05-71.21-.07-71.15l.07-14.26a2.48,2.48,0,0,0-2.44-2.48l-27.09-.14c-1,0-1.88-2-1.87-4.41s.87-4.39,1.91-4.38l33.07.18A5.24,5.24,0,0,1,327.83,149.31Z"/><ellipse class="cls-4" cx="323.35" cy="240.54" rx="4.4" ry="1.88"/><circle class="cls-3" cx="52.96" cy="214.56" r="13.09"/><line class="cls-10" x1="52.96" y1="214.87" x2="52.96" y2="206.77"/><polygon class="cls-11" points="55.45 207.5 52.96 203.18 50.47 207.5 55.45 207.5"/><line class="cls-10" x1="53.4" y1="214.87" x2="58.42" y2="214.87"/><polygon class="cls-11" points="57.69 217.36 62.01 214.87 57.69 212.37 57.69 217.36"/><ellipse class="cls-9" cx="204.67" cy="300.18" rx="7.99" ry="9.53"/><ellipse class="cls-9" cx="200.31" cy="300.18" rx="7.99" ry="9.53"/><ellipse class="cls-3" cx="195.96" cy="300.18" rx="7.99" ry="9.53"/><text class="cls-12" transform="translate(190.71 303.89)">€</text><path class="cls-13" d="M111.11,78.39c0-9.61,10-9.62,10-19.23s-10-9.6-10-19.21,10-9.63,10-19.24-10-9.6-10-19.21"/><path d="M259.48,56.63A9.86,9.86,0,0,1,261.12,54a29.6,29.6,0,0,1,2.56-2.5,21.28,21.28,0,0,0,3.25-3.44,4.5,4.5,0,0,0,.38-.64A6.45,6.45,0,0,0,264.85,39a10.77,10.77,0,0,0-5.42-1.21,14.72,14.72,0,0,0-5.66,1,10.94,10.94,0,0,0-3.7,2.56.73.73,0,0,1-1,.08l-.67-.52a.73.73,0,0,1-.1-1.06q4-4.26,11.26-4.26a12.84,12.84,0,0,1,8,2.27,7.3,7.3,0,0,1,3,6.09,9,9,0,0,1-.66,3.58,10.06,10.06,0,0,1-1.61,2.64,28.36,28.36,0,0,1-2.57,2.52A30.77,30.77,0,0,0,263.34,55a8.54,8.54,0,0,0-1.42,2.22,6.81,6.81,0,0,0-.56,2.34.74.74,0,0,1-.75.67h-1.06a.73.73,0,0,1-.73-.75A8.28,8.28,0,0,1,259.48,56.63Z"/><path d="M258.65,69.64a2,2,0,0,1,1.42-3.42,2,2,0,0,1,1.46.59,2,2,0,0,1,0,2.83,2,2,0,0,1-1.46.59A1.93,1.93,0,0,1,258.65,69.64Z"/><line class="cls-14" x1="33.11" y1="192.11" x2="38.03" y2="200.11"/><line class="cls-14" x1="22.27" y1="215.17" x2="31.65" y2="215.17"/><line class="cls-14" x1="33.11" y1="235.77" x2="38.03" y2="227.78"/><path class="cls-15" d="M322.73,248.07c-5.22.38-10.46,11.92-7.38,19.06,1.47,3.41,3.92,3.71,4.31,6.77.55,4.39-4.18,6.41-6.77,11.68-3.33,6.79-2.77,18.24,4.31,23.37,5.88,4.26,14.91,3.18,20.29-1.23,7.79-6.4,7.6-19.54,3.07-27.06-4.32-7.18-11.65-7.68-12.3-14.14-.47-4.73,3.2-6.95,1.85-11.69C329.1,251.33,325.74,247.85,322.73,248.07Z"/></g></g></svg>