<svg xmlns="http://www.w3.org/2000/svg" xmlns:xlink="http://www.w3.org/1999/xlink" viewBox="0 0 376.74 311.12"><defs><style>.cls-1,.cls-12,.cls-2{fill:none;}.cls-10,.cls-11,.cls-12,.cls-13,.cls-2,.cls-6,.cls-7,.cls-8,.cls-9{stroke:#3f3a37;}.cls-12,.cls-13,.cls-2,.cls-6{stroke-linecap:round;}.cls-10,.cls-12,.cls-13,.cls-2,.cls-6,.cls-8{stroke-linejoin:round;}.cls-11,.cls-13,.cls-2,.cls-6,.cls-7,.cls-8{stroke-width:2px;}.cls-12,.cls-2{stroke-dasharray:0 8;}.cls-3,.cls-7{fill:#2dfefe;}.cls-3{opacity:0.3;}.cls-4{fill:url(#small_dots);}.cls-10,.cls-5,.cls-9{fill:#3f3a37;}.cls-11,.cls-6,.cls-8{fill:#fff;}.cls-11,.cls-7,.cls-9{stroke-miterlimit:10;}.cls-12{stroke-width:3px;}.cls-13{fill:#86fed4;}</style><pattern id="small_dots" data-name="small dots" width="8" height="8" patternUnits="userSpaceOnUse" viewBox="0 0 8 8"><rect class="cls-1" width="8" height="8"/><circle class="cls-2" cx="4" cy="4" r="1"/></pattern></defs><title>Asset 48</title><g id="Layer_2" data-name="Layer 2"><g id="Layer_1-2" data-name="Layer 1"><polygon class="cls-3" points="23.94 231.57 125.9 302.44 376.74 159.15 182.2 103.68 23.94 231.57"/><polygon class="cls-4" points="14.71 212.4 116.68 283.28 367.51 139.98 172.97 84.52 14.71 212.4"/><path class="cls-5" d="M181.14,174.4c-4.12,0-8.24,0-12.36,0a4.88,4.88,0,0,1-4.1-2c-2.15-2.73-4.35-5.43-6.53-8.14l-6.76-8.42c-.71-.88-1.4-1.77-2.13-2.64a4.53,4.53,0,0,1-1-4.21q2.43-10.47,4.83-20.95c.27-1.17.52-2.34.81-3.51a4.19,4.19,0,0,1,2.34-2.89c3.74-1.8,7.49-3.58,11.24-5.37l11.58-5.55a4.63,4.63,0,0,1,4.21,0l20.16,9.64c.74.36,1.47.73,2.23,1.06a4.8,4.8,0,0,1,2.91,3.67c1.18,5.29,2.42,10.56,3.63,15.84.62,2.7,1.24,5.41,1.88,8.11a4.81,4.81,0,0,1-1.18,4.4c-2.31,2.81-4.56,5.66-6.84,8.49s-4.73,5.89-7.1,8.83l-1.54,1.92a4.34,4.34,0,0,1-3.53,1.71C189.66,174.41,185.4,174.4,181.14,174.4Z"/><path class="cls-5" d="M180.14,123.85a24.71,24.71,0,0,0-.32-3,2,2,0,0,1,.37-1.8,1.33,1.33,0,0,1,2.27.4,3.1,3.1,0,0,1,0,1.81,15,15,0,0,0-.25,2.84.85.85,0,0,0,.14.54,1.41,1.41,0,0,1,.37.81c0,.18.2.18.34.19a17.78,17.78,0,0,1,8.87,3.54,19.4,19.4,0,0,1,1.94,1.69c.18.17.31.22.5.05a.49.49,0,0,1,.38-.18,1.64,1.64,0,0,0,1.41-.66,20.64,20.64,0,0,0,1.61-1.63,3,3,0,0,1,1.29-1,1.36,1.36,0,0,1,1.62.52,1.46,1.46,0,0,1-.18,1.7,4.39,4.39,0,0,1-1.3,1,14.88,14.88,0,0,0-2.18,1.43,1,1,0,0,0-.47.78.58.58,0,0,1-.29.43.31.31,0,0,0-.06.48,17.45,17.45,0,0,1,2.57,6.48,18.38,18.38,0,0,1,.17,5.34c0,.22,0,.33.24.37s.23,0,.28.14c.44.69,1.17.66,1.84.79.89.16,1.81.1,2.7.29a1.74,1.74,0,0,1,1,.47,1.31,1.31,0,0,1,.38,1.44,1.48,1.48,0,0,1-1.28.91,3.54,3.54,0,0,1-1.47-.32,16.8,16.8,0,0,0-2.67-.91,1.23,1.23,0,0,0-1,.11.36.36,0,0,1-.33.06c-.33-.09-.44.08-.54.37a17.81,17.81,0,0,1-4.91,7.43,15.36,15.36,0,0,1-2.51,1.88c-.25.15-.38.3-.22.59a.38.38,0,0,1,0,.31,1.5,1.5,0,0,0,.19,1.22,20,20,0,0,0,1.4,2.24,3.34,3.34,0,0,1,.61,1.22,1.43,1.43,0,0,1-.82,1.69,1.47,1.47,0,0,1-1.73-.67,5.57,5.57,0,0,1-.56-1.36,14.47,14.47,0,0,0-.92-2.48,1.06,1.06,0,0,0-.65-.61.43.43,0,0,1-.3-.27c-.1-.28-.27-.28-.52-.19a16.85,16.85,0,0,1-4.65,1,17.74,17.74,0,0,1-7.15-.94l-.27-.1a.26.26,0,0,0-.4.15.68.68,0,0,1-.48.42.83.83,0,0,0-.47.45,14.74,14.74,0,0,0-1,2.64,3.85,3.85,0,0,1-.75,1.58,1.4,1.4,0,0,1-1.73.33,1.47,1.47,0,0,1-.58-1.74,4.47,4.47,0,0,1,.63-1.18,15.94,15.94,0,0,0,1.46-2.41,1,1,0,0,0,.09-.85.57.57,0,0,1,0-.51c.15-.26,0-.39-.19-.52a18,18,0,0,1-3.55-2.9,17.58,17.58,0,0,1-3.88-6.32c-.12-.32-.22-.55-.61-.4a.28.28,0,0,1-.27-.05,1.44,1.44,0,0,0-1.23-.1,21.14,21.14,0,0,0-2.43.84,3.21,3.21,0,0,1-1.64.33,1.39,1.39,0,0,1-1.2-1,1.36,1.36,0,0,1,.57-1.41,2.87,2.87,0,0,1,1.61-.46,17.19,17.19,0,0,0,2.86-.35,1.13,1.13,0,0,0,.75-.48.71.71,0,0,1,.46-.3c.2-.05.25-.15.22-.36a17.73,17.73,0,0,1,2.63-11.77c.16-.25.23-.43-.07-.6a.38.38,0,0,1-.18-.3,1.38,1.38,0,0,0-.73-1,17.17,17.17,0,0,0-2.14-1.36,3.18,3.18,0,0,1-1.22-1,1.36,1.36,0,0,1,1.7-2,4.51,4.51,0,0,1,1.44,1.24,13,13,0,0,0,1.87,1.76,1,1,0,0,0,.79.22c.21,0,.34.08.48.18a.25.25,0,0,0,.39,0,17.43,17.43,0,0,1,10.21-5.21l.42-.06c.36,0,.69,0,.68-.53a.25.25,0,0,1,.06-.17A1.32,1.32,0,0,0,180.14,123.85Z"/><path class="cls-5" d="M186.07,148.26a1.18,1.18,0,0,1,1.34-1.16l5.92,1c.3,0,.6.13.9.15s.34.19.23.46a14.24,14.24,0,0,1-5.25,6.57c-.21.14-.31.16-.43-.12-.82-2-1.66-4-2.5-6.06A2.16,2.16,0,0,1,186.07,148.26Z"/><path class="cls-5" d="M179.42,129.75c-.12,1.87-.23,3.71-.34,5.55a9.6,9.6,0,0,1-.08,1.31,1.18,1.18,0,0,1-1.83.84c-.66-.4-1.28-.88-1.91-1.33-1.24-.88-2.47-1.76-3.72-2.63-.25-.17-.31-.27,0-.51a14.18,14.18,0,0,1,7.62-3.63C179.52,129.29,179.4,129.58,179.42,129.75Z"/><path class="cls-5" d="M166.94,143.4a14.56,14.56,0,0,1,1.91-7.11c.12-.22.22-.26.41-.08,1.27,1.14,2.55,2.27,3.82,3.42a11.72,11.72,0,0,1,1.41,1.32,1.15,1.15,0,0,1-.52,1.91c-.75.27-1.52.47-2.29.69l-4.27,1.24c-.38.1-.4.08-.42-.3S167,143.69,166.94,143.4Z"/><path class="cls-5" d="M195.46,143.57c0,.31-.07.63-.07,1s-.08.34-.35.26l-4-1.15-2.3-.66a3,3,0,0,1-.5-.19,1.16,1.16,0,0,1-.38-1.88c.61-.66,1.31-1.21,2-1.81,1-1,2.13-1.9,3.18-2.86.21-.19.3-.21.46.06a14.16,14.16,0,0,1,1.89,6.47A5.42,5.42,0,0,1,195.46,143.57Z"/><path class="cls-5" d="M181.17,157.72a15.75,15.75,0,0,1-4.2-.67c-.27-.08-.27-.18-.15-.39,1.1-2,2.19-4,3.31-6a1.19,1.19,0,0,1,2.18.06c.39.65.75,1.33,1.12,2,.71,1.29,1.41,2.58,2.14,3.86.16.28.09.38-.2.46a14.1,14.1,0,0,1-3.53.59C181.61,157.67,181.39,157.7,181.17,157.72Z"/><path class="cls-5" d="M175,147.13c1,0,1.53.68,1.29,1.53a26.53,26.53,0,0,1-1.08,2.72c-.49,1.24-1,2.46-1.52,3.69-.11.28-.22.32-.47.14a14.08,14.08,0,0,1-5.19-6.49c-.16-.39-.15-.39.26-.46l6.43-1.1Z"/><path class="cls-5" d="M183,129.84c0-.51,0-.53.43-.47a14.5,14.5,0,0,1,7,3.18c.18.15.33.33.52.48s.18.27,0,.42l-3,2.12c-.81.57-1.62,1.16-2.45,1.73a1.25,1.25,0,0,1-1.82-.16,1.92,1.92,0,0,1-.27-1.12c-.08-1.47-.13-3-.24-4.43A11.64,11.64,0,0,0,183,129.84Z"/><polygon class="cls-5" points="180.31 141.53 179.2 142.92 179.59 144.66 181.2 145.43 182.8 144.66 183.2 142.92 182.09 141.53 180.31 141.53"/><path class="cls-5" d="M72.43,115c1.41,1.57-.44,5.58-4.17,9.1l.54.37c3.92-3.4,8.16-4.86,9.6-3.27s-.5,5.7-4.32,9.26a4.14,4.14,0,0,1,.29.55h0c4-3.62,8.5-5.23,10-3.59s-.59,5.91-4.62,9.53a16.88,16.88,0,0,1-7.1,4.1c-3,1.06-7.69-.79-11.24-4.75-2.77-3.07-4.19-6.63-4-9.45v-.12c0-2.06,1.93-5.3,5.1-8.14C66.48,115,71,113.39,72.43,115Z"/><path class="cls-5" d="M206.12,169.18c1.36-1.62,5.58-.34,9.59,2.85.09-.19.19-.39.3-.58-3.92-3.41-6-7.41-4.59-9s5.72-.3,9.77,3c.17-.14.34-.26.51-.38h0c-4.14-3.49-6.36-7.69-4.94-9.37s5.94-.24,10.09,3.25a16.82,16.82,0,0,1,5,6.45c1.47,2.88.28,7.73-3.14,11.8-2.65,3.16-6,5.07-8.79,5.31l-.12,0c-2,.31-5.52-1.17-8.77-3.91C206.91,175.07,204.69,170.87,206.12,169.18Z"/><path class="cls-6" d="M166.41,308.2,166,277a2.85,2.85,0,0,0-2.4-2.77,3.75,3.75,0,0,0-.48,0l-17,.21a1,1,0,0,0,.24,0l-4.79.06a6.08,6.08,0,0,1-6.12-6L135,230.32c0-1.21,2.25-2.21,5-2.24s5.09.91,5.1,2.11v0l.4,31.24a2.83,2.83,0,0,0,2.39,2.77,2.52,2.52,0,0,0,.48,0l17-.21a.9.9,0,0,0-.28,0L170,264a6.06,6.06,0,0,1,6.12,6l.47,38.17c0-1.21-2.3-2.15-5.1-2.11S166.43,307,166.41,308.2Z"/><ellipse class="cls-7" cx="171.31" cy="307.94" rx="5.07" ry="2.17" transform="translate(-7.96 4.57) rotate(-1.49)"/><path class="cls-5" d="M158.35,237.92c2.09-.34,4.45,3.4,5.39,8.43l.61-.24c-.74-5.15.33-9.5,2.45-9.85s4.52,3.51,5.44,8.65c.21,0,.42,0,.62.05a0,0,0,0,0,0,0c-.86-5.35.21-10,2.39-10.32s4.65,3.7,5.51,9a17,17,0,0,1-.4,8.18c-.77,3.14-4.84,6-10.09,6.88-4.08.66-7.84-.08-10.13-1.73l-.1-.07c-1.74-1.09-3.41-4.49-4.08-8.69C155.1,242.9,156.16,238.27,158.35,237.92Z"/><polygon class="cls-8" points="248.01 301.02 231.61 219.17 211.18 222.53 199.99 301.02 248.01 301.02"/><polygon class="cls-5" points="231.61 219.17 232.31 301.02 248.26 301.02 231.61 219.17"/><polygon class="cls-8" points="23.94 259.14 40.34 177.29 60.77 180.64 71.96 259.14 23.94 259.14"/><polygon class="cls-5" points="40.98 177.29 40.28 259.14 24.33 259.14 40.98 177.29"/><path class="cls-8" d="M46.4,187.2a17.25,17.25,0,0,0,7.41.26l.74-.14a19.47,19.47,0,0,0,9.84-4.58A25.27,25.27,0,0,0,70,176.25c6.62-10.59,9-17.15,5.38-23.32-1.69-2.93-4-4.76-6-5-10.51-1.08-18.42-2.36-26,1.39l0,0c-2,1-4.94,3.86-6.55,5.42a2.08,2.08,0,0,0-.21.21,18.06,18.06,0,0,0-2.86,5.81,26.07,26.07,0,0,0,1.15,16.58A16.92,16.92,0,0,0,46.4,187.2Z"/><path class="cls-9" d="M32.41,163.38a2.31,2.31,0,0,1,.1-.34c.81-2.5,2.27-7.08,3.81-9.24a4.33,4.33,0,0,0-4.15.12C30,155.44,30.18,159.49,32.41,163.38Z"/><path class="cls-10" d="M57.88,191.18c-1.91.39-3.93-1.07-5.39-3.59l.89-.12a20.41,20.41,0,0,0,8.14-3.08C61.46,188,60.07,190.74,57.88,191.18Z"/><ellipse class="cls-9" cx="69.12" cy="152.81" rx="3.51" ry="4.69" transform="translate(-72.16 62.42) rotate(-33.05)"/><circle class="cls-9" cx="56.69" cy="163.06" r="1.51"/><circle class="cls-9" cx="49.76" cy="153.8" r="1.51"/><path class="cls-11" d="M177.59,171.56c-4.12,0-8.24,0-12.36,0a4.91,4.91,0,0,1-4.1-2c-2.15-2.74-4.35-5.44-6.53-8.15L147.84,153c-.71-.88-1.39-1.77-2.12-2.63a4.54,4.54,0,0,1-1-4.22q2.43-10.47,4.83-20.95c.27-1.17.52-2.34.81-3.51a4.18,4.18,0,0,1,2.34-2.88c3.74-1.81,7.49-3.59,11.24-5.38l11.59-5.55a4.61,4.61,0,0,1,4.2,0l20.16,9.64c.74.36,1.48.73,2.23,1.06a4.8,4.8,0,0,1,2.91,3.67c1.19,5.29,2.42,10.56,3.63,15.84.62,2.71,1.24,5.41,1.88,8.11a4.81,4.81,0,0,1-1.18,4.4c-2.31,2.81-4.56,5.66-6.84,8.49s-4.73,5.89-7.1,8.83l-1.54,1.92a4.34,4.34,0,0,1-3.53,1.71C186.11,171.57,181.85,171.56,177.59,171.56Z"/><path class="cls-11" d="M176.59,121a24.71,24.71,0,0,0-.32-3,2,2,0,0,1,.37-1.8,1.32,1.32,0,0,1,2.27.41,3.07,3.07,0,0,1,0,1.8,15.07,15.07,0,0,0-.25,2.84.85.85,0,0,0,.14.54,1.41,1.41,0,0,1,.37.81c0,.18.2.18.34.19a17.78,17.78,0,0,1,8.87,3.54,19.4,19.4,0,0,1,1.94,1.69c.18.17.31.22.5.05a.53.53,0,0,1,.38-.18,1.64,1.64,0,0,0,1.41-.66,20.64,20.64,0,0,0,1.61-1.63,3.07,3.07,0,0,1,1.29-1,1.36,1.36,0,0,1,1.62.52,1.47,1.47,0,0,1-.18,1.71,4.54,4.54,0,0,1-1.3,1,14.88,14.88,0,0,0-2.18,1.43,1,1,0,0,0-.47.78.58.58,0,0,1-.29.43.31.31,0,0,0-.06.48,17.52,17.52,0,0,1,2.57,6.48,18.38,18.38,0,0,1,.17,5.34c0,.22,0,.33.25.37s.22,0,.27.14c.44.69,1.17.66,1.84.79.89.16,1.81.1,2.7.29a1.74,1.74,0,0,1,1,.47,1.33,1.33,0,0,1,.39,1.44,1.51,1.51,0,0,1-1.29.91,3.54,3.54,0,0,1-1.47-.32,16.8,16.8,0,0,0-2.67-.91,1.2,1.2,0,0,0-1,.11.38.38,0,0,1-.34.06c-.33-.09-.44.08-.54.37a17.81,17.81,0,0,1-4.91,7.43,15.36,15.36,0,0,1-2.51,1.88c-.25.15-.38.3-.22.59a.38.38,0,0,1,0,.31,1.5,1.5,0,0,0,.19,1.22,20,20,0,0,0,1.4,2.24,3.38,3.38,0,0,1,.61,1.23,1.42,1.42,0,0,1-.82,1.68,1.47,1.47,0,0,1-1.73-.67,5.57,5.57,0,0,1-.56-1.36,15.32,15.32,0,0,0-.91-2.48,1.11,1.11,0,0,0-.65-.61.43.43,0,0,1-.31-.27c-.1-.28-.27-.28-.52-.19a16.85,16.85,0,0,1-4.65,1,17.74,17.74,0,0,1-7.15-.94l-.27-.1c-.18-.08-.32-.05-.39.15a.72.72,0,0,1-.49.42.86.86,0,0,0-.47.45,14.74,14.74,0,0,0-1,2.64,3.73,3.73,0,0,1-.75,1.58,1.4,1.4,0,0,1-1.73.33,1.47,1.47,0,0,1-.58-1.74,4.47,4.47,0,0,1,.63-1.18,15.94,15.94,0,0,0,1.46-2.41,1.06,1.06,0,0,0,.1-.85.54.54,0,0,1,0-.51c.15-.26,0-.38-.19-.52a18,18,0,0,1-3.55-2.9,17.58,17.58,0,0,1-3.88-6.32c-.12-.32-.22-.55-.61-.4a.29.29,0,0,1-.27-.05,1.44,1.44,0,0,0-1.23-.1,19.44,19.44,0,0,0-2.43.85,3.3,3.3,0,0,1-1.64.32,1.39,1.39,0,0,1-1.2-1,1.36,1.36,0,0,1,.57-1.41,2.87,2.87,0,0,1,1.61-.46,17.19,17.19,0,0,0,2.86-.35,1.13,1.13,0,0,0,.75-.48.71.71,0,0,1,.46-.3c.2,0,.25-.15.23-.36A17.66,17.66,0,0,1,162.5,131c.16-.25.23-.43-.07-.6a.38.38,0,0,1-.18-.29,1.39,1.39,0,0,0-.72-1,17.28,17.28,0,0,0-2.15-1.36,3.18,3.18,0,0,1-1.22-1,1.36,1.36,0,0,1,1.7-2A4.4,4.4,0,0,1,161.3,126a13,13,0,0,0,1.87,1.76,1,1,0,0,0,.79.22c.21,0,.34.08.48.18a.25.25,0,0,0,.39,0A17.43,17.43,0,0,1,175,122.88l.42-.06c.36,0,.69,0,.68-.53a.21.21,0,0,1,.06-.16A1.35,1.35,0,0,0,176.59,121Z"/><path class="cls-11" d="M182.52,145.42a1.18,1.18,0,0,1,1.34-1.16l5.92,1c.3,0,.6.13.9.15s.34.19.23.46a14.24,14.24,0,0,1-5.25,6.57c-.21.15-.31.16-.43-.12-.82-2-1.66-4-2.5-6.06A2.12,2.12,0,0,1,182.52,145.42Z"/><path class="cls-11" d="M175.87,126.91c-.12,1.87-.23,3.71-.34,5.56a9.55,9.55,0,0,1-.08,1.3,1.18,1.18,0,0,1-1.83.84c-.66-.4-1.28-.88-1.91-1.33-1.24-.87-2.47-1.76-3.72-2.63-.25-.17-.31-.27-.05-.51a14.25,14.25,0,0,1,7.63-3.63C176,126.45,175.85,126.74,175.87,126.91Z"/><path class="cls-11" d="M163.39,140.56a14.56,14.56,0,0,1,1.91-7.11c.12-.22.22-.26.42-.08,1.26,1.15,2.54,2.27,3.81,3.42a11.72,11.72,0,0,1,1.41,1.32,1.16,1.16,0,0,1-.51,1.91c-.75.27-1.53.47-2.3.69L163.86,142c-.38.11-.4.09-.42-.3S163.4,140.85,163.39,140.56Z"/><path class="cls-11" d="M191.91,140.73c0,.31-.07.63-.06,1s-.09.34-.36.26l-4-1.15-2.3-.66a2.62,2.62,0,0,1-.49-.19,1.16,1.16,0,0,1-.39-1.88c.61-.66,1.32-1.21,2-1.81,1.05-1,2.13-1.9,3.18-2.86.21-.19.3-.21.46.06a14.29,14.29,0,0,1,1.9,6.47A7.18,7.18,0,0,1,191.91,140.73Z"/><path class="cls-11" d="M177.62,154.88a15.75,15.75,0,0,1-4.2-.67c-.27-.08-.27-.18-.15-.39,1.1-2,2.19-4,3.31-6a1.19,1.19,0,0,1,2.18.06c.39.65.75,1.33,1.12,2,.71,1.29,1.41,2.58,2.14,3.86.16.28.09.38-.2.46a14.1,14.1,0,0,1-3.53.59C178.06,154.83,177.84,154.86,177.62,154.88Z"/><path class="cls-11" d="M171.4,144.29c1,0,1.53.68,1.29,1.53a26.53,26.53,0,0,1-1.08,2.72c-.49,1.24-1,2.46-1.52,3.69-.11.28-.21.32-.47.14a14.14,14.14,0,0,1-5.19-6.49c-.16-.39-.15-.39.26-.46l6.43-1.1Z"/><path class="cls-11" d="M179.41,127c0-.51,0-.53.43-.46a14.39,14.39,0,0,1,7,3.17c.18.15.33.33.52.48s.18.27,0,.42l-3,2.12c-.81.57-1.62,1.16-2.45,1.73a1.25,1.25,0,0,1-1.82-.16,1.92,1.92,0,0,1-.27-1.12c-.08-1.47-.13-3-.24-4.43A11.74,11.74,0,0,0,179.41,127Z"/><polygon class="cls-11" points="176.76 138.69 175.65 140.08 176.04 141.82 177.65 142.59 179.25 141.82 179.65 140.08 178.54 138.69 176.76 138.69"/><path class="cls-5" d="M135.86,233.86c-3.41,0-6.12-1.52-8.48-3.66-5-4.5-7-10-5.16-16.67a16.68,16.68,0,0,1,4.9-7.58,6.72,6.72,0,0,0,2.12-2.89c.77-3.56,3.17-5.88,5.49-8.38a21.19,21.19,0,0,1,7.71-5.22,19.84,19.84,0,0,1,16.46.4,23.07,23.07,0,0,1,9.43,7.28c1.47,2,2.34,4.45,3.52,6.68a4.9,4.9,0,0,0,1.22,1.81,13.77,13.77,0,0,1,5.87,9.15c.59,3.51.59,7.17-1.33,10.39-2.64,4.45-6.27,7.9-11.63,8.47-4.92.51-9.89.46-14.84.66C151.13,234.14,141,233.79,135.86,233.86Zm7.41-19.43s-.13-.15-.27-.34c-2-2.62-5.14-3.3-8.51-1.79-2.34,1-3.88,4.43-3.08,7.4a6.64,6.64,0,0,0,6.28,4.83q12.92.09,25.82.07a6.57,6.57,0,0,0,6-8.06,6.82,6.82,0,0,0-6.17-5.19c-.38-8.88-4.93-12.84-11.88-13.88-3.62-.53-9.22,1.87-10.24,4.47,3.2,1.58,6.81,2.65,9.21,6.47Z"/><path class="cls-11" d="M133.73,230.31c-3.41.05-6.12-1.52-8.48-3.66-5-4.49-7-10-5.16-16.67a16.68,16.68,0,0,1,4.9-7.58,6.72,6.72,0,0,0,2.12-2.89c.77-3.56,3.17-5.88,5.49-8.38a21.19,21.19,0,0,1,7.71-5.22,19.84,19.84,0,0,1,16.46.4,23.07,23.07,0,0,1,9.43,7.28c1.47,2,2.34,4.45,3.52,6.68a4.9,4.9,0,0,0,1.22,1.81,13.73,13.73,0,0,1,5.87,9.15c.59,3.52.59,7.17-1.33,10.39-2.64,4.45-6.27,7.9-11.63,8.47-4.91.52-9.89.46-14.84.66C149,230.6,138.82,230.24,133.73,230.31Zm7.41-19.43s-.13-.15-.27-.34c-2-2.62-5.14-3.29-8.51-1.79-2.34,1-3.88,4.43-3.08,7.4a6.64,6.64,0,0,0,6.28,4.83q12.91.09,25.82.08a6.57,6.57,0,0,0,6-8.06,6.82,6.82,0,0,0-6.17-5.2c-.38-8.87-4.93-12.84-11.88-13.88-3.62-.53-9.22,1.87-10.24,4.47,3.2,1.58,6.81,2.65,9.21,6.47Z"/><path class="cls-12" d="M89.8,34.19C85,33.14,80.76,23,76,23.42s-7.23,11.19-11.72,13-13.75-4.12-17.52-1,.52,13.22-2.18,17.42C42.11,56.69,31.29,56.52,30,60.62c-1.31,4.25,7.79,10.18,7.69,14.52s-9.43,9.92-8.34,14.16,11.92,4.57,14.14,8.38"/><path class="cls-12" d="M84.39,15.74C78,13,73.45,1.86,66.72,1.51S54.17,11.78,47.62,13.78s-17.16-3.66-22.68.52c-5.33,4-2.84,15.76-6.66,21.7-3.54,5.49-15.09,7.42-16.6,13.42C.11,55.63,9.43,62.84,9.91,69.1S2.33,84,4.8,89.81,19,95.73,23.24,100.54"/><path class="cls-8" d="M223,224.25a16.35,16.35,0,0,1-6.94.25l-.7-.13a18.27,18.27,0,0,1-9.21-4.3,23.58,23.58,0,0,1-5.26-6.07c-6.2-9.92-8.39-16.07-5-21.84,1.59-2.74,3.72-4.46,5.65-4.66,9.84-1,17.25-2.21,24.37,1.3l0,0c1.89.94,4.62,3.62,6.13,5.08a1.84,1.84,0,0,1,.19.2,17,17,0,0,1,2.69,5.44,24.39,24.39,0,0,1-1.09,15.52A15.85,15.85,0,0,1,223,224.25Z"/><path class="cls-9" d="M234.8,201a2.75,2.75,0,0,0-.1-.34c-.81-2.5-2.27-7.08-3.81-9.23a4.33,4.33,0,0,1,4.15.11C237.2,193.05,237,197.1,234.8,201Z"/><path class="cls-10" d="M203.62,224.09c-1.31-1.43-1.1-3.92.3-6.46l.56.69a20.4,20.4,0,0,0,6.84,5.39C208.23,225.49,205.13,225.74,203.62,224.09Z"/><circle class="cls-9" cx="217.32" cy="193.11" r="1.51"/><ellipse class="cls-9" cx="200.02" cy="192.3" rx="4.69" ry="3.51" transform="translate(-66.52 269.37) rotate(-60)"/><circle class="cls-9" cx="210.91" cy="202.73" r="1.51"/><path class="cls-6" d="M52.59,296.28l-9.43-13.49a2.86,2.86,0,0,1,.7-4L69.5,260.92c1-.68.48-3.11-1.12-5.4s-3.7-3.6-4.69-2.92l-31.3,21.86a6.07,6.07,0,0,0-1.49,8.42l13.55,19.41c-.68-1,.63-3.08,2.92-4.68C49.49,296.13,51.72,295.57,52.59,296.28Z"/><path class="cls-13" d="M52.78,296.48a1.19,1.19,0,0,0-.19-.2c-.87-.7-3.1-.15-5.22,1.33-2.29,1.6-3.6,3.7-2.91,4.68s3.11.48,5.4-1.12c2.12-1.48,3.41-3.38,3-4.44A.72.72,0,0,0,52.78,296.48Z"/><path class="cls-5" d="M68.62,255.79c-1.43,1.56-5.6.11-9.47-3.25-.1.19-.21.38-.32.57,3.77,3.57,5.64,7.65,4.2,9.23s-5.72.07-9.64-3.39a4.3,4.3,0,0,1-.52.35l0,0c4,3.66,6,7.94,4.54,9.57s-5.93,0-9.93-3.67a16.92,16.92,0,0,1-4.78-6.65c-1.36-2.94,0-7.74,3.62-11.66,2.78-3.06,6.18-4.82,9-4.95h.12c2-.23,5.46,1.4,8.6,4.27C68.07,249.87,70.11,254.15,68.62,255.79Z"/><path class="cls-5" d="M114.39,139.07c-5.09,0-10.17,0-15.26,0a6,6,0,0,1-5.06-2.49c-2.66-3.37-5.38-6.71-8.07-10.06l-8.35-10.39c-.87-1.09-1.72-2.2-2.62-3.26a5.61,5.61,0,0,1-1.21-5.21q3-12.93,6-25.87c.34-1.45.65-2.89,1-4.33a5.19,5.19,0,0,1,2.89-3.57l13.88-6.64,14.31-6.85a5.71,5.71,0,0,1,5.2,0q12.44,6,24.88,11.9c.92.44,1.83.9,2.76,1.3a6,6,0,0,1,3.6,4.54c1.46,6.53,3,13,4.48,19.57.77,3.33,1.53,6.67,2.32,10a6,6,0,0,1-1.46,5.44c-2.85,3.46-5.63,7-8.44,10.48q-4.38,5.46-8.77,10.9L134.53,137a5.35,5.35,0,0,1-4.35,2.11C124.92,139.08,119.66,139.07,114.39,139.07Z"/><path class="cls-5" d="M113.16,76.63a29.57,29.57,0,0,0-.4-3.69,2.48,2.48,0,0,1,.46-2.22,1.64,1.64,0,0,1,2.8.5,4,4,0,0,1,.06,2.24,17.88,17.88,0,0,0-.32,3.5,1.1,1.1,0,0,0,.17.67,1.76,1.76,0,0,1,.47,1c0,.21.24.21.41.23a22,22,0,0,1,11,4.37,25,25,0,0,1,2.39,2.09c.22.21.39.27.63.06a.58.58,0,0,1,.46-.22,2.07,2.07,0,0,0,1.75-.81c.68-.65,1.36-1.31,2-2a3.68,3.68,0,0,1,1.59-1.19,1.71,1.71,0,0,1,2,.64,1.82,1.82,0,0,1-.21,2.11,5.67,5.67,0,0,1-1.61,1.18,19.31,19.31,0,0,0-2.7,1.77,1.21,1.21,0,0,0-.58,1c0,.25-.19.39-.35.53s-.24.33-.08.58a21.75,21.75,0,0,1,3.18,8,22.75,22.75,0,0,1,.2,6.59c0,.28.05.41.31.46a.47.47,0,0,1,.34.17c.54.85,1.45.82,2.27,1,1.1.2,2.23.13,3.33.36a2.24,2.24,0,0,1,1.2.57,1.64,1.64,0,0,1,.48,1.79,1.82,1.82,0,0,1-1.59,1.12,4.19,4.19,0,0,1-1.81-.4,20.32,20.32,0,0,0-3.3-1.11,1.45,1.45,0,0,0-1.22.13.47.47,0,0,1-.41.08c-.41-.12-.55.09-.67.44a22,22,0,0,1-6.06,9.18,19.48,19.48,0,0,1-3.1,2.33c-.31.19-.47.37-.28.73a.46.46,0,0,1,0,.38,1.81,1.81,0,0,0,.23,1.5,22.54,22.54,0,0,0,1.73,2.77,4.12,4.12,0,0,1,.75,1.51,1.77,1.77,0,0,1-1,2.09,1.81,1.81,0,0,1-2.14-.83,6.75,6.75,0,0,1-.69-1.69A19.09,19.09,0,0,0,123.7,123a1.37,1.37,0,0,0-.8-.75.53.53,0,0,1-.38-.33c-.13-.35-.33-.35-.65-.23a20.47,20.47,0,0,1-5.73,1.2,21.59,21.59,0,0,1-8.84-1.16l-.33-.11a.31.31,0,0,0-.49.17.86.86,0,0,1-.59.52,1.11,1.11,0,0,0-.59.56,18,18,0,0,0-1.22,3.26,4.64,4.64,0,0,1-.93,1.95,1.73,1.73,0,0,1-2.13.41,1.82,1.82,0,0,1-.72-2.15,5.35,5.35,0,0,1,.78-1.45,20.58,20.58,0,0,0,1.81-3,1.29,1.29,0,0,0,.11-1.05.7.7,0,0,1,0-.63c.19-.32,0-.48-.23-.65A22.14,22.14,0,0,1,98.43,116a21.66,21.66,0,0,1-4.8-7.82c-.14-.39-.27-.67-.76-.49a.36.36,0,0,1-.33-.06,1.74,1.74,0,0,0-1.51-.12,24.17,24.17,0,0,0-3,1,4,4,0,0,1-2,.4,1.66,1.66,0,0,1-.78-3,3.57,3.57,0,0,1,2-.55,22,22,0,0,0,3.54-.45,1.34,1.34,0,0,0,.93-.59.83.83,0,0,1,.57-.36c.24-.06.3-.19.27-.45A21.89,21.89,0,0,1,95.76,89c.19-.3.28-.52-.09-.74a.44.44,0,0,1-.22-.36,1.73,1.73,0,0,0-.9-1.27A21.53,21.53,0,0,0,91.9,85a4,4,0,0,1-1.51-1.22,1.75,1.75,0,0,1,.08-2.11,1.73,1.73,0,0,1,2-.39,5.51,5.51,0,0,1,1.77,1.52,15.94,15.94,0,0,0,2.32,2.18,1.14,1.14,0,0,0,1,.27c.26-.06.42.1.59.22s.31.12.48-.05A21.63,21.63,0,0,1,111.24,79a3.24,3.24,0,0,1,.52-.07c.44,0,.86-.06.84-.66a.28.28,0,0,1,.08-.2A1.72,1.72,0,0,0,113.16,76.63Z"/><path class="cls-5" d="M120.48,106.79a1.46,1.46,0,0,1,1.66-1.43c2.44.39,4.87.8,7.3,1.21a10.45,10.45,0,0,0,1.12.18c.45,0,.42.23.29.56a18,18,0,0,1-2.37,4.21,17.59,17.59,0,0,1-4.12,3.91c-.27.18-.39.2-.53-.14-1-2.51-2.06-5-3.09-7.5A2.64,2.64,0,0,1,120.48,106.79Z"/><path class="cls-5" d="M112.26,83.92c-.14,2.32-.27,4.59-.41,6.87a9.57,9.57,0,0,1-.11,1.6,1.45,1.45,0,0,1-2.25,1c-.82-.49-1.58-1.08-2.36-1.64-1.53-1.08-3-2.17-4.59-3.24-.31-.21-.39-.34-.07-.63a17.47,17.47,0,0,1,9.42-4.48C112.39,83.36,112.24,83.72,112.26,83.92Z"/><path class="cls-5" d="M96.85,100.79A18.1,18.1,0,0,1,99.21,92c.16-.27.27-.31.52-.09,1.56,1.41,3.14,2.8,4.7,4.21a14.28,14.28,0,0,1,1.75,1.64,1.43,1.43,0,0,1-.64,2.36c-.92.33-1.88.57-2.83.85l-5.28,1.52c-.47.14-.49.11-.51-.36S96.87,101.14,96.85,100.79Z"/><path class="cls-5" d="M132.08,101c0,.39-.08.78-.08,1.17s-.11.43-.44.33c-1.63-.49-3.27-.95-4.9-1.42l-2.84-.82a4.62,4.62,0,0,1-.62-.23,1.44,1.44,0,0,1-.47-2.33c.75-.81,1.62-1.49,2.44-2.24,1.29-1.18,2.62-2.33,3.92-3.52.25-.23.37-.26.56.07a17.6,17.6,0,0,1,2.35,8C132,100.32,132.1,100.65,132.08,101Z"/><path class="cls-5" d="M114.43,118.47a19.08,19.08,0,0,1-5.19-.83c-.33-.1-.33-.23-.18-.49,1.36-2.45,2.7-4.91,4.08-7.35a1.47,1.47,0,0,1,2.69.07c.49.81.93,1.65,1.39,2.47.88,1.59,1.75,3.19,2.64,4.77.2.35.11.47-.24.57a17.44,17.44,0,0,1-4.37.72C115,118.41,114.7,118.45,114.43,118.47Z"/><path class="cls-5" d="M106.75,105.39c1.22,0,1.89.84,1.59,1.89a33.51,33.51,0,0,1-1.33,3.36c-.61,1.53-1.26,3-1.88,4.55-.14.36-.27.4-.58.18a17.53,17.53,0,0,1-6.41-8c-.2-.48-.19-.48.32-.57l7.94-1.35C106.55,105.4,106.71,105.4,106.75,105.39Z"/><path class="cls-5" d="M116.64,84c0-.64,0-.66.53-.58a17.67,17.67,0,0,1,8.6,3.93c.23.18.42.41.65.58s.22.34,0,.52l-3.7,2.62c-1,.71-2,1.44-3,2.14a1.55,1.55,0,0,1-2.25-.2,2.39,2.39,0,0,1-.34-1.38c-.1-1.82-.15-3.65-.29-5.47A14.27,14.27,0,0,0,116.64,84Z"/><polygon class="cls-5" points="113.36 98.47 111.99 100.19 112.48 102.33 114.46 103.29 116.45 102.33 116.94 100.19 115.56 98.47 113.36 98.47"/><path class="cls-11" d="M110.84,135.52c-5.08,0-10.17,0-15.26,0A6,6,0,0,1,90.52,133c-2.66-3.37-5.38-6.71-8.07-10.06L74.1,112.59c-.87-1.09-1.72-2.2-2.62-3.26a5.6,5.6,0,0,1-1.21-5.2q3-12.94,6-25.88c.34-1.45.65-2.89,1-4.33a5.19,5.19,0,0,1,2.89-3.57L94,63.71l14.31-6.85a5.71,5.71,0,0,1,5.2,0q12.44,6,24.89,11.9c.91.44,1.82.9,2.75,1.3a6,6,0,0,1,3.6,4.54c1.46,6.53,3,13,4.48,19.57.77,3.33,1.53,6.67,2.32,10a6,6,0,0,1-1.46,5.44c-2.85,3.46-5.63,7-8.44,10.48s-5.85,7.27-8.77,10.9L131,133.4a5.35,5.35,0,0,1-4.35,2.11C121.37,135.53,116.11,135.52,110.84,135.52Z"/><path class="cls-11" d="M109.61,73.08a29.57,29.57,0,0,0-.4-3.69,2.48,2.48,0,0,1,.46-2.22,1.64,1.64,0,0,1,2.8.5,4,4,0,0,1,.06,2.24,17.88,17.88,0,0,0-.32,3.5,1.1,1.1,0,0,0,.17.67,1.76,1.76,0,0,1,.47,1c0,.21.24.21.41.23a22.13,22.13,0,0,1,11,4.37,25,25,0,0,1,2.39,2.09c.22.21.39.27.63.06a.58.58,0,0,1,.46-.22,2,2,0,0,0,1.75-.81c.68-.65,1.36-1.31,2-2A3.68,3.68,0,0,1,133,77.59a1.7,1.7,0,0,1,2,.65,1.82,1.82,0,0,1-.21,2.11,5.64,5.64,0,0,1-1.61,1.17,19.31,19.31,0,0,0-2.7,1.77,1.21,1.21,0,0,0-.58,1c0,.25-.19.39-.35.53s-.24.33-.08.58a21.75,21.75,0,0,1,3.18,8,22.76,22.76,0,0,1,.21,6.59c0,.28,0,.41.3.46a.51.51,0,0,1,.34.17c.54.85,1.45.82,2.27,1,1.1.2,2.24.13,3.33.36a2.19,2.19,0,0,1,1.2.58,1.62,1.62,0,0,1,.48,1.78,1.82,1.82,0,0,1-1.59,1.12,4.19,4.19,0,0,1-1.81-.4,20.32,20.32,0,0,0-3.3-1.11,1.45,1.45,0,0,0-1.22.13.47.47,0,0,1-.41.08c-.41-.12-.55.09-.67.45a22,22,0,0,1-6.06,9.17,18.9,18.9,0,0,1-3.1,2.33c-.31.19-.47.37-.28.73a.46.46,0,0,1,0,.38,1.81,1.81,0,0,0,.23,1.5,22.54,22.54,0,0,0,1.73,2.77,4.16,4.16,0,0,1,.75,1.52,1.76,1.76,0,0,1-1,2.08,1.81,1.81,0,0,1-2.14-.83,6.75,6.75,0,0,1-.69-1.69,19.09,19.09,0,0,0-1.13-3.06,1.37,1.37,0,0,0-.8-.75.53.53,0,0,1-.38-.33c-.13-.35-.33-.35-.65-.23a20.85,20.85,0,0,1-5.73,1.21,21.77,21.77,0,0,1-8.84-1.17l-.33-.11a.31.31,0,0,0-.49.17.86.86,0,0,1-.59.52,1.11,1.11,0,0,0-.59.56,18.79,18.79,0,0,0-1.22,3.26,4.64,4.64,0,0,1-.93,2,1.73,1.73,0,0,1-2.13.41,1.82,1.82,0,0,1-.72-2.15,5.35,5.35,0,0,1,.78-1.45,20.58,20.58,0,0,0,1.81-3,1.29,1.29,0,0,0,.11-1,.7.7,0,0,1,0-.63c.19-.32,0-.48-.23-.65a22.18,22.18,0,0,1-9.18-11.38c-.14-.4-.27-.68-.76-.49a.4.4,0,0,1-.33-.07,1.78,1.78,0,0,0-1.51-.12,25.92,25.92,0,0,0-3,1,4,4,0,0,1-2,.4,1.66,1.66,0,0,1-.78-3,3.58,3.58,0,0,1,2-.55,20.92,20.92,0,0,0,3.53-.45,1.34,1.34,0,0,0,.93-.59.83.83,0,0,1,.57-.36c.25-.06.31-.19.27-.45a21.9,21.9,0,0,1,3.25-14.54c.19-.3.28-.52-.09-.74a.44.44,0,0,1-.22-.36,1.73,1.73,0,0,0-.9-1.27,22.79,22.79,0,0,0-2.65-1.68,4,4,0,0,1-1.5-1.22,1.67,1.67,0,0,1,2.1-2.5,5.51,5.51,0,0,1,1.77,1.52A15.94,15.94,0,0,0,93,81.39a1.15,1.15,0,0,0,1,.27c.26-.06.42.1.59.22s.31.12.48,0a21.63,21.63,0,0,1,12.61-6.43,3.24,3.24,0,0,1,.52-.07c.44,0,.86-.06.84-.66a.28.28,0,0,1,.08-.2A1.72,1.72,0,0,0,109.61,73.08Z"/><path class="cls-11" d="M116.93,103.24a1.46,1.46,0,0,1,1.66-1.43c2.44.39,4.87.8,7.3,1.21a10.45,10.45,0,0,0,1.12.18c.45,0,.42.23.29.56a17.8,17.8,0,0,1-2.37,4.21,17.59,17.59,0,0,1-4.12,3.91c-.27.18-.39.2-.53-.14-1-2.51-2.06-5-3.09-7.5A2.64,2.64,0,0,1,116.93,103.24Z"/><path class="cls-11" d="M108.72,80.37c-.15,2.32-.28,4.59-.42,6.87a9.57,9.57,0,0,1-.11,1.6,1.44,1.44,0,0,1-2.25,1c-.81-.49-1.58-1.08-2.36-1.64-1.53-1.08-3-2.17-4.59-3.24-.31-.21-.39-.34-.06-.63a17.44,17.44,0,0,1,9.41-4.48C108.84,79.81,108.69,80.17,108.72,80.37Z"/><path class="cls-11" d="M93.3,97.24a18.1,18.1,0,0,1,2.36-8.79c.16-.27.27-.31.52-.09,1.56,1.41,3.14,2.8,4.7,4.21a13.59,13.59,0,0,1,1.75,1.64,1.43,1.43,0,0,1-.64,2.36c-.92.33-1.88.57-2.83.85L93.89,99c-.47.13-.5.11-.52-.37S93.32,97.59,93.3,97.24Z"/><path class="cls-11" d="M128.53,97.44c0,.39-.08.78-.08,1.17s-.1.43-.44.33c-1.63-.49-3.27-1-4.9-1.42l-2.84-.82a4.62,4.62,0,0,1-.62-.23,1.44,1.44,0,0,1-.47-2.33c.75-.81,1.62-1.49,2.44-2.23,1.29-1.19,2.62-2.34,3.92-3.53.25-.23.38-.26.56.07a17.6,17.6,0,0,1,2.35,8C128.46,96.77,128.55,97.1,128.53,97.44Z"/><path class="cls-11" d="M110.88,114.92a19.08,19.08,0,0,1-5.19-.83c-.33-.1-.33-.23-.18-.49,1.36-2.45,2.71-4.91,4.08-7.35a1.47,1.47,0,0,1,2.69.07c.49.81.93,1.65,1.39,2.47.88,1.59,1.75,3.19,2.64,4.77.2.35.11.47-.24.57a17.44,17.44,0,0,1-4.37.72C111.43,114.86,111.15,114.9,110.88,114.92Z"/><path class="cls-11" d="M103.2,101.84c1.22,0,1.89.84,1.59,1.89a33.51,33.51,0,0,1-1.33,3.36c-.61,1.53-1.26,3-1.88,4.55-.14.36-.26.4-.58.18a17.53,17.53,0,0,1-6.41-8c-.19-.48-.19-.48.32-.57l7.94-1.35C103,101.85,103.17,101.85,103.2,101.84Z"/><path class="cls-11" d="M113.09,80.49c0-.64,0-.66.53-.58a17.74,17.74,0,0,1,8.61,3.93c.22.18.41.41.64.58s.22.35,0,.52l-3.7,2.62c-1,.71-2,1.44-3,2.14a1.55,1.55,0,0,1-2.25-.2,2.47,2.47,0,0,1-.34-1.38c-.1-1.82-.15-3.65-.29-5.47A14.27,14.27,0,0,0,113.09,80.49Z"/><polygon class="cls-11" points="109.81 94.92 108.44 96.64 108.93 98.78 110.92 99.74 112.9 98.78 113.39 96.64 112.02 94.92 109.81 94.92"/></g></g></svg>