<svg xmlns="http://www.w3.org/2000/svg" xmlns:xlink="http://www.w3.org/1999/xlink" viewBox="0 0 600 315"><defs><style>.cls-1,.cls-10,.cls-11,.cls-2,.cls-6{fill:none;}.cls-10,.cls-11,.cls-2,.cls-6,.cls-7,.cls-8{stroke:#3f3a37;}.cls-11,.cls-2,.cls-6{stroke-linecap:round;}.cls-2,.cls-6{stroke-linejoin:round;stroke-dasharray:0 8;}.cls-12,.cls-2{stroke-width:2px;}.cls-3,.cls-9{fill:#86fed4;}.cls-4{fill:url(#small_dots);}.cls-5,.cls-7{fill:#fff;}.cls-10,.cls-11,.cls-6,.cls-7,.cls-8,.cls-9{stroke-width:3px;}.cls-10,.cls-11,.cls-12,.cls-7,.cls-8,.cls-9{stroke-miterlimit:10;}.cls-12,.cls-14,.cls-8{fill:#3f3a37;}.cls-12,.cls-9{stroke:#86fed4;}.cls-12{font-size:72.65px;}.cls-12,.cls-14{font-family:Montserrat-Bold, Montserrat;font-weight:700;}.cls-13{letter-spacing:-0.02em;}.cls-14{font-size:29.85px;}</style><pattern id="small_dots" data-name="small dots" width="8" height="8" patternTransform="translate(0.93)" patternUnits="userSpaceOnUse" viewBox="0 0 8 8"><rect class="cls-1" width="8" height="8"/><circle class="cls-2" cx="4" cy="4" r="1"/></pattern></defs><title>Article_Webinar</title><g id="otter_drawing"><rect class="cls-3" x="208.38" y="181.32" width="358.67" height="42.37"/><rect class="cls-4" width="600.48" height="315"/><circle class="cls-5" cx="97.25" cy="158.13" r="70.87"/><rect class="cls-5" x="200.08" y="171.25" width="358.67" height="42.37"/><image width="7286" height="1786" transform="translate(391.55 172.13) scale(0.02)" xlink:href="../../../CI_assets/ASSETS/Otter%20Logo%20Suite/OtterNetworks/RGB/POSITIVE/OtterNetworks_POSITIVE_RGB-01.png"/><path class="cls-6" d="M103.18,186.7c3.58-1.6,12.22,4.59,15.11,2s-2.17-11.91-.15-15.24,12.64-3.12,13.57-6.94-8.57-8.44-8.83-12.43c-.22-3.6,8.77-9,7.63-12.26s-11.61-2-13.61-4.81,2.81-12.21.1-14.43-10.88,4.4-14.12,3"/><path class="cls-6" d="M115.62,196c5.45-1.27,14.41,5.55,18.92,2.58s1.87-14,5.13-18.4,14.56-4.92,16.14-10.24c1.52-5.13-7.61-11.72-8-17.37-.33-5.22,8.12-12.38,6.25-17-1.94-4.75-13-3.94-16.33-7.75s-.91-14.7-5.28-17.29-12.66,4.75-17.7,3.67"/><rect class="cls-7" x="50.94" y="162.14" width="5.78" height="22.78" rx="2.34" transform="translate(-9.17 3.11) rotate(-3.05)"/><path class="cls-7" d="M64.69,162.89c.1,1.3-.68,2.39-1.69,2.34l-14-.77c-1.44-.08-2.64-1.54-2.79-3.37l-.51-6.17a3,3,0,0,1,2-3.36l13.94-3c1-.21,1.93.73,2,2Z"/><path class="cls-7" d="M95.53,178.82,64.58,161.39c-1.43-1.12-2.35-2.3-2.3-5.15.07-4.23,2.32-5.56,2.32-5.56l29.49-17.22Z"/><ellipse class="cls-8" cx="97.91" cy="155.77" rx="9.84" ry="23.98" transform="translate(-1.9 1.21) rotate(-0.7)"/><ellipse class="cls-9" cx="98.08" cy="155.3" rx="2.27" ry="2.84" transform="translate(-1.9 1.21) rotate(-0.7)"/><line class="cls-9" x1="88.47" y1="159.97" x2="98.11" y2="158.14"/><line class="cls-9" x1="98.04" y1="152.46" x2="88.36" y2="150.87"/><ellipse class="cls-10" cx="97.91" cy="155.77" rx="9.84" ry="23.98" transform="translate(-1.9 1.21) rotate(-0.7)"/><line class="cls-11" x1="51.66" y1="155.78" x2="57.62" y2="155.11"/><line class="cls-11" x1="51.88" y1="159.94" x2="57.84" y2="159.27"/><text class="cls-12" transform="translate(184.55 155.55)"><tspan class="cls-13">W</tspan><tspan x="83.4" y="0">EBINAR</tspan></text><image width="300" height="145" transform="translate(200.96 153.88) scale(0.53)" xlink:href="../../../../codefresh-logo-300x145.png"/><text class="cls-14" transform="translate(374.58 203.47)">+</text></g></svg>