<svg xmlns="http://www.w3.org/2000/svg" xmlns:xlink="http://www.w3.org/1999/xlink" viewBox="0 0 381 228"><defs><style>.cls-1,.cls-10,.cls-2,.cls-9{fill:none;}.cls-10,.cls-2,.cls-6,.cls-7,.cls-9{stroke:#3f3a37;}.cls-10,.cls-2{stroke-linecap:round;}.cls-2{stroke-linejoin:round;stroke-dasharray:0 8;}.cls-10,.cls-11,.cls-2,.cls-6,.cls-7,.cls-8,.cls-9{stroke-width:2px;}.cls-3,.cls-8{fill:#86fed4;}.cls-4{fill:url(#small_dots);}.cls-5,.cls-6{fill:#fff;}.cls-10,.cls-11,.cls-6,.cls-7,.cls-8,.cls-9{stroke-miterlimit:10;}.cls-11,.cls-13,.cls-7{fill:#3f3a37;}.cls-11,.cls-8{stroke:#86fed4;}.cls-11{font-size:45.11px;}.cls-11,.cls-13{font-family:Montserrat-Bold, Montserrat;font-weight:700;}.cls-12{letter-spacing:-0.02em;}.cls-13{font-size:18.67px;}</style><pattern id="small_dots" data-name="small dots" width="8" height="8" patternUnits="userSpaceOnUse" viewBox="0 0 8 8"><rect class="cls-1" width="8" height="8"/><circle class="cls-2" cx="4" cy="4" r="1"/></pattern></defs><title>Blog_Webinar</title><g id="otter_drawing"><rect class="cls-3" x="134.55" y="123.75" width="224.33" height="26.5"/><rect class="cls-4" y="-0.09" width="381" height="228.09"/><rect class="cls-5" x="129.36" y="117.45" width="224.33" height="26.5"/><image width="7286" height="1786" transform="translate(249.11 118) scale(0.01)" xlink:href="../../../CI_assets/ASSETS/Otter%20Logo%20Suite/OtterNetworks/RGB/POSITIVE/OtterNetworks_POSITIVE_RGB-01.png"/><circle class="cls-5" cx="68.74" cy="108.98" r="48.4"/><rect class="cls-6" x="42.99" y="108.55" width="5.22" height="20.59" rx="1.97" transform="translate(-6.26 2.6) rotate(-3.05)"/><path class="cls-6" d="M55.41,109.23c.1,1.17-.61,2.16-1.52,2.11l-12.63-.7a3.07,3.07,0,0,1-2.53-3L38.27,102a2.73,2.73,0,0,1,1.78-3l12.6-2.71c.89-.19,1.75.66,1.84,1.83Z"/><path class="cls-6" d="M83.29,123.62l-28-15.75c-1.3-1-2.13-2.08-2.08-4.65.06-3.82,2.1-5,2.1-5L82,82.63Z"/><ellipse class="cls-7" cx="85.43" cy="102.79" rx="8.89" ry="21.67" transform="translate(-1.25 1.05) rotate(-0.7)"/><ellipse class="cls-8" cx="85.59" cy="102.37" rx="2.05" ry="2.57" transform="translate(-1.25 1.06) rotate(-0.7)"/><line class="cls-8" x1="76.91" y1="106.59" x2="85.62" y2="104.94"/><line class="cls-8" x1="85.56" y1="99.8" x2="76.8" y2="98.37"/><ellipse class="cls-9" cx="85.43" cy="102.79" rx="8.89" ry="21.67" transform="translate(-1.25 1.05) rotate(-0.7)"/><line class="cls-10" x1="43.64" y1="102.8" x2="49.02" y2="102.2"/><line class="cls-10" x1="43.84" y1="106.56" x2="49.23" y2="105.96"/><text class="cls-11" transform="translate(122.42 110.78)"><tspan class="cls-12">W</tspan><tspan x="51.78" y="0">EBINAR</tspan></text><image width="300" height="145" transform="translate(129.91 106.58) scale(0.33)" xlink:href="../../../../codefresh-logo-300x145.png"/><text class="cls-13" transform="translate(238.5 137.6)">+</text></g></svg>