<svg xmlns="http://www.w3.org/2000/svg" xmlns:xlink="http://www.w3.org/1999/xlink" viewBox="0 0 1263.61 712.22"><defs><style>.cls-1,.cls-2{fill:none;}.cls-2,.cls-4,.cls-5,.cls-6,.cls-9{stroke:#3f3a37;}.cls-2,.cls-4,.cls-6,.cls-7{stroke-linecap:round;}.cls-2,.cls-4,.cls-6,.cls-7,.cls-8{stroke-linejoin:round;}.cls-2,.cls-4,.cls-6,.cls-7,.cls-8,.cls-9{stroke-width:2px;}.cls-2{stroke-dasharray:0 8;}.cls-3{opacity:0.35;fill:url(#small_dots);}.cls-4{fill:#fff;}.cls-5{fill:#86fed4;}.cls-5,.cls-9{stroke-miterlimit:10;}.cls-6,.cls-7,.cls-8,.cls-9{fill:#3f3a37;}.cls-7,.cls-8{stroke:#fff;}</style><pattern id="small_dots" data-name="small dots" width="8" height="8" patternTransform="translate(-57 -15)" patternUnits="userSpaceOnUse" viewBox="0 0 8 8"><rect class="cls-1" width="8" height="8"/><circle class="cls-2" cx="4" cy="4" r="1"/></pattern></defs><title>Asset 52</title><g id="Layer_2" data-name="Layer 2"><g id="Layer_1-2" data-name="Layer 1"><path class="cls-3" d="M1262.52,707s-347,29-439-50C634,494.26,564.52,498,277,472.39,185.41,464.23,84.16,414,36.52,310c-60-131-28-297-28-297S152.64.18,183.52,0c193-1,266.67,31.47,385,91,84.15,42.33,254.86,105.67,447,103,235.85-3.28,247,95,247,95-1.34,65.91,1.6,34.35,1,142C1262.52,611,1262.52,707,1262.52,707Z"/><path class="cls-4" d="M33.84,167.64l6.95-21.15a3.54,3.54,0,0,1,4.45-2.25l13.11,4.31c-.66-.22-1.62.87-2.13,2.42s-.4,2.77.14,3.13l-9.12-3a1.67,1.67,0,0,0-2.09,1.06l-5.69,17.32c.22-.66-.87-1.62-2.42-2.12S34.06,167,33.84,167.64Z"/><ellipse class="cls-5" cx="36.65" cy="168.56" rx="1.27" ry="2.96" transform="translate(-134.93 150.73) rotate(-71.8)"/><path class="cls-6" d="M56.5,154.18l-.14-.08c-.54-.36-.61-1.7-.14-3.13s1.47-2.64,2.13-2.42.79,1.66.28,3.21-1.32,2.47-2,2.44Z"/><rect class="cls-7" x="24.23" y="112.75" width="13.53" height="13.53" transform="translate(-40.26 18.69) rotate(-20.71)"/><polygon class="cls-7" points="38.86 102.08 34.93 110.8 22.28 115.58 26.21 106.86 38.86 102.08"/><polygon class="cls-8" points="38.86 102.08 43.65 114.73 39.71 123.45 34.93 110.8 38.86 102.08"/><rect class="cls-7" x="74.23" y="186.75" width="13.53" height="13.53" transform="translate(-63.21 41.15) rotate(-20.71)"/><polygon class="cls-7" points="88.86 176.08 84.93 184.8 72.28 189.58 76.21 180.86 88.86 176.08"/><polygon class="cls-8" points="88.86 176.08 93.65 188.73 89.71 197.45 84.93 184.8 88.86 176.08"/><rect class="cls-7" x="32.08" y="50.16" width="13.53" height="13.53" transform="translate(-13.78 12.43) rotate(-15.48)"/><polygon class="cls-7" points="55.49 66.35 47.17 61.63 43.56 48.6 51.88 53.31 55.49 66.35"/><polygon class="cls-8" points="55.49 66.35 42.46 69.96 34.13 65.24 47.17 61.63 55.49 66.35"/><path class="cls-4" d="M117.77,183.08l14.64,17.21a3.6,3.6,0,0,1-.41,5.05l-2.17,1.85a1.47,1.47,0,0,0,.1-.13l-7.67,6.52a2,2,0,0,0-.2.21,1.68,1.68,0,0,0,0,2.16l12,14.11c-.46-.55-1.86-.11-3.12,1s-1.91,2.39-1.45,2.93l-14.64-17.22a3.59,3.59,0,0,1,.41-5l2.17-1.85a.38.38,0,0,0-.1.12l7.67-6.52a1.19,1.19,0,0,0,.19-.2,1.68,1.68,0,0,0,0-2.17l-12-14.1c.46.54,1.86.11,3.12-1S118.23,183.62,117.77,183.08Z"/><ellipse class="cls-5" cx="115.48" cy="185.02" rx="3" ry="1.29" transform="translate(-92.35 118.88) rotate(-40.38)"/><ellipse class="cls-9" cx="131.78" cy="232" rx="3" ry="1.29" transform="translate(-118.9 140.62) rotate(-40.38)"/><rect class="cls-7" x="1159.42" y="643.42" width="13.53" height="13.53" transform="translate(186.35 1557.19) rotate(-71.93)"/><polygon class="cls-7" points="1183.24 641.52 1174.71 645.85 1161.85 641.66 1170.38 637.33 1183.24 641.52"/><polygon class="cls-8" points="1183.24 641.52 1179.04 654.38 1170.52 658.71 1174.71 645.85 1183.24 641.52"/><rect class="cls-7" x="1194.57" y="672.02" width="13.53" height="13.53" transform="translate(-137.59 345.27) rotate(-15.48)"/><polygon class="cls-7" points="1217.98 688.21 1209.66 683.5 1206.05 670.46 1214.37 675.17 1217.98 688.21"/><polygon class="cls-8" points="1217.98 688.21 1204.94 691.82 1196.62 687.11 1209.66 683.5 1217.98 688.21"/><path class="cls-4" d="M1093.32,622.26,1115,628.7a3.58,3.58,0,0,1,2.42,4.44l-.82,2.74a.29.29,0,0,0,0-.16l-2.86,9.65a1.4,1.4,0,0,0-.06.28,1.69,1.69,0,0,0,1.19,1.81l17.75,5.27c-.68-.2-1.62.93-2.09,2.51s-.3,3,.38,3.25l-21.66-6.43a3.59,3.59,0,0,1-2.41-4.45l.81-2.74a.3.3,0,0,0,0,.16l2.86-9.65a1.4,1.4,0,0,0,.06-.28,1.68,1.68,0,0,0-1.19-1.81L1091.61,628c.68.21,1.62-.92,2.09-2.51S1094,622.47,1093.32,622.26Z"/><ellipse class="cls-5" cx="1092.47" cy="625.14" rx="3" ry="1.29" transform="matrix(0.28, -0.96, 0.96, 0.28, 182.25, 1494.5)"/><ellipse class="cls-9" cx="1131.76" cy="655.61" rx="3" ry="1.29" transform="translate(181.15 1553.97) rotate(-73.46)"/></g></g></svg>