<svg xmlns="http://www.w3.org/2000/svg" xmlns:xlink="http://www.w3.org/1999/xlink" viewBox="0 0 1263.61 712.22"><defs><style>.cls-1,.cls-2{fill:none;}.cls-2{stroke:#3f3a37;stroke-linecap:round;stroke-linejoin:round;stroke-width:2px;stroke-dasharray:0 8;}.cls-3{opacity:0.35;fill:url(#small_dots);}</style><pattern id="small_dots" data-name="small dots" width="8" height="8" patternTransform="translate(-51 -10)" patternUnits="userSpaceOnUse" viewBox="0 0 8 8"><rect class="cls-1" width="8" height="8"/><circle class="cls-2" cx="4" cy="4" r="1"/></pattern></defs><title>Asset 51</title><g id="Layer_2" data-name="Layer 2"><g id="Layer_1-2" data-name="Layer 1"><path class="cls-3" d="M1262.52,707s-347,29-439-50C634,494.26,564.52,498,277,472.39,185.41,464.23,84.16,414,36.52,310c-60-131-28-297-28-297S152.64.18,183.52,0c193-1,266.67,31.47,385,91,84.15,42.33,254.86,105.67,447,103,235.85-3.28,247,95,247,95-1.34,65.91,1.6,34.35,1,142C1262.52,611,1262.52,707,1262.52,707Z"/></g></g></svg>