<svg xmlns="http://www.w3.org/2000/svg" xmlns:xlink="http://www.w3.org/1999/xlink" viewBox="0 0 1920 870.86"><defs><style>.cls-1,.cls-2{fill:none;}.cls-2{stroke:#3f3a37;stroke-linecap:round;stroke-linejoin:round;stroke-width:2px;stroke-dasharray:0 8;}.cls-3{opacity:0.35;fill:url(#small_dots);}</style><pattern id="small_dots" data-name="small dots" width="8" height="8" patternTransform="translate(-49.62 740.1)" patternUnits="userSpaceOnUse" viewBox="0 0 8 8"><rect class="cls-1" width="8" height="8"/><circle class="cls-2" cx="4" cy="4" r="1"/></pattern></defs><title>Asset 15</title><g id="Layer_2" data-name="Layer 2"><g id="Layer_1-2" data-name="Layer 1"><path class="cls-3" d="M1920,283.57s-41-16.9-63.18-24.72c-101.68-36-194.59-6.84-430.44-3.58-192.14,2.66-402.09-13.62-458.27-89.22-21.31-28.66-39.21-50.82-66.5-77.74C835.8,23.39,602-1.4,455.21,43,425.65,51.94,408.3,58,364,60.19,225.52,67,111.94-16.33,23.75,2.88,13.55,5.11,5.82,9.07,0,14.63L1.74,294.47A495.72,495.72,0,0,0,18.27,360.3C44,438.92,61.57,475.84,130.76,510.92c98.62,50,188.74,9.5,417.5,4.95,186.37-3.7,390,18.93,444.5,124.07,20.67,39.87,38,70.69,64.49,108.13,63.85,90.28,290.61,124.74,433,63,28.67-12.44,45.5-20.86,88.5-23.9,134.29-9.47,244.45,106.41,330,79.69a47.13,47.13,0,0,0,11.25-5.17Z"/></g></g></svg>