<?xml version="1.0" encoding="utf-8"?>
<!-- Generator: Adobe Illustrator 23.0.1, SVG Export Plug-In . SVG Version: 6.00 Build 0)  -->
<svg version="1.1" id="Layer_1" xmlns="http://www.w3.org/2000/svg" xmlns:xlink="http://www.w3.org/1999/xlink" x="0px" y="0px"
	 viewBox="0 0 1263.6 712.2" style="enable-background:new 0 0 1263.6 712.2;" xml:space="preserve">
<style type="text/css">
	.st0{fill:none;}
	.st1{fill:none;stroke:#3F3A37;stroke-width:2;stroke-linecap:round;stroke-linejoin:round;stroke-dasharray:0,8;}
	.st2{opacity:0.35;fill:url(#SVGID_1_);enable-background:new    ;}
	.st3{fill:#FFFFFF;stroke:#3F3A37;stroke-width:2;stroke-linecap:round;stroke-linejoin:round;}
	.st4{fill:#86FED4;stroke:#3F3A37;stroke-miterlimit:10;}
	.st5{fill:#3F3A37;stroke:#3F3A37;stroke-width:2;stroke-linecap:round;stroke-linejoin:round;}
	.st6{fill:#3F3A37;stroke:#FFFFFF;stroke-width:2;stroke-linecap:round;stroke-linejoin:round;}
	.st7{fill:#3F3A37;stroke:#FFFFFF;stroke-width:2;stroke-linejoin:round;}
	.st8{fill:#3F3A37;stroke:#3F3A37;stroke-width:2;stroke-miterlimit:10;}
</style>
<pattern  y="712.2" width="8" height="8" patternUnits="userSpaceOnUse" id="small_dots" viewBox="0 -8 8 8" style="overflow:visible;">
	<g>
		<rect y="-8" class="st0" width="8" height="8"/>
		<rect y="-8" class="st0" width="8" height="8"/>
		<circle class="st1" cx="4" cy="-4" r="1"/>
	</g>
</pattern>
<title>Asset 54</title>
<g>
	<pattern  id="SVGID_1_" xlink:href="#small_dots" patternTransform="matrix(1 0 0 -1 -60 -16503.6113)">
	</pattern>
	<path class="st2" d="M1262.5,707c0,0-347,29-439-50C634,494.3,564.5,498,277,472.4C185.4,464.2,84.2,414,36.5,310
		c-60-131-28-297-28-297s144.1-12.8,175-13c193-1,266.7,31.5,385,91c84.2,42.3,254.9,105.7,447,103c235.8-3.3,247,95,247,95
		c-1.3,65.9,1.6,34.4,1,142C1262.5,611,1262.5,707,1262.5,707z"/>
	<path class="st3" d="M33.8,167.6l7-21.1c0.6-1.8,2.6-2.8,4.5-2.2l13.1,4.3c-0.7-0.2-1.6,0.9-2.1,2.4s-0.4,2.8,0.1,3.1l-9.1-3
		c-0.9-0.3-1.8,0.2-2.1,1.1l-5.7,17.3c0.2-0.7-0.9-1.6-2.4-2.1S34.1,167,33.8,167.6z"/>
	<ellipse transform="matrix(0.3123 -0.95 0.95 0.3123 -134.9289 150.7244)" class="st4" cx="36.6" cy="168.6" rx="1.3" ry="3"/>
	<path class="st5" d="M56.5,154.2l-0.1-0.1c-0.5-0.4-0.6-1.7-0.1-3.1s1.5-2.6,2.1-2.4s0.8,1.7,0.3,3.2s-1.3,2.5-2,2.4L56.5,154.2z"
		/>
	
		<rect x="24.2" y="112.8" transform="matrix(0.9354 -0.3536 0.3536 0.9354 -40.2643 18.685)" class="st6" width="13.5" height="13.5"/>
	<polygon class="st6" points="38.9,102.1 34.9,110.8 22.3,115.6 26.2,106.9 	"/>
	<polygon class="st7" points="38.9,102.1 43.7,114.7 39.7,123.4 34.9,110.8 	"/>
	
		<rect x="74.2" y="186.8" transform="matrix(0.9354 -0.3536 0.3536 0.9354 -63.2021 41.1442)" class="st6" width="13.5" height="13.5"/>
	<polygon class="st6" points="88.9,176.1 84.9,184.8 72.3,189.6 76.2,180.9 	"/>
	<polygon class="st7" points="88.9,176.1 93.7,188.7 89.7,197.4 84.9,184.8 	"/>
	
		<rect x="32.1" y="50.2" transform="matrix(0.9637 -0.2669 0.2669 0.9637 -13.7833 12.4339)" class="st6" width="13.5" height="13.5"/>
	<polygon class="st6" points="55.5,66.3 47.2,61.6 43.6,48.6 51.9,53.3 	"/>
	<polygon class="st7" points="55.5,66.3 42.5,70 34.1,65.2 47.2,61.6 	"/>
	<path class="st3" d="M117.8,183.1l14.6,17.2c1.3,1.5,1.1,3.8-0.4,5.1l-2.2,1.9c0,0,0.1-0.1,0.1-0.1l-7.7,6.5
		c-0.1,0.1-0.1,0.1-0.2,0.2c-0.5,0.6-0.5,1.5,0,2.2l12,14.1c-0.5-0.6-1.9-0.1-3.1,1s-1.9,2.4-1.4,2.9l-14.6-17.2
		c-1.2-1.5-1.1-3.7,0.4-5l2.2-1.9c0,0-0.1,0.1-0.1,0.1l7.7-6.5c0.1-0.1,0.1-0.1,0.2-0.2c0.5-0.6,0.5-1.5,0-2.2l-12-14.1
		c0.5,0.5,1.9,0.1,3.1-1S118.2,183.6,117.8,183.1z"/>
	<ellipse transform="matrix(0.7618 -0.6479 0.6479 0.7618 -92.3453 118.8925)" class="st4" cx="115.5" cy="185" rx="3" ry="1.3"/>
	<ellipse transform="matrix(0.7618 -0.6479 0.6479 0.7618 -118.8896 140.6438)" class="st8" cx="131.8" cy="232" rx="3" ry="1.3"/>
	
		<rect x="1159.4" y="643.4" transform="matrix(0.3102 -0.9507 0.9507 0.3102 186.3366 1557.1934)" class="st6" width="13.5" height="13.5"/>
	<polygon class="st6" points="1183.2,641.5 1174.7,645.8 1161.8,641.7 1170.4,637.3 	"/>
	<polygon class="st7" points="1183.2,641.5 1179,654.4 1170.5,658.7 1174.7,645.8 	"/>
	
		<rect x="1194.6" y="672" transform="matrix(0.9637 -0.2669 0.2669 0.9637 -137.5911 345.2625)" class="st6" width="13.5" height="13.5"/>
	<polygon class="st6" points="1218,688.2 1209.7,683.5 1206.1,670.5 1214.4,675.2 	"/>
	<polygon class="st7" points="1218,688.2 1204.9,691.8 1196.6,687.1 1209.7,683.5 	"/>
	<g>
		<path class="st3" d="M1093.3,622.3l21.7,6.4c1.9,0.6,3,2.5,2.4,4.4l-0.8,2.7c0-0.1,0-0.1,0-0.2l-2.9,9.7c0,0.1,0,0.2-0.1,0.3
			c-0.1,0.8,0.4,1.6,1.2,1.8l17.8,5.3c-0.7-0.2-1.6,0.9-2.1,2.5s-0.3,3,0.4,3.2l-21.7-6.4c-1.9-0.6-3-2.6-2.4-4.5l0.8-2.7
			c0,0.1,0,0.1,0,0.2l2.9-9.7c0-0.1,0-0.2,0.1-0.3c0.1-0.8-0.4-1.6-1.2-1.8l-17.8-5.3c0.7,0.2,1.6-0.9,2.1-2.5
			S1094,622.5,1093.3,622.3z"/>
		<ellipse transform="matrix(0.28 -0.96 0.96 0.28 186.6614 1498.418)" class="st4" cx="1092.3" cy="624.8" rx="3" ry="1.3"/>
	</g>
	
		<ellipse transform="matrix(0.2847 -0.9586 0.9586 0.2847 181.0611 1554.0128)" class="st8" cx="1131.8" cy="655.7" rx="3" ry="1.3"/>
</g>
</svg>
