<svg xmlns="http://www.w3.org/2000/svg" xmlns:xlink="http://www.w3.org/1999/xlink" viewBox="0 0 1921.35 794.29"><defs><style>.cls-1,.cls-2{fill:none;}.cls-2{stroke:#3f3a37;stroke-linecap:round;stroke-linejoin:round;stroke-width:2px;stroke-dasharray:0 8;}.cls-3{opacity:0.35;fill:url(#small_dots);}</style><pattern id="small_dots" data-name="small dots" width="8" height="8" patternTransform="translate(-30.23 -12.49)" patternUnits="userSpaceOnUse" viewBox="0 0 8 8"><rect class="cls-1" width="8" height="8"/><circle class="cls-2" cx="4" cy="4" r="1"/></pattern></defs><title>Asset 1</title><g id="Layer_2" data-name="Layer 2"><g id="Layer_1-2" data-name="Layer 1"><path class="cls-3" d="M1921.35,0H0A851.35,851.35,0,0,0,20.62,121.5C46.31,225.11,63.91,273.77,133.12,320c98.61,65.88,188.74,12.51,417.5,6.5,186.37-4.89,390,24.93,444.5,163.5,20.66,52.55,38,93.17,64.5,142.5,63.85,119,290.61,164.4,433,83,28.67-16.39,45.5-27.5,88.5-31.5,134.29-12.49,244.46,140.23,330,105a42.47,42.47,0,0,0,10.23-6Z"/></g></g></svg>