<svg xmlns="http://www.w3.org/2000/svg" xmlns:xlink="http://www.w3.org/1999/xlink" viewBox="0 0 1449.32 809.78"><defs><style>.cls-1,.cls-2{fill:none;}.cls-2,.cls-4,.cls-5,.cls-6,.cls-9{stroke:#3f3a37;}.cls-2,.cls-4,.cls-6,.cls-7{stroke-linecap:round;}.cls-2,.cls-4,.cls-6,.cls-7,.cls-8{stroke-linejoin:round;}.cls-2,.cls-4,.cls-6,.cls-7,.cls-8,.cls-9{stroke-width:2px;}.cls-2{stroke-dasharray:0 8;}.cls-3{opacity:0.35;fill:url(#small_dots);}.cls-4{fill:#fff;}.cls-5{fill:#86fed4;}.cls-5,.cls-9{stroke-miterlimit:10;}.cls-6,.cls-7,.cls-8,.cls-9{fill:#3f3a37;}.cls-7,.cls-8{stroke:#fff;}</style><pattern id="small_dots" data-name="small dots" width="8" height="8" patternTransform="translate(2 -1)" patternUnits="userSpaceOnUse" viewBox="0 0 8 8"><rect class="cls-1" width="8" height="8"/><circle class="cls-2" cx="4" cy="4" r="1"/></pattern></defs><title>Asset 53</title><g id="Layer_2" data-name="Layer 2"><g id="Layer_1-2" data-name="Layer 1"><path class="cls-3" d="M1442,0s25.25,578.66-18,642c-99,145-222.66,158.73-248,163-166,28-332.82-71.72-380.74-173.76-19.87-42.31-32.9-77.15-48.41-122.22C706,390.18,553.12,364.6,413.25,368.8c-171.7,5.15-239.33,50.92-313.34-5.58C48,323.57,34.76,281.84,15.48,193A824.79,824.79,0,0,1,0,88.78H1.76V0Z"/><path class="cls-4" d="M58.31,260.61l7-21.14a3.55,3.55,0,0,1,4.45-2.25l13.12,4.31c-.67-.22-1.62.87-2.13,2.42s-.4,2.76.14,3.13l-9.12-3a1.66,1.66,0,0,0-2.09,1.06l-5.7,17.32c.22-.67-.86-1.62-2.41-2.13S58.53,260,58.31,260.61Z"/><ellipse class="cls-5" cx="61.12" cy="261.54" rx="1.27" ry="2.96" transform="matrix(0.31, -0.95, 0.95, 0.31, -206.42, 237.92)"/><path class="cls-6" d="M81,247.15a.37.37,0,0,1-.14-.07c-.54-.37-.61-1.7-.14-3.13s1.46-2.64,2.13-2.42.79,1.66.28,3.21-1.32,2.47-2,2.44A.45.45,0,0,1,81,247.15Z"/><rect class="cls-7" x="48.71" y="205.73" width="13.53" height="13.53" transform="translate(-71.57 33.35) rotate(-20.71)"/><polygon class="cls-7" points="63.34 195.06 59.41 203.77 46.75 208.56 50.69 199.84 63.34 195.06"/><polygon class="cls-8" points="63.34 195.06 68.12 207.71 64.19 216.43 59.41 203.77 63.34 195.06"/><rect class="cls-7" x="98.71" y="279.73" width="13.53" height="13.53" transform="translate(-94.51 55.82) rotate(-20.71)"/><polygon class="cls-7" points="113.34 269.06 109.41 277.77 96.75 282.56 100.69 273.84 113.34 269.06"/><polygon class="cls-8" points="113.34 269.06 118.12 281.71 114.19 290.43 109.41 277.77 113.34 269.06"/><rect class="cls-7" x="56.56" y="143.14" width="13.53" height="13.53" transform="translate(-37.71 22.34) rotate(-15.48)"/><polygon class="cls-7" points="79.97 159.32 71.64 154.61 68.03 141.58 76.36 146.29 79.97 159.32"/><polygon class="cls-8" points="79.97 159.32 66.93 162.93 58.61 158.22 71.64 154.61 79.97 159.32"/><path class="cls-4" d="M142.25,276.05l14.64,17.22a3.6,3.6,0,0,1-.41,5l-2.18,1.85a.43.43,0,0,0,.11-.12l-7.67,6.52-.2.2a1.68,1.68,0,0,0,0,2.17l12,14.1c-.46-.54-1.86-.1-3.12,1s-1.92,2.38-1.46,2.93l-14.64-17.22a3.6,3.6,0,0,1,.41-5l2.18-1.85a.43.43,0,0,0-.11.12l7.67-6.52a1.26,1.26,0,0,0,.2-.2,1.68,1.68,0,0,0,0-2.17l-12-14.1c.46.54,1.86.1,3.12-1S142.71,276.6,142.25,276.05Z"/><ellipse class="cls-5" cx="139.96" cy="278" rx="3" ry="1.29" transform="translate(-146.75 156.88) rotate(-40.38)"/><ellipse class="cls-9" cx="156.25" cy="324.98" rx="3" ry="1.29" transform="matrix(0.76, -0.65, 0.65, 0.76, -173.3, 178.63)"/></g></g></svg>