<svg xmlns="http://www.w3.org/2000/svg" xmlns:xlink="http://www.w3.org/1999/xlink" viewBox="0 0 1920.77 614.19"><defs><style>.cls-1,.cls-2{fill:none;}.cls-2{stroke:#3f3a37;stroke-linecap:round;stroke-linejoin:round;stroke-width:2px;stroke-dasharray:0 8;}.cls-3{opacity:0.35;fill:url(#small_dots);}</style><pattern id="small_dots" data-name="small dots" width="8" height="8" patternTransform="matrix(1, 0, 0, 1.02, -49.44, 377.73)" patternUnits="userSpaceOnUse" viewBox="0 0 8 8"><rect class="cls-1" width="8" height="8"/><circle class="cls-2" cx="4" cy="4" r="1"/></pattern></defs><title>Asset 2</title><g id="Layer_2" data-name="Layer 2"><g id="Layer_1-2" data-name="Layer 1"><path class="cls-3" d="M1920.77,614.19V553.85a1.24,1.24,0,0,0,0-.33q-.51-2.81-1.11-5.58c-15-70-60.45-102-115.62-118.51-103.32-30.89-179.22,62.64-407,89-208.36,24.11-424.2-49-478-191-20.37-53.78-34.68-98.53-61-149C794.53,56.7,632.88-26.41,479,33.43c-36,14-93.61,38-117,49C239.21,140,152.66-29.76,66.32,4.65,33.15,17.87,12.41,42.13,0,80v530.6"/></g></g></svg>