<svg xmlns="http://www.w3.org/2000/svg" viewBox="0 0 860 374.81"><defs><style>.cls-1{fill:#86fed4;}.cls-10,.cls-11,.cls-12,.cls-13,.cls-14,.cls-17,.cls-2,.cls-3,.cls-4,.cls-5,.cls-6,.cls-7,.cls-8,.cls-9{fill:none;stroke:#3f3a37;stroke-width:2px;}.cls-10,.cls-11,.cls-12,.cls-13,.cls-14,.cls-2,.cls-3,.cls-4,.cls-5,.cls-6,.cls-7,.cls-8,.cls-9{stroke-miterlimit:10;}.cls-3{stroke-dasharray:5.05 5.05;}.cls-4{stroke-dasharray:4.92 4.92;}.cls-5{stroke-dasharray:4.11 4.11;}.cls-6{stroke-dasharray:4.55 4.55;}.cls-7{stroke-dasharray:5.66 5.66;}.cls-8{stroke-dasharray:4.95 4.95;}.cls-9{stroke-dasharray:4.97 4.97;}.cls-10{stroke-dasharray:4.96 4.96;}.cls-11{stroke-dasharray:4.9 4.9;}.cls-12{stroke-dasharray:5.04 5.04;}.cls-13{stroke-dasharray:5.04 5.04;}.cls-14{stroke-dasharray:5.02 5.02;}.cls-15{fill:#fff;}.cls-16{fill:#2dfefe;}.cls-17{stroke-linecap:round;stroke-linejoin:round;}.cls-18{fill:#575350;}.cls-19{fill:#3f3a37;}</style></defs><title>Kubernetes1</title><g id="Layer_2" data-name="Layer 2"><g id="otter_drawing"><rect class="cls-1" y="0.82" width="860" height="372.83"/><line class="cls-2" x1="4.04" y1="37.83" x2="6.54" y2="37.83"/><line class="cls-3" x1="11.59" y1="37.83" x2="271.61" y2="37.83"/><line class="cls-2" x1="274.13" y1="37.83" x2="276.63" y2="37.83"/><line class="cls-2" x1="695.61" y1="106.1" x2="695.61" y2="108.6"/><line class="cls-4" x1="695.61" y1="113.52" x2="695.61" y2="248.87"/><line class="cls-2" x1="695.61" y1="251.33" x2="695.61" y2="253.83"/><line class="cls-2" x1="517.73" y1="1.96" x2="517.73" y2="4.46"/><line class="cls-5" x1="517.73" y1="8.57" x2="517.73" y2="22.95"/><line class="cls-2" x1="517.73" y1="25" x2="517.73" y2="27.5"/><line class="cls-2" x1="276.63" x2="276.63" y2="2.5"/><line class="cls-6" x1="276.63" y1="7.05" x2="276.63" y2="32.08"/><line class="cls-2" x1="276.63" y1="34.35" x2="276.63" y2="36.85"/><line class="cls-2" x1="309.82" y1="341.5" x2="309.82" y2="344"/><line class="cls-7" x1="309.82" y1="349.66" x2="309.82" y2="369.48"/><line class="cls-2" x1="309.82" y1="372.31" x2="309.82" y2="374.81"/><line class="cls-2" x1="519.87" y1="26.52" x2="522.37" y2="26.52"/><line class="cls-8" x1="527.32" y1="26.52" x2="851.81" y2="26.52"/><line class="cls-2" x1="854.29" y1="26.52" x2="856.79" y2="26.52"/><line class="cls-2" x1="309.82" y1="337.39" x2="312.32" y2="337.39"/><line class="cls-9" x1="317.29" y1="337.39" x2="851.8" y2="337.39"/><line class="cls-2" x1="854.29" y1="337.39" x2="856.79" y2="337.39"/><line class="cls-2" x1="4.04" y1="134.92" x2="6.54" y2="134.92"/><line class="cls-10" x1="11.5" y1="134.92" x2="167.64" y2="134.92"/><line class="cls-2" x1="170.12" y1="134.92" x2="172.62" y2="134.92"/><line class="cls-2" x1="5.99" y1="325.27" x2="8.49" y2="325.27"/><line class="cls-11" x1="13.39" y1="325.27" x2="167.67" y2="325.27"/><line class="cls-2" x1="170.12" y1="325.27" x2="172.62" y2="325.27"/><line class="cls-2" x1="695.4" y1="106.1" x2="697.9" y2="106.1"/><line class="cls-12" x1="702.95" y1="106.1" x2="851.77" y2="106.1"/><line class="cls-2" x1="854.29" y1="106.1" x2="856.79" y2="106.1"/><line class="cls-2" x1="695.61" y1="253.83" x2="698.11" y2="253.83"/><line class="cls-13" x1="703.15" y1="253.83" x2="851.77" y2="253.83"/><line class="cls-2" x1="854.29" y1="253.83" x2="856.79" y2="253.83"/><line class="cls-2" x1="172.62" y1="134.92" x2="172.62" y2="137.42"/><line class="cls-14" x1="172.62" y1="142.45" x2="172.62" y2="320.77"/><line class="cls-2" x1="172.62" y1="323.28" x2="172.62" y2="325.78"/><path class="cls-15" d="M417.89,225.32l-.2-.14L402,216.1l-.13-.08a.17.17,0,0,1-.11-.18V197.29l.22.12,14.51,8.34c.43.25.86.5,1.3.74a.23.23,0,0,1,.14.25.86.86,0,0,0,0,.16V225c0,.11,0,.22,0,.34Z"/><path class="cls-15" d="M437,193.75l-2.08,1.19-13.82,8-.24.13a1.83,1.83,0,0,1,0-.21V184.82a1.08,1.08,0,0,0,0-.18c0-.16.05-.24.18-.32l5.93-3.43,9.84-5.7.21-.13Z"/><path class="cls-15" d="M382.56,164.24l16.18,9.38v18.66l-.21-.11-9.75-5.65-6-3.47a.39.39,0,0,1-.23-.39q0-9.06,0-18.12Z"/><path class="cls-15" d="M401.77,175.06l16.16,9.36v18.66l-.21-.11L402,193.85a.34.34,0,0,1-.2-.36V175.06Z"/><path class="cls-15" d="M505.69,165.52h1c3.89,2.29,7.79,4.57,11.68,6.88a12.46,12.46,0,0,1,1.41,1.13v14.85c-.81.63-1.57,1.32-2.43,1.87-1.64,1-3.33,2-5.14,3.07,1.23.67,1.2,1.68,1.19,2.71q0,6.41,0,12.8a1.77,1.77,0,0,1-1,1.75q-11.59,6.57-23.17,13.18a1.82,1.82,0,0,1-2,0l-23.47-13.24a1.74,1.74,0,0,1-1-1.66q-.12-13.72-.26-27.44a1.85,1.85,0,0,1,1-1.82q11.82-6.76,23.63-13.56a1.89,1.89,0,0,1,2.09,0c2.11,1.22,4.32,2.3,6.35,3.64a2.7,2.7,0,0,0,3.46-.07C501.23,168.17,503.49,166.88,505.69,165.52Zm-40.08,18.19c0,.38,0,.57,0,.76,0,7.72,0,15.43,0,23.14a1.28,1.28,0,0,0,.83,1.26q9.78,5.49,19.55,11c.24.13.5.24.81.39,0-.31.05-.5.05-.69,0-7.71,0-15.43,0-23.14a1.22,1.22,0,0,0-.79-1.18l-19.26-10.94ZM511,197.31c-.56.29-.9.46-1.23.65-2.85,1.58-5.69,3.17-8.54,4.74-1.35.75-2.32.18-2.35-1.34,0-.36,0-.71,0-1.07v-9.88c-.39.2-.67.33-.94.49-2.51,1.44-5,2.92-7.53,4.33a1.44,1.44,0,0,0-.82,1.47c0,7.52,0,15,0,22.56,0,.31,0,.62,0,.9.12,0,.16.07.18.05q10.36-6,20.73-11.93a1,1,0,0,0,.42-.67C511,204.26,511,200.91,511,197.31Zm-13.59-9.46c-.43-.26-.75-.47-1.08-.66-2.78-1.61-5.58-3.22-8.36-4.84-1.39-.81-1.4-1.88,0-2.77s2.92-1.83,4.35-2.8a1.43,1.43,0,0,0,.57-1c0-1.41-.13-2.87,1.77-3.51-2-1.18-3.85-2.22-5.65-3.33a1.26,1.26,0,0,0-1.5,0q-9.93,5.82-19.89,11.6c-.23.13-.44.3-.74.51,7.06,4,14,8,20.94,12a1,1,0,0,0,.79,0C491.45,191.39,494.35,189.66,497.38,187.85ZM497,173.9c3,1.76,5.78,3.39,8.56,5.07a1.24,1.24,0,0,0,1.49,0c2.57-1.51,5.17-3,7.76-4.49.23-.13.45-.3.77-.52-3-1.78-6-3.51-8.93-5.21a.88.88,0,0,0-.71,0C503,170.42,500.05,172.12,497,173.9Zm20,2.57a3.37,3.37,0,0,0-.46.18c-2.79,1.61-5.59,3.2-8.35,4.84a1.38,1.38,0,0,0-.51,1c0,1.85,0,3.7,0,5.56v4.29a2.15,2.15,0,0,0,.39-.07c2.84-1.65,5.68-3.29,8.51-5a1.05,1.05,0,0,0,.44-.76C517,183.24,517,179.92,517,176.47Zm-12.19,15.87a1.77,1.77,0,0,0,.11-.36c0-3.22,0-6.44,0-9.66a1.39,1.39,0,0,0-.67-.92c-2.25-1.31-4.52-2.57-6.78-3.85-.58-.33-1.14-.69-1.84-1.12,0,2.42,0,4.66,0,6.89a1.14,1.14,0,0,0,.54.7c1,.6,2,1.15,3.06,1.73,2.72,1.53,2.36,1,2.4,4,0,.3,0,.74.23.87C502.76,191.25,503.75,191.77,504.78,192.34Zm2.43,4a2.65,2.65,0,0,1-2.61-.66c-.92-.69-1.9-1.31-2.93-2v5.94Zm-14.4-14.17v-2.37L490.93,181Z"/><path class="cls-15" d="M551.59,193.81v13.44l-1.39-.47-7.31-2.42a.44.44,0,0,1-.36-.49c0-4.12,0-8.23,0-12.35v-.39Z"/><path class="cls-15" d="M608.7,188.11l-9.05-3V172l2.24.66,6.47,1.91c.22.07.36.13.36.42q0,6.42,0,12.85Z"/><path class="cls-15" d="M554,210.28l9,2.68v13.43l-2.7-.9-6-2c-.21-.07-.32-.15-.32-.41q0-6.23,0-12.46C554,210.52,554,210.43,554,210.28Z"/><path class="cls-15" d="M565.38,226.38V226q0-6.3,0-12.6a.45.45,0,0,1,.39-.53l8.3-2.45c.11,0,.23-.06.38-.1v.38q0,6.18,0,12.36c0,.19,0,.34-.25.42l-8.57,2.87Z"/><path class="cls-15" d="M554,207.23V193.82l9-2.68v.37q0,6.18,0,12.36a.41.41,0,0,1-.33.47l-8.38,2.8A2.22,2.22,0,0,1,554,207.23Z"/><path class="cls-15" d="M611.05,188.12v-.43c0-4.21,0-8.42,0-12.63,0-.29.07-.41.35-.49l8.4-2.48.3-.08v13.07Z"/><path class="cls-15" d="M574.41,207.24l-2.21-.73-6.54-2.18a.35.35,0,0,1-.29-.39q0-6.25,0-12.5c0-.08,0-.16,0-.3l1.84.55,6.91,2c.2.06.3.12.3.35q0,6.48,0,13S574.42,207.13,574.41,207.24Z"/><path class="cls-15" d="M585.86,188.11l-3-1-5.7-1.89c-.23-.08-.32-.16-.32-.42q0-6.22,0-12.46c0-.09,0-.19,0-.32l2.31.68c2.11.63,4.22,1.26,6.34,1.87a.46.46,0,0,1,.4.53q0,6.28,0,12.57Z"/><path class="cls-15" d="M588.23,188.09v-.42q0-6.3,0-12.6c0-.3.07-.43.37-.51l8.31-2.45.39-.11v.39c0,4.1,0,8.21,0,12.32a.44.44,0,0,1-.35.5c-2.78.92-5.54,1.85-8.31,2.78C588.49,188,588.37,188.05,588.23,188.09Z"/><path class="cls-15" d="M585.87,191.16v.42c0,4.09,0,8.19,0,12.28a.44.44,0,0,1-.35.5c-2.77.91-5.52,1.84-8.28,2.77l-.38.1c0-.15,0-.27,0-.4q0-6.32,0-12.64a.41.41,0,0,1,.36-.48c2.79-.81,5.58-1.65,8.37-2.47Z"/><path class="cls-15" d="M561.11,189.74l-4.37,1.16-3.55.94a1.58,1.58,0,0,1-.89,0c-2.55-.7-5.1-1.38-7.65-2.06l-.18-.06.33-.13,7.67-2.4a.94.94,0,0,1,.47,0l8,2.47Z"/><path class="cls-15" d="M583.87,189.76l-5.12,1.36-2.87.76a1,1,0,0,1-.45,0l-8.16-2.17.43-.16,7.59-2.37a.89.89,0,0,1,.51,0c2.63.8,5.26,1.62,7.89,2.44l.19.07Z"/><path class="cls-15" d="M572.54,208.88l-3.67,1L564.36,211a.66.66,0,0,1-.34,0c-2.7-.71-5.4-1.44-8.17-2.18l.38-.14,7.66-2.39a1,1,0,0,1,.48,0l7.94,2.45Z"/><path class="cls-15" d="M601.55,170.55l4.3-1.34,3.71-1.16a.74.74,0,0,1,.44,0c2.69.82,5.38,1.66,8.07,2.49l.09,0a1.06,1.06,0,0,1-.17.1l-7.92,2.1a1,1,0,0,1-.45,0l-7.78-2.09C601.76,170.64,601.69,170.6,601.55,170.55Z"/><path class="cls-15" d="M595.4,170.58l-2.85.76-5.26,1.39a1.1,1.1,0,0,1-.51,0L579,170.65a2.1,2.1,0,0,1-.25-.09l1.65-.53,6.35-2a.94.94,0,0,1,.47,0l8,2.48Z"/><path class="cls-15" d="M344.6,217.87a35.25,35.25,0,0,1-4,2.81c-.65.39-1,.75-.55,1.49a.86.86,0,0,1,.08.76,3.32,3.32,0,0,0,.35,2.76,75.39,75.39,0,0,0,4.21,6.8,4.62,4.62,0,0,1,.92,3.44,3.43,3.43,0,0,1-2.52,2.89,3.75,3.75,0,0,1-3.81-1.75,13.47,13.47,0,0,1-1.41-3.45,38,38,0,0,0-2.3-6.19,2.2,2.2,0,0,0-.93-1.12c-.72-.33-1.42-.63-1.68-1.48-.1-.32-.39-.18-.6-.1a42.63,42.63,0,0,1-8.4,2.15,46.3,46.3,0,0,1-10.91.3A43.27,43.27,0,0,1,302,224.67c-.44-.15-.65,0-.81.33a2,2,0,0,1-1.29,1.15c-1,.36-1.29,1.3-1.65,2.15a62.9,62.9,0,0,0-2.27,6.57,6.69,6.69,0,0,1-1.94,3.24,3.31,3.31,0,0,1-5.35-1.67,4.57,4.57,0,0,1,.38-3.05c.89-1.85,2.29-3.36,3.27-5.15.45-.84.92-1.68,1.39-2.51a2.9,2.9,0,0,0,.36-2.8,1,1,0,0,1,.14-.92c.42-.67.16-1-.47-1.38a44.52,44.52,0,0,1-18.4-22.93c-.26-.75-.53-1.21-1.4-.83a.74.74,0,0,1-.74-.13,3.34,3.34,0,0,0-2.92-.26,47.69,47.69,0,0,0-6.16,2.13,8.5,8.5,0,0,1-3.86.8A3.5,3.5,0,0,1,257,196.3a3.79,3.79,0,0,1,2.59-3.56,10.59,10.59,0,0,1,3.06-.55,37.13,37.13,0,0,0,7-.88,2.28,2.28,0,0,0,1.45-.73,2.68,2.68,0,0,1,1.78-1.26.4.4,0,0,0,.35-.51,34.53,34.53,0,0,1-.44-5.37,25.31,25.31,0,0,1,.14-4.08,45.54,45.54,0,0,1,2.21-10.51,44.51,44.51,0,0,1,4.59-9.56c.35-.54.53-.92-.17-1.29a1,1,0,0,1-.52-.77,3.32,3.32,0,0,0-1.75-2.56,40.49,40.49,0,0,0-5.45-3.42,12.16,12.16,0,0,1-2.27-1.62,3.46,3.46,0,1,1,4.38-5.36,15.84,15.84,0,0,1,2.72,2.58,31.33,31.33,0,0,0,4.62,4.37,2.3,2.3,0,0,0,2.1.55c.52-.15.79.3,1.14.52s.51.24.8-.06a42.91,42.91,0,0,1,21.64-12.29,34.05,34.05,0,0,1,5.22-.87c.63,0,1.21-.15,1.12-1a.88.88,0,0,1,.2-.65,3.69,3.69,0,0,0,1-3.31,57,57,0,0,0-.77-6.89,5.17,5.17,0,0,1,1-4.51,3.29,3.29,0,0,1,5.55,1.08,7.59,7.59,0,0,1,.13,4.45,37,37,0,0,0-.64,7.27,2.08,2.08,0,0,0,.61,1.49,1.69,1.69,0,0,1,.59,1.3c0,.59.28.75.77.8a43.19,43.19,0,0,1,19.51,7l23.58-23.58-16-7.65-26.61-12.74a10.8,10.8,0,0,0-9.49-.25c-1.29.58-2.58,1.18-3.86,1.8L275.18,119.7l-19.71,9.43a10.76,10.76,0,0,0-4.71,4.37,17.76,17.76,0,0,0-1.68,5.26q-3.12,13.56-6.25,27.1c-2.37,10.28-4.71,20.55-7.11,30.82-.75,3.22-.57,6.29,1.35,9.07,1.1,1.59,2.36,3.09,3.57,4.6q5.93,7.36,11.87,14.71t11.71,14.62c4.21,5.25,8.45,10.49,12.67,15.73a10.57,10.57,0,0,0,8.52,4.2c10.54.05,21.08,0,31.62,0s21,0,31.44,0a10.6,10.6,0,0,0,8.51-3.88c3-3.59,5.87-7.27,8.8-10.91l2.57-3.21Z"/><path class="cls-16" d="M366.61,217.34a36.16,36.16,0,0,1-4,2.81c-.65.39-1,.75-.56,1.49a.86.86,0,0,1,.09.76,3.29,3.29,0,0,0,.34,2.75,74.27,74.27,0,0,0,4.22,6.81,4.6,4.6,0,0,1,.91,3.43,3.4,3.4,0,0,1-2.52,2.9,3.78,3.78,0,0,1-3.81-1.75,13.44,13.44,0,0,1-1.4-3.45,37.71,37.71,0,0,0-2.3-6.19,2.22,2.22,0,0,0-.94-1.12c-.71-.34-1.41-.63-1.68-1.48-.1-.32-.38-.18-.59-.1a43.34,43.34,0,0,1-8.4,2.15,46.39,46.39,0,0,1-10.92.3A43.2,43.2,0,0,1,324,224.14c-.44-.16-.66,0-.81.32a2,2,0,0,1-1.29,1.16c-1,.35-1.3,1.3-1.65,2.15a62.11,62.11,0,0,0-2.27,6.57,6.68,6.68,0,0,1-1.95,3.24,3.3,3.3,0,0,1-5.34-1.67,4.57,4.57,0,0,1,.38-3c.89-1.85,2.29-3.36,3.26-5.15.46-.84.93-1.68,1.4-2.51a2.9,2.9,0,0,0,.35-2.8,1,1,0,0,1,.15-.92c.41-.67.16-1-.47-1.39a44.29,44.29,0,0,1-18.4-22.92c-.26-.75-.53-1.21-1.4-.83a.74.74,0,0,1-.74-.13,3.31,3.31,0,0,0-2.92-.27,49.3,49.3,0,0,0-6.16,2.14,8.53,8.53,0,0,1-3.86.8,3.51,3.51,0,0,1-3.24-3.11,3.79,3.79,0,0,1,2.59-3.56,10.89,10.89,0,0,1,3.06-.56,37.12,37.12,0,0,0,7-.87,2.28,2.28,0,0,0,1.45-.73,2.63,2.63,0,0,1,1.78-1.26.39.39,0,0,0,.34-.51,33.34,33.34,0,0,1-.43-5.37,24.21,24.21,0,0,1,.14-4.08,45.62,45.62,0,0,1,2.21-10.52,44.62,44.62,0,0,1,4.58-9.55c.35-.54.54-.92-.16-1.29a.93.93,0,0,1-.52-.77,3.32,3.32,0,0,0-1.75-2.56,41.59,41.59,0,0,0-5.45-3.43,11.38,11.38,0,0,1-2.27-1.61,3.46,3.46,0,1,1,4.38-5.36,15.82,15.82,0,0,1,2.72,2.58,30.68,30.68,0,0,0,4.61,4.36,2.27,2.27,0,0,0,2.11.55c.52-.14.79.31,1.13.53s.52.24.81-.06A42.87,42.87,0,0,1,329,139.41a32.88,32.88,0,0,1,5.22-.87c.63,0,1.21-.15,1.11-1a.88.88,0,0,1,.21-.65,3.69,3.69,0,0,0,1-3.3,55.4,55.4,0,0,0-.78-6.9,5.18,5.18,0,0,1,1-4.51,3.29,3.29,0,0,1,5.55,1.09,7.59,7.59,0,0,1,.13,4.45,36.17,36.17,0,0,0-.64,7.26,2,2,0,0,0,.61,1.49,1.68,1.68,0,0,1,.58,1.31c0,.59.29.75.78.8a43.19,43.19,0,0,1,19.51,7l23.58-23.58-16-7.65-26.61-12.74a10.83,10.83,0,0,0-9.49-.26c-1.3.58-2.58,1.19-3.86,1.8l-33.6,16.08q-9.84,4.71-19.7,9.42a10.8,10.8,0,0,0-4.72,4.38,18.06,18.06,0,0,0-1.68,5.26q-3.1,13.56-6.24,27.1-3.55,15.4-7.11,30.82c-.75,3.22-.58,6.29,1.34,9.07,1.11,1.59,2.36,3.09,3.58,4.6q5.93,7.37,11.87,14.71c3.91,4.87,7.79,9.75,11.7,14.62q6.33,7.88,12.68,15.73a10.6,10.6,0,0,0,8.52,4.2c10.54.05,21.08,0,31.62,0s21,0,31.44,0a10.57,10.57,0,0,0,8.5-3.88c3-3.59,5.88-7.27,8.81-10.91l2.57-3.21Z"/><path class="cls-2" d="M325.41,149.94c-.28,4.62-.57,9.16-.84,13.71a25.83,25.83,0,0,1-.2,3.29,2.9,2.9,0,0,1-4.36,2.15c-2.07-1.18-3.92-2.7-5.86-4.07-2.83-2-5.63-4-8.47-6-.55-.39-.43-.55,0-.93A34.48,34.48,0,0,1,323,149.28c.43-.08.86-.13,1.29-.2C325.43,148.89,325.43,148.89,325.41,149.94Z"/><path class="cls-2" d="M294.54,183.74a36.16,36.16,0,0,1,4.8-17.74c.24-.42.39-.56.82-.18,2.59,2.34,5.2,4.65,7.81,7,1.45,1.3,2.93,2.57,4.36,3.89,1,1,1.95,2,1.58,3.61a3.14,3.14,0,0,1-2.47,2.32c-5.34,1.55-10.69,3.06-16,4.61-.55.17-.72.09-.73-.5C294.66,185.62,294.58,184.52,294.54,183.74Z"/><path class="cls-2" d="M329.67,219.14a39.07,39.07,0,0,1-10.35-1.67c-.65-.21-.67-.38-.37-.92,2-3.6,4-7.21,6-10.82.67-1.22,1.36-2.43,2-3.65,1.46-2.63,4.13-2.67,5.66-.05,1.27,2.19,2.45,4.42,3.68,6.63,1.45,2.61,2.88,5.24,4.36,7.84.34.59.27.82-.39,1a34.57,34.57,0,0,1-9,1.49C330.76,219,330.21,219.09,329.67,219.14Z"/><path class="cls-2" d="M317.75,195.75a13.07,13.07,0,0,1-1.29,3.9c-1.78,4.35-3.6,8.69-5.38,13-.24.59-.42.74-1,.33A35.35,35.35,0,0,1,297,196.63c-.24-.62-.11-.78.51-.89,5.05-.84,10.08-1.73,15.13-2.56,1.19-.2,2.4-.54,3.58.12A3.09,3.09,0,0,1,317.75,195.75Z"/><polygon class="cls-2" points="327.16 176.45 323.85 180.6 325.03 185.78 329.82 188.08 334.6 185.78 335.78 180.6 332.47 176.45 327.16 176.45"/><path class="cls-17" d="M357.32,218.62a36.16,36.16,0,0,1-4,2.81c-.65.39-1,.75-.55,1.49a.86.86,0,0,1,.08.76,3.29,3.29,0,0,0,.35,2.75,74.17,74.17,0,0,0,4.21,6.81,4.56,4.56,0,0,1,.91,3.43,3.4,3.4,0,0,1-2.51,2.9,3.76,3.76,0,0,1-3.81-1.75,13.47,13.47,0,0,1-1.41-3.45,38,38,0,0,0-2.3-6.19,2.2,2.2,0,0,0-.93-1.12c-.72-.34-1.42-.63-1.68-1.48-.1-.32-.39-.18-.6-.1a42.63,42.63,0,0,1-8.4,2.15,46.37,46.37,0,0,1-10.92.3,43.2,43.2,0,0,1-11.06-2.51c-.44-.16-.65,0-.81.32a2,2,0,0,1-1.29,1.16c-1,.36-1.29,1.3-1.65,2.15a62.11,62.11,0,0,0-2.27,6.57,6.69,6.69,0,0,1-1.94,3.24,3.31,3.31,0,0,1-5.35-1.67,4.57,4.57,0,0,1,.38-3.05c.89-1.85,2.29-3.36,3.27-5.15.45-.84.92-1.68,1.39-2.51a2.9,2.9,0,0,0,.36-2.8,1,1,0,0,1,.14-.92c.42-.67.16-1-.47-1.39A44.42,44.42,0,0,1,288,198.45c-.26-.75-.53-1.21-1.4-.83a.74.74,0,0,1-.74-.13,3.31,3.31,0,0,0-2.92-.27,49.3,49.3,0,0,0-6.16,2.14,8.5,8.5,0,0,1-3.86.8,3.51,3.51,0,0,1-3.24-3.11,3.79,3.79,0,0,1,2.59-3.56,10.59,10.59,0,0,1,3.06-.55,37.13,37.13,0,0,0,7-.88,2.28,2.28,0,0,0,1.45-.73,2.68,2.68,0,0,1,1.78-1.26.4.4,0,0,0,.35-.51,33.35,33.35,0,0,1-.44-5.37,25.31,25.31,0,0,1,.14-4.08,45.73,45.73,0,0,1,2.21-10.52,44.66,44.66,0,0,1,4.59-9.55c.34-.54.53-.92-.17-1.29a1,1,0,0,1-.52-.77,3.32,3.32,0,0,0-1.75-2.56,41.59,41.59,0,0,0-5.45-3.43,11.67,11.67,0,0,1-2.27-1.61,3.46,3.46,0,1,1,4.38-5.36,15.46,15.46,0,0,1,2.72,2.58A30.28,30.28,0,0,0,294,152a2.25,2.25,0,0,0,2.1.55c.52-.14.79.31,1.14.53s.51.24.8-.06a42.87,42.87,0,0,1,21.64-12.29,32.88,32.88,0,0,1,5.22-.87c.63,0,1.21-.15,1.12-1a.84.84,0,0,1,.2-.65,3.69,3.69,0,0,0,1-3.3,57.34,57.34,0,0,0-.77-6.9,5.15,5.15,0,0,1,1-4.51,3.29,3.29,0,0,1,5.55,1.09,7.59,7.59,0,0,1,.13,4.45,36.92,36.92,0,0,0-.64,7.26,2,2,0,0,0,.61,1.49,1.68,1.68,0,0,1,.58,1.31c0,.59.29.75.78.8a43.19,43.19,0,0,1,19.51,7l23.58-23.58-16-7.65-26.61-12.74a10.83,10.83,0,0,0-9.49-.26c-1.29.58-2.58,1.19-3.86,1.8L287.9,120.45l-19.71,9.42a10.8,10.8,0,0,0-4.72,4.38,18.36,18.36,0,0,0-1.68,5.26q-3.1,13.56-6.24,27.1c-2.37,10.27-4.71,20.55-7.11,30.82-.75,3.22-.57,6.29,1.35,9.07,1.1,1.59,2.35,3.09,3.57,4.6q5.92,7.36,11.87,14.71t11.71,14.62c4.21,5.25,8.45,10.49,12.67,15.73a10.6,10.6,0,0,0,8.52,4.2c10.54.05,21.08,0,31.62,0s21,0,31.44,0a10.6,10.6,0,0,0,8.51-3.88c3-3.59,5.87-7.27,8.8-10.91l2.57-3.21Z"/><path class="cls-2" d="M334.67,157.91c.16,3,.26,5.92.53,8.86a2.75,2.75,0,0,0,1.63,2.35l12.54-14.51a34.58,34.58,0,0,0-14-5.53c-1.23-.2-1.23-.22-1.21.73C334.34,152.59,334.54,155.25,334.67,157.91Z"/><polygon class="cls-18" points="333.17 187.99 333.15 188.17 333.43 187.87 333.17 187.99"/><path class="cls-18" d="M332.55,189.42l.24,0c.71-1,.58-.61.94-1.43a1.92,1.92,0,0,0-.9.63c.08,0,.45-.28.43-.1-.25.23-.31.13-.63.44-.13.38.26-.16.28.08Z"/><path class="cls-18" d="M333.48,188.65c-.15.15-.29.29-.4.42C333.22,188.92,333.45,188.79,333.48,188.65Z"/><path class="cls-18" d="M333.64,188.63c.05.11-.29.33-.33.38l.61-.49Z"/><path class="cls-18" d="M333.93,189l.09,0C334.09,188.85,334,188.92,333.93,189Z"/><path class="cls-18" d="M334.16,189.05c.15-.22,0-.14-.14-.1l0,0c-.11.21-.52.57-.49.4-.16,0,.21-.37-.09-.17l-.22.41C333.35,189.68,334,189.17,334.16,189.05Z"/><path class="cls-18" d="M333.93,189h-.06C333.83,189,333.88,189,333.93,189Z"/><polygon class="cls-18" points="333.81 188.77 333.7 188.82 333.55 189 333.81 188.77"/><path class="cls-18" d="M334.45,189.27c-.53.52-.13-.23-.55.17.12.07-.17.54-.48.82l.27-.06A3.61,3.61,0,0,0,334.45,189.27Z"/><path class="cls-18" d="M333.35,190.84a.3.3,0,0,1,.11-.07A.28.28,0,0,0,333.35,190.84Z"/><path class="cls-18" d="M334.8,190.49l-.79.26c.2-.14.36-.31.48-.32-.05-.18-.4.14-.44,0,.47-.51.2.13.59-.35-.08-.06-.2-.14-.67.23l.22-.44-.5.57c-.11.2.51-.34.16.06-.22.25-.3.25-.39.28.18-.05-.24.59,0,.65S334.45,190.65,334.8,190.49Z"/><polygon class="cls-18" points="334.21 191.08 334 191.3 334.29 191.01 334.21 191.08"/><path class="cls-18" d="M335.2,190.69l-.48.19a2.09,2.09,0,0,1,.24-.29c-.13.13-.38.3-.48.4-.44.53.32,0,.48,0,0,.41-.29.24-.7.76,0-.07.09-.18.05-.29-.46.64.2.31.41.26,0-.07.19-.22.1-.22l.24-.07C335.4,191,335.44,190.82,335.2,190.69Z"/><path class="cls-18" d="M335,190.44c.09,0,.07.08,0,.15C335.09,190.45,335.17,190.34,335,190.44Z"/><path class="cls-18" d="M334.77,191.76s0,0,0,0S334.71,191.78,334.77,191.76Z"/><path class="cls-18" d="M335.31,191.13l0,.15.21-.25A.35.35,0,0,0,335.31,191.13Z"/><path class="cls-18" d="M337.58,195.79c.23-.17.31-.28.21-.34.32-.2.33,0,.54-.12.13-.25.37-.24.64-.48-.05-.15-.49.08-.51-.12a1.41,1.41,0,0,0,.32-.24c-.3,0-.78-.1-.63-.45s-.22-.24-.48-.31c-.25-.66-1-1-1.16-1.76l-.63.39c.26-.26-.1-.14.27-.42,0,.09,0,.07.08.1.39-.53-.31-.28-.25-.57a3.22,3.22,0,0,1-.67.56c.62-.51-.15-.15.52-.8.05-.29-.54.46-.57.23-.37.3-.05.29-.3.55s0-.23-.36.11c0,.37,1.12.15,1.64.35l-.38.24c.4,0,.65.28.19.88.31-.3,0,.41.78-.2-.14.18-.1.17-.12.29l.26-.17c.07.11-.32.38-.21.47a2,2,0,0,1,.74-.49l-.72,1.14a3.39,3.39,0,0,0,.34-.33c-.07.16.25-.09.38-.15s-.37.37-.6.53c0,.23.85-.3.65,0l.32-.28c.19.08-.11.48.12.56-.43.41-.51.16-.76.24-.08.1-.06.19-.2.32.29-.1.71-.22,1-.3C337.41,195.53,337.58,195.71,337.58,195.79Z"/><path class="cls-18" d="M337,195.52l-.23.09s.09,0,.08,0A1,1,0,0,0,337,195.52Z"/><path class="cls-18" d="M337.58,195.79l-.05,0S337.58,195.81,337.58,195.79Z"/><path class="cls-18" d="M338.16,194a.08.08,0,0,0,0,0v0Z"/><path class="cls-18" d="M336.49,195a4,4,0,0,0,.29-.39A.71.71,0,0,0,336.49,195Z"/><path class="cls-18" d="M336.18,193.79a2.6,2.6,0,0,0-.29.17C335.92,194,336,194,336.18,193.79Z"/><polygon class="cls-18" points="337.06 195.76 337.25 195.8 337.38 195.78 337.06 195.76"/><path class="cls-18" d="M340.6,197.07c.36-.39,0-.39,0-.58-.39-.12-1,.57-1.16.36l.91-.53c-.21-.21-.26-.67-1.16-.37a.65.65,0,0,1,.37-.24c-.15-.13-1.31.75-1.16.35.67-.17.47-.41,1.05-.72h.08c-.15-.1-.55-.08-.58-.2-.22.15-.51.46-.62.36,0,.08-.28.23-.51.38.33-.05.23.12.57,0-.25.26-.12,0-.37.28l.34-.09c0,.12-.35.13-.33.28.18-.1.42-.14.45,0l-.12,0c.16,0,.07.18.54-.18l-.43.41.32-.24c0,.27-.76.87-.19.83a.62.62,0,0,1,.37-.2c.16-.25-.34.05-.44,0,.32-.23.82-.33.95-.58-.31.39.21.21-.59.81,0,.18.49,0,.4.26l-.13.07c.57-.32-.17.29.47,0l.07-.16c.23-.14.27-.11.34-.08a.7.7,0,0,0-.19.14c.42-.24.6-.1.73-.15s-.37,0-.53,0C340.29,197.18,340.62,197,340.6,197.07Z"/><path class="cls-18" d="M338.11,196.44l.23-.08A.51.51,0,0,0,338.11,196.44Z"/><path class="cls-18" d="M340.34,198.22c0,.16-.36.19-.48.4.34-.08.5-.48,1-.64-.2.21.28,0,.31.08a5.25,5.25,0,0,0-.88.55c.17-.05,0,.2,0,.28.24-.38.29,0,.57-.37.32-.19.65-.18.44,0s-.21.06-.25,0c-.45.24-.17.25-.55.52.7-.23,1,.29,1.85-.45.15-.17-.11-.07-.19-.1-.09.28-.51.32-.69.41.11-.16-.27-.09.09-.28l.43-.11a1.82,1.82,0,0,0-.79-1.21l.09.18a.83.83,0,0,1-.51.1l-.58.48c0-.08-.11-.06.12-.2a1.73,1.73,0,0,0-.65.41c-.19-.05,0-.23-.44-.07-.39.55.55-.09.24.44Z"/><polygon class="cls-18" points="339.7 197.98 340.05 197.82 339.85 197.84 339.7 197.98"/><path class="cls-18" d="M341.15,197.17c-.13.09-.22.1-.36.19S341,197.38,341.15,197.17Z"/><path class="cls-18" d="M340.51,199.25l.2.05.07-.16A.65.65,0,0,1,340.51,199.25Z"/><path class="cls-18" d="M342.75,199.11c-.18-.14-.53,0-.32-.44-.49.17-.76.54-1.17.74,0,.15.67-.3.87-.28-.33.26.18.1.15.25A2.83,2.83,0,0,1,342.75,199.11Z"/><path class="cls-18" d="M341.75,200.59c0,.08.38,0,.24.16s-.34.14-.31.05c-.5.35.13,0-.16.35a.77.77,0,0,1,.25-.18c0,.3.5-.14.39.33a1.09,1.09,0,0,0,.52-.22c-.33.43-.38.34-.63.78a12.43,12.43,0,0,1,1-.75c-.43.65.26.22-.08.68,0,0-.16,0-.13,0-.59.4.2.08.14.25l-.51.31c.14,0,.57,0,.27.33l-.28.14c.54,0,.53.37.84.44l-.25.31c.56,0,0-.38.9-.67-.92.63.39-.05.12.34s-.3,0-.67.32c.5-.27.19,0,.38,0-.46.27.05.21-.49.48l1-.25c-.23.21-.13.27,0,.29-.09-.16.7-.39.8-.7a.94.94,0,0,1-.76-.9c-.65.36-.12-.21-.67.06l.55-.4c-.27-.12-.31.26-.57.36s.19-.35.42-.48c-.06-.17-.18.09-.57.23l.63-.53c-.5-.32-1.34-.64-1.28-1.41l-.4.31c.09-.38-1.2.2-.41-.58l-.42.16c.24-.1.63-.45,1-.57-.19,0-.07-.14-.24-.12l-.14.24c-.41.15-.24-.09.06-.31-.55.09-.68.57-1,.83.95-.25-.62.73-.14.77S341.51,200.72,341.75,200.59Z"/><path class="cls-18" d="M342.73,199.55l-.13,0Z"/><path class="cls-18" d="M344.32,204a.1.1,0,0,0,.07.05C344.51,204,344.41,204.05,344.32,204Z"/><polygon class="cls-18" points="342.29 199.38 342.28 199.39 342.29 199.38 342.29 199.38"/><polygon class="cls-18" points="341.16 199.92 341.18 200 341.37 199.86 341.16 199.92"/><path class="cls-18" d="M344.23,205.06l.22-.14Z"/><path class="cls-18" d="M345.32,207l0-.05S345.29,207,345.32,207Z"/><path class="cls-18" d="M348.8,211.16a1.59,1.59,0,0,0,.88-.08l-.23.15a1.27,1.27,0,0,0,.94-.47l-.21.1c-.43.08.28-.36.34-.58-.21-.06-1.08.44-1,.17-.06,0,.17-.18.34-.28,0-.17-.69.23-.83.2,1.62-1.2-.73-.07.19-1-.21,0-.18-.28-.61-.2.47-.21-.06-.17.43-.46-1,.62.13-.73-1.1.08.2-.44-.09.05,0-.38.14-.1.17-.06.2-.06.19-.27-.62.21-.11-.25,0-.25-.35.2-.76.31,0-.3.21-.36.65-.81-.6.38-.4.07-.77.18a.36.36,0,0,1-.31.31c-.07-.29-.51.07-.82,0,.57-.54.17.21.55-.33.39-.06.43.06.95-.18-.09-.21-.34-.36-.75-.38,0-.17.35-.15.35-.27.15-.39-.86.13-.68-.22l.35-.19c-.51.2-.14-.42-.5-.44a1.53,1.53,0,0,1-.39.27c.85-.55-.6,0-.13-.54-.52.36-.94.38-1.07.3a2.37,2.37,0,0,1,.49-.36c-.2.39.7-.2,1-.22-.35.06-.2-.33-.66-.18l.45-.23c-.05-.21-1.05.46-.76,0l.32-.18c-.27-.33,0-1.11-.87-1a12.19,12.19,0,0,0-1,.8,10.61,10.61,0,0,0,1.15-.17l-.49.31c.36-.18.65-.15.86-.41.31,0-.38.36,0,.3-.51.32-.61.28-1,.55l.32-.05c-.22.09-.13.17-.35.27.74-.2-.05.42.35.45l0-.17c.28-.18.29-.1.4-.1a.91.91,0,0,0-.38.53c.28-.06.81-.34.89-.21-.55.32-.16.39-.59.7.55-.32.34.12.66-.07.15,0,.15.12-.13.31h-.12l0,.08-.13.06c0,.07.42-.19.2.06-.14.09-.16.05-.24.06,0,.21,1-.27.59.18.26-.14.4,0,.94-.39-.17.18-.63.46-.46.54.52-.24-.08.26.29.15-.58.2-.14.09-.69.3-.14.22.59-.08.6.13l-.34.28c.21-.06.63-.25.28.07l.33-.23c-.1.21.1.29-.19.65l.72-.3c-.55.63.21.45.88.19a.4.4,0,0,1-.17.36l-.28.09c0,.11-.24.47.32.16.23,0-.31.32-.35.45.87-.32-.14,1,1,.22-.05-.08.07-.39-.08-.5.16-.06.36-.24.42-.2s-.2.48.09.5l-.73.48C347.82,211.19,349.68,210.23,348.8,211.16Z"/><path class="cls-18" d="M347.47,209.21l-.29.36.3-.23C347.41,209.34,347.38,209.31,347.47,209.21Z"/><path class="cls-18" d="M347.48,209.34l.19,0s0-.05-.11,0Z"/><path class="cls-18" d="M349.24,211.5c0,.05,0,.13.07.12S349.36,211.45,349.24,211.5Z"/><polygon class="cls-18" points="349.54 211.47 349.61 211.34 349.52 211.39 349.54 211.47"/><path class="cls-18" d="M352.48,214.13,353,214c-.19.2.21.18-.2.41.57-.29.26.31.91-.34-.63-.29-.73-1.29-1.8-1.37l.36-.13c-.81.14.32-.88-1-.26l.61-.41c.07-.26-1.05.37-.53-.24l-.23.19s.07-.13,0-.17l-.09.1c-.32.07-.33,0-.24-.23s.11,0,.19,0c.16-.19-.31,0-.36-.05a.71.71,0,0,1,.36-.25c-.43,0,.12-.6-.89-.12-.17.1-.26.28-.4.25-.16.35.28.23.62.19l0,0c.94-.51-.13.23.37.14-.38.21-.44.12-.65.23-.5.69.72-.07,0,.69h0c-.06.09.14,0,.26,0a1.31,1.31,0,0,0,.18-.28,3.36,3.36,0,0,0,.68-.37c-.34.34.23-.06.11.16-.33.29-.38.17-.59.28l.32-.08c.09.07-.32.37-.47.56.32-.12.15-.18.57-.4-.36.42.08.76.57.7-.1,0-.39.26-.4.13-.05.09.21.06.48-.14.34,0,.3.26.16.58l.24-.25c.53-.23-.12.53.28.52h0c.1,0,.79-.43.74-.22A4.89,4.89,0,0,0,352.48,214.13Z"/><path class="cls-18" d="M353.61,214.31l-.42.23c0,.13.51-.16.74-.36-.12,0,0-.17-.22,0C353.67,214.22,353.53,214.32,353.61,214.31Z"/><path class="cls-18" d="M354.67,215.5a2.92,2.92,0,0,0,.34-.23c-.26-.22-.66-.43-.46-.76,0-.18-.53.25-.74.24l.32-.35c-.28.13,0-.37-.58.17,0,.05.33-.17.27,0l-.22.15.17.07-.29.17c-.24.46.87-.52.79-.13l-.53.43c.08.15.31.08.09.45,0,0,.27-.21.14-.15a1.39,1.39,0,0,1,.37-.35c.57-.14-.34.22-.44.53.5-.12,1.06-.05.73.39.24-.34.67-.49.72-.38-.15.2-.33.23-.5.35s-.12.23,0,.21a1.86,1.86,0,0,1,.91-.63C355.89,215.16,354.8,215.78,354.67,215.5Z"/><path class="cls-18" d="M355.16,215.21s-.09,0-.15.06l.09.07Z"/><polygon class="cls-18" points="346.92 152.93 347.06 152.98 346.7 152.77 346.92 152.93"/><path class="cls-18" d="M348.27,153.55l-.13-.11a15.56,15.56,0,0,0-1.51-.79,7.61,7.61,0,0,0,.9.58s-.42-.28-.29-.23c.3.17.25.18.64.4s-.25-.16-.08-.11Z"/><path class="cls-18" d="M347.26,152.93l.5.29C347.58,153.12,347.37,153,347.26,152.93Z"/><path class="cls-18" d="M347.16,152.85a4,4,0,0,1,.44.25l-.65-.41Z"/><path class="cls-18" d="M347.26,152.78l-.06,0C347.09,152.68,347.18,152.73,347.26,152.78Z"/><path class="cls-18" d="M347.2,152.69c-.23-.12-.1,0,0,.05l.05,0c.2.1.67.39.53.33.09.08-.38-.19-.08,0l.4.19C348.06,153.23,347.38,152.81,347.2,152.69Z"/><path class="cls-18" d="M347.26,152.78l0,0C347.36,152.85,347.32,152.82,347.26,152.78Z"/><polygon class="cls-18" points="347.18 152.8 347.27 152.87 347.47 152.98 347.18 152.8"/><path class="cls-18" d="M347.21,152.6c.64.38-.1,0,.4.31a3.23,3.23,0,0,1,.83.42l-.19-.15C348,153,347.53,152.76,347.21,152.6Z"/><path class="cls-18" d="M348.87,153.49l-.1-.07Z"/><path class="cls-18" d="M347.87,152.68l.6.46a4.17,4.17,0,0,1-.47-.31c-.11,0,.3.23.22.22-.6-.35,0-.08-.56-.38,0,0,0,.08.51.39l-.42-.21.66.38c.2.1-.5-.33,0-.07a2,2,0,0,1,.39.26c-.12-.1.55.25.48.16S348.16,152.89,347.87,152.68Z"/><polygon class="cls-18" points="348.58 153.11 348.84 153.26 348.5 153.06 348.58 153.11"/><path class="cls-18" d="M347.79,152.52l.38.28-.32-.18.53.33c.59.34-.16-.16-.25-.24a7.81,7.81,0,0,1,.88.51s-.17-.08-.22-.08c.68.37.1,0-.05-.16s-.25-.14-.2-.1l-.18-.14C347.88,152.47,347.74,152.42,347.79,152.52Z"/><path class="cls-18" d="M347.75,152.59s0,0,.09,0C347.68,152.52,347.56,152.46,347.75,152.59Z"/><path class="cls-18" d="M348.73,153s0,0,0,0S348.77,153,348.73,153Z"/><path class="cls-18" d="M348,152.55h.07l-.28-.16Z"/><path class="cls-18" d="M349.54,152.17c-.23-.16-.35-.23-.32-.18a4.81,4.81,0,0,1-.39-.34c-.21-.12-.35-.26-.65-.47-.05,0,.33.31.23.28l-.33-.23c.17.18.41.45.12.3-.14,0,0,.08.09.22-.25,0,0,.37-.4.32l.59.41c-.3-.18,0,0-.41-.22.08,0,0,0,0,0-.56-.32,0,.11-.22,0,.11.06.65.4.73.47-.68-.44,0,.05-.8-.44-.22-.08.59.38.46.35.4.26.22.09.53.27s-.16,0,.27.21c.23.07-.54-.56-.7-.8l.36.25c-.24-.22-.2-.31.43.06-.36-.23.24.07-.57-.47a.93.93,0,0,0,.24.12l-.25-.18s.41.25.4.21c-.35-.22-.44-.31-.72-.51l1.1.62-.4-.25c.14.06-.19-.16-.31-.25a5.39,5.39,0,0,1,.66.44c.16.06-.67-.54-.37-.37l-.36-.24c-.06-.09.34.15.25,0a3.23,3.23,0,0,1,.59.49l.31.17-.77-.63C349.49,152.22,349.49,152.16,349.54,152.17Z"/><path class="cls-18" d="M349.72,152.44l.18.15s-.06-.05,0,0Z"/><path class="cls-18" d="M349.54,152.17l0,0Z"/><path class="cls-18" d="M348.16,151.51l0,0h0Z"/><path class="cls-18" d="M349.74,152.65l-.39-.23A1.93,1.93,0,0,0,349.74,152.65Z"/><path class="cls-18" d="M349.2,152.6l.28.2S349.39,152.71,349.2,152.6Z"/><polygon class="cls-18" points="349.83 152.47 349.74 152.37 349.66 152.29 349.83 152.47"/><path class="cls-18" d="M348.46,150.58c-.42-.29-.2-.06-.31-.09.17.22.88.69.89.78l-.83-.65c0,.09-.23,0,.48.64a2.63,2.63,0,0,1-.35-.26c0,.06,1.19.91.88.75-.5-.43-.52-.35-1-.75l-.06-.06c0,.08.28.32.23.32a4.46,4.46,0,0,1,.58.43,5.69,5.69,0,0,1,.51.37c-.22-.21-.06-.11-.34-.34.3.19.09.08.38.27l-.25-.22c.08,0,.28.23.35.25-.16-.12-.32-.28-.27-.27l.09.08c-.1-.1.06,0-.42-.36l.48.33-.32-.23c.15.05.93.61.57.26a2.56,2.56,0,0,1-.33-.25c-.23-.15.22.21.25.26-.32-.24-.67-.56-.88-.68a4,4,0,0,1,.79.5c.07,0-.31-.3-.09-.19l.11.09c-.51-.41.26.15-.26-.29l-.13-.07c-.21-.17-.21-.18-.24-.22l.19.14a3.9,3.9,0,0,1-.51-.47c-.08,0,.21.22.3.32A3.65,3.65,0,0,1,348.46,150.58Z"/><path class="cls-18" d="M349.59,152l-.18-.15Z"/><path class="cls-18" d="M349.24,150.94c.1.05.32.26.49.37-.24-.22-.54-.39-.91-.72.23.16-.14-.17-.14-.18.21.18.71.57.81.65-.13-.12.13.06.16.06-.34-.22-.17-.18-.53-.42s-.47-.45-.24-.28.16.15.16.17c.39.33.23.15.6.44a10.2,10.2,0,0,0-1.31-1.26c-.18-.13,0,.06.06.1a5.33,5.33,0,0,1,.62.52c-.16-.1.1.16-.21-.11l-.31-.3c-.23-.06-.26.1-.19.3l0,0a2.88,2.88,0,0,1,.35.34l.61.45c-.06,0,0,.05-.19-.11a6.75,6.75,0,0,0,.61.47c.08.11-.15-.07.22.26s-.38-.36.09-.07Z"/><polygon class="cls-18" points="349.49 151.3 349.2 151.05 349.33 151.18 349.49 151.3"/><path class="cls-18" d="M348.19,150.25l.32.26C348.61,150.55,348.43,150.41,348.19,150.25Z"/><path class="cls-18" d="M349.69,151l-.08-.11-.13-.07A1.91,1.91,0,0,1,349.69,151Z"/><path class="cls-18" d="M348.33,149.57c0,.09.29.33-.05.13.37.34.72.59,1.06.88.1,0-.54-.48-.65-.61.34.27,0-.09.05-.05Z"/><path class="cls-18" d="M349.69,150.5s-.22-.25-.05-.13.26.25.2.21c.47.39-.06-.08.27.17a2.22,2.22,0,0,1-.23-.19c.14.05-.36-.36-.05-.19a3.58,3.58,0,0,0-.41-.38c.42.3.4.31.77.57l-1-.83c.58.41,0-.13.4.19,0,0,.11.11.05.08.53.46-.07-.12.06-.05l.44.41c-.06-.08-.32-.38,0-.11l.21.21c-.29-.35-.09-.26-.22-.45l.29.23c-.28-.36-.2-.09-.82-.74.82.75-.24-.28.12,0s.13.19.52.52c-.41-.4-.11-.13-.21-.26.38.38.08,0,.51.45l-.67-.75c.23.2.21.15.17.09s-.57-.57-.78-.7c.13.23.18.44-.09.32.54.5,0,0,.39.45l-.5-.45c.08.16.3.27.49.46s-.28-.2-.48-.38c-.06,0,.15.14.43.42l-.62-.52c.09.27.39.75-.06.56l.39.32c-.25-.13.79.82-.08.16l.32.3c-.18-.17-.58-.49-.83-.72.11.12,0,0,.06.13l.21.13c.31.29.09.14-.2-.1a8.37,8.37,0,0,0,1,.81c-.67-.65.74.55.48.25A4,4,0,0,0,349.69,150.5Z"/><path class="cls-18" d="M348.58,149.66l.1.1Z"/><path class="cls-18" d="M350.1,149.54a.08.08,0,0,0,0,0C350,149.41,350.06,149.48,350.1,149.54Z"/><polygon class="cls-18" points="348.74 149.92 348.75 149.92 348.75 149.92 348.74 149.92"/><polygon class="cls-18" points="349.67 150.74 349.7 150.74 349.52 150.59 349.67 150.74"/><path class="cls-18" d="M350.68,149.84l-.18-.18Z"/><path class="cls-18" d="M351.15,149.61h0S351.16,149.63,351.15,149.61Z"/><path class="cls-18" d="M351.69,148.4a4.55,4.55,0,0,0-.4-.65l.16.21a4.61,4.61,0,0,0-.62-.83l.14.19c.22.33-.3-.32-.44-.43,0,.12.67.91.48.75,0,0-.16-.17-.28-.33s.4.57.45.66c-1.31-1.53.27.49-.61-.45.08.15-.07,0,.16.38-.31-.4-.06,0-.43-.44.76.89-.44-.31.53.81-.32-.27.06.07-.22-.14a.83.83,0,0,1-.12-.16c-.22-.21.39.5-.08,0-.11,0,.26.3.5.62a4.9,4.9,0,0,1-.71-.68c.47.52.22.3.44.59a1.1,1.1,0,0,1,.31.31c-.12,0,.28.37.36.55-.55-.55,0-.05-.43-.47a6.85,6.85,0,0,0-.53-.72c-.07,0,0,.14.15.42-.1,0-.24-.28-.31-.31-.28-.21.48.64.21.42l-.27-.3c.35.41-.16,0,0,.23l.33.34c-.7-.73.31.43-.22,0a4.14,4.14,0,0,1,.69.82l-.43-.43c.3.23-.46-.53-.63-.77.2.26-.08,0,.23.41l-.35-.37c-.09,0,.77.84.4.53l-.26-.26c0,.1-.59-.27-.06.37.22.21.76.68.92.84-.15-.21-.51-.61-.67-.82l.41.41c-.28-.28-.41-.48-.65-.68s.37.34.16.08l.82.84-.19-.22c.16.17.15.13.31.3-.48-.55.25.15.06-.12l-.1-.06c-.23-.23-.2-.22-.25-.3a4.41,4.41,0,0,0,.46.4,7.25,7.25,0,0,1-.55-.66c.44.45.28.2.66.58-.44-.46-.12-.2-.37-.47-.07-.1,0-.07.22.17l.07.09h0l.09.1s-.29-.33-.06-.12a.76.76,0,0,1,.14.18c.11.05-.61-.75-.18-.35-.21-.22-.19-.27-.66-.76.18.16.54.56.5.46-.37-.42.17.13-.06-.15l.48.56c.18.15-.32-.43-.21-.38l.3.31c-.13-.15-.43-.51-.1-.17l-.27-.3c.16.14.1,0,.42.32l-.49-.59c.58.57.14,0-.29-.56a.86.86,0,0,1,.26.23l.17.22s.35.31-.06-.18c-.1-.16.31.32.39.39-.55-.72.55.4-.33-.66,0,0-.23-.17-.22-.09-.1-.14-.28-.33-.29-.37s.34.3.22.1l.56.66C352.12,149.11,350.84,147.48,351.69,148.4Z"/><path class="cls-18" d="M351.26,148.74l.32.31-.25-.28S351.35,148.83,351.26,148.74Z"/><path class="cls-18" d="M351.33,148.77l-.11-.15s0,0,0,.08Z"/><path class="cls-18" d="M351.69,148.21s.08.06,0,0S351.61,148.1,351.69,148.21Z"/><polygon class="cls-18" points="351.55 147.98 351.45 147.88 351.51 147.96 351.55 147.98"/><path class="cls-18" d="M351.83,146.81l-.27-.46c.16.21,0-.09.28.3-.35-.53.07-.07-.48-.8.05.35-.45.05-.11.81l-.2-.31c.37.64-.59-.54.23.64l-.44-.59c-.17-.14.58.89.07.3l.19.24s-.1-.1-.11-.09l.09.1c.16.25.12.24,0,.09s-.05-.08-.08-.14.13.23.11.24a2.25,2.25,0,0,1-.27-.34c.14.3-.37-.28.28.6a3.62,3.62,0,0,1,.29.37c.25.24,0-.12-.14-.38h0c-.64-.86.17.17-.08-.22.26.34.24.35.38.54.55.6-.32-.54.36.26l0,0c.07.08,0-.09-.09-.17s-.14-.15-.21-.23-.34-.46-.46-.62c.31.37-.12-.19.05,0a5.87,5.87,0,0,1,.36.52l-.16-.25s.32.35.47.53c-.18-.28-.15-.18-.43-.56.36.41.37.22.16-.16,0,.06.27.38.21.34s0-.13-.24-.4,0-.13.24.1l-.21-.27c-.31-.47.31.29.17,0h0c0-.07-.49-.75-.37-.63C351.62,146.5,351.59,146.48,351.83,146.81Z"/><path class="cls-18" d="M351.55,146.05l.25.4a3.45,3.45,0,0,0-.43-.68c.05.09-.09-.07.07.15C351.48,146,351.57,146.11,351.55,146.05Z"/><path class="cls-18" d="M351.84,145.76c0-.09-.15-.24-.22-.35,0,.1,0,.31-.26,0-.11-.09.29.49.35.64l-.28-.38c.15.26-.19-.12.27.5,0,.05-.2-.31-.1-.21l.15.22,0-.1.18.28c.32.36-.55-.84-.31-.62l.38.55c.06,0-.05-.2.21.12,0,0-.19-.28-.12-.16,0,0-.19-.25-.3-.41-.24-.47.22.33.41.53-.21-.41-.34-.79,0-.36a2.25,2.25,0,0,1-.41-.69,5.41,5.41,0,0,1,.33.51c.05,0,.15.19.11.09a6.87,6.87,0,0,1-.59-.93C351.31,144.72,352,145.78,351.84,145.76Z"/><path class="cls-18" d="M351.54,145.27a.75.75,0,0,0,.08.14l0,0Z"/><polygon class="cls-18" points="330.93 177.07 331.07 177.11 330.71 176.91 330.93 177.07"/><path class="cls-18" d="M332.3,177.64l-.13-.12a15.58,15.58,0,0,0-1.54-.73,8,8,0,0,0,.91.56s-.42-.28-.28-.23c.3.17.25.17.64.39s-.25-.16-.08-.12Z"/><path class="cls-18" d="M331.27,177l.51.28A4.71,4.71,0,0,0,331.27,177Z"/><path class="cls-18" d="M331.18,177a4.64,4.64,0,0,1,.44.23l-.66-.39Z"/><path class="cls-18" d="M331.28,176.88l-.06,0C331.11,176.78,331.2,176.83,331.28,176.88Z"/><path class="cls-18" d="M331.23,176.78c-.24-.11-.11,0,0,.05l0,0c.2.09.68.37.54.32.09.08-.38-.17-.08,0l.41.19A9.13,9.13,0,0,0,331.23,176.78Z"/><path class="cls-18" d="M331.28,176.88s0,0,0,0S331.34,176.91,331.28,176.88Z"/><polygon class="cls-18" points="331.19 176.9 331.29 176.97 331.49 177.07 331.19 176.9"/><path class="cls-18" d="M331.24,176.67c.65.36-.11,0,.4.31a3,3,0,0,1,.84.39l-.18-.15C332.06,177.07,331.56,176.82,331.24,176.67Z"/><path class="cls-18" d="M332.93,177.5l-.1-.07Z"/><path class="cls-18" d="M331.91,176.7l.61.45c-.2-.13-.41-.24-.47-.3s.3.23.22.22c-.62-.32,0-.08-.57-.36,0,0,0,.08.52.38l-.43-.19.67.36c.2.09-.51-.32,0-.08a2.18,2.18,0,0,1,.4.25c-.12-.1.56.22.49.13S332.21,176.91,331.91,176.7Z"/><polygon class="cls-18" points="332.65 177.1 332.91 177.24 332.56 177.05 332.65 177.1"/><path class="cls-18" d="M331.83,176.52l.39.28-.32-.16.54.3c.61.32-.17-.16-.26-.24a6,6,0,0,1,.91.48s-.18-.08-.23-.07c.7.34.1-.06-.05-.18s-.25-.13-.2-.08l-.19-.14C331.93,176.47,331.79,176.42,331.83,176.52Z"/><path class="cls-18" d="M331.79,176.61s0,0,.1,0C331.72,176.54,331.6,176.48,331.79,176.61Z"/><path class="cls-18" d="M332.8,176.91s0,0,0,0S332.85,176.94,332.8,176.91Z"/><path class="cls-18" d="M332.07,176.53h.08l-.28-.15A1.22,1.22,0,0,0,332.07,176.53Z"/><path class="cls-18" d="M333.68,175.9c-.24-.15-.36-.21-.33-.16a2.31,2.31,0,0,1-.41-.32,7.18,7.18,0,0,1-.68-.42c-.06,0,.35.29.24.28l-.34-.21c.17.17.42.43.12.31-.15,0,0,.09.1.23-.27,0,0,.42-.43.41l.61.39c-.32-.18,0,0-.43-.2.09,0,0,0,0,0-.58-.28,0,.12-.24,0,.12.06.67.37.76.44-.7-.41,0,.05-.83-.39-.23-.07.61.35.48.33.41.24.22.07.54.24s-.16,0,.27.21c.24,0-.54-.58-.71-.83l.38.24c-.24-.22-.2-.32.45,0-.37-.2.24,0-.59-.45a.7.7,0,0,0,.25.1l-.26-.16s.43.22.42.17a7.72,7.72,0,0,1-.75-.46l1.14.53-.41-.22c.14,0-.2-.16-.32-.23a4.54,4.54,0,0,1,.68.39c.17,0-.69-.51-.38-.36l-.37-.21c-.07-.1.35.12.26,0a2.18,2.18,0,0,1,.61.45c.11.06.15.06.32.15l-.8-.6C333.63,176,333.63,175.89,333.68,175.9Z"/><path class="cls-18" d="M333.86,176.18l.19.14s-.06,0,0,0Z"/><path class="cls-18" d="M333.68,175.9l.06,0Z"/><path class="cls-18" d="M332.24,175.37h0Z"/><path class="cls-18" d="M333.88,176.42l-.41-.21A2.67,2.67,0,0,0,333.88,176.42Z"/><path class="cls-18" d="M333.31,176.44l.29.18S333.51,176.54,333.31,176.44Z"/><polygon class="cls-18" points="333.98 176.19 333.89 176.09 333.8 176.02 333.98 176.19"/><path class="cls-18" d="M332.55,174.3c-.45-.25-.22,0-.33-.05.18.21.93.62.94.72l-.87-.59c0,.1-.24.08.5.64a3.28,3.28,0,0,1-.37-.24c0,.07,1.25.83.92.7a9.2,9.2,0,0,0-1.07-.68l-.06-.05c0,.07.29.31.24.31a3.62,3.62,0,0,1,.6.39c.05,0,.31.19.54.34-.23-.2-.07-.12-.35-.33.3.17.08.07.39.25l-.26-.21c.08,0,.29.21.37.22-.17-.11-.34-.26-.29-.26l.1.08c-.11-.1.06,0-.45-.34l.51.3-.34-.21c.16,0,1,.53.6.2a2,2,0,0,1-.34-.23c-.25-.13.23.19.26.25-.33-.21-.71-.52-.93-.62a3.8,3.8,0,0,1,.83.43c.08,0-.32-.29-.09-.2l.12.08c-.54-.36.27.14-.27-.27l-.14-.06c-.22-.15-.23-.16-.25-.2l.19.12a3.79,3.79,0,0,1-.54-.44c-.08,0,.23.22.32.31A3.65,3.65,0,0,1,332.55,174.3Z"/><path class="cls-18" d="M333.73,175.67l-.18-.13A1.78,1.78,0,0,0,333.73,175.67Z"/><path class="cls-18" d="M333.37,174.58c.1,0,.33.23.52.33-.25-.21-.58-.35-1-.65.25.14-.14-.16-.15-.18.23.17.76.52.87.58-.14-.1.13.05.16,0-.36-.18-.17-.17-.56-.37s-.5-.41-.25-.26.16.13.17.15c.41.3.24.13.63.39a8,8,0,0,0-1.39-1.16c-.2-.11,0,.06.05.1a4.16,4.16,0,0,1,.67.46c-.17-.08.11.15-.22-.09l-.33-.27c-.25,0-.27.15-.2.35l.05,0a2.48,2.48,0,0,1,.37.31l.64.4c-.06,0,0,0-.2-.1a6,6,0,0,0,.65.43c.08.11-.17,0,.23.25s-.4-.33.1-.09Z"/><polygon class="cls-18" points="333.63 174.93 333.32 174.7 333.46 174.83 333.63 174.93"/><path class="cls-18" d="M332.26,174l.34.24C332.7,174.25,332.51,174.13,332.26,174Z"/><path class="cls-18" d="M333.84,174.59l-.09-.11-.13-.06Z"/><path class="cls-18" d="M332.39,173.23c0,.09.31.32-.05.15.39.31.77.52,1.13.78.11,0-.58-.43-.69-.55.35.23,0-.1.05-.07Z"/><path class="cls-18" d="M333.84,174s-.24-.23-.06-.13.28.23.22.2c.5.34-.06-.08.28.13L334,174c.15,0-.38-.32-.05-.19a3.51,3.51,0,0,0-.45-.35c.45.26.43.28.83.49l-1.05-.74c.62.35,0-.13.43.14,0,0,.12.1.06.08.57.41-.08-.12.05-.06l.48.36c-.06-.08-.35-.35,0-.12l.24.19c-.33-.34-.11-.28-.25-.46l.32.2c-.32-.34-.22-.06-.9-.65.89.66-.27-.26.12,0s.15.18.57.46c-.45-.35-.12-.11-.23-.24.42.33.09,0,.56.38l-.74-.67c.26.17.23.12.18.06s-.62-.5-.85-.61c.15.23.21.45-.08.36.59.45,0,0,.43.42l-.55-.39c.09.15.33.22.54.4.06.08-.31-.17-.52-.33-.06,0,.16.13.46.39l-.67-.46c.11.27.44.74,0,.61l.42.29c-.28-.1.84.75-.08.18l.34.27c-.19-.15-.63-.43-.9-.64.13.11,0,0,.08.13l.22.1c.33.27.1.14-.22-.06a8.43,8.43,0,0,0,1.1.71c-.72-.61.79.46.51.18A4.47,4.47,0,0,0,333.84,174Z"/><path class="cls-18" d="M332.65,173.29l.1.09Z"/><path class="cls-18" d="M334.24,172.89s0,0,0,0S334.2,172.83,334.24,172.89Z"/><polygon class="cls-18" points="332.83 173.54 332.83 173.55 332.83 173.54 332.83 173.54"/><polygon class="cls-18" points="333.82 174.29 333.85 174.28 333.66 174.15 333.82 174.29"/><path class="cls-18" d="M334.88,173.1l-.21-.16Z"/><path class="cls-18" d="M335.37,172.75h0S335.38,172.77,335.37,172.75Z"/><path class="cls-18" d="M335.87,171.32a4.21,4.21,0,0,0-.48-.6l.2.19a4.13,4.13,0,0,0-.74-.73l.17.16c.25.31-.36-.27-.51-.35.06.12.79.81.58.68,0,0-.19-.14-.33-.28s.48.51.53.59c-1.51-1.33.33.47-.68-.34.1.14-.07.06.2.36-.36-.35-.07,0-.49-.37.88.78-.49-.23.62.74-.36-.22.08.07-.24-.1a1.37,1.37,0,0,1-.14-.14c-.25-.17.45.45-.08,0-.12,0,.3.27.58.55a3.9,3.9,0,0,1-.81-.57c.54.46.25.27.51.53a1,1,0,0,1,.35.26c-.13,0,.32.35.42.52-.62-.47,0-.06-.49-.41a4.6,4.6,0,0,0-.61-.65c-.07,0,0,.15.18.41-.1,0-.27-.25-.34-.27-.31-.17.54.58.25.4l-.31-.26c.4.36-.16,0,0,.25s.27.2.37.29c-.79-.63.35.4-.24,0a4.38,4.38,0,0,1,.78.73c-.15-.1-.35-.26-.48-.37.33.19-.51-.48-.71-.7.23.24-.08.07.26.39l-.38-.32c-.1,0,.86.74.44.49l-.28-.23c0,.12-.64-.18,0,.4.24.19.83.59,1,.73-.17-.2-.57-.55-.76-.75l.46.36c-.31-.25-.46-.43-.72-.6s.41.29.18,0l.9.75-.21-.21c.18.15.17.11.35.26-.53-.5.27.11.06-.14l-.11,0a1.17,1.17,0,0,1-.29-.28,2.81,2.81,0,0,0,.52.34,7.59,7.59,0,0,1-.62-.6c.49.4.31.16.73.49-.49-.4-.13-.19-.41-.43-.09-.1,0-.08.24.14l.08.08h0l.1.09s-.33-.3-.07-.12a.66.66,0,0,1,.16.17c.12,0-.69-.68-.22-.34a7,7,0,0,0-.73-.68c.19.14.6.49.55.39-.42-.38.19.1-.07-.15l.54.49c.2.13-.36-.39-.25-.36l.34.28c-.14-.15-.48-.46-.11-.17l-.31-.26c.18.11.11,0,.47.25l-.55-.53c.65.49.15,0-.35-.53a1,1,0,0,1,.29.18l.2.2s.39.26-.08-.17c-.12-.15.35.27.44.32-.63-.64.62.3-.39-.62,0,0-.26-.13-.25-.05a3.72,3.72,0,0,1-.34-.33c0-.08.39.24.25.05l.65.59C336.38,172,334.89,170.53,335.87,171.32Z"/><path class="cls-18" d="M335.44,171.78l.36.26-.29-.24S335.54,171.85,335.44,171.78Z"/><path class="cls-18" d="M335.51,171.8l-.12-.14s0,0,.05.07Z"/><path class="cls-18" d="M335.85,171.11s.1.06,0,0S335.76,171,335.85,171.11Z"/><polygon class="cls-18" points="335.69 170.91 335.57 170.83 335.65 170.9 335.69 170.91"/><path class="cls-18" d="M335.87,169.61l-.34-.41c.2.18,0-.1.33.24-.42-.47.07-.09-.6-.71.1.35-.46.15,0,.86l-.24-.27c.46.57-.67-.44.31.61l-.53-.52c-.18-.1.71.8.11.3l.22.2s-.11-.07-.12-.07l.1.09c.2.23.15.22,0,.11s-.06-.08-.1-.13c-.19-.15.16.21.14.22a2,2,0,0,1-.32-.3c.18.28-.41-.21.36.57a2.73,2.73,0,0,1,.34.33c.29.19,0-.14-.19-.37h0c-.76-.75.2.14-.1-.22.31.31.29.32.45.49.65.5-.38-.5.41.18l0,0c.09.06-.05-.09-.11-.17a2.48,2.48,0,0,0-.24-.18l-.54-.55c.35.31-.16-.17,0,0a4.69,4.69,0,0,1,.43.45l-.19-.22c0-.05.37.3.55.45-.22-.25-.18-.15-.51-.49.42.35.41.14.15-.2,0,.06.33.33.26.3s-.06-.12-.3-.36,0-.14.27.05l-.25-.23c-.38-.42.36.22.18,0h0c0-.06-.61-.65-.46-.56C335.62,169.34,335.58,169.33,335.87,169.61Z"/><path class="cls-18" d="M335.48,168.9l.32.34a3.42,3.42,0,0,0-.53-.6c.06.08-.11,0,.08.15C335.4,168.83,335.52,169,335.48,168.9Z"/><path class="cls-18" d="M335.76,168.52l-.28-.31c0,.12,0,.33-.27.1-.13-.07.37.43.45.58l-.35-.33c.2.23-.21-.08.35.45,0,0-.24-.28-.13-.19l.19.19,0-.1.23.25c.37.29-.68-.74-.41-.57l.47.48c.07,0-.08-.19.24.07,0,0-.24-.24-.15-.14a3.37,3.37,0,0,1-.36-.35c-.32-.43.27.29.5.45-.28-.37-.46-.73-.06-.37-.3-.27-.57-.61-.52-.61a5.4,5.4,0,0,1,.41.45c.06,0,.18.15.13.07a7.28,7.28,0,0,1-.75-.82C335.06,167.58,335.87,168.52,335.76,168.52Z"/><path class="cls-18" d="M335.38,168.09a.44.44,0,0,0,.1.12,0,0,0,0,1,0,0Z"/><path class="cls-18" d="M306.72,129.54a1.8,1.8,0,0,1,.2.18l.18-.37A1.93,1.93,0,0,0,306.72,129.54Z"/><path class="cls-18" d="M306.71,131.08a.48.48,0,0,1,.21,0c.45-.39.62-.53.74-.65s.22-.24.21-.81a1.14,1.14,0,0,0-.63.11.75.75,0,0,0-.39.53c.08,0,.47-.36.56-.1-.27.22-.4.1-.62.5-.06.38.23-.23.3,0Z"/><path class="cls-18" d="M307.79,130.54a3.43,3.43,0,0,0-.51.28C307.46,130.71,307.77,130.72,307.79,130.54Z"/><path class="cls-18" d="M308,130.67c.07.22-.39.19-.43.24a4.17,4.17,0,0,1,.8-.08A1.73,1.73,0,0,0,308,130.67Z"/><path class="cls-18" d="M308.26,131.59l.09.09C308.46,131.62,308.36,131.61,308.26,131.59Z"/><path class="cls-18" d="M308.42,132.05c.25-.13.08-.24-.07-.37l-.05,0c-.2.17-.75.13-.64-.07-.16-.14.36-.28,0-.33a3.68,3.68,0,0,1-.37.32C307.39,131.84,308.19,131.92,308.42,132.05Z"/><path class="cls-18" d="M308.26,131.59a.27.27,0,0,1-.06-.12C308.12,131.55,308.19,131.57,308.26,131.59Z"/><path class="cls-18" d="M308.2,131.11l-.14-.08-.21.11Z"/><path class="cls-18" d="M308.47,132.84c-.73-.08.09-.56-.5-.61,0,.3-.52.5-.92.42l.21.28A1.79,1.79,0,0,0,308.47,132.84Z"/><path class="cls-18" d="M306.52,133.19c.06,0,.1.06.11.09A.21.21,0,0,0,306.52,133.19Z"/><path class="cls-18" d="M307.39,135.05c-.17-.32-.34-.63-.52-.93.21.12.45.15.49.34.18-.3-.27-.45-.15-.7.7.06,0,.49.59.47,0-.2.06-.51-.49-.77l.52-.23-.77,0c-.24.08.54.35,0,.33-.33,0-.37-.16-.43-.25.12.22-.68.38-.67.74S307.12,134.67,307.39,135.05Z"/><polygon class="cls-18" points="306.58 134.83 306.28 134.78 306.68 134.87 306.58 134.83"/><path class="cls-18" d="M307.25,135.93l-.31-.54a1.32,1.32,0,0,1,.37,0c-.17,0-.42-.24-.56-.27-.71-.06.06.51.09.77-.5.4-.34-.16-1-.21.07-.13.23-.07.34-.25-.84,0-.32.64-.24.92.08,0,.29.05.28-.08l.11.29C306.9,136.61,307.13,136.47,307.25,135.93Z"/><path class="cls-18" d="M307.48,135.24c0,.16-.06.2-.15.18C307.51,135.44,307.66,135.43,307.48,135.24Z"/><path class="cls-18" d="M305.89,136.49s.05,0,0-.11S305.86,136.42,305.89,136.49Z"/><path class="cls-18" d="M306.72,136.64l-.18.22.34,0C306.86,136.85,306.88,136.7,306.72,136.64Z"/><path class="cls-18" d="M298.63,143.21c.16.23.31.3.48.15.16.34-.13.41-.14.66.37.07.21.39.45.67.31-.13.2-.62.55-.72a1,1,0,0,0,.23.33c.26-.42.68-1.1,1.2-1.06.41-.11.56-.43.81-.82,1.28-.73,2.11-2,3.3-3l-.46-.6c.34.15.2-.29.57,0-.13,0-.11.13-.16.21.72.1.45-.74.84-1-.14,0-.71-.29-.75-.45.68.43.2-.38,1.07,0,.39-.25-.62-.35-.32-.64-.41-.25-.38.23-.73.12-.29-.28.3-.23-.15-.44-.46.4-.17,1.86-.6,2.82l-.28-.36a1.05,1.05,0,0,1-1.39,1c.36.25-.66.32,0,1-.24-.08-.25,0-.44,0l.17.27c-.2.16-.48-.23-.68,0,.41.2.33.43.47.75-.56-.14-1.12-.23-1.58-.37a1.33,1.33,0,0,0,.4.29c-.25,0,0,.3.05.45-.15.13-.45-.32-.59-.55-.38.06.05,1-.37.87l.32.31c-.27.3-.79.06-1.07.4-.48-.4,0-.61,0-.91-.14-.07-.3,0-.45-.14a8.08,8.08,0,0,1-.09,1.2C299.21,142.89,298.77,143.18,298.63,143.21Z"/><path class="cls-18" d="M299.46,142.38a1.84,1.84,0,0,0,0-.26s0,.1-.09.11A.45.45,0,0,0,299.46,142.38Z"/><path class="cls-18" d="M298.63,143.21l0-.06C298.57,143.21,298.59,143.21,298.63,143.21Z"/><path class="cls-18" d="M301.47,143.24h-.07l-.07,0Z"/><path class="cls-18" d="M300.62,141.46a2.58,2.58,0,0,0,.51.2A.51.51,0,0,0,300.62,141.46Z"/><path class="cls-18" d="M302.79,140.35c0-.11-.12-.17-.18-.31C302.49,140.13,302.55,140.27,302.79,140.35Z"/><polygon class="cls-18" points="299.02 142.51 298.82 142.78 298.78 142.93 299.02 142.51"/><path class="cls-18" d="M294,147c.35.51.8.12,1.18.12.58-.45-.23-1.09.31-1.33l.26,1c.59-.26,1.49-.46,1.56-1.52.1.1.26.19.18.4.36-.22-.46-1.45.18-1.37-.17.81.42.48.59,1.12l0,.11c.28-.22.53-.75.76-.82-.12-.24-.49-.51-.24-.68-.14,0-.24-.29-.36-.53-.13.41-.36.32-.37.73-.31-.24,0-.16-.26-.39l-.08.41c-.2,0,0-.41-.28-.34a.45.45,0,0,1-.26.56v-.14c-.09.2-.39.15-.06.65l-.44-.44.21.34c-.5.07-1.06-.72-1.36-.06.17.06.14.31.1.41.33.16.15-.39.34-.53.19.35,0,.95.38,1.05-.48-.31-.54.29-1-.6-.33.05-.32.56-.7.41l0-.14c.07.66-.3-.24-.43.45l.19.13c0,.26-.06.29-.18.35a.4.4,0,0,0-.05-.23c0,.48-.43.56-.5.71.2.07.43-.31.61-.46C294.09,146.68,294.16,147.08,294,147Z"/><path class="cls-18" d="M297.1,144.09v.26A.36.36,0,0,0,297.1,144.09Z"/><path class="cls-18" d="M292.37,146c-.17-.17.18-.37.07-.63-.32.24,0,.72-.36,1.12,0-.31-.45.05-.55,0a2.33,2.33,0,0,0,.43-.94c-.15.12-.18-.23-.29-.32.12.52-.38.05-.3.59-.2.32-.7.36-.66,0s.22-.09.32-.06c.33-.39-.06-.36.17-.78-.7.44-1.59-.47-2.12.59-.05.26.23.15.38.21-.16-.46.4-.44.56-.58,0,.25.47.15.16.43l-.49.15a3.7,3.7,0,0,0,1.27,1,4.42,4.42,0,0,0,1.72.44l-.46-.13c.13-.28.35-.26.54-.37a6.79,6.79,0,0,1,0-.78c.1.08.22,0,.16.26a1.06,1.06,0,0,0,.14-.76c.25-.08.27.19.48-.27-.16-.34-.22-.2-.33-.08s-.24.24-.37-.07C292.66,145.34,292.52,145.65,292.37,146Z"/><polygon class="cls-18" points="293.41 145.75 293.27 146.12 293.46 145.95 293.41 145.75"/><path class="cls-18" d="M293.06,147.39c0-.17.11-.24.12-.4C292.93,146.85,292.92,147.08,293.06,147.39Z"/><path class="cls-18" d="M291,144.77l-.3-.08.05.24A.35.35,0,0,1,291,144.77Z"/><path class="cls-18" d="M288,144.56c.37.34.77.24.87.91.55-.17.57-.74,1-1-.09-.24-.67.36-1,.26.25-.35-.33-.24-.42-.51A1,1,0,0,1,288,144.56Z"/><path class="cls-18" d="M288.43,142.33c-.09-.17-.49-.18-.38-.42s.38,0,.38.08c.49-.36-.19-.14.07-.52a.42.42,0,0,1-.25.18c-.12-.53-.59,0-.57-.82a.67.67,0,0,0-.6.06c.31-.57.38-.38.62-1a11.82,11.82,0,0,1-1.12.64c.4-.9-.36-.63,0-1.23,0,0,.18.05.16.18.65-.29-.25-.3-.19-.58l.58-.16c-.15-.17-.65-.43-.29-.82l.31,0c-.6-.41-.52-1.1-.82-1.52l.33-.31c-.54-.58-.12.67-1.07.34,1.09-.24-.41-.3,0-.75.42-.22.27.36.75.1-.57,0-.18-.18-.36-.36.54,0,0-.42.65-.34-.35-.2-.68-.42-1-.66a.3.3,0,0,0,.18-.47c0,.39-.79-.14-1.05.32a6,6,0,0,1,.4,2.62c.73,0,.08.53.71.53-.23.07-.41.17-.64.24.28.49.37-.21.66-.14s-.25.48-.51.53c.07.38.21,0,.65.07l-.72.46c.57,1.12,1.61,2.33,1.85,3.73l.4-.33c.05.69,1.44.26.83,1.28l.45-.1c-.26.06-.55.52-.93.59.24,0,.19.3.42.35v-.4c.47-.08.4.26.15.55.69,0,.51-.76.81-1.08-1.11.06.41-1-.19-1.23C288.63,141.79,288.67,142.2,288.43,142.33Z"/><path class="cls-18" d="M287.69,143.74h.17A.48.48,0,0,0,287.69,143.74Z"/><path class="cls-18" d="M285.76,133.94a.36.36,0,0,0,0-.17C285.61,133.7,285.7,133.8,285.76,133.94Z"/><polygon class="cls-18" points="288.44 144.24 288.44 144.24 288.44 144.24 288.44 144.24"/><polygon class="cls-18" points="289.58 143.68 289.5 143.55 289.34 143.72 289.58 143.68"/><path class="cls-18" d="M286.56,132.35l-.26,0A.71.71,0,0,0,286.56,132.35Z"/><path class="cls-18" d="M288.44,128.52l-.07.07C288.42,128.59,288.43,128.56,288.44,128.52Z"/><path class="cls-18" d="M297.4,123a2.3,2.3,0,0,0,.9-.8l0,.26c.15-.13.73-.55.37-1l-.09.23c-.42.4-.31-.45-.66-.6-.42.15-.55,1.16-.91,1-.14.05-.16-.22-.13-.43-.37,0-.39.76-.59.89-.22-1-.48-.8-.74-.5s-.52.7-.95.15c-.26.25-.74.22-1,.74,0-.55-.37.1-.5-.46.35,1.11-1.34,0-.75,1.39-.67-.12,0,.08-.69.08a.18.18,0,0,1,0-.24c-.37-.15,0,.73-.54.26-.5.16.13.38.09.87-.53.13-.51-.12-1.1-.45.36.61-.1.5-.08.95.07,0,.43-.1.41.25-.54.26-.1.64-.38,1.12-.71-.42.4-.35-.36-.53,0-.5.27-.63.09-1.2a2.25,2.25,0,0,0-1,1.34c-.28.13-.14-.37-.36-.26-.64.14,0,1.13-.52,1.2l-.25-.32c.23.53-.69.65-.74,1.23.21.07.34.11.41.24-.84-.56.08.82-.74.86a1.11,1.11,0,0,1,.66,1.08,1.41,1.41,0,0,1-.59-.18c.52-.26-.44-.69-.52-1.19.13.43-.41.78-.08,1.21l-.42-.29c-.24.41.92.77.31,1l-.33-.16c-.25.87-1.08,1.93-.3,2.75.3.07,1-.22,1.27-.21-.23-.41-.7-.72-.91-1.1l.56.11c-.37-.14-.52-.58-.87-.43-.22-.33.53-.09.29-.47.58.18.6.37,1.09.49l-.23-.31c.21.13.24-.09.45,0-.58-.65.45-.5.3-1l-.19.2c-.31-.12-.24-.25-.28-.39.49.06.46,0,.74-.16-.14-.28-.63-.67-.48-.93.52.36.54-.25,1,0-.51-.4.1-.58-.17-.82,0-.2.18-.33.44-.12,0,0,0,.1,0,.15l.11-.1c.05.06.09.09.09.11s-.26-.39.09-.32c.13.1.07.18.07.27.29-.19-.33-1.11.31-.94-.18-.25.11-.58-.43-1,.26.08.6.5.76.21-.24-.54.4-.08.34-.51.15.66.1.13.27.74.31.05.05-.74.42-.89.11.09.21.22.32.31,0-.24-.16-.72.23-.41l-.25-.32c.32,0,.55-.28,1-.05l-.12-.82c.78.48.91-.4.95-1.2.16,0,.45,0,.52.15s0,.2-.05.32c.23-.07.65.22.54-.42.16-.27.33.35.53.38.06-.51.47-.46.8-.45s.59,0,.5-.69c-.19,0-.65-.13-1,.06.05-.19-.11-.42,0-.5.39-.17.71.25,1.05-.06l.16.86c.41.36.63,0,.89-.28S297.09,122.45,297.4,123Z"/><path class="cls-18" d="M292.76,124.36l.43.28-.18-.33A.15.15,0,0,1,292.76,124.36Z"/><path class="cls-18" d="M293,124.31a1,1,0,0,0,.07-.23.16.16,0,0,0-.12.15Z"/><path class="cls-18" d="M298.48,122.84a.24.24,0,0,0,.3,0C298.71,122.75,298.54,122.71,298.48,122.84Z"/><polygon class="cls-18" points="298.81 122.58 298.67 122.44 298.65 122.55 298.81 122.58"/><path class="cls-18" d="M306.42,125.83c.25,0,.48.1.72.15-.18.21.38.57-.12.62.69,0,.42.87,1.15.28-.46-.68-.87-1.53-1.49-2.3a4.08,4.08,0,0,0-2.42-1.58l.45-.13a1.08,1.08,0,0,1-1-.55c-.21-.25-.48-.38-1.09.13l.38-.64c-.34-.37-1.11.69-1.28-.16l-.05.3c-.11,0-.11-.18-.22-.21v.14c-.36.21-.51.14-.76-.12,0-.24.16-.07.26-.12-.09-.26-.41.18-.63.14-.14-.23.06-.33.1-.43-.72.22-1-.57-1.52.5-.05.2.15.38-.09.47.4.36.75-.06,1.18-.29h-.11c.47-1,.21.25.78-.1-.22.4-.42.35-.55.57.38.9.93-.45,1,.66l0,0c0,.12.23,0,.38-.09a.82.82,0,0,0-.15-.36c.15-.06.36-.49.46-.67,0,.49.27-.15.43.16-.08.44-.33.3-.48.5l.36-.19c.26.07.07.53.09.8.32-.22,0-.27.31-.63.06.6,1.11,1,1.82,1-.2-.06-.33.34-.48.15,0,.13.38.11.59-.15.5,0,.78.54.8,1l.16-.31c.66-.16.25.86.82,1.09h0c.15.1.93-.23,1,.17C306.83,125.76,306.75,125.6,306.42,125.83Z"/><path class="cls-18" d="M308,127.3h-.5c0,.22.62.27.9.13-.15-.11,0-.37-.29-.29C308.1,127.17,307.94,127.23,308,127.3Z"/><path class="cls-18" d="M308.6,131.4c.09.1.27.1.4.16.11-1-.17-2.09.12-2.5.08-.34-.61-.28-.85-.59l.42-.28c-.33-.12,0-.86-.7-.42-.05,0,.4.06.31.26l-.26.05.19.35-.36,0c-.33.58,1.06.14.88.87l-.67.09c0,.41.25.63-.16,1,0,0,.34,0,.21-.07a.58.58,0,0,1,.5-.12c.52.68-.39-.1-.68.35.5.52.61,1.78,0,1.92a.5.5,0,0,1,.6.7c-.28.06-.33-.24-.51-.36-.12.12-.32.16-.28.34a.82.82,0,0,1,.88.74,1.11,1.11,0,0,0,.21-1.22A2.69,2.69,0,0,1,308.6,131.4Z"/><path class="cls-18" d="M309.12,131.73a.19.19,0,0,0-.12-.17c0,.12,0,.23,0,.33Z"/><path class="cls-19" d="M306.54,131.6a2.62,2.62,0,0,0,.67-2.63,4.94,4.94,0,0,0-1.62-2.31,6.37,6.37,0,0,0-3.29-1.55,4.11,4.11,0,0,0-3.39,1.06,5.81,5.81,0,0,0-1.2,1.92,20.74,20.74,0,0,0-1.7,8.36c0,1.49.31,3.19,1.58,4a3.43,3.43,0,0,0,3.38-.07,10.19,10.19,0,0,0,2.65-2.34l1.24-1.39a12.18,12.18,0,0,0,1.56-2,6,6,0,0,0,.64-4.26"/><polygon class="cls-18" points="307.25 130.31 307.13 130.47 307.54 130.43 307.25 130.31"/><path class="cls-18" d="M305.87,131.08l.19.15c1.17-.22.85,0,1.66-.45a1.59,1.59,0,0,0-1.11-.17c.07.06.53.11.41.25-.35,0-.32-.13-.78-.11-.33.22.31.06.17.28Z"/><path class="cls-18" d="M307.08,131.18h-.58C306.7,131.19,307,131.28,307.08,131.18Z"/><path class="cls-18" d="M307.2,131.3c0,.14-.43,0-.5,0q.39,0,.78.12Z"/><path class="cls-18" d="M307.16,131.85a.23.23,0,0,0,.07.07C307.35,131.9,307.25,131.88,307.16,131.85Z"/><path class="cls-18" d="M307.23,132.13c.27,0,.12-.12,0-.21h-.05c-.23.07-.77,0-.62-.13-.12-.12.42-.1.06-.21l-.44.13C306.24,131.88,307,132,307.23,132.13Z"/><path class="cls-18" d="M307.16,131.85s0,0,0-.07S307.09,131.83,307.16,131.85Z"/><polygon class="cls-18" points="307.23 131.58 307.11 131.51 306.88 131.53 307.23 131.58"/><path class="cls-18" d="M307.22,132.59c-.73-.14.13-.31-.45-.41,0,.18-.55.22-.95.13l.21.19A2.86,2.86,0,0,0,307.22,132.59Z"/><path class="cls-18" d="M305.31,132.57c.05,0,.1,0,.11.06A.23.23,0,0,0,305.31,132.57Z"/><path class="cls-18" d="M306.29,133.72a5.77,5.77,0,0,0-.58-.63c.22.11.45.17.5.28.15-.14-.29-.3-.19-.41.69.14,0,.26.6.35,0-.11,0-.29-.53-.5l.5-.06-.76-.1c-.22,0,.56.25,0,.17a.66.66,0,0,1-.43-.19c.13.13-.63.08-.58.25S306,133.44,306.29,133.72Z"/><polygon class="cls-18" points="305.51 133.42 305.22 133.33 305.6 133.46 305.51 133.42"/><path class="cls-18" d="M306.23,134.22c-.11-.14-.22-.27-.34-.4l.36.1c-.16-.06-.42-.23-.55-.28-.67-.21.1.3.15.47-.41.1-.32-.19-.94-.41,0,0,.19,0,.28,0-.76-.23-.21.26-.12.47.08,0,.26.11.24,0l.13.22C306,134.57,306.17,134.53,306.23,134.22Z"/><path class="cls-18" d="M306.39,133.85c0,.1,0,.11-.13.08C306.44,134,306.57,134,306.39,133.85Z"/><path class="cls-18" d="M305.06,134.19s0,0,0-.06S305,134.13,305.06,134.19Z"/><path class="cls-18" d="M305.81,134.52l-.14.1.3.12A.28.28,0,0,0,305.81,134.52Z"/><path class="cls-18" d="M301,138.4c.19.21.32.28.36.16.24.29.08.33.16.54.28.09.28.34.55.59.17-.1-.09-.52.12-.58a1.11,1.11,0,0,0,.29.28c0-.34,0-.87.45-.83s.24-.32.29-.62c.7-.49,1-1.4,1.86-1.84l-.47-.58c.3.21.14-.15.48.17-.1,0-.07.06-.11.11.61.27.29-.41.6-.44a3.12,3.12,0,0,1-.69-.54c.64.5.14-.2.93.29.31-.05-.57-.42-.34-.52-.39-.29-.31,0-.62-.15s.23-.05-.19-.33c-.33.09,0,1.2-.16,1.83l-.29-.34c0,.43-.28.81-1,.51.35.24-.47.18.28.79a.35.35,0,0,0-.34,0l.21.22c-.11.11-.44-.22-.54-.07.39.19.39.37.62.64-.49-.16-.95-.25-1.34-.38a2,2,0,0,0,.4.25c-.19,0,.12.24.21.36-.07.1-.46-.27-.65-.46-.26,0,.42.8.07.68l.34.26c-.07.23-.53,0-.59.28-.49-.35-.22-.49-.34-.73-.12-.06-.21,0-.36-.13a7.63,7.63,0,0,1,.41,1C301.23,138.19,301.06,138.39,301,138.4Z"/><path class="cls-18" d="M301.2,137.8l-.12-.21s0,.08,0,.08A.79.79,0,0,0,301.2,137.8Z"/><path class="cls-18" d="M301,138.4l-.05-.05S301,138.4,301,138.4Z"/><path class="cls-18" d="M303,138.57h-.05l0,0Z"/><path class="cls-18" d="M301.66,137.11a2.75,2.75,0,0,0,.46.18A.67.67,0,0,0,301.66,137.11Z"/><path class="cls-18" d="M303,136.33c0-.09-.14-.15-.22-.27C302.71,136.12,302.79,136.24,303,136.33Z"/><polygon class="cls-18" points="300.96 137.87 300.94 138.07 300.98 138.19 300.96 137.87"/><path class="cls-18" d="M298.93,141.05c.16.52.46.2.69.27.36-.33-.12-1.12.17-1.23l.18,1c.35-.13,1-.16.82-1.12a.62.62,0,0,1,.21.39c.19-.16-.64-1.36-.25-1.19.14.68.41.48.71,1.06v.09c.14-.18.15-.61.28-.66-.17-.21-.5-.48-.4-.6-.08,0-.25-.26-.41-.48.06.33-.11.23,0,.57-.27-.24,0-.12-.29-.36l.09.34c-.12,0-.12-.35-.27-.34.1.18.13.43,0,.44l0-.12c0,.16-.18,0,.13.56l-.35-.48.19.35c-.28,0-.66-.92-.71-.38a.56.56,0,0,1,.09.4c.19.23,0-.32.11-.41.16.37.12.89.34,1.07-.3-.4-.3.15-.6-.8-.15,0-.14.46-.33.25v-.15c0,.66-.14-.28-.23.39l.09.15c0,.27-.05.28-.12.33a.66.66,0,0,0,0-.24c0,.48-.28.55-.33.67s.27-.29.37-.41C299,140.73,299,141.14,298.93,141.05Z"/><path class="cls-18" d="M300.39,138.92l.07.23A.61.61,0,0,0,300.39,138.92Z"/><path class="cls-18" d="M298.19,140c-.05-.14.18-.37.2-.59-.24.26-.18.66-.48,1.07,0-.29-.3.08-.37,0a4.5,4.5,0,0,0,.55-.89c-.13.13,0-.18,0-.22-.11.41-.26.1-.4.53s-.6.35-.47.08.21-.11.26-.08c.37-.36.08-.28.41-.63-.62.43-1-.22-1.86.52-.14.2.15.12.24.18,0-.36.51-.33.68-.44-.09.19.3.09,0,.32a3.17,3.17,0,0,1-.44.12,1.88,1.88,0,0,0,1.73,1.18,1.39,1.39,0,0,1-.28-.12c.14-.28.27-.24.4-.37s.07-.5.12-.75c0,.07.12,0,0,.24a2.05,2.05,0,0,0,.2-.75c.12-.1.1.19.25-.28,0-.63-.25.47-.24-.1C298.49,139.43,298.35,139.74,298.19,140Z"/><polygon class="cls-18" points="298.76 139.78 298.64 140.14 298.75 139.97 298.76 139.78"/><path class="cls-18" d="M298.35,141.39c0-.16.1-.22.12-.39S298.3,141.09,298.35,141.39Z"/><path class="cls-18" d="M297.78,139.25l-.18,0-.07.16A.57.57,0,0,1,297.78,139.25Z"/><path class="cls-18" d="M295.48,139.08c.18.28.54.23.36.73.52-.1.78-.51,1.21-.66,0-.17-.7.23-.92.14.37-.22-.18-.18-.14-.37A2,2,0,0,1,295.48,139.08Z"/><path class="cls-18" d="M296.83,137.78c0-.1-.36-.16-.17-.28s.37,0,.31.1c.6-.13-.11-.1.28-.26a.71.71,0,0,1-.3,0c.11-.3-.51-.12-.19-.53a1,1,0,0,0-.57-.08,6.81,6.81,0,0,0,.94-.4c-.23,0-.77.11-1.28.11.71-.4-.1-.41.44-.66,0,0,.15.06.08.13.71,0-.12-.21,0-.35l.61,0c-.1-.12-.48-.36,0-.5l.3.05c-.45-.34-.2-.7-.4-1l.39-.1c-.41-.43-.25.35-1.11,0,1.11.09-.34-.24.13-.41s.19.25.71.2c-.56-.12-.15-.14-.29-.27.52.09.1-.23.69-.08l-.92-.55c.31,0,.28-.14.22-.24-.05.22-.78-.21-1.06,0a1.57,1.57,0,0,1-.05,1.5c.73.12,0,.31.56.43h-.67c.13.32.4,0,.66.06.09.14-.36.21-.62.18-.05.22.2,0,.59.17l-.82.1c.22.72.73,1.58.37,2.4l.5-.12c-.23.41,1.18.35.19.85h.44a9.5,9.5,0,0,1-1.07.25c.19.06,0,.21.22.27l.17-.24c.45,0,.23.19-.1.36.57.07.77-.44,1.17-.6-1-.06.81-.51.38-.67S297.09,137.75,296.83,137.78Z"/><path class="cls-18" d="M295.56,138.51l.15,0Z"/><path class="cls-18" d="M296.69,132.71a.22.22,0,0,0,0-.11C296.56,132.55,296.64,132.62,296.69,132.71Z"/><polygon class="cls-18" points="295.99 138.92 296 138.91 295.99 138.91 295.99 138.92"/><polygon class="cls-18" points="297.21 138.64 297.2 138.56 296.99 138.66 297.21 138.64"/><path class="cls-18" d="M297.51,131.87l-.26-.06A1,1,0,0,0,297.51,131.87Z"/><path class="cls-18" d="M298.42,129.42l0,.05C298.43,129.47,298.43,129.45,298.42,129.42Z"/><path class="cls-18" d="M301.93,125.69a2.22,2.22,0,0,0,.6-.7l-.06.26a1.06,1.06,0,0,0,.41-1l-.1.21c-.32.35-.11-.46-.31-.67-.31.1-.5,1.09-.69.85-.08,0-.07-.24,0-.44-.23-.07-.28.71-.39.81-.12-1-.3-.84-.46-.58s-.28.62-.61,0c-.15.22-.49.15-.56.62-.09-.51-.23.07-.44-.45.23.53,0,.5-.19.53s-.41.11.05.7c-.52-.11.05.07-.46.07-.12-.12-.07-.16-.07-.2-.34-.1.29.6-.29.24-.3.18.26.3.46.68-.31.12-.41-.06-1-.25.58.41.19.39.43.7a.33.33,0,0,1,.43.13c-.26.23.28.45.32.79-.76-.21.12-.28-.55-.32-.24-.33-.13-.45-.57-.83a1,1,0,0,0-.05,1c-.17.11-.3-.23-.42-.14-.44.15.55.74.14.82l-.35-.19c.44.33-.31.45-.12.82a1.19,1.19,0,0,1,.45.14c-.95-.34.36.53-.39.55.61.18.87.53.89.7a2.3,2.3,0,0,1-.59-.13c.43-.15-.59-.45-.8-.76.25.28-.16.47.24.75l-.46-.2c-.15.23,1,.52.49.64l-.34-.12c-.09.52-.88,1-.15,1.58a9.47,9.47,0,0,0,1.26.07,11,11,0,0,0-.91-.78l.56.13c-.38-.13-.55-.41-.88-.35-.25-.23.52,0,.24-.25.58.16.62.28,1.11.4l-.25-.22c.21.1.22,0,.43.07-.63-.45.37-.3.13-.65l-.14.12c-.32-.09-.27-.17-.34-.27a.89.89,0,0,0,.67-.08c-.22-.19-.77-.44-.71-.61.59.24.41-.16.93,0-.58-.25-.1-.39-.44-.54-.09-.13,0-.22.34-.1l.08.1.05-.07.13.06c0-.07-.39-.24-.06-.22.16.06.14.12.18.18.17-.15-.76-.71-.15-.65-.27-.15-.19-.4-.83-.61.24,0,.72.26.71.06-.47-.33.27-.09,0-.37.46.42.15.07.6.45.26,0-.35-.48-.16-.61l.4.18c-.14-.16-.5-.47-.06-.28l-.34-.21c.24,0,.24-.23.66,0a7.68,7.68,0,0,1-.49-.61c.75.39.37-.25.16-1a.37.37,0,0,1,.39.16,2.26,2.26,0,0,1,.07.28c.13,0,.45.27.22-.32,0-.24.28.35.4.41-.08-.47.18-.38.35-.33s.31.08.22-.6c-.11,0-.4-.2-.6-.06,0-.18-.13-.42,0-.48s.47.33.66.06l.13.86c.24.41.33.1.48-.16S301.82,125.05,301.93,125.69Z"/><path class="cls-18" d="M299.58,126.35l.36.28-.22-.3C299.72,126.41,299.69,126.43,299.58,126.35Z"/><path class="cls-18" d="M299.72,126.33a1.08,1.08,0,0,0,0-.19s0,0,0,.12Z"/><path class="cls-18" d="M302.52,125.61s.08.12.16,0S302.58,125.48,302.52,125.61Z"/><polygon class="cls-18" points="302.75 125.39 302.7 125.23 302.67 125.33 302.75 125.39"/><path class="cls-18" d="M307.16,127.54c.2,0,.41,0,.62,0-.2.18.25.36-.22.46.66-.11.26.56,1.05.07-.35-.47-.62-1-1-1.5a2,2,0,0,0-1.54-.84l.36-.18c-.85.24-.15-1.12-1.31-.16l.45-.59c-.13-.33-.95.66-.8-.14l-.12.28c-.06,0,0-.16-.08-.2l0,.14c-.29.19-.36.11-.44-.15.08-.22.12-.06.19-.09,0-.25-.3.15-.43.1,0-.23.13-.31.18-.4-.5.16-.5-.65-1,.35-.07.19,0,.39-.15.45.15.38.43,0,.76-.18l-.06,0c.54-.93.05.27.5,0-.25.37-.36.32-.49.52,0,.86.69-.39.42.65h0c0,.12.15,0,.26-.08a1,1,0,0,0,0-.33,3.83,3.83,0,0,0,.48-.62c-.15.46.22-.14.23.14-.18.4-.3.28-.46.46l.29-.17c.15.05-.11.48-.18.72.28-.22.06-.24.4-.58-.15.54.44.77,1,.68-.12,0-.33.33-.39.19,0,.11.25,0,.48-.21.37-.07.46.3.38.67l.2-.28c.55-.24,0,.62.45.67h0c.11,0,.85-.34.83,0C307.52,127.42,307.49,127.31,307.16,127.54Z"/><path class="cls-18" d="M308.43,128.37l-.48,0c-.05.15.56.14.85,0-.12-.07,0-.27-.23-.2C308.51,128.28,308.35,128.33,308.43,128.37Z"/><path class="cls-18" d="M308.44,131.29a1.59,1.59,0,0,0,.36.23c.25-.73.11-1.55.47-1.83.13-.24-.57-.26-.77-.48.15-.06.31-.12.45-.19-.31-.09.08-.65-.63-.3-.07,0,.38,0,.28.18l-.27,0,.14.25-.35,0c-.43.37,1,.13.74.65h-.67c0,.27.17.46-.28.62,0,0,.33.07.21,0a.85.85,0,0,1,.51,0c.43.58-.38-.13-.71.11a1.16,1.16,0,0,1,.27.86c0,.29-.23.51-.51.44.45.06.63.58.39.78-.25-.07-.24-.33-.37-.49-.13,0-.31,0-.31.14a.92.92,0,0,1,.59,1c.41-.1.5-.51.48-.9S308.3,131.54,308.44,131.29Z"/><path class="cls-18" d="M308.89,131.68a.18.18,0,0,0-.09-.16,2.44,2.44,0,0,1-.1.24Z"/><path class="cls-19" d="M412.81,229.82l-.2-.14-15.68-9.08-.13-.08a.16.16,0,0,1-.11-.18V201.8l.22.12,14.51,8.33,1.3.75c.1.06.16.12.14.25a.75.75,0,0,0,0,.15v18.08c0,.11,0,.23,0,.34Z"/><path class="cls-19" d="M431.9,198.25l-2.08,1.2-13.82,8c-.07,0-.15.07-.24.13a2,2,0,0,1,0-.22V189.32a1.08,1.08,0,0,0,0-.18c0-.16.05-.24.18-.32l5.93-3.42,9.84-5.71.21-.13Z"/><path class="cls-19" d="M377.48,168.75l16.18,9.37v18.66l-.21-.11L383.7,191l-6-3.47a.39.39,0,0,1-.23-.39q0-9.06,0-18.12Z"/><path class="cls-19" d="M396.69,179.57l16.16,9.36v18.65l-.21-.11-15.75-9.12a.34.34,0,0,1-.2-.35V179.57Z"/><path class="cls-19" d="M501,170h1c3.9,2.29,7.8,4.57,11.68,6.88a12.69,12.69,0,0,1,1.41,1.13v14.86c-.8.62-1.57,1.32-2.43,1.86-1.63,1-3.32,2-5.13,3.07,1.23.67,1.19,1.69,1.19,2.72q0,6.4,0,12.8a1.78,1.78,0,0,1-1,1.74q-11.6,6.57-23.16,13.19a1.85,1.85,0,0,1-2,0q-11.71-6.63-23.46-13.24a1.74,1.74,0,0,1-1-1.66q-.12-13.73-.26-27.45a1.88,1.88,0,0,1,1-1.82q11.83-6.75,23.63-13.55a1.85,1.85,0,0,1,2.09,0c2.12,1.22,4.32,2.3,6.36,3.64a2.7,2.7,0,0,0,3.46-.07C496.57,172.66,498.82,171.36,501,170ZM461,188.2c0,.38,0,.57,0,.76,0,7.72,0,15.43,0,23.14a1.27,1.27,0,0,0,.82,1.26q9.78,5.49,19.55,11c.24.14.5.25.81.4,0-.31.06-.5.06-.69,0-7.72,0-15.43,0-23.14a1.22,1.22,0,0,0-.8-1.18l-19.26-10.94C461.76,188.63,461.42,188.46,461,188.2Zm45.35,13.6-1.23.64c-2.85,1.58-5.68,3.18-8.53,4.75-1.35.74-2.33.18-2.36-1.34v-11l-.94.49c-2.51,1.45-5,2.92-7.53,4.34a1.43,1.43,0,0,0-.82,1.46c0,7.53,0,15,0,22.57,0,.31,0,.62,0,.9.12,0,.16.06.18,0q10.37-6,20.73-11.93a.94.94,0,0,0,.42-.67C506.31,208.74,506.3,205.39,506.3,201.8Zm-13.59-9.46c-.43-.26-.75-.47-1.08-.66l-8.36-4.84c-1.39-.82-1.4-1.89,0-2.77s2.92-1.83,4.35-2.8a1.45,1.45,0,0,0,.57-1c0-1.41-.13-2.86,1.77-3.5-2-1.18-3.85-2.23-5.65-3.33a1.24,1.24,0,0,0-1.49,0q-9.94,5.84-19.9,11.6c-.23.14-.44.31-.74.52,7.06,4,14,8,20.95,12a.93.93,0,0,0,.78,0C486.78,195.88,489.68,194.14,492.71,192.34Zm-.42-14c3,1.76,5.79,3.39,8.56,5.07a1.24,1.24,0,0,0,1.49,0c2.57-1.52,5.17-3,7.76-4.49.24-.14.45-.3.77-.52-3-1.79-6-3.51-8.93-5.21a.81.81,0,0,0-.71,0C498.3,174.91,495.38,176.6,492.29,178.39Zm20,2.57a3.66,3.66,0,0,0-.47.18c-2.79,1.6-5.59,3.19-8.35,4.84a1.38,1.38,0,0,0-.51,1c-.05,1.86,0,3.71,0,5.56v4.3c.21,0,.32,0,.39-.08q4.26-2.46,8.51-5a1.1,1.1,0,0,0,.45-.76C512.32,187.73,512.31,184.41,512.31,181Zm-12.2,15.87a2,2,0,0,0,.11-.36c0-3.23,0-6.45,0-9.67a1.36,1.36,0,0,0-.67-.91c-2.24-1.31-4.52-2.57-6.78-3.86-.58-.33-1.14-.68-1.84-1.11,0,2.42,0,4.65,0,6.89a1.14,1.14,0,0,0,.54.7c1,.6,2,1.15,3.06,1.72,2.72,1.54,2.36,1,2.4,4,0,.3,0,.75.23.87C498.09,195.74,499.09,196.26,500.11,196.83Zm2.43,4a2.59,2.59,0,0,1-2.6-.66c-.93-.68-1.9-1.3-2.94-2v5.93Zm-14.4-14.17v-2.37l-1.88,1.19Z"/><path class="cls-19" d="M545.85,195.9v13.43l-1.39-.46-7.31-2.42a.42.42,0,0,1-.35-.49c0-4.12,0-8.24,0-12.36v-.38Z"/><path class="cls-19" d="M603,190.2l-9.05-3v-13.1l2.24.66,6.47,1.91c.22.07.36.12.36.42q0,6.42,0,12.85Z"/><path class="cls-19" d="M548.24,212.37l9,2.67v13.44l-2.7-.9-6-2c-.21-.07-.32-.15-.32-.41q0-6.22,0-12.46C548.22,212.61,548.23,212.51,548.24,212.37Z"/><path class="cls-19" d="M559.64,228.47v-.4q0-6.3,0-12.6c0-.32.08-.44.39-.53,2.77-.81,5.54-1.64,8.3-2.46l.39-.09v.38l0,12.35c0,.2,0,.35-.24.43-2.87.95-5.72,1.91-8.58,2.87Z"/><path class="cls-19" d="M548.24,209.32V195.91l9-2.68v.37q0,6.18,0,12.36a.41.41,0,0,1-.33.47l-8.38,2.8Z"/><path class="cls-19" d="M605.32,190.2v-.42q0-6.32,0-12.64c0-.28.07-.4.35-.48,2.81-.82,5.6-1.66,8.4-2.49l.3-.07v13.07Z"/><path class="cls-19" d="M568.67,209.33l-2.21-.74-6.53-2.17a.36.36,0,0,1-.3-.4q0-6.24,0-12.49c0-.09,0-.17,0-.3l1.84.54,6.92,2c.19.05.29.11.29.35q0,6.48,0,13S568.68,209.22,568.67,209.33Z"/><path class="cls-19" d="M580.12,190.19l-3-1-5.7-1.9c-.22-.07-.32-.16-.32-.41q0-6.23,0-12.46c0-.1,0-.19,0-.33l2.31.69,6.34,1.87c.29.08.41.2.4.52q0,6.28,0,12.58Z"/><path class="cls-19" d="M582.49,190.18v-.42q0-6.3,0-12.61a.44.44,0,0,1,.37-.51c2.78-.8,5.54-1.63,8.31-2.45a4,4,0,0,0,.39-.11v.39l0,12.33a.43.43,0,0,1-.35.49c-2.78.92-5.54,1.86-8.31,2.79Z"/><path class="cls-19" d="M580.14,193.24v.42q0,6.15,0,12.29a.43.43,0,0,1-.35.49l-8.28,2.77-.38.11c0-.15,0-.28,0-.4q0-6.31,0-12.64a.41.41,0,0,1,.36-.48l8.37-2.47Z"/><path class="cls-19" d="M555.37,191.82,551,193c-1.18.31-2.37.61-3.55.94a1.5,1.5,0,0,1-.89,0l-7.65-2-.18-.06c.15-.06.24-.11.34-.14l7.66-2.39a.84.84,0,0,1,.47,0l8,2.47Z"/><path class="cls-19" d="M578.13,191.84,573,193.21c-1,.25-1.91.51-2.87.75a.86.86,0,0,1-.45,0l-8.16-2.18.43-.15,7.59-2.37a1,1,0,0,1,.51,0l7.9,2.44.18.07Z"/><path class="cls-19" d="M566.8,211l-3.67,1-4.51,1.19a.66.66,0,0,1-.34,0L550.11,211l.38-.14,7.66-2.39a.79.79,0,0,1,.48,0l7.94,2.44A1.76,1.76,0,0,1,566.8,211Z"/><path class="cls-19" d="M595.81,172.64l4.3-1.34,3.71-1.17a.83.83,0,0,1,.44,0l8.07,2.48.09,0a.47.47,0,0,1-.17.09l-7.92,2.11a1,1,0,0,1-.45,0l-7.78-2.08Z"/><path class="cls-19" d="M589.67,172.67l-2.85.76c-1.76.46-3.51.93-5.27,1.38a1,1,0,0,1-.51,0l-7.82-2.09-.25-.09,1.65-.53c2.12-.66,4.23-1.33,6.35-2a.84.84,0,0,1,.47,0l8,2.48Z"/></g></g></svg>