<svg id="Layer_1" data-name="Layer 1" xmlns="http://www.w3.org/2000/svg" viewBox="0 0 800 370"><defs><style>.cls-1{fill:#fff;}.cls-2{font-size:19px;font-family:Montserrat-Medium, Montserrat;font-weight:500;}.cls-3{letter-spacing:-0.02em;}.cls-4{letter-spacing:-0.01em;}.cls-5{letter-spacing:-0.01em;}.cls-6{letter-spacing:0em;}.cls-7{letter-spacing:-0.02em;}.cls-8{letter-spacing:0.02em;}.cls-9{letter-spacing:-0.02em;}.cls-10{font-size:13px;font-family:Montserrat-Regular, Montserrat;}.cls-11{letter-spacing:-0.01em;}.cls-12{letter-spacing:0em;}.cls-13{letter-spacing:-0.02em;}.cls-14{font-size:26px;font-family:Chalkduster;}.cls-14,.cls-16{fill:#3f3a37;}.cls-15,.cls-17{fill:none;stroke:#3f3a37;stroke-width:2px;}.cls-15{stroke-linecap:round;stroke-linejoin:round;}.cls-17{stroke-miterlimit:10;}.cls-18{letter-spacing:-0.01em;}.cls-19{letter-spacing:0em;}.cls-20{fill:#575350;}.cls-21{fill:#2dfefe;}.cls-22{letter-spacing:-0.02em;}</style></defs><title>Artboard 9</title><rect class="cls-1" y="1" width="800" height="369"/><text class="cls-2" transform="translate(330.84 46.52)"><tspan class="cls-3">F</tspan><tspan x="11.74" y="0">o</tspan><tspan class="cls-4" x="23.81" y="0">r</tspan><tspan x="31.37" y="0">ge</tspan><tspan class="cls-5" x="56.11" y="0">t</tspan><tspan x="63.72" y="0">ti</tspan><tspan class="cls-6" x="76.89" y="0">n</tspan><tspan x="89.89" y="0">g </tspan><tspan class="cls-7" x="108.11" y="0">C</tspan><tspan x="121.52" y="0">u</tspan><tspan class="cls-8" x="134.39" y="0">r</tspan><tspan class="cls-9" x="142.46" y="0">v</tspan><tspan x="152.8" y="0">e</tspan></text><text class="cls-10" transform="translate(254.86 102.07)">N<tspan class="cls-11" x="10.57" y="0">e</tspan><tspan x="18.29" y="0">w </tspan><tspan class="cls-11" x="33.12" y="0">K</tspan><tspan class="cls-12" x="42.24" y="0">n</tspan><tspan class="cls-13" x="51.06" y="0">o</tspan><tspan x="59.02" y="0">wledge</tspan></text><text class="cls-14" transform="translate(535.26 224.93)">EH?!</text><polyline class="cls-15" points="228.96 87.24 228.96 311.1 576.34 311.1"/><path class="cls-16" d="M229,80a36.27,36.27,0,0,1-5.71,10.26L229,88.19l5.7,2.07A36.24,36.24,0,0,1,229,80Z"/><path class="cls-16" d="M583.58,311.1a36.27,36.27,0,0,0-10.26,5.71l2.07-5.71-2.07-5.7A36.24,36.24,0,0,0,583.58,311.1Z"/><path class="cls-17" d="M237.37,96.38s8,204.54,282,204.54"/><text class="cls-10" transform="translate(346.99 335.4)"><tspan class="cls-18">T</tspan><tspan x="7.28" y="0">i</tspan><tspan class="cls-19" x="10.78" y="0">m</tspan><tspan x="24.6" y="0">e</tspan></text><text class="cls-10" transform="translate(496.18 335.4)">1 <tspan class="cls-13" x="8.1" y="0">w</tspan><tspan x="19.33" y="0">eek</tspan></text><line class="cls-17" x1="493.15" y1="294.38" x2="493.15" y2="320.18"/><path class="cls-20" d="M506.58,275c0-.14-.14-.4-.19-.32l.12.49Z"/><path class="cls-20" d="M505.69,274.39a2.15,2.15,0,0,0,.33,1.09c-.11-.48,0-.31-.14-.87.06-.09.2.09.26.26,0-.13.16.05.09-.25-.25-.32-.4-.27-.41.08A1,1,0,0,1,505.69,274.39Z"/><path class="cls-20" d="M500.43,278l-.08.14Z"/><path class="cls-20" d="M501.23,275.12s.08-.07.15-.14A.84.84,0,0,0,501.23,275.12Z"/><path class="cls-20" d="M502.17,273.87l-.06.07C502.18,273.87,502.22,273.83,502.17,273.87Z"/><path class="cls-20" d="M500.43,278l.23-.39Z"/><path class="cls-20" d="M505.15,276a.25.25,0,0,0,.05-.17.35.35,0,0,1-.08.1Z"/><path class="cls-20" d="M501.9,275.66l0,0c.07-.13.16-.28.25-.46Z"/><path class="cls-20" d="M502.66,274.81a2.66,2.66,0,0,0-.17.39l-.27.64c.14-.31.21-.46.25-.53Z"/><path class="cls-20" d="M504.09,274.64l0-.08Z"/><path class="cls-20" d="M501.6,276l.23-.39Z"/><path class="cls-20" d="M522.08,237.72l0,.05S522.09,237.71,522.08,237.72Z"/><polygon class="cls-20" points="525.07 237.93 525.06 237.96 525.2 238.15 525.07 237.93"/><path class="cls-20" d="M503,272.89h0C503.08,272.88,503.07,272.88,503,272.89Z"/><path class="cls-20" d="M508.09,260.7c-.42,0-.28-.48-.78-.45C507.46,260.3,507.76,260.77,508.09,260.7Z"/><path class="cls-20" d="M505.06,276l-.09.06S505.05,276,505.06,276Z"/><path class="cls-20" d="M507.31,260.25h0Z"/><path class="cls-20" d="M503.4,271.11a.65.65,0,0,0-.19,0Z"/><path class="cls-20" d="M502.13,272.93l.07-.06S502.14,272.91,502.13,272.93Z"/><path class="cls-20" d="M503.36,269.51c.05,0,.1,0,.07-.09h-.05S503.44,269.49,503.36,269.51Z"/><path class="cls-20" d="M504,268.07h-.09v.06Z"/><path class="cls-20" d="M518.58,241.18a2.27,2.27,0,0,1,.32.22C518.67,241.2,518.77,241,518.58,241.18Z"/><path class="cls-20" d="M505,275.79a.25.25,0,0,1,0,.2l.06-.06C505.1,275.87,505.08,275.81,505,275.79Z"/><path class="cls-20" d="M500.29,268.24l.14-.22A.49.49,0,0,0,500.29,268.24Z"/><path class="cls-20" d="M511,249.92v-.08S511,249.88,511,249.92Z"/><path class="cls-20" d="M500.67,267.29a1,1,0,0,0,.32,0,.19.19,0,0,0-.08-.07Z"/><path class="cls-20" d="M518.9,241.4Z"/><path class="cls-20" d="M519.45,239.52c-.19.15.28.47.46.74-.11.31-.38-.21-.65-.35,0,.24.22.7.1.78a.55.55,0,0,1-.17-.17c.16.44-.4.4-.17,1a.5.5,0,0,1-.12-.08c.22.18.42.38.56.52-.07.09.1.4-.18.17.05,0,0-.15-.1-.25l0,.19c-.44-.3,0-.24-.29-.52,0,.28.08.77-.14.79-.38-.34.16-.4-.32-.57l.33,0c-.71-.43.15-.08-.59-.56-.35.14-.09.46-.44.61.14.25.31.27.46.53,0,.7-1.19-.63-1,.11.18.3.61.78.19.72l-.35-.46c-.28.2.46.71-.07.69-.12-.2.05-.32,0-.33-.49-.15.12.34,0,.47l-.4-.33c-.18.33-.18.87-.38,1.23-.09-.12-.17-.28-.34-.32-.15.54-.77.75-1.33.91l.21.43s-.2-.07-.24-.16c-.25,0,.21.19.28.37s-.29-.06-.34-.2c0,.5,0,1.25-.59,1.21l-.06-.13c-.31.09.49.81,0,.74l0-.08c-.53.33-.63,1.08-1.44,1,.44.47-.58.29.09.87-.55,0-.61-.18-1.14,0-.11.08.32.49.3.67l-.37-.27.26.46-.51-.24v.18a.47.47,0,0,1,.35.12c0,.31-.6.25-.8.11l0,.67c-.14-.12-.13-.23-.19-.36.21.52-.42-.24-.23.23.1,0,.21.17.28.24a.44.44,0,0,0-.51.44l-.24-.22c-.3.29-.37.79-.63,1.16.21,0,.64.3.61.44l-.43-.24c.2.25.23,0,.43.35-.14.11-.52-.22-.59-.39l0,.26c-.13-.07-.16-.15-.31-.27.2.24-.61,0-.25.42l-.12-.08a5.68,5.68,0,0,0-.43,1c.35.24.2.31.42.59-.26.15-.7.23-.84.52.05.31.26.25.42.47-.34-.19-.48.11-.62-.18a1.9,1.9,0,0,0-.21,1c.16,0,.25,0,.35.11s-.25.09-.4,0l0,0c.19.77-1.62.54-1.16,1.33l0,0,.13.61c-.16.15-.19-.26-.47-.24.31.75-.48.64-.31,1.2-1.15-.27-.46,1-1.3,1.07l.25.1c.18.23-.2,0-.29.1.19.08.27,0,.36.13-.15,1-1.25,1.53-1.87,2.32-.22.29,1.16.77.4.9l-.4-.32c.24.89-.66,1.3-.46,2.15-.09-.08-.22-.14-.19-.2-.39,0-.23.49,0,.61-.07.09-.26-.08-.42-.08s.28.52-.08.45c-.06,0-.09-.08-.11-.12.13.16-.21.4.21.48-.29.16,0,.53-.34.63.38.3-.38.32.22.61-.63-.27-.69.22-.44.49-.18-.12-.25.06-.49-.1-.06.18,0,.38.33.48-.88,0,.37.88-.67.7a6.13,6.13,0,0,1,.17,1.74c-.63-.24.13-.54-.54-.76a3.51,3.51,0,0,0,.27.75,1.14,1.14,0,0,1-.09.9c-.15.16-.27-.13-.36-.22.07.73-.5,1.43-.28,2a.17.17,0,0,1-.17-.08c0,.12-.2.32.15.21l-.06-.09c.55-.3.92.12,1.2,0-1,.2-.42.6-1.63.86,0,.06.18.08.43-.05a.62.62,0,0,1-.5.26c.06.35.51,0,.39.36a2.83,2.83,0,0,1-.44.14c.3,0,.6,0,.36.35-.11.06-.26.19-.24.1-.08.53.78.11.29.91-.82.6-.33.43-1.08,1.15a.81.81,0,0,0,.14.12l.4-.47c-.09.29.41-.05.11.41l-.27.14,0,.34.36-.59c.33-.18,1-1,.69-.54-.07,0-.07.22-.56.87h0c.22-.17.45-.38.22,0s-.88,1-1.06,1.27c.64-.69,0,.38.73-.41-.16.17-.58.73-.68.86l.54-.63a7.51,7.51,0,0,1-.64.93c-.19.5,1.08-1.52.53-.51,0,0-.13.16-.2.21-.33.76.19.26-.18,1-.91,1.45-.14,0-.91,1.21,0,.44.8-.44.47.41l.12-.27c.65-1.05.47-.7.19-.16s-.65,1.28-.37.87c-.08.1-.72,1.19-.58.95-.19.51,0,.14.19-.23s.53-1,.84-1.5l-.39.68c-.29.5-.06.08-.19.35l1-1.66c-1.07,1.87-.73,1.37-.23.59a9.26,9.26,0,0,1,.59-.91c.08-.07,0,.19-.62,1.34,0,0-.13.2-.25.4a2.53,2.53,0,0,0-.22.41l.28-.38.27-.32c.93-1.78.56-1.1,1.24-2.44.56-1,1.07-1.89,1.14-2-.38.67-.75,1.37-1.11,2.08l-1,2,.95-1.81c-.84,1.71-.35.77.24-.37s1.28-2.49.74-1.29l-.56,1.12c.31-.51,1.15-2.16,1.06-1.88-1.31,2.81-.68,1.32-1.74,3.51.05,0,.69-1.24,1.21-2.25s.87-1.74.17-.08c-.44.9-.46.74-.87,1.56-.78,1.73-1.13,2.66-1.28,3.07s-.12.46-.29,1l.05-.13-.33,1c.14-.18.33-.45.56-.79a.4.4,0,0,1,0-.22c2.29-5.12,2.46-5.44,2.69-5.8a5.47,5.47,0,0,0,.36-.61,14.16,14.16,0,0,0,.69-1.53c-.32.79-.52,1.27-.65,1.58s-.2.54-.23.65a6.82,6.82,0,0,1-.34,1.11c0,.14.29-.15.05.46.1-.24.18-.41.24-.55a1.78,1.78,0,0,1,.11-.21.32.32,0,0,1,.14-.13c.08-.05.23-.27.57-1.17-.07.31.27-.38,0,.46.43-.84,0-.36.16-.82.39-.95.47-.74.69-.79s.48-.21.71-.8a10.11,10.11,0,0,0,.58-1.65c.17.17.06.59.06.59.23.11.38,0,.48-.29a.56.56,0,0,0,.23.34c.15-.13-.13-.54.12-.43a5.54,5.54,0,0,1,.17.58c.06-.19.06-.5.13-.69a1,1,0,0,1,.13.56.88.88,0,0,0,.16-.78l-.16-.08c.05,0,.17.3.16.38,0,.35-.25,0-.32-.16l.06-.13c-.5-.72-.32.32-.58.4a6.17,6.17,0,0,0-.19-.61,3.83,3.83,0,0,1,0,.59.79.79,0,0,1-.22-.57c-.24-.22,0,.28-.26,0a.17.17,0,0,1,0-.11l-.07.26c0-.15-.12-.44,0-.38-.24-.28-.24.69-.37.22l0-.05a.88.88,0,0,0-.13.52,2.12,2.12,0,0,1-.12.85,11.88,11.88,0,0,1-.07-1.31l-.08.59s-.08,0,0-.25c-.15.48,0,.24-.12.67-.06-.45-.5.6-.27-.42-.18.55,0,.28-.2.75.27-1.11-.24.34-.21-.09.25-.66.23-.4.31-.88-.42,1.13-.1-.07-.23.19-.28.7-.34.66-.46.8a1.4,1.4,0,0,0-.16.22c.15-.35,0-.3.11-.61l.1-.19a9.39,9.39,0,0,1-.84,1.44c.39-.7.52-1,.77-1.4l-.07.07c-.22.41-.36.65-.48.85l.52-1c-.09.12-.8,1.36-.53.83-.26.46-.63,1.12-1,1.74l-.59,1-.68,1.16,1.27-2.23c0,.08-.3.5-.2.32l.56-1c.16-.31-.46.78-.46.78.41-.71.31-.55.63-1.12.06-.08-.14.27.05-.05,0-.07.23-.46.56-1-.24.43-.5.88-.7,1.22-.12.18.53-.93.73-1.29-.29.51-.18.3-.77,1.32.14-.23.34-.6.51-.89l-1,1.77,0,.08,0,.07h0c-.95,1.61.14-.21-.29.52l.3-.51c-.3.42-.12,0-.7.88,0-.06.54-1,.87-1.49-.19.24-.49.7,0-.19.46-.65.44-.7.33-.44.27-.53.71-1.19,0-.2.68-1,.89-1.39.69-1.13l-.51.81c-.08.08,0-.07.06-.22l.89-1.27c.56-.86.11-.24-.23.15s-.57.62.3-.54c-.57.69-.44.65-1.12,1.49.15-.31,1.37-1.88,1.37-1.88.47-.61-1.16,1.31-.8.78a10.22,10.22,0,0,1-1.27,1.32,12.86,12.86,0,0,1,1.41-1.58s-.07.11-.17.21a3.8,3.8,0,0,0,.52-.54l-.28.3a7,7,0,0,1,.74-.88,4.9,4.9,0,0,0-.6.63c.43-.51.07-.2.35-.55a5.87,5.87,0,0,1-.44.42c.37-.48-.47.34-.53.25.41-.4.9-.71.63-.59a5.52,5.52,0,0,1,.85-.65c-.45.27.34-.35.42-.4l.19-.11c-.11.07-.11.06-.1.05l-.48.3a1.65,1.65,0,0,1,.29-.2c-.29.15-.78.49-1.16.65.24-.18-.19-.05.41-.37-.25.25.59-.3.66-.27s-.05,0,0-.06l.15-.07c.55-.31-.65.3-.59.15a2,2,0,0,0,.54-.24,2.64,2.64,0,0,1-.76.25c.28-.17-.14-.06-.09-.12L502,273c-.3.06-.23,0-.3-.09.24-.05.14.05.25,0-.48,0,.6-.28.29-.34a6.06,6.06,0,0,1,.67-.05c-.33-.1.39,0,.13-.14a1.06,1.06,0,0,1-.6-.18,1.26,1.26,0,0,0,.19.24,2.5,2.5,0,0,1-.48-.21c0,.08.18.19.11.22a.79.79,0,0,0-.51-.07c.58-.05-.23-.31.18-.39l.85.26h.1a.14.14,0,0,0,0-.1.52.52,0,0,0-.06-.26c-.08-.18-.17-.39,0-.54l-.19.07c-.32-.17,0-.25-.05-.42a1.54,1.54,0,0,0,.59.09c-.2-.07.13-.27-.42-.51l.43,0c.26-.24-.66-.64-.45-.9.26.2.51.14.65.42,0-.09.12-.16-.07-.24.2,0-.27-.41,0-.4-.11-.09-.39-.22-.33-.32a.49.49,0,0,1,.14.06c-.14-.06-.12-.25-.46-.27,1,0,.28-.87,1.13-.83a2.48,2.48,0,0,1,.07-.74c.08.05.14.06.1.09.36-.16-.72-.5-.31-.68.51,0,.17.26.38.24.91.34,0-.42.64-.39l0,.07c.37,0-.18-.53,0-.74l.13.06a1.4,1.4,0,0,1-.38-1.06c.31.23.13.19.51.31,0-.13-.58-.23-.58-.49a1.93,1.93,0,0,1,.84.09l-.07.21c.53.13.11-.26.24-.33l.2.11c.08-.34-.45-.59-.25-.91l-.18,0c-.44-.44.37,0,.06-.38l.56.2a2.9,2.9,0,0,1-.3-.93,3.47,3.47,0,0,1,.57.94.51.51,0,0,0-.08-.61c0,.07.13.19,0,.2-.34-.35-.45-.64-.31-.87,1,.56.57-.47,1.45-.23-.16-.6.58-.72.77-1.22-.87-.26,0-.15-.77-.56,0-.14.05-.17.1-.16l.67-.06c.28.06.12.2.31.3.19-.2.39.09.69,0-.3-.13-.36-.31-.17-.38l-.48,0c-.23-.57.83.1.61-.47l.19.24c-.05-.25.36-.61-.18-1.16.11,0,.35.12.36.23.33-.35-.15-1.32.45-1.38l.17.14c0-.1-.28-.35,0-.32.08,0,.17.15.21.12s-.21-.4,0-.43l.16.22c.5-.23-.14-.92-.06-1.33a1,1,0,0,0,1.11.08l.08.05c.34-.4,0-1.05.11-1.6.77.15.84-.69,1.45-.86-.14,0-.41-.3-.41-.42.17,0-.19-.53.29-.16l0,0c.53.28.53,0,.66-.15l-.62-.49c1.22.3.44-1.27,1.42-.86-.09-.21,0-.32-.08-.54l.33.27a1.25,1.25,0,0,0,.58-.67l.19.26c.16-.16-.79-1-.67-1.17l.54.35c.24-.31.93-.26.73-.93.07.06.2.19.18.26.14-.14.79-.28.08-.79.44.37.3-.27.25-.6l.3.3c-.29-.49-.4-.59-.35-.88.08,0,.29.18.16.17.29,0-.2-.38.13-.41l.14.24c.16-.13,0-.21-.11-.5s.34-.22.64,0c-.15-.18-.31-.47-.14-.48a.41.41,0,0,1,.17.22c.44-.07,0-.71.45-.61a.52.52,0,0,0,.21.14c-.19.2-.36.34-.37.31.29.26.49.14.76.63-.1-.33-.36-1-.08-1a.4.4,0,0,1,.12.07v0c.06,0,.07-.07.05-.14a.37.37,0,0,0,.2-.05c.25.2.3-.07.38-.14-.31-.28-.17-.34-.51-.48,0,0,0,.05,0,.12a.06.06,0,0,0,0,.06l0,0a1.19,1.19,0,0,1-.16.22c-.1-.21-.17-.4.09-.33l-.4-.58c.53.29,1,.3,1.25.52.07-.4.44-.66,0-1.37,0-.14.24.08.35.14s0,.14,0,.24c0-.28.35-.46,0-.88.34,0,.26.46.43.16l.09.15c1.08.18-.26-1.78,1.07-1.45a.29.29,0,0,1-.19-.08c.94-.19.93-1.5,2.06-1.46.28,0,.06-.32,0-.61l.34.3-.16-.54c0-.52,1.18.46,1-.37l-.24-.2c.15-.06.26-.46.47-.17,0,0-.17-.28,0-.19l.16.17,0-.55c.33-.06.56.75.92.51a1.44,1.44,0,0,0-.23-.92c-.06,0-.22,0-.38-.18l0-.2c-.42-.56-.78-1.19-1.37-1.33l.07.5-.28-.21.16-.15c-.3-.17-.18.1-.13.3a.78.78,0,0,0-.32-.21l.23.68c-.2-.19-.26-.5-.48-.5.1.31.48.4.46.68-.3-.16-.44-.39-.38-.08a.57.57,0,0,1-.19-.33c0,.25-.2.29,0,.61-.35-.21-.27.36-.69-.15.07.15.16.55.09.64-.35-.74-.37.26-.89-.42.34.64-.23.62-.18,1.11,0,0-.08-.16,0-.15-.16.07-.34-.06-.51-.09.38.45.29.72.43,1.08-.52-.29-.37-.59-.78-.95.32.34.06.58.38.83a1.47,1.47,0,0,1-.6-.35c.48.56,0,.19.2.61-.41-.12-.51-.47-.54-.14C519.46,239.85,519.45,239.52,519.45,239.52Zm-3.13,4.94h0l.06-.11Zm-.32.36a1,1,0,0,0,.15-.14c.12.08.22.2.18.23S516.14,244.85,516,244.82Zm2.81,1.25c0,.09-.08.06-.15,0a.73.73,0,0,0,.05-.12l0,0A1.55,1.55,0,0,1,518.81,246.07Z"/><path class="cls-20" d="M518.5,245.6a.43.43,0,0,0,0,0l-.09,0,.07.11Z"/><path class="cls-20" d="M500.34,278.12v0l-.1.17Z"/><polygon class="cls-20" points="511.15 249.37 511.23 249.44 511.18 249.35 511.15 249.37"/><path class="cls-20" d="M498.43,282.41l-.3.61Z"/><path class="cls-20" d="M498.06,285l-.37,1.07a.57.57,0,0,0,.12-.11s-.05,0,0-.1Z"/><path class="cls-20" d="M500.55,281.06l.31-.82h0Z"/><path class="cls-20" d="M498.94,273.75v-.05C498.88,273.61,498.89,273.68,498.94,273.75Z"/><path class="cls-20" d="M498.71,278.23a1.94,1.94,0,0,1-.24.16C498.4,278.53,498.37,278.62,498.71,278.23Z"/><polygon class="cls-20" points="500.27 268.26 500.28 268.26 500.29 268.24 500.27 268.26"/><path class="cls-20" d="M498.54,278.15c-.14.22-.14.27-.07.24S498.61,278.12,498.54,278.15Z"/><path class="cls-20" d="M505.83,275.69h0a.14.14,0,0,1,0-.06Z"/><path class="cls-20" d="M505.85,275.63v-.06S505.83,275.59,505.85,275.63Z"/><path class="cls-20" d="M505.9,275.43l0,.14S505.93,275.55,505.9,275.43Z"/><path class="cls-20" d="M504.61,276.15l0,.16A.41.41,0,0,0,504.61,276.15Z"/><path class="cls-20" d="M504.19,276.47c.11,0,.35.17.48,0l0-.13C504.63,276.59,504.22,276.14,504.19,276.47Z"/><path class="cls-20" d="M503,275l.14,0a1.29,1.29,0,0,1,.09-.56C503.16,274,503.18,275,503,275Z"/><path class="cls-20" d="M502.64,275.06a2.7,2.7,0,0,0,.19-.54A2,2,0,0,0,502.64,275.06Z"/><path class="cls-20" d="M500.72,277.17l.73-1.17C501.35,276.12,501.17,276.46,500.72,277.17Z"/><polygon class="cls-20" points="497.62 281.17 497.21 281.86 497.74 281.14 497.62 281.17"/><polygon class="cls-20" points="502.27 274.31 502.36 274.2 502.14 274.45 502.27 274.31"/><path class="cls-20" d="M504.18,268.47l-.45-.15C503.78,268.42,504.27,268.64,504.18,268.47Z"/><path class="cls-20" d="M505.63,264.06c.23.05.42,0,.25-.17C505.81,264,505.6,264,505.63,264.06Z"/><polygon class="cls-20" points="513.42 252.64 513.49 252.81 513.49 252.59 513.42 252.64"/><path class="cls-20" d="M495.49,267.63c-.11.06-.36.23-.3.21l.42-.26Z"/><path class="cls-20" d="M494.78,268.24c.22-.12.58-.33,1-.59l-.74.42c-.05,0,.12-.11.27-.21-.1.07.08-.08-.18.08s-.31.26,0,.12Z"/><path class="cls-20" d="M495,270.09l0,0Z"/><path class="cls-20" d="M495.19,271.12l-.1,0Z"/><path class="cls-20" d="M494.77,271.5l0,0Z"/><path class="cls-20" d="M495,270.09l-.13.09C495,270.11,495,270.11,495,270.09Z"/><path class="cls-20" d="M495.92,267.8l-.12.05h.06Z"/><path class="cls-20" d="M494.41,269.89h0l-.17.09Z"/><path class="cls-20" d="M494.17,269.63s.36-.2.52-.29l-.26.14Z"/><path class="cls-20" d="M494.52,268.78l0,0Z"/><path class="cls-20" d="M494.45,270.14l-.13.08Z"/><path class="cls-20" d="M500,279.21h0Z"/><polygon class="cls-20" points="497.89 279.64 497.87 279.63 497.64 279.63 497.89 279.64"/><path class="cls-20" d="M494.4,272Z"/><path class="cls-20" d="M495.61,274.51c.36-.13.48-.07.87-.23A8.83,8.83,0,0,0,495.61,274.51Z"/><path class="cls-20" d="M495.88,267.83h0S495.9,267.83,495.88,267.83Z"/><path class="cls-20" d="M496.48,274.28h0l0,0Z"/><path class="cls-20" d="M494.9,272.55l.17-.08Z"/><path class="cls-20" d="M495.25,271.83l0,0Z"/><path class="cls-20" d="M495.55,272.59s-.08,0,0,0l.05,0C495.52,272.61,495.49,272.62,495.55,272.59Z"/><path class="cls-20" d="M495.66,272.86l.07,0h0Z"/><path class="cls-20" d="M499.75,278.19l-.38,0C499.67,278.21,499.78,278.25,499.75,278.19Z"/><path class="cls-20" d="M495.72,267.92l.16-.09h0Z"/><path class="cls-20" d="M498.67,271.43l0,.07S498.68,271.44,498.67,271.43Z"/><path class="cls-20" d="M499.43,275.81h0Z"/><path class="cls-20" d="M498.75,271.63l-.27.13.11,0Z"/><path class="cls-20" d="M499.37,278.23Z"/><path class="cls-20" d="M500.38,278.54a3.56,3.56,0,0,0-.86,0c-.16,0,.41,0,.69-.07-.15,0-.66,0-.64-.07a.92.92,0,0,1,.24,0c-.44,0,0-.12-.58-.14h.14l-.76,0s-.35,0,0,0h.09c.52-.05.18,0,.56,0-.17,0-.6-.06-.45-.11.5,0,.17.07.62,0l-.19.07c.8-.09-.05,0,.8-.05.15-.09-.26-.07-.12-.15l-.7,0c-.51-.07,1.27-.16.59-.19-.34,0-1,0-.65,0l.58,0c.05-.08-.83,0-.45-.08.23,0,.19,0,.26,0,.45-.08-.33,0-.33,0l.51-.05c-.09-.07-.46-.12-.56-.19a3.89,3.89,0,0,0,.47,0c-.27-.08,0-.23.33-.36h-.45l.29,0c.16-.06-.28,0-.46,0s.25-.06.39-.06c-.38,0-.83-.1-.37-.23h.13c.18-.08-.9,0-.5-.06h.08c.18-.14-.24-.22.4-.4-.63.07.27-.17-.61,0a6.22,6.22,0,0,0,.86-.28s-.55,0-.65,0l.46-.07-.49,0,.54-.11h-.12a1.41,1.41,0,0,1-.33.08c-.22,0,.3-.17.53-.21l-.4,0a1.81,1.81,0,0,1,.37,0c-.48,0,.47-.09,0-.08a2.46,2.46,0,0,1-.36.06c.27-.07.26-.14.13-.16l.32-.05c.06-.1-.19-.15-.2-.24a3,3,0,0,1-.74.14l.48-.1a4.85,4.85,0,0,1-.55.09,3.3,3.3,0,0,1,.7-.14h-.17l.4-.06c-.3,0,.47-.17-.05-.1l.14,0c0-.09-.19-.1-.23-.17-.41.08-.33,0-.66.08.12-.08.42-.21.37-.27a3.75,3.75,0,0,0-.6.1c.38-.09.33-.15.6-.17-.08-.07-.09-.09-.42-.12a1.89,1.89,0,0,1-.35.1c-.06,0,.15-.08.33-.12h0c-.58,0,1-.53.23-.43h-.39c.05-.06.29-.05.51-.14-.65.07,0-.18-.39-.15,1.08-.36-.14-.2.54-.49l-.26.08c-.26.05.14-.07.19-.1-.2.06-.22.09-.36.12-.36-.1.25-.5.42-.77.05-.1-1.33.38-.75.1l.48-.13c-.6,0-.07-.3-.6-.27a1.75,1.75,0,0,1,.26-.07c.33-.14,0-.11-.3,0a2.25,2.25,0,0,1,.38-.16c.19-.1-.46.08-.12-.05a.51.51,0,0,1,.14,0c-.17,0,0-.1-.38.06.17-.12-.21,0,0-.16-.44.13.18-.17-.44.05.64-.23.48-.28.17-.2.2-.06.19-.1.46-.19,0,0-.16,0-.48.11.73-.36-.66.1.29-.31a4.07,4.07,0,0,1-.83,0c.63-.25.1.08.76-.19-.3,0-.85.18-.74,0a2,2,0,0,1,.39-.14c-.29,0,0-.2-.39-.13a.58.58,0,0,1,.17-.06s.08-.08-.2.05l.08,0a10.73,10.73,0,0,1-1.1.4c.82-.33.17-.17,1.21-.57a2.43,2.43,0,0,0-.39.14,1.6,1.6,0,0,1,.38-.17c-.18,0-.47.17-.48.11l.35-.14c-.27.1-.55.19-.45.09a.94.94,0,0,1,.19-.07c-.08,0-.76.2-.54,0,.6-.24.18-.11.69-.35l-.17,0-.24.14s-.4.09-.25,0l.23-.07-.13,0-.18.13c-.28.09-.64.3-.52.19s0,0,.28-.2h0c-.17.06-.35.12-.23,0l.66-.32c-.43.18-.16,0-.62.16a4.58,4.58,0,0,0,.43-.2l-.35.15a2,2,0,0,1,.37-.19c0-.08-.64.32-.39.13a.72.72,0,0,1,.14-.05c.11-.13-.28,0-.13-.15.49-.27.14,0,.56-.24-.13,0-.69.13-.61,0l-.05,0c-.71.35.32-.24,0-.1a2.16,2.16,0,0,0,.32-.16c.08-.11-.23,0-.5,0l.19-.09c.14-.12.05-.13.11-.21a2.67,2.67,0,0,0-.42.21c1-.66-.64.1.15-.45a.87.87,0,0,0,.17-.07h-.21a4,4,0,0,0-.4.26,1,1,0,0,1-.35.13,3.28,3.28,0,0,0,.64-.38l-.28.16c.51-.34-.61.34-.28.08l.16-.09c-.1,0-.32.13-.28.09a4.2,4.2,0,0,1,.46-.24s-.69.32-.36.09c.1,0,.11,0,.22-.07.39-.26.28-.21.33-.27h0l.16-.16-.11.08c-.92.49-.21,0-.82.32a6,6,0,0,0,.72-.41,1.72,1.72,0,0,1,.32-.23c-.33.16.22-.2-.26.05a1.66,1.66,0,0,1,.32-.22c-.12,0-.22.14-.37.23-.46.21.44-.43-.19-.14-.27.09-.7.34-.94.41a2.92,2.92,0,0,1,.46-.26c.16-.15.12-.15,0-.09a2.35,2.35,0,0,0,.33-.22s-.46.27-.3.12l.51-.29-.5.21a4.37,4.37,0,0,1,.48-.27,1.56,1.56,0,0,0-.59.25l-.11.1a4,4,0,0,1,.36-.23c.28-.14-.1.12-.22.2l-.09,0c-.71.48.16,0,.15.07l-.54.32.46-.24a3.16,3.16,0,0,1-.51.32c-.25.19.2-.1-.08.11l-.09.06.18-.08c-.12.07-.38.24-.31.18-.28.24.45-.17.06.09l0,0a9.89,9.89,0,0,0,.88-.47l-.94.63.4-.24s0,0-.19.14c.28-.13.16-.1.43-.24-.34.24.22,0-.4.37.3-.17.21-.17.44-.26-.67.42.14,0-.15.19a2.34,2.34,0,0,0-.48.27c.6-.33-.1.14,0,.1.47-.28.23-.06.41-.11-.16.09-.22.23-.36.36l-.08,0c.48-.27.41-.18.53-.2a4.28,4.28,0,0,1-.54.27v0a1.36,1.36,0,0,1,.31-.13l-.36.19s.47-.16.25,0a10.81,10.81,0,0,1,1.17-.63c-.18.1-.49.28-.57.31s.16-.07.08,0l-.31.15c-.13.09.26-.13.24-.1l-.39.23s.1-.08,0,0a1.64,1.64,0,0,1-.37.27,2.51,2.51,0,0,1,.39-.19s-.31.18-.43.28a2,2,0,0,0,.4-.18,2.31,2.31,0,0,1-.28.17c.18-.07.1.07.5-.18l0,0h0c.42-.15-.16.25.05.22l-.14.07c.17,0,.14,0,.44-.08a3,3,0,0,1-.39.23c.11,0,.26-.1.07.05s-.2.12-.19.06c-.09.1-.3.21.08.07-.34.16-.41.24-.3.21l.23-.15c.06,0,0,0,0,.06l-.46.21c-.51.34,1-.31.11.19.33-.13.2-.15.58-.31a5.46,5.46,0,0,1-.67.42c-.23.17.68-.27.54-.14a4.13,4.13,0,0,1,.75-.32,3.63,3.63,0,0,1-.79.4s0,0,.08-.06a1.58,1.58,0,0,0-.31.13l.17-.07c-.16.1-.12.14-.39.25a1,1,0,0,0,.35-.17c-.22.15,0,.07-.11.19a1.46,1.46,0,0,1,.27-.13c-.17.16.32-.11.41-.1-.23.14-.59.26-.36.21a2.75,2.75,0,0,1-.57.25c.33-.1-.17.17-.22.22l-.14,0c.08,0,.09,0,.09,0l.32-.16a.56.56,0,0,1-.18.11c.22-.08.53-.25.84-.35-.16.09.2,0-.23.17.12-.12-.43.2-.52.18s.06,0,0,0l-.11,0c-.37.22.5-.19.51-.13-.25.1-.46.21-.4.2a3,3,0,0,1,.6-.25c-.18.12.16,0,.14,0l.08-.06c.25-.1.23-.07.32-.07-.19.08-.15,0-.23.07.45-.15-.41.26-.11.17-.16.09-.46.2-.56.26.33-.09-.32.18,0,.12a2.39,2.39,0,0,1,.58-.22l-.26,0,.5-.15s-.23,0-.18,0a2.58,2.58,0,0,0,.46-.18c-.48.24.32-.06,0,.12l-.82.33c-.35.2.46-.07.28.08l.13-.08c.33-.12.06,0,.21,0-.28.11-.38.17-.54.24.2-.08,0,.06.55-.15l-.35.17c-.13.12.81-.24.74-.14-.31.09-.49.19-.72.24,0,0,0,.05.15,0-.17.08.39-.09.14,0a1.83,1.83,0,0,1,.4-.12l-.14,0a2.58,2.58,0,0,0,.5-.17c-.85.38.12.15-.61.47a.47.47,0,0,1,.25.05c-.08,0-.14.05-.11,0-.24.14.81-.25.54-.09-.44.19-.25.06-.42.14-.91.32.15,0-.37.25h-.06c-.3.13.38-.05.33,0l-.14.05a2.12,2.12,0,0,1,.8-.11,4.43,4.43,0,0,0-.56.17,7.14,7.14,0,0,1,.71-.19c-.2.08-.36.17-.75.3l0,0c-.5.19,0,.05-.05.1l-.22.07c.09,0,.65-.14.63-.06l.17-.06c.57-.14-.3.13.12,0l-.56.19a4.25,4.25,0,0,1,.69-.07c-.42.1-.65.11-.91.16,0,0,.06.07.35,0-.06,0-.2,0-.12,0q.69-.16.69-.09c-1.1.32-.24.21-1.08.49.43,0-.13.21,0,.29.85-.27,0,0,.91-.23.06,0,.05,0,0,0l-.51.21c-.26.08-.21,0-.4.09a4.65,4.65,0,0,1-.6.21c.31-.09.46-.1.34-.05l.4-.14c.49-.06-.73.25-.24.2l-.29.05c.18,0,0,.12.75,0a2.69,2.69,0,0,1-.41.1c-.09.11.81,0,.38.17l-.22,0c.07,0,.42-.07.2,0l-.23.06c.08,0,.4,0,.27,0l-.25,0c-.26.14.63,0,.8,0a3.31,3.31,0,0,0-.94.3l-.09,0c-.06.11.57,0,.84.09-.69.19-.26.24-.64.4a3.47,3.47,0,0,1,.58-.08c-.13,0,.46,0-.14.08h0c-.58.12-.41.13-.43.17l.79-.13c-1.13.28.45.16-.56.38.2,0,.2,0,.4,0l-.42.06c-.1.07-.15.11,0,.17l-.3,0s1.22-.13,1.25-.09l-.62.1c0,.07-.53.21.05.21a1.85,1.85,0,0,1-.3,0s-.41.19.45.07c-.56.07,0,.08.21.09l-.42,0a3.76,3.76,0,0,1,.84,0c-.06,0-.34,0-.23,0-.21.06.4,0,.18,0l-.27,0s.12,0,.43,0-.1.08-.47.13c.23,0,.54,0,.43,0l-.27,0c-.28.09.49.05.08.13l-.24,0c0-.05,0-.09.05-.09a9.1,9.1,0,0,1-1,.1c.29,0,.93,0,.75.06l-.13,0h-.05s0,0,.07,0-.11,0-.12.05c-.31,0-.16.06-.18.08.42,0,.36,0,.7-.06a.08.08,0,0,1-.07,0h0a.1.1,0,0,1,0-.05c.22,0,.4,0,.17.05l.68,0c-.58.08-.9.15-1.26.19a2.22,2.22,0,0,0,1,.12c.11,0-.22,0-.35,0a.82.82,0,0,0-.18,0,1.46,1.46,0,0,0,.64.08c-.24.06-.51,0-.41.06h-.17c-.88.17,1.42.12.29.32l.19,0c-.49.18.49.31-.31.49-.16,0,.2,0,.47.06l-.46,0,.53,0c.38.06-1.11.12-.39.2h.3s.18.09-.17.09c.06,0,.32,0,.16,0h-.24l.41.07c-.17.06-.94,0-1,.07a5.46,5.46,0,0,0,.85.08,1.57,1.57,0,0,1,.39,0l.12,0a13,13,0,0,0,1.9,0l-.42-.05.33,0,0,0c.31,0,0,0-.16-.07a1.64,1.64,0,0,0,.37,0l-.66-.05c.27,0,.54,0,.69,0-.31,0-.61,0-.82,0,.32,0,.58,0,.31-.05a1.74,1.74,0,0,1,.37,0c-.22,0-.09-.07-.46-.09.39,0-.1-.09.56-.09a2.75,2.75,0,0,1-.55-.07c.79,0,.05-.09.89-.09-.71,0-.31-.12-.71-.17h.14c.06,0,.27,0,.4-.07-.58,0-.72,0-1.08-.05.56-.06.69,0,1.23,0-.48,0-.48-.06-.87,0a6.35,6.35,0,0,1,.65-.06c-.73,0-.12,0-.58,0,.36-.06.69,0,.47-.08A2,2,0,0,1,500.38,278.54ZM499,277.43h0l0,0Zm0-.09s0,0,0,0a1.21,1.21,0,0,1-.29,0Zm-2.9.45c-.06,0,0,0,.11,0l.05,0h-.16Z"/><path class="cls-20" d="M496.68,277.77h0Z"/><path class="cls-20" d="M495,270h0l.06,0Z"/><polygon class="cls-20" points="499.65 275.88 499.55 275.9 499.64 275.9 499.65 275.88"/><path class="cls-20" d="M496.05,268.9l.09-.06Z"/><path class="cls-20" d="M496,268.65l.12-.1Z"/><path class="cls-20" d="M496.11,268.4l-.15.09h0Z"/><path class="cls-20" d="M497.84,270.71h0C497.94,270.69,497.91,270.69,497.84,270.71Z"/><path class="cls-20" d="M496.6,270.35l.19-.06S496.82,270.25,496.6,270.35Z"/><polygon class="cls-20" points="498.68 271.42 498.67 271.42 498.67 271.43 498.68 271.42"/><path class="cls-20" d="M496.8,270.33c.07-.05.05-.05,0,0S496.74,270.34,496.8,270.33Z"/><path class="cls-20" d="M495.87,267.64v0l-.06,0Z"/><path class="cls-20" d="M495.82,267.66l0,0Z"/><path class="cls-20" d="M495.68,267.72l.1,0S495.78,267.66,495.68,267.72Z"/><path class="cls-20" d="M495.83,267.94l.13-.08Z"/><path class="cls-20" d="M495.91,268s.25-.21.16-.18l-.11.06C496.16,267.75,495.68,268.1,495.91,268Z"/><path class="cls-20" d="M494.45,269.21l.07-.11a1.63,1.63,0,0,1-.36.22C493.78,269.63,494.47,269.12,494.45,269.21Z"/><path class="cls-20" d="M494.33,269.48c-.08,0-.2.12-.28.16A1,1,0,0,0,494.33,269.48Z"/><path class="cls-20" d="M494.91,270.53l-.34.18A2.38,2.38,0,0,0,494.91,270.53Z"/><polygon class="cls-20" points="496.79 269.86 496.99 269.73 496.67 269.88 496.79 269.86"/><polygon class="cls-20" points="494.4 271.19 494.35 271.21 494.49 271.18 494.4 271.19"/><path class="cls-20" d="M495.29,272.94l.44-.17C495.65,272.79,495.15,273,495.29,272.94Z"/><path class="cls-20" d="M496,273.6c-.22.08-.36.15-.14.09C495.91,273.66,496.08,273.59,496,273.6Z"/><polygon class="cls-20" points="495.87 276.26 495.72 276.27 495.85 276.28 495.87 276.26"/><polygon class="cls-21" points="235.9 91.59 239.64 99.17 248 100.39 241.95 106.29 243.38 114.62 235.9 110.68 228.41 114.62 229.84 106.29 223.79 100.39 232.16 99.17 235.9 91.59"/><text/><text class="cls-10" transform="translate(190.25 238.39) rotate(-90)"><tspan class="cls-11">K</tspan><tspan class="cls-12" x="9.11" y="0">n</tspan><tspan class="cls-13" x="17.94" y="0">o</tspan><tspan x="25.9" y="0">wledge </tspan><tspan x="0" y="15.6">Re</tspan><tspan class="cls-22" x="17.25" y="15.6">t</tspan><tspan x="22.28" y="15.6">ention</tspan></text></svg>