<svg id="Layer_1" data-name="Layer 1" xmlns="http://www.w3.org/2000/svg" viewBox="0 0 800 370"><defs><style>.cls-1{fill:#fff;}.cls-2{font-size:19px;}.cls-2,.cls-20,.cls-23{font-family:Montserrat-Medium, Montserrat;font-weight:500;}.cls-3{letter-spacing:-0.02em;}.cls-4{letter-spacing:-0.01em;}.cls-5{letter-spacing:-0.01em;}.cls-6{letter-spacing:0em;}.cls-7{letter-spacing:0em;}.cls-8{letter-spacing:-0.02em;}.cls-9{letter-spacing:-0.01em;}.cls-10{letter-spacing:0.02em;}.cls-11{font-size:13px;font-family:Montserrat-Regular, Montserrat;}.cls-12{letter-spacing:-0.01em;}.cls-13{letter-spacing:0em;}.cls-14{letter-spacing:-0.02em;}.cls-15{letter-spacing:-0.02em;}.cls-16{letter-spacing:-0.01em;}.cls-17{letter-spacing:0em;}.cls-18{letter-spacing:-0.01em;}.cls-19{letter-spacing:0em;}.cls-20{font-size:12.99px;}.cls-21,.cls-22,.cls-26,.cls-27,.cls-28,.cls-29,.cls-31{fill:none;stroke-miterlimit:10;stroke-width:2px;}.cls-21,.cls-22{stroke:#3f3a37;}.cls-22,.cls-31{stroke-linecap:square;}.cls-23{font-size:12.4px;}.cls-24{letter-spacing:0em;}.cls-25{fill:#3f3a37;}.cls-26,.cls-27,.cls-28{stroke:#2dfefe;}.cls-27{stroke-dasharray:7.44 7.44;}.cls-28{stroke-dasharray:7;}.cls-29,.cls-31{stroke:#86fed4;}.cls-30{fill:#86fed4;}</style></defs><title>Artboard 10</title><rect class="cls-1" width="800" height="369"/><text class="cls-2" transform="translate(252 47.3)">O<tspan class="cls-3" x="15.96" y="0">v</tspan><tspan x="26.3" y="0">e</tspan><tspan class="cls-4" x="37.92" y="0">r</tspan><tspan class="cls-5" x="45.49" y="0">c</tspan><tspan x="56.18" y="0">omi</tspan><tspan class="cls-6" x="93.63" y="0">n</tspan><tspan x="106.63" y="0">g t</tspan><tspan class="cls-7" x="132.71" y="0">h</tspan><tspan x="145.71" y="0">e </tspan><tspan class="cls-8" x="162.45" y="0">F</tspan><tspan x="174.19" y="0">o</tspan><tspan class="cls-4" x="186.26" y="0">r</tspan><tspan x="193.82" y="0">ge</tspan><tspan class="cls-9" x="218.56" y="0">t</tspan><tspan x="226.17" y="0">ti</tspan><tspan class="cls-6" x="239.34" y="0">n</tspan><tspan x="252.34" y="0">g </tspan><tspan class="cls-8" x="270.56" y="0">C</tspan><tspan x="283.97" y="0">u</tspan><tspan class="cls-10" x="296.83" y="0">r</tspan><tspan class="cls-3" x="304.91" y="0">v</tspan><tspan x="315.25" y="0">e</tspan></text><text/><text class="cls-11" transform="translate(216.25 255.39) rotate(-90)"><tspan class="cls-12">K</tspan><tspan class="cls-13" x="9.11" y="0">n</tspan><tspan class="cls-14" x="17.94" y="0">o</tspan><tspan x="25.9" y="0">wledge </tspan><tspan x="0" y="15.6">Re</tspan><tspan class="cls-15" x="17.25" y="15.6">t</tspan><tspan x="22.28" y="15.6">ention</tspan></text><text class="cls-11" transform="translate(410.75 342.39)">D<tspan class="cls-12" x="10.74" y="0">a</tspan><tspan class="cls-16" x="18.28" y="0">y</tspan><tspan x="25.25" y="0">s</tspan></text><text class="cls-11" transform="translate(252.41 88.6)"><tspan class="cls-12">F</tspan><tspan x="8.1" y="0">i</tspan><tspan class="cls-17" x="11.6" y="0">r</tspan><tspan x="16.76" y="0">st l</tspan><tspan class="cls-14" x="35.3" y="0">e</tspan><tspan x="42.95" y="0">a</tspan><tspan class="cls-18" x="50.62" y="0">r</tspan><tspan class="cls-19" x="55.73" y="0">n</tspan><tspan x="64.56" y="0">ed</tspan></text><text class="cls-11" transform="translate(370.57 88.6)">R<tspan class="cls-12" x="9.4" y="0">e</tspan><tspan x="17.12" y="0">vi</tspan><tspan class="cls-12" x="27.66" y="0">e</tspan><tspan class="cls-14" x="35.38" y="0">w</tspan><tspan x="46.62" y="0">ed</tspan></text><text class="cls-20" transform="translate(286.08 319.79)">0</text><text class="cls-20" transform="translate(327.57 319.79)">1</text><text class="cls-20" transform="translate(369.05 319.79)">2</text><text class="cls-20" transform="translate(410.54 319.79)">3</text><text class="cls-20" transform="translate(452.03 319.79)">4</text><text class="cls-20" transform="translate(493.52 319.79)">5</text><line class="cls-21" x1="330.76" y1="297.09" x2="330.76" y2="307.47"/><line class="cls-21" x1="289.41" y1="297.09" x2="289.41" y2="307.47"/><line class="cls-21" x1="278.64" y1="255.69" x2="289.02" y2="255.69"/><line class="cls-21" x1="279.13" y1="297.78" x2="289.52" y2="297.78"/><line class="cls-21" x1="278.64" y1="214.08" x2="289.02" y2="214.08"/><line class="cls-21" x1="278.64" y1="172.48" x2="289.02" y2="172.48"/><line class="cls-22" x1="279.13" y1="130.87" x2="289.52" y2="130.87"/><path class="cls-21" d="M290.79,130.22S288.87,258.89,414,297.8"/><path class="cls-21" d="M330,129.92s-3.94,100.73,251.51,131.19"/><path class="cls-21" d="M398.43,130.74s-4.52,31.08,183.08,58.87"/><path class="cls-21" d="M467.34,130.66s-3.48,3.75,111.73,7.9"/><line class="cls-21" x1="372.34" y1="297.09" x2="372.34" y2="307.47"/><line class="cls-21" x1="455.5" y1="297.09" x2="455.5" y2="307.47"/><line class="cls-21" x1="497.09" y1="297.09" x2="497.09" y2="307.47"/><text class="cls-20" transform="translate(534.87 319.79)">6</text><line class="cls-21" x1="538.67" y1="297.09" x2="538.67" y2="307.47"/><line class="cls-21" x1="413.92" y1="297.09" x2="413.92" y2="307.47"/><text class="cls-23" transform="translate(248.96 260.06)">40%</text><text class="cls-23" transform="translate(248.96 301.58)"><tspan class="cls-24">2</tspan><tspan x="7.08" y="0">0%</tspan></text><text class="cls-23" transform="translate(248.07 218.54)">60%</text><text class="cls-23" transform="translate(248.07 177.03)">80%</text><text class="cls-23" transform="translate(243.58 135.51)">100%</text><polyline class="cls-21" points="574.76 297.8 289.59 297.8 289.63 130.66"/><path class="cls-25" d="M582,297.8a36.24,36.24,0,0,1-10.26-5.7l2.07,5.7-2.07,5.71A36.27,36.27,0,0,1,582,297.8Z"/><line class="cls-26" x1="329.96" y1="138.01" x2="329.96" y2="141.51"/><line class="cls-27" x1="329.96" y1="148.94" x2="329.96" y2="234.45"/><line class="cls-26" x1="329.96" y1="238.16" x2="329.96" y2="241.66"/><line class="cls-28" x1="397.4" y1="130.62" x2="397.4" y2="210.65"/><line class="cls-28" x1="467.3" y1="129.15" x2="467.3" y2="166.84"/><line class="cls-29" x1="289.63" y1="94.22" x2="289.63" y2="107.7"/><polygon class="cls-30" points="284.84 106.3 289.63 114.59 294.41 106.3 284.84 106.3"/><line class="cls-29" x1="398.97" y1="94.22" x2="398.97" y2="107.7"/><polygon class="cls-30" points="394.19 106.3 398.97 114.59 403.76 106.3 394.19 106.3"/><line class="cls-31" x1="467.15" y1="98.21" x2="467.15" y2="107.7"/><polygon class="cls-30" points="462.37 106.3 467.15 114.59 471.94 106.3 462.37 106.3"/><line class="cls-31" x1="330.8" y1="98.21" x2="330.8" y2="107.7"/><polygon class="cls-30" points="326.01 106.3 330.8 114.59 335.58 106.3 326.01 106.3"/><line class="cls-29" x1="330.8" y1="98.21" x2="467.15" y2="98.21"/></svg>