<svg xmlns="http://www.w3.org/2000/svg" viewBox="0 0 510 305"><defs><style>.cls-1{fill:#86fed4;opacity:0.5;}.cls-11,.cls-2,.cls-3,.cls-4,.cls-5,.cls-6,.cls-7,.cls-8{fill:none;stroke:#3f3a37;stroke-miterlimit:10;}.cls-2,.cls-3,.cls-4,.cls-5,.cls-6,.cls-7,.cls-8{stroke-width:2px;}.cls-3{stroke-dasharray:5.01 5.01;}.cls-4{stroke-dasharray:4.97 4.97;}.cls-5{stroke-dasharray:4.91 4.91;}.cls-6{stroke-dasharray:5.22 5.22;}.cls-7{stroke-dasharray:4.84 4.84;}.cls-8{stroke-dasharray:5.04 5.04;}.cls-9{fill:#fff;}.cls-10{fill:#575350;}.cls-11{stroke-width:3px;}.cls-12{fill:#3f3a37;}</style></defs><title>Asset 12</title><g id="Layer_2" data-name="Layer 2"><g id="Layer_1-2" data-name="Layer 1"><rect class="cls-1" x="1" y="2.41" width="509" height="302.04"/><line class="cls-2" y1="76.13" x2="2.5" y2="76.13"/><line class="cls-3" x1="7.51" y1="76.13" x2="255.74" y2="76.13"/><line class="cls-2" x1="258.25" y1="76.13" x2="260.75" y2="76.13"/><line class="cls-2" x1="224.09" y1="82.37" x2="224.09" y2="84.87"/><line class="cls-4" x1="224.09" y1="89.83" x2="224.09" y2="146.94"/><line class="cls-2" x1="224.09" y1="149.42" x2="224.09" y2="151.92"/><line class="cls-2" x1="439.67" x2="439.67" y2="2.5"/><line class="cls-5" x1="439.67" y1="7.41" x2="439.67" y2="221.18"/><line class="cls-2" x1="439.67" y1="223.64" x2="439.67" y2="226.14"/><line class="cls-2" x1="182.09" x2="182.09" y2="2.5"/><line class="cls-6" x1="182.09" y1="7.72" x2="182.09" y2="46.87"/><line class="cls-2" x1="182.09" y1="49.48" x2="182.09" y2="51.98"/><line class="cls-2" x1="234.8" y1="266.1" x2="234.8" y2="268.6"/><line class="cls-7" x1="234.8" y1="273.44" x2="234.8" y2="300.08"/><line class="cls-2" x1="234.8" y1="302.5" x2="234.8" y2="305"/><line class="cls-2" x1="509" y1="255.62" x2="506.5" y2="255.62"/><line class="cls-8" x1="501.47" y1="255.62" x2="262.25" y2="255.62"/><line class="cls-2" x1="259.73" y1="255.62" x2="257.23" y2="255.62"/><path class="cls-9" d="M150.43,249.22c-5.41,0-10.82,0-16.23,0a6.47,6.47,0,0,1-5.39-2.62c-2.83-3.55-5.71-7.06-8.57-10.58s-5.93-7.29-8.89-10.93c-.92-1.15-1.83-2.31-2.78-3.43a5.85,5.85,0,0,1-1.29-5.47q3.19-13.61,6.34-27.22c.36-1.52.69-3,1.07-4.55a5.48,5.48,0,0,1,3.08-3.76l14.76-7,15.21-7.2a6.12,6.12,0,0,1,5.53,0L179.74,179c1,.46,1.94.95,2.94,1.37a6.29,6.29,0,0,1,3.82,4.77c1.55,6.87,3.17,13.72,4.77,20.58.82,3.51,1.62,7,2.46,10.53a6.19,6.19,0,0,1-1.55,5.72c-3,3.65-6,7.35-9,11l-9.32,11.46-2,2.51a5.76,5.76,0,0,1-4.63,2.22C161.62,249.24,156,249.22,150.43,249.22Z"/><path class="cls-9" d="M149.12,183.56a30.41,30.41,0,0,0-.43-3.89,2.62,2.62,0,0,1,.49-2.33,1.75,1.75,0,0,1,3,.53,4,4,0,0,1,.06,2.34,19.11,19.11,0,0,0-.33,3.69,1.07,1.07,0,0,0,.18.7,1.83,1.83,0,0,1,.49,1.06c0,.22.26.22.44.24a23.54,23.54,0,0,1,11.66,4.6,27.9,27.9,0,0,1,2.54,2.19c.23.23.41.29.67.06a.64.64,0,0,1,.49-.22,2.23,2.23,0,0,0,1.86-.86c.73-.68,1.44-1.37,2.11-2.12A3.86,3.86,0,0,1,174,188.3a1.84,1.84,0,0,1,2.14.67,1.91,1.91,0,0,1-.23,2.22,5.94,5.94,0,0,1-1.71,1.24,20.12,20.12,0,0,0-2.87,1.86,1.28,1.28,0,0,0-.62,1c0,.27-.2.41-.37.55a.39.39,0,0,0-.08.62,22.88,22.88,0,0,1,3.37,8.43,23.28,23.28,0,0,1,.22,6.92c0,.3,0,.44.32.49s.3.06.37.18c.57.89,1.54.86,2.42,1,1.17.21,2.37.14,3.54.37a2.44,2.44,0,0,1,1.27.61,1.7,1.7,0,0,1,.51,1.88,2,2,0,0,1-1.69,1.18,4.6,4.6,0,0,1-1.93-.42,21.5,21.5,0,0,0-3.5-1.18,1.64,1.64,0,0,0-1.3.15.54.54,0,0,1-.44.08c-.44-.13-.58.1-.71.47a23.14,23.14,0,0,1-6.45,9.65,20.23,20.23,0,0,1-3.29,2.45c-.33.2-.5.39-.3.77a.51.51,0,0,1,0,.4,1.88,1.88,0,0,0,.25,1.58,25.84,25.84,0,0,0,1.83,2.91,4.44,4.44,0,0,1,.81,1.59,1.85,1.85,0,0,1-1.08,2.19,2,2,0,0,1-2.28-.86,7.23,7.23,0,0,1-.72-1.78,20.46,20.46,0,0,0-1.21-3.22,1.37,1.37,0,0,0-.86-.79.59.59,0,0,1-.4-.35c-.13-.37-.35-.36-.68-.24a22,22,0,0,1-6.1,1.26,23.26,23.26,0,0,1-9.4-1.22,3.59,3.59,0,0,1-.35-.12c-.24-.11-.42-.07-.52.18a.91.91,0,0,1-.64.55,1.15,1.15,0,0,0-.62.59,18.92,18.92,0,0,0-1.3,3.43,4.82,4.82,0,0,1-1,2.05,1.79,1.79,0,0,1-3-1.83,5.29,5.29,0,0,1,.83-1.53,20.55,20.55,0,0,0,1.91-3.14,1.29,1.29,0,0,0,.12-1.1.73.73,0,0,1,.05-.66c.2-.34,0-.5-.25-.68a23.43,23.43,0,0,1-4.66-3.76,22.69,22.69,0,0,1-5.1-8.22c-.15-.41-.29-.7-.8-.51a.42.42,0,0,1-.36-.07,1.84,1.84,0,0,0-1.6-.12,23.64,23.64,0,0,0-3.2,1.09,4.21,4.21,0,0,1-2.15.42,1.8,1.8,0,0,1-1.58-1.35,1.77,1.77,0,0,1,.75-1.84,3.9,3.9,0,0,1,2.11-.58,23.86,23.86,0,0,0,3.76-.47,1.46,1.46,0,0,0,1-.62.86.86,0,0,1,.6-.38c.26-.06.33-.2.29-.47a22.83,22.83,0,0,1,3.45-15.29c.21-.32.3-.56-.09-.78a.47.47,0,0,1-.23-.38,1.88,1.88,0,0,0-1-1.34,22.16,22.16,0,0,0-2.82-1.76,4.28,4.28,0,0,1-1.6-1.29,1.83,1.83,0,0,1,.07-2.22,1.86,1.86,0,0,1,2.17-.41A5.92,5.92,0,0,1,129,190a16.66,16.66,0,0,0,2.46,2.29,1.24,1.24,0,0,0,1,.29c.27-.06.44.1.62.23a.34.34,0,0,0,.52-.05A23.05,23.05,0,0,1,147.08,186a5.21,5.21,0,0,1,.55-.08c.47,0,.91,0,.89-.69a.33.33,0,0,1,.09-.21A1.75,1.75,0,0,0,149.12,183.56Z"/><path class="cls-9" d="M156.9,215.27a1.55,1.55,0,0,1,1.77-1.5c2.59.41,5.18.84,7.77,1.27a11.62,11.62,0,0,0,1.18.2c.49,0,.45.24.31.58a19.38,19.38,0,0,1-2.51,4.43,18.86,18.86,0,0,1-4.39,4.11c-.28.19-.41.21-.56-.15-1.08-2.63-2.19-5.25-3.29-7.88A2.78,2.78,0,0,1,156.9,215.27Z"/><path class="cls-9" d="M148.17,191.22c-.15,2.44-.3,4.83-.44,7.22a11.9,11.9,0,0,1-.12,1.69,1.53,1.53,0,0,1-2.39,1.09c-.87-.52-1.68-1.14-2.51-1.72-1.63-1.14-3.25-2.28-4.89-3.41-.32-.23-.41-.35-.06-.67a18.73,18.73,0,0,1,10-4.71C148.3,190.63,148.14,191,148.17,191.22Z"/><path class="cls-9" d="M131.78,209a18.9,18.9,0,0,1,2.5-9.24c.17-.29.29-.33.55-.1,1.67,1.48,3.35,2.95,5,4.43a16,16,0,0,1,1.86,1.72,1.49,1.49,0,0,1-.68,2.48c-1,.36-2,.61-3,.9l-5.6,1.61c-.5.14-.53.11-.55-.39S131.8,209.33,131.78,209Z"/><path class="cls-9" d="M169.24,209.17c0,.41-.09.83-.09,1.24s-.11.44-.46.34c-1.74-.51-3.47-1-5.21-1.49l-3-.87a5,5,0,0,1-.65-.23,1.5,1.5,0,0,1-.5-2.45c.79-.86,1.72-1.57,2.59-2.36,1.38-1.25,2.79-2.46,4.17-3.7.27-.25.4-.28.6.07a18.35,18.35,0,0,1,2.49,8.4A9.3,9.3,0,0,1,169.24,209.17Z"/><path class="cls-9" d="M150.47,227.56a20.71,20.71,0,0,1-5.52-.87c-.35-.11-.35-.24-.19-.51,1.45-2.58,2.88-5.17,4.34-7.74a1.57,1.57,0,0,1,2.86.08c.52.84,1,1.73,1.47,2.6.94,1.67,1.86,3.34,2.82,5,.21.36.12.5-.26.6a18.75,18.75,0,0,1-4.64.76A8.47,8.47,0,0,0,150.47,227.56Z"/><path class="cls-9" d="M142.3,213.81c1.3,0,2,.87,1.7,2a37.33,37.33,0,0,1-1.42,3.54c-.65,1.6-1.34,3.18-2,4.78-.15.37-.28.42-.62.19a18.51,18.51,0,0,1-6.82-8.43c-.2-.51-.19-.51.35-.6l8.44-1.43A2.2,2.2,0,0,1,142.3,213.81Z"/><path class="cls-9" d="M152.82,191.35c0-.67,0-.7.56-.61a19,19,0,0,1,9.16,4.13c.23.19.44.43.68.61s.24.36,0,.55l-3.93,2.75c-1.07.75-2.13,1.52-3.22,2.25a1.65,1.65,0,0,1-2.39-.21,2.54,2.54,0,0,1-.36-1.44c-.11-1.92-.16-3.84-.31-5.76A14.26,14.26,0,0,0,152.82,191.35Z"/><polygon class="cls-9" points="149.34 206.52 147.88 208.33 148.4 210.59 150.51 211.59 152.62 210.59 153.14 208.33 151.68 206.52 149.34 206.52"/><polygon class="cls-10" points="175 164.75 176.19 164.69 176.33 163.8 175 164.75"/><path class="cls-10" d="M180.66,166.57c.57-.19,1.16-.3,1.75-.45a10.62,10.62,0,0,1-.64-1.92c-.17-.33-.53-.61-2.21-1.27a9.55,9.55,0,0,0-2,1.2c-.6.52-1,1.06-.71,1.47a7.57,7.57,0,0,0,1.19-.79,2.54,2.54,0,0,1,1.58-.47c-.38.75-1.57.84-1.89,1.86.9.16,1.13,0,1.39-.24a1.58,1.58,0,0,1,1.5-.48Z"/><path class="cls-10" d="M182.72,164.09a2.76,2.76,0,0,0-.31,1.16C182.57,164.83,183.52,164.34,182.72,164.09Z"/><path class="cls-10" d="M183.91,163.86c1.23.16-.06.87.07,1,.47-.48,1-1,1.49-1.44Z"/><path class="cls-10" d="M189,164.6a3.85,3.85,0,0,0,.59,0C189.45,164.31,189.23,164.47,189,164.6Z"/><path class="cls-10" d="M191.48,165.05c-.34-.63-1-.53-1.9-.46a.54.54,0,0,1,.06.11c.58.59-.33,1.51-1.32,1-1.16.06-.9-1-2-.44.41.33.81.71,1.19,1.08C189.24,166.49,190.63,165.27,191.48,165.05Z"/><path class="cls-10" d="M189,164.6a3.91,3.91,0,0,1-.67-.07A.51.51,0,0,0,189,164.6Z"/><polygon class="cls-10" points="186.47 164.04 185.81 164.19 185.91 164.67 186.47 164.04"/><path class="cls-10" d="M195.46,166.5c-.45.62-1.09.26-1.76-.09s-1.34-.73-1.68-.22a2.86,2.86,0,0,1,1.66,1.26,1.11,1.11,0,0,1,0,1.36c.58.08,1.15.18,1.72.31C196.15,168.88,196,167.56,195.46,166.5Z"/><path class="cls-10" d="M196.61,171.43a.73.73,0,0,1,.46,0A.55.55,0,0,0,196.61,171.43Z"/><path class="cls-10" d="M204.72,175.18a29.51,29.51,0,0,0-3.89-1.88c.6-.11.8-.55,1.6,0-1.19-1.41-2-.82-3.05-1.84.24-.69.78-.3,1.26.07s.89.78,1,0c-.82-.7-2.2-1.63-3.55-1.11-.29-.56-.58-1.14-.91-1.68-.09.53-.19,1.06-.3,1.58.29.72,1.78-.28,1.51.84-.22.66-.81.37-1.27.27,1,.32,1.54,2.51,3.07,3.7C201.76,176.48,203.15,174.5,204.72,175.18Z"/><polygon class="cls-10" points="203.55 176.38 203.24 176.95 203.75 176.3 203.55 176.38"/><path class="cls-10" d="M207.75,178.83c-.65-.46-1.33-.88-2-1.28a1.86,1.86,0,0,1,.28-.84c-.23.28-1,.18-1.23.43-.52,1.55,1.83,1.81,2.65,2.71.95,2.93-.7.25-1.26,1.9-.38-.71-.08-.92-.62-1.92a3.22,3.22,0,0,0,.88,2.71c.61.71,1.38,1.29,1.78,1.74,0-.36.35-.62,0-1.15l.92.92C209.6,182.46,209.42,181.24,207.75,178.83Z"/><path class="cls-10" d="M205.48,175.64c.6.56.68.89.57,1.05C206.22,176.31,206.28,175.9,205.48,175.64Z"/><path class="cls-10" d="M208.53,184.84c0-.15-.08-.34-.29-.56A.91.91,0,0,0,208.53,184.84Z"/><path class="cls-10" d="M209.54,183.08c.17.48.33,1,.48,1.45l.37-.81C210.23,183.56,209.83,182.9,209.54,183.08Z"/><path class="cls-10" d="M195.33,235.21c.49.3,1.08.09,1.81-.83.45.61-.71,1.61-.91,2.43,1.44-.79.61.63,1.4.86,1.3-1.24,1.14-2.47,2.52-3.77a.74.74,0,0,0,.72.38c.61-1,1.3-2.43,2.14-3.71a14.52,14.52,0,0,1,2.5-3.34,14.92,14.92,0,0,0,2.67-5.48,40.19,40.19,0,0,0,4.11-11,71.58,71.58,0,0,0,1.56-12.13c-.5-.38-1-.74-1.51-1.09.35-.22.34-.7.33-1.11s0-.73.48-.66c-.13.46.08.87.11,1.41.62-.93.39-2.11.14-3.31a15.11,15.11,0,0,1-.79-3.47c-.19.3-1.34.9-1.71.36,1.59-.23-.62-2.33.93-3.45-.26-2.16-1.37.37-1.83-1.76-1,.13.24,2.1-.32,2.67-1-.37-.32-1.89-1.23-1.46a19.91,19.91,0,0,0,.94,2.79c.21.52.44,1.07.7,1.63l.7,1.81c.13.31.25.62.38.94s.21.65.31,1c.21.66.45,1.34.62,2a23.93,23.93,0,0,1,.7,4.1l-.88-.58a12.69,12.69,0,0,1,.28,2.28,18.18,18.18,0,0,1-.19,2.53,13.45,13.45,0,0,1-.72,2.35,5.29,5.29,0,0,1-1.21,1.74c.46-.15.18.79-.06,1.75s-.38,2,.6,2.07a4.55,4.55,0,0,0-1.09,1.61l.5.46c-.49,1.32-1.27.78-1.83,2.25,1.18-.64,1,.51,1.41,1.23-.77.69-1.6,1.41-2.4,2.09a26.23,26.23,0,0,1-2.3,1.83,2,2,0,0,0,1.22-.27c-.8.82,0,1,.1,1.44-.49,1-1.36.31-1.81,0a3.33,3.33,0,0,0-.66,2.3c0,.75,0,1.44-.77,1.84l1,.06a9.62,9.62,0,0,1-1.92,2.23,10.52,10.52,0,0,0-2.08,2.29c-.81,0-.67-.47-.38-1.13a10.42,10.42,0,0,0,.91-2c-.47.2-1.11.9-1.59.89a25.19,25.19,0,0,1-.91,4.11c-.14-.89-.64-.77-1.22-.41A14,14,0,0,0,195.33,235.21Z"/><path class="cls-10" d="M198.94,230.27a4.3,4.3,0,0,0,0-.78,1.21,1.21,0,0,1-.37.62A.43.43,0,0,0,198.94,230.27Z"/><path class="cls-10" d="M195.33,235.21s-.09,0-.13-.06C195.1,235.37,195.18,235.34,195.33,235.21Z"/><path class="cls-10" d="M205.73,227c-.07,0-.14.15-.22.21s-.14.2-.23.3Z"/><path class="cls-10" d="M203.31,223.57a11,11,0,0,0,1.6-1C204.48,222.56,204.15,222.55,203.31,223.57Z"/><path class="cls-10" d="M209.39,211.92c0-.43-.35-.27-.53-.62C208.59,212.08,208.78,212.44,209.39,211.92Z"/><path class="cls-10" d="M197.23,232c-.3.47-.58,1-.9,1.42l-.26.59C196.49,233.31,196.86,232.62,197.23,232Z"/><path class="cls-10" d="M172,255.85c1.84.23,3.63-1.34,5.4-2.1,2.83-2.16-.69-2.16,2.1-3.91L180,252c2.81-1.76,7.08-4.07,8.18-7.28.35.06,1,0,.51.72,1.73-1.4-.94-3.07,1.75-4.32-1.28,2.71,1.49.41,1.75,1.87l-.24.39c1.37-1.32,2.76-3.48,3.69-4.28-.34-.42-1.67-.3-.55-1.46-.55.37-.78-.25-1.11-.68-.78,1.59-1.71,1.91-2,3.1-1.16.08.32-.58-.84-.5l-.58,1.38c-.87.48.33-1.18-1-.34.13.42-.56,1.55-1.56,2.24l.13-.41c-.56.79-1.82,1.26-.76,2l-1.56-.29.62.53a9.34,9.34,0,0,1-3.16.87,5.23,5.23,0,0,0-3.11,1.87c.79-.21.42.53.15.89,1.44-.27,1.09-1.41,2.11-2.19.61.56-.74,2.55.85,2.1-2,.13-2.72,1.88-4.38.53-1.83,1-2.05,2.18-4.14,2.77l-.08-.29c.28,1.36-1.78.26-2.58,2.17l1.14-.24c.19.5-.28.77-.93,1.2,0-.23,0-.23-.35-.35.23,1-1.91,2.12-2.07,2.51,1-.29,1.81-1.5,2.75-2.26C172.41,254.91,172.93,255.57,172,255.85Z"/><path class="cls-10" d="M188.44,241.6l-.23.78A1.12,1.12,0,0,0,188.44,241.6Z"/><path class="cls-10" d="M162.48,258.09c-1.32.29.05-.88-1.26-.84-1.05,1.09,1.94.73,1,2.12-1-.26-1.9,1.12-2.42,1.33.39-.74-.37-1.81-.68-2-.36.52-1.67.28-2.51.52,2.3.08-1.58,1,.55,1.23.1.75-1.7,1.94-2.68,1.61-.1-.54.58-.62,1.1-.81.13-1.1-1.48-.13-2.05-.93-1.53,2-8.05,3.52-5.67,5.28.82.27,1.28-.42,2-.72-2.23.13-.32-1.17-.25-1.61,1,.12,2.33-1,2.2-.11l-1.2,1.2A62.6,62.6,0,0,0,166.44,259c-.73.29-1.47.55-2.21.83,0-.68,1.05-1.11,1.73-1.72l-1.62-1c.66-.13,1.16-.59,1.32-.07.5-.91,0-1.12-.64-1.41,1.47-.92,2-.48,2.77-1.91-3.08,0-1.78,1.93-5.21,2.1Z"/><path class="cls-10" d="M168,254.94l-.33,1c.28-.26.56-.5.82-.77Z"/><path class="cls-10" d="M168.29,258.42c-.16-.29.17-.6,0-.89C167,257.87,167.29,258.23,168.29,258.42Z"/><path class="cls-10" d="M151.85,260.79c-.52.25-1.06.47-1.59.71h1.16C151.31,261.17,151.67,260.93,151.85,260.79Z"/><path class="cls-10" d="M140.82,267.43a28.27,28.27,0,0,0,2.89-1A9.15,9.15,0,0,1,147,266c1.09-1.28-1-1.66-.68-2.67-1.36.1-.82,1.71-2.15,2.31-.69-.73-2,.63-3.36.67A.91.91,0,0,1,140.82,267.43Z"/><path class="cls-10" d="M132.05,265.49c-1.09.13-2.12.92-3,.59.07-.55.69-.8,1.37-.73-.56-1.16-1.19.3-2.45-.39.12.12.56.29.26.58-2.95,0-1.58,1.14-5.45.71-.54.35-1.09.37-1,1.17-2.22-.95-1.13-.93-3.75-1.79.1.47,1,1.54,1,2.55-3.75-1.37-3.83.23-6.2-.88a2.06,2.06,0,0,1,1.23-.15c-.28-1.43-2,.24-3.31-.12l.18-1.2c-1.2.15-3.35.83-4.8-.19l.39-.58c-3.14.69-6.69-.14-9.32-.14l-1.25-1c-1.84.1-1,.38,0,.79s2,.91.58,1.56c0-2.25-2,.4-3.88-1-.75-1.07,2.15,0,1.31-1.21-.69,1-1.14.09-2.27.14.49-1-2.16-.73-1.19-1.72-1.38.29-2.79.53-4.24.7-.37-.79-1.43-1.11-2.24-1.31,1.92.84-1.21,1.24.84,2.63,1.76.44,4.06,1,6.45,1.48s4.89,1,7,1.63c.68-1.37,2.77.41,3.6-.73.05.48.33.92.38,1.4,2.82,0-.57-.88.17-1.34,1.23-.06,2.12.92,2,1.44,2,.24.26-.38,1.35-1.09l1.18,1.71c3.16,0,6.82-.27,10.55-.54s7.56-.5,11.15-.4l-.63-.95a8.39,8.39,0,0,0,4.14-1.1,4.18,4.18,0,0,1,4,0l.82-1c-.44.57.79,1.42.07,2.23.81-.46,1.8-.26,2.64-.73L138,266.4a1.81,1.81,0,0,1,2.78-.07c2.16-1.43-1.74-1.47-2.38-2.22a2.54,2.54,0,0,1-3.3.41,3.52,3.52,0,0,0-3.3-.49C129.9,264.86,132.1,264.94,132.05,265.49Z"/><path class="cls-10" d="M136.56,267.66a2.19,2.19,0,0,0,.45-.34A1.57,1.57,0,0,0,136.56,267.66Z"/><path class="cls-10" d="M84,261.94c-.22-.1-.5-.2-.86-.34C82.73,261.68,83.25,261.77,84,261.94Z"/><path class="cls-10" d="M140.77,266.34h0l0,0Z"/><polygon class="cls-10" points="141.87 263.6 140.99 263.75 141.23 264.17 141.87 263.6"/><path class="cls-10" d="M77.21,256l-.38.37A.58.58,0,0,0,77.21,256Z"/><path class="cls-10" d="M73,234.14c0,.17-.11.34-.16.51A.79.79,0,0,0,73,234.14Z"/><path class="cls-10" d="M103.31,182.34c.91-1.43,2.34-3.13,2.67-4.62l.26.48c.44-.82,2.16-3.32.09-2.83l0,.64c-1.08,2-1.74.39-3.23,1.29-1.36,1.56-.72,3.86-2.33,4.76-.5.6-.8.14-.93-.3-1.35,1.21-.69,2.79-1.37,3.81-1.67-1.18-2.38.07-3.1,1.62s-1.39,3.45-3.24,3.69c-.41.75-1,1.54-1.56,2.4a9.25,9.25,0,0,0-1.43,2.92c-.17-1.51-1.22,1.6-1.88.57.78.91-.31,2-1.28,3.19s-1.88,2.35-.71,3.3c-2.22,2,.1.19-2.23,2.67-.28-.17,0-.65.07-.87-1.21.82.06,2.39-1.66,2.65-1.54,2.19.46.78.37,2.55-1.64,2.24-1.62,1.36-3.43,2.13,1.12.89-.25,2-.24,3.56.22-.27,1.35-1.8,1.24-.46-1.69,2.72-.35,2.7-1.37,5.52-2.06.65,1.3-2.68-1-.89.22-2,.92-3.27.4-4.69a27.4,27.4,0,0,0-3,8c-.83,1.33-.34-1-1,0-1.76,2.32-.18,4.54-1.53,6.38l-.61-.7c.31.83-.19,2-.64,3.26a11.29,11.29,0,0,0-1,4.12c.45-.26.77-.41,1,0-1-.21-.86.75-.71,2a19.71,19.71,0,0,1,.24,2,4.35,4.35,0,0,1-.43,2c.64-.1,1.14.44,1.51,1.16a8.48,8.48,0,0,1,.89,2.27c-.24.54-.78.54-1.11.59a3.45,3.45,0,0,0-.12-1.41,2.36,2.36,0,0,0-.68-.86,3.84,3.84,0,0,1-1.56-2c.54,1.69.34,4.63,1.59,5.87l-1.1-.34a2.86,2.86,0,0,0,.22.76,2.46,2.46,0,0,0,.4.52,4.25,4.25,0,0,0,.92.62,2,2,0,0,1,.77.64,2.25,2.25,0,0,1,.42,1.32l-.76.09A38.41,38.41,0,0,0,73,255.09a24.92,24.92,0,0,0,2.46,3.15,10.57,10.57,0,0,0,6.18,3.42c.56-.39-.4-2.56-.2-3-2.08-.68-3.72-.66-5.38-1.49l.82-.81a3.26,3.26,0,0,1-1.57-.17c-.49-.14-.85-.16-.7.52a1.08,1.08,0,0,1-.69-1.16c0-.4-.06-.74-.77-1.26,1.05-.54,1.73.11,2.54-.51l-.65-.33-.6-.39c.61.09-.07-.88.54-.8a2.68,2.68,0,0,1-1.64-2.34c-.09-.42,0-.89-.12-1.35a6.39,6.39,0,0,0-.53-1.51,8,8,0,0,0,.17,1.38c-.63.19-.88-.59-1.15-1.16a2.24,2.24,0,0,0,.59-1.13c0-.18,0-.37.06-.61s.08-.51.15-.83a15.6,15.6,0,0,0-1.19-1.39,2.93,2.93,0,0,1-.68-1.86c1.23.37.84-2.6,2-2.75-.6-.24-.6-1-.54-1.76s.28-1.47-.06-1.66c-.1-.9.38-2,1-1.82a5.06,5.06,0,0,1,0,.67l.27-.8c.12.11.23.11.23.21.23-.7-.68-1,.22-1.74.32.11.15.61.17,1.06A6,6,0,0,0,74,230a2.38,2.38,0,0,1,.83-2.37c-.44-.53.44-2.76-1-2.81.68-.43,1.57.24,2.12-1.44-.63-1.4,1.22-1.59,1.13-3.11.3,2.12.29.16.65,2,.92-.85.36-3.12,1.51-4.89.33-.07.63.09,1,0,0-.86-.4-2.09.79-2.32l-.76-.29c1-1.07,1.78-2.92,3.28-3.82-.16-.77-.29-1.53-.44-2.31,2.6-1.25,3-4.71,2.89-7.08.55-.71,1.5-1.67,1.78-1.47,0,.23,0,.65-.05,1.1.75-1.06,2.35-1.86,1.72-3.18.44-1.31,1.28-.29,2-1,0-1.61,1.5-3,2.73-4.25s2.25-2.34,1.45-3.53c-.68.85-2.46,2.13-3.62,3.9.06-.65-.63-.62-.2-1.29,1.23-1.75,2.67-2,3.69-3.9l1.18,1.31c1.84-.79,2.47-2.48,3.22-4a8.26,8.26,0,0,1,1.25-2.07A3.1,3.1,0,0,1,103.31,182.34Z"/><path class="cls-10" d="M86.7,203.3l1.56-.8-.71-.27A1.79,1.79,0,0,1,86.7,203.3Z"/><path class="cls-10" d="M87.55,202.23a4.9,4.9,0,0,0,.19-.94,1.78,1.78,0,0,0-.38.87Z"/><path class="cls-10" d="M107.5,178a3.44,3.44,0,0,0,1.27-1.06C108.3,177,107.58,177.55,107.5,178Z"/><polygon class="cls-10" points="108.51 176.43 107.74 176.71 107.79 176.94 108.51 176.43"/><path class="cls-10" d="M148,155.77c.76-.5,1.51-1.05,2.29-1.5.52.47,3.25-.57,2.46.48,1.32-1.53,4.73-.51,3.34-2.24-1.86.27-3.87.66-6,1-1.06.16-2.14.41-3.24.61s-2.23.42-3.33.73a41.17,41.17,0,0,0-12.62,5.08c.33-.4.65-.82,1-1.19a10.16,10.16,0,0,1-4.74,2.12,5,5,0,0,0-3.54,3l-.25-1.52c-1,.28-1.62,1.26-2.29,2.07a3.09,3.09,0,0,1-2.72,1.41l.49.41c-.48.3-.81.19-1.3.48l.34.11a5.59,5.59,0,0,1-3.16,2.21c-.35-.33.45-.55.75-.92-.82,0-1.2,1.48-2.13,2.12-1,.18-.38-.55-.4-.79a20,20,0,0,1-3.22,2.51,3.93,3.93,0,0,0-1.79,3c.08.46,1.14,0,.34.95,2.1-.93,3-2.65,4.23-4.38l-.44.35c0-2.72,1.27-.34,2.84-2.6-.06,1.11-1,1.74-1.08,2.38a4.08,4.08,0,0,0,3-1.79,2.24,2.24,0,0,1,2.6-1l-.14.17c.47-.05.92-.8,1.38-1.33-.32-.12-1,.12-1.43.18.46-.53.28-1.52.27-2,1.14.41.66-.91,2-1.1.81.55-.5,1.19-.66,1.82l1-1.23c1.15-.71,1.61.19,2.4.29.68-1.14-.79-.1-.43-1.37.89.14,2.67-.5,4.51-1.45a32.61,32.61,0,0,0,5.08-2.92c-.9.47,0,1-1.18,1.3.47,0,1.78-.94,1.56-1.58a8.3,8.3,0,0,1,3-1.34,15.1,15.1,0,0,1,3.26-.3l-.72-.49c.6-.78,1.64-.88,2.84-.89a9.24,9.24,0,0,0,3.85-.65h-.06c.86-.31,1.31-2.07,3-2.07C148.65,154.88,147.75,155,148,155.77Z"/><path class="cls-10" d="M157.73,152.93l-.86,1c1,.12,2.23-1.18,2-1.77-.69.26-1.63-.08-1.71.47C157.26,152.76,157.27,153.09,157.73,152.93Z"/><path class="cls-10" d="M177,153.92c.42-.15.39-.51.61-.74-4.14-.69-9.24-.86-10.86-1.57-1.39-.32-1.7,1-3.42,1.35l-.79-.93c-.93.62-3.84-.33-2.76,1.19.11.13.79-.75,1.6-.5l-.12.54,1.83-.23-.58.68a1.73,1.73,0,0,0,2.2-.55,2.4,2.4,0,0,1,2.68-.71l-.1,1.34c1,.05,1.79.07,2.53.14a5.09,5.09,0,0,1,2.27.73s.11-.67-.28-.44c-.32-.1-.7-.69-.42-1.06,3.25-.72-.58.74,1.51,1.52a19.76,19.76,0,0,1,5.12-.15c1.78.26,3.37.73,3.93,1.43-.5-.54-.24-.91.33-1.08a3.93,3.93,0,0,1,2.15.22c.52.66-.7.61-1,.92.62.35,1,.85,1.77.87-.61-1,.25-1.75,2-1.65a9.29,9.29,0,0,0-5-1.12A17.16,17.16,0,0,1,177,153.92Z"/><path class="cls-10" d="M178.3,153a.71.71,0,0,0-.67.16c.48.08,1,.2,1.41.31Z"/><path class="cls-10" d="M378.1,170.7l0,0c-.06-.05-.08-.11-.16-.13s0,0,0,0l.07-.06c0,.07.13.16.23.21a1.53,1.53,0,0,0,.07-.41.74.74,0,0,0,0-.21c0-.05,0-.05,0,0v.05a1,1,0,0,1,0-.17.15.15,0,0,1,0,.07l-.07.12c0,.19-.26.46-.3.44h0l.11.08C378.15,170.78,378.1,170.72,378.1,170.7Z"/><path class="cls-10" d="M378.86,167a1.63,1.63,0,0,1-.48-.18l-.57-.27a14.92,14.92,0,0,1-1,1.72,1.2,1.2,0,0,0-.1.62,3.7,3.7,0,0,0,.36,1.41,5,5,0,0,0,.67,0,1.78,1.78,0,0,1,.65,0,.79.79,0,0,1,.33.19.57.57,0,0,1,0,.45c-.06.3-.19.55,0,.74a1.25,1.25,0,0,0,.52-.41,1,1,0,0,0,.21-.79.89.89,0,0,0-.23-.47,1.37,1.37,0,0,0-.32-.28c-.46-.28-.86-.29-1.1-.62a1.14,1.14,0,0,1,1.06-.09,3.86,3.86,0,0,1,1.54,1.1,2.36,2.36,0,0,0-.24-1.16,1.83,1.83,0,0,0-.42-.56,1,1,0,0,0-.64-.27c-.34,0-.78.05-1-.32Z"/><path class="cls-10" d="M376.29,167.87a3.77,3.77,0,0,0,.93-.73C376.86,167.38,376.07,167.34,376.29,167.87Z"/><path class="cls-10" d="M375.55,167.52c-.53-.61.61-.63.64-.78-.58.18-1.14.33-1.72.49Z"/><path class="cls-10" d="M373.24,165.09l-.36-.18C372.78,165.17,373,165.11,373.24,165.09Z"/><path class="cls-10" d="M372,164c-.17.59.34.71.89.92a1,1,0,0,1,0-.11c0-.63,1.12-1.06,1.4-.33.7.37-.11,1.08.86,1.05v-1.26C374.26,163.52,372.64,164.07,372,164Z"/><path class="cls-10" d="M373.24,165.09a1.43,1.43,0,0,1,.35.27C373.59,165.09,373.42,165.07,373.24,165.09Z"/><polygon class="cls-10" points="374.32 166.39 374.78 166.52 375.03 166.12 374.32 166.39"/><path class="cls-10" d="M370.17,161.91c1.27-.77,1.1,1.64,2.14,1.05a1.59,1.59,0,0,1,.38-2.46c-.36-.19-.72-.4-1.07-.61C370.94,159.92,370.33,161,370.17,161.91Z"/><path class="cls-10" d="M371.85,157.84a.62.62,0,0,1-.37-.07A.46.46,0,0,0,371.85,157.84Z"/><path class="cls-10" d="M365.93,152.76a6,6,0,0,1,2.43,1.39c-.43.21-.58.92-1.07.37a2.1,2.1,0,0,0,1,1.27,2,2,0,0,1,1,1.11c-.36.75-.68.25-1-.21s-.52-.9-.67.1a5.13,5.13,0,0,0,.9,1.06,2.65,2.65,0,0,0,1.62.52c0,.57-.07,1-.09,1.49l1-1.19c.05-.31-.31-.3-.62-.37s-.61-.26-.33-.8c.18-.32.39-.35.62-.24a2,2,0,0,1,.36.25c.11.09.25.25.31.26a1.18,1.18,0,0,1-.29-.38,6.18,6.18,0,0,1-.27-.57c-.16-.44-.34-.95-.52-1.59s-.41-1.35-.69-2.07a17,17,0,0,0-1-2.21c-.82-1.48-1.32-1.08-1.71-.25S366.3,152.66,365.93,152.76Z"/><polygon class="cls-10" points="366.13 149.38 366.07 147.91 366.06 149.7 366.13 149.38"/><path class="cls-10" d="M364.23,152.84l.31-1.76.18-.93a5.63,5.63,0,0,1,.2-.83h0a17.5,17.5,0,0,1,.21,2.08c0-.86.23-1.69.21-2.39a6.48,6.48,0,0,0-.47-2.1l-.08.12c0,.07-.05.17-.08.26a6.39,6.39,0,0,0-.16.63c-.11.46-.21,1-.3,1.49-.18,1-.32,2-.47,2.52-.71.74-.8.5-.75-.23s.2-1.88-.32-2.3c.49-.95.6-.4,1.23-1.53-.62-.52-1.31.88-1.78,2.36s-.74,3.08-.94,3.92c.26-.22.52.22.77-.58l-.35,1.72C362.85,155.33,363.27,155.24,364.23,152.84Z"/><path class="cls-10" d="M365.57,152.73a2.08,2.08,0,0,1-.41-1.27C365.24,152.46,365.29,153.18,365.57,152.73Z"/><path class="cls-10" d="M360.92,154.85c.12,0,.22-.31.32-.71A1.27,1.27,0,0,0,360.92,154.85Z"/><path class="cls-10" d="M362.38,155.58l-.69,1a3.22,3.22,0,0,1,.61.24A2.33,2.33,0,0,0,362.38,155.58Z"/><path class="cls-10" d="M360.77,167.08c.54-1.27.8-2.09.69-2.17.71-1.86.58-.92,1-1.55a8.34,8.34,0,0,1,.67-1.88,14.05,14.05,0,0,0,.86-1.84c0-.69-.2-.6-.41-.46s-.4.29-.31-.53c.2-.56.51-1.52.75-2.43a1.26,1.26,0,0,1-.64-.41,1,1,0,0,1-.1-.25c0-.14-.07.07-.11.18l-.14.33c-.17.39-.3.61-.38.62s-.06,0-.07-.11c-.39.33-1.12,2.37-1.83,4.3-.73,1.08-1.63,2.64-2.51,4.12-.45.74-.89,1.46-1.37,2.19l-.36.55-.44.62c-.29.42-.6.83-.91,1.24l-1.08-.85c.88-1,1.79-2,2.74-3l-.71-1.48c.74.21.75-1,1.43-.36-.32.13-.36.45-.56.75,1.73-.2,1.7-2.58,2.83-3.5-.31,0-1.5-.5-1.46-1,1.32,1,.82-1.36,2.64-.79.58-.52.3-.77,0-1.06s-.56-.6,0-1.39c-.53-1-1.32,1.43-2.16,1.39a1.68,1.68,0,0,1,.49-1.35c.26-.36.44-.64.05-1-.3.42-.6.94-.92,1.5l-.24.43-.12.25c-.07.16-.15.33-.22.51-.29.71-.56,1.54-.84,2.41a27.91,27.91,0,0,1-2.08,5.24l-.47-.84a7.13,7.13,0,0,1-1.42,2.39l3,2.39a7.74,7.74,0,0,1,1.39-1.41,2,2,0,0,1,.37-.25l.29,0a1,1,0,0,1,.58.1c-.34-.27-.12-.39,0-.62s.2-.63-.2-1.77c.31.31.32.17.55.11l-.09-1c.33-.51.39,1.14.61.65a7.8,7.8,0,0,1-.06-1.65c0-.54.15-1.15.23-1.93a6.63,6.63,0,0,1,.38,4c.11-.69.24-1.5.3-2.28,0,.48.37-1.62.57-2.51.25-.56-.39,2.62-.69,4.18,0,.21.14-.38.36-1.25s.5-2,.71-2.73.3-1,.19-.41l.61-2.73c.15-.4.24-.57.29-.58s0,0,0,0,0,.05,0,.12l0,.19-.12.78c-.15,1.06-.3,2-.16,2a17.69,17.69,0,0,1-.95,2.9,5.31,5.31,0,0,0-.49,1.19c-.23.94-.28,1.3-.65,2.57a29.22,29.22,0,0,1,1.89-4.89A29.52,29.52,0,0,0,361,166.2,8.82,8.82,0,0,0,360.77,167.08Z"/><path class="cls-10" d="M360.18,167.91l-.44,1.48c.07-.24.14-.48.09-.29Z"/><path class="cls-10" d="M360.77,167.08l-.13.3A.9.9,0,0,0,360.77,167.08Z"/><path class="cls-10" d="M362.55,156.52s0,0,0,.06.06-.09.07-.08Z"/><path class="cls-10" d="M359.82,168.89c.16-.85.3-1.68.39-2.42C360.14,166.91,360.1,167.14,359.82,168.89Z"/><path class="cls-10" d="M359.1,168.3a4.12,4.12,0,0,0,.29.79A1.3,1.3,0,0,0,359.1,168.3Z"/><path class="cls-10" d="M360,168.73c.08-.22.17-.42.25-.6l.22-.49A8.26,8.26,0,0,0,360,168.73Z"/><path class="cls-10" d="M364.66,180.51c1-1,.35-2.51.53-3.76-.58-2.28-2.24-.25-2.41-2.41l2.12.33c-.08-1.09,0-2.4-.19-3.67s-.55-2.74-1.48-3c.26-.24.56-.81.87-.4-.11-1.49-3,1.26-2.3-.24a1.86,1.86,0,0,0,1.25-1,5.14,5.14,0,0,1,1.24-1.82l.15.14a5.23,5.23,0,0,0-.48-1.52,2,2,0,0,1-.31-1.15c-.52,1-1.32,3-1.39,2.44a17.64,17.64,0,0,1-1.22,2.55c.29-.38.35-.28.43-.24s.16.05.51-.26c-.69,1.24-.23.14-.91,1.34a2.49,2.49,0,0,1,.65-.44c-.08.25-.26.35-.43.5a1.25,1.25,0,0,0-.41.55c.41-.43.85-.45.77,0a1.05,1.05,0,0,0-.24.06c.28.07-.06.65,1.11,0a5.91,5.91,0,0,1-1.16.76l.8-.26a1.29,1.29,0,0,1-.46.64c-.2.32-.43.64-.62,1A2.36,2.36,0,0,0,361,173c.23-.53.67-.06.83.22.54-.92-.63-1.11-.75-2,.79-.15,1.78,1.3,2.24.25-.93,1.16.16,2.17-1.82,2.7-.1,1.38.89,1.89.45,3.31l-.3,0c1.32.24-.57,1.16.8,2.18l.28-.75c.54,0,.56.38.67.89-.21-.06-.21-.06-.47.11,1,.14,1.14,1.72,1.42,1.92.16-.67-.64-1.48-.9-2.25C364,180,364.82,179.85,364.66,180.51Z"/><path class="cls-10" d="M361,168.64a2.19,2.19,0,0,1,.46-.18C361.33,168.44,361.19,168.47,361,168.64Z"/><path class="cls-10" d="M363,186.78c-.23.87-.81-.25-1.25.55.64.9,1.38-1,2.35-.09-.59.52.37,1.43.37,1.8a2.72,2.72,0,0,0-2.08-.1c.34.35-.33,1.07-.4,1.63.87-1.35.4,1.21,1.34,0,.74.14,1.19,1.54.56,2-.54-.09-.38-.52-.38-.88-1-.37-.62.85-1.58,1,.66.72.81,2.16,1.07,3.31s.63,2,1.88,1.63c.53-.4,0-.91,0-1.43-.69,1.36-1.2-.19-1.59-.36.46-.55-.12-1.67.65-1.33l.72,1.08a31.44,31.44,0,0,0,.63-11l-.06,1.55c-.62-.19-.65-.92-.94-1.48l-1.52.73c.12-.43-.1-.85.43-.81-.64-.54-1-.29-1.54,0-.27-1.12.32-1.31-.67-2.17-1.23,1.87,1,1.58-.07,3.7Z"/><polygon class="cls-10" points="362.19 182.66 362.95 183.11 362.57 182.42 362.19 182.66"/><path class="cls-10" d="M365.52,183.36c-.33,0-.48-.25-.81-.23C364.49,184,365,183.92,365.52,183.36Z"/><path class="cls-10" d="M361.74,193.79c.05.38.09.75.12,1.13l.39-.68A.6.6,0,0,1,361.74,193.79Z"/><path class="cls-10" d="M364,202.44c.33-1.65-.19-2.48,1-4.13-.8-1.08-1.9,0-2.71-.52-.39.8,1.27,1.05,1.36,2.05-.9.13-.16,1.37-.61,2.19A1.28,1.28,0,0,1,364,202.44Z"/><path class="cls-10" d="M358.88,206.32c-.3.62-.08,1.55-.71,1.83a.67.67,0,0,1-.07-1.08c-1.19-.36-.19.76-1.28,1,.15,0,.46-.1.58.21a1.84,1.84,0,0,0-.57,1.43c0,.38-.14.81-1.16,1.52,0,.48-.2.74.45,1.23-1.71.34-1.22-.14-3,.33a14.93,14.93,0,0,1,2.19,1.44,5.46,5.46,0,0,0-1.46.55,3.2,3.2,0,0,0-.68.59,1.65,1.65,0,0,1-1.52.75c.11-.15.14-.45.53-.6-1-1-.88.92-1.76,1.16l-.55-1.07c-.28.26-.6.73-1,1.09a1.65,1.65,0,0,1-1.57.38l-.06-.64c-1.34,1.64-3.68,2-5.17,2.8l-1-.5c-1,.68-.45.67.25.74s1.49.18.87,1.26c-.77-2.08-1,1-2.58.41-.79-.74,1.25-.72.36-1.57-.06,1.18-.64.46-1.27.91,0-1.08-1.5.1-1.25-1.17q-1.07,1.18-2.22,2.31a1.47,1.47,0,0,0-1.73-.17c1.38-.13-.22,1.63,1.39,2a44.56,44.56,0,0,1,8.84-2c-.11-1.5,1.79-.51,1.83-1.82.22.42.56.73.78,1.15,1.65-.95-.69-.6-.44-1.27a1.25,1.25,0,0,1,1.74.63c1.27-.44,0-.43.28-1.42.48.38,1,.74,1.47,1.1a29.51,29.51,0,0,0,5.45-4.65c1.73-1.84,3.26-3.83,4.88-5.62l-1.05-.23a3.56,3.56,0,0,0,.78-2.7A2,2,0,0,1,361,204.5c-.19-.31-.38-.6-.58-.9.34.5,1.55.2,2,1-.11-.67.47-1.12.36-1.8q-.39.43-.81.84c-.54-1,.19-1.56,1-1.58-.26-.91-.75-.8-1.28-.48s-1.14.85-1.59.86c.53,1.3-.11,1.67-.86,1.9s-1.59.37-1.67,1.4C357.52,207.05,358.43,206,358.88,206.32Z"/><path class="cls-10" d="M362.53,205a1,1,0,0,0-.13-.41A1.48,1.48,0,0,0,362.53,205Z"/><path class="cls-10" d="M333.47,221.42a3,3,0,0,0-.6.12C332.69,221.81,333,221.61,333.47,221.42Z"/><path class="cls-10" d="M363,202h0s0,0,0,0Z"/><polygon class="cls-10" points="360.87 200.33 360.68 200.86 361.15 200.9 360.87 200.33"/><path class="cls-10" d="M327.27,220.6l0,.53A.81.81,0,0,0,327.27,220.6Z"/><path class="cls-10" d="M310.56,221h.36A.36.36,0,0,0,310.56,221Z"/><path class="cls-10" d="M270.38,223a7.38,7.38,0,0,0-3.3,1.63l.06-.54c-.58.29-2.44,1.21-1.18,2.12l.28-.48c1.35-.85,1,.84,2.12,1.14,1.29-.3,2-2.32,3.15-1.88.5-.08.44.46.3.87,1.17.11,1.58-1.44,2.37-1.66.43,4,3.53-1.21,5.31,1.32,1.08-.35,2.54,0,3.91-.85-.72,1,1.3,0,1,1.19.34-2.35,4,1,4.19-2,1.89.79.07-.2,2.25.46,0,.33-.36.33-.5.4.87.59,1.29-1.29,2,0,1.74.19.28-.8,1.29-1.61,1.82.31,1.32.72,2.34,1.92.13-1.41,1.22-.75,2.09-1.5-.22-.06-1.46-.32-.66-.86,2.1.18,1.66-1,3.62-1.39,1,1.53-2,.09-.21,1.28-1.23.75-2.17.7-2.82,1.85a14.8,14.8,0,0,0,5.51-.94c1,.19-.5.74.3.87,1.83.65,2.74-1.65,4.2-1l-.28.8c.85-1.09,3.2.15,4.86-.49-.23-.4-.37-.66-.16-.93,0,2,2.29-1.13,4,.23-.17-1.27,1.4-2,2.41-2.22a1.56,1.56,0,0,1,.32,1.21c-1.69-.69-1.55,1.45-2.85,2.09,1.07-.7,2.91-.08,3.83-1l-.33,1c1.52.1,1.23-2.32,2.86-1.44l-.13.74c3.18-.26,7,.89,9.48-1,.17-.63-1.22-1.94-1.31-2.4-1.46.62-2.28,1.74-3.41,2.33l0-1.15c-.22.8-1.6,1.33-.79,1.91-.92.64-.77-1-1.83-.26,0-1.21.67-1.37.63-2.37l-.92.63c.28-.48-.58-.38-.32-.86-1.68,1.54-2.46-.43-4.25.29l1,.18c0,.67-.56.62-1,.83-.53-.92-.82-.78-1.77-1.16-.78.56-1.18,1.78-2.27,1.81.18-1.28-1.83-.63-2.07-1.69-.19,1.28-2.09.51-2.21,1.25-.58.28-1.38.16-1.39-.51a2.63,2.63,0,0,1,.43-.23l-.58,0c0-.14,0-.25.09-.28-.51,0-.49.91-1.18.3,0-.33.36-.34.65-.48-1.38-.18-2.36,2-3.54.87-.21.6-1.8.69-1.43,2-.44-.46-.3-1.54-1.46-1.32-.64,1.15-1.3-.39-2.17.36,1.14-1.22,0-.33,1-1.49-.8-.46-1.95,1.1-3.33.91-.15-.26-.15-.6-.29-.87-.51.41-1.08,1.35-1.6.42l.08.8c-.94-.39-2.25-.11-3.27-1l-1.15,1.55c-1.61-1.59-3.7-.1-4.92,1.32-.58-.05-1.46-.31-1.46-.65.13-.12.36-.36.62-.57-.85-.05-1.91-.9-2.37.39-.86.41-.65-.87-1.31-1.06-1.73,1.84-5.25-1.21-5.72,1.55a19.49,19.49,0,0,0,3.49.36c-.36.34-.06.87-.57.94-1.38.16-2.11-.84-3.48-.35l.11-1.75C274.35,221.22,272.31,225.42,270.38,223Z"/><path class="cls-10" d="M288.1,222.58l-1-.86.12.75A.81.81,0,0,1,288.1,222.58Z"/><path class="cls-10" d="M287.19,222.47a2.22,2.22,0,0,0-.57.37.85.85,0,0,0,.61-.18Z"/><path class="cls-10" d="M266.39,223.43a1.46,1.46,0,0,0-1.09,0C265.6,223.65,266.18,223.7,266.39,223.43Z"/><polygon class="cls-10" points="265.25 223.99 265.76 224.25 265.83 224.04 265.25 223.99"/><path class="cls-10" d="M236.13,227.59l-1.47,1.23c-.34-.51-2.07.34-1.6-.65-.78,1.39-3,.44-2,2.15,4.55-1.26,11.08-.82,16.35-2.88l-.8.81c2.7-1.68,4,1.31,6-1.72l-.21,1.49c1.32.33,2.34-2.29,3.79-.8l-.17-.6c.36,0,.52.25.88.24l-.16-.27a2.21,2.21,0,0,1,2.45-.24c.09.47-.42.22-.71.37.46.45,1.14-.59,1.87-.62.58.39,0,.68-.05.88,2.15-.77,3.2.76,4.66-1.5.13-.41-.6-.73.19-.95-1.47-.62-2.61.27-3.89.94l.36,0c-.94,2.19-.81-.44-2.44.57.4-.89,1.13-.92,1.4-1.4-2-1.53-2.7,1.38-4.1-.64l.14-.07c-.3-.19-.79.23-1.22.45.16.27.61.38.91.57-.43.22-.61,1.17-.73,1.57-.55-.91-.63.49-1.44.08-.33-.85.61-.85.87-1.33l-.91.66c-.86.11-.91-.89-1.37-1.34-.7.72.46.45-.08,1.42-1-1-5-.48-6.77.55.63-.18.15-.94,1-.87-.3-.18-1.28.37-1.23,1a5.14,5.14,0,0,1-4.22-.07l.41.64c-.91,1.2-2.66-.59-4.4.26l0,0c-.56.2-.88,1.88-2,1.66C235.7,228.38,236.28,228.39,236.13,227.59Z"/><path class="cls-10" d="M230,229.91l.45-1c-.67-.12-1.31,1.18-1.09,1.76.41-.25,1,.08,1-.46C230.31,230.07,230.28,229.74,230,229.91Z"/><path class="cls-10" d="M218.12,231.93c-.2.25-.07.59-.12.86,2.47-.6,5.53-1.42,6.63-.88.89.14.83-1.29,1.85-1.77l.63.87c.49-.67,2.4.11,1.56-1.34-.09-.13-.41.79-.94.59v-.54l-1.12.33.27-.7c-1.71-.74-.8,2.15-2.79,1.83l-.2-1.33c-1.29.13-1.86.69-3.12.07,0,0,.1.67.27.37a.9.9,0,0,1,.51.94c-1.75,1.35.17-.84-1.27-1.16-1.51,1.14-4.44,2.57-5.56,1.67.92.64,0,1.71-1,1.81-.51-.38.13-.84.2-1.26-.46-.06-.87-.32-1.25,0a1.45,1.45,0,0,1-.34,2.31C214.68,235,215.9,232.2,218.12,231.93Z"/><path class="cls-10" d="M217.68,233.17a.48.48,0,0,0,.32-.38l-.86.2Z"/><path class="cls-9" d="M369.19,132.31h-39a6.3,6.3,0,0,1-5.43-3.12L305.35,95.91a6.3,6.3,0,0,1,0-6.34l19.43-33.28a6.3,6.3,0,0,1,5.43-3.12h39a6.29,6.29,0,0,1,5.43,3.12l19.43,33.28a6.3,6.3,0,0,1,0,6.34l-19.43,33.28A6.29,6.29,0,0,1,369.19,132.31Z"/><path class="cls-11" d="M144.57,256.18c-5.41,0-10.82,0-16.24,0a6.41,6.41,0,0,1-5.38-2.61c-2.83-3.55-5.71-7.06-8.58-10.58l-8.88-10.93c-.93-1.15-1.83-2.31-2.79-3.43a5.88,5.88,0,0,1-1.28-5.48q3.19-13.6,6.34-27.22c.35-1.51.69-3,1.07-4.55a5.5,5.5,0,0,1,3.07-3.75c4.92-2.34,9.84-4.65,14.76-7l15.22-7.21a6.12,6.12,0,0,1,5.53,0L173.88,186c1,.46,1.94.95,2.93,1.37a6.3,6.3,0,0,1,3.83,4.77c1.55,6.87,3.17,13.72,4.77,20.58.81,3.51,1.62,7,2.46,10.53a6.22,6.22,0,0,1-1.55,5.72c-3,3.65-6,7.35-9,11L168,251.45l-2,2.5a5.75,5.75,0,0,1-4.63,2.23Z"/><path class="cls-11" d="M143.26,190.51a30.24,30.24,0,0,0-.43-3.88,2.61,2.61,0,0,1,.49-2.33,1.75,1.75,0,0,1,3,.52,4.18,4.18,0,0,1,.06,2.35,19.05,19.05,0,0,0-.34,3.69,1.2,1.2,0,0,0,.18.7,1.85,1.85,0,0,1,.5,1.05c0,.23.26.23.44.25a23.53,23.53,0,0,1,11.65,4.59,26.83,26.83,0,0,1,2.55,2.2c.23.22.41.29.66.06a.63.63,0,0,1,.49-.22,2.2,2.2,0,0,0,1.86-.86,28.28,28.28,0,0,0,2.11-2.13,4,4,0,0,1,1.69-1.24,1.83,1.83,0,0,1,2.13.67,1.89,1.89,0,0,1-.23,2.22,5.81,5.81,0,0,1-1.71,1.24,20.7,20.7,0,0,0-2.87,1.86,1.27,1.27,0,0,0-.61,1,.75.75,0,0,1-.38.55.4.4,0,0,0-.08.62,22.69,22.69,0,0,1,3.38,8.42,23.68,23.68,0,0,1,.22,6.93c0,.3,0,.43.32.49a.51.51,0,0,1,.37.18c.57.89,1.53.86,2.41,1,1.17.22,2.38.14,3.54.38a2.43,2.43,0,0,1,1.28.61,1.68,1.68,0,0,1,.5,1.88,1.9,1.9,0,0,1-1.68,1.17,4.44,4.44,0,0,1-1.93-.41,21.61,21.61,0,0,0-3.51-1.18,1.58,1.58,0,0,0-1.29.14.56.56,0,0,1-.45.09c-.43-.13-.58.1-.71.47a23.18,23.18,0,0,1-6.44,9.65,20.67,20.67,0,0,1-3.29,2.45c-.33.19-.51.39-.3.76a.47.47,0,0,1,0,.4,1.91,1.91,0,0,0,.25,1.58,25.17,25.17,0,0,0,1.84,2.92,4.42,4.42,0,0,1,.8,1.59,1.84,1.84,0,0,1-1.07,2.19,1.94,1.94,0,0,1-2.28-.87,7.19,7.19,0,0,1-.73-1.77,18.35,18.35,0,0,0-1.21-3.22,1.36,1.36,0,0,0-.85-.79.59.59,0,0,1-.4-.35c-.13-.37-.35-.37-.69-.25a21.61,21.61,0,0,1-6.1,1.27A23.41,23.41,0,0,1,137,238a3.59,3.59,0,0,1-.35-.12c-.24-.11-.42-.07-.52.18a.93.93,0,0,1-.64.55,1.09,1.09,0,0,0-.62.59,19.11,19.11,0,0,0-1.3,3.42,4.9,4.9,0,0,1-1,2,1.82,1.82,0,0,1-2.26.43,1.88,1.88,0,0,1-.77-2.25,5.81,5.81,0,0,1,.83-1.53,21.44,21.44,0,0,0,1.92-3.14,1.33,1.33,0,0,0,.12-1.1.73.73,0,0,1,0-.66c.21-.34,0-.5-.24-.68a23.79,23.79,0,0,1-4.66-3.76,22.71,22.71,0,0,1-5.11-8.22c-.14-.41-.29-.71-.8-.51a.44.44,0,0,1-.35-.07,1.9,1.9,0,0,0-1.61-.13,25.56,25.56,0,0,0-3.19,1.1,4.34,4.34,0,0,1-2.16.42,1.79,1.79,0,0,1-1.57-1.35,1.77,1.77,0,0,1,.74-1.84,3.84,3.84,0,0,1,2.11-.58,23.84,23.84,0,0,0,3.77-.47,1.42,1.42,0,0,0,1-.62.92.92,0,0,1,.61-.39c.26-.06.32-.2.29-.46a22.76,22.76,0,0,1,3.45-15.3c.2-.32.3-.55-.1-.77a.5.5,0,0,1-.23-.39,1.82,1.82,0,0,0-1-1.33,22.89,22.89,0,0,0-2.82-1.76,4.13,4.13,0,0,1-1.6-1.29,1.81,1.81,0,0,1,.07-2.22,1.85,1.85,0,0,1,2.16-.41,5.83,5.83,0,0,1,1.89,1.6,17.8,17.8,0,0,0,2.46,2.29,1.24,1.24,0,0,0,1,.29c.27-.07.44.1.62.23a.33.33,0,0,0,.51-.06A23.13,23.13,0,0,1,141.22,193a4.85,4.85,0,0,1,.55-.08c.47,0,.91-.06.89-.69a.32.32,0,0,1,.08-.21A1.77,1.77,0,0,0,143.26,190.51Z"/><path class="cls-11" d="M151,222.23a1.54,1.54,0,0,1,1.77-1.5c2.59.41,5.18.84,7.76,1.27.4.06.79.17,1.19.19s.45.24.31.59a19.05,19.05,0,0,1-2.52,4.43,18.81,18.81,0,0,1-4.38,4.11c-.28.19-.41.21-.56-.15q-1.63-3.94-3.29-7.88A2.78,2.78,0,0,1,151,222.23Z"/><path class="cls-11" d="M142.31,198.18c-.15,2.44-.3,4.83-.45,7.22a10.66,10.66,0,0,1-.11,1.69,1.54,1.54,0,0,1-2.39,1.09c-.87-.52-1.68-1.14-2.52-1.72-1.62-1.14-3.24-2.29-4.88-3.41-.33-.23-.41-.36-.07-.67a18.73,18.73,0,0,1,10-4.71C142.44,197.59,142.28,198,142.31,198.18Z"/><path class="cls-11" d="M125.91,215.92a18.77,18.77,0,0,1,2.51-9.24c.17-.29.29-.33.55-.1,1.66,1.48,3.35,2.95,5,4.43a16.75,16.75,0,0,1,1.85,1.72,1.49,1.49,0,0,1-.67,2.48c-1,.36-2,.61-3,.9l-5.61,1.61c-.5.14-.52.11-.54-.39S125.93,216.29,125.91,215.92Z"/><path class="cls-11" d="M163.38,216.13c0,.41-.09.82-.09,1.23s-.11.45-.47.35c-1.73-.51-3.47-1-5.2-1.49l-3-.87a3.91,3.91,0,0,1-.65-.24,1.5,1.5,0,0,1-.51-2.44c.8-.86,1.73-1.58,2.6-2.36,1.37-1.25,2.78-2.46,4.17-3.7.27-.25.4-.28.6.07a18.32,18.32,0,0,1,2.49,8.4A9.3,9.3,0,0,1,163.38,216.13Z"/><path class="cls-11" d="M144.61,234.52a21.06,21.06,0,0,1-5.52-.87c-.35-.11-.35-.24-.2-.52,1.45-2.57,2.88-5.16,4.35-7.73a1.57,1.57,0,0,1,2.86.07c.52.85,1,1.73,1.47,2.6.94,1.67,1.86,3.35,2.81,5,.21.37.12.5-.25.61a18.75,18.75,0,0,1-4.65.76A8.5,8.5,0,0,0,144.61,234.52Z"/><path class="cls-11" d="M136.44,220.76c1.29,0,2,.88,1.69,2a34.68,34.68,0,0,1-1.42,3.53c-.64,1.61-1.34,3.19-2,4.79-.15.37-.28.42-.62.19a18.45,18.45,0,0,1-6.82-8.43c-.2-.51-.2-.51.34-.6l8.44-1.43C136.23,220.77,136.4,220.77,136.44,220.76Z"/><path class="cls-11" d="M147,198.31c0-.67,0-.7.56-.61a18.83,18.83,0,0,1,9.15,4.13c.24.19.45.43.69.61s.23.36,0,.55c-1.32.91-2.62,1.83-3.93,2.75-1.07.75-2.14,1.51-3.22,2.25a1.65,1.65,0,0,1-2.39-.21,2.47,2.47,0,0,1-.36-1.45c-.11-1.91-.17-3.84-.31-5.75A15.53,15.53,0,0,0,147,198.31Z"/><polygon class="cls-11" points="143.47 213.48 142.02 215.29 142.54 217.55 144.64 218.55 146.75 217.55 147.27 215.29 145.81 213.48 143.47 213.48"/><path class="cls-12" d="M343.69,135.47c-5.7,0-11.41,0-17.12,0a8.51,8.51,0,0,1-8-4.65Q310,115.67,301.4,100.54a8.32,8.32,0,0,1,0-8.73l16.75-29.52c.35-.61.67-1.24,1.07-1.81a8.25,8.25,0,0,1,7.12-3.65h34.55a8.4,8.4,0,0,1,7.84,4.53L386,91.75a8.34,8.34,0,0,1,0,8.77q-8.72,15.36-17.44,30.7a8.05,8.05,0,0,1-7.36,4.25C355.35,135.49,349.52,135.47,343.69,135.47Zm0-18.71h11.5a.66.66,0,0,0,.69-.32q5.82-10,11.66-19.91a.65.65,0,0,0,0-.76q-5.81-9.9-11.6-19.81a.71.71,0,0,0-.71-.4q-11.55,0-23.11,0a.67.67,0,0,0-.67.37q-5.76,9.87-11.55,19.72a.87.87,0,0,0,0,1q5.77,9.82,11.52,19.68a.75.75,0,0,0,.76.41ZM317.47,92.38l.25-.39q5.75-9.85,11.48-19.7a.83.83,0,0,1,.82-.5c3.83,0,7.66,0,11.5,0h28.76c-.13-.24-.2-.4-.29-.54-1.48-2.62-3-5.22-4.45-7.87a5.06,5.06,0,0,0-4.93-2.84q-17.07.07-34.13,0A4.79,4.79,0,0,0,322,63.19q-5.18,9.14-10.4,18.26a.72.72,0,0,0,0,.85c1.54,2.61,3.06,5.23,4.59,7.84Zm36,28.12H330a.7.7,0,0,1-.74-.35c-1-1.77-2.06-3.51-3.08-5.26L309.39,86.13c-.07-.12-.16-.24-.26-.38-.08.1-.12.16-.16.22-1.49,2.63-3,5.25-4.47,7.91a4.58,4.58,0,0,0,.05,4.66c.9,1.62,1.83,3.22,2.75,4.84l10.15,17.79c1.55,2.73,3.09,5.46,4.65,8.18a4.45,4.45,0,0,0,4.12,2.38h20.19a.78.78,0,0,0,.79-.45c1.69-2.92,3.41-5.83,5.11-8.75Zm-2.08,11.19.6,0h9.06a4.6,4.6,0,0,0,4.28-2.5Q374,114,382.71,98.74a4.84,4.84,0,0,0,0-5.13c-1-1.65-1.89-3.31-2.84-5q-3.6-6.31-7.2-12.64a.72.72,0,0,0-.74-.44H360.67l-.56,0c.12.22.19.37.28.52q5.7,9.75,11.4,19.5a.93.93,0,0,1,0,1.09c-1.47,2.46-2.91,5-4.35,7.43l-15.57,26.74C351.73,131.12,351.59,131.38,351.41,131.69Z"/><path class="cls-12" d="M355,96.14a11.36,11.36,0,1,1-11.38-11.22A11.34,11.34,0,0,1,355,96.14Zm-3.79-.07a7.57,7.57,0,1,0-7.49,7.57A7.5,7.5,0,0,0,351.25,96.07Z"/></g></g></svg>