<svg xmlns="http://www.w3.org/2000/svg" xmlns:xlink="http://www.w3.org/1999/xlink" viewBox="0 0 360.24 303.01"><defs><style>.cls-1,.cls-2{fill:none;}.cls-2{stroke:#3f3a37;stroke-linecap:round;stroke-linejoin:round;stroke-width:2px;stroke-dasharray:0 8;}.cls-3{opacity:0.35;fill:url(#small_dots);}</style><pattern id="small_dots" data-name="small dots" width="8" height="8" patternUnits="userSpaceOnUse" viewBox="0 0 8 8"><rect class="cls-1" width="8" height="8"/><circle class="cls-2" cx="4" cy="4" r="1"/></pattern></defs><title>Asset 24</title><g id="Layer_2" data-name="Layer 2"><g id="Layer_1-2" data-name="Layer 1"><path class="cls-3" d="M360,95.12s-7.7-5.67-11.85-8.29c-19.06-12-35.93,14.11-80.15,15.21-36,.89-84.21-50.15-92-57C151,23,94.12,27.37,63,24,35,21,21-5.44,4.45,1A8.76,8.76,0,0,0,0,4.94L.33,98.78C1.06,106,0,151,24.52,171.35c19.22,15.92,35.39,3.19,78.28,1.66,34.94-1.24,71.24,40.48,76.2,53,12,30.27,101.94,33,110,32,25.18-3.18,55,53,71,44,.78-.44-.63-12.36,0-13.08Z"/></g></g></svg>