<?xml version="1.0" encoding="UTF-8"?>
<svg width="64px" height="86px" viewBox="0 0 64 86" version="1.1" xmlns="http://www.w3.org/2000/svg" xmlns:xlink="http://www.w3.org/1999/xlink">
    <!-- Generator: Sketch 49 (51002) - http://www.bohemiancoding.com/sketch -->
    <title>Group 2</title>
    <desc>Created with Sketch.</desc>
    <defs></defs>
    <g id="Welcome" stroke="none" stroke-width="1" fill="none" fill-rule="evenodd">
        <g id="Mobile-Portrait" transform="translate(-16.000000, -96.000000)">
            <g id="Group-2" transform="translate(0.000000, 94.000000)">
                <g id="Page-1-Copy-2" transform="translate(62.709292, 15.709292) rotate(30.000000) translate(-62.709292, -15.709292) translate(51.209292, 4.209292)">
                    <polygon id="Fill-1" fill="#3F3A37" points="0 23 15 23 15 8 0 8"></polygon>
                    <polygon id="Stroke-2" stroke="#FFFFFF" stroke-width="2" stroke-linecap="round" stroke-linejoin="round" points="0 23 15 23 15 8 0 8"></polygon>
                    <polygon id="Fill-4" fill="#3F3A37" points="7.66695538 0 0 8 15.3339108 8 23 0"></polygon>
                    <polygon id="Stroke-5" stroke="#FFFFFF" stroke-width="2" stroke-linecap="round" stroke-linejoin="round" points="23 0 15.3330446 8 0 8 7.66695538 0"></polygon>
                    <polygon id="Fill-7" fill="#3F3A37" points="23 0 23 15.3330446 15 23 15 7.66695538"></polygon>
                    <polygon id="Stroke-8" stroke="#FFFFFF" stroke-width="2" stroke-linejoin="round" points="23 0 23 15.3330446 15 23 15 7.66695538"></polygon>
                </g>
                <g id="Page-1-Copy-5" transform="translate(28.361264, 59.879495) rotate(47.000000) translate(-28.361264, -59.879495) translate(2.861264, 44.879495)">
                    <path d="M48.3548,29.6758 C47.6028,29.6098 47.1218,28.1338 47.2758,26.3848 C47.4288,24.6368 48.1618,23.2678 48.9138,23.3338 C49.6658,23.4008 50.1468,24.8758 49.9938,26.6248 C49.8388,28.3728 49.1068,29.7418 48.3548,29.6758" id="Fill-1" fill="#FFFFFF"></path>
                    <path d="M48.3548,29.6758 C47.6028,29.6098 47.1218,28.1338 47.2758,26.3848 C47.4288,24.6368 48.1618,23.2678 48.9138,23.3338 C49.6658,23.4008 50.1468,24.8758 49.9938,26.6248 C49.8388,28.3728 49.1068,29.7418 48.3548,29.6758 Z" id="Stroke-3" stroke="#3F3A37" stroke-width="2" stroke-linecap="round" stroke-linejoin="round"></path>
                    <path d="M48.3548,29.6758 L24.5008,27.5758 C22.4268,27.3928 20.8738,25.5398 21.0558,23.4648 L21.3218,20.4488 C21.3168,20.5028 21.3208,20.5668 21.3338,20.6228 L22.2688,9.9958 C22.2778,9.8958 22.2788,9.7868 22.2678,9.6948 C22.1978,8.8398 21.5288,8.1418 20.6498,8.0648 L1.1088,6.3438 C1.8608,6.4098 2.5918,5.0408 2.7468,3.2928 C2.9008,1.5438 2.4178,0.0688 1.6668,0.0028 L25.5208,2.1018 C27.5948,2.2848 29.1488,4.1378 28.9658,6.2128 L28.7008,9.2298 C28.7058,9.1748 28.7018,9.1108 28.6878,9.0548 L27.7518,19.6808 C27.7438,19.7808 27.7438,19.8908 27.7528,19.9828 C27.8248,20.8388 28.4938,21.5358 29.3728,21.6138 L48.9138,23.3338 C48.1618,23.2678 47.4288,24.6368 47.2758,26.3848 C47.1218,28.1338 47.6028,29.6098 48.3548,29.6758" id="Fill-5" fill="#FFFFFF"></path>
                    <path d="M48.3548,29.6758 L24.5008,27.5758 C22.4268,27.3928 20.8738,25.5398 21.0558,23.4648 L21.3218,20.4488 C21.3168,20.5028 21.3208,20.5668 21.3338,20.6228 L22.2688,9.9958 C22.2778,9.8958 22.2788,9.7868 22.2678,9.6948 C22.1978,8.8398 21.5288,8.1418 20.6498,8.0648 L1.1088,6.3438 C1.8608,6.4098 2.5918,5.0408 2.7468,3.2928 C2.9008,1.5438 2.4178,0.0688 1.6668,0.0028 L25.5208,2.1018 C27.5948,2.2848 29.1488,4.1378 28.9658,6.2128 L28.7008,9.2298 C28.7058,9.1748 28.7018,9.1108 28.6878,9.0548 L27.7518,19.6808 C27.7438,19.7808 27.7438,19.8908 27.7528,19.9828 C27.8248,20.8388 28.4938,21.5358 29.3728,21.6138 L48.9138,23.3338 C48.1618,23.2678 47.4288,24.6368 47.2758,26.3848 C47.1218,28.1338 47.6028,29.6098 48.3548,29.6758 Z" id="Stroke-7" stroke="#3F3A37" stroke-width="2" stroke-linecap="round" stroke-linejoin="round"></path>
                    <path d="M48.3548,29.6758 C47.6028,29.6098 47.1218,28.1338 47.2758,26.3848 C47.4288,24.6368 48.1618,23.2678 48.9138,23.3338 C49.6658,23.4008 50.1468,24.8758 49.9938,26.6248 C49.8388,28.3728 49.1068,29.7418 48.3548,29.6758" id="Fill-9" fill="#86FED4"></path>
                    <path d="M48.3548,29.6758 C47.6028,29.6098 47.1218,28.1338 47.2758,26.3848 C47.4288,24.6368 48.1618,23.2678 48.9138,23.3338 C49.6658,23.4008 50.1468,24.8758 49.9938,26.6248 C49.8388,28.3728 49.1068,29.7418 48.3548,29.6758 Z" id="Stroke-11" stroke="#3F3A37"></path>
                    <path d="M1.1087,6.3437 C0.3567,6.2777 -0.1253,4.8017 0.0287,3.0537 C0.1827,1.3047 0.9147,-0.0643 1.6667,0.0027 C2.4187,0.0687 2.9007,1.5437 2.7467,3.2927 C2.5917,5.0407 1.8607,6.4097 1.1087,6.3437" id="Fill-13" fill="#3F3A37"></path>
                    <path d="M1.1087,6.3437 C0.3567,6.2777 -0.1253,4.8017 0.0287,3.0537 C0.1827,1.3047 0.9147,-0.0643 1.6667,0.0027 C2.4187,0.0687 2.9007,1.5437 2.7467,3.2927 C2.5917,5.0407 1.8607,6.4097 1.1087,6.3437 Z" id="Stroke-15" stroke="#3F3A37" stroke-width="2"></path>
                </g>
            </g>
        </g>
    </g>
</svg>