<?xml version="1.0" encoding="UTF-8"?>
<svg width="105px" height="615px" viewBox="0 0 105 615" version="1.1" xmlns="http://www.w3.org/2000/svg" xmlns:xlink="http://www.w3.org/1999/xlink">
    <!-- Generator: Sketch 49 (51002) - http://www.bohemiancoding.com/sketch -->
    <title>Group</title>
    <desc>Created with Sketch.</desc>
    <defs></defs>
    <g id="Welcome" stroke="none" stroke-width="1" fill="none" fill-rule="evenodd">
        <g id="Mobile-Portrait" transform="translate(-255.000000, -82.000000)">
            <g id="Group" transform="translate(256.000000, 83.000000)">
                <g id="Page-1" transform="translate(72.183244, 55.183244) rotate(66.000000) translate(-72.183244, -55.183244) translate(60.683244, 43.683244)">
                    <polygon id="Fill-1" fill="#3F3A37" points="0 23 15 23 15 8 0 8"></polygon>
                    <polygon id="Stroke-2" stroke="#FFFFFF" stroke-width="2" stroke-linecap="round" stroke-linejoin="round" points="0 23 15 23 15 8 0 8"></polygon>
                    <polygon id="Fill-4" fill="#3F3A37" points="7.66695538 0 0 8 15.3339108 8 23 0"></polygon>
                    <polygon id="Stroke-5" stroke="#FFFFFF" stroke-width="2" stroke-linecap="round" stroke-linejoin="round" points="23 0 15.3330446 8 0 8 7.66695538 0"></polygon>
                    <polygon id="Fill-7" fill="#3F3A37" points="23 0 23 15.3330446 15 23 15 7.66695538"></polygon>
                    <polygon id="Stroke-8" stroke="#FFFFFF" stroke-width="2" stroke-linejoin="round" points="23 0 23 15.3330446 15 23 15 7.66695538"></polygon>
                </g>
                <g id="Page-1-Copy" transform="translate(61.970590, 15.738702) rotate(-22.000000) translate(-61.970590, -15.738702) translate(50.470590, 4.238702)">
                    <polygon id="Fill-1" fill="#3F3A37" points="0 23 15 23 15 8 0 8"></polygon>
                    <polygon id="Stroke-2" stroke="#FFFFFF" stroke-width="2" stroke-linecap="round" stroke-linejoin="round" points="0 23 15 23 15 8 0 8"></polygon>
                    <polygon id="Fill-4" fill="#3F3A37" points="7.66695538 0 0 8 15.3339108 8 23 0"></polygon>
                    <polygon id="Stroke-5" stroke="#FFFFFF" stroke-width="2" stroke-linecap="round" stroke-linejoin="round" points="23 0 15.3330446 8 0 8 7.66695538 0"></polygon>
                    <polygon id="Fill-7" fill="#3F3A37" points="23 0 23 15.3330446 15 23 15 7.66695538"></polygon>
                    <polygon id="Stroke-8" stroke="#FFFFFF" stroke-width="2" stroke-linejoin="round" points="23 0 23 15.3330446 15 23 15 7.66695538"></polygon>
                </g>
                <g id="Page-1-Copy-3" transform="translate(61.552820, 140.552820) rotate(-62.000000) translate(-61.552820, -140.552820) translate(50.052820, 129.052820)">
                    <polygon id="Fill-1" fill="#3F3A37" points="0 23 15 23 15 8 0 8"></polygon>
                    <polygon id="Stroke-2" stroke="#FFFFFF" stroke-width="2" stroke-linecap="round" stroke-linejoin="round" points="0 23 15 23 15 8 0 8"></polygon>
                    <polygon id="Fill-4" fill="#3F3A37" points="7.66695538 0 0 8 15.3339108 8 23 0"></polygon>
                    <polygon id="Stroke-5" stroke="#FFFFFF" stroke-width="2" stroke-linecap="round" stroke-linejoin="round" points="23 0 15.3330446 8 0 8 7.66695538 0"></polygon>
                    <polygon id="Fill-7" fill="#3F3A37" points="23 0 23 15.3330446 15 23 15 7.66695538"></polygon>
                    <polygon id="Stroke-8" stroke="#FFFFFF" stroke-width="2" stroke-linejoin="round" points="23 0 23 15.3330446 15 23 15 7.66695538"></polygon>
                </g>
                <g id="Page-1-Copy-4" transform="translate(90.698951, 99.698951) rotate(-1.000000) translate(-90.698951, -99.698951) translate(79.198951, 88.198951)">
                    <polygon id="Fill-1" fill="#3F3A37" points="0 23 15 23 15 8 0 8"></polygon>
                    <polygon id="Stroke-2" stroke="#FFFFFF" stroke-width="2" stroke-linecap="round" stroke-linejoin="round" points="0 23 15 23 15 8 0 8"></polygon>
                    <polygon id="Fill-4" fill="#3F3A37" points="7.66695538 0 0 8 15.3339108 8 23 0"></polygon>
                    <polygon id="Stroke-5" stroke="#FFFFFF" stroke-width="2" stroke-linecap="round" stroke-linejoin="round" points="23 0 15.3330446 8 0 8 7.66695538 0"></polygon>
                    <polygon id="Fill-7" fill="#3F3A37" points="23 0 23 15.3330446 15 23 15 7.66695538"></polygon>
                    <polygon id="Stroke-8" stroke="#FFFFFF" stroke-width="2" stroke-linejoin="round" points="23 0 23 15.3330446 15 23 15 7.66695538"></polygon>
                </g>
                <g id="Page-1" transform="translate(63.941856, 256.530524) rotate(117.000000) translate(-63.941856, -256.530524) translate(38.441856, 241.530524)">
                    <path d="M48.3548,29.6758 C47.6028,29.6098 47.1218,28.1338 47.2758,26.3848 C47.4288,24.6368 48.1618,23.2678 48.9138,23.3338 C49.6658,23.4008 50.1468,24.8758 49.9938,26.6248 C49.8388,28.3728 49.1068,29.7418 48.3548,29.6758" id="Fill-1" fill="#FFFFFF"></path>
                    <path d="M48.3548,29.6758 C47.6028,29.6098 47.1218,28.1338 47.2758,26.3848 C47.4288,24.6368 48.1618,23.2678 48.9138,23.3338 C49.6658,23.4008 50.1468,24.8758 49.9938,26.6248 C49.8388,28.3728 49.1068,29.7418 48.3548,29.6758 Z" id="Stroke-3" stroke="#3F3A37" stroke-width="2" stroke-linecap="round" stroke-linejoin="round"></path>
                    <path d="M48.3548,29.6758 L24.5008,27.5758 C22.4268,27.3928 20.8738,25.5398 21.0558,23.4648 L21.3218,20.4488 C21.3168,20.5028 21.3208,20.5668 21.3338,20.6228 L22.2688,9.9958 C22.2778,9.8958 22.2788,9.7868 22.2678,9.6948 C22.1978,8.8398 21.5288,8.1418 20.6498,8.0648 L1.1088,6.3438 C1.8608,6.4098 2.5918,5.0408 2.7468,3.2928 C2.9008,1.5438 2.4178,0.0688 1.6668,0.0028 L25.5208,2.1018 C27.5948,2.2848 29.1488,4.1378 28.9658,6.2128 L28.7008,9.2298 C28.7058,9.1748 28.7018,9.1108 28.6878,9.0548 L27.7518,19.6808 C27.7438,19.7808 27.7438,19.8908 27.7528,19.9828 C27.8248,20.8388 28.4938,21.5358 29.3728,21.6138 L48.9138,23.3338 C48.1618,23.2678 47.4288,24.6368 47.2758,26.3848 C47.1218,28.1338 47.6028,29.6098 48.3548,29.6758" id="Fill-5" fill="#FFFFFF"></path>
                    <path d="M48.3548,29.6758 L24.5008,27.5758 C22.4268,27.3928 20.8738,25.5398 21.0558,23.4648 L21.3218,20.4488 C21.3168,20.5028 21.3208,20.5668 21.3338,20.6228 L22.2688,9.9958 C22.2778,9.8958 22.2788,9.7868 22.2678,9.6948 C22.1978,8.8398 21.5288,8.1418 20.6498,8.0648 L1.1088,6.3438 C1.8608,6.4098 2.5918,5.0408 2.7468,3.2928 C2.9008,1.5438 2.4178,0.0688 1.6668,0.0028 L25.5208,2.1018 C27.5948,2.2848 29.1488,4.1378 28.9658,6.2128 L28.7008,9.2298 C28.7058,9.1748 28.7018,9.1108 28.6878,9.0548 L27.7518,19.6808 C27.7438,19.7808 27.7438,19.8908 27.7528,19.9828 C27.8248,20.8388 28.4938,21.5358 29.3728,21.6138 L48.9138,23.3338 C48.1618,23.2678 47.4288,24.6368 47.2758,26.3848 C47.1218,28.1338 47.6028,29.6098 48.3548,29.6758 Z" id="Stroke-7" stroke="#3F3A37" stroke-width="2" stroke-linecap="round" stroke-linejoin="round"></path>
                    <path d="M48.3548,29.6758 C47.6028,29.6098 47.1218,28.1338 47.2758,26.3848 C47.4288,24.6368 48.1618,23.2678 48.9138,23.3338 C49.6658,23.4008 50.1468,24.8758 49.9938,26.6248 C49.8388,28.3728 49.1068,29.7418 48.3548,29.6758" id="Fill-9" fill="#86FED4"></path>
                    <path d="M48.3548,29.6758 C47.6028,29.6098 47.1218,28.1338 47.2758,26.3848 C47.4288,24.6368 48.1618,23.2678 48.9138,23.3338 C49.6658,23.4008 50.1468,24.8758 49.9938,26.6248 C49.8388,28.3728 49.1068,29.7418 48.3548,29.6758 Z" id="Stroke-11" stroke="#3F3A37"></path>
                    <path d="M1.1087,6.3437 C0.3567,6.2777 -0.1253,4.8017 0.0287,3.0537 C0.1827,1.3047 0.9147,-0.0643 1.6667,0.0027 C2.4187,0.0687 2.9007,1.5437 2.7467,3.2927 C2.5917,5.0407 1.8607,6.4097 1.1087,6.3437" id="Fill-13" fill="#3F3A37"></path>
                    <path d="M1.1087,6.3437 C0.3567,6.2777 -0.1253,4.8017 0.0287,3.0537 C0.1827,1.3047 0.9147,-0.0643 1.6667,0.0027 C2.4187,0.0687 2.9007,1.5437 2.7467,3.2927 C2.5917,5.0407 1.8607,6.4097 1.1087,6.3437 Z" id="Stroke-15" stroke="#3F3A37" stroke-width="2"></path>
                </g>
                <g id="Page-1" transform="translate(0.000000, 490.000000)">
                    <path d="M21.8120216,53.0548501 C20.1383676,53.8345586 17.2672457,51.2663543 15.277068,47.2655319 C15.1314111,47.379721 14.9794517,47.500215 14.826792,47.6144041 C16.6720131,51.7553359 16.8106673,55.6671888 15.1188061,56.4595072 C13.4136398,57.2525261 10.4913979,54.5953523 8.49491774,50.4992556 C8.31074577,50.5440906 8.13357654,50.5819201 7.95640731,50.6071398 C7.95640731,50.6134447 7.96270977,50.6197496 7.96270977,50.6260545 C9.95918993,54.9127 10.1622693,59.0473268 8.41928819,59.8585599 C6.66930435,60.6767985 3.63992056,57.8613012 1.6434404,53.5746557 C0.420062347,50.956012 -0.131753285,48.3941126 0.0265085585,46.6126223 C-0.0813335828,43.7908201 2.64483172,40.3917673 6.84717386,38.4323381 C10.1118496,36.9044457 13.4451521,36.6256281 15.7588563,37.4683858 C15.7973713,37.4753913 15.8288836,37.4880011 15.8603959,37.500611 C17.5844696,38.0015019 19.7903316,40.4555171 21.3554432,43.8223447 C23.3526237,48.1026852 23.5620055,52.2366115 21.8120216,53.0548501" id="Fill-1" fill="#3F3A37"></path>
                    <path d="M21.8120216,53.0548501 C20.1383676,53.8345586 17.2672457,51.2663543 15.277068,47.2655319 C15.1314111,47.379721 14.9794517,47.500215 14.826792,47.6144041 C16.6720131,51.7553359 16.8106673,55.6671888 15.1188061,56.4595072 C13.4136398,57.2525261 10.4913979,54.5953523 8.49491774,50.4992556 C8.31074577,50.5440906 8.13357654,50.5819201 7.95640731,50.6071398 C7.95640731,50.6134447 7.96270977,50.6197496 7.96270977,50.6260545 C9.95918993,54.9127 10.1622693,59.0473268 8.41928819,59.8585599 C6.66930435,60.6767985 3.63992056,57.8613012 1.6434404,53.5746557 C0.420062347,50.956012 -0.131753285,48.3941126 0.0265085585,46.6126223 C-0.0813335828,43.7908201 2.64483172,40.3917673 6.84717386,38.4323381 C10.1118496,36.9044457 13.4451521,36.6256281 15.7588563,37.4683858 C15.7973713,37.4753913 15.8288836,37.4880011 15.8603959,37.500611 C17.5844696,38.0015019 19.7903316,40.4555171 21.3554432,43.8223447 C23.3526237,48.1026852 23.5620055,52.2366115 21.8120216,53.0548501 Z" id="Stroke-3" stroke="#FFFFFF" stroke-width="2"></path>
                    <path d="M63.4466688,88.6027308 C62.2564537,89.9853284 63.9989174,93.3453142 67.3580784,96.2364488 C67.2098285,96.345277 67.0538499,96.458212 66.9034921,96.5732003 C63.37149,93.7847338 59.6174642,92.6635978 58.4103865,94.0612533 C57.1990931,95.4705445 59.0146279,98.9010291 62.4644252,101.821595 C62.3737889,101.984495 62.2901788,102.14192 62.2199181,102.303451 C62.2135947,102.301398 62.209379,102.293869 62.2030556,102.2925 C58.5691755,99.3233374 54.6163121,98.0865286 53.3776171,99.5266203 C52.1311934,100.971503 54.0717922,104.544354 57.7056723,107.512832 C59.9252058,109.330058 62.2634797,110.498422 64.0312373,110.799581 C66.7362718,111.614766 70.7369124,109.900893 73.7257999,106.428657 C76.0542373,103.733276 77.1903518,100.656654 76.9739491,98.2590111 C76.9781647,98.2213661 76.9739491,98.1885123 76.9697334,98.1556585 C76.9317927,96.4007178 75.1274996,93.6978081 72.2728099,91.3686104 C68.6445507,88.4008168 64.6937951,87.1578479 63.4466688,88.6027308" id="Fill-5" fill="#3F3A37"></path>
                    <path d="M63.4466688,88.6027308 C62.2564537,89.9853284 63.9989174,93.3453142 67.3580784,96.2364488 C67.2098285,96.345277 67.0538499,96.458212 66.9034921,96.5732003 C63.37149,93.7847338 59.6174642,92.6635978 58.4103865,94.0612533 C57.1990931,95.4705445 59.0146279,98.9010291 62.4644252,101.821595 C62.3737889,101.984495 62.2901788,102.14192 62.2199181,102.303451 C62.2135947,102.301398 62.209379,102.293869 62.2030556,102.2925 C58.5691755,99.3233374 54.6163121,98.0865286 53.3776171,99.5266203 C52.1311934,100.971503 54.0717922,104.544354 57.7056723,107.512832 C59.9252058,109.330058 62.2634797,110.498422 64.0312373,110.799581 C66.7362718,111.614766 70.7369124,109.900893 73.7257999,106.428657 C76.0542373,103.733276 77.1903518,100.656654 76.9739491,98.2590111 C76.9781647,98.2213661 76.9739491,98.1885123 76.9697334,98.1556585 C76.9317927,96.4007178 75.1274996,93.6978081 72.2728099,91.3686104 C68.6445507,88.4008168 64.6937951,87.1578479 63.4466688,88.6027308 Z" id="Stroke-7" stroke="#FFFFFF" stroke-width="2"></path>
                    <g id="Group-12" transform="translate(42.000000, 21.000000)">
                        <polyline id="Fill-9" fill="#FFFFFF" points="6.83456471 101.952192 0.545858824 11.9972122 23.5470353 0.692559184"></polyline>
                        <polyline id="Stroke-11" stroke="#3F3A37" stroke-width="2" stroke-linejoin="round" points="6.83456471 101.952192 0.545858824 11.9972122 23.5470353 0.692559184"></polyline>
                    </g>
                    <path d="M66.9986635,15.0070223 C66.9796911,16.9332389 66.5468408,18.8719318 65.681843,20.6907128 C65.5996295,20.8730068 65.5103893,21.0553008 65.4211491,21.2306634 C64.1429759,23.8153563 62.6799982,25.9044591 59.8692822,27.7807701 C56.2947541,30.1644545 53.7243542,30.7418342 53.7187328,30.7418342 C44.1974322,33.6342782 38.6575109,34.0792696 34.6374842,30.1138558 C32.7297107,28.2319997 31.7817967,26.1304205 32.0424907,24.5181932 C33.3656352,16.3114986 34.0022624,10.0379519 38.453734,5.01897596 L38.473409,5.00026137 C39.6623419,3.67013917 42.4674365,2.02602772 43.9936553,1.11663724 C44.0575991,1.07920806 44.1271643,1.04108575 44.2037563,1.00365657 C45.1832909,0.539257464 47.4979155,0 49.2665586,0 C53.788298,0 58.3107402,1.56232175 61.8086763,4.23434942 C65.2496954,6.85716464 67.0562831,10.8974368 66.9986635,15.0070223" id="Fill-13" fill="#FFFFFF"></path>
                    <path d="M66.9986635,15.0070223 C66.9796911,16.9332389 66.5468408,18.8719318 65.681843,20.6907128 C65.5996295,20.8730068 65.5103893,21.0553008 65.4211491,21.2306634 C64.1429759,23.8153563 62.6799982,25.9044591 59.8692822,27.7807701 C56.2947541,30.1644545 53.7243542,30.7418342 53.7187328,30.7418342 C44.1974322,33.6342782 38.6575109,34.0792696 34.6374842,30.1138558 C32.7297107,28.2319997 31.7817967,26.1304205 32.0424907,24.5181932 C33.3656352,16.3114986 34.0022624,10.0379519 38.453734,5.01897596 L38.473409,5.00026137 C39.6623419,3.67013917 42.4674365,2.02602772 43.9936553,1.11663724 C44.0575991,1.07920806 44.1271643,1.04108575 44.2037563,1.00365657 C45.1832909,0.539257464 47.4979155,0 49.2665586,0 C53.788298,0 58.3107402,1.56232175 61.8086763,4.23434942 C65.2496954,6.85716464 67.0562831,10.8974368 66.9986635,15.0070223 Z" id="Stroke-15" stroke="#3F3A37" stroke-width="2" stroke-linejoin="round"></path>
                    <path d="M44,1.38058111 C43.9286778,1.41447785 43.863899,1.44900231 43.8043548,1.48289905 C42.3831462,2.30709208 39.7710538,3.79541019 38.6639244,5 C38.0475439,4.14755968 37.8283427,3.27252154 38.142422,2.52867635 C38.7699262,1.04537998 41.2871405,0.596561993 44,1.38058111" id="Fill-17" fill="#3F3A37"></path>
                    <path d="M44,1.38058111 C43.9286778,1.41447785 43.863899,1.44900231 43.8043548,1.48289905 C42.3831462,2.30709208 39.7710538,3.79541019 38.6639244,5 C38.0475439,4.14755968 37.8283427,3.27252154 38.142422,2.52867635 C38.7699262,1.04537998 41.2871405,0.596561993 44,1.38058111 Z" id="Stroke-19" stroke="#3F3A37"></path>
                    <path d="M68.8528351,19.3742921 C68.3810866,20.5328596 66.8689524,21.1001443 65,20.9854875 C65.0848613,20.8168353 65.1697225,20.6415169 65.2479018,20.4661986 C66.0704547,18.7170151 66.4820653,16.852508 66.5001066,15 C68.3931142,16.3032217 69.396749,18.0410729 68.8528351,19.3742921" id="Fill-21" fill="#3F3A37"></path>
                    <path d="M68.8528351,19.3742921 C68.3810866,20.5328596 66.8689524,21.1001443 65,20.9854875 C65.0848613,20.8168353 65.1697225,20.6415169 65.2479018,20.4661986 C66.0704547,18.7170151 66.4820653,16.852508 66.5001066,15 C68.3931142,16.3032217 69.396749,18.0410729 68.8528351,19.3742921 Z" id="Stroke-23" stroke="#3F3A37"></path>
                    <path d="M42,12.4995857 C42,13.3280862 41.3280862,14 40.4995857,14 C39.6710853,14 39,13.3280862 39,12.4995857 C39,11.6710853 39.6710853,11 40.4995857,11 C41.3280862,11 42,11.6710853 42,12.4995857" id="Fill-25" fill="#3F3A37"></path>
                    <path d="M42,12.4995857 C42,13.3280862 41.3280862,14 40.4995857,14 C39.6710853,14 39,13.3280862 39,12.4995857 C39,11.6710853 39.6710853,11 40.4995857,11 C41.3280862,11 42,11.6710853 42,12.4995857 Z" id="Stroke-27" stroke="#3F3A37"></path>
                    <path d="M41,27 C41,28.6572551 39.2088013,30 37,30 C34.7911987,30 33,28.6572551 33,27 C33,25.3427449 34.7911987,24 37,24 C39.2088013,24 41,25.3427449 41,27" id="Fill-29" fill="#3F3A37"></path>
                    <path d="M41,27 C41,28.6572551 39.2088013,30 37,30 C34.7911987,30 33,28.6572551 33,27 C33,25.3427449 34.7911987,24 37,24 C39.2088013,24 41,25.3427449 41,27 Z" id="Stroke-31" stroke="#3F3A37"></path>
                    <path d="M51,16.4995857 C51,17.3280862 50.3280862,18 49.4995857,18 C48.6719138,18 48,17.3280862 48,16.4995857 C48,15.6710853 48.6719138,15 49.4995857,15 C50.3280862,15 51,15.6710853 51,16.4995857" id="Fill-33" fill="#3F3A37"></path>
                    <path d="M51,16.4995857 C51,17.3280862 50.3280862,18 49.4995857,18 C48.6719138,18 48,17.3280862 48,16.4995857 C48,15.6710853 48.6719138,15 49.4995857,15 C50.3280862,15 51,15.6710853 51,16.4995857 Z" id="Stroke-35" stroke="#3F3A37"></path>
                    <g id="Group-40" transform="translate(65.000000, 21.000000)">
                        <polyline id="Fill-37" fill="#3F3A37" points="38.4672321 101.744792 0.249321429 0.692628571 28.7172321 101.744792"></polyline>
                        <polyline id="Stroke-39" stroke="#3F3A37" stroke-width="2" stroke-linejoin="round" points="38.4672321 101.744792 0.249321429 0.692628571 28.7172321 101.744792"></polyline>
                    </g>
                    <path d="M37.4598508,101.99288 C34.156878,101.99288 30.8539052,101.97816 27.5509324,101.999889 C26.1682764,102.009001 25.1144609,101.458784 24.2646097,100.369565 C22.5378507,98.1546802 20.776404,95.9685327 19.0288324,93.7704697 C17.2215977,91.4981099 15.4143631,89.226451 13.6078222,86.9540912 C13.0410234,86.2419637 12.4908748,85.5151169 11.9060384,84.8177086 C11.059656,83.8090948 10.8272477,82.6841295 11.1214003,81.4035616 C12.4208055,75.747895 13.7042543,70.0887238 14.9932531,64.4309544 C15.2090112,63.4854229 15.4136693,62.5363867 15.6439963,61.5936588 C15.9062361,60.5219629 16.5403292,59.7327349 17.5226879,59.2547123 C20.5217955,57.7961124 23.5278407,56.3508299 26.5318046,54.8992392 C29.6280381,53.40279 32.7256591,51.9077427 35.8205051,50.4063872 C36.9506338,49.8582733 38.0620311,49.8673851 39.1949348,50.4169009 C44.5777884,53.024998 49.9654983,55.6218805 55.3518207,58.2229684 C55.9470635,58.5103427 56.5367562,58.813838 57.1424052,59.0773813 C58.4556855,59.6486254 59.1688668,60.6551364 59.478282,62.0541586 C60.4245654,66.3367368 61.4138616,70.6095021 62.3872014,74.8850711 C62.8853183,77.0747232 63.3758038,79.2650762 63.8891834,81.4505227 C64.2110862,82.8208076 63.8121764,83.9555856 62.9456751,85.0195715 C61.0947338,87.2919313 59.2895804,89.6021404 57.4643081,91.8962285 C55.5682726,94.2793325 53.6708497,96.6610347 51.7734267,99.0434378 C51.3599481,99.5628143 50.9485507,100.083593 50.5350721,100.602969 C49.8094032,101.514857 48.8596511,101.984469 47.7087097,101.988674 C44.2926547,101.999889 40.8759059,101.99288 37.4598508,101.99288" id="Fill-41" fill="#3F3A37"></path>
                    <path d="M37.4598508,101.99288 C34.156878,101.99288 30.8539052,101.97816 27.5509324,101.999889 C26.1682764,102.009001 25.1144609,101.458784 24.2646097,100.369565 C22.5378507,98.1546802 20.776404,95.9685327 19.0288324,93.7704697 C17.2215977,91.4981099 15.4143631,89.226451 13.6078222,86.9540912 C13.0410234,86.2419637 12.4908748,85.5151169 11.9060384,84.8177086 C11.059656,83.8090948 10.8272477,82.6841295 11.1214003,81.4035616 C12.4208055,75.747895 13.7042543,70.0887238 14.9932531,64.4309544 C15.2090112,63.4854229 15.4136693,62.5363867 15.6439963,61.5936588 C15.9062361,60.5219629 16.5403292,59.7327349 17.5226879,59.2547123 C20.5217955,57.7961124 23.5278407,56.3508299 26.5318046,54.8992392 C29.6280381,53.40279 32.7256591,51.9077427 35.8205051,50.4063872 C36.9506338,49.8582733 38.0620311,49.8673851 39.1949348,50.4169009 C44.5777884,53.024998 49.9654983,55.6218805 55.3518207,58.2229684 C55.9470635,58.5103427 56.5367562,58.813838 57.1424052,59.0773813 C58.4556855,59.6486254 59.1688668,60.6551364 59.478282,62.0541586 C60.4245654,66.3367368 61.4138616,70.6095021 62.3872014,74.8850711 C62.8853183,77.0747232 63.3758038,79.2650762 63.8891834,81.4505227 C64.2110862,82.8208076 63.8121764,83.9555856 62.9456751,85.0195715 C61.0947338,87.2919313 59.2895804,89.6021404 57.4643081,91.8962285 C55.5682726,94.2793325 53.6708497,96.6610347 51.7734267,99.0434378 C51.3599481,99.5628143 50.9485507,100.083593 50.5350721,100.602969 C49.8094032,101.514857 48.8596511,101.984469 47.7087097,101.988674 C44.2926547,101.999889 40.8759059,101.99288 37.4598508,101.99288 Z" id="Stroke-43" stroke="#3F3A37" stroke-width="2"></path>
                    <path d="M36.6544951,61.2174632 C36.6301716,60.3101545 36.5022996,59.5685041 36.3924965,58.8233881 C36.3174412,58.3132436 36.305627,57.8017128 36.6927177,57.3823684 C37.2695314,56.7571641 38.1820091,56.9214362 38.5128083,57.7088332 C38.7136507,58.1857075 38.6330357,58.6722855 38.5517259,59.1560911 C38.4259388,59.9095247 38.325865,60.6643445 38.3467137,61.4309476 C38.3501885,61.5855158 38.3606129,61.7400841 38.4565168,61.8613821 C38.6101022,62.0561519 38.7435338,62.2481492 38.7581279,62.5122322 C38.7664674,62.6508585 38.9179678,62.6508585 39.0291609,62.6633348 C41.6665201,62.9502911 44.0328465,63.916516 46.1531582,65.496855 C46.7070384,65.9099612 47.2164414,66.3729728 47.7112503,66.8519265 C47.8530214,66.9891665 47.9600447,67.0272887 48.1171048,66.8886624 C48.1984147,66.8158837 48.2943187,66.7306285 48.417326,66.7493431 C48.9156096,66.8276669 49.2387643,66.5171441 49.5535796,66.2225634 C50.0004365,65.803219 50.4389539,65.374864 50.8434185,64.9104661 C51.1290456,64.5819219 51.4515053,64.2852618 51.8761236,64.1410905 C52.3785771,63.9705802 52.9143884,64.1480218 53.1798617,64.5583554 C53.4356056,64.9548265 53.3744495,65.5502261 53.0394805,65.9265964 C52.746209,66.2572199 52.3771871,66.4838738 51.9928763,66.69112 C51.37645,67.023823 50.7919917,67.404352 50.2388065,67.8347865 C50.0310146,67.9976723 49.864225,68.1827383 49.8607503,68.4655358 C49.8586654,68.6284217 49.7398279,68.7178356 49.6341945,68.8072495 C49.4931184,68.9250818 49.4792192,69.026279 49.5834627,69.1877785 C50.6196426,70.780594 51.3062594,72.5148081 51.647483,74.3827967 C51.9067017,75.7995568 51.9449243,77.2253276 51.7836944,78.6545641 C51.7628457,78.8361644 51.8107977,78.9207264 51.9796721,78.9533036 C52.0644568,78.9699387 52.1582759,78.9907327 52.204143,79.0642046 C52.5509262,79.615937 53.143029,79.5972224 53.6809252,79.6977265 C54.3967302,79.8315008 55.131994,79.7836747 55.8457142,79.9306185 C56.135511,79.9895347 56.4100187,80.0872662 56.6254552,80.3056025 C56.9493049,80.6334535 57.0945507,81.0084375 56.9347108,81.4624384 C56.7957195,81.8575232 56.3551172,82.168046 55.9047855,82.1888399 C55.4885066,82.2089407 55.101416,82.0862565 54.7240547,81.9309951 C54.0249286,81.6440388 53.3202429,81.3730245 52.5801144,81.2073662 C52.3069966,81.1463706 52.0359636,81.1290423 51.7871692,81.2947007 C51.7037745,81.3501512 51.6106503,81.3730245 51.5168312,81.3452993 C51.2513579,81.2683617 51.1617085,81.4069879 51.0831785,81.6357212 C50.2860635,83.9584038 48.9489676,85.9310551 47.1406912,87.5876386 C46.5207901,88.1560061 45.8515472,88.6654576 45.1280976,89.0986645 C44.9272553,89.2185762 44.8209269,89.3384879 44.947409,89.5693006 C44.9891064,89.645545 45.0037005,89.7349589 44.9752072,89.8167484 C44.851505,90.1702453 44.9640879,90.4821544 45.1267077,90.7905977 C45.4575069,91.4171883 45.8369531,92.0132811 46.2511471,92.58858 C46.4658886,92.8880126 46.6590864,93.2026942 46.7403963,93.5686675 C46.8717431,94.1640671 46.5986252,94.7178789 46.0843575,94.918887 C45.5978881,95.1088049 44.9974458,94.882151 44.6909701,94.3858691 C44.4817882,94.0455417 44.3566961,93.6705577 44.2455031,93.2893356 C44.0481355,92.6093739 43.8194949,91.9411955 43.5074595,91.3042079 C43.3941816,91.0733952 43.2378164,90.8945674 42.9848523,90.818323 C42.8680996,90.7822801 42.7812301,90.712967 42.7409226,90.6013729 C42.6596127,90.3754122 42.5234013,90.3774915 42.320474,90.4523497 C41.1161147,90.8931811 39.8665832,91.1496397 38.5906434,91.2342017 C36.6287817,91.3645103 34.7065325,91.1392427 32.8447444,90.4807681 C32.7738589,90.4558154 32.7001935,90.4357146 32.6313929,90.4045237 C32.485452,90.3386762 32.374259,90.3615495 32.3124079,90.5181972 C32.2408274,90.6984113 32.1073958,90.7989153 31.9246223,90.8557521 C31.7418487,90.9132819 31.6327406,91.0595326 31.5451761,91.220339 C31.1817139,91.8871312 30.9760069,92.6135327 30.7473662,93.3316166 C30.6049002,93.7807656 30.4888425,94.242391 30.146924,94.5951947 C29.7417644,95.0124597 29.1816296,95.1178156 28.7597911,94.8613571 C28.3038998,94.5834115 28.1134817,94.0254409 28.2934754,93.4688566 C28.4046684,93.1250635 28.5902218,92.8186995 28.8007935,92.5261982 C29.2413959,91.912084 29.6451655,91.2757895 29.9731849,90.5930553 C30.0795132,90.3719465 30.1392794,90.1522239 30.0475452,89.9137868 C29.9926437,89.7716949 29.9982033,89.6316824 30.0739535,89.5048394 C30.1983507,89.2955138 30.1024468,89.1957029 29.9217581,89.0848019 C28.8702892,88.4388037 27.9279284,87.658338 27.075217,86.7669713 C25.6714052,85.2996126 24.6296656,83.6104519 23.9534731,81.7001824 C23.8624338,81.4437239 23.7762593,81.2642029 23.462834,81.3820352 C23.3884736,81.4097605 23.3092486,81.3813421 23.2460076,81.3390611 C22.9318873,81.132508 22.603173,81.174789 22.2647292,81.2642029 C21.5961812,81.4409514 20.9491769,81.6752297 20.311207,81.9386195 C19.8907584,82.1119023 19.4612754,82.2567667 18.9935698,82.1978506 C18.5091852,82.1368551 18.146418,81.8235598 18.0289704,81.3667863 C17.9247269,80.963384 18.1075005,80.5024518 18.4855567,80.2328237 C18.8712575,79.9583438 19.3215892,79.8945757 19.7760906,79.8717024 C20.5509669,79.8321939 21.3188937,79.7504044 22.0763961,79.584053 C22.3272753,79.5292956 22.5406269,79.420474 22.6803131,79.1993652 C22.7685726,79.0593527 22.9006143,78.9997434 23.0514198,78.9643937 C23.2098698,78.9262715 23.2480924,78.8410163 23.2286337,78.675358 C22.8276439,75.2866397 23.5239901,72.1398242 25.3385211,69.2460015 C25.4629183,69.0484592 25.5199047,68.9056741 25.2794498,68.7670479 C25.197445,68.7192219 25.1446283,68.6277285 25.1383737,68.529997 C25.1112704,68.1356054 24.8367626,67.9151897 24.5539154,67.7065572 C24.0069848,67.3017686 23.4294761,66.9434198 22.8304237,66.6197275 C22.4551473,66.4166401 22.0944649,66.1886 21.8505353,65.8253992 C21.5551788,65.3852609 21.5788073,64.8335285 21.8970973,64.4564652 C22.1966235,64.101582 22.745639,63.9899879 23.2195992,64.2048585 C23.6977292,64.4204223 24.0320032,64.8120414 24.3718368,65.1911842 C24.8318979,65.7068738 25.323927,66.1865206 25.8771123,66.6023993 C26.0647505,66.7431049 26.2711525,66.8359845 26.5102175,66.780534 C26.677007,66.7417186 26.7805555,66.8415295 26.8924435,66.923319 C27.0133659,67.0120398 27.0967606,67.0016428 27.2051738,66.8900487 C29.4686466,64.5791494 32.2053846,63.1921939 35.4084384,62.7187853 C35.5203263,62.7021502 35.6315193,62.6758112 35.7441023,62.6716524 C36.0325091,62.6605623 36.3014572,62.6356096 36.289643,62.2432973 C36.2882531,62.2003232 36.3091018,62.1441796 36.3396798,62.1136818 C36.6357312,61.8197942 36.6822933,61.4552072 36.6544951,61.2174632" id="Fill-45" fill="#3F3A37"></path>
                    <path d="M36.6544951,61.2174632 C36.6301716,60.3101545 36.5022996,59.5685041 36.3924965,58.8233881 C36.3174412,58.3132436 36.305627,57.8017128 36.6927177,57.3823684 C37.2695314,56.7571641 38.1820091,56.9214362 38.5128083,57.7088332 C38.7136507,58.1857075 38.6330357,58.6722855 38.5517259,59.1560911 C38.4259388,59.9095247 38.325865,60.6643445 38.3467137,61.4309476 C38.3501885,61.5855158 38.3606129,61.7400841 38.4565168,61.8613821 C38.6101022,62.0561519 38.7435338,62.2481492 38.7581279,62.5122322 C38.7664674,62.6508585 38.9179678,62.6508585 39.0291609,62.6633348 C41.6665201,62.9502911 44.0328465,63.916516 46.1531582,65.496855 C46.7070384,65.9099612 47.2164414,66.3729728 47.7112503,66.8519265 C47.8530214,66.9891665 47.9600447,67.0272887 48.1171048,66.8886624 C48.1984147,66.8158837 48.2943187,66.7306285 48.417326,66.7493431 C48.9156096,66.8276669 49.2387643,66.5171441 49.5535796,66.2225634 C50.0004365,65.803219 50.4389539,65.374864 50.8434185,64.9104661 C51.1290456,64.5819219 51.4515053,64.2852618 51.8761236,64.1410905 C52.3785771,63.9705802 52.9143884,64.1480218 53.1798617,64.5583554 C53.4356056,64.9548265 53.3744495,65.5502261 53.0394805,65.9265964 C52.746209,66.2572199 52.3771871,66.4838738 51.9928763,66.69112 C51.37645,67.023823 50.7919917,67.404352 50.2388065,67.8347865 C50.0310146,67.9976723 49.864225,68.1827383 49.8607503,68.4655358 C49.8586654,68.6284217 49.7398279,68.7178356 49.6341945,68.8072495 C49.4931184,68.9250818 49.4792192,69.026279 49.5834627,69.1877785 C50.6196426,70.780594 51.3062594,72.5148081 51.647483,74.3827967 C51.9067017,75.7995568 51.9449243,77.2253276 51.7836944,78.6545641 C51.7628457,78.8361644 51.8107977,78.9207264 51.9796721,78.9533036 C52.0644568,78.9699387 52.1582759,78.9907327 52.204143,79.0642046 C52.5509262,79.615937 53.143029,79.5972224 53.6809252,79.6977265 C54.3967302,79.8315008 55.131994,79.7836747 55.8457142,79.9306185 C56.135511,79.9895347 56.4100187,80.0872662 56.6254552,80.3056025 C56.9493049,80.6334535 57.0945507,81.0084375 56.9347108,81.4624384 C56.7957195,81.8575232 56.3551172,82.168046 55.9047855,82.1888399 C55.4885066,82.2089407 55.101416,82.0862565 54.7240547,81.9309951 C54.0249286,81.6440388 53.3202429,81.3730245 52.5801144,81.2073662 C52.3069966,81.1463706 52.0359636,81.1290423 51.7871692,81.2947007 C51.7037745,81.3501512 51.6106503,81.3730245 51.5168312,81.3452993 C51.2513579,81.2683617 51.1617085,81.4069879 51.0831785,81.6357212 C50.2860635,83.9584038 48.9489676,85.9310551 47.1406912,87.5876386 C46.5207901,88.1560061 45.8515472,88.6654576 45.1280976,89.0986645 C44.9272553,89.2185762 44.8209269,89.3384879 44.947409,89.5693006 C44.9891064,89.645545 45.0037005,89.7349589 44.9752072,89.8167484 C44.851505,90.1702453 44.9640879,90.4821544 45.1267077,90.7905977 C45.4575069,91.4171883 45.8369531,92.0132811 46.2511471,92.58858 C46.4658886,92.8880126 46.6590864,93.2026942 46.7403963,93.5686675 C46.8717431,94.1640671 46.5986252,94.7178789 46.0843575,94.918887 C45.5978881,95.1088049 44.9974458,94.882151 44.6909701,94.3858691 C44.4817882,94.0455417 44.3566961,93.6705577 44.2455031,93.2893356 C44.0481355,92.6093739 43.8194949,91.9411955 43.5074595,91.3042079 C43.3941816,91.0733952 43.2378164,90.8945674 42.9848523,90.818323 C42.8680996,90.7822801 42.7812301,90.712967 42.7409226,90.6013729 C42.6596127,90.3754122 42.5234013,90.3774915 42.320474,90.4523497 C41.1161147,90.8931811 39.8665832,91.1496397 38.5906434,91.2342017 C36.6287817,91.3645103 34.7065325,91.1392427 32.8447444,90.4807681 C32.7738589,90.4558154 32.7001935,90.4357146 32.6313929,90.4045237 C32.485452,90.3386762 32.374259,90.3615495 32.3124079,90.5181972 C32.2408274,90.6984113 32.1073958,90.7989153 31.9246223,90.8557521 C31.7418487,90.9132819 31.6327406,91.0595326 31.5451761,91.220339 C31.1817139,91.8871312 30.9760069,92.6135327 30.7473662,93.3316166 C30.6049002,93.7807656 30.4888425,94.242391 30.146924,94.5951947 C29.7417644,95.0124597 29.1816296,95.1178156 28.7597911,94.8613571 C28.3038998,94.5834115 28.1134817,94.0254409 28.2934754,93.4688566 C28.4046684,93.1250635 28.5902218,92.8186995 28.8007935,92.5261982 C29.2413959,91.912084 29.6451655,91.2757895 29.9731849,90.5930553 C30.0795132,90.3719465 30.1392794,90.1522239 30.0475452,89.9137868 C29.9926437,89.7716949 29.9982033,89.6316824 30.0739535,89.5048394 C30.1983507,89.2955138 30.1024468,89.1957029 29.9217581,89.0848019 C28.8702892,88.4388037 27.9279284,87.658338 27.075217,86.7669713 C25.6714052,85.2996126 24.6296656,83.6104519 23.9534731,81.7001824 C23.8624338,81.4437239 23.7762593,81.2642029 23.462834,81.3820352 C23.3884736,81.4097605 23.3092486,81.3813421 23.2460076,81.3390611 C22.9318873,81.132508 22.603173,81.174789 22.2647292,81.2642029 C21.5961812,81.4409514 20.9491769,81.6752297 20.311207,81.9386195 C19.8907584,82.1119023 19.4612754,82.2567667 18.9935698,82.1978506 C18.5091852,82.1368551 18.146418,81.8235598 18.0289704,81.3667863 C17.9247269,80.963384 18.1075005,80.5024518 18.4855567,80.2328237 C18.8712575,79.9583438 19.3215892,79.8945757 19.7760906,79.8717024 C20.5509669,79.8321939 21.3188937,79.7504044 22.0763961,79.584053 C22.3272753,79.5292956 22.5406269,79.420474 22.6803131,79.1993652 C22.7685726,79.0593527 22.9006143,78.9997434 23.0514198,78.9643937 C23.2098698,78.9262715 23.2480924,78.8410163 23.2286337,78.675358 C22.8276439,75.2866397 23.5239901,72.1398242 25.3385211,69.2460015 C25.4629183,69.0484592 25.5199047,68.9056741 25.2794498,68.7670479 C25.197445,68.7192219 25.1446283,68.6277285 25.1383737,68.529997 C25.1112704,68.1356054 24.8367626,67.9151897 24.5539154,67.7065572 C24.0069848,67.3017686 23.4294761,66.9434198 22.8304237,66.6197275 C22.4551473,66.4166401 22.0944649,66.1886 21.8505353,65.8253992 C21.5551788,65.3852609 21.5788073,64.8335285 21.8970973,64.4564652 C22.1966235,64.101582 22.745639,63.9899879 23.2195992,64.2048585 C23.6977292,64.4204223 24.0320032,64.8120414 24.3718368,65.1911842 C24.8318979,65.7068738 25.323927,66.1865206 25.8771123,66.6023993 C26.0647505,66.7431049 26.2711525,66.8359845 26.5102175,66.780534 C26.677007,66.7417186 26.7805555,66.8415295 26.8924435,66.923319 C27.0133659,67.0120398 27.0967606,67.0016428 27.2051738,66.8900487 C29.4686466,64.5791494 32.2053846,63.1921939 35.4084384,62.7187853 C35.5203263,62.7021502 35.6315193,62.6758112 35.7441023,62.6716524 C36.0325091,62.6605623 36.3014572,62.6356096 36.289643,62.2432973 C36.2882531,62.2003232 36.3091018,62.1441796 36.3396798,62.1136818 C36.6357312,61.8197942 36.6822933,61.4552072 36.6544951,61.2174632 Z" id="Stroke-47" stroke="#3F3A37" stroke-width="2"></path>
                    <path d="M41,80.9932477 C41.0035768,80.4002134 41.5365189,79.9162682 42.1145287,80.0121787 C43.7448308,80.2808744 45.372987,80.564213 47.0018584,80.8416945 C47.2508032,80.8841587 47.4976019,80.9522478 47.7479774,80.9683549 C48.0527202,80.9888548 48.0312594,81.1243009 47.9411242,81.3512646 C47.5333698,82.3813871 47.0183117,83.3485454 46.3601818,84.2329718 C45.5818717,85.2792014 44.6597745,86.1702171 43.5981823,86.9126081 C43.4214888,87.0363399 43.3406532,87.0495185 43.2469413,86.8145012 C42.5644892,85.0998268 41.8677299,83.3917418 41.1759782,81.6814603 C41.0865584,81.4603537 41,81.2377828 41,80.9932477" id="Fill-49" fill="#3F3A37"></path>
                    <path d="M41,80.9932477 C41.0035768,80.4002134 41.5365189,79.9162682 42.1145287,80.0121787 C43.7448308,80.2808744 45.372987,80.564213 47.0018584,80.8416945 C47.2508032,80.8841587 47.4976019,80.9522478 47.7479774,80.9683549 C48.0527202,80.9888548 48.0312594,81.1243009 47.9411242,81.3512646 C47.5333698,82.3813871 47.0183117,83.3485454 46.3601818,84.2329718 C45.5818717,85.2792014 44.6597745,86.1702171 43.5981823,86.9126081 C43.4214888,87.0363399 43.3406532,87.0495185 43.2469413,86.8145012 C42.5644892,85.0998268 41.8677299,83.3917418 41.1759782,81.6814603 C41.0865584,81.4603537 41,81.2377828 41,80.9932477 Z" id="Stroke-51" stroke="#3F3A37" stroke-width="2"></path>
                    <path d="M36.9980603,66.3399221 C36.8993187,67.9208934 36.8028212,69.472682 36.7063237,71.0244706 C36.6838824,71.3899835 36.71156,71.7569557 36.6337635,72.1210095 C36.4691942,72.8834068 35.7420967,73.235058 35.0576376,72.8301484 C34.485385,72.492359 33.9520305,72.0896381 33.4037153,71.7124521 C32.3325182,70.9741305 31.2658093,70.2285132 30.1893759,69.4974872 C29.9746876,69.3508443 29.9193325,69.2684033 30.1452414,69.0655837 C32.0205844,67.3824731 34.2258142,66.3844257 36.7362454,66.0072396 C37.0848333,65.9547108 36.9808554,66.2005748 36.9980603,66.3399221" id="Fill-53" fill="#3F3A37"></path>
                    <path d="M36.9980603,66.3399221 C36.8993187,67.9208934 36.8028212,69.472682 36.7063237,71.0244706 C36.6838824,71.3899835 36.71156,71.7569557 36.6337635,72.1210095 C36.4691942,72.8834068 35.7420967,73.235058 35.0576376,72.8301484 C34.485385,72.492359 33.9520305,72.0896381 33.4037153,71.7124521 C32.3325182,70.9741305 31.2658093,70.2285132 30.1893759,69.4974872 C29.9746876,69.3508443 29.9193325,69.2684033 30.1452414,69.0655837 C32.0205844,67.3824731 34.2258142,66.3844257 36.7362454,66.0072396 C37.0848333,65.9547108 36.9808554,66.2005748 36.9980603,66.3399221 Z" id="Stroke-55" stroke="#3F3A37" stroke-width="2"></path>
                    <path d="M26,76.8474431 C26.0395873,74.7620989 26.5100168,72.8893752 27.4554942,71.1517037 C27.5511636,70.9757896 27.6224208,70.9487792 27.7741723,71.0921423 C28.7401032,72.0063417 29.7165907,72.9080747 30.6805422,73.8236593 C31.0447457,74.1706395 31.4511756,74.4726024 31.759297,74.882607 C32.1927783,75.4595222 32.0284909,76.1583307 31.3654031,76.4118133 C30.7940259,76.6306671 30.2002159,76.7858039 29.6149832,76.9644884 C28.5302903,77.2962319 27.4449376,77.6265904 26.3589251,77.9541785 C26.068618,78.041443 26.0547625,78.0255137 26.0422265,77.71524 C26.0290307,77.3959628 26.0112164,77.0766856 26,76.8474431" id="Fill-57" fill="#3F3A37"></path>
                    <path d="M26,76.8474431 C26.0395873,74.7620989 26.5100168,72.8893752 27.4554942,71.1517037 C27.5511636,70.9757896 27.6224208,70.9487792 27.7741723,71.0921423 C28.7401032,72.0063417 29.7165907,72.9080747 30.6805422,73.8236593 C31.0447457,74.1706395 31.4511756,74.4726024 31.759297,74.882607 C32.1927783,75.4595222 32.0284909,76.1583307 31.3654031,76.4118133 C30.7940259,76.6306671 30.2002159,76.7858039 29.6149832,76.9644884 C28.5302903,77.2962319 27.4449376,77.6265904 26.3589251,77.9541785 C26.068618,78.041443 26.0547625,78.0255137 26.0422265,77.71524 C26.0290307,77.3959628 26.0112164,77.0766856 26,76.8474431 Z" id="Stroke-59" stroke="#3F3A37" stroke-width="2"></path>
                    <path d="M48.9980083,77.0017033 C48.9796155,77.2551772 48.9454576,77.5086512 48.9467714,77.7628195 C48.9474283,77.9885155 48.8837107,78.0385158 48.6767927,77.9739321 C47.6757035,77.6607355 46.6706731,77.3607335 45.6669564,77.0551759 C45.0843015,76.8773969 44.5003329,76.7003124 43.9183349,76.5190612 C43.7902427,76.4794776 43.6628075,76.4315606 43.5419411,76.3725324 C42.9645413,76.0878082 42.8187133,75.35447 43.2496283,74.8600222 C43.7107599,74.3315464 44.2480899,73.8891823 44.7479776,73.4051513 C45.5441194,72.6336183 46.3593107,71.8843077 47.15808,71.1155525 C47.3157318,70.9634681 47.3899596,70.944718 47.5055709,71.1613861 C48.3634596,72.7759804 48.8758281,74.4947419 48.9467714,76.3523934 C48.9553109,76.5690615 49.0111459,76.7822574 48.9980083,77.0017033" id="Fill-61" fill="#3F3A37"></path>
                    <path d="M48.9980083,77.0017033 C48.9796155,77.2551772 48.9454576,77.5086512 48.9467714,77.7628195 C48.9474283,77.9885155 48.8837107,78.0385158 48.6767927,77.9739321 C47.6757035,77.6607355 46.6706731,77.3607335 45.6669564,77.0551759 C45.0843015,76.8773969 44.5003329,76.7003124 43.9183349,76.5190612 C43.7902427,76.4794776 43.6628075,76.4315606 43.5419411,76.3725324 C42.9645413,76.0878082 42.8187133,75.35447 43.2496283,74.8600222 C43.7107599,74.3315464 44.2480899,73.8891823 44.7479776,73.4051513 C45.5441194,72.6336183 46.3593107,71.8843077 47.15808,71.1155525 C47.3157318,70.9634681 47.3899596,70.944718 47.5055709,71.1613861 C48.3634596,72.7759804 48.8758281,74.4947419 48.9467714,76.3523934 C48.9553109,76.5690615 49.0111459,76.7822574 48.9980083,77.0017033 Z" id="Stroke-63" stroke="#3F3A37" stroke-width="2"></path>
                    <path d="M37.4768734,88 C36.3561746,87.9561574 35.2511167,87.8205824 34.1766603,87.4792842 C33.9672093,87.4125085 33.9665293,87.3335918 34.0583341,87.1696877 C34.9260596,85.623054 35.7822245,84.0703498 36.6574305,82.5284376 C37.068172,81.8046966 37.9168565,81.8289787 38.3704403,82.5729547 C38.6812166,83.0828784 38.9600312,83.6116882 39.2510865,84.1330785 C39.8114359,85.1353889 40.3643049,86.1424207 40.9334948,87.1400096 C41.0593014,87.3598973 41.0055786,87.4388141 40.7811668,87.5001938 C39.870599,87.7484107 38.9511908,87.9446908 38.0011809,87.9575064 C37.8264118,87.9595299 37.6516426,87.985161 37.4768734,88" id="Fill-65" fill="#3F3A37"></path>
                    <path d="M37.4768734,88 C36.3561746,87.9561574 35.2511167,87.8205824 34.1766603,87.4792842 C33.9672093,87.4125085 33.9665293,87.3335918 34.0583341,87.1696877 C34.9260596,85.623054 35.7822245,84.0703498 36.6574305,82.5284376 C37.068172,81.8046966 37.9168565,81.8289787 38.3704403,82.5729547 C38.6812166,83.0828784 38.9600312,83.6116882 39.2510865,84.1330785 C39.8114359,85.1353889 40.3643049,86.1424207 40.9334948,87.1400096 C41.0593014,87.3598973 41.0055786,87.4388141 40.7811668,87.5001938 C39.870599,87.7484107 38.9511908,87.9446908 38.0011809,87.9575064 C37.8264118,87.9595299 37.6516426,87.985161 37.4768734,88 Z" id="Stroke-67" stroke="#3F3A37" stroke-width="2"></path>
                    <path d="M32.88053,80.0000007 C33.6990606,79.9992609 34.1540398,80.5748717 33.9524667,81.3088124 C33.7314563,82.1123 33.3556665,82.8588184 33.0540268,83.6327116 C32.6429618,84.6877515 32.2045404,85.7309536 31.7905958,86.7837739 C31.6948486,87.0279275 31.6098999,87.0604814 31.3946487,86.9058507 C29.4221124,85.4934586 27.9729461,83.6534277 27.0788257,81.3561635 C26.9485231,81.0202672 26.9535624,81.021007 27.2962366,80.9610784 C29.0779984,80.6488576 30.8597602,80.3351571 32.6422419,80.0229364 C32.7473478,80.0044399 32.8560533,80.0022203 32.88053,80.0000007" id="Fill-69" fill="#3F3A37"></path>
                    <path d="M32.88053,80.0000007 C33.6990606,79.9992609 34.1540398,80.5748717 33.9524667,81.3088124 C33.7314563,82.1123 33.3556665,82.8588184 33.0540268,83.6327116 C32.6429618,84.6877515 32.2045404,85.7309536 31.7905958,86.7837739 C31.6948486,87.0279275 31.6098999,87.0604814 31.3946487,86.9058507 C29.4221124,85.4934586 27.9729461,83.6534277 27.0788257,81.3561635 C26.9485231,81.0202672 26.9535624,81.021007 27.2962366,80.9610784 C29.0779984,80.6488576 30.8597602,80.3351571 32.6422419,80.0229364 C32.7473478,80.0044399 32.8560533,80.0022203 32.88053,80.0000007 Z" id="Stroke-71" stroke="#3F3A37" stroke-width="2"></path>
                    <path d="M39.000447,66.4200972 C38.9959416,65.9823511 39.0192195,65.9676862 39.3668851,66.0226795 C41.6360982,66.3797689 43.6477533,67.2875239 45.4161176,68.7166148 C45.5730552,68.8434658 45.7089677,68.9959804 45.8711616,69.115499 C46.0656442,69.2584814 46.0250957,69.3516033 45.8486347,69.4725884 C44.979846,70.0672486 44.1163135,70.6692412 43.2512793,71.2683009 C42.5439336,71.7581073 41.8425951,72.2559794 41.1277404,72.7347872 C40.5247695,73.1373377 39.9120369,73.0735455 39.5478515,72.5984039 C39.3315929,72.3168386 39.3285893,71.9810132 39.3098169,71.6561865 C39.2369798,70.4052737 39.198684,69.1514279 39.1018182,67.9019816 C39.0605188,67.3762463 39.1123308,66.844645 39.000447,66.4200972" id="Fill-73" fill="#3F3A37"></path>
                    <path d="M39.000447,66.4200972 C38.9959416,65.9823511 39.0192195,65.9676862 39.3668851,66.0226795 C41.6360982,66.3797689 43.6477533,67.2875239 45.4161176,68.7166148 C45.5730552,68.8434658 45.7089677,68.9959804 45.8711616,69.115499 C46.0656442,69.2584814 46.0250957,69.3516033 45.8486347,69.4725884 C44.979846,70.0672486 44.1163135,70.6692412 43.2512793,71.2683009 C42.5439336,71.7581073 41.8425951,72.2559794 41.1277404,72.7347872 C40.5247695,73.1373377 39.9120369,73.0735455 39.5478515,72.5984039 C39.3315929,72.3168386 39.3285893,71.9810132 39.3098169,71.6561865 C39.2369798,70.4052737 39.198684,69.1514279 39.1018182,67.9019816 C39.0605188,67.3762463 39.1123308,66.844645 39.000447,66.4200972 Z" id="Stroke-75" stroke="#3F3A37" stroke-width="2"></path>
                    <polygon id="Fill-77" fill="#3F3A37" points="36.8322162 76 36 77.0702882 36.2970811 78.4059867 37.5003243 79 38.7029189 78.4059867 39 77.0702882 38.1677838 76"></polygon>
                    <polygon id="Stroke-79" stroke="#3F3A37" stroke-width="2" points="36.8322162 76 36 77.0702882 36.2970811 78.4059867 37.5003243 79 38.7029189 78.4059867 39 77.0702882 38.1677838 76"></polygon>
                    <path d="M36.4598579,100.992879 C33.1568859,100.992879 29.853914,100.97816 26.5509421,100.999889 C25.1675928,101.009001 24.1144713,100.458781 23.2646203,99.369557 C21.5378618,97.1546609 19.7764155,94.9685025 18.0288444,92.7704285 C16.2216102,90.4980573 14.414376,88.227088 12.6078356,85.9547168 C12.041037,85.2418848 11.4901948,84.5150344 10.9053586,83.8176225 C10.0596701,82.8097046 9.82726188,81.6840328 10.1214144,80.4034584 C11.4201255,74.7484644 12.7042677,69.088564 13.9932662,63.4314672 C14.2090243,62.48523 14.4136823,61.5361891 14.6440092,60.5941574 C14.906249,59.5217552 15.5396481,58.7325232 16.5227003,58.2544982 C19.5218071,56.795891 22.5278515,55.3506013 25.5311209,53.8997042 C28.6280473,52.4025467 31.7256675,50.9074918 34.8198189,49.4061288 C35.950641,48.8580121 37.062038,48.8678249 38.1949414,49.4166425 C43.5777936,52.0247527 48.9655021,54.6223491 54.351823,57.2227492 C54.9470656,57.5101249 55.5367582,57.8136218 56.1424071,58.0771663 C57.455687,58.6484133 58.1688681,59.6549293 58.4782832,61.0546595 C59.4245663,65.3365581 60.4131685,69.6093449 61.3872018,73.8856362 C61.8853186,76.0745983 62.375804,78.2656632 62.8891834,80.4504198 C63.2110861,81.8207115 62.8121765,82.9554953 61.9456753,84.0194864 C60.0947345,86.2918576 58.2895816,88.6027792 56.4643098,90.8961779 C54.5682749,93.2792938 52.6701587,95.661008 50.77343,98.043423 C50.3599515,98.5628021 49.9485542,99.0835831 49.5350757,99.6036631 C48.8087132,100.514854 47.8596551,100.985169 46.7080203,100.988674 C43.2926599,101.00059 39.875912,100.992879 36.4598579,100.992879" id="Fill-81" fill="#FFFFFF"></path>
                    <path d="M36.4598579,100.992879 C33.1568859,100.992879 29.853914,100.97816 26.5509421,100.999889 C25.1675928,101.009001 24.1144713,100.458781 23.2646203,99.369557 C21.5378618,97.1546609 19.7764155,94.9685025 18.0288444,92.7704285 C16.2216102,90.4980573 14.414376,88.227088 12.6078356,85.9547168 C12.041037,85.2418848 11.4901948,84.5150344 10.9053586,83.8176225 C10.0596701,82.8097046 9.82726188,81.6840328 10.1214144,80.4034584 C11.4201255,74.7484644 12.7042677,69.088564 13.9932662,63.4314672 C14.2090243,62.48523 14.4136823,61.5361891 14.6440092,60.5941574 C14.906249,59.5217552 15.5396481,58.7325232 16.5227003,58.2544982 C19.5218071,56.795891 22.5278515,55.3506013 25.5311209,53.8997042 C28.6280473,52.4025467 31.7256675,50.9074918 34.8198189,49.4061288 C35.950641,48.8580121 37.062038,48.8678249 38.1949414,49.4166425 C43.5777936,52.0247527 48.9655021,54.6223491 54.351823,57.2227492 C54.9470656,57.5101249 55.5367582,57.8136218 56.1424071,58.0771663 C57.455687,58.6484133 58.1688681,59.6549293 58.4782832,61.0546595 C59.4245663,65.3365581 60.4131685,69.6093449 61.3872018,73.8856362 C61.8853186,76.0745983 62.375804,78.2656632 62.8891834,80.4504198 C63.2110861,81.8207115 62.8121765,82.9554953 61.9456753,84.0194864 C60.0947345,86.2918576 58.2895816,88.6027792 56.4643098,90.8961779 C54.5682749,93.2792938 52.6701587,95.661008 50.77343,98.043423 C50.3599515,98.5628021 49.9485542,99.0835831 49.5350757,99.6036631 C48.8087132,100.514854 47.8596551,100.985169 46.7080203,100.988674 C43.2926599,101.00059 39.875912,100.992879 36.4598579,100.992879 Z" id="Stroke-83" stroke="#3F3A37" stroke-width="2"></path>
                    <path d="M35.6544951,60.2174632 C35.6301716,59.3108476 35.5022996,58.5691973 35.3924965,57.8233881 C35.3174412,57.3139367 35.305627,56.8017128 35.6927177,56.3823684 C36.2695314,55.7571641 37.1820091,55.9214362 37.5128083,56.7088332 C37.7129557,57.1857075 37.6330357,57.6722855 37.5517259,58.1567842 C37.4259388,58.9095247 37.3251701,59.6650377 37.3460188,60.4309476 C37.3501885,60.5855158 37.3599179,60.7407772 37.4558219,60.8620752 C37.6101022,61.0561519 37.7435338,61.2481492 37.7581279,61.5122322 C37.7664674,61.6515516 37.9179678,61.6515516 38.0291609,61.6633348 C40.6665201,61.9502911 43.0321515,62.916516 45.1531582,64.496855 C45.7070384,64.9099612 46.2164414,65.3729728 46.7112503,65.8519265 C46.8530214,65.9891665 46.9600447,66.0272887 47.1164099,65.8886624 C47.1984147,65.8158837 47.2943187,65.7306285 47.417326,65.7500362 C47.9156096,65.8276669 48.2387643,65.5171441 48.5528846,65.2225634 C49.0004365,64.803219 49.4389539,64.374864 49.8434185,63.9111592 C50.1290456,63.582615 50.4508104,63.2852618 50.8761236,63.1410905 C51.3778821,62.9705802 51.9136934,63.1480218 52.1798617,63.5583554 C52.4356056,63.9555196 52.3737545,64.5509193 52.0394805,64.9272895 C51.745514,65.2572199 51.3771871,65.484567 50.9928763,65.69112 C50.37645,66.023823 49.7912968,66.404352 49.2388065,66.8347865 C49.0303196,66.9976723 48.864225,67.1827383 48.8607503,67.4655358 C48.8586654,67.6284217 48.7398279,67.7185287 48.6341945,67.8072495 C48.4931184,67.9250818 48.4792192,68.026279 48.5834627,68.1877785 C49.6196426,69.780594 50.3062594,71.5148081 50.647483,73.3827967 C50.9060067,74.7995568 50.9449243,76.2253276 50.7829995,77.6552572 C50.7628457,77.8361644 50.8107977,77.9214196 50.9796721,77.9533036 C51.0644568,77.9699387 51.1575809,77.9907327 51.204143,78.0642046 C51.5509262,78.615937 52.1423341,78.5979156 52.6809252,78.6984196 C53.3960353,78.8315008 54.131994,78.7836747 54.8457142,78.9306185 C55.135511,78.9895347 55.4100187,79.0879593 55.6254552,79.3056025 C55.9493049,79.6334535 56.0945507,80.0084375 55.9347108,80.4624384 C55.7957195,80.8575232 55.3551172,81.168046 54.9047855,81.189533 C54.4885066,81.2096338 54.101416,81.0862565 53.7240547,80.9309951 C53.0249286,80.6440388 52.3202429,80.3730245 51.5801144,80.2080593 C51.3069966,80.1470637 51.0359636,80.1290423 50.7864743,80.2947007 C50.7030795,80.3501512 50.6106503,80.3730245 50.5168312,80.3452993 C50.2513579,80.2683617 50.1610136,80.4069879 50.0831785,80.6357212 C49.2860635,82.9590969 47.9489676,84.9310551 46.1406912,86.5876386 C45.5207901,87.1560061 44.8508522,87.6661507 44.1280976,88.0986645 C43.9272553,88.2185762 43.8209269,88.3384879 43.946714,88.5693006 C43.9884114,88.6462382 44.0037005,88.7349589 43.9745123,88.8174416 C43.8508101,89.1702453 43.9640879,89.4821544 44.1267077,89.7905977 C44.4575069,90.4171883 44.8369531,91.0132811 45.2504521,91.58858 C45.4658886,91.8880126 45.6590864,92.2033873 45.7403963,92.5693606 C45.8717431,93.1640671 45.5986252,93.7178789 45.0843575,93.918887 C44.5978881,94.109498 43.9974458,93.882151 43.6909701,93.3858691 C43.4810933,93.0455417 43.3566961,92.6705577 43.2455031,92.2893356 C43.0481355,91.610067 42.8194949,90.9418886 42.5067645,90.3042079 C42.3941816,90.0733952 42.2378164,89.8945674 41.9848523,89.818323 C41.8680996,89.7829733 41.7812301,89.7136602 41.7409226,89.6013729 C41.6589178,89.3761053 41.5234013,89.3774915 41.320474,89.4523497 C40.1161147,89.8931811 38.8665832,90.1496397 37.5906434,90.2342017 C35.6287817,90.3645103 33.7065325,90.1392427 31.8447444,89.4814612 C31.7738589,89.4558154 31.7001935,89.4357146 31.6313929,89.4045237 C31.485452,89.3386762 31.374259,89.3615495 31.3117129,89.5181972 C31.2401324,89.6984113 31.1067008,89.7989153 30.9239273,89.8564452 C30.7418487,89.9132819 30.6327406,90.0602257 30.5451761,90.220339 C30.1817139,90.8871312 29.9753119,91.6135327 29.7473662,92.3316166 C29.6049002,92.7807656 29.4888425,93.242391 29.146924,93.5951947 C28.7417644,94.0124597 28.1816296,94.1178156 27.7597911,93.8613571 C27.3038998,93.5834115 27.1134817,93.0254409 27.2934754,92.4688566 C27.4046684,92.1250635 27.5902218,91.8186995 27.8007935,91.5261982 C28.2413959,90.912084 28.6451655,90.2757895 28.9724899,89.5930553 C29.0788182,89.3726396 29.1392794,89.1522239 29.0475452,88.9137868 C28.9926437,88.7716949 28.9982033,88.6316824 29.0732586,88.5048394 C29.1983507,88.2955138 29.1024468,88.1957029 28.9217581,88.085495 C27.8702892,87.4388037 26.9279284,86.658338 26.075217,85.7669713 C24.6714052,84.2996126 23.6296656,82.6104519 22.9527782,80.7001824 C22.8624338,80.444417 22.7755643,80.2642029 22.462139,80.3827283 C22.3884736,80.4104536 22.3092486,80.3813421 22.2460076,80.3397542 C21.9311924,80.1332011 21.603173,80.174789 21.2640343,80.2642029 C20.5961812,80.4409514 19.9491769,80.6752297 19.310512,80.9386195 C18.8900634,81.1125955 18.4612754,81.2567667 17.9935698,81.1985437 C17.5091852,81.1368551 17.1457231,80.8235598 17.0289704,80.3674795 C16.9247269,79.963384 17.1075005,79.5024518 17.4855567,79.2328237 C17.8712575,78.9583438 18.3215892,78.8945757 18.7760906,78.8717024 C19.5509669,78.8321939 20.3188937,78.7504044 21.0763961,78.5847461 C21.3272753,78.5292956 21.5406269,78.4211671 21.6803131,78.2000583 C21.7685726,78.0600458 21.9006143,77.9997434 22.0507248,77.9643937 C22.2091749,77.9262715 22.2480924,77.8410163 22.2286337,77.675358 C21.8276439,74.2873328 22.5239901,71.1405173 24.3385211,68.2460015 C24.4622233,68.0484592 24.5199047,67.9056741 24.2787549,67.7670479 C24.197445,67.719915 24.1446283,67.6277285 24.1383737,67.5306902 C24.1112704,67.1356054 23.8367626,66.9158828 23.5539154,66.7065572 C23.0069848,66.3017686 22.4294761,65.9434198 21.8304237,65.6197275 C21.4551473,65.4166401 21.0944649,65.1886 20.8505353,64.8253992 C20.5551788,64.3859541 20.5788073,63.8342216 20.8970973,63.4564652 C21.1966235,63.101582 21.7449441,62.9899879 22.2189043,63.2048585 C22.6977292,63.4211155 23.0320032,63.8120414 23.3718368,64.1918773 C23.8318979,64.7068738 24.3232321,65.1872137 24.8771123,65.6023993 C25.0640555,65.7431049 25.2711525,65.8359845 25.5102175,65.780534 C25.677007,65.7424118 25.7805555,65.8415295 25.8917485,65.923319 C26.0126709,66.0120398 26.0967606,66.0016428 26.2051738,65.8900487 C28.4679516,63.5791494 31.2053846,62.1921939 34.4084384,61.7187853 C34.5203263,61.7021502 34.6315193,61.6758112 34.7441023,61.6716524 C35.0325091,61.6605623 35.3014572,61.6356096 35.288948,61.2432973 C35.2875581,61.2003232 35.3091018,61.1441796 35.3389849,61.1143749 C35.6357312,60.8197942 35.6822933,60.4559003 35.6544951,60.2174632" id="Fill-85" fill="#FFFFFF"></path>
                    <path d="M35.6544951,60.2174632 C35.6301716,59.3108476 35.5022996,58.5691973 35.3924965,57.8233881 C35.3174412,57.3139367 35.305627,56.8017128 35.6927177,56.3823684 C36.2695314,55.7571641 37.1820091,55.9214362 37.5128083,56.7088332 C37.7129557,57.1857075 37.6330357,57.6722855 37.5517259,58.1567842 C37.4259388,58.9095247 37.3251701,59.6650377 37.3460188,60.4309476 C37.3501885,60.5855158 37.3599179,60.7407772 37.4558219,60.8620752 C37.6101022,61.0561519 37.7435338,61.2481492 37.7581279,61.5122322 C37.7664674,61.6515516 37.9179678,61.6515516 38.0291609,61.6633348 C40.6665201,61.9502911 43.0321515,62.916516 45.1531582,64.496855 C45.7070384,64.9099612 46.2164414,65.3729728 46.7112503,65.8519265 C46.8530214,65.9891665 46.9600447,66.0272887 47.1164099,65.8886624 C47.1984147,65.8158837 47.2943187,65.7306285 47.417326,65.7500362 C47.9156096,65.8276669 48.2387643,65.5171441 48.5528846,65.2225634 C49.0004365,64.803219 49.4389539,64.374864 49.8434185,63.9111592 C50.1290456,63.582615 50.4508104,63.2852618 50.8761236,63.1410905 C51.3778821,62.9705802 51.9136934,63.1480218 52.1798617,63.5583554 C52.4356056,63.9555196 52.3737545,64.5509193 52.0394805,64.9272895 C51.745514,65.2572199 51.3771871,65.484567 50.9928763,65.69112 C50.37645,66.023823 49.7912968,66.404352 49.2388065,66.8347865 C49.0303196,66.9976723 48.864225,67.1827383 48.8607503,67.4655358 C48.8586654,67.6284217 48.7398279,67.7185287 48.6341945,67.8072495 C48.4931184,67.9250818 48.4792192,68.026279 48.5834627,68.1877785 C49.6196426,69.780594 50.3062594,71.5148081 50.647483,73.3827967 C50.9060067,74.7995568 50.9449243,76.2253276 50.7829995,77.6552572 C50.7628457,77.8361644 50.8107977,77.9214196 50.9796721,77.9533036 C51.0644568,77.9699387 51.1575809,77.9907327 51.204143,78.0642046 C51.5509262,78.615937 52.1423341,78.5979156 52.6809252,78.6984196 C53.3960353,78.8315008 54.131994,78.7836747 54.8457142,78.9306185 C55.135511,78.9895347 55.4100187,79.0879593 55.6254552,79.3056025 C55.9493049,79.6334535 56.0945507,80.0084375 55.9347108,80.4624384 C55.7957195,80.8575232 55.3551172,81.168046 54.9047855,81.189533 C54.4885066,81.2096338 54.101416,81.0862565 53.7240547,80.9309951 C53.0249286,80.6440388 52.3202429,80.3730245 51.5801144,80.2080593 C51.3069966,80.1470637 51.0359636,80.1290423 50.7864743,80.2947007 C50.7030795,80.3501512 50.6106503,80.3730245 50.5168312,80.3452993 C50.2513579,80.2683617 50.1610136,80.4069879 50.0831785,80.6357212 C49.2860635,82.9590969 47.9489676,84.9310551 46.1406912,86.5876386 C45.5207901,87.1560061 44.8508522,87.6661507 44.1280976,88.0986645 C43.9272553,88.2185762 43.8209269,88.3384879 43.946714,88.5693006 C43.9884114,88.6462382 44.0037005,88.7349589 43.9745123,88.8174416 C43.8508101,89.1702453 43.9640879,89.4821544 44.1267077,89.7905977 C44.4575069,90.4171883 44.8369531,91.0132811 45.2504521,91.58858 C45.4658886,91.8880126 45.6590864,92.2033873 45.7403963,92.5693606 C45.8717431,93.1640671 45.5986252,93.7178789 45.0843575,93.918887 C44.5978881,94.109498 43.9974458,93.882151 43.6909701,93.3858691 C43.4810933,93.0455417 43.3566961,92.6705577 43.2455031,92.2893356 C43.0481355,91.610067 42.8194949,90.9418886 42.5067645,90.3042079 C42.3941816,90.0733952 42.2378164,89.8945674 41.9848523,89.818323 C41.8680996,89.7829733 41.7812301,89.7136602 41.7409226,89.6013729 C41.6589178,89.3761053 41.5234013,89.3774915 41.320474,89.4523497 C40.1161147,89.8931811 38.8665832,90.1496397 37.5906434,90.2342017 C35.6287817,90.3645103 33.7065325,90.1392427 31.8447444,89.4814612 C31.7738589,89.4558154 31.7001935,89.4357146 31.6313929,89.4045237 C31.485452,89.3386762 31.374259,89.3615495 31.3117129,89.5181972 C31.2401324,89.6984113 31.1067008,89.7989153 30.9239273,89.8564452 C30.7418487,89.9132819 30.6327406,90.0602257 30.5451761,90.220339 C30.1817139,90.8871312 29.9753119,91.6135327 29.7473662,92.3316166 C29.6049002,92.7807656 29.4888425,93.242391 29.146924,93.5951947 C28.7417644,94.0124597 28.1816296,94.1178156 27.7597911,93.8613571 C27.3038998,93.5834115 27.1134817,93.0254409 27.2934754,92.4688566 C27.4046684,92.1250635 27.5902218,91.8186995 27.8007935,91.5261982 C28.2413959,90.912084 28.6451655,90.2757895 28.9724899,89.5930553 C29.0788182,89.3726396 29.1392794,89.1522239 29.0475452,88.9137868 C28.9926437,88.7716949 28.9982033,88.6316824 29.0732586,88.5048394 C29.1983507,88.2955138 29.1024468,88.1957029 28.9217581,88.085495 C27.8702892,87.4388037 26.9279284,86.658338 26.075217,85.7669713 C24.6714052,84.2996126 23.6296656,82.6104519 22.9527782,80.7001824 C22.8624338,80.444417 22.7755643,80.2642029 22.462139,80.3827283 C22.3884736,80.4104536 22.3092486,80.3813421 22.2460076,80.3397542 C21.9311924,80.1332011 21.603173,80.174789 21.2640343,80.2642029 C20.5961812,80.4409514 19.9491769,80.6752297 19.310512,80.9386195 C18.8900634,81.1125955 18.4612754,81.2567667 17.9935698,81.1985437 C17.5091852,81.1368551 17.1457231,80.8235598 17.0289704,80.3674795 C16.9247269,79.963384 17.1075005,79.5024518 17.4855567,79.2328237 C17.8712575,78.9583438 18.3215892,78.8945757 18.7760906,78.8717024 C19.5509669,78.8321939 20.3188937,78.7504044 21.0763961,78.5847461 C21.3272753,78.5292956 21.5406269,78.4211671 21.6803131,78.2000583 C21.7685726,78.0600458 21.9006143,77.9997434 22.0507248,77.9643937 C22.2091749,77.9262715 22.2480924,77.8410163 22.2286337,77.675358 C21.8276439,74.2873328 22.5239901,71.1405173 24.3385211,68.2460015 C24.4622233,68.0484592 24.5199047,67.9056741 24.2787549,67.7670479 C24.197445,67.719915 24.1446283,67.6277285 24.1383737,67.5306902 C24.1112704,67.1356054 23.8367626,66.9158828 23.5539154,66.7065572 C23.0069848,66.3017686 22.4294761,65.9434198 21.8304237,65.6197275 C21.4551473,65.4166401 21.0944649,65.1886 20.8505353,64.8253992 C20.5551788,64.3859541 20.5788073,63.8342216 20.8970973,63.4564652 C21.1966235,63.101582 21.7449441,62.9899879 22.2189043,63.2048585 C22.6977292,63.4211155 23.0320032,63.8120414 23.3718368,64.1918773 C23.8318979,64.7068738 24.3232321,65.1872137 24.8771123,65.6023993 C25.0640555,65.7431049 25.2711525,65.8359845 25.5102175,65.780534 C25.677007,65.7424118 25.7805555,65.8415295 25.8917485,65.923319 C26.0126709,66.0120398 26.0967606,66.0016428 26.2051738,65.8900487 C28.4679516,63.5791494 31.2053846,62.1921939 34.4084384,61.7187853 C34.5203263,61.7021502 34.6315193,61.6758112 34.7441023,61.6716524 C35.0325091,61.6605623 35.3014572,61.6356096 35.288948,61.2432973 C35.2875581,61.2003232 35.3091018,61.1441796 35.3389849,61.1143749 C35.6357312,60.8197942 35.6822933,60.4559003 35.6544951,60.2174632 Z" id="Stroke-87" stroke="#3F3A37" stroke-width="2"></path>
                    <path d="M40,79.9932477 C40.0035765,79.4002134 40.5364789,78.9162682 41.1151609,79.0121787 C42.7446262,79.2816066 44.3726609,79.564213 46.001411,79.8416945 C46.2503372,79.8848908 46.4971175,79.9522478 46.7481897,79.969087 C47.0521944,79.9888548 47.0314505,80.1243009 46.9413221,80.3512646 C46.5328828,81.3813871 46.017863,82.3485454 45.3597822,83.2329718 C44.5822454,84.2792014 43.6595016,85.1702171 42.5987039,85.9126081 C42.4220236,86.0363399 42.3404788,86.0495185 42.2474891,85.8145012 C41.5650879,84.0998268 40.8676653,82.3917418 40.1759651,80.6814603 C40.0865519,80.4603537 40,80.2385149 40,79.9932477" id="Fill-89" fill="#FFFFFF"></path>
                    <path d="M40,79.9932477 C40.0035765,79.4002134 40.5364789,78.9162682 41.1151609,79.0121787 C42.7446262,79.2816066 44.3726609,79.564213 46.001411,79.8416945 C46.2503372,79.8848908 46.4971175,79.9522478 46.7481897,79.969087 C47.0521944,79.9888548 47.0314505,80.1243009 46.9413221,80.3512646 C46.5328828,81.3813871 46.017863,82.3485454 45.3597822,83.2329718 C44.5822454,84.2792014 43.6595016,85.1702171 42.5987039,85.9126081 C42.4220236,86.0363399 42.3404788,86.0495185 42.2474891,85.8145012 C41.5650879,84.0998268 40.8676653,82.3917418 40.1759651,80.6814603 C40.0865519,80.4603537 40,80.2385149 40,79.9932477 Z" id="Stroke-91" stroke="#3F3A37" stroke-width="2"></path>
                    <path d="M34.9980329,64.3397302 C34.9000397,65.9206713 34.8027945,67.4724302 34.7062974,69.0241891 C34.6838562,69.3896951 34.7122817,69.7566602 34.6337375,70.1207071 C34.4691688,70.8830898 33.7428222,71.2354639 33.0576178,70.8298325 C32.4853674,70.4920495 31.952015,70.0893363 31.4044499,69.7121575 C30.332509,68.97385 29.2658043,68.2289765 28.1893751,67.497235 C27.9746877,67.3513244 27.9193328,67.2688849 28.1452408,67.0653397 C30.0213245,65.3822612 32.2257976,64.3842329 34.736967,64.0070541 C35.0848055,63.9552558 34.9808279,64.2011152 34.9980329,64.3397302" id="Fill-93" fill="#FFFFFF"></path>
                    <path d="M34.9980329,64.3397302 C34.9000397,65.9206713 34.8027945,67.4724302 34.7062974,69.0241891 C34.6838562,69.3896951 34.7122817,69.7566602 34.6337375,70.1207071 C34.4691688,70.8830898 33.7428222,71.2354639 33.0576178,70.8298325 C32.4853674,70.4920495 31.952015,70.0893363 31.4044499,69.7121575 C30.332509,68.97385 29.2658043,68.2289765 28.1893751,67.497235 C27.9746877,67.3513244 27.9193328,67.2688849 28.1452408,67.0653397 C30.0213245,65.3822612 32.2257976,64.3842329 34.736967,64.0070541 C35.0848055,63.9552558 34.9808279,64.2011152 34.9980329,64.3397302 Z" id="Stroke-95" stroke="#3F3A37" stroke-width="2"></path>
                    <path d="M25,75.8477647 C25.0402471,73.7616131 25.5100168,71.8894791 26.4554942,70.1517121 C26.5511636,69.9757883 26.6224208,69.9487764 26.7748321,70.0921473 C27.7401032,71.006397 28.7165907,71.9081797 29.6805422,72.8238146 C30.0447457,73.1708139 30.4511756,73.4727933 30.759297,73.8828205 C31.1927783,74.4597674 31.0284909,75.1586143 30.3654031,75.4121109 C29.7940259,75.6309767 29.2002159,75.7861221 28.6149832,75.9648163 C27.5302903,76.2965782 26.4449376,76.6262621 25.3595849,76.9538683 C25.0692778,77.0418302 25.0547625,77.0252075 25.0422265,76.7149167 C25.0290307,76.3963145 25.0118762,76.0770197 25,75.8477647" id="Fill-97" fill="#FFFFFF"></path>
                    <path d="M25,75.8477647 C25.0402471,73.7616131 25.5100168,71.8894791 26.4554942,70.1517121 C26.5511636,69.9757883 26.6224208,69.9487764 26.7748321,70.0921473 C27.7401032,71.006397 28.7165907,71.9081797 29.6805422,72.8238146 C30.0447457,73.1708139 30.4511756,73.4727933 30.759297,73.8828205 C31.1927783,74.4597674 31.0284909,75.1586143 30.3654031,75.4121109 C29.7940259,75.6309767 29.2002159,75.7861221 28.6149832,75.9648163 C27.5302903,76.2965782 26.4449376,76.6262621 25.3595849,76.9538683 C25.0692778,77.0418302 25.0547625,77.0252075 25.0422265,76.7149167 C25.0290307,76.3963145 25.0118762,76.0770197 25,75.8477647 Z" id="Stroke-99" stroke="#3F3A37" stroke-width="2"></path>
                    <path d="M46.9981711,76.0016118 C46.9797779,76.2557763 46.945619,76.5092464 46.9469328,76.7627165 C46.9475897,76.9891034 46.8838704,77.0384086 46.6769467,76.9738258 C45.6758304,76.660634 44.6707727,76.3606365 43.6670288,76.0550836 C43.0837012,75.8773073 42.5003736,75.7002255 41.9183598,75.518977 C41.7902642,75.479394 41.6628255,75.4321722 41.5419558,75.3724505 C40.9645403,75.0877307 40.8187084,74.3544036 41.2496351,73.8606578 C41.7101223,73.3321901 42.2481238,72.8898327 42.7480251,72.4051146 C43.5441884,71.6335934 44.3594019,70.8849886 45.157536,70.1155507 C45.315849,69.9634687 45.3900787,69.9447188 45.5056932,70.1613837 C46.3636052,71.7759533 46.8759876,73.4946887 46.9469328,75.3523118 C46.9554725,75.5689766 47.0106522,75.7821692 46.9981711,76.0016118" id="Fill-101" fill="#FFFFFF"></path>
                    <path d="M46.9981711,76.0016118 C46.9797779,76.2557763 46.945619,76.5092464 46.9469328,76.7627165 C46.9475897,76.9891034 46.8838704,77.0384086 46.6769467,76.9738258 C45.6758304,76.660634 44.6707727,76.3606365 43.6670288,76.0550836 C43.0837012,75.8773073 42.5003736,75.7002255 41.9183598,75.518977 C41.7902642,75.479394 41.6628255,75.4321722 41.5419558,75.3724505 C40.9645403,75.0877307 40.8187084,74.3544036 41.2496351,73.8606578 C41.7101223,73.3321901 42.2481238,72.8898327 42.7480251,72.4051146 C43.5441884,71.6335934 44.3594019,70.8849886 45.157536,70.1155507 C45.315849,69.9634687 45.3900787,69.9447188 45.5056932,70.1613837 C46.3636052,71.7759533 46.8759876,73.4946887 46.9469328,75.3523118 C46.9554725,75.5689766 47.0106522,75.7821692 46.9981711,76.0016118 Z" id="Stroke-103" stroke="#3F3A37" stroke-width="2"></path>
                    <path d="M36.4771248,87 C35.3557736,86.9561574 34.2514229,86.8205824 33.176313,86.4792842 C32.9675472,86.4125085 32.9661871,86.3335918 33.0586697,86.1696877 C33.9263739,84.6237285 34.7825177,83.0703498 35.657702,81.5284376 C36.0684335,80.8046966 36.9170971,80.8289787 37.3706697,81.5729547 C37.6814383,82.0828784 37.9602461,82.6116882 38.2512942,83.1330785 C38.8116298,84.1360634 39.3644851,85.1424207 39.933661,86.1400096 C40.0594645,86.3598973 40.005063,86.4394886 39.7813367,86.5008683 C38.8701114,86.7490852 37.9514058,86.9453653 37.0014194,86.9581809 C36.8266545,86.9602044 36.6518897,86.985161 36.4771248,87" id="Fill-105" fill="#FFFFFF"></path>
                    <path d="M36.4771248,87 C35.3557736,86.9561574 34.2514229,86.8205824 33.176313,86.4792842 C32.9675472,86.4125085 32.9661871,86.3335918 33.0586697,86.1696877 C33.9263739,84.6237285 34.7825177,83.0703498 35.657702,81.5284376 C36.0684335,80.8046966 36.9170971,80.8289787 37.3706697,81.5729547 C37.6814383,82.0828784 37.9602461,82.6116882 38.2512942,83.1330785 C38.8116298,84.1360634 39.3644851,85.1424207 39.933661,86.1400096 C40.0594645,86.3598973 40.005063,86.4394886 39.7813367,86.5008683 C38.8701114,86.7490852 37.9514058,86.9453653 37.0014194,86.9581809 C36.8266545,86.9602044 36.6518897,86.985161 36.4771248,87 Z" id="Stroke-107" stroke="#3F3A37" stroke-width="2"></path>
                    <path d="M31.8807726,79.0000007 C32.698617,78.9992609 33.1536149,79.5748717 32.9527535,80.3080726 C32.7317339,81.1123 32.3559287,81.8580785 32.0542766,82.6327116 C31.6431946,83.6870116 31.2047551,84.7302137 30.7907934,85.7837739 C30.6950422,86.0279275 30.6100901,86.0604814 30.39483,85.9058507 C28.4214924,84.4934586 26.9729863,82.6534277 26.0788289,80.3561635 C25.948521,80.0202672 25.9535605,80.021007 26.2962488,79.9610784 C28.0780841,79.6488576 29.8599194,79.3344173 31.6417547,79.0229364 C31.7475849,79.0044399 31.8562949,79.0022203 31.8807726,79.0000007" id="Fill-109" fill="#FFFFFF"></path>
                    <path d="M31.8807726,79.0000007 C32.698617,78.9992609 33.1536149,79.5748717 32.9527535,80.3080726 C32.7317339,81.1123 32.3559287,81.8580785 32.0542766,82.6327116 C31.6431946,83.6870116 31.2047551,84.7302137 30.7907934,85.7837739 C30.6950422,86.0279275 30.6100901,86.0604814 30.39483,85.9058507 C28.4214924,84.4934586 26.9729863,82.6534277 26.0788289,80.3561635 C25.948521,80.0202672 25.9535605,80.021007 26.2962488,79.9610784 C28.0780841,79.6488576 29.8599194,79.3344173 31.6417547,79.0229364 C31.7475849,79.0044399 31.8562949,79.0022203 31.8807726,79.0000007 Z" id="Stroke-111" stroke="#3F3A37" stroke-width="2"></path>
                    <path d="M38.0004468,64.420198 C37.9959415,63.9817169 38.0192193,63.9677853 38.3676359,64.0227787 C40.636849,64.3798695 42.6485042,65.2876281 44.4161176,66.7167245 C44.5730552,66.8435761 44.7097186,66.9960913 44.8711616,67.1156104 C45.0656442,67.2585933 45.0250957,67.3517156 44.8486347,67.4727012 C43.979846,68.0673637 43.1163135,68.6693586 42.2512792,69.2684206 C41.5446844,69.758229 40.8433459,70.256103 40.1277403,70.7341794 C39.5247694,71.1374647 38.9127877,71.0736723 38.5478513,70.5985289 C38.3315928,70.3169624 38.3285892,69.9811357 38.3105676,69.6563078 C38.2369797,68.4053901 38.1994348,67.1515394 38.1018181,65.9020882 C38.0612696,65.3763508 38.1123306,64.8447475 38.0004468,64.420198" id="Fill-113" fill="#FFFFFF"></path>
                    <path d="M38.0004468,64.420198 C37.9959415,63.9817169 38.0192193,63.9677853 38.3676359,64.0227787 C40.636849,64.3798695 42.6485042,65.2876281 44.4161176,66.7167245 C44.5730552,66.8435761 44.7097186,66.9960913 44.8711616,67.1156104 C45.0656442,67.2585933 45.0250957,67.3517156 44.8486347,67.4727012 C43.979846,68.0673637 43.1163135,68.6693586 42.2512792,69.2684206 C41.5446844,69.758229 40.8433459,70.256103 40.1277403,70.7341794 C39.5247694,71.1374647 38.9127877,71.0736723 38.5478513,70.5985289 C38.3315928,70.3169624 38.3285892,69.9811357 38.3105676,69.6563078 C38.2369797,68.4053901 38.1994348,67.1515394 38.1018181,65.9020882 C38.0612696,65.3763508 38.1123306,64.8447475 38.0004468,64.420198 Z" id="Stroke-115" stroke="#3F3A37" stroke-width="2"></path>
                    <polygon id="Fill-117" fill="#FFFFFF" points="35.8326848 74 35 75.0705256 35.2970169 76.405855 36.5 77 37.7029831 76.405855 38 75.0705256 37.1679637 74"></polygon>
                    <polygon id="Stroke-119" stroke="#3F3A37" stroke-width="2" points="35.8326848 74 35 75.0705256 35.2970169 76.405855 36.5 77 37.7029831 76.405855 38 75.0705256 37.1679637 74"></polygon>
                </g>
            </g>
        </g>
    </g>
</svg>