<svg id="Layer_1" data-name="Layer 1" xmlns="http://www.w3.org/2000/svg" viewBox="0 0 1919.99 1021"><defs><style>.cls-1,.cls-6{fill:#cf3800;}.cls-12,.cls-2,.cls-6{font-size:26.9px;}.cls-19,.cls-2{fill:#fff;}.cls-12,.cls-14,.cls-2,.cls-6{font-family:Montserrat-Bold, Montserrat;}.cls-12,.cls-14,.cls-2,.cls-20,.cls-6{font-weight:700;}.cls-3{letter-spacing:-0.01em;}.cls-4{letter-spacing:0em;}.cls-5{letter-spacing:0em;}.cls-7{letter-spacing:0.01em;}.cls-8{letter-spacing:0em;}.cls-9{letter-spacing:-0.01em;}.cls-10{letter-spacing:0em;}.cls-11{fill:aqua;}.cls-12,.cls-14,.cls-18,.cls-20{fill:#3f3936;}.cls-13{letter-spacing:-0.02em;}.cls-14{font-size:28.9px;}.cls-15{letter-spacing:-0.01em;}.cls-16{letter-spacing:-0.01em;}.cls-17{letter-spacing:0.01em;}.cls-20{font-size:34.97px;font-family:Montserrat-SemiBold, Montserrat;}.cls-21{fill:none;stroke:#3f3936;stroke-miterlimit:10;stroke-width:3px;}</style></defs><title>Illustrationsandgraphics</title><rect class="cls-1" x="665" y="377" width="600" height="226"/><text class="cls-2" transform="translate(909.13 575.31)">D<tspan class="cls-3" x="22.22" y="0">e</tspan><tspan class="cls-4" x="38.92" y="0">v</tspan><tspan class="cls-5" x="54.89" y="0">Ops</tspan></text><text class="cls-6" transform="translate(848.03 668.27)">T<tspan class="cls-7" x="16.62" y="0">h</tspan><tspan class="cls-8" x="35.37" y="0">e D</tspan><tspan class="cls-9" x="82.17" y="0">e</tspan><tspan class="cls-10" x="98.87" y="0">v</tspan><tspan x="114.84" y="0">Ops gap</tspan></text><polygon class="cls-11" points="1672.29 480.85 1563.73 315.75 1563.73 374.55 1267 374.55 1267 600.71 1563.73 600.71 1563.73 657.25 1672.29 480.85"/><rect class="cls-11" x="317.5" y="376.5" width="348" height="223"/><text class="cls-12" transform="translate(407.65 574.81)">D<tspan class="cls-3" x="22.22" y="0">e</tspan><tspan class="cls-13" x="38.92" y="0">v</tspan><tspan x="54.6" y="0">eloper</tspan></text><text class="cls-14" transform="translate(1385 582.81)"><tspan class="cls-15">P</tspan><tspan class="cls-16" x="20.86" y="0">r</tspan><tspan x="33.06" y="0">odu</tspan><tspan class="cls-17" x="91.83" y="0">c</tspan><tspan x="109.14" y="0">t</tspan></text><rect class="cls-18" x="1390.66" y="434.84" width="103.68" height="81.36" rx="1.44" ry="1.44"/><rect class="cls-18" x="1431.7" y="514.04" width="25.2" height="12.24"/><rect class="cls-18" x="1423.78" y="526.28" width="40.32" height="2.88"/><rect class="cls-11" x="1397.14" y="442.04" width="90.72" height="66.96"/><rect class="cls-18" x="1402.18" y="445.64" width="36.72" height="13.68"/><rect class="cls-18" x="1402.18" y="462.92" width="36.72" height="2.88"/><rect class="cls-18" x="1402.18" y="469.4" width="36.72" height="2.88"/><rect class="cls-18" x="1402.18" y="475.88" width="36.72" height="2.88"/><rect class="cls-18" x="1402.18" y="482.36" width="36.72" height="2.88"/><rect class="cls-18" x="1402.18" y="488.84" width="36.72" height="2.88"/><rect class="cls-18" x="1402.18" y="495.32" width="36.72" height="2.88"/><rect class="cls-18" x="1402.18" y="501.8" width="36.72" height="2.88"/><rect class="cls-18" x="1445.38" y="491" width="36.72" height="13.68" transform="translate(2927.48 995.68) rotate(180)"/><rect class="cls-18" x="1445.38" y="484.52" width="36.72" height="2.88"/><rect class="cls-18" x="1445.38" y="478.04" width="36.72" height="2.88"/><rect class="cls-18" x="1445.38" y="471.56" width="36.72" height="2.88"/><rect class="cls-18" x="1445.38" y="465.08" width="36.72" height="2.88"/><rect class="cls-18" x="1445.38" y="458.6" width="36.72" height="2.88"/><rect class="cls-18" x="1445.38" y="452.12" width="36.72" height="2.88"/><path class="cls-18" d="M497.56,494.56a32.7,32.7,0,0,1-35.86,0c-13.72,4.68-23.17,14.55-23.17,26h82.21C520.74,509.11,511.28,499.24,497.56,494.56Z"/><circle class="cls-18" cx="479.63" cy="467.19" r="24.49"/><path class="cls-19" d="M984.56,494.56a32.7,32.7,0,0,1-35.86,0c-13.72,4.68-23.17,14.55-23.17,26h82.21C1007.74,509.11,998.28,499.24,984.56,494.56Z"/><circle class="cls-19" cx="966.63" cy="467.19" r="24.49"/><text class="cls-20" transform="translate(493.84 445.51)">&lt;/&gt;</text><line class="cls-21" x1="1266.5" y1="355.34" x2="1265" y2="626.88"/><line class="cls-21" x1="666.5" y1="355.34" x2="665" y2="626.88"/></svg>