<svg id="Layer_1" data-name="Layer 1" xmlns="http://www.w3.org/2000/svg" xmlns:xlink="http://www.w3.org/1999/xlink" viewBox="0 0 1919.99 1021"><defs><style>.cls-1,.cls-16{fill:none;}.cls-2{clip-path:url(#clip-path);}.cls-3{fill:aqua;}.cls-4{fill:#7fffd3;}.cls-5{font-size:26.9px;}.cls-12,.cls-13,.cls-5,.cls-8{fill:#3f3936;}.cls-5,.cls-8{font-family:Montserrat-Bold, Montserrat;}.cls-13,.cls-5,.cls-8{font-weight:700;}.cls-6{letter-spacing:-0.01em;}.cls-7{letter-spacing:-0.02em;}.cls-8{font-size:28.9px;}.cls-9{letter-spacing:-0.01em;}.cls-10{letter-spacing:-0.01em;}.cls-11{letter-spacing:0.01em;}.cls-13{font-size:34.97px;font-family:Montserrat-SemiBold, Montserrat;}.cls-14{clip-path:url(#clip-path-2);}.cls-15{fill:#45ffd3;}.cls-16{stroke:#3f3936;stroke-miterlimit:10;stroke-width:3px;}.cls-17{letter-spacing:0em;}.cls-18{letter-spacing:-0.01em;}.cls-19{letter-spacing:0.01em;}.cls-20{letter-spacing:0em;}.cls-21{letter-spacing:0.08em;}.cls-22{letter-spacing:-0.01em;}.cls-23{letter-spacing:0.01em;}.cls-24{letter-spacing:-0.01em;}</style><clipPath id="clip-path"><rect class="cls-1" x="-1149" y="1277" width="790" height="1021" transform="translate(-1508 3575) rotate(-180)"/></clipPath><clipPath id="clip-path-2"><polyline class="cls-1" points="1076.5 594.5 1076.5 371.5 851.5 371.5 851.5 594.5"/></clipPath></defs><title>Illustrationsandgraphics</title><g class="cls-2"><polygon class="cls-3" points="711.17 883.42 -481.6 883.42 -1009.3 2332.14 183.46 2332.14 711.17 883.42"/><polygon class="cls-4" points="1037.28 883.42 -155.49 883.42 -683.19 2332.14 509.57 2332.14 1037.28 883.42"/></g><polygon class="cls-3" points="1513.29 475.85 1404.73 310.75 1404.73 369.55 1108 369.55 1108 595.71 1404.73 595.71 1404.73 652.25 1513.29 475.85"/><rect class="cls-3" x="505.5" y="371.5" width="348" height="223"/><text class="cls-5" transform="translate(595.65 569.81)">D<tspan class="cls-6" x="22.22" y="0">e</tspan><tspan class="cls-7" x="38.92" y="0">v</tspan><tspan x="54.6" y="0">eloper</tspan></text><text class="cls-8" transform="translate(1217 577.81)"><tspan class="cls-9">P</tspan><tspan class="cls-10" x="20.86" y="0">r</tspan><tspan x="33.06" y="0">odu</tspan><tspan class="cls-11" x="91.83" y="0">c</tspan><tspan x="109.14" y="0">t</tspan></text><rect class="cls-12" x="1227.66" y="429.84" width="103.68" height="81.36" rx="1.44" ry="1.44"/><rect class="cls-12" x="1268.7" y="509.04" width="25.2" height="12.24"/><rect class="cls-12" x="1260.78" y="521.28" width="40.32" height="2.88"/><rect class="cls-3" x="1234.14" y="437.04" width="90.72" height="66.96"/><rect class="cls-12" x="1239.18" y="440.64" width="36.72" height="13.68"/><rect class="cls-12" x="1239.18" y="457.92" width="36.72" height="2.88"/><rect class="cls-12" x="1239.18" y="464.4" width="36.72" height="2.88"/><rect class="cls-12" x="1239.18" y="470.88" width="36.72" height="2.88"/><rect class="cls-12" x="1239.18" y="477.36" width="36.72" height="2.88"/><rect class="cls-12" x="1239.18" y="483.84" width="36.72" height="2.88"/><rect class="cls-12" x="1239.18" y="490.32" width="36.72" height="2.88"/><rect class="cls-12" x="1239.18" y="496.8" width="36.72" height="2.88"/><rect class="cls-12" x="1282.38" y="486" width="36.72" height="13.68" transform="translate(2601.48 985.68) rotate(180)"/><rect class="cls-12" x="1282.38" y="479.52" width="36.72" height="2.88"/><rect class="cls-12" x="1282.38" y="473.04" width="36.72" height="2.88"/><rect class="cls-12" x="1282.38" y="466.56" width="36.72" height="2.88"/><rect class="cls-12" x="1282.38" y="460.08" width="36.72" height="2.88"/><rect class="cls-12" x="1282.38" y="453.6" width="36.72" height="2.88"/><rect class="cls-12" x="1282.38" y="447.12" width="36.72" height="2.88"/><path class="cls-12" d="M685.56,489.56a32.7,32.7,0,0,1-35.86,0c-13.72,4.68-23.17,14.55-23.17,26h82.21C708.74,504.11,699.28,494.24,685.56,489.56Z"/><circle class="cls-12" cx="667.63" cy="462.19" r="24.49"/><text class="cls-13" transform="translate(681.84 440.51)">&lt;/&gt;</text><rect class="cls-1" x="853.5" y="371.5" width="223" height="223"/><g class="cls-14"><polygon class="cls-3" points="854.23 321.25 962.79 486.35 854.23 662.75 745.23 662.75 853.79 486.35 745.23 321.25 854.23 321.25"/><polygon class="cls-15" points="957.23 321.25 1065.79 486.35 957.23 662.75 848.23 662.75 956.79 486.35 848.23 321.25 957.23 321.25"/></g><line class="cls-16" x1="1108.5" y1="350.34" x2="1107" y2="621.88"/><line class="cls-16" x1="852.5" y1="350.34" x2="851" y2="621.88"/><text class="cls-5" transform="translate(938.08 453.31)"><tspan class="cls-17">L</tspan><tspan class="cls-18" x="16.14" y="0">e</tspan><tspan x="32.71" y="0">an, </tspan><tspan class="cls-19"><tspan x="-18.41" y="33.42">m</tspan><tspan class="cls-20" x="9.96" y="33.42">odular</tspan></tspan><tspan x="-57.68" y="66.84">in</tspan><tspan class="cls-21" x="-31" y="66.84">f</tspan><tspan class="cls-22" x="-18.44" y="66.84">r</tspan><tspan x="-7.03" y="66.84">astru</tspan><tspan class="cls-23" x="65.61" y="66.84">c</tspan><tspan class="cls-20" x="81.72" y="66.84">tu</tspan><tspan class="cls-24" x="111.9" y="66.84">r</tspan><tspan x="123.25" y="66.84">e</tspan></text></svg>