<?xml version="1.0" encoding="utf-8"?>
<!-- Generator: Adobe Illustrator 15.0.0, SVG Export Plug-In . SVG Version: 6.00 Build 0)  -->
<!DOCTYPE svg PUBLIC "-//W3C//DTD SVG 1.1//EN" "http://www.w3.org/Graphics/SVG/1.1/DTD/svg11.dtd">
<svg version="1.1" id="Layer_1" xmlns="http://www.w3.org/2000/svg" xmlns:xlink="http://www.w3.org/1999/xlink" x="0px" y="0px"
	 width="736.945px" height="89.7px" viewBox="0 0 736.945 89.7" enable-background="new 0 0 736.945 89.7" xml:space="preserve">
<path fill="#3F3936" d="M151.526,15.521h-16.627v9.232h-0.082v12.79h0.082v28.524c6.292,0.823,11.986,2.658,16.627,5.218V37.543
	h8.628v-12.79h-8.628V15.521z M118.563,15.521h-16.627v9.232h-0.082v12.79h0.082v32.832c4.742-2.305,10.424-3.895,16.627-4.511
	V37.543h8.628v-12.79h-8.628V15.521z M232.375,79.266v2.389h18.843v-30.17c0.07-0.593,0.175-1.166,0.308-1.725
	C238.024,60.761,233.65,73.955,232.375,79.266 M194.422,22.837c-17.896,0-30.111,11.788-30.111,29.684
	c0,17.574,11.786,29.361,30.647,29.361c10.608,0,19.288-3.75,25.183-10.18l-9.753-9.538c-3.857,3.858-8.786,5.895-13.822,5.895
	c-6.858,0-11.788-3.857-13.61-10.716h40.614C224.855,36.233,214.782,22.837,194.422,22.837 M182.635,47.376
	c1.178-6.964,5.572-11.68,12.001-11.68c6.644,0,11.144,4.608,11.144,11.68H182.635z M251.217,32.859v-9.911h-18.843v35.873
	c24.202-24.31,37.904-19.753,37.904-19.753V22.075C261.891,22.186,255.247,25.999,251.217,32.859"/>
<polygon fill="#3F3936" points="346.257,83.333 297.051,16.283 297.051,83.333 292.618,83.333 292.618,9.524 297.792,9.524 
	347.103,76.575 347.103,9.524 351.432,9.524 351.432,83.333 "/>
<path fill="#3F3936" d="M419.433,57.041H371.39c0.633,13.41,9.926,22.386,22.701,22.386c7.498,0,14.148-2.746,18.584-7.604
	l2.535,2.852c-5.068,5.49-12.566,8.764-21.33,8.764c-15.522,0-26.82-11.404-26.82-27.559c0-16.156,11.298-27.665,26.82-27.665
	C410.036,28.214,419.75,40.041,419.433,57.041 M415.421,53.133c-0.846-12.459-8.977-20.907-21.541-20.907
	c-12.354,0-21.329,8.448-22.386,20.907H415.421z"/>
<path fill="#3F3936" d="M456.812,79.532c-3.484,2.428-7.393,3.906-11.51,3.906c-7.812,0.105-12.461-4.963-12.461-15.311V33.494
	h-8.023v-3.801h8.023V16.072h4.225v13.621h18.689v3.801h-18.689V67.6c0,7.812,3.062,11.614,8.766,11.509
	c3.168,0,6.439-1.161,9.291-3.168L456.812,79.532z"/>
<polygon fill="#3F3936" points="522.174,83.333 503.906,34.127 485.428,83.333 480.889,83.333 460.086,28.319 464.836,28.319 
	483.209,78.581 501.479,28.319 506.23,28.319 524.604,78.581 542.869,28.319 547.516,28.319 526.713,83.333 "/>
<path fill="#3F3936" d="M603.162,55.774c0,16.26-11.404,27.664-27.135,27.664c-15.629,0-27.137-11.404-27.137-27.664
	c0-16.05,11.508-27.56,27.137-27.56C591.758,28.214,603.162,39.724,603.162,55.774 M553.219,55.879
	c0,13.832,9.607,23.44,22.809,23.44c13.303,0,22.805-9.608,22.805-23.44c0-13.833-9.502-23.441-22.805-23.441
	C562.826,32.438,553.219,42.046,553.219,55.879"/>
<path fill="#3F3936" d="M619.424,42.152c3.484-8.869,10.666-13.727,20.484-13.938v4.541c-12.143,0-19.535,8.024-20.484,20.801
	v29.776h-4.436V28.32h4.436V42.152z"/>
<polygon fill="#3F3936" points="654.797,67.177 654.797,83.333 650.361,83.333 650.361,4.984 654.797,4.984 654.797,60.842 
	687.318,28.32 692.703,28.32 671.9,49.649 695.447,83.333 690.381,83.333 668.734,52.817 "/>
<path fill="#3F3936" d="M734.412,32.543l-1.9,3.59c-3.801-2.429-8.66-3.907-13.939-3.907c-7.707,0-13.725,2.957-13.725,9.504
	c0,14.782,32.098,7.497,32.098,26.924c0,10.242-9.186,14.783-19.109,14.783c-7.709,0-15.102-2.745-20.168-7.603l2.006-3.379
	c4.752,4.435,11.402,6.97,18.373,6.97c7.707,0,14.357-3.062,14.676-10.031c0.422-15.522-32.1-8.447-32.1-27.349
	c0-9.608,8.342-13.832,18.057-13.832C724.805,28.214,730.084,29.903,734.412,32.543"/>
<path fill="#3F3936" d="M46.206,0C20.687,0,0,20.687,0,46.206C0,66.24,12.751,83.293,30.58,89.7
	c-3.517-8.472-6.024-18.057-7.684-25.771c-2.11-7.902-3.455-15.836-3.801-22.449c-0.111-2.115,0.057-4.073,0.454-5.886
	c-1.738-1.413-2.852-3.564-2.865-5.979c-0.022-4.284,3.433-7.775,7.716-7.797c1.637-0.008,3.153,0.496,4.409,1.355
	c4.02-4.234,10.353-6.967,17.481-6.967c6.989,0,13.212,2.628,17.242,6.722c1.23-0.834,2.709-1.328,4.306-1.336
	c4.284-0.022,7.775,3.432,7.797,7.716c0.012,2.337-1.015,4.432-2.642,5.863c0.489,1.848,0.76,3.852,0.772,6.025
	c0,0,2.954,17.31,12.004,28.89c4.215-6.969,6.642-15.141,6.642-23.88C92.411,20.687,71.725,0,46.206,0"/>
</svg>
