<?xml version="1.0" encoding="utf-8"?>
<!-- Generator: Adobe Illustrator 15.0.0, SVG Export Plug-In . SVG Version: 6.00 Build 0)  -->
<!DOCTYPE svg PUBLIC "-//W3C//DTD SVG 1.1//EN" "http://www.w3.org/Graphics/SVG/1.1/DTD/svg11.dtd">
<svg version="1.1" id="Layer_1" xmlns="http://www.w3.org/2000/svg" xmlns:xlink="http://www.w3.org/1999/xlink" x="0px" y="0px"
	 width="1354.786px" height="357.922px" viewBox="0 0 1354.786 357.922" enable-background="new 0 0 1354.786 357.922"
	 xml:space="preserve">
<rect x="347.5" y="59.504" fill="#CF3800" width="602" height="225.25"/>
<g>
	<path fill="#FFFFFF" d="M606.814,241.917c1.515,0.792,2.694,1.899,3.54,3.322c0.845,1.423,1.267,3.058,1.267,4.905
		c0,1.83-0.431,3.458-1.293,4.885c-0.862,1.428-2.064,2.54-3.605,3.336c-1.541,0.797-3.31,1.195-5.306,1.195h-7.906v-18.832h8.103
		C603.566,240.728,605.3,241.125,606.814,241.917z M598.305,255.739h3.415c0.972,0,1.838-0.232,2.6-0.696s1.357-1.118,1.786-1.964
		c0.429-0.845,0.644-1.813,0.644-2.908s-0.223-2.066-0.67-2.916c-0.446-0.849-1.07-1.512-1.871-1.989
		c-0.801-0.478-1.701-0.716-2.699-0.716h-3.205V255.739z"/>
	<path fill="#FFFFFF" d="M625.903,246.959c1.265,1.37,1.898,3.276,1.898,5.719c0,0.395-0.009,0.688-0.026,0.88h-10.191
		c0.236,0.858,0.647,1.521,1.234,1.99c0.586,0.468,1.313,0.702,2.18,0.702c0.647,0,1.265-0.125,1.852-0.374
		c0.586-0.25,1.125-0.619,1.615-1.109l2.443,2.402c-0.753,0.823-1.668,1.454-2.745,1.892c-1.077,0.438-2.268,0.656-3.572,0.656
		c-1.559,0-2.916-0.304-4.071-0.912s-2.049-1.469-2.679-2.581c-0.63-1.111-0.945-2.403-0.945-3.874s0.319-2.771,0.958-3.9
		c0.639-1.129,1.528-2.003,2.666-2.62s2.451-0.926,3.94-0.926C622.823,244.904,624.638,245.589,625.903,246.959z M622.541,248.936
		c-0.512-0.534-1.188-0.802-2.029-0.802c-0.788,0-1.451,0.263-1.989,0.788c-0.539,0.525-0.882,1.239-1.031,2.141h5.818
		C623.309,250.179,623.053,249.47,622.541,248.936z"/>
	<path fill="#FFFFFF" d="M633.521,259.56l-5.463-14.498h4.78l3.125,10.243l3.139-10.243h4.636l-5.463,14.498H633.521z"/>
	<path fill="#FFFFFF" d="M659.476,241.825c1.554,0.836,2.772,1.979,3.657,3.428c0.884,1.448,1.326,3.07,1.326,4.865
		c0,1.812-0.442,3.454-1.326,4.925c-0.885,1.471-2.104,2.627-3.657,3.467c-1.555,0.841-3.29,1.261-5.207,1.261
		c-1.9,0-3.625-0.42-5.175-1.261c-1.55-0.84-2.769-1.996-3.657-3.467s-1.333-3.112-1.333-4.925s0.444-3.442,1.333-4.892
		s2.104-2.588,3.645-3.415c1.54-0.827,3.27-1.241,5.188-1.241C656.186,240.57,657.921,240.989,659.476,241.825z M651.675,245.304
		c-0.819,0.486-1.469,1.154-1.95,2.003c-0.482,0.85-0.723,1.795-0.723,2.837s0.24,1.994,0.723,2.856
		c0.481,0.862,1.131,1.539,1.95,2.028c0.818,0.491,1.7,0.736,2.646,0.736c0.954,0,1.83-0.245,2.627-0.736
		c0.797-0.489,1.429-1.166,1.897-2.028s0.703-1.814,0.703-2.856s-0.234-1.987-0.703-2.837c-0.469-0.849-1.101-1.517-1.897-2.003
		c-0.797-0.485-1.673-0.729-2.627-0.729C653.375,244.576,652.493,244.819,651.675,245.304z"/>
	<path fill="#FFFFFF" d="M679.641,245.83c1.033,0.617,1.832,1.491,2.396,2.62c0.564,1.13,0.847,2.438,0.847,3.927
		c0,1.453-0.277,2.736-0.834,3.848c-0.556,1.112-1.337,1.973-2.344,2.581s-2.18,0.912-3.52,0.912c-0.928,0-1.771-0.179-2.528-0.538
		c-0.757-0.358-1.395-0.875-1.91-1.55v7.145h-4.649v-19.712h4.649v1.917c0.516-0.665,1.143-1.178,1.878-1.536
		c0.735-0.359,1.554-0.539,2.455-0.539C677.421,244.904,678.607,245.212,679.641,245.83z M677.296,254.977
		c0.6-0.709,0.9-1.62,0.9-2.731c0-1.112-0.301-2.019-0.9-2.719s-1.381-1.051-2.344-1.051c-0.928,0-1.694,0.351-2.298,1.051
		c-0.604,0.7-0.906,1.606-0.906,2.719c0,1.129,0.295,2.044,0.886,2.744c0.591,0.701,1.364,1.051,2.318,1.051
		C675.915,256.041,676.696,255.686,677.296,254.977z"/>
	<path fill="#FFFFFF" d="M693.653,245.278c1.024,0.285,1.982,0.689,2.876,1.215l-1.589,3.008c-1.795-0.972-3.318-1.458-4.57-1.458
		c-0.43,0-0.773,0.086-1.031,0.256c-0.258,0.171-0.388,0.419-0.388,0.742c0,0.342,0.197,0.615,0.592,0.821
		c0.394,0.206,1.037,0.436,1.93,0.689c1.024,0.289,1.878,0.58,2.562,0.873c0.683,0.294,1.273,0.74,1.772,1.34
		s0.749,1.377,0.749,2.331c0,1.453-0.565,2.592-1.694,3.414c-1.13,0.823-2.601,1.234-4.413,1.234c-1.217,0-2.39-0.175-3.52-0.525
		c-1.129-0.35-2.123-0.854-2.98-1.51l1.471-2.968c0.806,0.577,1.661,1.024,2.567,1.339c0.906,0.315,1.767,0.473,2.58,0.473
		c0.481,0,0.865-0.085,1.149-0.256s0.427-0.418,0.427-0.742c0-0.376-0.206-0.672-0.617-0.886c-0.411-0.215-1.055-0.449-1.931-0.703
		c-1.007-0.289-1.841-0.58-2.501-0.873c-0.661-0.293-1.23-0.731-1.708-1.313c-0.477-0.582-0.716-1.351-0.716-2.305
		c0-1.453,0.548-2.587,1.642-3.401c1.095-0.814,2.513-1.222,4.255-1.222C691.6,244.851,692.629,244.994,693.653,245.278z"/>
</g>
<g>
	<path fill="#CF3800" d="M541.125,337.527v14.984h-4.793v-14.984h-5.621v-3.874h16.087v3.874H541.125z"/>
	<path fill="#CF3800" d="M562.314,339.32c0.967,1.011,1.451,2.361,1.451,4.051v9.141h-4.649v-7.854c0-0.84-0.229-1.508-0.689-2.003
		c-0.459-0.494-1.083-0.741-1.871-0.741c-0.893,0-1.609,0.323-2.147,0.972c-0.538,0.647-0.808,1.471-0.808,2.469v7.157h-4.649
		v-19.962h4.649v7.854c0.499-0.857,1.162-1.501,1.99-1.931c0.827-0.429,1.788-0.652,2.883-0.67
		C560.066,337.802,561.346,338.308,562.314,339.32z"/>
	<path fill="#CF3800" d="M578.996,339.911c1.265,1.37,1.898,3.276,1.898,5.719c0,0.395-0.009,0.688-0.026,0.88h-10.191
		c0.236,0.858,0.647,1.521,1.234,1.99c0.586,0.468,1.313,0.702,2.18,0.702c0.647,0,1.265-0.125,1.852-0.374
		c0.586-0.25,1.125-0.619,1.615-1.109l2.443,2.402c-0.753,0.823-1.668,1.454-2.745,1.892c-1.077,0.438-2.268,0.656-3.572,0.656
		c-1.559,0-2.916-0.304-4.071-0.912s-2.049-1.469-2.679-2.581c-0.63-1.111-0.945-2.403-0.945-3.874s0.319-2.771,0.958-3.9
		c0.639-1.129,1.528-2.003,2.666-2.62s2.451-0.926,3.94-0.926C575.917,337.855,577.731,338.541,578.996,339.911z M575.634,341.887
		c-0.512-0.534-1.188-0.802-2.029-0.802c-0.788,0-1.451,0.263-1.989,0.788c-0.539,0.525-0.882,1.239-1.031,2.141h5.818
		C576.402,343.13,576.146,342.421,575.634,341.887z"/>
	<path fill="#CF3800" d="M602.943,334.868c1.515,0.792,2.694,1.899,3.54,3.322c0.845,1.423,1.267,3.058,1.267,4.905
		c0,1.83-0.431,3.458-1.293,4.885c-0.862,1.428-2.064,2.54-3.605,3.336c-1.541,0.797-3.31,1.195-5.306,1.195h-7.906v-18.832h8.103
		C599.695,333.679,601.429,334.076,602.943,334.868z M594.434,348.69h3.415c0.972,0,1.838-0.232,2.6-0.696s1.357-1.118,1.786-1.964
		c0.429-0.845,0.644-1.813,0.644-2.908s-0.223-2.066-0.67-2.916c-0.446-0.849-1.07-1.512-1.871-1.989
		c-0.801-0.478-1.701-0.716-2.699-0.716h-3.205V348.69z"/>
	<path fill="#CF3800" d="M622.032,339.911c1.265,1.37,1.898,3.276,1.898,5.719c0,0.395-0.009,0.688-0.026,0.88h-10.191
		c0.236,0.858,0.647,1.521,1.234,1.99c0.586,0.468,1.313,0.702,2.18,0.702c0.647,0,1.265-0.125,1.852-0.374
		c0.586-0.25,1.125-0.619,1.615-1.109l2.443,2.402c-0.753,0.823-1.668,1.454-2.745,1.892c-1.077,0.438-2.268,0.656-3.572,0.656
		c-1.559,0-2.916-0.304-4.071-0.912s-2.049-1.469-2.679-2.581c-0.63-1.111-0.945-2.403-0.945-3.874s0.319-2.771,0.958-3.9
		c0.639-1.129,1.528-2.003,2.666-2.62s2.451-0.926,3.94-0.926C618.952,337.855,620.767,338.541,622.032,339.911z M618.67,341.887
		c-0.512-0.534-1.188-0.802-2.029-0.802c-0.788,0-1.451,0.263-1.989,0.788c-0.539,0.525-0.882,1.239-1.031,2.141h5.818
		C619.438,343.13,619.182,342.421,618.67,341.887z"/>
	<path fill="#CF3800" d="M629.623,352.511l-5.463-14.498h4.78l3.125,10.243l3.139-10.243h4.636l-5.463,14.498H629.623z"/>
	<path fill="#CF3800" d="M655.578,334.776c1.554,0.836,2.772,1.979,3.657,3.428c0.884,1.448,1.326,3.07,1.326,4.865
		c0,1.812-0.442,3.454-1.326,4.925c-0.885,1.471-2.104,2.627-3.657,3.467c-1.555,0.841-3.29,1.261-5.207,1.261
		c-1.9,0-3.625-0.42-5.175-1.261c-1.55-0.84-2.769-1.996-3.657-3.467c-0.889-1.471-1.333-3.112-1.333-4.925s0.444-3.442,1.333-4.892
		c0.888-1.449,2.104-2.588,3.645-3.415c1.54-0.827,3.27-1.241,5.188-1.241C652.288,333.521,654.023,333.94,655.578,334.776z
		 M647.777,338.255c-0.819,0.486-1.469,1.154-1.95,2.003c-0.482,0.85-0.723,1.795-0.723,2.837s0.24,1.994,0.723,2.856
		c0.481,0.862,1.131,1.539,1.95,2.028c0.818,0.491,1.7,0.736,2.646,0.736c0.954,0,1.83-0.245,2.627-0.736
		c0.797-0.489,1.429-1.166,1.897-2.028s0.703-1.814,0.703-2.856s-0.234-1.987-0.703-2.837c-0.469-0.849-1.101-1.517-1.897-2.003
		c-0.797-0.485-1.673-0.729-2.627-0.729C649.478,337.527,648.596,337.77,647.777,338.255z"/>
	<path fill="#CF3800" d="M675.743,338.781c1.033,0.617,1.832,1.491,2.396,2.62c0.564,1.13,0.847,2.438,0.847,3.927
		c0,1.453-0.277,2.736-0.834,3.848c-0.556,1.112-1.337,1.973-2.344,2.581s-2.18,0.912-3.52,0.912c-0.928,0-1.771-0.179-2.528-0.538
		c-0.757-0.358-1.395-0.875-1.91-1.55v7.145h-4.649v-19.712h4.649v1.917c0.516-0.665,1.143-1.178,1.878-1.536
		c0.735-0.359,1.554-0.539,2.455-0.539C673.523,337.855,674.71,338.164,675.743,338.781z M673.398,347.928
		c0.6-0.709,0.9-1.62,0.9-2.731c0-1.112-0.301-2.019-0.9-2.719s-1.381-1.051-2.344-1.051c-0.928,0-1.694,0.351-2.298,1.051
		c-0.604,0.7-0.906,1.606-0.906,2.719c0,1.129,0.295,2.044,0.886,2.744c0.591,0.701,1.364,1.051,2.318,1.051
		C672.018,348.992,672.799,348.637,673.398,347.928z"/>
	<path fill="#CF3800" d="M689.756,338.229c1.024,0.285,1.982,0.689,2.876,1.215l-1.589,3.008c-1.795-0.972-3.318-1.458-4.57-1.458
		c-0.43,0-0.773,0.086-1.031,0.256c-0.258,0.171-0.388,0.419-0.388,0.742c0,0.342,0.197,0.615,0.592,0.821
		c0.394,0.206,1.037,0.436,1.93,0.689c1.024,0.289,1.878,0.58,2.562,0.873c0.683,0.294,1.273,0.74,1.772,1.34
		s0.749,1.377,0.749,2.331c0,1.453-0.565,2.592-1.694,3.414c-1.13,0.823-2.601,1.234-4.413,1.234c-1.217,0-2.39-0.175-3.52-0.525
		c-1.129-0.35-2.123-0.854-2.98-1.51l1.471-2.968c0.806,0.577,1.661,1.024,2.567,1.339c0.906,0.315,1.767,0.473,2.58,0.473
		c0.481,0,0.865-0.085,1.149-0.256s0.427-0.418,0.427-0.742c0-0.376-0.206-0.672-0.617-0.886c-0.411-0.215-1.055-0.449-1.931-0.703
		c-1.007-0.289-1.841-0.58-2.501-0.873c-0.661-0.293-1.23-0.731-1.708-1.313c-0.477-0.582-0.716-1.351-0.716-2.305
		c0-1.453,0.548-2.587,1.642-3.401c1.095-0.814,2.513-1.222,4.255-1.222C687.702,337.802,688.731,337.945,689.756,338.229z"/>
	<path fill="#CF3800" d="M715.352,351.198c0,1.349-0.326,2.532-0.979,3.553c-0.652,1.02-1.572,1.804-2.758,2.351
		c-1.187,0.547-2.56,0.821-4.117,0.821c-1.217,0-2.382-0.176-3.493-0.525c-1.112-0.351-2.102-0.814-2.969-1.393l1.616-3.139
		c0.665,0.464,1.387,0.821,2.166,1.07c0.779,0.25,1.555,0.374,2.325,0.374c1.111,0,1.987-0.269,2.626-0.808
		c0.64-0.538,0.959-1.263,0.959-2.173v-1.537c-0.481,0.631-1.072,1.112-1.772,1.445c-0.701,0.332-1.502,0.499-2.403,0.499
		c-1.218,0-2.297-0.294-3.237-0.88c-0.941-0.587-1.677-1.412-2.207-2.476c-0.529-1.064-0.794-2.287-0.794-3.671
		c0-1.366,0.26-2.567,0.781-3.604c0.521-1.038,1.256-1.839,2.206-2.403c0.95-0.565,2.033-0.848,3.251-0.848
		c0.893,0,1.689,0.167,2.39,0.499c0.7,0.333,1.296,0.811,1.786,1.432v-1.772h4.623V351.198z M709.895,347.389
		c0.556-0.656,0.834-1.506,0.834-2.548c0-1.059-0.278-1.915-0.834-2.567c-0.556-0.651-1.285-0.978-2.187-0.978
		c-0.911,0-1.648,0.326-2.213,0.978c-0.564,0.652-0.847,1.509-0.847,2.567c0,1.042,0.282,1.892,0.847,2.548
		c0.564,0.657,1.302,0.985,2.213,0.985C708.609,348.375,709.339,348.046,709.895,347.389z"/>
	<path fill="#CF3800" d="M730.046,339.188c1.104,0.924,1.664,2.209,1.682,3.854v9.469h-4.544v-1.668
		c-0.465,0.613-1.073,1.079-1.826,1.398s-1.624,0.479-2.613,0.479c-1.523,0-2.733-0.42-3.631-1.261
		c-0.897-0.84-1.346-1.935-1.346-3.283c0-1.383,0.479-2.456,1.438-3.218c0.959-0.761,2.336-1.15,4.131-1.168h3.821v-0.211
		c0-0.718-0.236-1.277-0.709-1.681c-0.473-0.402-1.178-0.604-2.114-0.604c-0.613,0-1.301,0.103-2.062,0.309
		c-0.762,0.205-1.519,0.505-2.271,0.899l-1.313-3.061c1.182-0.551,2.307-0.963,3.375-1.234c1.068-0.271,2.185-0.407,3.349-0.407
		C727.397,337.802,728.943,338.264,730.046,339.188z M726.113,349.031c0.556-0.367,0.903-0.849,1.044-1.444v-1.287h-2.929
		c-0.7,0-1.226,0.125-1.576,0.374c-0.35,0.25-0.525,0.646-0.525,1.188c0,0.534,0.18,0.955,0.539,1.261
		c0.358,0.307,0.862,0.46,1.51,0.46C724.911,349.583,725.557,349.399,726.113,349.031z"/>
	<path fill="#CF3800" d="M747.71,338.781c1.033,0.617,1.832,1.491,2.396,2.62c0.564,1.13,0.847,2.438,0.847,3.927
		c0,1.453-0.277,2.736-0.834,3.848c-0.556,1.112-1.337,1.973-2.344,2.581s-2.18,0.912-3.52,0.912c-0.928,0-1.771-0.179-2.528-0.538
		c-0.757-0.358-1.395-0.875-1.91-1.55v7.145h-4.649v-19.712h4.649v1.917c0.516-0.665,1.143-1.178,1.878-1.536
		c0.735-0.359,1.554-0.539,2.455-0.539C745.49,337.855,746.677,338.164,747.71,338.781z M745.365,347.928
		c0.6-0.709,0.9-1.62,0.9-2.731c0-1.112-0.301-2.019-0.9-2.719s-1.381-1.051-2.344-1.051c-0.928,0-1.694,0.351-2.298,1.051
		c-0.604,0.7-0.906,1.606-0.906,2.719c0,1.129,0.295,2.044,0.886,2.744c0.591,0.701,1.364,1.051,2.318,1.051
		C743.984,348.992,744.766,348.637,745.365,347.928z"/>
</g>
<polygon fill="#00FFFF" points="1354.786,165.099 1246.229,0 1246.229,58.803 949.5,58.803 949.5,284.966 1246.229,284.966 
	1246.229,341.507 "/>
<rect y="59.504" fill="#00FFFF" width="348" height="225.25"/>
<g>
	<path fill="#3F3936" d="M105.33,241.417c1.515,0.792,2.694,1.899,3.54,3.322c0.845,1.423,1.267,3.058,1.267,4.905
		c0,1.83-0.431,3.458-1.293,4.885c-0.862,1.428-2.064,2.54-3.605,3.336c-1.541,0.797-3.31,1.195-5.306,1.195h-7.906v-18.832h8.103
		C102.082,240.228,103.815,240.625,105.33,241.417z M96.82,255.239h3.415c0.972,0,1.838-0.232,2.6-0.696s1.357-1.118,1.786-1.964
		c0.429-0.845,0.644-1.813,0.644-2.908s-0.223-2.066-0.67-2.916c-0.446-0.849-1.07-1.512-1.871-1.989
		c-0.801-0.478-1.701-0.716-2.699-0.716H96.82V255.239z"/>
	<path fill="#3F3936" d="M124.418,246.459c1.265,1.37,1.898,3.276,1.898,5.719c0,0.395-0.009,0.688-0.026,0.88h-10.191
		c0.236,0.858,0.647,1.521,1.234,1.99c0.586,0.468,1.313,0.702,2.18,0.702c0.647,0,1.265-0.125,1.852-0.374
		c0.586-0.25,1.125-0.619,1.615-1.109l2.443,2.402c-0.753,0.823-1.668,1.454-2.745,1.892c-1.077,0.438-2.268,0.656-3.572,0.656
		c-1.559,0-2.916-0.304-4.071-0.912s-2.049-1.469-2.679-2.581c-0.63-1.111-0.945-2.403-0.945-3.874s0.319-2.771,0.958-3.9
		c0.639-1.129,1.528-2.003,2.666-2.62s2.451-0.926,3.94-0.926C121.338,244.404,123.153,245.089,124.418,246.459z M121.056,248.436
		c-0.512-0.534-1.188-0.802-2.029-0.802c-0.788,0-1.451,0.263-1.989,0.788c-0.539,0.525-0.882,1.239-1.031,2.141h5.818
		C121.824,249.679,121.568,248.97,121.056,248.436z"/>
	<path fill="#3F3936" d="M132.009,259.06l-5.463-14.498h4.78l3.125,10.243l3.139-10.243h4.636l-5.463,14.498H132.009z"/>
	<path fill="#3F3936" d="M155.304,246.459c1.265,1.37,1.898,3.276,1.898,5.719c0,0.395-0.009,0.688-0.026,0.88h-10.191
		c0.236,0.858,0.647,1.521,1.234,1.99c0.586,0.468,1.313,0.702,2.18,0.702c0.647,0,1.265-0.125,1.852-0.374
		c0.586-0.25,1.125-0.619,1.615-1.109l2.443,2.402c-0.753,0.823-1.668,1.454-2.745,1.892c-1.077,0.438-2.268,0.656-3.572,0.656
		c-1.559,0-2.916-0.304-4.071-0.912s-2.049-1.469-2.679-2.581c-0.63-1.111-0.945-2.403-0.945-3.874s0.319-2.771,0.958-3.9
		c0.639-1.129,1.528-2.003,2.666-2.62s2.451-0.926,3.94-0.926C152.225,244.404,154.039,245.089,155.304,246.459z M151.942,248.436
		c-0.512-0.534-1.188-0.802-2.029-0.802c-0.788,0-1.451,0.263-1.989,0.788c-0.539,0.525-0.882,1.239-1.031,2.141h5.818
		C152.71,249.679,152.455,248.97,151.942,248.436z"/>
	<path fill="#3F3936" d="M159.828,259.06v-19.962h4.649v19.962H159.828z"/>
	<path fill="#3F3936" d="M179.179,245.317c1.204,0.608,2.132,1.473,2.784,2.594c0.652,1.12,0.979,2.416,0.979,3.887
		s-0.326,2.767-0.979,3.888s-1.58,1.989-2.784,2.606c-1.204,0.617-2.585,0.926-4.143,0.926c-1.576,0-2.959-0.309-4.15-0.926
		c-1.191-0.617-2.119-1.485-2.784-2.606c-0.666-1.121-0.998-2.417-0.998-3.888s0.333-2.767,0.998-3.887
		c0.665-1.121,1.593-1.985,2.784-2.594c1.19-0.608,2.574-0.913,4.15-0.913C176.594,244.404,177.976,244.708,179.179,245.317z
		 M172.692,249.131c-0.6,0.701-0.899,1.607-0.899,2.719c0,1.13,0.3,2.04,0.899,2.731c0.6,0.692,1.381,1.038,2.344,1.038
		c0.954,0,1.731-0.346,2.331-1.038c0.6-0.691,0.899-1.602,0.899-2.731c0-1.111-0.3-2.018-0.899-2.719
		c-0.6-0.7-1.377-1.05-2.331-1.05C174.073,248.082,173.292,248.431,172.692,249.131z"/>
	<path fill="#3F3936" d="M198.124,245.33c1.033,0.617,1.832,1.491,2.396,2.62c0.565,1.13,0.847,2.438,0.847,3.927
		c0,1.453-0.278,2.736-0.834,3.848c-0.556,1.112-1.337,1.973-2.344,2.581s-2.18,0.912-3.52,0.912c-0.928,0-1.771-0.179-2.528-0.538
		c-0.758-0.358-1.395-0.875-1.911-1.55v7.145h-4.649v-19.712h4.649v1.917c0.517-0.665,1.143-1.178,1.878-1.536
		c0.735-0.359,1.554-0.539,2.456-0.539C195.904,244.404,197.09,244.712,198.124,245.33z M195.779,254.477
		c0.6-0.709,0.899-1.62,0.899-2.731c0-1.112-0.3-2.019-0.899-2.719c-0.6-0.7-1.381-1.051-2.344-1.051
		c-0.928,0-1.694,0.351-2.298,1.051s-0.906,1.606-0.906,2.719c0,1.129,0.295,2.044,0.887,2.744c0.591,0.701,1.363,1.051,2.318,1.051
		C194.398,255.541,195.179,255.186,195.779,254.477z"/>
	<path fill="#3F3936" d="M215.649,246.459c1.265,1.37,1.898,3.276,1.898,5.719c0,0.395-0.009,0.688-0.026,0.88H207.33
		c0.236,0.858,0.647,1.521,1.234,1.99c0.586,0.468,1.313,0.702,2.18,0.702c0.647,0,1.265-0.125,1.852-0.374
		c0.586-0.25,1.125-0.619,1.615-1.109l2.443,2.402c-0.753,0.823-1.668,1.454-2.745,1.892c-1.077,0.438-2.268,0.656-3.572,0.656
		c-1.559,0-2.916-0.304-4.071-0.912s-2.049-1.469-2.679-2.581c-0.63-1.111-0.945-2.403-0.945-3.874s0.319-2.771,0.958-3.9
		c0.639-1.129,1.528-2.003,2.666-2.62s2.451-0.926,3.94-0.926C212.569,244.404,214.384,245.089,215.649,246.459z M212.287,248.436
		c-0.512-0.534-1.188-0.802-2.029-0.802c-0.788,0-1.451,0.263-1.989,0.788c-0.539,0.525-0.882,1.239-1.031,2.141h5.818
		C213.055,249.679,212.799,248.97,212.287,248.436z"/>
	<path fill="#3F3936" d="M226.634,245.061c0.796-0.455,1.716-0.692,2.758-0.71v4.189c-0.14-0.018-0.354-0.026-0.644-0.026
		c-1.147,0-2.084,0.278-2.811,0.834c-0.727,0.557-1.143,1.312-1.248,2.266v7.446h-4.662v-14.498h4.662v2.442
		C225.189,246.164,225.837,245.516,226.634,245.061z"/>
</g>
<g>
	<path fill="#3F3936" d="M1084.343,248.662c1.43,1.223,2.145,2.963,2.145,5.221c0,2.37-0.715,4.211-2.145,5.523
		s-3.434,1.969-6.011,1.969h-3.668v5.686h-5.15v-20.232h8.818C1080.909,246.828,1082.913,247.439,1084.343,248.662z
		 M1074.664,257.325h3.414c1.138,0,2.013-0.279,2.624-0.84c0.611-0.56,0.917-1.37,0.917-2.434c0-1.044-0.308-1.834-0.924-2.37
		s-1.488-0.805-2.617-0.805h-3.414V257.325z"/>
	<path fill="#3F3936" d="M1095.962,252.02c0.856-0.489,1.844-0.743,2.963-0.763v4.501c-0.15-0.019-0.381-0.028-0.69-0.028
		c-1.232,0-2.239,0.299-3.02,0.896c-0.781,0.598-1.228,1.408-1.341,2.434v8h-5.009v-15.576h5.009v2.624
		C1094.41,253.205,1095.106,252.509,1095.962,252.02z"/>
	<path fill="#3F3936" d="M1112.612,252.294c1.293,0.654,2.29,1.583,2.991,2.787c0.7,1.204,1.051,2.596,1.051,4.176
		s-0.351,2.973-1.051,4.177c-0.701,1.204-1.698,2.138-2.991,2.801c-1.294,0.663-2.777,0.994-4.452,0.994
		c-1.692,0-3.179-0.331-4.458-0.994s-2.276-1.597-2.991-2.801s-1.072-2.597-1.072-4.177s0.357-2.972,1.072-4.176
		s1.712-2.133,2.991-2.787c1.279-0.653,2.766-0.98,4.458-0.98C1109.835,251.314,1111.318,251.641,1112.612,252.294z
		 M1105.643,256.393c-0.645,0.753-0.967,1.727-0.967,2.921c0,1.214,0.322,2.192,0.967,2.935c0.644,0.743,1.483,1.115,2.518,1.115
		c1.025,0,1.86-0.372,2.505-1.115c0.645-0.742,0.967-1.721,0.967-2.935c0-1.194-0.322-2.168-0.967-2.921
		c-0.645-0.752-1.479-1.128-2.505-1.128C1107.126,255.265,1106.286,255.641,1105.643,256.393z"/>
	<path fill="#3F3936" d="M1135.024,267.06h-4.994v-2.046c-1.139,1.505-2.7,2.253-4.685,2.243c-1.448,0-2.721-0.336-3.816-1.009
		c-1.096-0.672-1.947-1.615-2.554-2.829c-0.607-1.213-0.91-2.619-0.91-4.218c0-1.581,0.299-2.968,0.896-4.163
		c0.598-1.194,1.437-2.118,2.519-2.772c1.082-0.653,2.333-0.98,3.753-0.98c1.025,0,1.942,0.193,2.752,0.579
		c0.809,0.386,1.49,0.945,2.046,1.679v-7.93h4.994V267.06z M1129.077,262.263c0.636-0.753,0.953-1.735,0.953-2.949
		c0-1.194-0.317-2.168-0.953-2.921c-0.635-0.752-1.474-1.128-2.519-1.128c-1.044,0-1.881,0.371-2.511,1.114
		c-0.631,0.743-0.955,1.722-0.974,2.935c0.019,1.214,0.346,2.196,0.98,2.949c0.635,0.752,1.47,1.129,2.504,1.129
		C1127.604,263.392,1128.442,263.015,1129.077,262.263z"/>
	<path fill="#3F3936" d="M1154.326,267.06h-5.009v-2.568c-1.063,1.854-2.747,2.775-5.051,2.766c-1.693,0-3.046-0.538-4.057-1.615
		c-1.012-1.077-1.517-2.523-1.517-4.339v-9.819h4.994v8.408c0,0.923,0.235,1.649,0.706,2.181c0.47,0.531,1.101,0.797,1.891,0.797
		c0.94-0.019,1.681-0.369,2.222-1.051c0.541-0.683,0.812-1.564,0.812-2.646v-7.689h5.009V267.06z"/>
	<path fill="#3F3936" d="M1169.197,252.224c1.204,0.606,2.145,1.47,2.822,2.589l-3.584,2.159c-0.771-1.082-1.82-1.618-3.146-1.608
		c-0.959,0-1.742,0.359-2.349,1.079c-0.607,0.72-0.91,1.667-0.91,2.843c0,1.195,0.296,2.154,0.889,2.879
		c0.593,0.724,1.383,1.086,2.37,1.086c1.468,0,2.525-0.588,3.175-1.764l3.641,2.131c-0.641,1.156-1.569,2.048-2.787,2.674
		c-1.218,0.625-2.65,0.938-4.296,0.938c-1.58,0-2.975-0.331-4.184-0.994s-2.151-1.592-2.829-2.787
		c-0.677-1.194-1.016-2.572-1.016-4.134c0-1.58,0.339-2.977,1.016-4.19c0.678-1.213,1.627-2.151,2.851-2.814
		c1.223-0.663,2.633-0.995,4.232-0.995C1166.625,251.314,1167.993,251.618,1169.197,252.224z"/>
	<path fill="#3F3936" d="M1182.874,266.997c-0.733,0.192-1.477,0.289-2.229,0.289c-1.542,0-2.789-0.428-3.738-1.284
		c-0.95-0.855-1.426-2.073-1.426-3.654v-6.871h-2.173v-3.273h2.173v-4.331h4.967v4.304h4.078v3.301h-4.078v6.096
		c0,1.138,0.461,1.707,1.383,1.707c0.536,0,1.199-0.174,1.989-0.522l0.987,3.472
		C1184.252,266.547,1183.607,266.804,1182.874,266.997z"/>
</g>
<g>
	<defs>
		<rect id="SVGID_1_" x="-317.5" y="-315.747" width="1919.99" height="1021"/>
	</defs>
	<clipPath id="SVGID_2_">
		<use xlink:href="#SVGID_1_"  overflow="visible"/>
	</clipPath>
	<path clip-path="url(#SVGID_2_)" fill="#3F3936" d="M1175.399,119.093h-100.8c-0.792,0-1.44,0.648-1.44,1.44v78.48
		c0,0.792,0.648,1.44,1.44,1.44h100.8c0.792,0,1.44-0.648,1.44-1.44v-78.48C1176.84,119.741,1176.191,119.093,1175.399,119.093"/>
	<rect x="1114.199" y="198.293" clip-path="url(#SVGID_2_)" fill="#3F3936" width="25.2" height="12.24"/>
	<rect x="1106.28" y="210.534" clip-path="url(#SVGID_2_)" fill="#3F3936" width="40.319" height="2.88"/>
	<rect x="1079.639" y="126.293" clip-path="url(#SVGID_2_)" fill="#00FFFF" width="90.721" height="66.96"/>
	<rect x="1084.679" y="129.894" clip-path="url(#SVGID_2_)" fill="#3F3936" width="36.721" height="13.68"/>
	<rect x="1084.68" y="147.173" clip-path="url(#SVGID_2_)" fill="#3F3936" width="36.721" height="2.88"/>
	<rect x="1084.68" y="153.653" clip-path="url(#SVGID_2_)" fill="#3F3936" width="36.721" height="2.88"/>
	<rect x="1084.68" y="160.133" clip-path="url(#SVGID_2_)" fill="#3F3936" width="36.721" height="2.88"/>
	<rect x="1084.68" y="166.613" clip-path="url(#SVGID_2_)" fill="#3F3936" width="36.721" height="2.88"/>
	<rect x="1084.68" y="173.093" clip-path="url(#SVGID_2_)" fill="#3F3936" width="36.721" height="2.88"/>
	<rect x="1084.68" y="179.573" clip-path="url(#SVGID_2_)" fill="#3F3936" width="36.721" height="2.88"/>
	<rect x="1084.68" y="186.053" clip-path="url(#SVGID_2_)" fill="#3F3936" width="36.721" height="2.88"/>
	<rect x="1127.88" y="175.253" clip-path="url(#SVGID_2_)" fill="#3F3936" width="36.72" height="13.68"/>
	<rect x="1127.88" y="168.773" clip-path="url(#SVGID_2_)" fill="#3F3936" width="36.72" height="2.88"/>
	<rect x="1127.88" y="162.293" clip-path="url(#SVGID_2_)" fill="#3F3936" width="36.72" height="2.88"/>
	<rect x="1127.88" y="155.813" clip-path="url(#SVGID_2_)" fill="#3F3936" width="36.72" height="2.88"/>
	<rect x="1127.88" y="149.333" clip-path="url(#SVGID_2_)" fill="#3F3936" width="36.72" height="2.88"/>
	<rect x="1127.88" y="142.854" clip-path="url(#SVGID_2_)" fill="#3F3936" width="36.72" height="2.88"/>
	<rect x="1127.88" y="136.374" clip-path="url(#SVGID_2_)" fill="#3F3936" width="36.72" height="2.88"/>
	<path clip-path="url(#SVGID_2_)" fill="#3F3936" d="M180.062,178.817c-5.15,3.38-11.308,5.353-17.928,5.353
		c-6.621,0-12.778-1.973-17.928-5.353c-13.718,4.676-23.176,14.549-23.176,25.975h82.207
		C203.236,193.367,193.778,183.494,180.062,178.817"/>
	<path clip-path="url(#SVGID_2_)" fill="#3F3936" d="M186.62,151.445c0-13.523-10.963-24.487-24.487-24.487
		c-13.524,0-24.487,10.964-24.487,24.487c0,13.524,10.963,24.487,24.487,24.487C175.657,175.932,186.62,164.969,186.62,151.445"/>
	<path clip-path="url(#SVGID_2_)" fill="#FFFFFF" d="M667.062,178.817c-5.15,3.38-11.308,5.353-17.928,5.353
		c-6.621,0-12.778-1.973-17.928-5.353c-13.718,4.676-23.176,14.549-23.176,25.975h82.207
		C690.236,193.367,680.778,183.494,667.062,178.817"/>
	<path clip-path="url(#SVGID_2_)" fill="#FFFFFF" d="M673.62,151.445c0-13.523-10.963-24.487-24.487-24.487
		c-13.524,0-24.487,10.964-24.487,24.487c0,13.524,10.963,24.487,24.487,24.487C662.657,175.932,673.62,164.969,673.62,151.445"/>
</g>
<g>
	<path fill="#3F3936" d="M194.738,113.012l-12.064,4.511l12.064,4.511v3.637l-16.12-6.259v-3.776l16.12-6.259V113.012z"/>
	<path fill="#3F3936" d="M207.466,100.318h3.917l-11.54,32.939h-3.916L207.466,100.318z"/>
	<path fill="#3F3936" d="M228.341,115.634v3.776l-16.12,6.259v-3.637l12.064-4.511l-12.064-4.511v-3.637L228.341,115.634z"/>
</g>
<rect x="-317.5" y="-315.747" fill="none" width="1919.99" height="1021"/>
<line fill="none" stroke="#3F3936" stroke-width="2.9999" stroke-miterlimit="10" x1="348.077" y1="39.597" x2="348.077" y2="311.136"/>
<line fill="none" stroke="#3F3936" stroke-width="2.9999" stroke-miterlimit="10" x1="950.037" y1="39.598" x2="950.037" y2="311.137"/>
</svg>
