<?xml version="1.0" encoding="utf-8"?>
<!-- Generator: Adobe Illustrator 15.0.0, SVG Export Plug-In . SVG Version: 6.00 Build 0)  -->
<!DOCTYPE svg PUBLIC "-//W3C//DTD SVG 1.1//EN" "http://www.w3.org/Graphics/SVG/1.1/DTD/svg11.dtd">
<svg version="1.1" id="Layer_1" xmlns="http://www.w3.org/2000/svg" xmlns:xlink="http://www.w3.org/1999/xlink" x="0px" y="0px"
	 width="1126.457px" height="772.367px" viewBox="0 0 1126.457 772.367" enable-background="new 0 0 1126.457 772.367"
	 xml:space="preserve">
<polygon fill="#00FFFF" points="298.256,0 0,196.113 63.504,196.113 63.504,577.392 563.31,577.392 563.311,196.114 
	616.941,196.114 "/>
<polygon fill="#7FFFD3" points="828.2,772.367 1126.457,576.253 1062.952,576.253 1062.952,194.975 563.145,194.974 
	563.145,576.252 509.514,576.252 "/>
<g>
	<path fill="#3F3936" d="M219.997,245.635v20.128h-2.587v-20.128h-7.351v-2.493h17.336v2.493H219.997z"/>
	<path fill="#3F3936" d="M235.272,249.666c1.03-0.657,2.266-0.996,3.707-1.018v2.54c-1.767-0.021-3.186,0.471-4.259,1.475
		s-1.688,2.358-1.846,4.062v9.039h-2.508v-17.021h2.508v3.77C233.442,251.272,234.241,250.323,235.272,249.666z"/>
	<path fill="#3F3936" d="M252.632,263.145c-1.356,1.83-3.434,2.745-6.231,2.745c-1.146,0-2.158-0.226-3.037-0.678
		c-0.878-0.452-1.556-1.075-2.035-1.869s-0.718-1.68-0.718-2.658c0-1.483,0.56-2.661,1.68-3.534c1.12-0.873,2.684-1.32,4.693-1.341
		h5.584v-0.994c0-1.272-0.387-2.253-1.16-2.942s-1.906-1.033-3.399-1.033c-1.725,0-3.523,0.646-5.395,1.94l-1.057-1.846
		c1.209-0.799,2.324-1.38,3.344-1.743s2.219-0.544,3.597-0.544c2.093,0,3.704,0.516,4.835,1.546c1.13,1.031,1.706,2.472,1.727,4.322
		l0.032,11.247h-2.461V263.145z M250.582,262.679c1.02-0.678,1.693-1.611,2.019-2.8v-2.035h-5.3c-2.882,0-4.322,0.915-4.322,2.745
		c0,0.946,0.355,1.701,1.065,2.264c0.709,0.562,1.659,0.844,2.847,0.844C248.331,263.697,249.562,263.357,250.582,262.679z"/>
	<path fill="#3F3936" d="M274.566,250.407c1.141,1.173,1.711,2.79,1.711,4.851v10.506h-2.524v-9.828
		c0-1.503-0.426-2.676-1.277-3.518c-0.852-0.841-2.03-1.262-3.534-1.262c-1.662,0.021-2.992,0.528-3.991,1.522
		c-1,0.994-1.578,2.306-1.735,3.936v9.149h-2.508v-17.021h2.508v3.738c1.167-2.524,3.365-3.801,6.594-3.833
		C271.84,248.648,273.425,249.234,274.566,250.407z"/>
	<path fill="#3F3936" d="M289.354,249.05c0.946,0.268,1.772,0.649,2.477,1.144l-0.962,2.003c-0.662-0.431-1.404-0.771-2.224-1.018
		s-1.619-0.371-2.397-0.371c-1.01,0-1.822,0.187-2.437,0.56c-0.615,0.374-0.923,0.938-0.923,1.696c0,0.515,0.173,0.946,0.521,1.293
		s0.773,0.628,1.278,0.844c0.504,0.216,1.209,0.45,2.114,0.702c1.188,0.347,2.153,0.694,2.895,1.041
		c0.741,0.347,1.375,0.849,1.901,1.506c0.525,0.657,0.789,1.512,0.789,2.563c0,1.599-0.597,2.805-1.791,3.62
		s-2.674,1.223-4.44,1.223c-1.23,0-2.427-0.21-3.588-0.631c-1.162-0.421-2.143-1.004-2.942-1.751l0.978-1.909
		c0.715,0.662,1.583,1.188,2.603,1.577c1.02,0.389,2.035,0.584,3.044,0.584c1.073,0,1.948-0.21,2.626-0.631
		c0.678-0.42,1.018-1.041,1.018-1.861s-0.326-1.427-0.978-1.822c-0.652-0.395-1.657-0.786-3.013-1.175
		c-1.188-0.368-2.132-0.712-2.832-1.033s-1.304-0.799-1.814-1.436c-0.51-0.636-0.765-1.464-0.765-2.484
		c0-1.546,0.56-2.705,1.68-3.478s2.532-1.16,4.235-1.16C287.425,248.648,288.408,248.782,289.354,249.05z"/>
	<path fill="#3F3936" d="M300.373,244.831c-0.573,0.536-0.859,1.278-0.859,2.224v2.193h4.874v2.082h-4.874v14.434h-2.493V251.33
		h-2.192v-2.082h2.192v-1.861c0-1.188,0.255-2.219,0.765-3.092s1.178-1.53,2.003-1.972c0.825-0.441,1.722-0.662,2.689-0.662
		c1.42,0.042,2.64,0.441,3.66,1.199l-1.041,2.035c-0.82-0.578-1.683-0.868-2.587-0.868
		C301.659,244.026,300.946,244.294,300.373,244.831z"/>
	<path fill="#3F3936" d="M318.082,249.76c1.309,0.72,2.332,1.732,3.068,3.037c0.736,1.304,1.104,2.781,1.104,4.433
		c0,1.683-0.369,3.176-1.104,4.479c-0.736,1.304-1.759,2.322-3.068,3.053c-1.31,0.731-2.795,1.096-4.457,1.096
		s-3.149-0.365-4.464-1.096c-1.315-0.731-2.337-1.749-3.068-3.053c-0.731-1.304-1.097-2.797-1.097-4.479
		c0-1.662,0.365-3.142,1.097-4.441c0.73-1.298,1.753-2.308,3.068-3.028c1.314-0.72,2.802-1.081,4.464-1.081
		S316.772,249.04,318.082,249.76z M310.47,251.771c-0.936,0.536-1.662,1.28-2.177,2.232s-0.773,2.038-0.773,3.257
		c0,1.23,0.258,2.324,0.773,3.281s1.241,1.706,2.177,2.248c0.936,0.542,1.988,0.812,3.155,0.812c1.167,0,2.219-0.271,3.155-0.812
		c0.936-0.542,1.661-1.291,2.177-2.248c0.515-0.957,0.773-2.051,0.773-3.281s-0.258-2.319-0.773-3.265
		c-0.516-0.947-1.244-1.688-2.185-2.224c-0.941-0.537-1.99-0.805-3.147-0.805C312.458,250.967,311.406,251.235,310.47,251.771z"/>
	<path fill="#3F3936" d="M331.576,249.666c1.03-0.657,2.266-0.996,3.707-1.018v2.54c-1.767-0.021-3.186,0.471-4.259,1.475
		s-1.688,2.358-1.846,4.062v9.039h-2.508v-17.021h2.508v3.77C329.746,251.272,330.545,250.323,331.576,249.666z"/>
	<path fill="#3F3936" d="M364.83,250.407c1.12,1.173,1.68,2.79,1.68,4.851v10.506h-2.508v-9.828c0-1.503-0.421-2.682-1.262-3.533
		c-0.841-0.852-1.993-1.278-3.454-1.278c-1.746,0.042-3.11,0.634-4.094,1.775s-1.475,2.642-1.475,4.503v8.36h-2.54v-9.828
		c0-1.503-0.416-2.682-1.246-3.533c-0.831-0.852-1.987-1.278-3.47-1.278c-1.725,0.042-3.089,0.634-4.093,1.775
		c-1.004,1.141-1.506,2.642-1.506,4.503v8.36h-2.477v-17.021h2.477v3.833c0.557-1.293,1.385-2.266,2.484-2.918
		c1.099-0.652,2.437-0.988,4.014-1.01c1.599,0,2.924,0.387,3.975,1.16c1.052,0.773,1.762,1.869,2.13,3.289
		c0.515-1.482,1.349-2.589,2.5-3.32s2.558-1.106,4.22-1.128C362.161,248.648,363.709,249.234,364.83,250.407z"/>
	<path fill="#3F3936" d="M384.934,251.243c1.356,1.709,1.966,4.041,1.83,6.996h-13.881c0.21,1.662,0.875,2.981,1.995,3.959
		c1.12,0.978,2.511,1.467,4.172,1.467c1.051,0,2.024-0.184,2.918-0.552c0.894-0.368,1.677-0.894,2.35-1.578l1.388,1.483
		c-0.82,0.904-1.817,1.604-2.989,2.098c-1.173,0.495-2.458,0.742-3.857,0.742c-1.662,0-3.134-0.36-4.417-1.081
		c-1.283-0.72-2.279-1.732-2.989-3.037c-0.71-1.304-1.065-2.797-1.065-4.48s0.36-3.173,1.081-4.472
		c0.72-1.298,1.728-2.308,3.021-3.028s2.76-1.081,4.401-1.081C381.563,248.68,383.577,249.534,384.934,251.243z M382.844,252.276
		c-1.025-0.957-2.364-1.435-4.015-1.435c-1.62,0-2.968,0.484-4.046,1.451c-1.078,0.968-1.711,2.261-1.9,3.88h11.625
		C384.423,254.532,383.869,253.233,382.844,252.276z"/>
	<path fill="#3F3936" d="M406.733,265.763h-2.523v-3.644c-0.642,1.209-1.528,2.14-2.658,2.792c-1.13,0.652-2.453,0.978-3.967,0.978
		c-1.599,0-3.021-0.365-4.267-1.096c-1.247-0.73-2.214-1.753-2.903-3.068s-1.033-2.813-1.033-4.496s0.344-3.173,1.033-4.472
		s1.654-2.313,2.895-3.044s2.655-1.097,4.244-1.097c1.503,0,2.833,0.326,3.991,0.978c1.157,0.652,2.045,1.593,2.666,2.824v-10.632
		h2.523V265.763z M401.244,262.821c0.925-0.542,1.651-1.296,2.177-2.264c0.526-0.967,0.789-2.056,0.789-3.265
		c0-1.23-0.263-2.329-0.789-3.297c-0.526-0.967-1.251-1.725-2.177-2.271s-1.982-0.82-3.17-0.82c-1.188,0-2.25,0.273-3.187,0.82
		s-1.667,1.307-2.193,2.279s-0.789,2.069-0.789,3.289c0,1.209,0.263,2.298,0.789,3.265c0.526,0.968,1.257,1.722,2.193,2.264
		s1.998,0.812,3.187,0.812C399.262,263.634,400.319,263.363,401.244,262.821z"/>
</g>
<g>
	<path fill="#3F3936" d="M220.718,287.108c1.099,0.441,2.032,1.057,2.8,1.845l-1.388,1.783c-1.378-1.314-3.066-1.972-5.063-1.972
		c-1.167,0-2.208,0.263-3.124,0.789s-1.63,1.265-2.145,2.216c-0.516,0.952-0.773,2.038-0.773,3.257c0,1.23,0.257,2.319,0.773,3.265
		c0.515,0.947,1.23,1.691,2.145,2.232s1.956,0.812,3.124,0.812c1.114,0,2.119-0.189,3.013-0.568c0.894-0.378,1.646-0.925,2.256-1.64
		l1.451,1.562c-0.778,0.925-1.749,1.646-2.911,2.161s-2.463,0.773-3.904,0.773c-1.641,0-3.097-0.36-4.37-1.081
		s-2.269-1.732-2.989-3.037c-0.72-1.304-1.081-2.797-1.081-4.48s0.365-3.173,1.097-4.472c0.73-1.298,1.748-2.308,3.052-3.028
		c1.304-0.72,2.776-1.081,4.417-1.081C218.412,286.445,219.619,286.666,220.718,287.108z"/>
	<path fill="#3F3936" d="M239.435,287.526c1.309,0.72,2.332,1.732,3.068,3.037c0.736,1.304,1.104,2.781,1.104,4.433
		c0,1.683-0.369,3.176-1.104,4.479c-0.736,1.304-1.759,2.322-3.068,3.053c-1.31,0.731-2.795,1.096-4.457,1.096
		s-3.149-0.365-4.464-1.096c-1.315-0.731-2.337-1.749-3.068-3.053c-0.731-1.304-1.097-2.797-1.097-4.479
		c0-1.662,0.365-3.142,1.097-4.441c0.73-1.298,1.753-2.308,3.068-3.028c1.314-0.72,2.802-1.081,4.464-1.081
		S238.125,286.806,239.435,287.526z M231.824,289.537c-0.936,0.536-1.662,1.28-2.177,2.232s-0.773,2.038-0.773,3.257
		c0,1.23,0.258,2.324,0.773,3.281s1.241,1.706,2.177,2.248c0.936,0.542,1.988,0.812,3.155,0.812c1.167,0,2.219-0.271,3.155-0.812
		c0.936-0.542,1.661-1.291,2.177-2.248c0.515-0.957,0.773-2.051,0.773-3.281s-0.258-2.319-0.773-3.265
		c-0.516-0.947-1.244-1.688-2.185-2.224c-0.941-0.537-1.99-0.805-3.147-0.805C233.812,288.732,232.76,289,231.824,289.537z"/>
	<path fill="#3F3936" d="M248.182,303.529v-23.977h2.524v23.977H248.182z"/>
	<path fill="#3F3936" d="M257.158,303.529v-23.977h2.524v23.977H257.158z"/>
	<path fill="#3F3936" d="M276.528,300.91c-1.356,1.83-3.434,2.745-6.231,2.745c-1.146,0-2.158-0.226-3.037-0.678
		c-0.878-0.452-1.556-1.075-2.035-1.869s-0.718-1.68-0.718-2.658c0-1.483,0.56-2.661,1.68-3.534c1.12-0.873,2.684-1.32,4.693-1.341
		h5.584v-0.994c0-1.272-0.387-2.253-1.16-2.942s-1.906-1.033-3.399-1.033c-1.725,0-3.523,0.646-5.395,1.94l-1.057-1.846
		c1.209-0.799,2.324-1.38,3.344-1.743s2.219-0.544,3.597-0.544c2.093,0,3.704,0.516,4.835,1.546c1.13,1.031,1.706,2.472,1.727,4.322
		l0.032,11.247h-2.461V300.91z M274.478,300.445c1.02-0.678,1.693-1.611,2.019-2.8v-2.035h-5.3c-2.882,0-4.322,0.915-4.322,2.745
		c0,0.946,0.355,1.701,1.065,2.264c0.709,0.562,1.659,0.844,2.847,0.844C272.227,301.462,273.458,301.123,274.478,300.445z"/>
	<path fill="#3F3936" d="M298.084,287.51c1.235,0.731,2.198,1.754,2.887,3.068c0.688,1.314,1.033,2.808,1.033,4.48
		c0,1.662-0.339,3.145-1.018,4.448c-0.678,1.304-1.63,2.316-2.855,3.037c-1.226,0.72-2.637,1.081-4.235,1.081
		c-1.504,0-2.821-0.329-3.952-0.986s-2.017-1.575-2.658-2.753v3.644h-2.524v-23.977h2.524v10.632c0.62-1.209,1.496-2.14,2.626-2.792
		c1.13-0.652,2.438-0.978,3.92-0.978C295.431,286.414,296.848,286.779,298.084,287.51z M296.514,300.524
		c0.925-0.542,1.648-1.296,2.169-2.264c0.521-0.967,0.781-2.056,0.781-3.265c0-1.209-0.26-2.292-0.781-3.25
		c-0.521-0.957-1.244-1.708-2.169-2.255s-1.966-0.82-3.123-0.82c-1.188,0-2.246,0.268-3.171,0.804
		c-0.925,0.537-1.646,1.291-2.161,2.264c-0.516,0.973-0.773,2.059-0.773,3.258c0,1.23,0.257,2.324,0.773,3.281
		c0.515,0.957,1.235,1.707,2.161,2.248s1.982,0.812,3.171,0.812C294.548,301.336,295.589,301.065,296.514,300.524z"/>
	<path fill="#3F3936" d="M317.802,287.526c1.309,0.72,2.332,1.732,3.068,3.037c0.736,1.304,1.104,2.781,1.104,4.433
		c0,1.683-0.369,3.176-1.104,4.479c-0.736,1.304-1.759,2.322-3.068,3.053c-1.31,0.731-2.795,1.096-4.457,1.096
		s-3.149-0.365-4.464-1.096c-1.315-0.731-2.337-1.749-3.068-3.053c-0.731-1.304-1.097-2.797-1.097-4.479
		c0-1.662,0.365-3.142,1.097-4.441c0.73-1.298,1.753-2.308,3.068-3.028c1.314-0.72,2.802-1.081,4.464-1.081
		S316.492,286.806,317.802,287.526z M310.19,289.537c-0.936,0.536-1.662,1.28-2.177,2.232s-0.773,2.038-0.773,3.257
		c0,1.23,0.258,2.324,0.773,3.281s1.241,1.706,2.177,2.248c0.936,0.542,1.988,0.812,3.155,0.812c1.167,0,2.219-0.271,3.155-0.812
		c0.936-0.542,1.661-1.291,2.177-2.248c0.515-0.957,0.773-2.051,0.773-3.281s-0.258-2.319-0.773-3.265
		c-0.516-0.947-1.244-1.688-2.185-2.224c-0.941-0.537-1.99-0.805-3.147-0.805C312.178,288.732,311.126,289,310.19,289.537z"/>
	<path fill="#3F3936" d="M331.296,287.431c1.03-0.657,2.266-0.996,3.707-1.018v2.54c-1.767-0.021-3.186,0.471-4.259,1.475
		s-1.688,2.358-1.846,4.062v9.039h-2.508v-17.021h2.508v3.77C329.466,289.038,330.266,288.088,331.296,287.431z"/>
	<path fill="#3F3936" d="M348.657,300.91c-1.356,1.83-3.434,2.745-6.231,2.745c-1.146,0-2.158-0.226-3.037-0.678
		c-0.878-0.452-1.556-1.075-2.035-1.869s-0.718-1.68-0.718-2.658c0-1.483,0.56-2.661,1.68-3.534c1.12-0.873,2.684-1.32,4.693-1.341
		h5.584v-0.994c0-1.272-0.387-2.253-1.16-2.942s-1.906-1.033-3.399-1.033c-1.725,0-3.523,0.646-5.395,1.94l-1.057-1.846
		c1.209-0.799,2.324-1.38,3.344-1.743s2.219-0.544,3.597-0.544c2.093,0,3.704,0.516,4.835,1.546c1.13,1.031,1.706,2.472,1.727,4.322
		l0.032,11.247h-2.461V300.91z M346.606,300.445c1.02-0.678,1.693-1.611,2.019-2.8v-2.035h-5.3c-2.882,0-4.322,0.915-4.322,2.745
		c0,0.946,0.355,1.701,1.065,2.264c0.709,0.562,1.659,0.844,2.847,0.844C344.355,301.462,345.586,301.123,346.606,300.445z"/>
	<path fill="#3F3936" d="M361.67,303.655c-1.314,0-2.366-0.402-3.155-1.207s-1.183-2.017-1.183-3.636v-9.717h-2.445v-2.035h2.445
		v-4.496h2.492v4.496l5.395-0.047v2.082h-5.395v9.26c0,1.009,0.189,1.738,0.568,2.185c0.379,0.447,0.947,0.67,1.704,0.67
		c0.884,0,1.788-0.294,2.713-0.883l0.71,2.035C364.289,303.203,363.006,303.634,361.67,303.655z"/>
	<path fill="#3F3936" d="M371.719,280.38c0.315,0.332,0.473,0.744,0.473,1.238c0,0.495-0.158,0.91-0.473,1.246
		c-0.315,0.337-0.71,0.505-1.183,0.505s-0.865-0.166-1.175-0.497c-0.31-0.331-0.465-0.749-0.465-1.254
		c0-0.494,0.155-0.907,0.465-1.238c0.31-0.331,0.702-0.497,1.175-0.497S371.403,280.049,371.719,280.38z M369.321,303.529v-17.021
		h2.477v17.021H369.321z"/>
	<path fill="#3F3936" d="M389.299,287.526c1.309,0.72,2.332,1.732,3.068,3.037c0.736,1.304,1.104,2.781,1.104,4.433
		c0,1.683-0.369,3.176-1.104,4.479c-0.736,1.304-1.759,2.322-3.068,3.053c-1.31,0.731-2.795,1.096-4.457,1.096
		s-3.149-0.365-4.464-1.096c-1.315-0.731-2.337-1.749-3.068-3.053c-0.731-1.304-1.097-2.797-1.097-4.479
		c0-1.662,0.365-3.142,1.097-4.441c0.73-1.298,1.753-2.308,3.068-3.028c1.314-0.72,2.802-1.081,4.464-1.081
		S387.99,286.806,389.299,287.526z M381.688,289.537c-0.936,0.536-1.662,1.28-2.177,2.232s-0.773,2.038-0.773,3.257
		c0,1.23,0.258,2.324,0.773,3.281s1.241,1.706,2.177,2.248c0.936,0.542,1.988,0.812,3.155,0.812c1.167,0,2.219-0.271,3.155-0.812
		c0.936-0.542,1.661-1.291,2.177-2.248c0.515-0.957,0.773-2.051,0.773-3.281s-0.258-2.319-0.773-3.265
		c-0.516-0.947-1.244-1.688-2.185-2.224c-0.941-0.537-1.99-0.805-3.147-0.805C383.676,288.732,382.624,289,381.688,289.537z"/>
	<path fill="#3F3936" d="M411.746,288.172c1.141,1.173,1.711,2.79,1.711,4.851v10.506h-2.524v-9.828
		c0-1.503-0.426-2.676-1.277-3.518c-0.852-0.841-2.03-1.262-3.534-1.262c-1.662,0.021-2.992,0.528-3.991,1.522
		c-1,0.994-1.578,2.306-1.735,3.936v9.149h-2.508v-17.021h2.508v3.738c1.167-2.524,3.365-3.801,6.594-3.833
		C409.019,286.414,410.604,287,411.746,288.172z"/>
</g>
<g>
	<path fill="#3F3936" d="M162.333,338.046c1.293,1.004,1.94,2.39,1.94,4.156c0,1.336-0.365,2.451-1.096,3.344
		s-1.753,1.478-3.068,1.751c1.64,0.242,2.913,0.867,3.817,1.877c0.904,1.01,1.356,2.293,1.356,3.85c0,1.914-0.723,3.415-2.169,4.503
		c-1.446,1.089-3.441,1.633-5.986,1.633h-9.686v-22.621h9.528C159.251,336.539,161.039,337.042,162.333,338.046z M150.028,346.303
		h6.814c1.525,0,2.708-0.317,3.549-0.954c0.841-0.636,1.262-1.548,1.262-2.737c0-1.146-0.421-2.029-1.262-2.65
		s-2.024-0.931-3.549-0.931h-6.814V346.303z M150.028,356.699h6.814c1.851,0,3.284-0.35,4.299-1.049
		c1.015-0.699,1.522-1.695,1.522-2.989c0-1.23-0.513-2.188-1.538-2.871c-1.025-0.684-2.453-1.025-4.283-1.025h-6.814V356.699z"/>
	<path fill="#3F3936" d="M183.044,344.639c1.356,1.709,1.966,4.041,1.83,6.996h-13.881c0.21,1.662,0.875,2.981,1.995,3.959
		c1.12,0.979,2.511,1.468,4.172,1.468c1.051,0,2.024-0.185,2.918-0.553c0.894-0.368,1.677-0.894,2.35-1.577l1.388,1.482
		c-0.82,0.905-1.817,1.604-2.989,2.099c-1.173,0.494-2.458,0.741-3.857,0.741c-1.662,0-3.134-0.36-4.417-1.081
		c-1.283-0.72-2.279-1.732-2.989-3.036s-1.065-2.797-1.065-4.479s0.36-3.174,1.081-4.473c0.72-1.298,1.728-2.308,3.021-3.028
		s2.76-1.081,4.401-1.081C179.673,342.076,181.688,342.931,183.044,344.639z M180.954,345.672c-1.025-0.957-2.364-1.435-4.015-1.435
		c-1.62,0-2.968,0.484-4.046,1.451c-1.078,0.967-1.711,2.261-1.9,3.88h11.625C182.534,347.928,181.979,346.629,180.954,345.672z"/>
	<path fill="#3F3936" d="M194.149,359.286c-1.314,0-2.366-0.402-3.155-1.206c-0.789-0.805-1.183-2.017-1.183-3.637v-9.717h-2.445
		v-2.035h2.445v-4.496h2.492v4.496l5.395-0.047v2.082h-5.395v9.26c0,1.01,0.189,1.737,0.568,2.185
		c0.379,0.447,0.947,0.671,1.704,0.671c0.884,0,1.788-0.295,2.713-0.884l0.71,2.035
		C196.768,358.833,195.484,359.265,194.149,359.286z"/>
	<path fill="#3F3936" d="M206.317,359.286c-1.314,0-2.366-0.402-3.155-1.206c-0.789-0.805-1.183-2.017-1.183-3.637v-9.717h-2.445
		v-2.035h2.445v-4.496h2.492v4.496l5.395-0.047v2.082h-5.395v9.26c0,1.01,0.189,1.737,0.568,2.185
		c0.379,0.447,0.947,0.671,1.704,0.671c0.884,0,1.788-0.295,2.713-0.884l0.71,2.035
		C208.936,358.833,207.652,359.265,206.317,359.286z"/>
	<path fill="#3F3936" d="M226.178,344.639c1.356,1.709,1.966,4.041,1.83,6.996h-13.881c0.21,1.662,0.875,2.981,1.995,3.959
		c1.12,0.979,2.511,1.468,4.172,1.468c1.051,0,2.024-0.185,2.918-0.553c0.894-0.368,1.677-0.894,2.35-1.577l1.388,1.482
		c-0.82,0.905-1.817,1.604-2.989,2.099c-1.173,0.494-2.458,0.741-3.857,0.741c-1.662,0-3.134-0.36-4.417-1.081
		c-1.283-0.72-2.279-1.732-2.989-3.036s-1.065-2.797-1.065-4.479s0.36-3.174,1.081-4.473c0.72-1.298,1.728-2.308,3.021-3.028
		s2.76-1.081,4.401-1.081C222.807,342.076,224.821,342.931,226.178,344.639z M224.088,345.672c-1.025-0.957-2.364-1.435-4.015-1.435
		c-1.62,0-2.968,0.484-4.046,1.451c-1.078,0.967-1.711,2.261-1.9,3.88h11.625C225.667,347.928,225.113,346.629,224.088,345.672z"/>
	<path fill="#3F3936" d="M237.251,343.062c1.03-0.657,2.266-0.996,3.707-1.018v2.54c-1.767-0.021-3.186,0.471-4.259,1.475
		c-1.073,1.004-1.688,2.358-1.846,4.062v9.039h-2.508v-17.021h2.508v3.77C235.421,344.668,236.221,343.719,237.251,343.062z"/>
	<path fill="#3F3936" d="M245.313,356.573c0.3,0.305,0.45,0.704,0.45,1.199c0,0.431-0.164,0.894-0.489,1.388l-1.514,2.318h-1.42
		l1.073-2.35c-0.473-0.284-0.71-0.747-0.71-1.389c0-0.473,0.145-0.862,0.434-1.167c0.289-0.305,0.649-0.458,1.081-0.458
		C244.647,356.115,245.013,356.268,245.313,356.573z"/>
	<path fill="#3F3936" d="M263.122,338.227c-0.573,0.536-0.859,1.278-0.859,2.224v2.193h4.874v2.082h-4.874v14.434h-2.493v-14.434
		h-2.192v-2.082h2.192v-1.861c0-1.188,0.255-2.219,0.765-3.092s1.178-1.53,2.003-1.972c0.825-0.441,1.722-0.662,2.689-0.662
		c1.42,0.042,2.64,0.441,3.66,1.199l-1.041,2.035c-0.82-0.578-1.683-0.868-2.587-0.868
		C264.408,337.422,263.695,337.691,263.122,338.227z"/>
	<path fill="#3F3936" d="M279.986,356.542c-1.356,1.829-3.434,2.744-6.231,2.744c-1.146,0-2.158-0.226-3.037-0.678
		c-0.878-0.452-1.556-1.075-2.035-1.869s-0.718-1.681-0.718-2.658c0-1.483,0.56-2.661,1.68-3.534
		c1.12-0.872,2.684-1.319,4.693-1.341h5.584v-0.993c0-1.272-0.387-2.253-1.16-2.942s-1.906-1.033-3.399-1.033
		c-1.725,0-3.523,0.646-5.395,1.94l-1.057-1.846c1.209-0.799,2.324-1.38,3.344-1.743s2.219-0.544,3.597-0.544
		c2.093,0,3.704,0.516,4.835,1.546c1.13,1.031,1.706,2.472,1.727,4.322l0.032,11.247h-2.461V356.542z M277.935,356.076
		c1.02-0.678,1.693-1.611,2.019-2.8v-2.035h-5.3c-2.882,0-4.322,0.915-4.322,2.745c0,0.946,0.355,1.701,1.065,2.264
		c0.709,0.562,1.659,0.844,2.847,0.844C275.685,357.093,276.915,356.754,277.935,356.076z"/>
	<path fill="#3F3936" d="M295.523,342.447c0.946,0.268,1.772,0.649,2.477,1.144l-0.962,2.003c-0.662-0.431-1.404-0.771-2.224-1.018
		s-1.619-0.371-2.397-0.371c-1.01,0-1.822,0.187-2.437,0.56c-0.615,0.374-0.923,0.938-0.923,1.696c0,0.516,0.173,0.946,0.521,1.293
		c0.347,0.348,0.773,0.629,1.278,0.845c0.504,0.215,1.209,0.449,2.114,0.701c1.188,0.348,2.153,0.694,2.895,1.042
		c0.741,0.347,1.375,0.849,1.901,1.506c0.525,0.657,0.789,1.512,0.789,2.563c0,1.599-0.597,2.806-1.791,3.62
		c-1.193,0.815-2.674,1.223-4.44,1.223c-1.23,0-2.427-0.21-3.588-0.631c-1.162-0.421-2.143-1.004-2.942-1.751l0.978-1.909
		c0.715,0.663,1.583,1.188,2.603,1.578c1.02,0.389,2.035,0.583,3.044,0.583c1.073,0,1.948-0.21,2.626-0.631
		c0.678-0.42,1.018-1.041,1.018-1.861s-0.326-1.428-0.978-1.822c-0.652-0.394-1.657-0.785-3.013-1.175
		c-1.188-0.368-2.132-0.712-2.832-1.033c-0.699-0.32-1.304-0.799-1.814-1.436c-0.51-0.636-0.765-1.464-0.765-2.484
		c0-1.546,0.56-2.705,1.68-3.478s2.532-1.16,4.235-1.16C293.594,342.044,294.577,342.179,295.523,342.447z"/>
	<path fill="#3F3936" d="M307.622,359.286c-1.314,0-2.366-0.402-3.155-1.206c-0.789-0.805-1.183-2.017-1.183-3.637v-9.717h-2.445
		v-2.035h2.445v-4.496h2.492v4.496l5.395-0.047v2.082h-5.395v9.26c0,1.01,0.189,1.737,0.568,2.185
		c0.379,0.447,0.947,0.671,1.704,0.671c0.884,0,1.788-0.295,2.713-0.884l0.71,2.035
		C310.241,358.833,308.958,359.265,307.622,359.286z"/>
	<path fill="#3F3936" d="M327.483,344.639c1.356,1.709,1.966,4.041,1.83,6.996h-13.881c0.21,1.662,0.875,2.981,1.995,3.959
		c1.12,0.979,2.511,1.468,4.172,1.468c1.051,0,2.024-0.185,2.918-0.553c0.894-0.368,1.677-0.894,2.35-1.577l1.388,1.482
		c-0.82,0.905-1.817,1.604-2.989,2.099c-1.173,0.494-2.458,0.741-3.857,0.741c-1.662,0-3.134-0.36-4.417-1.081
		c-1.283-0.72-2.279-1.732-2.989-3.036s-1.065-2.797-1.065-4.479s0.36-3.174,1.081-4.473c0.72-1.298,1.728-2.308,3.021-3.028
		s2.76-1.081,4.401-1.081C324.113,342.076,326.127,342.931,327.483,344.639z M325.394,345.672c-1.025-0.957-2.364-1.435-4.015-1.435
		c-1.62,0-2.968,0.484-4.046,1.451c-1.078,0.967-1.711,2.261-1.9,3.88h11.625C326.973,347.928,326.418,346.629,325.394,345.672z"/>
	<path fill="#3F3936" d="M338.557,343.062c1.03-0.657,2.266-0.996,3.707-1.018v2.54c-1.767-0.021-3.186,0.471-4.259,1.475
		c-1.073,1.004-1.688,2.358-1.846,4.062v9.039h-2.508v-17.021h2.508v3.77C336.727,344.668,337.526,343.719,338.557,343.062z"/>
	<path fill="#3F3936" d="M370.137,359.16h-2.523v-3.644c-0.642,1.209-1.528,2.14-2.658,2.792s-2.453,0.978-3.967,0.978
		c-1.599,0-3.021-0.365-4.267-1.096c-1.247-0.731-2.214-1.754-2.903-3.068s-1.033-2.813-1.033-4.496s0.344-3.173,1.033-4.472
		s1.654-2.313,2.895-3.044s2.655-1.097,4.244-1.097c1.503,0,2.833,0.326,3.991,0.978c1.157,0.652,2.045,1.593,2.666,2.824v-10.632
		h2.523V359.16z M364.647,356.217c0.925-0.541,1.651-1.296,2.177-2.263c0.526-0.968,0.789-2.057,0.789-3.266
		c0-1.23-0.263-2.329-0.789-3.297s-1.251-1.725-2.177-2.271s-1.982-0.82-3.17-0.82c-1.188,0-2.25,0.273-3.187,0.82
		s-1.667,1.307-2.193,2.279s-0.789,2.069-0.789,3.289c0,1.209,0.263,2.298,0.789,3.266c0.526,0.967,1.257,1.722,2.193,2.263
		c0.936,0.542,1.998,0.812,3.187,0.812C362.665,357.03,363.722,356.759,364.647,356.217z"/>
	<path fill="#3F3936" d="M389.255,344.639c1.356,1.709,1.966,4.041,1.83,6.996h-13.881c0.21,1.662,0.875,2.981,1.995,3.959
		c1.12,0.979,2.511,1.468,4.172,1.468c1.051,0,2.024-0.185,2.918-0.553c0.894-0.368,1.677-0.894,2.35-1.577l1.388,1.482
		c-0.82,0.905-1.817,1.604-2.989,2.099c-1.173,0.494-2.458,0.741-3.857,0.741c-1.662,0-3.134-0.36-4.417-1.081
		c-1.283-0.72-2.279-1.732-2.989-3.036s-1.065-2.797-1.065-4.479s0.36-3.174,1.081-4.473c0.72-1.298,1.728-2.308,3.021-3.028
		s2.76-1.081,4.401-1.081C385.885,342.076,387.899,342.931,389.255,344.639z M387.166,345.672c-1.025-0.957-2.364-1.435-4.015-1.435
		c-1.62,0-2.968,0.484-4.046,1.451c-1.078,0.967-1.711,2.261-1.9,3.88h11.625C388.745,347.928,388.19,346.629,387.166,345.672z"/>
	<path fill="#3F3936" d="M395.581,359.16v-23.977h2.524v23.977H395.581z"/>
	<path fill="#3F3936" d="M406.796,336.011c0.315,0.332,0.473,0.744,0.473,1.238c0,0.495-0.158,0.91-0.473,1.246
		c-0.315,0.337-0.71,0.505-1.183,0.505s-0.865-0.166-1.175-0.497c-0.31-0.331-0.465-0.749-0.465-1.254
		c0-0.494,0.155-0.907,0.465-1.238c0.31-0.331,0.702-0.497,1.175-0.497S406.481,335.68,406.796,336.011z M404.399,359.16v-17.021
		h2.477v17.021H404.399z"/>
	<path fill="#3F3936" d="M416.813,359.16l-6.751-17.021h2.682l5.427,14.402l5.395-14.402h2.556l-6.688,17.021H416.813z"/>
	<path fill="#3F3936" d="M441.425,344.639c1.356,1.709,1.966,4.041,1.83,6.996h-13.881c0.21,1.662,0.875,2.981,1.995,3.959
		c1.12,0.979,2.511,1.468,4.172,1.468c1.051,0,2.024-0.185,2.918-0.553c0.894-0.368,1.677-0.894,2.35-1.577l1.388,1.482
		c-0.82,0.905-1.817,1.604-2.989,2.099c-1.173,0.494-2.458,0.741-3.857,0.741c-1.662,0-3.134-0.36-4.417-1.081
		c-1.283-0.72-2.279-1.732-2.989-3.036s-1.065-2.797-1.065-4.479s0.36-3.174,1.081-4.473c0.72-1.298,1.728-2.308,3.021-3.028
		s2.76-1.081,4.401-1.081C438.055,342.076,440.069,342.931,441.425,344.639z M439.335,345.672c-1.025-0.957-2.364-1.435-4.015-1.435
		c-1.62,0-2.968,0.484-4.046,1.451c-1.078,0.967-1.711,2.261-1.9,3.88H441C440.915,347.928,440.36,346.629,439.335,345.672z"/>
	<path fill="#3F3936" d="M452.499,343.062c1.03-0.657,2.266-0.996,3.707-1.018v2.54c-1.767-0.021-3.186,0.471-4.259,1.475
		c-1.073,1.004-1.688,2.358-1.846,4.062v9.039h-2.508v-17.021h2.508v3.77C450.668,344.668,451.468,343.719,452.499,343.062z"/>
	<path fill="#3F3936" d="M463.402,364.562c-0.857,0.668-1.859,1.002-3.005,1.002c-1.357,0-2.55-0.421-3.581-1.262l1.057-2.098
		c0.757,0.536,1.556,0.804,2.397,0.804c0.663,0,1.259-0.205,1.791-0.615c0.531-0.41,0.965-1.004,1.301-1.782l0.726-1.577
		l-7.051-16.895h2.65l5.647,14.055l5.395-14.055h2.587l-7.808,19.45C464.961,362.904,464.259,363.894,463.402,364.562z"/>
</g>
<g>
	<path fill="#3F3936" d="M253.568,394.663v7.95h10.569v2.492h-10.569v9.686h-2.587v-22.62h14.371v2.492H253.568z"/>
	<path fill="#3F3936" d="M268.979,414.791v-23.977h2.524v23.977H268.979z"/>
	<path fill="#3F3936" d="M290.622,400.27c1.356,1.709,1.966,4.041,1.83,6.996H278.57c0.21,1.662,0.875,2.981,1.995,3.959
		c1.12,0.979,2.511,1.468,4.172,1.468c1.051,0,2.024-0.185,2.918-0.553c0.894-0.368,1.677-0.894,2.35-1.577l1.388,1.482
		c-0.82,0.905-1.817,1.604-2.989,2.099c-1.173,0.494-2.458,0.741-3.857,0.741c-1.662,0-3.134-0.36-4.417-1.081
		c-1.283-0.72-2.279-1.732-2.989-3.036s-1.065-2.797-1.065-4.479s0.36-3.174,1.081-4.473s1.728-2.308,3.021-3.028
		s2.76-1.081,4.401-1.081C287.251,397.707,289.265,398.561,290.622,400.27z M288.532,401.303c-1.025-0.957-2.364-1.436-4.015-1.436
		c-1.62,0-2.968,0.484-4.046,1.451c-1.078,0.968-1.711,2.262-1.9,3.881h11.625C290.111,403.559,289.557,402.26,288.532,401.303z"/>
	<path fill="#3F3936" d="M306.37,397.77h2.792l-5.694,8.266l6.104,8.755h-2.934l-4.843-6.94l-5.016,6.94h-2.839l6.199-8.755
		l-5.773-8.266h2.903l4.527,6.452L306.37,397.77z"/>
	<path fill="#3F3936" d="M315.818,391.642c0.315,0.331,0.473,0.744,0.473,1.238s-0.158,0.909-0.473,1.246
		c-0.315,0.336-0.71,0.505-1.183,0.505s-0.865-0.166-1.175-0.497c-0.31-0.332-0.465-0.75-0.465-1.254
		c0-0.494,0.155-0.907,0.465-1.238c0.31-0.332,0.702-0.497,1.175-0.497S315.503,391.31,315.818,391.642z M313.421,414.791V397.77
		h2.477v17.021H313.421z"/>
	<path fill="#3F3936" d="M335.513,398.772c1.235,0.73,2.198,1.753,2.887,3.067c0.688,1.315,1.033,2.809,1.033,4.48
		c0,1.661-0.339,3.145-1.018,4.448s-1.63,2.316-2.855,3.036c-1.226,0.721-2.637,1.081-4.235,1.081c-1.504,0-2.821-0.329-3.952-0.986
		s-2.017-1.574-2.658-2.752v3.644h-2.524v-23.977h2.524v10.632c0.62-1.21,1.496-2.141,2.626-2.792
		c1.13-0.652,2.438-0.979,3.92-0.979C332.86,397.675,334.277,398.041,335.513,398.772z M333.943,411.786
		c0.925-0.542,1.648-1.296,2.169-2.264s0.781-2.056,0.781-3.266c0-1.209-0.26-2.292-0.781-3.249s-1.244-1.709-2.169-2.256
		s-1.966-0.82-3.123-0.82c-1.188,0-2.246,0.269-3.171,0.805s-1.646,1.291-2.161,2.264c-0.516,0.973-0.773,2.059-0.773,3.257
		c0,1.23,0.257,2.324,0.773,3.281c0.515,0.957,1.235,1.706,2.161,2.248s1.982,0.812,3.171,0.812
		C331.977,412.598,333.018,412.328,333.943,411.786z"/>
	<path fill="#3F3936" d="M344.023,414.791v-23.977h2.524v23.977H344.023z"/>
	<path fill="#3F3936" d="M365.665,400.27c1.356,1.709,1.966,4.041,1.83,6.996h-13.881c0.21,1.662,0.875,2.981,1.995,3.959
		c1.12,0.979,2.511,1.468,4.172,1.468c1.051,0,2.024-0.185,2.918-0.553c0.894-0.368,1.677-0.894,2.35-1.577l1.388,1.482
		c-0.82,0.905-1.817,1.604-2.989,2.099c-1.173,0.494-2.458,0.741-3.857,0.741c-1.662,0-3.134-0.36-4.417-1.081
		c-1.283-0.72-2.279-1.732-2.989-3.036s-1.065-2.797-1.065-4.479s0.36-3.174,1.081-4.473s1.728-2.308,3.021-3.028
		s2.76-1.081,4.401-1.081C362.294,397.707,364.308,398.561,365.665,400.27z M363.575,401.303c-1.025-0.957-2.364-1.436-4.015-1.436
		c-1.62,0-2.968,0.484-4.046,1.451c-1.078,0.968-1.711,2.262-1.9,3.881h11.625C365.154,403.559,364.6,402.26,363.575,401.303z"/>
	<path fill="#3F3936" d="M373.086,412.204c0.3,0.305,0.45,0.704,0.45,1.199c0,0.431-0.164,0.894-0.489,1.388l-1.514,2.318h-1.42
		l1.073-2.35c-0.473-0.284-0.71-0.747-0.71-1.389c0-0.473,0.145-0.862,0.434-1.167c0.289-0.305,0.649-0.458,1.081-0.458
		C372.421,411.746,372.787,411.899,373.086,412.204z"/>
</g>
<g>
	<path fill="#3F3936" d="M252.949,452.556l-6.751-17.021h2.682l5.427,14.402l5.395-14.402h2.556l-6.688,17.021H252.949z"/>
	<path fill="#3F3936" d="M277.562,438.036c1.356,1.709,1.966,4.041,1.83,6.996H265.51c0.21,1.662,0.875,2.981,1.995,3.959
		c1.12,0.979,2.511,1.468,4.172,1.468c1.051,0,2.024-0.185,2.918-0.553c0.894-0.368,1.677-0.894,2.35-1.577l1.388,1.482
		c-0.82,0.905-1.817,1.604-2.989,2.099c-1.173,0.494-2.458,0.741-3.857,0.741c-1.662,0-3.134-0.36-4.417-1.081
		c-1.283-0.72-2.279-1.732-2.989-3.036s-1.065-2.797-1.065-4.479s0.36-3.174,1.081-4.473s1.728-2.308,3.021-3.028
		s2.76-1.081,4.401-1.081C274.191,435.472,276.205,436.327,277.562,438.036z M275.472,439.069c-1.025-0.957-2.364-1.436-4.015-1.436
		c-1.62,0-2.968,0.484-4.046,1.451c-1.078,0.968-1.711,2.262-1.9,3.881h11.625C277.051,441.325,276.497,440.026,275.472,439.069z"/>
	<path fill="#3F3936" d="M288.635,436.458c1.03-0.657,2.266-0.996,3.707-1.018v2.54c-1.767-0.021-3.186,0.471-4.259,1.475
		s-1.688,2.358-1.846,4.062v9.039h-2.508v-17.021h2.508v3.771C286.805,438.065,287.604,437.116,288.635,436.458z"/>
	<path fill="#3F3936" d="M303.098,435.843c0.946,0.269,1.772,0.649,2.477,1.144l-0.962,2.003c-0.662-0.431-1.404-0.77-2.224-1.017
		s-1.619-0.371-2.397-0.371c-1.01,0-1.822,0.187-2.437,0.56c-0.615,0.374-0.923,0.939-0.923,1.696c0,0.516,0.173,0.946,0.521,1.293
		c0.347,0.348,0.773,0.629,1.278,0.845c0.504,0.215,1.209,0.449,2.114,0.701c1.188,0.348,2.153,0.694,2.895,1.042
		c0.741,0.347,1.375,0.849,1.901,1.506c0.525,0.657,0.789,1.512,0.789,2.563c0,1.599-0.597,2.806-1.791,3.62
		c-1.193,0.815-2.674,1.223-4.44,1.223c-1.23,0-2.427-0.21-3.588-0.631c-1.162-0.421-2.143-1.004-2.942-1.751l0.978-1.909
		c0.715,0.663,1.583,1.188,2.603,1.578c1.02,0.389,2.035,0.583,3.044,0.583c1.073,0,1.948-0.21,2.626-0.631
		c0.678-0.42,1.018-1.041,1.018-1.861s-0.326-1.428-0.978-1.822c-0.652-0.394-1.657-0.785-3.013-1.175
		c-1.188-0.368-2.132-0.712-2.832-1.033c-0.699-0.32-1.304-0.799-1.814-1.436c-0.51-0.636-0.765-1.464-0.765-2.484
		c0-1.546,0.56-2.705,1.68-3.479c1.12-0.772,2.532-1.159,4.235-1.159C301.168,435.441,302.151,435.575,303.098,435.843z"/>
	<path fill="#3F3936" d="M320.812,449.938c-1.356,1.829-3.434,2.744-6.231,2.744c-1.146,0-2.158-0.226-3.037-0.678
		c-0.878-0.452-1.556-1.075-2.035-1.869s-0.718-1.681-0.718-2.658c0-1.483,0.56-2.661,1.68-3.534
		c1.12-0.872,2.684-1.319,4.693-1.341h5.584v-0.993c0-1.272-0.387-2.253-1.16-2.942c-0.773-0.688-1.906-1.033-3.399-1.033
		c-1.725,0-3.523,0.647-5.395,1.94l-1.057-1.846c1.209-0.799,2.324-1.38,3.344-1.743c1.02-0.362,2.219-0.544,3.597-0.544
		c2.093,0,3.704,0.516,4.835,1.546c1.13,1.031,1.706,2.472,1.727,4.322l0.032,11.247h-2.461V449.938z M318.761,449.472
		c1.02-0.678,1.693-1.611,2.019-2.8v-2.035h-5.3c-2.882,0-4.322,0.915-4.322,2.745c0,0.946,0.355,1.701,1.065,2.264
		c0.709,0.562,1.659,0.844,2.847,0.844C316.511,450.49,317.741,450.151,318.761,449.472z"/>
	<path fill="#3F3936" d="M333.826,452.682c-1.314,0-2.366-0.402-3.155-1.206c-0.789-0.805-1.183-2.017-1.183-3.637v-9.717h-2.445
		v-2.035h2.445v-4.495h2.492v4.495l5.395-0.047v2.082h-5.395v9.26c0,1.01,0.189,1.737,0.568,2.185
		c0.379,0.447,0.947,0.671,1.704,0.671c0.884,0,1.788-0.295,2.713-0.884l0.71,2.035C336.444,452.23,335.161,452.662,333.826,452.682
		z"/>
	<path fill="#3F3936" d="M343.874,429.408c0.315,0.331,0.473,0.744,0.473,1.238s-0.158,0.909-0.473,1.246
		c-0.315,0.336-0.71,0.505-1.183,0.505s-0.865-0.166-1.175-0.497c-0.31-0.332-0.465-0.75-0.465-1.254
		c0-0.494,0.155-0.907,0.465-1.238c0.31-0.332,0.702-0.497,1.175-0.497S343.559,429.076,343.874,429.408z M341.477,452.556v-17.021
		h2.477v17.021H341.477z"/>
	<path fill="#3F3936" d="M350.247,452.556V428.58h2.524v23.977H350.247z"/>
	<path fill="#3F3936" d="M371.889,438.036c1.356,1.709,1.966,4.041,1.83,6.996h-13.881c0.21,1.662,0.875,2.981,1.995,3.959
		c1.12,0.979,2.511,1.468,4.172,1.468c1.051,0,2.024-0.185,2.918-0.553c0.894-0.368,1.677-0.894,2.35-1.577l1.388,1.482
		c-0.82,0.905-1.817,1.604-2.989,2.099c-1.173,0.494-2.458,0.741-3.857,0.741c-1.662,0-3.134-0.36-4.417-1.081
		c-1.283-0.72-2.279-1.732-2.989-3.036s-1.065-2.797-1.065-4.479s0.36-3.174,1.081-4.473s1.728-2.308,3.021-3.028
		s2.76-1.081,4.401-1.081C368.519,435.472,370.533,436.327,371.889,438.036z M369.799,439.069c-1.025-0.957-2.364-1.436-4.015-1.436
		c-1.62,0-2.968,0.484-4.046,1.451c-1.078,0.968-1.711,2.262-1.9,3.881h11.625C371.379,441.325,370.824,440.026,369.799,439.069z"/>
</g>
<g>
	<path fill="#3F3936" d="M206.706,467.173c0.315,0.331,0.473,0.744,0.473,1.238s-0.158,0.909-0.473,1.246
		c-0.315,0.336-0.71,0.505-1.183,0.505s-0.865-0.166-1.175-0.497c-0.31-0.332-0.465-0.75-0.465-1.254
		c0-0.494,0.155-0.907,0.465-1.238c0.31-0.332,0.702-0.497,1.175-0.497S206.39,466.841,206.706,467.173z M204.308,490.322v-17.021
		h2.477v17.021H204.308z"/>
	<path fill="#3F3936" d="M226.778,474.965c1.141,1.173,1.711,2.79,1.711,4.851v10.506h-2.524v-9.827
		c0-1.504-0.426-2.677-1.277-3.518c-0.852-0.842-2.03-1.263-3.534-1.263c-1.662,0.021-2.992,0.528-3.991,1.522
		c-1,0.994-1.578,2.306-1.735,3.936v9.149h-2.508v-17.021h2.508v3.738c1.167-2.523,3.365-3.802,6.594-3.833
		C224.052,473.207,225.637,473.792,226.778,474.965z"/>
	<path fill="#3F3936" d="M237.962,469.389c-0.573,0.536-0.859,1.277-0.859,2.225v2.192h4.874v2.082h-4.874v14.434h-2.493v-14.434
		h-2.192v-2.082h2.192v-1.861c0-1.188,0.255-2.219,0.765-3.092s1.178-1.53,2.003-1.972c0.825-0.442,1.722-0.663,2.689-0.663
		c1.42,0.042,2.64,0.442,3.66,1.199l-1.041,2.035c-0.82-0.578-1.683-0.868-2.587-0.868
		C239.248,468.584,238.535,468.853,237.962,469.389z"/>
	<path fill="#3F3936" d="M252.022,474.224c1.03-0.657,2.266-0.996,3.707-1.018v2.54c-1.767-0.021-3.186,0.471-4.259,1.475
		s-1.688,2.358-1.846,4.062v9.039h-2.508v-17.021h2.508v3.771C250.192,475.831,250.991,474.881,252.022,474.224z"/>
	<path fill="#3F3936" d="M269.382,487.704c-1.356,1.829-3.434,2.744-6.231,2.744c-1.146,0-2.158-0.226-3.037-0.678
		c-0.878-0.452-1.556-1.075-2.035-1.869s-0.718-1.681-0.718-2.658c0-1.483,0.56-2.661,1.68-3.534
		c1.12-0.872,2.684-1.319,4.693-1.341h5.584v-0.993c0-1.272-0.387-2.253-1.16-2.942c-0.773-0.688-1.906-1.033-3.399-1.033
		c-1.725,0-3.523,0.647-5.395,1.94l-1.057-1.846c1.209-0.799,2.324-1.38,3.344-1.743c1.02-0.362,2.219-0.544,3.597-0.544
		c2.093,0,3.704,0.516,4.835,1.546c1.13,1.031,1.706,2.472,1.727,4.322l0.032,11.247h-2.461V487.704z M267.332,487.238
		c1.02-0.678,1.693-1.611,2.019-2.8v-2.035h-5.3c-2.882,0-4.322,0.915-4.322,2.745c0,0.946,0.355,1.701,1.065,2.264
		c0.709,0.562,1.659,0.844,2.847,0.844C265.081,488.255,266.312,487.917,267.332,487.238z"/>
	<path fill="#3F3936" d="M284.92,473.609c0.946,0.269,1.772,0.649,2.477,1.144l-0.962,2.003c-0.662-0.431-1.404-0.77-2.224-1.017
		s-1.619-0.371-2.397-0.371c-1.01,0-1.822,0.187-2.437,0.56c-0.615,0.374-0.923,0.939-0.923,1.696c0,0.516,0.173,0.946,0.521,1.293
		c0.347,0.348,0.773,0.629,1.278,0.845c0.504,0.215,1.209,0.449,2.114,0.701c1.188,0.348,2.153,0.694,2.895,1.042
		c0.741,0.347,1.375,0.849,1.901,1.506c0.525,0.657,0.789,1.512,0.789,2.563c0,1.599-0.597,2.806-1.791,3.62
		c-1.193,0.815-2.674,1.223-4.44,1.223c-1.23,0-2.427-0.21-3.588-0.631c-1.162-0.421-2.143-1.004-2.942-1.751l0.978-1.909
		c0.715,0.663,1.583,1.188,2.603,1.578c1.02,0.389,2.035,0.583,3.044,0.583c1.073,0,1.948-0.21,2.626-0.631
		c0.678-0.42,1.018-1.041,1.018-1.861s-0.326-1.428-0.978-1.822c-0.652-0.394-1.657-0.785-3.013-1.175
		c-1.188-0.368-2.132-0.712-2.832-1.033c-0.699-0.32-1.304-0.799-1.814-1.436c-0.51-0.636-0.765-1.464-0.765-2.484
		c0-1.546,0.56-2.705,1.68-3.479c1.12-0.772,2.532-1.159,4.235-1.159C282.99,473.207,283.974,473.34,284.92,473.609z"/>
	<path fill="#3F3936" d="M297.019,490.448c-1.314,0-2.366-0.402-3.155-1.206c-0.789-0.805-1.183-2.017-1.183-3.637v-9.717h-2.445
		v-2.035h2.445v-4.495h2.492v4.495l5.395-0.047v2.082h-5.395v9.26c0,1.01,0.189,1.737,0.568,2.185
		c0.379,0.447,0.947,0.671,1.704,0.671c0.884,0,1.788-0.295,2.713-0.884l0.71,2.035
		C299.637,489.996,298.354,490.427,297.019,490.448z"/>
	<path fill="#3F3936" d="M309.575,474.224c1.03-0.657,2.266-0.996,3.707-1.018v2.54c-1.767-0.021-3.186,0.471-4.259,1.475
		s-1.688,2.358-1.846,4.062v9.039h-2.508v-17.021h2.508v3.771C307.745,475.831,308.544,474.881,309.575,474.224z"/>
	<path fill="#3F3936" d="M331.422,490.322h-2.508v-3.849c-1.094,2.587-3.25,3.901-6.468,3.943c-1.977,0-3.531-0.592-4.661-1.774
		c-1.13-1.184-1.696-2.8-1.696-4.851v-10.49h2.508v9.812c0,1.504,0.42,2.677,1.262,3.518c0.841,0.842,1.993,1.262,3.455,1.262
		c1.746-0.021,3.116-0.606,4.109-1.759c0.994-1.151,1.491-2.642,1.491-4.472v-8.36h2.508V490.322z"/>
	<path fill="#3F3936" d="M348.04,473.901c1.099,0.441,2.032,1.057,2.8,1.846l-1.388,1.782c-1.378-1.314-3.066-1.972-5.063-1.972
		c-1.167,0-2.208,0.263-3.124,0.788c-0.915,0.526-1.63,1.265-2.145,2.217c-0.516,0.952-0.773,2.037-0.773,3.258
		c0,1.229,0.257,2.318,0.773,3.265c0.515,0.946,1.23,1.69,2.145,2.232s1.956,0.812,3.124,0.812c1.114,0,2.119-0.189,3.013-0.568
		c0.894-0.378,1.646-0.925,2.256-1.641l1.451,1.562c-0.778,0.926-1.749,1.646-2.911,2.161c-1.162,0.516-2.463,0.773-3.904,0.773
		c-1.641,0-3.097-0.36-4.37-1.081c-1.272-0.72-2.269-1.732-2.989-3.036s-1.081-2.797-1.081-4.479s0.365-3.174,1.097-4.473
		c0.73-1.299,1.748-2.308,3.052-3.028c1.304-0.721,2.776-1.081,4.417-1.081C345.734,473.238,346.941,473.458,348.04,473.901z"/>
	<path fill="#3F3936" d="M360.782,490.448c-1.314,0-2.366-0.402-3.155-1.206c-0.789-0.805-1.183-2.017-1.183-3.637v-9.717h-2.445
		v-2.035h2.445v-4.495h2.492v4.495l5.395-0.047v2.082h-5.395v9.26c0,1.01,0.189,1.737,0.568,2.185
		c0.379,0.447,0.947,0.671,1.704,0.671c0.884,0,1.788-0.295,2.713-0.884l0.71,2.035C363.4,489.996,362.117,490.427,360.782,490.448z
		"/>
	<path fill="#3F3936" d="M383.181,490.322h-2.508v-3.849c-1.094,2.587-3.25,3.901-6.468,3.943c-1.977,0-3.531-0.592-4.661-1.774
		c-1.13-1.184-1.696-2.8-1.696-4.851v-10.49h2.508v9.812c0,1.504,0.42,2.677,1.262,3.518c0.841,0.842,1.993,1.262,3.455,1.262
		c1.746-0.021,3.116-0.606,4.109-1.759c0.994-1.151,1.491-2.642,1.491-4.472v-8.36h2.508V490.322z"/>
	<path fill="#3F3936" d="M394.239,474.224c1.03-0.657,2.266-0.996,3.707-1.018v2.54c-1.767-0.021-3.186,0.471-4.259,1.475
		s-1.688,2.358-1.846,4.062v9.039h-2.508v-17.021h2.508v3.771C392.409,475.831,393.208,474.881,394.239,474.224z"/>
	<path fill="#3F3936" d="M413.742,475.801c1.356,1.709,1.966,4.041,1.83,6.996H401.69c0.21,1.662,0.875,2.981,1.995,3.959
		c1.12,0.979,2.511,1.468,4.172,1.468c1.051,0,2.024-0.185,2.918-0.553c0.894-0.368,1.677-0.894,2.35-1.577l1.388,1.482
		c-0.82,0.905-1.817,1.604-2.989,2.099c-1.173,0.494-2.458,0.741-3.857,0.741c-1.662,0-3.134-0.36-4.417-1.081
		c-1.283-0.72-2.279-1.732-2.989-3.036s-1.065-2.797-1.065-4.479s0.36-3.174,1.081-4.473s1.728-2.308,3.021-3.028
		s2.76-1.081,4.401-1.081C410.371,473.238,412.385,474.092,413.742,475.801z M411.652,476.834c-1.025-0.957-2.364-1.436-4.015-1.436
		c-1.62,0-2.968,0.484-4.046,1.451c-1.078,0.968-1.711,2.262-1.9,3.881h11.625C413.231,479.09,412.677,477.792,411.652,476.834z"/>
</g>
<g>
	<path fill="#3F3936" d="M650.409,265.02l-13.566-18.156v18.156h-2.587v-22.621h2.682l13.566,18.188v-18.188h2.555v22.621H650.409z"
		/>
	<path fill="#3F3936" d="M670.955,249.017c1.31,0.72,2.332,1.732,3.068,3.037c0.735,1.304,1.104,2.781,1.104,4.433
		c0,1.683-0.368,3.176-1.104,4.479c-0.736,1.304-1.759,2.322-3.068,3.053s-2.795,1.096-4.456,1.096c-1.662,0-3.15-0.365-4.465-1.096
		s-2.337-1.749-3.067-3.053c-0.731-1.304-1.097-2.797-1.097-4.479c0-1.662,0.365-3.142,1.097-4.441
		c0.73-1.298,1.753-2.308,3.067-3.028s2.803-1.081,4.465-1.081C668.16,247.937,669.645,248.297,670.955,249.017z M663.343,251.028
		c-0.936,0.536-1.661,1.28-2.177,2.232s-0.772,2.038-0.772,3.257c0,1.23,0.257,2.324,0.772,3.281s1.241,1.706,2.177,2.248
		c0.936,0.542,1.987,0.812,3.155,0.812c1.167,0,2.219-0.271,3.154-0.812c0.937-0.542,1.662-1.291,2.177-2.248
		c0.516-0.957,0.773-2.051,0.773-3.281s-0.258-2.319-0.773-3.265c-0.515-0.947-1.243-1.688-2.185-2.224
		c-0.941-0.537-1.99-0.805-3.146-0.805C665.331,250.224,664.279,250.492,663.343,251.028z"/>
	<path fill="#3F3936" d="M702.25,249.664c1.141,1.173,1.712,2.79,1.712,4.851v10.506h-2.524v-9.828c0-1.503-0.426-2.676-1.277-3.518
		c-0.852-0.841-2.03-1.262-3.533-1.262c-1.662,0.021-2.992,0.528-3.991,1.522c-0.999,0.994-1.577,2.306-1.735,3.936v9.149h-2.508
		V248h2.508v3.738c1.167-2.524,3.365-3.801,6.594-3.833C699.524,247.905,701.109,248.491,702.25,249.664z"/>
	<path fill="#3F3936" d="M722.434,250.5c1.356,1.709,1.967,4.041,1.83,6.996h-13.882c0.211,1.662,0.876,2.981,1.996,3.959
		c1.119,0.978,2.51,1.467,4.172,1.467c1.052,0,2.024-0.184,2.918-0.552s1.678-0.894,2.351-1.578l1.389,1.483
		c-0.82,0.904-1.817,1.604-2.989,2.098c-1.173,0.495-2.459,0.742-3.857,0.742c-1.661,0-3.134-0.36-4.417-1.081
		s-2.279-1.732-2.989-3.037c-0.709-1.304-1.064-2.797-1.064-4.48s0.36-3.173,1.081-4.472c0.72-1.298,1.727-2.308,3.021-3.028
		c1.293-0.72,2.761-1.081,4.401-1.081C719.064,247.937,721.078,248.791,722.434,250.5z M720.344,251.533
		c-1.025-0.957-2.364-1.435-4.015-1.435c-1.62,0-2.969,0.484-4.046,1.451c-1.078,0.968-1.712,2.261-1.901,3.88h11.626
		C721.924,253.789,721.37,252.49,720.344,251.533z"/>
	<path fill="#3F3936" d="M741.426,250.5c1.356,1.709,1.967,4.041,1.83,6.996h-13.882c0.211,1.662,0.876,2.981,1.996,3.959
		c1.119,0.978,2.51,1.467,4.172,1.467c1.052,0,2.024-0.184,2.918-0.552s1.678-0.894,2.351-1.578l1.389,1.483
		c-0.82,0.904-1.817,1.604-2.989,2.098c-1.173,0.495-2.459,0.742-3.857,0.742c-1.661,0-3.134-0.36-4.417-1.081
		s-2.279-1.732-2.989-3.037c-0.709-1.304-1.064-2.797-1.064-4.48s0.36-3.173,1.081-4.472c0.72-1.298,1.727-2.308,3.021-3.028
		c1.293-0.72,2.761-1.081,4.401-1.081C738.056,247.937,740.07,248.791,741.426,250.5z M739.336,251.533
		c-1.025-0.957-2.364-1.435-4.015-1.435c-1.62,0-2.969,0.484-4.046,1.451c-1.078,0.968-1.712,2.261-1.901,3.88H741
		C740.917,253.789,740.362,252.49,739.336,251.533z"/>
	<path fill="#3F3936" d="M763.226,265.02h-2.523v-3.644c-0.642,1.209-1.528,2.14-2.658,2.792c-1.131,0.652-2.453,0.978-3.967,0.978
		c-1.599,0-3.021-0.365-4.268-1.096c-1.246-0.73-2.214-1.753-2.902-3.068s-1.033-2.813-1.033-4.496s0.345-3.173,1.033-4.472
		s1.653-2.313,2.895-3.044s2.655-1.097,4.243-1.097c1.504,0,2.834,0.326,3.991,0.978c1.156,0.652,2.045,1.593,2.666,2.824v-10.632
		h2.523V265.02z M757.737,262.078c0.926-0.542,1.651-1.296,2.177-2.264c0.525-0.967,0.789-2.056,0.789-3.265
		c0-1.23-0.264-2.329-0.789-3.297c-0.525-0.967-1.251-1.725-2.177-2.271s-1.982-0.82-3.171-0.82s-2.25,0.273-3.187,0.82
		c-0.936,0.547-1.666,1.307-2.192,2.279c-0.525,0.973-0.788,2.069-0.788,3.289c0,1.209,0.263,2.298,0.788,3.265
		c0.526,0.968,1.257,1.722,2.192,2.264c0.937,0.542,1.998,0.812,3.187,0.812S756.811,262.62,757.737,262.078z"/>
	<path fill="#3F3936" d="M782.226,244.087c-0.573,0.536-0.859,1.278-0.859,2.224v2.193h4.874v2.082h-4.874v14.434h-2.492v-14.434
		h-2.193v-2.082h2.193v-1.861c0-1.188,0.255-2.219,0.765-3.092s1.178-1.53,2.004-1.972c0.825-0.441,1.722-0.662,2.689-0.662
		c1.419,0.042,2.639,0.441,3.659,1.199l-1.041,2.035c-0.82-0.578-1.683-0.868-2.587-0.868
		C783.512,243.283,782.799,243.551,782.226,244.087z"/>
	<path fill="#3F3936" d="M799.935,249.017c1.31,0.72,2.332,1.732,3.068,3.037c0.735,1.304,1.104,2.781,1.104,4.433
		c0,1.683-0.368,3.176-1.104,4.479c-0.736,1.304-1.759,2.322-3.068,3.053s-2.795,1.096-4.456,1.096c-1.662,0-3.15-0.365-4.465-1.096
		s-2.337-1.749-3.067-3.053c-0.731-1.304-1.097-2.797-1.097-4.479c0-1.662,0.365-3.142,1.097-4.441
		c0.73-1.298,1.753-2.308,3.067-3.028s2.803-1.081,4.465-1.081C797.14,247.937,798.625,248.297,799.935,249.017z M792.324,251.028
		c-0.936,0.536-1.661,1.28-2.177,2.232s-0.772,2.038-0.772,3.257c0,1.23,0.257,2.324,0.772,3.281s1.241,1.706,2.177,2.248
		c0.936,0.542,1.987,0.812,3.155,0.812c1.167,0,2.219-0.271,3.154-0.812c0.937-0.542,1.662-1.291,2.177-2.248
		c0.516-0.957,0.773-2.051,0.773-3.281s-0.258-2.319-0.773-3.265c-0.515-0.947-1.243-1.688-2.185-2.224
		c-0.941-0.537-1.99-0.805-3.146-0.805C794.311,250.224,793.259,250.492,792.324,251.028z"/>
	<path fill="#3F3936" d="M813.429,248.922c1.031-0.657,2.267-0.996,3.707-1.018v2.54c-1.767-0.021-3.187,0.471-4.259,1.475
		s-1.688,2.358-1.846,4.062v9.039h-2.508V248h2.508v3.77C811.6,250.529,812.399,249.58,813.429,248.922z"/>
	<path fill="#3F3936" d="M842.856,249.001c1.236,0.731,2.198,1.754,2.887,3.068s1.033,2.808,1.033,4.48
		c0,1.662-0.339,3.145-1.018,4.448c-0.678,1.304-1.63,2.316-2.854,3.037c-1.226,0.72-2.637,1.081-4.235,1.081
		c-1.504,0-2.821-0.329-3.951-0.986c-1.131-0.657-2.018-1.575-2.658-2.753v9.906h-2.524V248h2.524v3.675
		c0.62-1.209,1.496-2.14,2.626-2.792c1.131-0.652,2.438-0.978,3.92-0.978C840.204,247.905,841.621,248.271,842.856,249.001z
		 M841.287,262.015c0.926-0.542,1.648-1.296,2.169-2.264c0.521-0.967,0.781-2.056,0.781-3.265c0-1.209-0.261-2.292-0.781-3.25
		c-0.521-0.957-1.243-1.708-2.169-2.255s-1.967-0.82-3.123-0.82c-1.188,0-2.245,0.268-3.171,0.804
		c-0.926,0.537-1.646,1.291-2.161,2.264c-0.515,0.973-0.772,2.059-0.772,3.258c0,1.23,0.258,2.324,0.772,3.281
		c0.516,0.957,1.235,1.707,2.161,2.248s1.982,0.812,3.171,0.812C839.32,262.827,840.361,262.557,841.287,262.015z"/>
	<path fill="#3F3936" d="M864.033,250.5c1.356,1.709,1.967,4.041,1.83,6.996h-13.882c0.211,1.662,0.876,2.981,1.996,3.959
		c1.119,0.978,2.51,1.467,4.172,1.467c1.052,0,2.024-0.184,2.918-0.552s1.678-0.894,2.351-1.578l1.389,1.483
		c-0.82,0.904-1.817,1.604-2.989,2.098c-1.173,0.495-2.459,0.742-3.857,0.742c-1.661,0-3.134-0.36-4.417-1.081
		s-2.279-1.732-2.989-3.037c-0.709-1.304-1.064-2.797-1.064-4.48s0.36-3.173,1.081-4.472c0.72-1.298,1.727-2.308,3.021-3.028
		c1.293-0.72,2.761-1.081,4.401-1.081C860.663,247.937,862.676,248.791,864.033,250.5z M861.943,251.533
		c-1.025-0.957-2.364-1.435-4.015-1.435c-1.62,0-2.969,0.484-4.046,1.451c-1.078,0.968-1.712,2.261-1.901,3.88h11.626
		C863.523,253.789,862.968,252.49,861.943,251.533z"/>
	<path fill="#3F3936" d="M875.106,248.922c1.031-0.657,2.267-0.996,3.707-1.018v2.54c-1.767-0.021-3.187,0.471-4.259,1.475
		s-1.688,2.358-1.846,4.062v9.039h-2.508V248h2.508v3.77C873.277,250.529,874.076,249.58,875.106,248.922z"/>
	<path fill="#3F3936" d="M908.392,249.664c1.12,1.173,1.68,2.79,1.68,4.851v10.506h-2.508v-9.828c0-1.503-0.421-2.682-1.262-3.533
		c-0.842-0.852-1.993-1.278-3.455-1.278c-1.745,0.042-3.11,0.634-4.093,1.775c-0.983,1.141-1.476,2.642-1.476,4.503v8.36h-2.539
		v-9.828c0-1.503-0.416-2.682-1.246-3.533c-0.831-0.852-1.988-1.278-3.471-1.278c-1.725,0.042-3.089,0.634-4.094,1.775
		c-1.004,1.141-1.506,2.642-1.506,4.503v8.36h-2.477V248h2.477v3.833c0.557-1.293,1.385-2.266,2.484-2.918
		c1.099-0.652,2.437-0.988,4.015-1.01c1.598,0,2.923,0.387,3.975,1.16s1.762,1.869,2.13,3.289c0.515-1.482,1.349-2.589,2.5-3.32
		s2.558-1.106,4.22-1.128C905.723,247.905,907.272,248.491,908.392,249.664z"/>
	<path fill="#3F3936" d="M926.225,262.401c-1.356,1.83-3.434,2.745-6.23,2.745c-1.146,0-2.159-0.226-3.037-0.678
		c-0.878-0.452-1.557-1.075-2.034-1.869c-0.479-0.794-0.718-1.68-0.718-2.658c0-1.483,0.56-2.661,1.68-3.534
		c1.12-0.873,2.684-1.32,4.692-1.341h5.584v-0.994c0-1.272-0.386-2.253-1.159-2.942c-0.772-0.689-1.906-1.033-3.399-1.033
		c-1.725,0-3.522,0.646-5.395,1.94l-1.057-1.846c1.209-0.799,2.324-1.38,3.344-1.743c1.021-0.363,2.219-0.544,3.597-0.544
		c2.093,0,3.704,0.516,4.835,1.546c1.13,1.031,1.706,2.472,1.728,4.322l0.031,11.247h-2.461V262.401z M924.174,261.936
		c1.021-0.678,1.693-1.611,2.02-2.8v-2.035h-5.301c-2.881,0-4.321,0.915-4.321,2.745c0,0.946,0.354,1.701,1.064,2.264
		s1.658,0.844,2.847,0.844C921.924,262.954,923.155,262.614,924.174,261.936z"/>
	<path fill="#3F3936" d="M948.159,249.664c1.141,1.173,1.712,2.79,1.712,4.851v10.506h-2.524v-9.828
		c0-1.503-0.426-2.676-1.277-3.518c-0.852-0.841-2.03-1.262-3.533-1.262c-1.662,0.021-2.992,0.528-3.991,1.522
		c-0.999,0.994-1.577,2.306-1.735,3.936v9.149h-2.508V248h2.508v3.738c1.167-2.524,3.365-3.801,6.594-3.833
		C945.432,247.905,947.017,248.491,948.159,249.664z"/>
	<path fill="#3F3936" d="M968.342,250.5c1.356,1.709,1.967,4.041,1.83,6.996h-13.882c0.211,1.662,0.876,2.981,1.996,3.959
		c1.119,0.978,2.51,1.467,4.172,1.467c1.052,0,2.024-0.184,2.918-0.552s1.678-0.894,2.351-1.578l1.389,1.483
		c-0.82,0.904-1.817,1.604-2.989,2.098c-1.173,0.495-2.459,0.742-3.857,0.742c-1.661,0-3.134-0.36-4.417-1.081
		s-2.279-1.732-2.989-3.037c-0.709-1.304-1.064-2.797-1.064-4.48s0.36-3.173,1.081-4.472c0.72-1.298,1.727-2.308,3.021-3.028
		c1.293-0.72,2.761-1.081,4.401-1.081C964.972,247.937,966.986,248.791,968.342,250.5z M966.252,251.533
		c-1.025-0.957-2.364-1.435-4.015-1.435c-1.62,0-2.969,0.484-4.046,1.451c-1.078,0.968-1.712,2.261-1.901,3.88h11.626
		C967.833,253.789,967.278,252.49,966.252,251.533z"/>
	<path fill="#3F3936" d="M988.368,249.664c1.141,1.173,1.712,2.79,1.712,4.851v10.506h-2.524v-9.828
		c0-1.503-0.426-2.676-1.277-3.518c-0.852-0.841-2.03-1.262-3.533-1.262c-1.662,0.021-2.992,0.528-3.991,1.522
		c-0.999,0.994-1.577,2.306-1.735,3.936v9.149h-2.508V248h2.508v3.738c1.167-2.524,3.365-3.801,6.594-3.833
		C985.641,247.905,987.226,248.491,988.368,249.664z"/>
	<path fill="#3F3936" d="M1000.633,265.146c-1.315,0-2.366-0.402-3.155-1.207s-1.183-2.017-1.183-3.636v-9.717h-2.445v-2.035h2.445
		v-4.496h2.492v4.496l5.395-0.047v2.082h-5.395v9.26c0,1.009,0.189,1.738,0.567,2.185c0.379,0.447,0.946,0.67,1.704,0.67
		c0.883,0,1.787-0.294,2.713-0.883l0.71,2.035C1003.251,264.694,1001.968,265.125,1000.633,265.146z"/>
</g>
<g>
	<path fill="#3F3936" d="M698.901,286.405c1.762,0.994,3.155,2.351,4.18,4.07c1.025,1.72,1.538,3.636,1.538,5.75
		s-0.513,4.033-1.538,5.757c-1.024,1.725-2.432,3.082-4.219,4.07c-1.788,0.989-3.775,1.483-5.963,1.483h-9.055v-22.621h9.149
		C695.17,284.914,697.139,285.411,698.901,286.405z M686.431,305.074h6.594c1.661,0,3.176-0.381,4.543-1.144
		c1.367-0.762,2.447-1.816,3.241-3.163s1.191-2.85,1.191-4.512c0-1.661-0.405-3.163-1.215-4.503s-1.903-2.4-3.281-3.179
		c-1.377-0.778-2.902-1.167-4.574-1.167h-6.499V305.074z"/>
	<path fill="#3F3936" d="M721.797,293.014c1.356,1.709,1.967,4.041,1.83,6.996h-13.882c0.211,1.662,0.876,2.981,1.996,3.959
		c1.119,0.978,2.51,1.467,4.172,1.467c1.052,0,2.024-0.184,2.918-0.552s1.678-0.894,2.351-1.578l1.389,1.483
		c-0.82,0.904-1.817,1.604-2.989,2.098c-1.173,0.495-2.459,0.742-3.857,0.742c-1.661,0-3.134-0.36-4.417-1.081
		s-2.279-1.732-2.989-3.037c-0.709-1.304-1.064-2.797-1.064-4.48s0.36-3.173,1.081-4.472c0.72-1.298,1.727-2.308,3.021-3.028
		c1.293-0.72,2.761-1.081,4.401-1.081C718.427,290.451,720.441,291.306,721.797,293.014z M719.708,294.047
		c-1.025-0.957-2.364-1.435-4.015-1.435c-1.62,0-2.969,0.484-4.046,1.451c-1.078,0.968-1.712,2.261-1.901,3.88h11.626
		C721.288,296.303,720.733,295.005,719.708,294.047z"/>
	<path fill="#3F3936" d="M731.476,307.535l-6.752-17.021h2.682l5.427,14.402l5.395-14.402h2.556l-6.688,17.021H731.476z"/>
	<path fill="#3F3936" d="M759.468,286.374c1.809,1.015,3.241,2.39,4.299,4.125c1.057,1.735,1.585,3.644,1.585,5.726
		c0,2.093-0.528,4.012-1.585,5.757c-1.058,1.746-2.49,3.129-4.299,4.149s-3.786,1.53-5.932,1.53c-2.177,0-4.169-0.51-5.978-1.53
		c-1.81-1.02-3.242-2.403-4.299-4.149c-1.057-1.746-1.585-3.665-1.585-5.757s0.528-4.009,1.585-5.75
		c1.057-1.74,2.489-3.113,4.299-4.117c1.809-1.004,3.801-1.506,5.978-1.506C755.682,284.851,757.66,285.358,759.468,286.374z
		 M748.931,288.511c-1.409,0.799-2.534,1.877-3.376,3.234c-0.842,1.356-1.262,2.85-1.262,4.48c0,1.64,0.42,3.145,1.262,4.511
		c0.842,1.367,1.967,2.448,3.376,3.242s2.944,1.191,4.605,1.191c1.662,0,3.189-0.397,4.583-1.191s2.505-1.875,3.336-3.242
		c0.831-1.367,1.246-2.871,1.246-4.511c0-1.641-0.415-3.137-1.246-4.488c-0.831-1.352-1.945-2.427-3.344-3.226
		c-1.399-0.799-2.924-1.199-4.575-1.199C751.875,287.312,750.34,287.712,748.931,288.511z"/>
	<path fill="#3F3936" d="M783.2,291.516c1.236,0.731,2.198,1.754,2.887,3.068s1.033,2.808,1.033,4.48
		c0,1.662-0.339,3.145-1.018,4.448c-0.678,1.304-1.63,2.316-2.854,3.037c-1.226,0.72-2.637,1.081-4.235,1.081
		c-1.504,0-2.821-0.329-3.951-0.986c-1.131-0.657-2.018-1.575-2.658-2.753v9.906h-2.524v-23.283h2.524v3.675
		c0.62-1.209,1.496-2.14,2.626-2.792c1.131-0.652,2.438-0.978,3.92-0.978C780.547,290.419,781.964,290.785,783.2,291.516z
		 M781.63,304.53c0.926-0.542,1.648-1.296,2.169-2.264c0.521-0.967,0.781-2.056,0.781-3.265c0-1.209-0.261-2.292-0.781-3.25
		c-0.521-0.957-1.243-1.708-2.169-2.255s-1.967-0.82-3.123-0.82c-1.188,0-2.245,0.268-3.171,0.804
		c-0.926,0.537-1.646,1.291-2.161,2.264c-0.515,0.973-0.772,2.059-0.772,3.258c0,1.23,0.258,2.324,0.772,3.281
		c0.516,0.957,1.235,1.707,2.161,2.248s1.982,0.812,3.171,0.812C779.664,305.342,780.705,305.071,781.63,304.53z"/>
	<path fill="#3F3936" d="M799.014,290.822c0.946,0.268,1.771,0.649,2.477,1.144l-0.962,2.003c-0.663-0.431-1.404-0.771-2.225-1.018
		s-1.619-0.371-2.397-0.371c-1.01,0-1.822,0.187-2.438,0.56c-0.615,0.374-0.923,0.938-0.923,1.696c0,0.515,0.174,0.946,0.521,1.293
		c0.348,0.347,0.773,0.628,1.278,0.844c0.505,0.216,1.209,0.45,2.113,0.702c1.188,0.347,2.153,0.694,2.895,1.041
		c0.742,0.347,1.375,0.849,1.901,1.506c0.525,0.657,0.788,1.512,0.788,2.563c0,1.599-0.597,2.805-1.79,3.62s-2.674,1.223-4.44,1.223
		c-1.23,0-2.427-0.21-3.589-0.631c-1.162-0.421-2.143-1.004-2.941-1.751l0.978-1.909c0.715,0.662,1.583,1.188,2.603,1.577
		c1.021,0.389,2.035,0.584,3.045,0.584c1.072,0,1.948-0.21,2.626-0.631c0.679-0.42,1.018-1.041,1.018-1.861
		s-0.326-1.427-0.978-1.822c-0.652-0.395-1.656-0.786-3.013-1.175c-1.188-0.368-2.133-0.712-2.832-1.033s-1.304-0.799-1.813-1.436
		c-0.511-0.636-0.766-1.464-0.766-2.484c0-1.546,0.561-2.705,1.68-3.478c1.12-0.773,2.532-1.16,4.235-1.16
		C797.084,290.419,798.068,290.554,799.014,290.822z"/>
	<path fill="#3F3936" d="M827.849,293.014c1.356,1.709,1.967,4.041,1.83,6.996h-13.882c0.211,1.662,0.876,2.981,1.996,3.959
		c1.119,0.978,2.51,1.467,4.172,1.467c1.052,0,2.024-0.184,2.918-0.552s1.678-0.894,2.351-1.578l1.389,1.483
		c-0.82,0.904-1.817,1.604-2.989,2.098c-1.173,0.495-2.459,0.742-3.857,0.742c-1.661,0-3.134-0.36-4.417-1.081
		s-2.279-1.732-2.989-3.037c-0.709-1.304-1.064-2.797-1.064-4.48s0.36-3.173,1.081-4.472c0.72-1.298,1.727-2.308,3.021-3.028
		c1.293-0.72,2.761-1.081,4.401-1.081C824.479,290.451,826.493,291.306,827.849,293.014z M825.759,294.047
		c-1.025-0.957-2.364-1.435-4.015-1.435c-1.62,0-2.969,0.484-4.046,1.451c-1.078,0.968-1.712,2.261-1.901,3.88h11.626
		C827.339,296.303,826.785,295.005,825.759,294.047z"/>
	<path fill="#3F3936" d="M847.875,292.178c1.141,1.173,1.712,2.79,1.712,4.851v10.506h-2.524v-9.828
		c0-1.503-0.426-2.676-1.277-3.518c-0.852-0.841-2.03-1.262-3.533-1.262c-1.662,0.021-2.992,0.528-3.991,1.522
		c-0.999,0.994-1.577,2.306-1.735,3.936v9.149h-2.508v-17.021h2.508v3.738c1.167-2.524,3.365-3.801,6.594-3.833
		C845.148,290.419,846.733,291.006,847.875,292.178z"/>
	<path fill="#3F3936" d="M870.029,305.752c0,1.641-0.357,3.074-1.072,4.299s-1.717,2.166-3.005,2.824
		c-1.288,0.657-2.784,0.986-4.488,0.986c-2.523-0.021-4.848-0.836-6.972-2.445l1.151-1.94c0.862,0.715,1.756,1.249,2.682,1.601
		c0.926,0.352,1.94,0.539,3.045,0.56c1.851,0,3.336-0.529,4.456-1.585c1.12-1.057,1.68-2.469,1.68-4.235v-2.571
		c-0.6,1.146-1.438,2.024-2.516,2.634c-1.078,0.61-2.327,0.915-3.747,0.915c-1.504,0-2.845-0.35-4.022-1.049
		c-1.178-0.699-2.095-1.674-2.752-2.926s-0.986-2.671-0.986-4.259c0-1.578,0.323-2.979,0.971-4.204
		c0.646-1.225,1.551-2.187,2.713-2.887c1.162-0.699,2.494-1.049,3.999-1.049c1.44,0,2.699,0.305,3.777,0.915
		s1.933,1.488,2.563,2.634v-3.455h2.523V305.752z M864.698,303.883c0.883-0.521,1.572-1.238,2.066-2.153
		c0.494-0.915,0.741-1.94,0.741-3.076c0-1.167-0.247-2.208-0.741-3.124s-1.184-1.63-2.066-2.145
		c-0.884-0.515-1.888-0.773-3.013-0.773c-1.115,0-2.114,0.258-2.997,0.773c-0.884,0.515-1.578,1.23-2.083,2.145
		c-0.504,0.915-0.757,1.956-0.757,3.124c0,1.146,0.253,2.174,0.757,3.084c0.505,0.91,1.199,1.625,2.083,2.145
		c0.883,0.521,1.882,0.781,2.997,0.781C862.81,304.664,863.814,304.403,864.698,303.883z"/>
	<path fill="#3F3936" d="M878.137,284.386c0.315,0.332,0.474,0.744,0.474,1.238c0,0.495-0.158,0.91-0.474,1.246
		c-0.315,0.337-0.71,0.505-1.183,0.505c-0.474,0-0.865-0.166-1.176-0.497c-0.311-0.331-0.465-0.749-0.465-1.254
		c0-0.494,0.154-0.907,0.465-1.238c0.311-0.331,0.702-0.497,1.176-0.497C877.427,283.889,877.822,284.055,878.137,284.386z
		 M875.74,307.535v-17.021h2.477v17.021H875.74z"/>
	<path fill="#3F3936" d="M898.21,292.178c1.141,1.173,1.712,2.79,1.712,4.851v10.506h-2.524v-9.828c0-1.503-0.426-2.676-1.277-3.518
		c-0.852-0.841-2.03-1.262-3.533-1.262c-1.662,0.021-2.992,0.528-3.991,1.522c-0.999,0.994-1.577,2.306-1.735,3.936v9.149h-2.508
		v-17.021h2.508v3.738c1.167-2.524,3.365-3.801,6.594-3.833C895.484,290.419,897.069,291.006,898.21,292.178z"/>
	<path fill="#3F3936" d="M918.394,293.014c1.356,1.709,1.967,4.041,1.83,6.996h-13.882c0.211,1.662,0.876,2.981,1.996,3.959
		c1.119,0.978,2.51,1.467,4.172,1.467c1.052,0,2.024-0.184,2.918-0.552s1.678-0.894,2.351-1.578l1.389,1.483
		c-0.82,0.904-1.817,1.604-2.989,2.098c-1.173,0.495-2.459,0.742-3.857,0.742c-1.661,0-3.134-0.36-4.417-1.081
		s-2.279-1.732-2.989-3.037c-0.709-1.304-1.064-2.797-1.064-4.48s0.36-3.173,1.081-4.472c0.72-1.298,1.727-2.308,3.021-3.028
		c1.293-0.72,2.761-1.081,4.401-1.081C915.024,290.451,917.038,291.306,918.394,293.014z M916.304,294.047
		c-1.025-0.957-2.364-1.435-4.015-1.435c-1.62,0-2.969,0.484-4.046,1.451c-1.078,0.968-1.712,2.261-1.901,3.88h11.626
		C917.884,296.303,917.33,295.005,916.304,294.047z"/>
	<path fill="#3F3936" d="M937.386,293.014c1.356,1.709,1.967,4.041,1.83,6.996h-13.882c0.211,1.662,0.876,2.981,1.996,3.959
		c1.119,0.978,2.51,1.467,4.172,1.467c1.052,0,2.024-0.184,2.918-0.552s1.678-0.894,2.351-1.578l1.389,1.483
		c-0.82,0.904-1.817,1.604-2.989,2.098c-1.173,0.495-2.459,0.742-3.857,0.742c-1.661,0-3.134-0.36-4.417-1.081
		s-2.279-1.732-2.989-3.037c-0.709-1.304-1.064-2.797-1.064-4.48s0.36-3.173,1.081-4.472c0.72-1.298,1.727-2.308,3.021-3.028
		c1.293-0.72,2.761-1.081,4.401-1.081C934.016,290.451,936.03,291.306,937.386,293.014z M935.296,294.047
		c-1.025-0.957-2.364-1.435-4.015-1.435c-1.62,0-2.969,0.484-4.046,1.451c-1.078,0.968-1.712,2.261-1.901,3.88h11.626
		C936.876,296.303,936.322,295.005,935.296,294.047z"/>
	<path fill="#3F3936" d="M948.459,291.437c1.031-0.657,2.267-0.996,3.707-1.018v2.54c-1.767-0.021-3.187,0.471-4.259,1.475
		s-1.688,2.358-1.846,4.062v9.039h-2.508v-17.021h2.508v3.77C946.63,293.043,947.429,292.094,948.459,291.437z"/>
</g>
<g>
	<path fill="#3F3936" d="M707.429,347.787v7.43h11.405v2.492h-11.405v7.745h13.188v2.461h-15.774v-22.621h15.349v2.493H707.429z"/>
	<path fill="#3F3936" d="M729.379,346.982c-0.573,0.536-0.859,1.277-0.859,2.225v2.192h4.874v2.082h-4.874v14.434h-2.492v-14.434
		h-2.193v-2.082h2.193v-1.861c0-1.188,0.255-2.219,0.765-3.092s1.178-1.53,2.004-1.972c0.825-0.441,1.722-0.662,2.689-0.662
		c1.419,0.042,2.639,0.441,3.659,1.199l-1.041,2.035c-0.82-0.578-1.683-0.868-2.587-0.868
		C730.666,346.177,729.953,346.446,729.379,346.982z"/>
	<path fill="#3F3936" d="M737.25,346.335c0.51-0.862,1.184-1.515,2.02-1.956c0.836-0.442,1.727-0.663,2.674-0.663
		c1.188,0.042,2.213,0.331,3.075,0.868l-0.062,2.366c-1.052-0.558-2.066-0.836-3.045-0.836c-0.862,0-1.566,0.263-2.113,0.788
		c-0.547,0.526-0.82,1.263-0.82,2.209v2.192h4.874v2.066h-4.874v14.544h-2.492v-14.544h-2.193v-2.066h2.193v-1.861
		C736.486,348.234,736.741,347.198,737.25,346.335z M746.487,347.258c-0.315-0.332-0.474-0.75-0.474-1.254
		c0-0.495,0.158-0.907,0.474-1.239c0.315-0.331,0.709-0.497,1.183-0.497s0.865,0.166,1.175,0.497
		c0.311,0.332,0.466,0.744,0.466,1.239c0,0.494-0.155,0.909-0.466,1.246c-0.31,0.336-0.701,0.505-1.175,0.505
		S746.802,347.589,746.487,347.258z M748.931,350.894v17.021h-2.492v-17.021H748.931z"/>
	<path fill="#3F3936" d="M765.534,351.494c1.099,0.441,2.032,1.057,2.8,1.846l-1.388,1.782c-1.378-1.314-3.065-1.972-5.063-1.972
		c-1.168,0-2.209,0.263-3.123,0.788c-0.915,0.526-1.631,1.265-2.146,2.217c-0.516,0.952-0.773,2.037-0.773,3.258
		c0,1.229,0.258,2.318,0.773,3.265c0.515,0.946,1.23,1.69,2.146,2.232c0.914,0.542,1.955,0.812,3.123,0.812
		c1.114,0,2.119-0.189,3.013-0.568c0.894-0.378,1.646-0.925,2.256-1.641l1.451,1.562c-0.778,0.926-1.749,1.646-2.91,2.161
		c-1.162,0.516-2.464,0.773-3.904,0.773c-1.641,0-3.098-0.36-4.369-1.081c-1.273-0.72-2.27-1.732-2.989-3.036
		c-0.721-1.304-1.081-2.797-1.081-4.479s0.365-3.174,1.097-4.473c0.73-1.299,1.748-2.308,3.052-3.028s2.776-1.081,4.417-1.081
		C763.228,350.831,764.435,351.051,765.534,351.494z"/>
	<path fill="#3F3936" d="M775.574,344.766c0.315,0.332,0.474,0.744,0.474,1.239c0,0.494-0.158,0.909-0.474,1.246
		c-0.315,0.336-0.71,0.505-1.183,0.505c-0.474,0-0.865-0.166-1.176-0.497c-0.311-0.332-0.465-0.75-0.465-1.254
		c0-0.495,0.154-0.907,0.465-1.239c0.311-0.331,0.702-0.497,1.176-0.497C774.864,344.269,775.258,344.435,775.574,344.766z
		 M773.176,367.915v-17.021h2.477v17.021H773.176z"/>
	<path fill="#3F3936" d="M794.614,353.394c1.356,1.709,1.967,4.041,1.83,6.996h-13.882c0.211,1.662,0.876,2.981,1.996,3.959
		c1.119,0.979,2.51,1.468,4.172,1.468c1.052,0,2.024-0.185,2.918-0.553s1.678-0.894,2.351-1.577l1.389,1.482
		c-0.82,0.905-1.817,1.604-2.989,2.099c-1.173,0.494-2.459,0.741-3.857,0.741c-1.661,0-3.134-0.36-4.417-1.081
		c-1.283-0.72-2.279-1.732-2.989-3.036c-0.709-1.304-1.064-2.797-1.064-4.479s0.36-3.174,1.081-4.473
		c0.72-1.299,1.727-2.308,3.021-3.028c1.293-0.721,2.761-1.081,4.401-1.081C791.244,350.831,793.257,351.685,794.614,353.394z
		 M792.524,354.427c-1.025-0.957-2.364-1.436-4.015-1.436c-1.62,0-2.969,0.484-4.046,1.451c-1.078,0.968-1.712,2.262-1.901,3.881
		h11.626C794.104,356.683,793.549,355.384,792.524,354.427z"/>
	<path fill="#3F3936" d="M814.639,352.558c1.141,1.173,1.712,2.79,1.712,4.851v10.506h-2.524v-9.827
		c0-1.504-0.426-2.677-1.277-3.518c-0.852-0.842-2.03-1.263-3.533-1.263c-1.662,0.021-2.992,0.528-3.991,1.522
		s-1.577,2.306-1.735,3.936v9.149h-2.508v-17.021h2.508v3.738c1.167-2.523,3.365-3.802,6.594-3.833
		C811.913,350.799,813.498,351.385,814.639,352.558z"/>
	<path fill="#3F3936" d="M826.904,368.041c-1.315,0-2.366-0.402-3.155-1.206c-0.789-0.805-1.183-2.017-1.183-3.637v-9.717h-2.445
		v-2.035h2.445v-4.495h2.492v4.495l5.395-0.047v2.082h-5.395v9.26c0,1.01,0.189,1.737,0.567,2.185
		c0.379,0.447,0.946,0.671,1.704,0.671c0.883,0,1.787-0.295,2.713-0.884l0.71,2.035C829.522,367.588,828.239,368.02,826.904,368.041
		z"/>
	<path fill="#3F3936" d="M858.152,367.915h-2.509v-3.849c-1.094,2.587-3.249,3.901-6.467,3.943c-1.978,0-3.531-0.592-4.661-1.774
		c-1.131-1.184-1.696-2.8-1.696-4.851v-10.49h2.508v9.812c0,1.504,0.421,2.677,1.263,3.518c0.841,0.842,1.992,1.262,3.454,1.262
		c1.746-0.021,3.115-0.606,4.109-1.759c0.994-1.151,1.49-2.642,1.49-4.472v-8.36h2.509V367.915z"/>
	<path fill="#3F3936" d="M871.765,351.202c0.946,0.269,1.771,0.649,2.477,1.144l-0.962,2.003c-0.663-0.431-1.404-0.77-2.225-1.017
		s-1.619-0.371-2.397-0.371c-1.01,0-1.822,0.187-2.438,0.56c-0.615,0.374-0.923,0.939-0.923,1.696c0,0.516,0.174,0.946,0.521,1.293
		c0.348,0.348,0.773,0.629,1.278,0.845c0.505,0.215,1.209,0.449,2.113,0.701c1.188,0.348,2.153,0.694,2.895,1.042
		c0.742,0.347,1.375,0.849,1.901,1.506c0.525,0.657,0.788,1.512,0.788,2.563c0,1.599-0.597,2.806-1.79,3.62
		c-1.193,0.815-2.674,1.223-4.44,1.223c-1.23,0-2.427-0.21-3.589-0.631s-2.143-1.004-2.941-1.751l0.978-1.909
		c0.715,0.663,1.583,1.188,2.603,1.578c1.021,0.389,2.035,0.583,3.045,0.583c1.072,0,1.948-0.21,2.626-0.631
		c0.679-0.42,1.018-1.041,1.018-1.861s-0.326-1.428-0.978-1.822c-0.652-0.394-1.656-0.785-3.013-1.175
		c-1.188-0.368-2.133-0.712-2.832-1.033c-0.699-0.32-1.304-0.799-1.813-1.436c-0.511-0.636-0.766-1.464-0.766-2.484
		c0-1.546,0.561-2.705,1.68-3.479c1.12-0.772,2.532-1.159,4.235-1.159C869.835,350.799,870.819,350.933,871.765,351.202z"/>
	<path fill="#3F3936" d="M891.751,353.394c1.356,1.709,1.967,4.041,1.83,6.996H879.7c0.211,1.662,0.876,2.981,1.996,3.959
		c1.119,0.979,2.51,1.468,4.172,1.468c1.052,0,2.024-0.185,2.918-0.553s1.678-0.894,2.351-1.577l1.389,1.482
		c-0.82,0.905-1.817,1.604-2.989,2.099c-1.173,0.494-2.459,0.741-3.857,0.741c-1.661,0-3.134-0.36-4.417-1.081
		c-1.283-0.72-2.279-1.732-2.989-3.036c-0.709-1.304-1.064-2.797-1.064-4.479s0.36-3.174,1.081-4.473
		c0.72-1.299,1.727-2.308,3.021-3.028c1.293-0.721,2.761-1.081,4.401-1.081C888.381,350.831,890.395,351.685,891.751,353.394z
		 M889.662,354.427c-1.025-0.957-2.364-1.436-4.015-1.436c-1.62,0-2.969,0.484-4.046,1.451c-1.078,0.968-1.712,2.262-1.901,3.881
		h11.626C891.242,356.683,890.687,355.384,889.662,354.427z"/>
	<path fill="#3F3936" d="M918.133,351.912c1.31,0.721,2.332,1.732,3.068,3.036c0.735,1.305,1.104,2.782,1.104,4.433
		c0,1.683-0.368,3.177-1.104,4.48c-0.736,1.304-1.759,2.321-3.068,3.052c-1.31,0.731-2.795,1.097-4.456,1.097
		c-1.662,0-3.15-0.365-4.465-1.097c-1.314-0.73-2.337-1.748-3.067-3.052c-0.731-1.304-1.097-2.798-1.097-4.48
		c0-1.661,0.365-3.142,1.097-4.44c0.73-1.299,1.753-2.308,3.067-3.028s2.803-1.081,4.465-1.081
		C915.338,350.831,916.824,351.191,918.133,351.912z M910.522,353.922c-0.936,0.537-1.661,1.28-2.177,2.232
		s-0.772,2.037-0.772,3.258c0,1.229,0.257,2.324,0.772,3.28c0.516,0.957,1.241,1.707,2.177,2.248
		c0.936,0.542,1.987,0.812,3.155,0.812c1.167,0,2.219-0.271,3.154-0.812c0.937-0.541,1.662-1.291,2.177-2.248
		c0.516-0.956,0.773-2.051,0.773-3.28c0-1.23-0.258-2.319-0.773-3.266c-0.515-0.946-1.243-1.688-2.185-2.225
		c-0.941-0.536-1.99-0.804-3.146-0.804C912.509,353.119,911.458,353.386,910.522,353.922z"/>
	<path fill="#3F3936" d="M930.58,346.982c-0.573,0.536-0.859,1.277-0.859,2.225v2.192h4.874v2.082h-4.874v14.434h-2.492v-14.434
		h-2.193v-2.082h2.193v-1.861c0-1.188,0.255-2.219,0.765-3.092s1.178-1.53,2.004-1.972c0.825-0.441,1.722-0.662,2.689-0.662
		c1.419,0.042,2.639,0.441,3.659,1.199l-1.041,2.035c-0.82-0.578-1.683-0.868-2.587-0.868
		C931.866,346.177,931.153,346.446,930.58,346.982z"/>
</g>
<g>
	<path fill="#3F3936" d="M708.21,394.008c1.099,0.441,2.032,1.057,2.8,1.846l-1.388,1.782c-1.378-1.314-3.065-1.972-5.063-1.972
		c-1.168,0-2.209,0.263-3.123,0.788c-0.915,0.526-1.631,1.265-2.146,2.217c-0.516,0.952-0.773,2.037-0.773,3.258
		c0,1.229,0.258,2.318,0.773,3.265c0.515,0.946,1.23,1.69,2.146,2.232c0.914,0.542,1.955,0.812,3.123,0.812
		c1.114,0,2.119-0.189,3.013-0.568c0.894-0.378,1.646-0.925,2.256-1.641l1.451,1.562c-0.778,0.926-1.749,1.646-2.91,2.161
		c-1.162,0.516-2.464,0.773-3.904,0.773c-1.641,0-3.098-0.36-4.369-1.081c-1.273-0.72-2.27-1.732-2.989-3.036
		c-0.721-1.304-1.081-2.797-1.081-4.479s0.365-3.174,1.097-4.473c0.73-1.299,1.748-2.308,3.052-3.028s2.776-1.081,4.417-1.081
		C705.905,393.345,707.112,393.566,708.21,394.008z"/>
	<path fill="#3F3936" d="M715.752,410.429v-23.977h2.524v23.977H715.752z"/>
	<path fill="#3F3936" d="M735.936,394.426c1.31,0.721,2.332,1.732,3.068,3.036c0.735,1.305,1.104,2.782,1.104,4.433
		c0,1.683-0.368,3.177-1.104,4.48c-0.736,1.304-1.759,2.321-3.068,3.052c-1.31,0.731-2.795,1.097-4.456,1.097
		c-1.662,0-3.15-0.365-4.465-1.097c-1.314-0.73-2.337-1.748-3.067-3.052c-0.731-1.304-1.097-2.798-1.097-4.48
		c0-1.661,0.365-3.142,1.097-4.44c0.73-1.299,1.753-2.308,3.067-3.028s2.803-1.081,4.465-1.081
		C733.141,393.345,734.626,393.706,735.936,394.426z M728.325,396.437c-0.936,0.537-1.661,1.28-2.177,2.232
		s-0.772,2.037-0.772,3.258c0,1.229,0.257,2.324,0.772,3.28c0.516,0.957,1.241,1.707,2.177,2.248
		c0.936,0.542,1.987,0.812,3.155,0.812c1.167,0,2.219-0.271,3.154-0.812c0.937-0.541,1.662-1.291,2.177-2.248
		c0.516-0.956,0.773-2.051,0.773-3.28c0-1.23-0.258-2.319-0.773-3.266c-0.515-0.946-1.243-1.688-2.185-2.225
		c-0.941-0.536-1.99-0.804-3.146-0.804C730.312,395.633,729.26,395.901,728.325,396.437z"/>
	<path fill="#3F3936" d="M759.274,410.429h-2.509v-3.849c-1.094,2.587-3.249,3.901-6.467,3.943c-1.978,0-3.531-0.592-4.661-1.774
		c-1.131-1.184-1.696-2.8-1.696-4.851v-10.49h2.508v9.812c0,1.504,0.421,2.677,1.263,3.518c0.841,0.842,1.992,1.262,3.454,1.262
		c1.746-0.021,3.115-0.606,4.109-1.759c0.994-1.151,1.49-2.642,1.49-4.472v-8.36h2.509V410.429z"/>
	<path fill="#3F3936" d="M781.057,410.429h-2.523v-3.644c-0.642,1.209-1.528,2.14-2.658,2.792c-1.131,0.652-2.453,0.978-3.967,0.978
		c-1.599,0-3.021-0.365-4.268-1.096c-1.246-0.731-2.214-1.754-2.902-3.068s-1.033-2.813-1.033-4.496s0.345-3.173,1.033-4.472
		s1.653-2.313,2.895-3.045c1.241-0.73,2.655-1.096,4.243-1.096c1.504,0,2.834,0.326,3.991,0.978
		c1.156,0.652,2.045,1.594,2.666,2.824v-10.632h2.523V410.429z M775.568,407.487c0.926-0.541,1.651-1.296,2.177-2.263
		c0.525-0.968,0.789-2.057,0.789-3.266c0-1.23-0.264-2.329-0.789-3.297s-1.251-1.725-2.177-2.271s-1.982-0.82-3.171-0.82
		s-2.25,0.273-3.187,0.82c-0.936,0.547-1.666,1.307-2.192,2.279c-0.525,0.973-0.788,2.069-0.788,3.289
		c0,1.209,0.263,2.298,0.788,3.266c0.526,0.967,1.257,1.722,2.192,2.263c0.937,0.542,1.998,0.812,3.187,0.812
		S774.642,408.029,775.568,407.487z"/>
	<path fill="#3F3936" d="M801.107,394.332c1.031-0.657,2.267-0.996,3.707-1.018v2.54c-1.767-0.021-3.187,0.471-4.259,1.475
		s-1.688,2.358-1.846,4.062v9.039h-2.508v-17.021h2.508v3.771C799.278,395.938,800.077,394.989,801.107,394.332z"/>
	<path fill="#3F3936" d="M820.61,395.909c1.356,1.709,1.967,4.041,1.83,6.996h-13.882c0.211,1.662,0.876,2.981,1.996,3.959
		c1.119,0.979,2.51,1.468,4.172,1.468c1.052,0,2.024-0.185,2.918-0.553s1.678-0.894,2.351-1.577l1.389,1.482
		c-0.82,0.905-1.817,1.604-2.989,2.099c-1.173,0.494-2.459,0.741-3.857,0.741c-1.661,0-3.134-0.36-4.417-1.081
		c-1.283-0.72-2.279-1.732-2.989-3.036c-0.709-1.304-1.064-2.797-1.064-4.479s0.36-3.174,1.081-4.473
		c0.72-1.299,1.727-2.308,3.021-3.028c1.293-0.721,2.761-1.081,4.401-1.081C817.24,393.345,819.253,394.2,820.61,395.909z
		 M818.52,396.942c-1.025-0.957-2.364-1.436-4.015-1.436c-1.62,0-2.969,0.484-4.046,1.451c-1.078,0.968-1.712,2.262-1.901,3.881
		h11.626C820.1,399.198,819.545,397.899,818.52,396.942z"/>
	<path fill="#3F3936" d="M834.239,393.716c0.946,0.269,1.771,0.649,2.477,1.144l-0.962,2.003c-0.663-0.431-1.404-0.77-2.225-1.017
		s-1.619-0.371-2.397-0.371c-1.01,0-1.822,0.187-2.438,0.56c-0.615,0.374-0.923,0.939-0.923,1.696c0,0.516,0.174,0.946,0.521,1.293
		c0.348,0.348,0.773,0.629,1.278,0.845c0.505,0.215,1.209,0.449,2.113,0.701c1.188,0.348,2.153,0.694,2.895,1.042
		c0.742,0.347,1.375,0.849,1.901,1.506c0.525,0.657,0.788,1.512,0.788,2.563c0,1.599-0.597,2.806-1.79,3.62
		c-1.193,0.815-2.674,1.223-4.44,1.223c-1.23,0-2.427-0.21-3.589-0.631s-2.143-1.004-2.941-1.751l0.978-1.909
		c0.715,0.663,1.583,1.188,2.603,1.578c1.021,0.389,2.035,0.583,3.045,0.583c1.072,0,1.948-0.21,2.626-0.631
		c0.679-0.42,1.018-1.041,1.018-1.861s-0.326-1.428-0.978-1.822c-0.652-0.394-1.656-0.785-3.013-1.175
		c-1.188-0.368-2.133-0.712-2.832-1.033c-0.699-0.32-1.304-0.799-1.813-1.436c-0.511-0.636-0.766-1.464-0.766-2.484
		c0-1.546,0.561-2.705,1.68-3.479c1.12-0.772,2.532-1.159,4.235-1.159C832.309,393.314,833.292,393.448,834.239,393.716z"/>
	<path fill="#3F3936" d="M852.765,394.426c1.31,0.721,2.332,1.732,3.068,3.036c0.735,1.305,1.104,2.782,1.104,4.433
		c0,1.683-0.368,3.177-1.104,4.48c-0.736,1.304-1.759,2.321-3.068,3.052c-1.31,0.731-2.795,1.097-4.456,1.097
		c-1.662,0-3.15-0.365-4.465-1.097c-1.314-0.73-2.337-1.748-3.067-3.052c-0.731-1.304-1.097-2.798-1.097-4.48
		c0-1.661,0.365-3.142,1.097-4.44c0.73-1.299,1.753-2.308,3.067-3.028s2.803-1.081,4.465-1.081
		C849.97,393.345,851.456,393.706,852.765,394.426z M845.154,396.437c-0.936,0.537-1.661,1.28-2.177,2.232s-0.772,2.037-0.772,3.258
		c0,1.229,0.257,2.324,0.772,3.28c0.516,0.957,1.241,1.707,2.177,2.248c0.936,0.542,1.987,0.812,3.155,0.812
		c1.167,0,2.219-0.271,3.154-0.812c0.937-0.541,1.662-1.291,2.177-2.248c0.516-0.956,0.773-2.051,0.773-3.28
		c0-1.23-0.258-2.319-0.773-3.266c-0.515-0.946-1.243-1.688-2.185-2.225c-0.941-0.536-1.99-0.804-3.146-0.804
		C847.141,395.633,846.089,395.901,845.154,396.437z"/>
	<path fill="#3F3936" d="M876.104,410.429h-2.509v-3.849c-1.094,2.587-3.249,3.901-6.467,3.943c-1.978,0-3.531-0.592-4.661-1.774
		c-1.131-1.184-1.696-2.8-1.696-4.851v-10.49h2.508v9.812c0,1.504,0.421,2.677,1.263,3.518c0.841,0.842,1.992,1.262,3.454,1.262
		c1.746-0.021,3.115-0.606,4.109-1.759c0.994-1.151,1.49-2.642,1.49-4.472v-8.36h2.509V410.429z"/>
	<path fill="#3F3936" d="M887.161,394.332c1.031-0.657,2.267-0.996,3.707-1.018v2.54c-1.767-0.021-3.187,0.471-4.259,1.475
		s-1.688,2.358-1.846,4.062v9.039h-2.508v-17.021h2.508v3.771C885.332,395.938,886.13,394.989,887.161,394.332z"/>
	<path fill="#3F3936" d="M904.273,394.008c1.099,0.441,2.032,1.057,2.8,1.846l-1.388,1.782c-1.378-1.314-3.065-1.972-5.063-1.972
		c-1.168,0-2.209,0.263-3.123,0.788c-0.915,0.526-1.631,1.265-2.146,2.217c-0.516,0.952-0.773,2.037-0.773,3.258
		c0,1.229,0.258,2.318,0.773,3.265c0.515,0.946,1.23,1.69,2.146,2.232c0.914,0.542,1.955,0.812,3.123,0.812
		c1.114,0,2.119-0.189,3.013-0.568c0.894-0.378,1.646-0.925,2.256-1.641l1.451,1.562c-0.778,0.926-1.749,1.646-2.91,2.161
		c-1.162,0.516-2.464,0.773-3.904,0.773c-1.641,0-3.098-0.36-4.369-1.081c-1.273-0.72-2.27-1.732-2.989-3.036
		c-0.721-1.304-1.081-2.797-1.081-4.479s0.365-3.174,1.097-4.473c0.73-1.299,1.748-2.308,3.052-3.028s2.776-1.081,4.417-1.081
		C901.967,393.345,903.174,393.566,904.273,394.008z"/>
	<path fill="#3F3936" d="M924.482,395.909c1.356,1.709,1.967,4.041,1.83,6.996H912.43c0.211,1.662,0.876,2.981,1.996,3.959
		c1.119,0.979,2.51,1.468,4.172,1.468c1.052,0,2.024-0.185,2.918-0.553s1.678-0.894,2.351-1.577l1.389,1.482
		c-0.82,0.905-1.817,1.604-2.989,2.099c-1.173,0.494-2.459,0.741-3.857,0.741c-1.661,0-3.134-0.36-4.417-1.081
		c-1.283-0.72-2.279-1.732-2.989-3.036c-0.709-1.304-1.064-2.797-1.064-4.479s0.36-3.174,1.081-4.473
		c0.72-1.299,1.727-2.308,3.021-3.028c1.293-0.721,2.761-1.081,4.401-1.081C921.112,393.345,923.125,394.2,924.482,395.909z
		 M922.392,396.942c-1.025-0.957-2.364-1.436-4.015-1.436c-1.62,0-2.969,0.484-4.046,1.451c-1.078,0.968-1.712,2.262-1.901,3.881
		h11.626C923.972,399.198,923.417,397.899,922.392,396.942z"/>
	<path fill="#3F3936" d="M938.111,393.716c0.946,0.269,1.771,0.649,2.477,1.144l-0.962,2.003c-0.663-0.431-1.404-0.77-2.225-1.017
		s-1.619-0.371-2.397-0.371c-1.01,0-1.822,0.187-2.438,0.56c-0.615,0.374-0.923,0.939-0.923,1.696c0,0.516,0.174,0.946,0.521,1.293
		c0.348,0.348,0.773,0.629,1.278,0.845c0.505,0.215,1.209,0.449,2.113,0.701c1.188,0.348,2.153,0.694,2.895,1.042
		c0.742,0.347,1.375,0.849,1.901,1.506c0.525,0.657,0.788,1.512,0.788,2.563c0,1.599-0.597,2.806-1.79,3.62
		c-1.193,0.815-2.674,1.223-4.44,1.223c-1.23,0-2.427-0.21-3.589-0.631s-2.143-1.004-2.941-1.751l0.978-1.909
		c0.715,0.663,1.583,1.188,2.603,1.578c1.021,0.389,2.035,0.583,3.045,0.583c1.072,0,1.948-0.21,2.626-0.631
		c0.679-0.42,1.018-1.041,1.018-1.861s-0.326-1.428-0.978-1.822c-0.652-0.394-1.656-0.785-3.013-1.175
		c-1.188-0.368-2.133-0.712-2.832-1.033c-0.699-0.32-1.304-0.799-1.813-1.436c-0.511-0.636-0.766-1.464-0.766-2.484
		c0-1.546,0.561-2.705,1.68-3.479c1.12-0.772,2.532-1.159,4.235-1.159C936.181,393.314,937.165,393.448,938.111,393.716z"/>
</g>
<g>
	<path fill="#3F3936" d="M667.142,463.6c-0.642,0.042-1.146,0.063-1.515,0.063h-6.01v7.146h-2.587v-22.62h8.597
		c2.818,0,5.009,0.662,6.57,1.987s2.343,3.197,2.343,5.615c0,1.852-0.437,3.399-1.31,4.646c-0.873,1.247-2.124,2.144-3.754,2.69
		l5.284,7.682h-2.935L667.142,463.6z M670.384,459.831c1.108-0.904,1.664-2.229,1.664-3.976c0-1.704-0.556-2.992-1.664-3.864
		c-1.11-0.873-2.695-1.31-4.757-1.31h-6.01v10.506h6.01C667.689,461.187,669.274,460.735,670.384,459.831z"/>
	<path fill="#3F3936" d="M692.854,456.289c1.356,1.709,1.967,4.041,1.83,6.996h-13.882c0.211,1.662,0.876,2.981,1.996,3.959
		c1.119,0.979,2.51,1.468,4.172,1.468c1.052,0,2.024-0.185,2.918-0.553s1.678-0.894,2.351-1.577l1.389,1.482
		c-0.82,0.905-1.817,1.604-2.989,2.099c-1.173,0.494-2.459,0.741-3.857,0.741c-1.661,0-3.134-0.36-4.417-1.081
		c-1.283-0.72-2.279-1.732-2.989-3.036c-0.709-1.304-1.064-2.797-1.064-4.479s0.36-3.174,1.081-4.473
		c0.72-1.299,1.727-2.308,3.021-3.028c1.293-0.721,2.761-1.081,4.401-1.081C689.484,453.725,691.498,454.58,692.854,456.289z
		 M690.764,457.322c-1.025-0.957-2.364-1.436-4.015-1.436c-1.62,0-2.969,0.484-4.046,1.451c-1.078,0.968-1.712,2.262-1.901,3.881
		h11.626C692.344,459.578,691.79,458.279,690.764,457.322z"/>
	<path fill="#3F3936" d="M714.654,470.809h-2.523v-3.644c-0.642,1.209-1.528,2.14-2.658,2.792c-1.131,0.652-2.453,0.978-3.967,0.978
		c-1.599,0-3.021-0.365-4.268-1.096c-1.246-0.731-2.214-1.754-2.902-3.068s-1.033-2.813-1.033-4.496s0.345-3.173,1.033-4.472
		s1.653-2.313,2.895-3.045c1.241-0.73,2.655-1.096,4.243-1.096c1.504,0,2.834,0.326,3.991,0.978
		c1.156,0.652,2.045,1.594,2.666,2.824v-10.632h2.523V470.809z M709.165,467.867c0.926-0.541,1.651-1.296,2.177-2.263
		c0.525-0.968,0.789-2.057,0.789-3.266c0-1.23-0.264-2.329-0.789-3.297s-1.251-1.725-2.177-2.271s-1.982-0.82-3.171-0.82
		s-2.25,0.273-3.187,0.82c-0.936,0.547-1.666,1.307-2.192,2.279c-0.525,0.973-0.788,2.069-0.788,3.289
		c0,1.209,0.263,2.298,0.788,3.266c0.526,0.967,1.257,1.722,2.192,2.263c0.937,0.542,1.998,0.812,3.187,0.812
		S708.239,468.409,709.165,467.867z"/>
	<path fill="#3F3936" d="M735.697,470.809h-2.509v-3.849c-1.094,2.587-3.249,3.901-6.467,3.943c-1.978,0-3.531-0.592-4.661-1.774
		c-1.131-1.184-1.696-2.8-1.696-4.851v-10.49h2.508v9.812c0,1.504,0.421,2.677,1.263,3.518c0.841,0.842,1.992,1.262,3.454,1.262
		c1.746-0.021,3.115-0.606,4.109-1.759c0.994-1.151,1.49-2.642,1.49-4.472v-8.36h2.509V470.809z"/>
	<path fill="#3F3936" d="M752.315,454.388c1.099,0.441,2.032,1.057,2.8,1.846l-1.388,1.782c-1.378-1.314-3.065-1.972-5.063-1.972
		c-1.168,0-2.209,0.263-3.123,0.788c-0.915,0.526-1.631,1.265-2.146,2.217c-0.516,0.952-0.773,2.037-0.773,3.258
		c0,1.229,0.258,2.318,0.773,3.265c0.515,0.946,1.23,1.69,2.146,2.232c0.914,0.542,1.955,0.812,3.123,0.812
		c1.114,0,2.119-0.189,3.013-0.568c0.894-0.378,1.646-0.925,2.256-1.641l1.451,1.562c-0.778,0.926-1.749,1.646-2.91,2.161
		c-1.162,0.516-2.464,0.773-3.904,0.773c-1.641,0-3.098-0.36-4.369-1.081c-1.273-0.72-2.27-1.732-2.989-3.036
		c-0.721-1.304-1.081-2.797-1.081-4.479s0.365-3.174,1.097-4.473c0.73-1.299,1.748-2.308,3.052-3.028s2.776-1.081,4.417-1.081
		C750.009,453.725,751.216,453.946,752.315,454.388z"/>
	<path fill="#3F3936" d="M772.492,456.289c1.356,1.709,1.967,4.041,1.83,6.996H760.44c0.211,1.662,0.876,2.981,1.996,3.959
		c1.119,0.979,2.51,1.468,4.172,1.468c1.052,0,2.024-0.185,2.918-0.553s1.678-0.894,2.351-1.577l1.389,1.482
		c-0.82,0.905-1.817,1.604-2.989,2.099c-1.173,0.494-2.459,0.741-3.857,0.741c-1.661,0-3.134-0.36-4.417-1.081
		c-1.283-0.72-2.279-1.732-2.989-3.036c-0.709-1.304-1.064-2.797-1.064-4.479s0.36-3.174,1.081-4.473
		c0.72-1.299,1.727-2.308,3.021-3.028c1.293-0.721,2.761-1.081,4.401-1.081C769.122,453.725,771.135,454.58,772.492,456.289z
		 M770.402,457.322c-1.025-0.957-2.364-1.436-4.015-1.436c-1.62,0-2.969,0.484-4.046,1.451c-1.078,0.968-1.712,2.262-1.901,3.881
		h11.626C771.982,459.578,771.427,458.279,770.402,457.322z"/>
	<path fill="#3F3936" d="M794.292,470.809h-2.523v-3.644c-0.642,1.209-1.528,2.14-2.658,2.792c-1.131,0.652-2.453,0.978-3.967,0.978
		c-1.599,0-3.021-0.365-4.268-1.096c-1.246-0.731-2.214-1.754-2.902-3.068s-1.033-2.813-1.033-4.496s0.345-3.173,1.033-4.472
		s1.653-2.313,2.895-3.045c1.241-0.73,2.655-1.096,4.243-1.096c1.504,0,2.834,0.326,3.991,0.978
		c1.156,0.652,2.045,1.594,2.666,2.824v-10.632h2.523V470.809z M788.802,467.867c0.926-0.541,1.651-1.296,2.177-2.263
		c0.525-0.968,0.789-2.057,0.789-3.266c0-1.23-0.264-2.329-0.789-3.297s-1.251-1.725-2.177-2.271s-1.982-0.82-3.171-0.82
		s-2.25,0.273-3.187,0.82c-0.936,0.547-1.666,1.307-2.192,2.279c-0.525,0.973-0.788,2.069-0.788,3.289
		c0,1.209,0.263,2.298,0.788,3.266c0.526,0.967,1.257,1.722,2.192,2.263c0.937,0.542,1.998,0.812,3.187,0.812
		S787.876,468.409,788.802,467.867z"/>
	<path fill="#3F3936" d="M814.373,470.935c-1.315,0-2.366-0.402-3.155-1.206c-0.789-0.805-1.183-2.017-1.183-3.637v-9.717h-2.445
		v-2.035h2.445v-4.495h2.492v4.495l5.395-0.047v2.082h-5.395v9.26c0,1.01,0.189,1.737,0.567,2.185
		c0.379,0.447,0.946,0.671,1.704,0.671c0.883,0,1.787-0.295,2.713-0.884l0.71,2.035
		C816.991,470.483,815.708,470.915,814.373,470.935z"/>
	<path fill="#3F3936" d="M834.265,456.289c1.356,1.709,1.967,4.041,1.83,6.996h-13.882c0.211,1.662,0.876,2.981,1.996,3.959
		c1.119,0.979,2.51,1.468,4.172,1.468c1.052,0,2.024-0.185,2.918-0.553s1.678-0.894,2.351-1.577l1.389,1.482
		c-0.82,0.905-1.817,1.604-2.989,2.099c-1.173,0.494-2.459,0.741-3.857,0.741c-1.661,0-3.134-0.36-4.417-1.081
		c-1.283-0.72-2.279-1.732-2.989-3.036c-0.709-1.304-1.064-2.797-1.064-4.479s0.36-3.174,1.081-4.473
		c0.72-1.299,1.727-2.308,3.021-3.028c1.293-0.721,2.761-1.081,4.401-1.081C830.895,453.725,832.909,454.58,834.265,456.289z
		 M832.175,457.322c-1.025-0.957-2.364-1.436-4.015-1.436c-1.62,0-2.969,0.484-4.046,1.451c-1.078,0.968-1.712,2.262-1.901,3.881
		h11.626C833.755,459.578,833.201,458.279,832.175,457.322z"/>
	<path fill="#3F3936" d="M850.899,454.388c1.099,0.441,2.032,1.057,2.8,1.846l-1.388,1.782c-1.378-1.314-3.065-1.972-5.063-1.972
		c-1.168,0-2.209,0.263-3.123,0.788c-0.915,0.526-1.631,1.265-2.146,2.217c-0.516,0.952-0.773,2.037-0.773,3.258
		c0,1.229,0.258,2.318,0.773,3.265c0.515,0.946,1.23,1.69,2.146,2.232c0.914,0.542,1.955,0.812,3.123,0.812
		c1.114,0,2.119-0.189,3.013-0.568c0.894-0.378,1.646-0.925,2.256-1.641l1.451,1.562c-0.778,0.926-1.749,1.646-2.91,2.161
		c-1.162,0.516-2.464,0.773-3.904,0.773c-1.641,0-3.098-0.36-4.369-1.081c-1.273-0.72-2.27-1.732-2.989-3.036
		c-0.721-1.304-1.081-2.797-1.081-4.479s0.365-3.174,1.097-4.473c0.73-1.299,1.748-2.308,3.052-3.028s2.776-1.081,4.417-1.081
		C848.593,453.725,849.8,453.946,850.899,454.388z"/>
	<path fill="#3F3936" d="M872.298,455.453c1.141,1.173,1.711,2.79,1.711,4.851v10.506h-2.523v-9.827
		c0-1.504-0.426-2.677-1.277-3.518c-0.853-0.842-2.03-1.263-3.534-1.263c-1.787,0.021-3.191,0.603-4.211,1.743
		c-1.021,1.142-1.53,2.643-1.53,4.504v8.36h-2.524v-23.977h2.524v10.758c1.114-2.566,3.317-3.865,6.609-3.896
		C869.572,453.694,871.157,454.28,872.298,455.453z"/>
	<path fill="#3F3936" d="M893.483,455.453c1.141,1.173,1.712,2.79,1.712,4.851v10.506h-2.524v-9.827
		c0-1.504-0.426-2.677-1.277-3.518c-0.852-0.842-2.03-1.263-3.533-1.263c-1.662,0.021-2.992,0.528-3.991,1.522
		s-1.577,2.306-1.735,3.936v9.149h-2.508v-17.021h2.508v3.738c1.167-2.523,3.365-3.802,6.594-3.833
		C890.756,453.694,892.341,454.28,893.483,455.453z"/>
	<path fill="#3F3936" d="M912.208,454.806c1.31,0.721,2.332,1.732,3.068,3.036c0.735,1.305,1.104,2.782,1.104,4.433
		c0,1.683-0.368,3.177-1.104,4.48c-0.736,1.304-1.759,2.321-3.068,3.052c-1.31,0.731-2.795,1.097-4.456,1.097
		c-1.662,0-3.15-0.365-4.465-1.097c-1.314-0.73-2.337-1.748-3.067-3.052c-0.731-1.304-1.097-2.798-1.097-4.48
		c0-1.661,0.365-3.142,1.097-4.44c0.73-1.299,1.753-2.308,3.067-3.028s2.803-1.081,4.465-1.081
		C909.413,453.725,910.898,454.085,912.208,454.806z M904.596,456.817c-0.936,0.537-1.661,1.28-2.177,2.232
		s-0.772,2.037-0.772,3.258c0,1.229,0.257,2.324,0.772,3.28c0.516,0.957,1.241,1.707,2.177,2.248
		c0.936,0.542,1.987,0.812,3.155,0.812c1.167,0,2.219-0.271,3.154-0.812c0.937-0.541,1.662-1.291,2.177-2.248
		c0.516-0.956,0.773-2.051,0.773-3.28c0-1.23-0.258-2.319-0.773-3.266c-0.515-0.946-1.243-1.688-2.185-2.225
		c-0.941-0.536-1.99-0.804-3.146-0.804C906.583,456.013,905.532,456.281,904.596,456.817z"/>
	<path fill="#3F3936" d="M920.954,470.809v-23.977h2.524v23.977H920.954z"/>
	<path fill="#3F3936" d="M941.137,454.806c1.31,0.721,2.332,1.732,3.068,3.036c0.735,1.305,1.104,2.782,1.104,4.433
		c0,1.683-0.368,3.177-1.104,4.48c-0.736,1.304-1.759,2.321-3.068,3.052c-1.31,0.731-2.795,1.097-4.456,1.097
		c-1.662,0-3.15-0.365-4.465-1.097c-1.314-0.73-2.337-1.748-3.067-3.052c-0.731-1.304-1.097-2.798-1.097-4.48
		c0-1.661,0.365-3.142,1.097-4.44c0.73-1.299,1.753-2.308,3.067-3.028s2.803-1.081,4.465-1.081
		C938.342,453.725,939.828,454.085,941.137,454.806z M933.526,456.817c-0.936,0.537-1.661,1.28-2.177,2.232
		s-0.772,2.037-0.772,3.258c0,1.229,0.257,2.324,0.772,3.28c0.516,0.957,1.241,1.707,2.177,2.248
		c0.936,0.542,1.987,0.812,3.155,0.812c1.167,0,2.219-0.271,3.154-0.812c0.937-0.541,1.662-1.291,2.177-2.248
		c0.516-0.956,0.773-2.051,0.773-3.28c0-1.23-0.258-2.319-0.773-3.266c-0.515-0.946-1.243-1.688-2.185-2.225
		c-0.941-0.536-1.99-0.804-3.146-0.804C935.513,456.013,934.461,456.281,933.526,456.817z"/>
	<path fill="#3F3936" d="M964.554,469.027c0,1.641-0.357,3.073-1.072,4.298c-0.715,1.226-1.717,2.167-3.005,2.824
		s-2.784,0.985-4.488,0.985c-2.523-0.021-4.848-0.836-6.972-2.444l1.151-1.94c0.862,0.715,1.756,1.248,2.682,1.601
		s1.94,0.539,3.045,0.561c1.851,0,3.336-0.528,4.456-1.586c1.12-1.057,1.68-2.469,1.68-4.235v-2.571
		c-0.6,1.146-1.438,2.025-2.516,2.635c-1.078,0.61-2.327,0.915-3.747,0.915c-1.504,0-2.845-0.35-4.022-1.049
		s-2.095-1.675-2.752-2.927c-0.657-1.251-0.986-2.671-0.986-4.259c0-1.577,0.323-2.979,0.971-4.204
		c0.646-1.225,1.551-2.187,2.713-2.887c1.162-0.699,2.494-1.049,3.999-1.049c1.44,0,2.699,0.306,3.777,0.915
		c1.078,0.61,1.933,1.488,2.563,2.634v-3.454h2.523V469.027z M959.223,467.158c0.883-0.521,1.572-1.238,2.066-2.153
		s0.741-1.94,0.741-3.076c0-1.167-0.247-2.209-0.741-3.123c-0.494-0.915-1.184-1.63-2.066-2.146
		c-0.884-0.516-1.888-0.773-3.013-0.773c-1.115,0-2.114,0.258-2.997,0.773c-0.884,0.516-1.578,1.23-2.083,2.146
		c-0.504,0.914-0.757,1.956-0.757,3.123c0,1.146,0.253,2.174,0.757,3.084c0.505,0.909,1.199,1.625,2.083,2.146
		c0.883,0.521,1.882,0.78,2.997,0.78C957.335,467.938,958.339,467.678,959.223,467.158z"/>
	<path fill="#3F3936" d="M973.585,476.211c-0.857,0.668-1.859,1.002-3.005,1.002c-1.356,0-2.551-0.421-3.581-1.262l1.057-2.098
		c0.758,0.536,1.557,0.804,2.398,0.804c0.662,0,1.259-0.205,1.79-0.615s0.965-1.004,1.302-1.782l0.726-1.577l-7.052-16.895h2.65
		l5.647,14.055l5.395-14.055h2.587l-7.809,19.45C975.144,474.553,974.443,475.543,973.585,476.211z"/>
</g>
<g>
	<path fill="#3F3936" d="M800.568,497.226c1.031-0.657,2.267-0.996,3.707-1.018v2.54c-1.767-0.021-3.187,0.471-4.259,1.475
		s-1.688,2.358-1.846,4.062v9.039h-2.508v-17.021h2.508v3.771C798.739,498.833,799.538,497.883,800.568,497.226z"/>
	<path fill="#3F3936" d="M809.806,490.175c0.315,0.331,0.474,0.744,0.474,1.238s-0.158,0.909-0.474,1.246
		c-0.315,0.336-0.71,0.505-1.183,0.505c-0.474,0-0.865-0.166-1.176-0.497c-0.311-0.332-0.465-0.75-0.465-1.254
		c0-0.494,0.154-0.907,0.465-1.238c0.311-0.332,0.702-0.497,1.176-0.497C809.096,489.678,809.491,489.843,809.806,490.175z
		 M807.409,513.324v-17.021h2.477v17.021H807.409z"/>
	<path fill="#3F3936" d="M823.482,496.611c0.946,0.269,1.771,0.649,2.477,1.144l-0.962,2.003c-0.663-0.431-1.404-0.77-2.225-1.017
		s-1.619-0.371-2.397-0.371c-1.01,0-1.822,0.187-2.438,0.56c-0.615,0.374-0.923,0.939-0.923,1.696c0,0.516,0.174,0.946,0.521,1.293
		c0.348,0.348,0.773,0.629,1.278,0.845c0.505,0.215,1.209,0.449,2.113,0.701c1.188,0.348,2.153,0.694,2.895,1.042
		c0.742,0.347,1.375,0.849,1.901,1.506c0.525,0.657,0.788,1.512,0.788,2.563c0,1.599-0.597,2.806-1.79,3.62
		c-1.193,0.815-2.674,1.223-4.44,1.223c-1.23,0-2.427-0.21-3.589-0.631s-2.143-1.004-2.941-1.751l0.978-1.909
		c0.715,0.663,1.583,1.188,2.603,1.578c1.021,0.389,2.035,0.583,3.045,0.583c1.072,0,1.948-0.21,2.626-0.631
		c0.679-0.42,1.018-1.041,1.018-1.861s-0.326-1.428-0.978-1.822c-0.652-0.394-1.656-0.785-3.013-1.175
		c-1.188-0.368-2.133-0.712-2.832-1.033c-0.699-0.32-1.304-0.799-1.813-1.436c-0.511-0.636-0.766-1.464-0.766-2.484
		c0-1.546,0.561-2.705,1.68-3.479c1.12-0.772,2.532-1.159,4.235-1.159C821.552,496.208,822.536,496.342,823.482,496.611z"/>
	<path fill="#3F3936" d="M833.326,508.45v4.874h-2.524v-23.977h2.524v15.68l8.755-8.724h2.965l-6.356,6.578l7.035,10.442h-2.997
		l-5.821-8.597L833.326,508.45z"/>
</g>
<g>
	<path fill="#3F3936" d="M228.169,173.711l-0.036-16.905l-6.24,14.311h-4.317l-6.24-14.311v16.905h-5.913v-26.047h7.255l7.056,15.49
		l7.056-15.49h7.201v26.047H228.169z"/>
	<path fill="#3F3936" d="M254.188,154.729c1.663,0.841,2.944,2.035,3.846,3.583c0.9,1.548,1.351,3.337,1.351,5.369
		c0,2.032-0.451,3.821-1.351,5.369c-0.901,1.548-2.183,2.748-3.846,3.601s-3.57,1.279-5.723,1.279c-2.176,0-4.087-0.426-5.731-1.279
		c-1.645-0.853-2.927-2.053-3.846-3.601s-1.378-3.337-1.378-5.369c0-2.031,0.459-3.821,1.378-5.369s2.201-2.742,3.846-3.583
		c1.644-0.84,3.555-1.261,5.731-1.261C250.618,153.468,252.526,153.889,254.188,154.729z M245.228,159.998
		c-0.828,0.968-1.242,2.219-1.242,3.755c0,1.56,0.414,2.818,1.242,3.773c0.829,0.955,1.908,1.433,3.238,1.433
		c1.318,0,2.391-0.478,3.22-1.433c0.828-0.955,1.243-2.213,1.243-3.773c0-1.536-0.415-2.787-1.243-3.755
		c-0.829-0.967-1.902-1.451-3.22-1.451C247.136,158.547,246.057,159.031,245.228,159.998z"/>
	<path fill="#3F3936" d="M271.955,154.375c1.1-0.629,2.37-0.955,3.809-0.979v5.786c-0.193-0.024-0.49-0.036-0.889-0.036
		c-1.584,0-2.878,0.384-3.882,1.151c-1.004,0.768-1.578,1.811-1.723,3.129v10.285h-6.439v-20.025h6.439v3.374
		C269.96,155.899,270.854,155.004,271.955,154.375z"/>
	<path fill="#3F3936" d="M294.647,156.307c1.747,1.893,2.621,4.525,2.621,7.899c0,0.544-0.012,0.949-0.037,1.215h-14.075
		c0.327,1.185,0.895,2.101,1.705,2.748c0.81,0.647,1.813,0.971,3.011,0.971c0.895,0,1.748-0.172,2.558-0.517
		s1.554-0.855,2.231-1.533l3.374,3.319c-1.041,1.137-2.304,2.007-3.791,2.612c-1.487,0.605-3.132,0.907-4.934,0.907
		c-2.153,0-4.027-0.42-5.623-1.261c-1.596-0.84-2.83-2.028-3.7-3.564s-1.306-3.319-1.306-5.351c0-2.031,0.441-3.827,1.324-5.387
		c0.882-1.56,2.11-2.766,3.682-3.619c1.572-0.853,3.386-1.279,5.441-1.279C290.394,153.468,292.9,154.415,294.647,156.307z
		 M290.004,159.037c-0.708-0.738-1.642-1.106-2.802-1.106c-1.088,0-2.004,0.363-2.748,1.088c-0.744,0.725-1.218,1.711-1.424,2.957
		h8.035C291.065,160.754,290.711,159.775,290.004,159.037z"/>
	<path fill="#3F3936" d="M314.119,173.711l-7.545-20.025h6.602l4.317,14.148l4.335-14.148h6.403l-7.546,20.025H314.119z"/>
	<path fill="#3F3936" d="M345.284,155.31c1.523,1.276,2.297,3.05,2.322,5.324v13.078h-6.276v-2.304
		c-0.641,0.847-1.481,1.491-2.521,1.932c-1.04,0.441-2.243,0.662-3.609,0.662c-2.104,0-3.776-0.58-5.015-1.741
		c-1.24-1.161-1.859-2.672-1.859-4.535c0-1.91,0.662-3.392,1.986-4.444c1.324-1.052,3.226-1.59,5.705-1.614h5.278v-0.29
		c0-0.992-0.327-1.766-0.979-2.322c-0.653-0.556-1.626-0.834-2.92-0.834c-0.847,0-1.796,0.142-2.848,0.426
		c-1.052,0.284-2.098,0.698-3.138,1.243l-1.814-4.227c1.633-0.762,3.187-1.33,4.662-1.705c1.475-0.375,3.017-0.562,4.625-0.562
		C341.626,153.396,343.761,154.034,345.284,155.31z M339.852,168.904c0.768-0.508,1.249-1.173,1.442-1.995v-1.778h-4.045
		c-0.968,0-1.693,0.172-2.177,0.517c-0.484,0.345-0.726,0.892-0.726,1.642c0,0.738,0.248,1.318,0.744,1.741
		c0.496,0.423,1.191,0.635,2.086,0.635C338.192,169.666,339.083,169.412,339.852,168.904z"/>
	<path fill="#3F3936" d="M352.358,173.711v-27.57h6.421v27.57H352.358z"/>
	<path fill="#3F3936" d="M383.593,173.711h-6.439v-3.301c-1.367,2.382-3.531,3.567-6.494,3.555c-2.176,0-3.915-0.692-5.215-2.077
		s-1.95-3.244-1.95-5.578v-12.625h6.421v10.811c0,1.185,0.302,2.12,0.907,2.802c0.604,0.684,1.415,1.025,2.43,1.025
		c1.209-0.024,2.162-0.474,2.857-1.351s1.043-2.01,1.043-3.401v-9.886h6.439V173.711z"/>
	<path fill="#3F3936" d="M404.987,156.307c1.747,1.893,2.621,4.525,2.621,7.899c0,0.544-0.012,0.949-0.037,1.215h-14.075
		c0.327,1.185,0.895,2.101,1.705,2.748c0.81,0.647,1.813,0.971,3.011,0.971c0.895,0,1.748-0.172,2.558-0.517
		s1.554-0.855,2.231-1.533l3.374,3.319c-1.041,1.137-2.304,2.007-3.791,2.612c-1.487,0.605-3.132,0.907-4.934,0.907
		c-2.153,0-4.027-0.42-5.623-1.261c-1.596-0.84-2.83-2.028-3.7-3.564s-1.306-3.319-1.306-5.351c0-2.031,0.441-3.827,1.324-5.387
		c0.882-1.56,2.11-2.766,3.682-3.619c1.572-0.853,3.386-1.279,5.441-1.279C400.733,153.468,403.239,154.415,404.987,156.307z
		 M400.343,159.037c-0.708-0.738-1.642-1.106-2.802-1.106c-1.088,0-2.004,0.363-2.748,1.088c-0.744,0.725-1.218,1.711-1.424,2.957
		h8.035C401.404,160.754,401.051,159.775,400.343,159.037z"/>
</g>
<g>
	<path fill="#3F3936" d="M749.713,599.387v5.532h-17.648v-26.011h6.62v20.479H749.713z"/>
	<path fill="#3F3936" d="M769,587.515c1.748,1.894,2.621,4.526,2.621,7.899c0,0.545-0.012,0.95-0.036,1.216H757.51
		c0.326,1.185,0.895,2.101,1.705,2.748c0.81,0.646,1.813,0.97,3.011,0.97c0.895,0,1.747-0.172,2.558-0.517
		c0.81-0.345,1.554-0.855,2.231-1.532l3.373,3.319c-1.04,1.137-2.304,2.007-3.791,2.611c-1.487,0.605-3.132,0.907-4.934,0.907
		c-2.152,0-4.026-0.42-5.623-1.261c-1.596-0.84-2.829-2.028-3.7-3.564c-0.87-1.535-1.306-3.319-1.306-5.351s0.441-3.827,1.324-5.387
		c0.883-1.561,2.11-2.767,3.682-3.619c1.572-0.853,3.386-1.278,5.442-1.278C764.748,584.677,767.253,585.624,769,587.515z
		 M764.358,590.246c-0.708-0.737-1.642-1.106-2.803-1.106c-1.089,0-2.005,0.362-2.748,1.088c-0.744,0.726-1.219,1.712-1.424,2.957
		h8.035C765.418,591.962,765.065,590.983,764.358,590.246z"/>
	<path fill="#3F3936" d="M786.496,585.194c1.415,0.394,2.739,0.952,3.973,1.678l-2.195,4.154c-2.479-1.343-4.583-2.014-6.312-2.014
		c-0.592,0-1.066,0.118-1.424,0.354c-0.356,0.235-0.534,0.577-0.534,1.024c0,0.472,0.271,0.85,0.815,1.134
		c0.545,0.284,1.434,0.602,2.667,0.952c1.414,0.399,2.594,0.802,3.537,1.207c0.942,0.405,1.759,1.021,2.448,1.85
		s1.034,1.901,1.034,3.22c0,2.008-0.78,3.579-2.34,4.716c-1.561,1.137-3.592,1.705-6.095,1.705c-1.681,0-3.301-0.242-4.861-0.726
		c-1.56-0.483-2.933-1.179-4.117-2.086l2.031-4.1c1.112,0.799,2.295,1.415,3.546,1.851c1.252,0.436,2.44,0.653,3.564,0.653
		c0.665,0,1.194-0.118,1.587-0.354c0.394-0.235,0.59-0.577,0.59-1.024c0-0.52-0.284-0.928-0.853-1.225
		c-0.568-0.296-1.457-0.619-2.666-0.97c-1.391-0.399-2.543-0.802-3.456-1.207c-0.913-0.404-1.698-1.009-2.357-1.813
		c-0.659-0.804-0.989-1.865-0.989-3.184c0-2.007,0.756-3.573,2.268-4.697c1.512-1.125,3.471-1.688,5.877-1.688
		C783.66,584.604,785.081,584.801,786.496,585.194z"/>
	<path fill="#3F3936" d="M805.542,585.194c1.415,0.394,2.739,0.952,3.973,1.678l-2.195,4.154c-2.479-1.343-4.583-2.014-6.312-2.014
		c-0.592,0-1.066,0.118-1.424,0.354c-0.356,0.235-0.534,0.577-0.534,1.024c0,0.472,0.271,0.85,0.815,1.134
		c0.545,0.284,1.434,0.602,2.667,0.952c1.414,0.399,2.594,0.802,3.537,1.207c0.942,0.405,1.759,1.021,2.448,1.85
		s1.034,1.901,1.034,3.22c0,2.008-0.78,3.579-2.34,4.716c-1.561,1.137-3.592,1.705-6.095,1.705c-1.681,0-3.301-0.242-4.861-0.726
		c-1.56-0.483-2.933-1.179-4.117-2.086l2.031-4.1c1.112,0.799,2.295,1.415,3.546,1.851c1.252,0.436,2.44,0.653,3.564,0.653
		c0.665,0,1.194-0.118,1.587-0.354c0.394-0.235,0.59-0.577,0.59-1.024c0-0.52-0.284-0.928-0.853-1.225
		c-0.568-0.296-1.457-0.619-2.666-0.97c-1.391-0.399-2.543-0.802-3.456-1.207c-0.913-0.404-1.698-1.009-2.357-1.813
		c-0.659-0.804-0.989-1.865-0.989-3.184c0-2.007,0.756-3.573,2.268-4.697c1.512-1.125,3.471-1.688,5.877-1.688
		C802.706,584.604,804.126,584.801,805.542,585.194z"/>
	<path fill="#3F3936" d="M835.778,585.847c1.548,0.779,2.758,1.89,3.628,3.328l-4.607,2.775c-0.991-1.391-2.34-2.08-4.045-2.068
		c-1.233,0-2.239,0.463-3.02,1.388c-0.78,0.926-1.17,2.144-1.17,3.655c0,1.536,0.381,2.77,1.143,3.7
		c0.762,0.932,1.777,1.396,3.047,1.396c1.887,0,3.247-0.756,4.082-2.268l4.68,2.739c-0.823,1.487-2.017,2.633-3.583,3.438
		c-1.565,0.804-3.407,1.206-5.522,1.206c-2.032,0-3.825-0.427-5.379-1.279s-2.766-2.046-3.637-3.582
		c-0.87-1.535-1.306-3.307-1.306-5.314c0-2.031,0.436-3.827,1.306-5.387c0.871-1.561,2.092-2.767,3.664-3.619
		s3.386-1.278,5.441-1.278C832.471,584.677,834.23,585.067,835.778,585.847z"/>
	<path fill="#3F3936" d="M857.403,585.938c1.662,0.84,2.944,2.034,3.845,3.582c0.901,1.548,1.352,3.337,1.352,5.369
		c0,2.031-0.45,3.821-1.352,5.369c-0.9,1.548-2.183,2.747-3.845,3.6c-1.663,0.853-3.57,1.279-5.723,1.279
		c-2.177,0-4.088-0.427-5.732-1.279s-2.926-2.052-3.845-3.6s-1.379-3.338-1.379-5.369c0-2.032,0.46-3.821,1.379-5.369
		s2.2-2.742,3.845-3.582c1.645-0.841,3.556-1.261,5.732-1.261C853.833,584.677,855.74,585.097,857.403,585.938z M848.442,591.207
		c-0.828,0.968-1.242,2.22-1.242,3.755c0,1.56,0.414,2.817,1.242,3.772c0.828,0.956,1.907,1.434,3.238,1.434
		c1.317,0,2.391-0.478,3.219-1.434c0.829-0.955,1.243-2.213,1.243-3.772c0-1.535-0.414-2.787-1.243-3.755
		c-0.828-0.967-1.901-1.451-3.219-1.451C850.349,589.755,849.27,590.24,848.442,591.207z"/>
	<path fill="#3F3936" d="M877.491,585.194c1.415,0.394,2.739,0.952,3.973,1.678l-2.195,4.154c-2.479-1.343-4.583-2.014-6.312-2.014
		c-0.592,0-1.066,0.118-1.424,0.354c-0.356,0.235-0.534,0.577-0.534,1.024c0,0.472,0.271,0.85,0.815,1.134
		c0.545,0.284,1.434,0.602,2.667,0.952c1.414,0.399,2.594,0.802,3.537,1.207c0.942,0.405,1.759,1.021,2.448,1.85
		s1.034,1.901,1.034,3.22c0,2.008-0.78,3.579-2.34,4.716c-1.561,1.137-3.592,1.705-6.095,1.705c-1.681,0-3.301-0.242-4.861-0.726
		c-1.56-0.483-2.933-1.179-4.117-2.086l2.031-4.1c1.112,0.799,2.295,1.415,3.546,1.851c1.252,0.436,2.44,0.653,3.564,0.653
		c0.665,0,1.194-0.118,1.587-0.354c0.394-0.235,0.59-0.577,0.59-1.024c0-0.52-0.284-0.928-0.853-1.225
		c-0.568-0.296-1.457-0.619-2.666-0.97c-1.391-0.399-2.543-0.802-3.456-1.207c-0.913-0.404-1.698-1.009-2.357-1.813
		c-0.659-0.804-0.989-1.865-0.989-3.184c0-2.007,0.756-3.573,2.268-4.697c1.512-1.125,3.471-1.688,5.877-1.688
		C874.655,584.604,876.076,584.801,877.491,585.194z"/>
	<path fill="#3F3936" d="M895.539,604.837c-0.942,0.248-1.898,0.372-2.865,0.372c-1.983,0-3.586-0.55-4.807-1.65
		c-1.222-1.101-1.832-2.666-1.832-4.698v-8.833h-2.794v-4.208h2.794v-5.568h6.385v5.532h5.242v4.244h-5.242v7.836
		c0,1.463,0.592,2.194,1.777,2.194c0.689,0,1.542-0.224,2.558-0.671l1.27,4.462C897.31,604.26,896.482,604.59,895.539,604.837z"/>
</g>
</svg>
