<?xml version="1.0" encoding="utf-8"?>
<!-- Generator: Adobe Illustrator 15.0.0, SVG Export Plug-In . SVG Version: 6.00 Build 0)  -->
<!DOCTYPE svg PUBLIC "-//W3C//DTD SVG 1.1//EN" "http://www.w3.org/Graphics/SVG/1.1/DTD/svg11.dtd">
<svg version="1.1" id="Layer_1" xmlns="http://www.w3.org/2000/svg" xmlns:xlink="http://www.w3.org/1999/xlink" x="0px" y="0px"
	 width="640.623px" height="343px" viewBox="0 0 640.623 343" enable-background="new 0 0 640.623 343" xml:space="preserve">
<rect x="-0.256" fill="#3F3936" width="320" height="343"/>
<g>
	<path fill="#FFFFFF" d="M67.424,109.781c1.819,0.952,3.236,2.282,4.251,3.991c1.015,1.709,1.522,3.673,1.522,5.892
		c0,2.198-0.519,4.154-1.554,5.868c-1.036,1.714-2.479,3.05-4.33,4.006c-1.851,0.957-3.975,1.436-6.373,1.436h-9.495v-22.62h9.732
		C63.523,108.353,65.605,108.829,67.424,109.781z M57.203,126.382h4.102c1.167,0,2.208-0.278,3.123-0.836
		c0.915-0.557,1.63-1.343,2.146-2.358c0.515-1.015,0.772-2.179,0.772-3.494c0-1.314-0.268-2.481-0.805-3.501
		c-0.536-1.02-1.285-1.816-2.247-2.39c-0.963-0.573-2.043-0.86-3.242-0.86h-3.849V126.382z"/>
	<path fill="#FFFFFF" d="M90.351,115.838c1.52,1.646,2.279,3.936,2.279,6.869c0,0.474-0.011,0.826-0.031,1.057h-12.24
		c0.284,1.031,0.778,1.827,1.482,2.39s1.577,0.844,2.618,0.844c0.778,0,1.52-0.15,2.225-0.449c0.704-0.3,1.351-0.744,1.94-1.333
		l2.934,2.887c-0.904,0.988-2.003,1.746-3.297,2.271c-1.293,0.526-2.724,0.789-4.29,0.789c-1.872,0-3.502-0.365-4.891-1.097
		c-1.388-0.73-2.46-1.764-3.218-3.099c-0.757-1.335-1.136-2.887-1.136-4.653s0.384-3.328,1.152-4.685
		c0.767-1.356,1.835-2.405,3.201-3.146c1.367-0.742,2.944-1.112,4.732-1.112C86.653,113.369,88.832,114.192,90.351,115.838z
		 M86.313,118.212c-0.615-0.642-1.428-0.962-2.437-0.962c-0.946,0-1.743,0.315-2.39,0.946c-0.647,0.631-1.06,1.488-1.238,2.571
		h6.987C87.236,119.705,86.928,118.854,86.313,118.212z"/>
	<path fill="#FFFFFF" d="M105.564,113.819c1.23,0.342,2.382,0.828,3.455,1.459l-1.909,3.612c-2.155-1.167-3.985-1.751-5.489-1.751
		c-0.515,0-0.928,0.103-1.237,0.308c-0.311,0.205-0.466,0.502-0.466,0.891c0,0.41,0.236,0.739,0.71,0.986
		c0.473,0.247,1.246,0.523,2.318,0.828c1.23,0.347,2.256,0.697,3.076,1.049c0.82,0.353,1.53,0.889,2.129,1.609
		c0.6,0.721,0.899,1.654,0.899,2.8c0,1.746-0.678,3.113-2.034,4.101c-1.357,0.988-3.124,1.482-5.301,1.482
		c-1.461,0-2.87-0.21-4.227-0.631c-1.357-0.42-2.551-1.025-3.581-1.814l1.767-3.565c0.968,0.694,1.995,1.23,3.084,1.609
		c1.088,0.379,2.121,0.568,3.1,0.568c0.578,0,1.038-0.103,1.38-0.308s0.513-0.502,0.513-0.891c0-0.452-0.247-0.807-0.741-1.064
		s-1.268-0.539-2.319-0.844c-1.209-0.347-2.211-0.696-3.005-1.049c-0.794-0.352-1.478-0.878-2.05-1.577
		c-0.573-0.699-0.86-1.622-0.86-2.769c0-1.745,0.657-3.107,1.972-4.085c1.314-0.978,3.019-1.467,5.111-1.467
		C103.098,113.306,104.334,113.477,105.564,113.819z"/>
	<path fill="#FFFFFF" d="M117.103,106.437c0.552,0.552,0.828,1.259,0.828,2.121c0,0.863-0.276,1.572-0.828,2.13
		c-0.552,0.557-1.26,0.836-2.121,0.836c-0.863,0-1.567-0.279-2.114-0.836c-0.547-0.558-0.82-1.267-0.82-2.13
		c0-0.862,0.273-1.569,0.82-2.121c0.547-0.552,1.251-0.828,2.114-0.828C115.843,105.609,116.551,105.885,117.103,106.437z
		 M112.173,130.973v-17.414h5.568v17.414H112.173z"/>
	<path fill="#FFFFFF" d="M138.847,129.396c0,1.619-0.392,3.042-1.175,4.267c-0.784,1.225-1.888,2.166-3.312,2.823
		c-1.426,0.657-3.073,0.986-4.945,0.986c-1.462,0-2.86-0.21-4.195-0.631c-1.336-0.42-2.524-0.978-3.565-1.672l1.94-3.77
		c0.799,0.557,1.666,0.986,2.603,1.286c0.936,0.3,1.866,0.45,2.792,0.45c1.335,0,2.387-0.324,3.154-0.97s1.151-1.517,1.151-2.61
		v-1.846c-0.578,0.757-1.288,1.335-2.129,1.735c-0.842,0.4-1.804,0.6-2.887,0.6c-1.462,0-2.758-0.352-3.888-1.057
		c-1.131-0.705-2.015-1.696-2.65-2.974c-0.637-1.277-0.954-2.747-0.954-4.409c0-1.64,0.312-3.083,0.938-4.33
		c0.625-1.246,1.509-2.208,2.649-2.887c1.142-0.678,2.442-1.018,3.904-1.018c1.072,0,2.029,0.2,2.871,0.6
		c0.841,0.4,1.556,0.973,2.145,1.719v-2.129h5.553V129.396z M132.293,124.821c0.667-0.789,1.001-1.809,1.001-3.06
		c0-1.272-0.334-2.3-1.001-3.083c-0.668-0.783-1.544-1.175-2.627-1.175c-1.094,0-1.979,0.392-2.657,1.175
		c-0.679,0.783-1.018,1.812-1.018,3.083c0,1.251,0.339,2.271,1.018,3.06c0.678,0.789,1.563,1.183,2.657,1.183
		C130.75,126.004,131.625,125.61,132.293,124.821z"/>
	<path fill="#FFFFFF" d="M159.14,115.128c1.162,1.215,1.743,2.837,1.743,4.866v10.979h-5.568v-9.433c0-1.01-0.273-1.811-0.82-2.405
		s-1.293-0.892-2.239-0.892c-0.989,0-1.801,0.324-2.438,0.97c-0.636,0.647-1.007,1.496-1.112,2.547v9.212h-5.6v-17.414h5.6v2.839
		c1.23-2.029,3.166-3.06,5.806-3.092C156.435,113.306,157.978,113.914,159.14,115.128z"/>
</g>
<g>
	<path fill="#FFFFFF" d="M61.367,153.779c1.23,0.342,2.382,0.828,3.455,1.459l-1.909,3.612c-2.155-1.167-3.985-1.751-5.489-1.751
		c-0.515,0-0.928,0.103-1.237,0.308c-0.311,0.205-0.466,0.502-0.466,0.891c0,0.41,0.236,0.739,0.71,0.986
		c0.473,0.247,1.246,0.523,2.318,0.828c1.23,0.347,2.256,0.697,3.076,1.049c0.82,0.353,1.53,0.889,2.129,1.609
		c0.6,0.721,0.899,1.654,0.899,2.8c0,1.746-0.678,3.113-2.034,4.101c-1.357,0.988-3.124,1.482-5.301,1.482
		c-1.461,0-2.87-0.21-4.227-0.631c-1.357-0.42-2.551-1.025-3.581-1.814l1.767-3.565c0.968,0.694,1.995,1.23,3.084,1.609
		c1.088,0.379,2.121,0.568,3.1,0.568c0.578,0,1.038-0.103,1.38-0.308s0.513-0.502,0.513-0.891c0-0.452-0.247-0.807-0.741-1.064
		s-1.268-0.539-2.319-0.844c-1.209-0.347-2.211-0.696-3.005-1.049c-0.794-0.352-1.478-0.878-2.05-1.577
		c-0.573-0.699-0.86-1.622-0.86-2.769c0-1.745,0.657-3.107,1.972-4.085c1.314-0.978,3.019-1.467,5.111-1.467
		C58.901,153.267,60.137,153.438,61.367,153.779z"/>
	<path fill="#FFFFFF" d="M83.213,154.442c1.241,0.741,2.201,1.79,2.879,3.146c0.679,1.357,1.018,2.929,1.018,4.716
		c0,1.746-0.334,3.287-1.002,4.622s-1.606,2.369-2.815,3.099c-1.209,0.731-2.618,1.097-4.228,1.097
		c-1.114,0-2.127-0.216-3.036-0.647s-1.675-1.051-2.295-1.861v8.581H68.15v-23.676h5.584v2.303c0.62-0.799,1.372-1.414,2.256-1.845
		c0.883-0.431,1.866-0.647,2.949-0.647C80.548,153.33,81.973,153.7,83.213,154.442z M80.398,165.428
		c0.721-0.852,1.081-1.945,1.081-3.281c0-1.335-0.36-2.423-1.081-3.265c-0.72-0.841-1.658-1.262-2.815-1.262
		c-1.114,0-2.034,0.421-2.76,1.262c-0.726,0.842-1.089,1.93-1.089,3.265c0,1.357,0.354,2.456,1.064,3.297s1.638,1.262,2.784,1.262
		C78.74,166.706,79.678,166.28,80.398,165.428z"/>
	<path fill="#FFFFFF" d="M98.025,154.119c0.957-0.547,2.061-0.831,3.312-0.852v5.032c-0.168-0.021-0.426-0.031-0.772-0.031
		c-1.378,0-2.503,0.334-3.376,1.001c-0.873,0.668-1.372,1.575-1.499,2.721v8.944h-5.6v-17.414h5.6v2.934
		C96.29,155.443,97.068,154.666,98.025,154.119z"/>
	<path fill="#FFFFFF" d="M108.709,146.397c0.552,0.552,0.828,1.259,0.828,2.121c0,0.863-0.276,1.572-0.828,2.13
		c-0.552,0.557-1.26,0.836-2.121,0.836c-0.863,0-1.567-0.279-2.114-0.836c-0.547-0.558-0.82-1.267-0.82-2.13
		c0-0.862,0.273-1.569,0.82-2.121c0.547-0.552,1.251-0.828,2.114-0.828C107.45,145.569,108.158,145.845,108.709,146.397z
		 M103.78,170.933v-17.414h5.568v17.414H103.78z"/>
	<path fill="#FFFFFF" d="M129.846,155.088c1.162,1.215,1.743,2.837,1.743,4.866v10.979h-5.568V161.5c0-1.01-0.273-1.811-0.82-2.405
		s-1.293-0.892-2.239-0.892c-0.989,0-1.801,0.324-2.438,0.97c-0.636,0.647-1.007,1.496-1.112,2.547v9.212h-5.6v-17.414h5.6v2.839
		c1.23-2.029,3.166-3.06,5.806-3.092C127.141,153.267,128.684,153.874,129.846,155.088z"/>
	<path fill="#FFFFFF" d="M144.633,170.862c-0.82,0.215-1.651,0.323-2.492,0.323c-1.725,0-3.118-0.479-4.18-1.436
		c-1.062-0.957-1.594-2.319-1.594-4.085v-7.682h-2.429v-3.66h2.429v-4.842h5.553v4.811h4.559v3.691h-4.559v6.814
		c0,1.272,0.515,1.908,1.546,1.908c0.6,0,1.341-0.194,2.224-0.583l1.104,3.88C146.173,170.36,145.454,170.646,144.633,170.862z"/>
</g>
<g>
	<path fill="#FFFFFF" d="M68.955,210.894h-5.584v-2.287c-1.272,1.683-3.019,2.519-5.237,2.508c-1.619,0-3.042-0.376-4.267-1.128
		s-2.177-1.806-2.854-3.162c-0.679-1.356-1.018-2.929-1.018-4.717c0-1.767,0.333-3.317,1.001-4.653
		c0.668-1.335,1.606-2.368,2.816-3.1c1.209-0.73,2.607-1.096,4.195-1.096c1.146,0,2.172,0.216,3.076,0.646
		c0.904,0.432,1.666,1.057,2.287,1.877v-8.864h5.584V210.894z M62.306,205.53c0.709-0.841,1.064-1.939,1.064-3.297
		c0-1.335-0.355-2.423-1.064-3.265c-0.71-0.841-1.648-1.262-2.816-1.262c-1.167,0-2.103,0.415-2.808,1.246
		c-0.704,0.831-1.067,1.924-1.088,3.28c0.021,1.357,0.387,2.456,1.096,3.297c0.71,0.842,1.644,1.262,2.8,1.262
		C60.658,206.792,61.596,206.372,62.306,205.53z"/>
	<path fill="#FFFFFF" d="M87.733,195.759c1.52,1.646,2.279,3.936,2.279,6.869c0,0.474-0.011,0.826-0.031,1.057h-12.24
		c0.284,1.031,0.778,1.828,1.482,2.391s1.577,0.844,2.618,0.844c0.778,0,1.52-0.15,2.225-0.45c0.704-0.3,1.351-0.743,1.94-1.333
		l2.934,2.887c-0.904,0.989-2.003,1.746-3.297,2.271c-1.293,0.526-2.724,0.789-4.29,0.789c-1.872,0-3.502-0.365-4.891-1.097
		c-1.388-0.73-2.46-1.764-3.218-3.1c-0.757-1.335-1.136-2.887-1.136-4.653s0.384-3.328,1.152-4.685
		c0.767-1.356,1.835-2.405,3.201-3.146c1.367-0.741,2.944-1.112,4.732-1.112C84.035,193.29,86.213,194.113,87.733,195.759z
		 M83.695,198.133c-0.615-0.642-1.428-0.962-2.437-0.962c-0.946,0-1.743,0.315-2.39,0.946c-0.647,0.631-1.06,1.488-1.238,2.571
		h6.987C84.618,199.626,84.31,198.774,83.695,198.133z"/>
	<path fill="#FFFFFF" d="M93.167,210.894v-23.976h5.584v23.976H93.167z"/>
	<path fill="#FFFFFF" d="M108.286,186.357c0.552,0.553,0.828,1.26,0.828,2.122s-0.276,1.572-0.828,2.129
		c-0.552,0.558-1.26,0.836-2.121,0.836c-0.863,0-1.567-0.278-2.114-0.836c-0.547-0.557-0.82-1.267-0.82-2.129
		s0.273-1.569,0.82-2.122c0.547-0.552,1.251-0.828,2.114-0.828C107.026,185.529,107.734,185.806,108.286,186.357z M103.356,210.894
		v-17.414h5.568v17.414H103.356z"/>
	<path fill="#FFFFFF" d="M117.569,210.894l-6.562-17.414h5.742l3.754,12.304l3.77-12.304h5.568l-6.562,17.414H117.569z"/>
	<path fill="#FFFFFF" d="M145.548,195.759c1.52,1.646,2.279,3.936,2.279,6.869c0,0.474-0.011,0.826-0.031,1.057h-12.24
		c0.284,1.031,0.778,1.828,1.482,2.391s1.577,0.844,2.618,0.844c0.778,0,1.52-0.15,2.225-0.45c0.704-0.3,1.351-0.743,1.94-1.333
		l2.934,2.887c-0.904,0.989-2.003,1.746-3.297,2.271c-1.293,0.526-2.724,0.789-4.29,0.789c-1.872,0-3.502-0.365-4.891-1.097
		c-1.388-0.73-2.46-1.764-3.218-3.1c-0.757-1.335-1.136-2.887-1.136-4.653s0.384-3.328,1.152-4.685
		c0.767-1.356,1.835-2.405,3.201-3.146c1.367-0.741,2.944-1.112,4.732-1.112C141.85,193.29,144.029,194.113,145.548,195.759z
		 M141.51,198.133c-0.615-0.642-1.428-0.962-2.437-0.962c-0.946,0-1.743,0.315-2.39,0.946c-0.647,0.631-1.06,1.488-1.238,2.571
		h6.987C142.433,199.626,142.125,198.774,141.51,198.133z"/>
	<path fill="#FFFFFF" d="M158.743,194.079c0.957-0.547,2.061-0.831,3.312-0.852v5.031c-0.168-0.021-0.426-0.031-0.772-0.031
		c-1.378,0-2.503,0.334-3.376,1.001c-0.873,0.668-1.372,1.575-1.499,2.722v8.943h-5.6v-17.414h5.6v2.934
		C157.007,195.404,157.786,194.626,158.743,194.079z"/>
	<path fill="#FFFFFF" d="M171.665,216.257c-1.109,0.778-2.474,1.167-4.093,1.167c-0.968,0-1.861-0.147-2.682-0.441
		c-0.82-0.295-1.62-0.741-2.398-1.341l2.335-3.817c0.41,0.326,0.791,0.565,1.144,0.718s0.733,0.229,1.144,0.229
		c0.988,0,1.714-0.463,2.177-1.388l0.41-0.884l-7.24-17.02h5.758l4.259,11.562l3.785-11.562h5.553l-7.524,19.229
		C173.649,214.295,172.774,215.479,171.665,216.257z"/>
</g>
<g>
	<path fill="#FFFFFF" d="M68.251,66.88c1.725,1.982,2.587,4.814,2.587,8.494c0,3.702-0.862,6.543-2.587,8.526
		c-1.725,1.982-4.19,2.973-7.397,2.973c-3.229,0-5.71-0.991-7.445-2.973c-1.735-1.982-2.603-4.824-2.603-8.526
		c0-3.68,0.867-6.512,2.603-8.494c1.735-1.982,4.217-2.973,7.445-2.973C64.061,63.907,66.527,64.898,68.251,66.88z M57.691,69.799
		c-0.646,1.13-0.97,2.989-0.97,5.576s0.323,4.451,0.97,5.592c0.646,1.141,1.701,1.711,3.163,1.711c1.419,0,2.458-0.576,3.115-1.727
		s0.985-3.01,0.985-5.576c0-2.565-0.328-4.419-0.985-5.56s-1.696-1.711-3.115-1.711C59.392,68.103,58.337,68.668,57.691,69.799z"/>
	<path fill="#FFFFFF" d="M87.377,75.446c1.021,1.078,1.53,2.463,1.53,4.156c0,1.441-0.354,2.718-1.064,3.833
		s-1.722,1.982-3.036,2.603c-1.315,0.621-2.834,0.931-4.559,0.931c-1.525,0-3.053-0.247-4.583-0.741
		c-1.529-0.494-2.81-1.162-3.841-2.003l2.319-4.354c1.703,1.83,3.591,2.745,5.662,2.745c1.115,0,1.975-0.258,2.579-0.773
		s0.907-1.235,0.907-2.161c0-0.946-0.303-1.659-0.907-2.137s-1.475-0.718-2.61-0.718h-3.628v-3.06l5.048-5.237H72.96v-4.401h14.922
		v3.265l-5.662,5.884l1.072,0.158C84.996,73.697,86.358,74.368,87.377,75.446z"/>
</g>
<rect x="320.671" fill="#E2E2E2" width="320" height="343"/>
<g>
	<path fill="#3F3936" d="M390.939,109.67c1.866,1.004,3.33,2.376,4.393,4.117c1.062,1.741,1.593,3.689,1.593,5.844
		c0,2.177-0.531,4.148-1.593,5.915c-1.062,1.767-2.526,3.155-4.393,4.165c-1.867,1.009-3.952,1.514-6.255,1.514
		c-2.282,0-4.354-0.505-6.215-1.514c-1.861-1.01-3.325-2.398-4.393-4.165s-1.602-3.738-1.602-5.915s0.534-4.135,1.602-5.875
		s2.526-3.107,4.377-4.101c1.851-0.994,3.928-1.491,6.23-1.491S389.072,108.667,390.939,109.67z M381.569,113.851
		c-0.983,0.583-1.764,1.385-2.342,2.405c-0.579,1.02-0.868,2.156-0.868,3.407s0.289,2.395,0.868,3.431
		c0.578,1.036,1.358,1.848,2.342,2.437s2.043,0.883,3.179,0.883c1.146,0,2.197-0.294,3.154-0.883s1.717-1.401,2.279-2.437
		s0.844-2.179,0.844-3.431s-0.281-2.387-0.844-3.407s-1.322-1.822-2.279-2.405c-0.957-0.584-2.009-0.875-3.154-0.875
		C383.612,112.975,382.552,113.267,381.569,113.851z"/>
	<path fill="#3F3936" d="M415.956,115.128c1.162,1.215,1.743,2.837,1.743,4.866v10.979h-5.568v-9.433c0-1.01-0.273-1.811-0.82-2.405
		s-1.293-0.892-2.239-0.892c-0.989,0-1.801,0.324-2.438,0.97c-0.636,0.647-1.007,1.496-1.112,2.547v9.212h-5.6v-17.414h5.6v2.839
		c1.23-2.029,3.166-3.06,5.806-3.092C413.25,113.306,414.793,113.914,415.956,115.128z"/>
	<path fill="#3F3936" d="M438.493,129.396c0,1.619-0.392,3.042-1.175,4.267c-0.784,1.225-1.888,2.166-3.312,2.823
		c-1.426,0.657-3.073,0.986-4.945,0.986c-1.462,0-2.86-0.21-4.195-0.631c-1.336-0.42-2.524-0.978-3.565-1.672l1.94-3.77
		c0.799,0.557,1.666,0.986,2.603,1.286c0.936,0.3,1.866,0.45,2.792,0.45c1.335,0,2.387-0.324,3.154-0.97s1.151-1.517,1.151-2.61
		v-1.846c-0.578,0.757-1.288,1.335-2.129,1.735c-0.842,0.4-1.804,0.6-2.887,0.6c-1.462,0-2.758-0.352-3.888-1.057
		c-1.131-0.705-2.015-1.696-2.65-2.974c-0.637-1.277-0.954-2.747-0.954-4.409c0-1.64,0.312-3.083,0.938-4.33
		c0.625-1.246,1.509-2.208,2.649-2.887c1.142-0.678,2.442-1.018,3.904-1.018c1.072,0,2.029,0.2,2.871,0.6
		c0.841,0.4,1.556,0.973,2.145,1.719v-2.129h5.553V129.396z M431.939,124.821c0.667-0.789,1.001-1.809,1.001-3.06
		c0-1.272-0.334-2.3-1.001-3.083c-0.668-0.783-1.544-1.175-2.627-1.175c-1.094,0-1.979,0.392-2.657,1.175
		c-0.679,0.783-1.018,1.812-1.018,3.083c0,1.251,0.339,2.271,1.018,3.06c0.678,0.789,1.563,1.183,2.657,1.183
		C430.395,126.004,431.271,125.61,431.939,124.821z"/>
	<path fill="#3F3936" d="M455.804,114.465c1.446,0.731,2.561,1.77,3.345,3.116c0.783,1.346,1.175,2.902,1.175,4.669
		s-0.392,3.323-1.175,4.669c-0.784,1.346-1.898,2.39-3.345,3.131c-1.445,0.741-3.104,1.112-4.977,1.112
		c-1.893,0-3.554-0.371-4.984-1.112c-1.43-0.741-2.545-1.785-3.344-3.131s-1.199-2.902-1.199-4.669s0.4-3.323,1.199-4.669
		s1.914-2.384,3.344-3.116c1.431-0.73,3.092-1.096,4.984-1.096C452.7,113.369,454.359,113.735,455.804,114.465z M448.012,119.048
		c-0.72,0.841-1.08,1.93-1.08,3.265c0,1.356,0.36,2.45,1.08,3.281c0.721,0.831,1.659,1.246,2.815,1.246
		c1.146,0,2.08-0.415,2.8-1.246c0.721-0.831,1.081-1.924,1.081-3.281c0-1.335-0.36-2.424-1.081-3.265
		c-0.72-0.841-1.653-1.262-2.8-1.262C449.671,117.786,448.733,118.207,448.012,119.048z"/>
	<path fill="#3F3936" d="M468.25,106.437c0.552,0.552,0.828,1.259,0.828,2.121c0,0.863-0.276,1.572-0.828,2.13
		c-0.552,0.557-1.26,0.836-2.121,0.836c-0.863,0-1.567-0.279-2.114-0.836c-0.547-0.558-0.82-1.267-0.82-2.13
		c0-0.862,0.273-1.569,0.82-2.121c0.547-0.552,1.251-0.828,2.114-0.828C466.99,105.609,467.698,105.885,468.25,106.437z
		 M463.32,130.973v-17.414h5.568v17.414H463.32z"/>
	<path fill="#3F3936" d="M489.386,115.128c1.162,1.215,1.743,2.837,1.743,4.866v10.979h-5.568v-9.433c0-1.01-0.273-1.811-0.82-2.405
		s-1.293-0.892-2.239-0.892c-0.989,0-1.801,0.324-2.438,0.97c-0.636,0.647-1.007,1.496-1.112,2.547v9.212h-5.6v-17.414h5.6v2.839
		c1.23-2.029,3.166-3.06,5.806-3.092C486.681,113.306,488.224,113.914,489.386,115.128z"/>
	<path fill="#3F3936" d="M511.923,129.396c0,1.619-0.392,3.042-1.175,4.267c-0.784,1.225-1.888,2.166-3.312,2.823
		c-1.426,0.657-3.073,0.986-4.945,0.986c-1.462,0-2.86-0.21-4.195-0.631c-1.336-0.42-2.524-0.978-3.565-1.672l1.94-3.77
		c0.799,0.557,1.666,0.986,2.603,1.286c0.936,0.3,1.866,0.45,2.792,0.45c1.335,0,2.387-0.324,3.154-0.97s1.151-1.517,1.151-2.61
		v-1.846c-0.578,0.757-1.288,1.335-2.129,1.735c-0.842,0.4-1.804,0.6-2.887,0.6c-1.462,0-2.758-0.352-3.888-1.057
		c-1.131-0.705-2.015-1.696-2.65-2.974c-0.637-1.277-0.954-2.747-0.954-4.409c0-1.64,0.312-3.083,0.938-4.33
		c0.625-1.246,1.509-2.208,2.649-2.887c1.142-0.678,2.442-1.018,3.904-1.018c1.072,0,2.029,0.2,2.871,0.6
		c0.841,0.4,1.556,0.973,2.145,1.719v-2.129h5.553V129.396z M505.37,124.821c0.667-0.789,1.001-1.809,1.001-3.06
		c0-1.272-0.334-2.3-1.001-3.083c-0.668-0.783-1.544-1.175-2.627-1.175c-1.094,0-1.979,0.392-2.657,1.175
		c-0.679,0.783-1.018,1.812-1.018,3.083c0,1.251,0.339,2.271,1.018,3.06c0.678,0.789,1.563,1.183,2.657,1.183
		C503.826,126.004,504.702,125.61,505.37,124.821z"/>
</g>
<g>
	<path fill="#3F3936" d="M383.879,153.779c1.23,0.342,2.382,0.828,3.455,1.459l-1.909,3.612c-2.155-1.167-3.985-1.751-5.489-1.751
		c-0.515,0-0.928,0.103-1.237,0.308c-0.311,0.205-0.466,0.502-0.466,0.891c0,0.41,0.236,0.739,0.71,0.986
		c0.473,0.247,1.246,0.523,2.318,0.828c1.23,0.347,2.256,0.697,3.076,1.049c0.82,0.353,1.53,0.889,2.129,1.609
		c0.6,0.721,0.899,1.654,0.899,2.8c0,1.746-0.678,3.113-2.034,4.101c-1.357,0.988-3.124,1.482-5.301,1.482
		c-1.461,0-2.87-0.21-4.227-0.631c-1.357-0.42-2.551-1.025-3.581-1.814l1.767-3.565c0.968,0.694,1.995,1.23,3.084,1.609
		c1.088,0.379,2.121,0.568,3.1,0.568c0.578,0,1.038-0.103,1.38-0.308s0.513-0.502,0.513-0.891c0-0.452-0.247-0.807-0.741-1.064
		s-1.268-0.539-2.319-0.844c-1.209-0.347-2.211-0.696-3.005-1.049c-0.794-0.352-1.478-0.878-2.05-1.577
		c-0.573-0.699-0.86-1.622-0.86-2.769c0-1.745,0.657-3.107,1.972-4.085c1.314-0.978,3.019-1.467,5.111-1.467
		C381.414,153.267,382.65,153.438,383.879,153.779z"/>
	<path fill="#3F3936" d="M407.461,170.933h-5.6v-2.871c-1.188,2.072-3.07,3.102-5.646,3.091c-1.894,0-3.405-0.602-4.535-1.806
		c-1.131-1.204-1.695-2.821-1.695-4.85v-10.979h5.583v9.401c0,1.031,0.264,1.843,0.789,2.437c0.525,0.594,1.23,0.892,2.113,0.892
		c1.052-0.021,1.88-0.413,2.484-1.175c0.605-0.762,0.907-1.748,0.907-2.958v-8.597h5.6V170.933z"/>
	<path fill="#3F3936" d="M427.13,154.442c1.241,0.741,2.201,1.79,2.879,3.146c0.679,1.357,1.018,2.929,1.018,4.716
		c0,1.746-0.334,3.287-1.002,4.622s-1.606,2.369-2.815,3.099c-1.209,0.731-2.618,1.097-4.228,1.097
		c-1.114,0-2.127-0.216-3.036-0.647s-1.675-1.051-2.295-1.861v8.581h-5.584v-23.676h5.584v2.303c0.62-0.799,1.372-1.414,2.256-1.845
		c0.883-0.431,1.866-0.647,2.949-0.647C424.465,153.33,425.89,153.7,427.13,154.442z M424.315,165.428
		c0.721-0.852,1.081-1.945,1.081-3.281c0-1.335-0.36-2.423-1.081-3.265c-0.72-0.841-1.658-1.262-2.815-1.262
		c-1.114,0-2.034,0.421-2.76,1.262c-0.726,0.842-1.089,1.93-1.089,3.265c0,1.357,0.354,2.456,1.064,3.297s1.638,1.262,2.784,1.262
		C422.657,166.706,423.595,166.28,424.315,165.428z"/>
	<path fill="#3F3936" d="M449.246,154.442c1.241,0.741,2.201,1.79,2.879,3.146c0.679,1.357,1.018,2.929,1.018,4.716
		c0,1.746-0.334,3.287-1.002,4.622s-1.606,2.369-2.815,3.099c-1.209,0.731-2.618,1.097-4.228,1.097
		c-1.114,0-2.127-0.216-3.036-0.647s-1.675-1.051-2.295-1.861v8.581h-5.584v-23.676h5.584v2.303c0.62-0.799,1.372-1.414,2.256-1.845
		c0.883-0.431,1.866-0.647,2.949-0.647C446.581,153.33,448.005,153.7,449.246,154.442z M446.43,165.428
		c0.721-0.852,1.081-1.945,1.081-3.281c0-1.335-0.36-2.423-1.081-3.265c-0.72-0.841-1.658-1.262-2.815-1.262
		c-1.114,0-2.034,0.421-2.76,1.262c-0.726,0.842-1.089,1.93-1.089,3.265c0,1.357,0.354,2.456,1.064,3.297s1.638,1.262,2.784,1.262
		C444.772,166.706,445.71,166.28,446.43,165.428z"/>
	<path fill="#3F3936" d="M469.175,154.426c1.446,0.731,2.561,1.77,3.345,3.116c0.783,1.346,1.175,2.902,1.175,4.669
		s-0.392,3.323-1.175,4.669c-0.784,1.346-1.898,2.39-3.345,3.131c-1.445,0.741-3.104,1.112-4.977,1.112
		c-1.893,0-3.554-0.371-4.984-1.112c-1.43-0.741-2.545-1.785-3.344-3.131s-1.199-2.902-1.199-4.669s0.4-3.323,1.199-4.669
		s1.914-2.384,3.344-3.116c1.431-0.73,3.092-1.096,4.984-1.096C466.071,153.33,467.73,153.695,469.175,154.426z M461.383,159.008
		c-0.72,0.841-1.08,1.93-1.08,3.265c0,1.356,0.36,2.45,1.08,3.281c0.721,0.831,1.659,1.246,2.815,1.246
		c1.146,0,2.08-0.415,2.8-1.246c0.721-0.831,1.081-1.924,1.081-3.281c0-1.335-0.36-2.424-1.081-3.265
		c-0.72-0.841-1.653-1.262-2.8-1.262C463.042,157.747,462.104,158.167,461.383,159.008z"/>
	<path fill="#3F3936" d="M484.626,154.119c0.957-0.547,2.061-0.831,3.312-0.852v5.032c-0.168-0.021-0.426-0.031-0.772-0.031
		c-1.378,0-2.503,0.334-3.376,1.001c-0.873,0.668-1.372,1.575-1.499,2.721v8.944h-5.6v-17.414h5.6v2.934
		C482.891,155.443,483.669,154.666,484.626,154.119z"/>
	<path fill="#3F3936" d="M500.048,170.862c-0.82,0.215-1.651,0.323-2.492,0.323c-1.725,0-3.118-0.479-4.18-1.436
		c-1.062-0.957-1.594-2.319-1.594-4.085v-7.682h-2.429v-3.66h2.429v-4.842h5.553v4.811h4.559v3.691h-4.559v6.814
		c0,1.272,0.515,1.908,1.546,1.908c0.6,0,1.341-0.194,2.224-0.583l1.104,3.88C501.588,170.36,500.869,170.646,500.048,170.862z"/>
</g>
<g>
	<path fill="#3F3936" d="M390.764,66.88c1.725,1.982,2.587,4.814,2.587,8.494c0,3.702-0.862,6.543-2.587,8.526
		c-1.725,1.982-4.19,2.973-7.397,2.973c-3.229,0-5.71-0.991-7.445-2.973c-1.735-1.982-2.603-4.824-2.603-8.526
		c0-3.68,0.867-6.512,2.603-8.494c1.735-1.982,4.217-2.973,7.445-2.973C386.574,63.907,389.04,64.898,390.764,66.88z
		 M380.204,69.799c-0.646,1.13-0.97,2.989-0.97,5.576s0.323,4.451,0.97,5.592c0.646,1.141,1.701,1.711,3.163,1.711
		c1.419,0,2.458-0.576,3.115-1.727s0.985-3.01,0.985-5.576c0-2.565-0.328-4.419-0.985-5.56s-1.696-1.711-3.115-1.711
		C381.905,68.103,380.85,68.668,380.204,69.799z"/>
	<path fill="#3F3936" d="M406.286,77.378v-4.843h5.331v4.843h3.076v4.369h-3.076v4.969h-5.331v-4.969h-10.727v-3.849l7.146-13.802
		h5.521l-6.72,13.282H406.286z"/>
</g>
</svg>
