<?xml version="1.0" encoding="utf-8"?>
<!-- Generator: Adobe Illustrator 15.0.0, SVG Export Plug-In . SVG Version: 6.00 Build 0)  -->
<!DOCTYPE svg PUBLIC "-//W3C//DTD SVG 1.1//EN" "http://www.w3.org/Graphics/SVG/1.1/DTD/svg11.dtd">
<svg version="1.1" id="Layer_1" xmlns="http://www.w3.org/2000/svg" xmlns:xlink="http://www.w3.org/1999/xlink" x="0px" y="0px"
	 width="1534.567px" height="520.015px" viewBox="0 0 1534.567 520.015" enable-background="new 0 0 1534.567 520.015"
	 xml:space="preserve">
<polygon fill="#00FFFF" points="1534.567,251.398 1369.264,0 1369.264,89.539 917.433,89.539 917.433,433.92 1369.264,433.92 
	1369.264,520.015 "/>
<rect y="92.509" fill="#00FFFF" width="529.903" height="339.564"/>
<g>
	<path fill="#3F3936" d="M160.387,367.606c2.306,1.207,4.103,2.893,5.389,5.06c1.287,2.166,1.93,4.656,1.93,7.469
		c0,2.786-0.657,5.266-1.97,7.438c-1.313,2.174-3.143,3.867-5.489,5.08c-2.347,1.213-5.04,1.819-8.079,1.819h-12.039v-28.676h12.338
		C155.44,365.796,158.08,366.4,160.387,367.606z M147.429,388.653h5.199c1.48,0,2.8-0.353,3.959-1.06s2.066-1.703,2.72-2.989
		c0.653-1.287,0.98-2.764,0.98-4.43c0-1.667-0.34-3.146-1.02-4.439c-0.68-1.293-1.63-2.303-2.85-3.029s-2.59-1.09-4.109-1.09h-4.879
		V388.653z"/>
	<path fill="#3F3936" d="M189.453,375.285c1.926,2.087,2.89,4.989,2.89,8.709c0,0.6-0.014,1.047-0.04,1.34h-15.518
		c0.36,1.307,0.987,2.316,1.88,3.029c0.893,0.714,2,1.07,3.32,1.07c0.986,0,1.926-0.19,2.819-0.57s1.713-0.942,2.46-1.689
		l3.719,3.659c-1.146,1.253-2.54,2.213-4.179,2.88c-1.64,0.667-3.453,1-5.439,1c-2.373,0-4.439-0.463-6.199-1.39
		s-3.12-2.236-4.08-3.93c-0.959-1.693-1.439-3.66-1.439-5.899s0.486-4.22,1.459-5.939s2.327-3.049,4.06-3.989
		c1.733-0.939,3.733-1.41,5.999-1.41C184.763,372.155,187.526,373.199,189.453,375.285z M184.333,378.294
		c-0.78-0.813-1.81-1.22-3.09-1.22c-1.2,0-2.209,0.399-3.029,1.199c-0.82,0.801-1.343,1.887-1.57,3.26h8.859
		C185.503,380.188,185.113,379.108,184.333,378.294z"/>
	<path fill="#3F3936" d="M201.052,394.472l-8.319-22.077h7.279l4.759,15.598l4.779-15.598h7.059l-8.319,22.077H201.052z"/>
	<path fill="#3F3936" d="M236.524,375.285c1.926,2.087,2.89,4.989,2.89,8.709c0,0.6-0.014,1.047-0.04,1.34h-15.518
		c0.36,1.307,0.987,2.316,1.88,3.029c0.893,0.714,2,1.07,3.32,1.07c0.986,0,1.926-0.19,2.819-0.57s1.713-0.942,2.46-1.689
		l3.719,3.659c-1.146,1.253-2.54,2.213-4.179,2.88c-1.64,0.667-3.453,1-5.439,1c-2.373,0-4.439-0.463-6.199-1.39
		s-3.12-2.236-4.08-3.93c-0.959-1.693-1.439-3.66-1.439-5.899s0.486-4.22,1.459-5.939s2.327-3.049,4.06-3.989
		c1.733-0.939,3.733-1.41,5.999-1.41C231.835,372.155,234.598,373.199,236.524,375.285z M231.405,378.294
		c-0.78-0.813-1.81-1.22-3.09-1.22c-1.2,0-2.209,0.399-3.029,1.199c-0.82,0.801-1.343,1.887-1.57,3.26h8.859
		C232.575,380.188,232.185,379.108,231.405,378.294z"/>
	<path fill="#3F3936" d="M243.414,394.472v-30.396h7.079v30.396H243.414z"/>
	<path fill="#3F3936" d="M272.879,373.545c1.833,0.927,3.246,2.243,4.24,3.949c0.993,1.706,1.49,3.68,1.49,5.919
		c0,2.24-0.497,4.213-1.49,5.919c-0.994,1.707-2.407,3.03-4.24,3.97c-1.833,0.94-3.936,1.41-6.309,1.41
		c-2.399,0-4.506-0.47-6.319-1.41c-1.813-0.939-3.227-2.263-4.24-3.97c-1.013-1.706-1.52-3.679-1.52-5.919
		c0-2.239,0.506-4.213,1.52-5.919s2.426-3.022,4.24-3.949c1.812-0.927,3.919-1.391,6.319-1.391
		C268.943,372.155,271.046,372.619,272.879,373.545z M263.001,379.354c-0.914,1.067-1.37,2.446-1.37,4.14
		c0,1.72,0.457,3.106,1.37,4.159c0.913,1.054,2.103,1.58,3.569,1.58c1.453,0,2.636-0.526,3.55-1.58
		c0.913-1.053,1.37-2.439,1.37-4.159c0-1.693-0.457-3.072-1.37-4.14c-0.914-1.066-2.097-1.6-3.55-1.6
		C265.104,377.754,263.914,378.288,263.001,379.354z"/>
	<path fill="#3F3936" d="M301.726,373.565c1.573,0.94,2.79,2.27,3.649,3.989s1.29,3.713,1.29,5.979c0,2.213-0.423,4.166-1.27,5.859
		c-0.847,1.693-2.037,3.003-3.57,3.93s-3.319,1.39-5.359,1.39c-1.414,0-2.697-0.273-3.85-0.82c-1.153-0.546-2.123-1.333-2.91-2.359
		v10.878h-7.079v-30.016h7.079v2.92c0.787-1.013,1.74-1.793,2.859-2.34c1.12-0.547,2.366-0.82,3.74-0.82
		C298.346,372.155,300.152,372.625,301.726,373.565z M298.156,387.493c0.913-1.079,1.37-2.466,1.37-4.159
		c0-1.692-0.457-3.072-1.37-4.14c-0.913-1.066-2.103-1.6-3.569-1.6c-1.414,0-2.58,0.533-3.5,1.6c-0.92,1.067-1.38,2.447-1.38,4.14
		c0,1.72,0.45,3.113,1.35,4.18s2.077,1.6,3.53,1.6C296.053,389.113,297.243,388.573,298.156,387.493z"/>
	<path fill="#3F3936" d="M328.412,375.285c1.926,2.087,2.89,4.989,2.89,8.709c0,0.6-0.014,1.047-0.04,1.34h-15.518
		c0.36,1.307,0.987,2.316,1.88,3.029c0.893,0.714,2,1.07,3.32,1.07c0.986,0,1.926-0.19,2.819-0.57s1.713-0.942,2.46-1.689
		l3.719,3.659c-1.146,1.253-2.54,2.213-4.179,2.88c-1.64,0.667-3.453,1-5.439,1c-2.373,0-4.439-0.463-6.199-1.39
		s-3.12-2.236-4.08-3.93c-0.959-1.693-1.439-3.66-1.439-5.899s0.486-4.22,1.459-5.939s2.327-3.049,4.06-3.989
		c1.733-0.939,3.733-1.41,5.999-1.41C323.722,372.155,326.485,373.199,328.412,375.285z M323.292,378.294
		c-0.78-0.813-1.81-1.22-3.09-1.22c-1.2,0-2.209,0.399-3.029,1.199c-0.82,0.801-1.343,1.887-1.57,3.26h8.859
		C324.462,380.188,324.072,379.108,323.292,378.294z"/>
	<path fill="#3F3936" d="M345.14,373.155c1.213-0.692,2.613-1.053,4.199-1.079v6.379c-0.213-0.026-0.54-0.04-0.98-0.04
		c-1.747,0-3.173,0.423-4.279,1.27c-1.107,0.847-1.74,1.997-1.9,3.449v11.339h-7.099v-22.077h7.099v3.72
		C342.94,374.834,343.926,373.848,345.14,373.155z"/>
</g>
<g>
	<path fill="#3F3936" d="M1109.054,378.638c2.177,1.862,3.266,4.512,3.266,7.949c0,3.609-1.089,6.413-3.266,8.411
		c-2.178,1.998-5.229,2.997-9.152,2.997h-5.586v8.658h-7.842v-30.809h13.428C1103.826,375.845,1106.876,376.777,1109.054,378.638z
		 M1094.316,391.83h5.199c1.732,0,3.064-0.426,3.996-1.278c0.931-0.852,1.396-2.087,1.396-3.706c0-1.59-0.47-2.793-1.407-3.609
		c-0.938-0.816-2.267-1.225-3.985-1.225h-5.199V391.83z"/>
	<path fill="#3F3936" d="M1126.704,383.751c1.303-0.744,2.807-1.131,4.512-1.16v6.854c-0.229-0.028-0.58-0.043-1.053-0.043
		c-1.877,0-3.409,0.455-4.598,1.364c-1.189,0.91-1.869,2.146-2.041,3.706v12.182h-7.627v-23.719h7.627v3.996
		C1124.34,385.556,1125.4,384.497,1126.704,383.751z"/>
	<path fill="#3F3936" d="M1152.101,384.17c1.969,0.996,3.487,2.41,4.555,4.243c1.066,1.834,1.601,3.953,1.601,6.359
		s-0.534,4.526-1.601,6.359c-1.067,1.834-2.586,3.255-4.555,4.265c-1.97,1.01-4.229,1.515-6.778,1.515
		c-2.578,0-4.842-0.505-6.789-1.515c-1.948-1.01-3.467-2.431-4.555-4.265c-1.089-1.833-1.633-3.953-1.633-6.359
		s0.544-4.525,1.633-6.359c1.088-1.833,2.606-3.247,4.555-4.243c1.947-0.995,4.211-1.493,6.789-1.493
		C1147.872,382.677,1150.131,383.175,1152.101,384.17z M1141.488,390.412c-0.981,1.146-1.472,2.629-1.472,4.447
		c0,1.848,0.49,3.338,1.472,4.469c0.98,1.132,2.259,1.697,3.835,1.697c1.561,0,2.832-0.565,3.813-1.697
		c0.98-1.131,1.472-2.621,1.472-4.469c0-1.818-0.491-3.301-1.472-4.447c-0.981-1.146-2.253-1.719-3.813-1.719
		C1143.747,388.693,1142.468,389.266,1141.488,390.412z"/>
	<path fill="#3F3936" d="M1186.229,406.654h-7.605v-3.115c-1.733,2.292-4.111,3.43-7.133,3.416c-2.206,0-4.144-0.512-5.812-1.536
		c-1.669-1.023-2.965-2.46-3.889-4.308s-1.386-3.988-1.386-6.424c0-2.406,0.454-4.519,1.364-6.338
		c0.909-1.818,2.188-3.226,3.835-4.222c1.646-0.995,3.552-1.493,5.715-1.493c1.561,0,2.957,0.294,4.189,0.881
		c1.231,0.588,2.27,1.439,3.115,2.557v-12.074h7.605V406.654z M1177.173,399.349c0.967-1.146,1.45-2.643,1.45-4.49
		c0-1.818-0.483-3.301-1.45-4.447c-0.967-1.146-2.245-1.719-3.835-1.719s-2.865,0.566-3.824,1.697
		c-0.96,1.132-1.454,2.621-1.482,4.469c0.028,1.848,0.526,3.345,1.493,4.49c0.967,1.146,2.237,1.719,3.813,1.719
		C1174.928,401.068,1176.207,400.496,1177.173,399.349z"/>
	<path fill="#3F3936" d="M1215.619,406.654h-7.627v-3.91c-1.619,2.822-4.183,4.225-7.691,4.211c-2.578,0-4.638-0.819-6.177-2.46
		c-1.54-1.64-2.31-3.842-2.31-6.606v-14.953h7.605v12.805c0,1.404,0.357,2.511,1.074,3.319c0.716,0.81,1.676,1.214,2.879,1.214
		c1.432-0.028,2.56-0.562,3.384-1.601c0.823-1.038,1.235-2.381,1.235-4.028v-11.709h7.627V406.654z"/>
	<path fill="#3F3936" d="M1238.263,384.063c1.833,0.924,3.266,2.238,4.297,3.942l-5.457,3.287c-1.175-1.646-2.771-2.463-4.791-2.449
		c-1.461,0-2.653,0.548-3.577,1.644s-1.386,2.539-1.386,4.329c0,1.819,0.451,3.28,1.354,4.383c0.902,1.104,2.105,1.654,3.609,1.654
		c2.234,0,3.846-0.895,4.834-2.686l5.543,3.244c-0.975,1.762-2.389,3.119-4.243,4.071c-1.855,0.953-4.036,1.429-6.542,1.429
		c-2.406,0-4.53-0.505-6.37-1.515c-1.841-1.01-3.276-2.424-4.308-4.243c-1.031-1.818-1.547-3.917-1.547-6.295
		c0-2.406,0.516-4.533,1.547-6.381s2.478-3.276,4.34-4.286c1.861-1.01,4.01-1.515,6.445-1.515
		C1234.345,382.677,1236.429,383.139,1238.263,384.063z"/>
	<path fill="#3F3936" d="M1259.09,406.557c-1.117,0.293-2.249,0.44-3.395,0.44c-2.35,0-4.247-0.651-5.693-1.955
		c-1.447-1.303-2.17-3.158-2.17-5.564v-10.463h-3.309v-4.984h3.309v-6.596h7.562v6.553h6.209v5.027h-6.209v9.281
		c0,1.733,0.701,2.6,2.105,2.6c0.816,0,1.826-0.265,3.029-0.795l1.504,5.285C1261.188,405.874,1260.208,406.264,1259.09,406.557z"/>
</g>
<g>
	<defs>
		<rect id="SVGID_1_" x="-242.11" y="-221.493" width="1919.99" height="1021"/>
	</defs>
	<clipPath id="SVGID_2_">
		<use xlink:href="#SVGID_1_"  overflow="visible"/>
	</clipPath>
	<path clip-path="url(#SVGID_2_)" fill="#3F3936" d="M1255.322,181.344h-153.489c-1.206,0-2.192,0.987-2.192,2.192V303.04
		c0,1.206,0.986,2.192,2.192,2.192h153.489c1.206,0,2.191-0.986,2.191-2.192V183.536
		C1257.513,182.332,1256.528,181.344,1255.322,181.344"/>
	<rect x="1162.132" y="301.942" clip-path="url(#SVGID_2_)" fill="#3F3936" width="38.372" height="18.639"/>
	<rect x="1150.071" y="320.581" clip-path="url(#SVGID_2_)" fill="#3F3936" width="61.396" height="4.386"/>
	<rect x="1109.507" y="192.308" clip-path="url(#SVGID_2_)" fill="#00FFFF" width="138.14" height="101.96"/>
	<rect x="1117.181" y="197.79" clip-path="url(#SVGID_2_)" fill="#3F3936" width="55.914" height="20.831"/>
	<rect x="1117.181" y="224.101" clip-path="url(#SVGID_2_)" fill="#3F3936" width="55.914" height="4.386"/>
	<rect x="1117.181" y="233.968" clip-path="url(#SVGID_2_)" fill="#3F3936" width="55.914" height="4.386"/>
	<rect x="1117.181" y="243.835" clip-path="url(#SVGID_2_)" fill="#3F3936" width="55.914" height="4.386"/>
	<rect x="1117.181" y="253.703" clip-path="url(#SVGID_2_)" fill="#3F3936" width="55.914" height="4.386"/>
	<rect x="1117.181" y="263.57" clip-path="url(#SVGID_2_)" fill="#3F3936" width="55.914" height="4.386"/>
	<rect x="1117.181" y="273.438" clip-path="url(#SVGID_2_)" fill="#3F3936" width="55.914" height="4.386"/>
	<rect x="1117.181" y="283.305" clip-path="url(#SVGID_2_)" fill="#3F3936" width="55.914" height="4.385"/>
	<rect x="1182.962" y="266.859" clip-path="url(#SVGID_2_)" fill="#3F3936" width="55.914" height="20.831"/>
	<rect x="1182.962" y="256.992" clip-path="url(#SVGID_2_)" fill="#3F3936" width="55.914" height="4.386"/>
	<rect x="1182.962" y="247.125" clip-path="url(#SVGID_2_)" fill="#3F3936" width="55.914" height="4.386"/>
	<rect x="1182.962" y="237.257" clip-path="url(#SVGID_2_)" fill="#3F3936" width="55.914" height="4.386"/>
	<rect x="1182.962" y="227.39" clip-path="url(#SVGID_2_)" fill="#3F3936" width="55.914" height="4.386"/>
	<rect x="1182.962" y="217.524" clip-path="url(#SVGID_2_)" fill="#3F3936" width="55.914" height="4.385"/>
	<rect x="1182.962" y="207.656" clip-path="url(#SVGID_2_)" fill="#3F3936" width="55.914" height="4.385"/>
	<path clip-path="url(#SVGID_2_)" fill="#3F3936" d="M274.182,272.286c-7.842,5.147-17.218,8.15-27.3,8.15
		c-10.081,0-19.456-3.003-27.299-8.15c-20.887,7.121-35.289,22.154-35.289,39.552h125.177
		C309.471,294.44,295.069,279.407,274.182,272.286"/>
	<path clip-path="url(#SVGID_2_)" fill="#3F3936" d="M284.168,230.607c0-20.593-16.694-37.287-37.287-37.287
		c-20.592,0-37.286,16.694-37.286,37.287s16.694,37.287,37.286,37.287C267.475,267.894,284.168,251.2,284.168,230.607"/>
</g>
<g>
	<path fill="#3F3936" d="M296.528,172.083l-18.37,6.869l18.37,6.869v5.538l-24.546-9.531v-5.75l24.546-9.531V172.083z"/>
	<path fill="#3F3936" d="M315.91,152.755h5.963l-17.571,50.158h-5.963L315.91,152.755z"/>
	<path fill="#3F3936" d="M347.696,176.077v5.75l-24.546,9.531v-5.538l18.37-6.869l-18.37-6.869v-5.538L347.696,176.077z"/>
</g>
<g>
	<defs>
		<rect id="SVGID_3_" x="526.858" y="92.509" width="342.609" height="339.564"/>
	</defs>
	<clipPath id="SVGID_4_">
		<use xlink:href="#SVGID_3_"  overflow="visible"/>
	</clipPath>
	<polygon clip-path="url(#SVGID_4_)" fill="#00FFFF" points="531.012,15.988 696.315,267.386 531.012,536.003 365.037,536.003 
		530.34,267.386 365.037,15.988 	"/>
	<polygon clip-path="url(#SVGID_4_)" fill="#45FFD3" points="687.851,15.988 853.154,267.386 687.851,536.003 521.875,536.003 
		687.179,267.386 521.875,15.988 	"/>
</g>
<rect x="-242.11" y="-221.493" fill="none" width="1919.99" height="1021"/>
<g>
	<path fill="#3F3936" d="M681.009,210.977v6.099h-19.458V188.4h7.299v22.577H681.009z"/>
	<path fill="#3F3936" d="M702.273,197.889c1.926,2.087,2.89,4.989,2.89,8.709c0,0.6-0.014,1.047-0.04,1.34h-15.518
		c0.36,1.307,0.987,2.316,1.88,3.029c0.893,0.713,2,1.07,3.32,1.07c0.986,0,1.926-0.19,2.819-0.57s1.713-0.943,2.46-1.689
		l3.719,3.659c-1.146,1.253-2.54,2.213-4.179,2.88c-1.64,0.667-3.453,1-5.439,1c-2.373,0-4.439-0.463-6.199-1.39
		c-1.76-0.926-3.12-2.236-4.08-3.929c-0.959-1.693-1.439-3.66-1.439-5.899s0.486-4.219,1.459-5.939c0.973-1.72,2.327-3.05,4.06-3.99
		s3.733-1.41,5.999-1.41C697.583,194.759,700.346,195.803,702.273,197.889z M697.154,200.898c-0.78-0.813-1.81-1.22-3.09-1.22
		c-1.2,0-2.209,0.4-3.029,1.2s-1.343,1.887-1.57,3.26h8.859C698.324,202.792,697.934,201.712,697.154,200.898z"/>
	<path fill="#3F3936" d="M725.346,196.789c1.681,1.407,2.533,3.363,2.561,5.869v14.418h-6.92v-2.54
		c-0.706,0.933-1.633,1.643-2.779,2.129c-1.146,0.487-2.473,0.73-3.979,0.73c-2.32,0-4.163-0.64-5.529-1.919s-2.05-2.946-2.05-5
		c0-2.106,0.73-3.739,2.19-4.899c1.46-1.16,3.556-1.753,6.289-1.78h5.819v-0.32c0-1.093-0.359-1.946-1.079-2.56
		c-0.721-0.613-1.794-0.92-3.22-0.92c-0.934,0-1.98,0.157-3.14,0.47c-1.16,0.313-2.313,0.77-3.459,1.37l-2-4.66
		c1.8-0.84,3.513-1.466,5.14-1.879c1.626-0.413,3.326-0.62,5.099-0.62C721.314,194.679,723.667,195.383,725.346,196.789z
		 M719.358,211.777c0.846-0.56,1.376-1.293,1.589-2.2v-1.959h-4.459c-1.067,0-1.867,0.19-2.399,0.57c-0.534,0.38-0.8,0.983-0.8,1.81
		c0,0.813,0.273,1.453,0.82,1.92c0.547,0.467,1.313,0.7,2.3,0.7C717.528,212.617,718.511,212.337,719.358,211.777z"/>
	<path fill="#3F3936" d="M753.252,196.989c1.474,1.54,2.21,3.597,2.21,6.169v13.918h-7.059v-11.958c0-1.28-0.348-2.296-1.04-3.049
		c-0.693-0.753-1.64-1.13-2.84-1.13c-1.253,0-2.283,0.41-3.09,1.229c-0.807,0.82-1.276,1.897-1.409,3.23v11.678h-7.1v-22.077h7.1
		v3.6c1.56-2.573,4.013-3.879,7.358-3.919C749.824,194.679,751.78,195.449,753.252,196.989z"/>
	<path fill="#3F3936" d="M765.061,211.507c0.64,0.607,0.959,1.423,0.959,2.45c0,0.88-0.3,1.787-0.899,2.72l-3,4.339h-3.359
		l1.84-4.399c-0.906-0.6-1.354-1.486-1.34-2.66c0-0.986,0.32-1.793,0.96-2.419s1.453-0.94,2.439-0.94
		C763.621,210.597,764.42,210.9,765.061,211.507z"/>
</g>
<g>
	<path fill="#3F3936" d="M668.784,247.895c1.433,1.54,2.149,3.597,2.149,6.169v13.918h-7.039v-11.958c0-1.306-0.34-2.336-1.02-3.089
		c-0.68-0.753-1.613-1.13-2.8-1.13c-1.307,0.027-2.35,0.523-3.129,1.49c-0.78,0.967-1.17,2.217-1.17,3.75v10.938h-7.079v-11.958
		c0-1.306-0.333-2.336-1-3.089c-0.667-0.753-1.586-1.13-2.76-1.13c-1.333,0.027-2.396,0.533-3.189,1.52
		c-0.793,0.987-1.19,2.227-1.19,3.72v10.938h-7.059v-22.077h7.059v3.64c0.733-1.306,1.72-2.286,2.96-2.939s2.68-0.993,4.319-1.02
		c1.773,0,3.31,0.443,4.609,1.33s2.223,2.109,2.77,3.669c0.707-1.64,1.723-2.876,3.05-3.709c1.326-0.833,2.902-1.263,4.729-1.29
		C665.421,245.585,667.351,246.355,668.784,247.895z"/>
	<path fill="#3F3936" d="M692.746,247.055c1.833,0.927,3.246,2.243,4.24,3.95c0.993,1.707,1.49,3.679,1.49,5.919
		s-0.497,4.213-1.49,5.919c-0.994,1.707-2.407,3.029-4.24,3.969s-3.936,1.41-6.309,1.41c-2.399,0-4.506-0.47-6.319-1.41
		c-1.813-0.94-3.227-2.263-4.24-3.969s-1.52-3.68-1.52-5.919s0.506-4.212,1.52-5.919s2.426-3.023,4.24-3.95
		c1.812-0.926,3.919-1.39,6.319-1.39C688.81,245.666,690.913,246.129,692.746,247.055z M682.868,252.864
		c-0.914,1.067-1.37,2.447-1.37,4.14c0,1.72,0.457,3.106,1.37,4.16c0.913,1.053,2.103,1.58,3.569,1.58
		c1.453,0,2.636-0.526,3.55-1.58c0.913-1.053,1.37-2.44,1.37-4.16c0-1.693-0.457-3.073-1.37-4.14c-0.914-1.066-2.097-1.6-3.55-1.6
		C684.97,251.265,683.781,251.798,682.868,252.864z"/>
	<path fill="#3F3936" d="M724.512,267.982h-7.079v-2.899c-1.613,2.133-3.826,3.192-6.639,3.179c-2.053,0-3.856-0.477-5.409-1.43
		c-1.553-0.953-2.76-2.29-3.62-4.009s-1.29-3.713-1.29-5.979c0-2.239,0.423-4.206,1.27-5.899c0.847-1.693,2.037-3.003,3.57-3.93
		c1.533-0.926,3.306-1.39,5.319-1.39c1.453,0,2.752,0.273,3.899,0.82c1.146,0.547,2.113,1.34,2.899,2.38v-11.239h7.079V267.982z
		 M716.083,261.184c0.9-1.067,1.35-2.46,1.35-4.18c0-1.693-0.45-3.073-1.35-4.14c-0.9-1.066-2.09-1.6-3.57-1.6
		c-1.479,0-2.667,0.527-3.56,1.58s-1.353,2.439-1.38,4.159c0.027,1.72,0.49,3.113,1.39,4.18c0.9,1.066,2.083,1.6,3.549,1.6
		C713.994,262.783,715.184,262.25,716.083,261.184z"/>
	<path fill="#3F3936" d="M751.869,267.982h-7.1v-3.64c-1.506,2.626-3.893,3.933-7.158,3.919c-2.4,0-4.316-0.763-5.75-2.29
		c-1.433-1.526-2.149-3.576-2.149-6.149v-13.918h7.079v11.918c0,1.307,0.333,2.336,1,3.09c0.666,0.753,1.56,1.13,2.68,1.13
		c1.333-0.027,2.383-0.523,3.149-1.49c0.767-0.966,1.149-2.216,1.149-3.75v-10.898h7.1V267.982z"/>
	<path fill="#3F3936" d="M757.708,267.982v-30.396h7.078v30.396H757.708z"/>
	<path fill="#3F3936" d="M787.603,247.695c1.681,1.407,2.533,3.363,2.561,5.869v14.418h-6.92v-2.54
		c-0.706,0.933-1.633,1.643-2.779,2.129c-1.146,0.487-2.473,0.73-3.979,0.73c-2.319,0-4.163-0.64-5.529-1.919s-2.05-2.946-2.05-5
		c0-2.106,0.73-3.739,2.189-4.899c1.46-1.16,3.557-1.753,6.29-1.78h5.818v-0.32c0-1.093-0.359-1.946-1.079-2.56
		c-0.721-0.613-1.794-0.92-3.22-0.92c-0.934,0-1.979,0.157-3.14,0.47c-1.16,0.313-2.313,0.77-3.46,1.37l-1.999-4.66
		c1.8-0.84,3.513-1.466,5.139-1.879c1.627-0.413,3.326-0.62,5.1-0.62C783.571,245.585,785.923,246.289,787.603,247.695z
		 M781.615,262.683c0.846-0.56,1.376-1.293,1.589-2.2v-1.959h-4.459c-1.066,0-1.866,0.19-2.399,0.57s-0.8,0.983-0.8,1.81
		c0,0.813,0.272,1.453,0.819,1.92s1.313,0.7,2.3,0.7C779.785,263.523,780.767,263.243,781.615,262.683z"/>
	<path fill="#3F3936" d="M805.241,246.666c1.213-0.693,2.613-1.053,4.2-1.08v6.379c-0.214-0.027-0.54-0.04-0.98-0.04
		c-1.746,0-3.173,0.423-4.279,1.27c-1.106,0.847-1.739,1.997-1.899,3.45v11.338h-7.1v-22.077h7.1v3.72
		C803.042,248.345,804.028,247.359,805.241,246.666z"/>
</g>
<g>
	<path fill="#3F3936" d="M579.955,287.783c0.7,0.7,1.05,1.597,1.05,2.69c0,1.093-0.35,1.993-1.05,2.699
		c-0.7,0.707-1.597,1.061-2.69,1.061s-1.986-0.354-2.679-1.061c-0.693-0.706-1.04-1.606-1.04-2.699c0-1.093,0.347-1.99,1.04-2.69
		c0.693-0.7,1.586-1.05,2.679-1.05S579.254,287.083,579.955,287.783z M573.706,318.889v-22.077h7.059v22.077H573.706z"/>
	<path fill="#3F3936" d="M606.751,298.802c1.473,1.539,2.209,3.596,2.209,6.169v13.918h-7.059v-11.958c0-1.28-0.347-2.297-1.04-3.05
		c-0.693-0.753-1.64-1.13-2.84-1.13c-1.253,0-2.283,0.41-3.089,1.229c-0.807,0.82-1.277,1.896-1.41,3.229v11.679h-7.099v-22.077
		h7.099v3.6c1.56-2.572,4.013-3.88,7.359-3.919C603.321,296.493,605.278,297.262,606.751,298.802z"/>
	<path fill="#3F3936" d="M622.979,294.422c-0.453,0.42-0.68,1.01-0.68,1.77v1.601h4.999v4.679h-4.999v16.418H615.3v-16.418h-3
		v-4.679h3v-2.04c0-2.373,0.79-4.229,2.37-5.569c1.58-1.34,3.603-2.01,6.069-2.01c1.093,0,2.183,0.137,3.27,0.41
		s2.057,0.657,2.91,1.149l-2.5,4.96c-0.387-0.307-0.817-0.533-1.29-0.681c-0.473-0.146-0.93-0.22-1.37-0.22
		C624.025,293.792,623.432,294.002,622.979,294.422z"/>
	<path fill="#3F3936" d="M643.113,297.572c1.213-0.692,2.613-1.053,4.199-1.079v6.379c-0.213-0.026-0.54-0.04-0.98-0.04
		c-1.747,0-3.173,0.423-4.279,1.27c-1.107,0.847-1.74,1.997-1.9,3.449v11.339h-7.099v-22.077h7.099v3.72
		C640.913,299.251,641.899,298.265,643.113,297.572z"/>
	<path fill="#3F3936" d="M667.223,298.602c1.68,1.406,2.533,3.363,2.56,5.869v14.418h-6.919v-2.54
		c-0.707,0.934-1.633,1.644-2.78,2.13s-2.473,0.73-3.979,0.73c-2.32,0-4.163-0.641-5.529-1.92c-1.367-1.28-2.05-2.946-2.05-4.999
		c0-2.106,0.73-3.74,2.19-4.899c1.46-1.16,3.556-1.753,6.289-1.78h5.819v-0.319c0-1.094-0.36-1.947-1.08-2.561
		c-0.72-0.612-1.793-0.92-3.219-0.92c-0.934,0-1.98,0.157-3.14,0.471c-1.16,0.313-2.313,0.77-3.459,1.369l-2-4.659
		c1.8-0.84,3.513-1.466,5.14-1.88c1.626-0.413,3.326-0.619,5.099-0.619C663.19,296.493,665.543,297.196,667.223,298.602z
		 M661.233,313.59c0.847-0.561,1.376-1.293,1.59-2.2v-1.96h-4.459c-1.067,0-1.867,0.19-2.399,0.57c-0.534,0.38-0.8,0.983-0.8,1.81
		c0,0.813,0.273,1.453,0.82,1.92c0.547,0.467,1.313,0.7,2.3,0.7C659.404,314.43,660.387,314.15,661.233,313.59z"/>
	<path fill="#3F3936" d="M687.42,297.142c1.56,0.434,3.02,1.05,4.379,1.85l-2.42,4.579c-2.733-1.479-5.053-2.22-6.959-2.22
		c-0.653,0-1.177,0.131-1.57,0.391s-0.59,0.637-0.59,1.13c0,0.52,0.3,0.937,0.9,1.25s1.58,0.663,2.939,1.05
		c1.56,0.439,2.86,0.883,3.899,1.329c1.04,0.447,1.94,1.127,2.7,2.04c0.76,0.913,1.14,2.097,1.14,3.55
		c0,2.213-0.86,3.946-2.58,5.199s-3.959,1.88-6.719,1.88c-1.853,0-3.64-0.268-5.359-0.8c-1.72-0.533-3.233-1.3-4.54-2.3l2.24-4.52
		c1.227,0.88,2.53,1.56,3.91,2.04c1.38,0.479,2.689,0.72,3.93,0.72c0.733,0,1.316-0.13,1.75-0.391c0.433-0.26,0.65-0.636,0.65-1.13
		c0-0.572-0.313-1.022-0.94-1.35c-0.626-0.326-1.606-0.683-2.939-1.069c-1.533-0.44-2.803-0.883-3.81-1.33
		c-1.007-0.446-1.873-1.113-2.6-2c-0.727-0.886-1.09-2.056-1.09-3.509c0-2.213,0.833-3.939,2.5-5.18s3.826-1.859,6.479-1.859
		C684.293,296.493,685.86,296.709,687.42,297.142z"/>
	<path fill="#3F3936" d="M707.317,318.799c-1.04,0.272-2.093,0.41-3.159,0.41c-2.187,0-3.953-0.606-5.299-1.82
		c-1.347-1.213-2.02-2.939-2.02-5.179v-9.739h-3.08v-4.639h3.08v-6.14h7.039v6.1h5.779v4.679h-5.779v8.639
		c0,1.613,0.653,2.42,1.96,2.42c0.76,0,1.7-0.246,2.819-0.74l1.4,4.92C709.27,318.163,708.357,318.526,707.317,318.799z"/>
	<path fill="#3F3936" d="M723.655,297.572c1.213-0.692,2.613-1.053,4.2-1.079v6.379c-0.214-0.026-0.54-0.04-0.98-0.04
		c-1.746,0-3.173,0.423-4.279,1.27s-1.739,1.997-1.899,3.449v11.339h-7.099v-22.077h7.099v3.72
		C721.456,299.251,722.442,298.265,723.655,297.572z"/>
	<path fill="#3F3936" d="M752.591,318.889h-7.1v-3.64c-1.506,2.627-3.893,3.933-7.158,3.92c-2.4,0-4.316-0.764-5.75-2.29
		c-1.433-1.526-2.149-3.576-2.149-6.149v-13.918h7.079v11.919c0,1.307,0.333,2.336,1,3.089c0.666,0.754,1.56,1.13,2.68,1.13
		c1.333-0.026,2.383-0.522,3.149-1.489s1.149-2.217,1.149-3.75v-10.898h7.1V318.889z"/>
	<path fill="#3F3936" d="M773.667,297.862c1.706,0.86,3.04,2.083,4,3.67l-5.08,3.06c-1.093-1.533-2.579-2.293-4.459-2.28
		c-1.359,0-2.47,0.511-3.329,1.53c-0.86,1.02-1.29,2.363-1.29,4.029c0,1.693,0.42,3.053,1.26,4.079c0.84,1.027,1.96,1.54,3.359,1.54
		c2.08,0,3.579-0.833,4.499-2.499l5.159,3.02c-0.906,1.64-2.223,2.902-3.949,3.789s-3.756,1.33-6.089,1.33
		c-2.24,0-4.217-0.47-5.93-1.41c-1.713-0.939-3.049-2.256-4.009-3.949s-1.44-3.646-1.44-5.859c0-2.239,0.48-4.22,1.44-5.939
		s2.306-3.049,4.039-3.989c1.733-0.939,3.732-1.41,5.999-1.41C770.021,296.572,771.961,297.002,773.667,297.862z"/>
	<path fill="#3F3936" d="M793.012,318.799c-1.04,0.272-2.093,0.41-3.159,0.41c-2.187,0-3.953-0.606-5.3-1.82
		c-1.347-1.213-2.02-2.939-2.02-5.179v-9.739h-3.079v-4.639h3.079v-6.14h7.039v6.1h5.779v4.679h-5.779v8.639
		c0,1.613,0.653,2.42,1.96,2.42c0.76,0,1.699-0.246,2.819-0.74l1.4,4.92C794.965,318.163,794.052,318.526,793.012,318.799z"/>
	<path fill="#3F3936" d="M820.808,318.889h-7.1v-3.64c-1.506,2.627-3.893,3.933-7.158,3.92c-2.4,0-4.316-0.764-5.75-2.29
		c-1.433-1.526-2.149-3.576-2.149-6.149v-13.918h7.079v11.919c0,1.307,0.333,2.336,1,3.089c0.666,0.754,1.56,1.13,2.68,1.13
		c1.333-0.026,2.383-0.522,3.149-1.489s1.149-2.217,1.149-3.75v-10.898h7.1V318.889z"/>
	<path fill="#3F3936" d="M836.486,297.572c1.213-0.692,2.613-1.053,4.2-1.079v6.379c-0.214-0.026-0.54-0.04-0.98-0.04
		c-1.746,0-3.173,0.423-4.279,1.27s-1.739,1.997-1.899,3.449v11.339h-7.1v-22.077h7.1v3.72
		C834.287,299.251,835.273,298.265,836.486,297.572z"/>
	<path fill="#3F3936" d="M861.545,299.702c1.927,2.087,2.89,4.989,2.89,8.709c0,0.6-0.014,1.047-0.04,1.34h-15.518
		c0.359,1.307,0.986,2.316,1.88,3.029c0.893,0.714,1.999,1.07,3.319,1.07c0.986,0,1.926-0.19,2.819-0.57s1.713-0.942,2.46-1.689
		l3.72,3.659c-1.147,1.253-2.54,2.213-4.18,2.88s-3.453,1-5.439,1c-2.373,0-4.439-0.463-6.199-1.39s-3.119-2.236-4.079-3.93
		s-1.44-3.66-1.44-5.899s0.487-4.22,1.46-5.939c0.974-1.72,2.326-3.049,4.06-3.989c1.733-0.939,3.732-1.41,5.999-1.41
		C856.856,296.572,859.619,297.616,861.545,299.702z M856.426,302.711c-0.78-0.813-1.81-1.22-3.09-1.22
		c-1.199,0-2.21,0.399-3.029,1.199c-0.82,0.801-1.344,1.887-1.57,3.26h8.859C857.596,304.605,857.206,303.525,856.426,302.711z"/>
</g>
<line fill="none" stroke="#3F3936" stroke-width="4.568" stroke-miterlimit="10" x1="526.902" y1="59.293" x2="526.902" y2="472.77"/>
<line fill="none" stroke="#3F3936" stroke-width="4.568" stroke-miterlimit="10" x1="918.111" y1="59.294" x2="918.111" y2="472.771"/>
</svg>
