<?xml version="1.0" encoding="utf-8"?>
<!-- Generator: Adobe Illustrator 15.0.0, SVG Export Plug-In . SVG Version: 6.00 Build 0)  -->
<!DOCTYPE svg PUBLIC "-//W3C//DTD SVG 1.1//EN" "http://www.w3.org/Graphics/SVG/1.1/DTD/svg11.dtd">
<svg version="1.1" id="Layer_1" xmlns="http://www.w3.org/2000/svg" xmlns:xlink="http://www.w3.org/1999/xlink" x="0px" y="0px"
	 width="1281.051px" height="343px" viewBox="0 0 1281.051 343" enable-background="new 0 0 1281.051 343" xml:space="preserve">
<polygon fill="#00FFFF" points="319.379,343 -0.621,343 -0.621,180.295 -0.621,0 319.379,0 "/>
<g>
	<path fill="#3F3936" d="M55.593,110.404c1.599,1.367,2.398,3.312,2.398,5.836c0,2.65-0.799,4.708-2.398,6.175
		c-1.598,1.467-3.838,2.2-6.719,2.2h-4.101v6.357h-5.757v-22.62h9.858C51.755,108.353,53.995,109.037,55.593,110.404z
		 M44.773,120.089h3.817c1.272,0,2.25-0.313,2.934-0.938s1.025-1.533,1.025-2.721c0-1.167-0.345-2.05-1.033-2.65
		c-0.689-0.599-1.664-0.899-2.926-0.899h-3.817V120.089z"/>
	<path fill="#3F3936" d="M68.584,114.158c0.957-0.547,2.061-0.831,3.312-0.852v5.032c-0.168-0.021-0.426-0.031-0.773-0.031
		c-1.378,0-2.503,0.334-3.375,1.001c-0.873,0.668-1.373,1.575-1.499,2.721v8.944h-5.6v-17.414h5.6v2.934
		C66.849,115.483,67.627,114.705,68.584,114.158z"/>
	<path fill="#3F3936" d="M87.198,114.465c1.446,0.731,2.561,1.77,3.344,3.116s1.175,2.902,1.175,4.669s-0.392,3.323-1.175,4.669
		s-1.898,2.39-3.344,3.131c-1.446,0.741-3.105,1.112-4.977,1.112c-1.893,0-3.555-0.371-4.984-1.112
		c-1.431-0.741-2.545-1.785-3.344-3.131c-0.799-1.346-1.199-2.902-1.199-4.669s0.399-3.323,1.199-4.669
		c0.799-1.346,1.914-2.384,3.344-3.116c1.43-0.73,3.091-1.096,4.984-1.096C84.093,113.369,85.752,113.735,87.198,114.465z
		 M79.406,119.048c-0.72,0.841-1.08,1.93-1.08,3.265c0,1.356,0.36,2.45,1.08,3.281c0.72,0.831,1.659,1.246,2.816,1.246
		c1.146,0,2.079-0.415,2.8-1.246c0.72-0.831,1.081-1.924,1.081-3.281c0-1.335-0.36-2.424-1.081-3.265
		c-0.721-0.841-1.654-1.262-2.8-1.262C81.064,117.786,80.126,118.207,79.406,119.048z"/>
	<path fill="#3F3936" d="M107.767,114.465c1.446,0.731,2.561,1.77,3.344,3.116s1.175,2.902,1.175,4.669s-0.392,3.323-1.175,4.669
		s-1.898,2.39-3.344,3.131c-1.446,0.741-3.105,1.112-4.977,1.112c-1.893,0-3.555-0.371-4.984-1.112
		c-1.431-0.741-2.545-1.785-3.344-3.131c-0.799-1.346-1.199-2.902-1.199-4.669s0.399-3.323,1.199-4.669
		c0.799-1.346,1.914-2.384,3.344-3.116c1.43-0.73,3.091-1.096,4.984-1.096C104.662,113.369,106.321,113.735,107.767,114.465z
		 M99.975,119.048c-0.72,0.841-1.08,1.93-1.08,3.265c0,1.356,0.36,2.45,1.08,3.281c0.72,0.831,1.659,1.246,2.816,1.246
		c1.146,0,2.079-0.415,2.8-1.246c0.72-0.831,1.081-1.924,1.081-3.281c0-1.335-0.36-2.424-1.081-3.265
		c-0.721-0.841-1.654-1.262-2.8-1.262C101.633,117.786,100.695,118.207,99.975,119.048z"/>
	<path fill="#3F3936" d="M122.381,111.674c-0.357,0.331-0.536,0.796-0.536,1.396v1.262h3.943v3.691h-3.943v12.95h-5.521v-12.95
		h-2.366v-3.691h2.366v-1.609c0-1.872,0.623-3.336,1.869-4.393s2.842-1.585,4.787-1.585c0.862,0,1.722,0.108,2.579,0.324
		s1.622,0.518,2.295,0.907l-1.972,3.912c-0.305-0.242-0.644-0.42-1.017-0.537c-0.374-0.115-0.733-0.173-1.081-0.173
		C123.207,111.177,122.739,111.342,122.381,111.674z"/>
	<path fill="#3F3936" d="M148.29,114.465c1.446,0.731,2.561,1.77,3.344,3.116s1.175,2.902,1.175,4.669s-0.392,3.323-1.175,4.669
		s-1.898,2.39-3.344,3.131c-1.446,0.741-3.105,1.112-4.977,1.112c-1.893,0-3.555-0.371-4.984-1.112
		c-1.431-0.741-2.545-1.785-3.344-3.131c-0.799-1.346-1.199-2.902-1.199-4.669s0.399-3.323,1.199-4.669
		c0.799-1.346,1.914-2.384,3.344-3.116c1.43-0.73,3.091-1.096,4.984-1.096C145.185,113.369,146.843,113.735,148.29,114.465z
		 M140.497,119.048c-0.72,0.841-1.08,1.93-1.08,3.265c0,1.356,0.36,2.45,1.08,3.281c0.72,0.831,1.659,1.246,2.816,1.246
		c1.146,0,2.079-0.415,2.8-1.246c0.72-0.831,1.081-1.924,1.081-3.281c0-1.335-0.36-2.424-1.081-3.265
		c-0.721-0.841-1.654-1.262-2.8-1.262C142.156,117.786,141.217,118.207,140.497,119.048z"/>
	<path fill="#3F3936" d="M162.904,111.674c-0.357,0.331-0.536,0.796-0.536,1.396v1.262h3.943v3.691h-3.943v12.95h-5.521v-12.95
		h-2.366v-3.691h2.366v-1.609c0-1.872,0.623-3.336,1.869-4.393s2.842-1.585,4.787-1.585c0.862,0,1.722,0.108,2.579,0.324
		s1.622,0.518,2.295,0.907l-1.972,3.912c-0.305-0.242-0.644-0.42-1.017-0.537c-0.374-0.115-0.733-0.173-1.081-0.173
		C163.729,111.177,163.261,111.342,162.904,111.674z"/>
</g>
<g>
	<path fill="#3F3936" d="M51.177,154.347c1.346,0.678,2.397,1.643,3.155,2.895l-4.006,2.413c-0.862-1.209-2.035-1.809-3.518-1.798
		c-1.073,0-1.948,0.402-2.626,1.207c-0.678,0.804-1.017,1.864-1.017,3.178c0,1.336,0.331,2.408,0.994,3.218
		c0.663,0.81,1.546,1.215,2.65,1.215c1.641,0,2.823-0.657,3.549-1.972l4.07,2.382c-0.715,1.293-1.753,2.29-3.115,2.989
		c-1.362,0.7-2.963,1.049-4.803,1.049c-1.767,0-3.326-0.371-4.677-1.112c-1.352-0.741-2.406-1.78-3.163-3.115
		c-0.757-1.335-1.136-2.876-1.136-4.622c0-1.767,0.378-3.328,1.136-4.685c0.757-1.356,1.819-2.405,3.186-3.146
		c1.367-0.742,2.944-1.112,4.732-1.112C48.301,153.33,49.831,153.669,51.177,154.347z"/>
	<path fill="#3F3936" d="M69.982,154.426c1.446,0.731,2.561,1.77,3.344,3.116s1.175,2.902,1.175,4.669s-0.392,3.323-1.175,4.669
		s-1.898,2.39-3.344,3.131c-1.446,0.741-3.105,1.112-4.977,1.112c-1.893,0-3.555-0.371-4.984-1.112
		c-1.431-0.741-2.545-1.785-3.344-3.131c-0.799-1.346-1.199-2.902-1.199-4.669s0.399-3.323,1.199-4.669
		c0.799-1.346,1.914-2.384,3.344-3.116c1.43-0.73,3.091-1.096,4.984-1.096C66.877,153.33,68.536,153.695,69.982,154.426z
		 M62.19,159.008c-0.72,0.841-1.08,1.93-1.08,3.265c0,1.356,0.36,2.45,1.08,3.281c0.72,0.831,1.659,1.246,2.816,1.246
		c1.146,0,2.079-0.415,2.8-1.246c0.72-0.831,1.081-1.924,1.081-3.281c0-1.335-0.36-2.424-1.081-3.265
		c-0.721-0.841-1.654-1.262-2.8-1.262C63.849,157.747,62.91,158.167,62.19,159.008z"/>
	<path fill="#3F3936" d="M93.532,155.088c1.162,1.215,1.743,2.837,1.743,4.866v10.979h-5.568V161.5c0-1.01-0.274-1.811-0.82-2.405
		c-0.547-0.594-1.293-0.892-2.24-0.892c-0.988,0-1.801,0.324-2.437,0.97c-0.636,0.647-1.007,1.496-1.112,2.547v9.212h-5.6v-17.414
		h5.6v2.839c1.23-2.029,3.165-3.06,5.805-3.092C90.827,153.267,92.37,153.874,93.532,155.088z"/>
	<path fill="#3F3936" d="M111.589,154.347c1.346,0.678,2.397,1.643,3.155,2.895l-4.006,2.413c-0.862-1.209-2.035-1.809-3.518-1.798
		c-1.073,0-1.948,0.402-2.626,1.207c-0.678,0.804-1.017,1.864-1.017,3.178c0,1.336,0.331,2.408,0.994,3.218
		c0.663,0.81,1.546,1.215,2.65,1.215c1.641,0,2.823-0.657,3.549-1.972l4.07,2.382c-0.715,1.293-1.753,2.29-3.115,2.989
		c-1.362,0.7-2.963,1.049-4.803,1.049c-1.767,0-3.326-0.371-4.677-1.112c-1.352-0.741-2.406-1.78-3.163-3.115
		c-0.757-1.335-1.136-2.876-1.136-4.622c0-1.767,0.378-3.328,1.136-4.685c0.757-1.356,1.819-2.405,3.186-3.146
		c1.367-0.742,2.944-1.112,4.732-1.112C108.713,153.33,110.243,153.669,111.589,154.347z"/>
	<path fill="#3F3936" d="M131.514,155.798c1.52,1.646,2.279,3.936,2.279,6.869c0,0.474-0.01,0.826-0.031,1.057h-12.24
		c0.284,1.031,0.778,1.827,1.482,2.39s1.578,0.844,2.619,0.844c0.778,0,1.52-0.15,2.224-0.449c0.704-0.3,1.351-0.744,1.94-1.333
		l2.934,2.887c-0.905,0.988-2.003,1.746-3.297,2.271c-1.293,0.526-2.724,0.789-4.291,0.789c-1.872,0-3.501-0.365-4.89-1.097
		c-1.388-0.73-2.461-1.764-3.218-3.099c-0.757-1.335-1.136-2.887-1.136-4.653s0.384-3.328,1.151-4.685
		c0.768-1.356,1.835-2.405,3.202-3.146c1.367-0.742,2.944-1.112,4.732-1.112C127.815,153.33,129.995,154.153,131.514,155.798z
		 M127.476,158.172c-0.615-0.642-1.427-0.962-2.437-0.962c-0.946,0-1.743,0.315-2.39,0.946c-0.646,0.631-1.06,1.488-1.238,2.571
		h6.988C128.399,159.666,128.091,158.814,127.476,158.172z"/>
	<path fill="#3F3936" d="M152.012,154.442c1.241,0.741,2.2,1.79,2.879,3.146c0.678,1.357,1.017,2.929,1.017,4.716
		c0,1.746-0.334,3.287-1.001,4.622c-0.668,1.335-1.606,2.369-2.816,3.099c-1.209,0.731-2.618,1.097-4.227,1.097
		c-1.115,0-2.127-0.216-3.037-0.647s-1.675-1.051-2.295-1.861v8.581h-5.584v-23.676h5.584v2.303c0.62-0.799,1.373-1.414,2.256-1.845
		s1.866-0.647,2.949-0.647C149.347,153.33,150.771,153.7,152.012,154.442z M149.197,165.428c0.72-0.852,1.08-1.945,1.08-3.281
		c0-1.335-0.36-2.423-1.08-3.265c-0.721-0.841-1.659-1.262-2.816-1.262c-1.115,0-2.035,0.421-2.76,1.262
		c-0.726,0.842-1.088,1.93-1.088,3.265c0,1.357,0.355,2.456,1.065,3.297c0.709,0.841,1.638,1.262,2.784,1.262
		C147.538,166.706,148.476,166.28,149.197,165.428z"/>
	<path fill="#3F3936" d="M167.975,170.862c-0.82,0.215-1.651,0.323-2.492,0.323c-1.725,0-3.118-0.479-4.18-1.436
		c-1.062-0.957-1.593-2.319-1.593-4.085v-7.682h-2.429v-3.66h2.429v-4.842h5.552v4.811h4.559v3.691h-4.559v6.814
		c0,1.272,0.515,1.908,1.546,1.908c0.599,0,1.341-0.194,2.224-0.583l1.104,3.88C169.516,170.36,168.795,170.646,167.975,170.862z"/>
</g>
<g>
	<path fill="#3F3936" d="M55.821,66.88c1.725,1.982,2.587,4.814,2.587,8.494c0,3.702-0.862,6.543-2.587,8.526
		c-1.725,1.982-4.19,2.973-7.398,2.973c-3.228,0-5.71-0.991-7.445-2.973c-1.735-1.982-2.603-4.824-2.603-8.526
		c0-3.68,0.867-6.512,2.603-8.494c1.735-1.982,4.217-2.973,7.445-2.973C51.631,63.907,54.097,64.898,55.821,66.88z M45.261,69.799
		c-0.646,1.13-0.97,2.989-0.97,5.576s0.323,4.451,0.97,5.592c0.647,1.141,1.701,1.711,3.163,1.711c1.42,0,2.458-0.576,3.116-1.727
		c0.657-1.151,0.986-3.01,0.986-5.576c0-2.565-0.329-4.419-0.986-5.56c-0.658-1.141-1.696-1.711-3.116-1.711
		C46.962,68.103,45.908,68.668,45.261,69.799z"/>
	<path fill="#3F3936" d="M63.988,86.716V68.687h-4.18v-4.622h9.922v22.651H63.988z"/>
</g>
<polygon fill="#45FFD3" points="639.001,343 319.001,343 319.001,180.295 319.001,0 639.001,0 "/>
<g>
	<path fill="#3F3936" d="M383.225,110.404c1.599,1.367,2.398,3.312,2.398,5.836c0,2.65-0.799,4.708-2.398,6.175
		c-1.598,1.467-3.838,2.2-6.719,2.2h-4.101v6.357h-5.757v-22.62h9.858C379.387,108.353,381.627,109.037,383.225,110.404z
		 M372.405,120.089h3.817c1.272,0,2.25-0.313,2.934-0.938s1.025-1.533,1.025-2.721c0-1.167-0.345-2.05-1.033-2.65
		c-0.689-0.599-1.664-0.899-2.926-0.899h-3.817V120.089z"/>
	<path fill="#3F3936" d="M396.184,114.158c0.957-0.547,2.061-0.831,3.312-0.852v5.032c-0.168-0.021-0.426-0.031-0.773-0.031
		c-1.378,0-2.503,0.334-3.375,1.001c-0.873,0.668-1.373,1.575-1.499,2.721v8.944h-5.6v-17.414h5.6v2.934
		C394.449,115.483,395.227,114.705,396.184,114.158z"/>
	<path fill="#3F3936" d="M415.95,115.838c1.52,1.646,2.279,3.936,2.279,6.869c0,0.474-0.01,0.826-0.031,1.057h-12.24
		c0.284,1.031,0.778,1.827,1.482,2.39s1.578,0.844,2.619,0.844c0.778,0,1.52-0.15,2.224-0.449c0.704-0.3,1.351-0.744,1.94-1.333
		l2.934,2.887c-0.905,0.988-2.003,1.746-3.297,2.271c-1.293,0.526-2.724,0.789-4.291,0.789c-1.872,0-3.501-0.365-4.89-1.097
		c-1.388-0.73-2.461-1.764-3.218-3.099c-0.757-1.335-1.136-2.887-1.136-4.653s0.384-3.328,1.151-4.685
		c0.768-1.356,1.835-2.405,3.202-3.146c1.367-0.742,2.944-1.112,4.732-1.112C412.251,113.369,414.43,114.192,415.95,115.838z
		 M411.912,118.212c-0.615-0.642-1.427-0.962-2.437-0.962c-0.946,0-1.743,0.315-2.39,0.946c-0.646,0.631-1.06,1.488-1.238,2.571
		h6.988C412.834,119.705,412.527,118.854,411.912,118.212z"/>
	<path fill="#3F3936" d="M436.448,114.481c1.241,0.741,2.2,1.79,2.879,3.146c0.678,1.357,1.017,2.929,1.017,4.716
		c0,1.746-0.334,3.287-1.001,4.622c-0.668,1.335-1.606,2.369-2.816,3.099c-1.209,0.731-2.618,1.097-4.227,1.097
		c-1.115,0-2.127-0.216-3.037-0.647s-1.675-1.051-2.295-1.861v8.581h-5.584v-23.676h5.584v2.303c0.62-0.799,1.373-1.414,2.256-1.845
		s1.866-0.647,2.949-0.647C433.782,113.369,435.207,113.74,436.448,114.481z M433.632,125.468c0.72-0.852,1.08-1.945,1.08-3.281
		c0-1.335-0.36-2.423-1.08-3.265c-0.721-0.841-1.659-1.262-2.816-1.262c-1.115,0-2.035,0.421-2.76,1.262
		c-0.726,0.842-1.088,1.93-1.088,3.265c0,1.357,0.355,2.456,1.065,3.297c0.709,0.841,1.638,1.262,2.784,1.262
		C431.973,126.745,432.912,126.319,433.632,125.468z"/>
</g>
<g>
	<path fill="#3F3936" d="M375.701,170.862c-0.82,0.215-1.651,0.323-2.492,0.323c-1.725,0-3.118-0.479-4.18-1.436
		c-1.062-0.957-1.593-2.319-1.593-4.085v-7.682h-2.429v-3.66h2.429v-4.842h5.552v4.811h4.559v3.691h-4.559v6.814
		c0,1.272,0.515,1.908,1.546,1.908c0.599,0,1.341-0.194,2.224-0.583l1.104,3.88C377.242,170.36,376.521,170.646,375.701,170.862z"/>
	<path fill="#3F3936" d="M388.588,154.119c0.957-0.547,2.061-0.831,3.312-0.852v5.032c-0.168-0.021-0.426-0.031-0.773-0.031
		c-1.378,0-2.503,0.334-3.375,1.001c-0.873,0.668-1.373,1.575-1.499,2.721v8.944h-5.6v-17.414h5.6v2.934
		C386.854,155.443,387.631,154.666,388.588,154.119z"/>
	<path fill="#3F3936" d="M407.606,154.931c1.325,1.11,1.998,2.653,2.019,4.63v11.373h-5.458v-2.003
		c-0.558,0.736-1.288,1.296-2.192,1.68c-0.905,0.384-1.951,0.576-3.139,0.576c-1.83,0-3.284-0.505-4.361-1.514
		c-1.078-1.01-1.617-2.324-1.617-3.943c0-1.662,0.576-2.95,1.727-3.865s2.805-1.383,4.961-1.404h4.59v-0.252
		c0-0.862-0.284-1.535-0.852-2.019c-0.568-0.483-1.415-0.726-2.54-0.726c-0.736,0-1.562,0.124-2.477,0.371s-1.825,0.607-2.729,1.081
		l-1.577-3.675c1.419-0.663,2.771-1.157,4.054-1.482c1.283-0.326,2.624-0.489,4.022-0.489
		C404.425,153.267,406.281,153.821,407.606,154.931z M402.882,166.753c0.668-0.441,1.086-1.02,1.254-1.735v-1.546h-3.517
		c-0.842,0-1.473,0.15-1.893,0.45c-0.421,0.299-0.631,0.775-0.631,1.427c0,0.642,0.215,1.146,0.646,1.514
		c0.431,0.369,1.036,0.552,1.814,0.552C401.438,167.416,402.214,167.195,402.882,166.753z"/>
	<path fill="#3F3936" d="M418.514,146.397c0.552,0.552,0.828,1.259,0.828,2.121c0,0.863-0.276,1.572-0.828,2.13
		c-0.552,0.557-1.259,0.836-2.122,0.836s-1.567-0.279-2.114-0.836c-0.547-0.558-0.82-1.267-0.82-2.13
		c0-0.862,0.273-1.569,0.82-2.121c0.547-0.552,1.251-0.828,2.114-0.828S417.961,145.845,418.514,146.397z M413.584,170.933v-17.414
		h5.568v17.414H413.584z"/>
	<path fill="#3F3936" d="M439.65,155.088c1.162,1.215,1.743,2.837,1.743,4.866v10.979h-5.568V161.5c0-1.01-0.274-1.811-0.82-2.405
		c-0.547-0.594-1.293-0.892-2.24-0.892c-0.988,0-1.801,0.324-2.437,0.97c-0.636,0.647-1.007,1.496-1.112,2.547v9.212h-5.6v-17.414
		h5.6v2.839c1.23-2.029,3.165-3.06,5.805-3.092C436.945,153.267,438.488,153.874,439.65,155.088z"/>
	<path fill="#3F3936" d="M450.282,146.397c0.552,0.552,0.828,1.259,0.828,2.121c0,0.863-0.276,1.572-0.828,2.13
		c-0.552,0.557-1.259,0.836-2.122,0.836s-1.567-0.279-2.114-0.836c-0.547-0.558-0.82-1.267-0.82-2.13
		c0-0.862,0.273-1.569,0.82-2.121c0.547-0.552,1.251-0.828,2.114-0.828S449.729,145.845,450.282,146.397z M445.353,170.933v-17.414
		h5.568v17.414H445.353z"/>
	<path fill="#3F3936" d="M471.418,155.088c1.162,1.215,1.743,2.837,1.743,4.866v10.979h-5.568V161.5c0-1.01-0.274-1.811-0.82-2.405
		c-0.547-0.594-1.293-0.892-2.24-0.892c-0.988,0-1.801,0.324-2.437,0.97c-0.636,0.647-1.007,1.496-1.112,2.547v9.212h-5.6v-17.414
		h5.6v2.839c1.23-2.029,3.165-3.06,5.805-3.092C468.713,153.267,470.256,153.874,471.418,155.088z"/>
	<path fill="#3F3936" d="M493.956,169.356c0,1.619-0.392,3.042-1.175,4.267c-0.783,1.225-1.888,2.166-3.312,2.822
		c-1.425,0.658-3.073,0.986-4.945,0.986c-1.462,0-2.86-0.211-4.196-0.631s-2.524-0.979-3.565-1.672l1.94-3.77
		c0.799,0.557,1.667,0.986,2.603,1.286c0.936,0.3,1.866,0.449,2.792,0.449c1.335,0,2.387-0.323,3.155-0.97
		c0.768-0.646,1.151-1.517,1.151-2.61v-1.846c-0.579,0.757-1.288,1.335-2.129,1.735c-0.841,0.4-1.804,0.6-2.887,0.6
		c-1.462,0-2.758-0.352-3.888-1.057s-2.014-1.696-2.65-2.974c-0.636-1.277-0.954-2.747-0.954-4.409c0-1.64,0.312-3.083,0.938-4.33
		c0.625-1.246,1.509-2.208,2.65-2.887c1.141-0.678,2.442-1.018,3.904-1.018c1.073,0,2.029,0.2,2.871,0.6
		c0.841,0.4,1.556,0.973,2.145,1.719v-2.129h5.552V169.356z M487.402,164.781c0.667-0.789,1.001-1.809,1.001-3.06
		c0-1.272-0.334-2.3-1.001-3.083c-0.668-0.783-1.543-1.175-2.626-1.175c-1.094,0-1.979,0.392-2.658,1.175s-1.018,1.812-1.018,3.083
		c0,1.251,0.339,2.271,1.018,3.06c0.678,0.789,1.564,1.183,2.658,1.183C485.858,165.964,486.734,165.57,487.402,164.781z"/>
</g>
<g>
	<path fill="#3F3936" d="M383.453,66.88c1.725,1.982,2.587,4.814,2.587,8.494c0,3.702-0.862,6.543-2.587,8.526
		c-1.725,1.982-4.19,2.973-7.398,2.973c-3.228,0-5.71-0.991-7.445-2.973c-1.735-1.982-2.603-4.824-2.603-8.526
		c0-3.68,0.867-6.512,2.603-8.494c1.735-1.982,4.217-2.973,7.445-2.973C379.263,63.907,381.729,64.898,383.453,66.88z
		 M372.893,69.799c-0.646,1.13-0.97,2.989-0.97,5.576s0.323,4.451,0.97,5.592c0.647,1.141,1.701,1.711,3.163,1.711
		c1.42,0,2.458-0.576,3.116-1.727c0.657-1.151,0.986-3.01,0.986-5.576c0-2.565-0.329-4.419-0.986-5.56
		c-0.658-1.141-1.696-1.711-3.116-1.711C374.594,68.103,373.54,68.668,372.893,69.799z"/>
	<path fill="#3F3936" d="M401.092,64.57c1.172,0.483,2.087,1.172,2.745,2.066c0.657,0.894,0.986,1.935,0.986,3.124
		c0,1.167-0.371,2.369-1.112,3.604c-0.741,1.236-1.79,2.542-3.146,3.92l-4.59,4.874h9.527v4.559h-16.925v-3.723l8.076-8.549
		c0.641-0.694,1.162-1.391,1.562-2.09c0.399-0.699,0.6-1.296,0.6-1.791c0-0.641-0.227-1.146-0.678-1.514
		c-0.453-0.368-1.078-0.552-1.877-0.552c-0.904,0-1.893,0.252-2.965,0.757s-2.14,1.209-3.202,2.114l-2.161-4.133
		c3.018-2.261,6.078-3.391,9.18-3.391C398.592,63.844,399.919,64.086,401.092,64.57z"/>
</g>
<rect x="639.122" fill="#3F3936" width="320" height="343"/>
<g>
	<path fill="#FFFFFF" d="M706.803,109.781c1.819,0.952,3.236,2.282,4.251,3.991c1.015,1.709,1.522,3.673,1.522,5.892
		c0,2.198-0.519,4.154-1.554,5.868c-1.036,1.714-2.479,3.05-4.33,4.006c-1.851,0.957-3.975,1.436-6.373,1.436h-9.495v-22.62h9.732
		C702.901,108.353,704.983,108.829,706.803,109.781z M696.581,126.382h4.102c1.167,0,2.208-0.278,3.123-0.836
		c0.915-0.557,1.63-1.343,2.146-2.358c0.515-1.015,0.772-2.179,0.772-3.494c0-1.314-0.268-2.481-0.805-3.501
		c-0.536-1.02-1.285-1.816-2.247-2.39c-0.963-0.573-2.043-0.86-3.242-0.86h-3.849V126.382z"/>
	<path fill="#FFFFFF" d="M729.729,115.838c1.52,1.646,2.279,3.936,2.279,6.869c0,0.474-0.011,0.826-0.031,1.057h-12.24
		c0.284,1.031,0.778,1.827,1.482,2.39s1.577,0.844,2.618,0.844c0.778,0,1.52-0.15,2.225-0.449c0.704-0.3,1.351-0.744,1.94-1.333
		l2.934,2.887c-0.904,0.988-2.003,1.746-3.297,2.271c-1.293,0.526-2.724,0.789-4.29,0.789c-1.872,0-3.502-0.365-4.891-1.097
		c-1.388-0.73-2.46-1.764-3.218-3.099c-0.757-1.335-1.136-2.887-1.136-4.653s0.384-3.328,1.152-4.685
		c0.767-1.356,1.835-2.405,3.201-3.146c1.367-0.742,2.944-1.112,4.732-1.112C726.031,113.369,728.21,114.192,729.729,115.838z
		 M725.691,118.212c-0.615-0.642-1.428-0.962-2.437-0.962c-0.946,0-1.743,0.315-2.39,0.946c-0.647,0.631-1.06,1.488-1.238,2.571
		h6.987C726.614,119.705,726.307,118.854,725.691,118.212z"/>
	<path fill="#FFFFFF" d="M744.942,113.819c1.23,0.342,2.382,0.828,3.455,1.459l-1.909,3.612c-2.155-1.167-3.985-1.751-5.489-1.751
		c-0.515,0-0.928,0.103-1.237,0.308c-0.311,0.205-0.466,0.502-0.466,0.891c0,0.41,0.236,0.739,0.71,0.986
		c0.473,0.247,1.246,0.523,2.318,0.828c1.23,0.347,2.256,0.697,3.076,1.049c0.82,0.353,1.53,0.889,2.129,1.609
		c0.6,0.721,0.899,1.654,0.899,2.8c0,1.746-0.678,3.113-2.034,4.101c-1.357,0.988-3.124,1.482-5.301,1.482
		c-1.461,0-2.87-0.21-4.227-0.631c-1.357-0.42-2.551-1.025-3.581-1.814l1.767-3.565c0.968,0.694,1.995,1.23,3.084,1.609
		c1.088,0.379,2.121,0.568,3.1,0.568c0.578,0,1.038-0.103,1.38-0.308s0.513-0.502,0.513-0.891c0-0.452-0.247-0.807-0.741-1.064
		s-1.268-0.539-2.319-0.844c-1.209-0.347-2.211-0.696-3.005-1.049c-0.794-0.352-1.478-0.878-2.05-1.577
		c-0.573-0.699-0.86-1.622-0.86-2.769c0-1.745,0.657-3.107,1.972-4.085c1.314-0.978,3.019-1.467,5.111-1.467
		C742.477,113.306,743.713,113.477,744.942,113.819z"/>
	<path fill="#FFFFFF" d="M756.481,106.437c0.552,0.552,0.828,1.259,0.828,2.121c0,0.863-0.276,1.572-0.828,2.13
		c-0.552,0.557-1.26,0.836-2.121,0.836c-0.863,0-1.567-0.279-2.114-0.836c-0.547-0.558-0.82-1.267-0.82-2.13
		c0-0.862,0.273-1.569,0.82-2.121c0.547-0.552,1.251-0.828,2.114-0.828C755.222,105.609,755.93,105.885,756.481,106.437z
		 M751.552,130.973v-17.414h5.568v17.414H751.552z"/>
	<path fill="#FFFFFF" d="M778.226,129.396c0,1.619-0.392,3.042-1.175,4.267c-0.784,1.225-1.888,2.166-3.312,2.823
		c-1.426,0.657-3.073,0.986-4.945,0.986c-1.462,0-2.86-0.21-4.195-0.631c-1.336-0.42-2.524-0.978-3.565-1.672l1.94-3.77
		c0.799,0.557,1.666,0.986,2.603,1.286c0.936,0.3,1.866,0.45,2.792,0.45c1.335,0,2.387-0.324,3.154-0.97s1.151-1.517,1.151-2.61
		v-1.846c-0.578,0.757-1.288,1.335-2.129,1.735c-0.842,0.4-1.804,0.6-2.887,0.6c-1.462,0-2.758-0.352-3.888-1.057
		c-1.131-0.705-2.015-1.696-2.65-2.974c-0.637-1.277-0.954-2.747-0.954-4.409c0-1.64,0.312-3.083,0.938-4.33
		c0.625-1.246,1.509-2.208,2.649-2.887c1.142-0.678,2.442-1.018,3.904-1.018c1.072,0,2.029,0.2,2.871,0.6
		c0.841,0.4,1.556,0.973,2.145,1.719v-2.129h5.553V129.396z M771.672,124.821c0.667-0.789,1.001-1.809,1.001-3.06
		c0-1.272-0.334-2.3-1.001-3.083c-0.668-0.783-1.544-1.175-2.627-1.175c-1.094,0-1.979,0.392-2.657,1.175
		c-0.679,0.783-1.018,1.812-1.018,3.083c0,1.251,0.339,2.271,1.018,3.06c0.678,0.789,1.563,1.183,2.657,1.183
		C770.128,126.004,771.004,125.61,771.672,124.821z"/>
	<path fill="#FFFFFF" d="M798.519,115.128c1.162,1.215,1.743,2.837,1.743,4.866v10.979h-5.568v-9.433c0-1.01-0.273-1.811-0.82-2.405
		s-1.293-0.892-2.239-0.892c-0.989,0-1.801,0.324-2.438,0.97c-0.636,0.647-1.007,1.496-1.112,2.547v9.212h-5.6v-17.414h5.6v2.839
		c1.23-2.029,3.166-3.06,5.806-3.092C795.813,113.306,797.356,113.914,798.519,115.128z"/>
</g>
<g>
	<path fill="#FFFFFF" d="M700.745,153.779c1.23,0.342,2.382,0.828,3.455,1.459l-1.909,3.612c-2.155-1.167-3.985-1.751-5.489-1.751
		c-0.515,0-0.928,0.103-1.237,0.308c-0.311,0.205-0.466,0.502-0.466,0.891c0,0.41,0.236,0.739,0.71,0.986
		c0.473,0.247,1.246,0.523,2.318,0.828c1.23,0.347,2.256,0.697,3.076,1.049c0.82,0.353,1.53,0.889,2.129,1.609
		c0.6,0.721,0.899,1.654,0.899,2.8c0,1.746-0.678,3.113-2.034,4.101c-1.357,0.988-3.124,1.482-5.301,1.482
		c-1.461,0-2.87-0.21-4.227-0.631c-1.357-0.42-2.551-1.025-3.581-1.814l1.767-3.565c0.968,0.694,1.995,1.23,3.084,1.609
		c1.088,0.379,2.121,0.568,3.1,0.568c0.578,0,1.038-0.103,1.38-0.308s0.513-0.502,0.513-0.891c0-0.452-0.247-0.807-0.741-1.064
		s-1.268-0.539-2.319-0.844c-1.209-0.347-2.211-0.696-3.005-1.049c-0.794-0.352-1.478-0.878-2.05-1.577
		c-0.573-0.699-0.86-1.622-0.86-2.769c0-1.745,0.657-3.107,1.972-4.085c1.314-0.978,3.019-1.467,5.111-1.467
		C698.279,153.267,699.516,153.438,700.745,153.779z"/>
	<path fill="#FFFFFF" d="M722.592,154.442c1.241,0.741,2.201,1.79,2.879,3.146c0.679,1.357,1.018,2.929,1.018,4.716
		c0,1.746-0.334,3.287-1.002,4.622s-1.606,2.369-2.815,3.099c-1.209,0.731-2.618,1.097-4.228,1.097
		c-1.114,0-2.127-0.216-3.036-0.647s-1.675-1.051-2.295-1.861v8.581h-5.584v-23.676h5.584v2.303c0.62-0.799,1.372-1.414,2.256-1.845
		c0.883-0.431,1.866-0.647,2.949-0.647C719.927,153.33,721.352,153.7,722.592,154.442z M719.776,165.428
		c0.721-0.852,1.081-1.945,1.081-3.281c0-1.335-0.36-2.423-1.081-3.265c-0.72-0.841-1.658-1.262-2.815-1.262
		c-1.114,0-2.034,0.421-2.76,1.262c-0.726,0.842-1.089,1.93-1.089,3.265c0,1.357,0.354,2.456,1.064,3.297s1.638,1.262,2.784,1.262
		C718.118,166.706,719.057,166.28,719.776,165.428z"/>
	<path fill="#FFFFFF" d="M737.403,154.119c0.957-0.547,2.061-0.831,3.312-0.852v5.032c-0.168-0.021-0.426-0.031-0.772-0.031
		c-1.378,0-2.503,0.334-3.376,1.001c-0.873,0.668-1.372,1.575-1.499,2.721v8.944h-5.6v-17.414h5.6v2.934
		C735.668,155.443,736.446,154.666,737.403,154.119z"/>
	<path fill="#FFFFFF" d="M748.088,146.397c0.552,0.552,0.828,1.259,0.828,2.121c0,0.863-0.276,1.572-0.828,2.13
		c-0.552,0.557-1.26,0.836-2.121,0.836c-0.863,0-1.567-0.279-2.114-0.836c-0.547-0.558-0.82-1.267-0.82-2.13
		c0-0.862,0.273-1.569,0.82-2.121c0.547-0.552,1.251-0.828,2.114-0.828C746.828,145.569,747.536,145.845,748.088,146.397z
		 M743.158,170.933v-17.414h5.568v17.414H743.158z"/>
	<path fill="#FFFFFF" d="M769.225,155.088c1.162,1.215,1.743,2.837,1.743,4.866v10.979h-5.568V161.5c0-1.01-0.273-1.811-0.82-2.405
		s-1.293-0.892-2.239-0.892c-0.989,0-1.801,0.324-2.438,0.97c-0.636,0.647-1.007,1.496-1.112,2.547v9.212h-5.6v-17.414h5.6v2.839
		c1.23-2.029,3.166-3.06,5.806-3.092C766.52,153.267,768.062,153.874,769.225,155.088z"/>
	<path fill="#FFFFFF" d="M784.012,170.862c-0.82,0.215-1.651,0.323-2.492,0.323c-1.725,0-3.118-0.479-4.18-1.436
		c-1.062-0.957-1.594-2.319-1.594-4.085v-7.682h-2.429v-3.66h2.429v-4.842h5.553v4.811h4.559v3.691h-4.559v6.814
		c0,1.272,0.515,1.908,1.546,1.908c0.6,0,1.341-0.194,2.224-0.583l1.104,3.88C785.552,170.36,784.832,170.646,784.012,170.862z"/>
</g>
<g>
	<path fill="#FFFFFF" d="M708.333,210.894h-5.584v-2.287c-1.272,1.683-3.019,2.519-5.237,2.508c-1.619,0-3.042-0.376-4.267-1.128
		s-2.177-1.806-2.854-3.162c-0.679-1.356-1.018-2.929-1.018-4.717c0-1.767,0.333-3.317,1.001-4.653
		c0.668-1.335,1.606-2.368,2.816-3.1c1.209-0.73,2.607-1.096,4.195-1.096c1.146,0,2.172,0.216,3.076,0.646
		c0.904,0.432,1.666,1.057,2.287,1.877v-8.864h5.584V210.894z M701.685,205.53c0.709-0.841,1.064-1.939,1.064-3.297
		c0-1.335-0.355-2.423-1.064-3.265c-0.71-0.841-1.648-1.262-2.816-1.262c-1.167,0-2.103,0.415-2.808,1.246
		c-0.704,0.831-1.067,1.924-1.088,3.28c0.021,1.357,0.387,2.456,1.096,3.297c0.71,0.842,1.644,1.262,2.8,1.262
		C700.036,206.792,700.975,206.372,701.685,205.53z"/>
	<path fill="#FFFFFF" d="M727.111,195.759c1.52,1.646,2.279,3.936,2.279,6.869c0,0.474-0.011,0.826-0.031,1.057h-12.24
		c0.284,1.031,0.778,1.828,1.482,2.391s1.577,0.844,2.618,0.844c0.778,0,1.52-0.15,2.225-0.45c0.704-0.3,1.351-0.743,1.94-1.333
		l2.934,2.887c-0.904,0.989-2.003,1.746-3.297,2.271c-1.293,0.526-2.724,0.789-4.29,0.789c-1.872,0-3.502-0.365-4.891-1.097
		c-1.388-0.73-2.46-1.764-3.218-3.1c-0.757-1.335-1.136-2.887-1.136-4.653s0.384-3.328,1.152-4.685
		c0.767-1.356,1.835-2.405,3.201-3.146c1.367-0.741,2.944-1.112,4.732-1.112C723.413,193.29,725.592,194.113,727.111,195.759z
		 M723.073,198.133c-0.615-0.642-1.428-0.962-2.437-0.962c-0.946,0-1.743,0.315-2.39,0.946c-0.647,0.631-1.06,1.488-1.238,2.571
		h6.987C723.996,199.626,723.688,198.774,723.073,198.133z"/>
	<path fill="#FFFFFF" d="M732.545,210.894v-23.976h5.584v23.976H732.545z"/>
	<path fill="#FFFFFF" d="M747.664,186.357c0.552,0.553,0.828,1.26,0.828,2.122s-0.276,1.572-0.828,2.129
		c-0.552,0.558-1.26,0.836-2.121,0.836c-0.863,0-1.567-0.278-2.114-0.836c-0.547-0.557-0.82-1.267-0.82-2.129
		s0.273-1.569,0.82-2.122c0.547-0.552,1.251-0.828,2.114-0.828C746.404,185.529,747.112,185.806,747.664,186.357z M742.734,210.894
		v-17.414h5.568v17.414H742.734z"/>
	<path fill="#FFFFFF" d="M756.947,210.894l-6.562-17.414h5.742l3.754,12.304l3.77-12.304h5.568l-6.562,17.414H756.947z"/>
	<path fill="#FFFFFF" d="M784.927,195.759c1.52,1.646,2.279,3.936,2.279,6.869c0,0.474-0.011,0.826-0.031,1.057h-12.24
		c0.284,1.031,0.778,1.828,1.482,2.391s1.577,0.844,2.618,0.844c0.778,0,1.52-0.15,2.225-0.45c0.704-0.3,1.351-0.743,1.94-1.333
		l2.934,2.887c-0.904,0.989-2.003,1.746-3.297,2.271c-1.293,0.526-2.724,0.789-4.29,0.789c-1.872,0-3.502-0.365-4.891-1.097
		c-1.388-0.73-2.46-1.764-3.218-3.1c-0.757-1.335-1.136-2.887-1.136-4.653s0.384-3.328,1.152-4.685
		c0.767-1.356,1.835-2.405,3.201-3.146c1.367-0.741,2.944-1.112,4.732-1.112C781.229,193.29,783.407,194.113,784.927,195.759z
		 M780.889,198.133c-0.615-0.642-1.428-0.962-2.437-0.962c-0.946,0-1.743,0.315-2.39,0.946c-0.647,0.631-1.06,1.488-1.238,2.571
		h6.987C781.812,199.626,781.504,198.774,780.889,198.133z"/>
	<path fill="#FFFFFF" d="M798.121,194.079c0.957-0.547,2.061-0.831,3.312-0.852v5.031c-0.168-0.021-0.426-0.031-0.772-0.031
		c-1.378,0-2.503,0.334-3.376,1.001c-0.873,0.668-1.372,1.575-1.499,2.722v8.943h-5.6v-17.414h5.6v2.934
		C796.386,195.404,797.164,194.626,798.121,194.079z"/>
	<path fill="#FFFFFF" d="M811.043,216.257c-1.109,0.778-2.474,1.167-4.093,1.167c-0.968,0-1.861-0.147-2.682-0.441
		c-0.82-0.295-1.62-0.741-2.398-1.341l2.335-3.817c0.41,0.326,0.791,0.565,1.144,0.718s0.733,0.229,1.144,0.229
		c0.988,0,1.714-0.463,2.177-1.388l0.41-0.884l-7.24-17.02h5.758l4.259,11.562l3.785-11.562h5.553l-7.524,19.229
		C813.027,214.295,812.152,215.479,811.043,216.257z"/>
</g>
<g>
	<path fill="#FFFFFF" d="M707.63,66.88c1.725,1.982,2.587,4.814,2.587,8.494c0,3.702-0.862,6.543-2.587,8.526
		c-1.725,1.982-4.19,2.973-7.397,2.973c-3.229,0-5.71-0.991-7.445-2.973c-1.735-1.982-2.603-4.824-2.603-8.526
		c0-3.68,0.867-6.512,2.603-8.494c1.735-1.982,4.217-2.973,7.445-2.973C703.439,63.907,705.905,64.898,707.63,66.88z
		 M697.069,69.799c-0.646,1.13-0.97,2.989-0.97,5.576s0.323,4.451,0.97,5.592c0.646,1.141,1.701,1.711,3.163,1.711
		c1.419,0,2.458-0.576,3.115-1.727s0.985-3.01,0.985-5.576c0-2.565-0.328-4.419-0.985-5.56s-1.696-1.711-3.115-1.711
		C698.771,68.103,697.716,68.668,697.069,69.799z"/>
	<path fill="#FFFFFF" d="M726.756,75.446c1.021,1.078,1.53,2.463,1.53,4.156c0,1.441-0.354,2.718-1.064,3.833
		s-1.722,1.982-3.036,2.603c-1.315,0.621-2.834,0.931-4.559,0.931c-1.525,0-3.053-0.247-4.583-0.741
		c-1.529-0.494-2.81-1.162-3.841-2.003l2.319-4.354c1.703,1.83,3.591,2.745,5.662,2.745c1.115,0,1.975-0.258,2.579-0.773
		s0.907-1.235,0.907-2.161c0-0.946-0.303-1.659-0.907-2.137s-1.475-0.718-2.61-0.718h-3.628v-3.06l5.048-5.237h-8.234v-4.401h14.922
		v3.265l-5.662,5.884l1.072,0.158C724.374,73.697,725.736,74.368,726.756,75.446z"/>
</g>
<rect x="960.05" fill="#E2E2E2" width="320" height="343"/>
<g>
	<path fill="#3F3936" d="M1030.317,109.67c1.866,1.004,3.33,2.376,4.393,4.117c1.062,1.741,1.593,3.689,1.593,5.844
		c0,2.177-0.531,4.148-1.593,5.915c-1.062,1.767-2.526,3.155-4.393,4.165c-1.867,1.009-3.952,1.514-6.255,1.514
		c-2.282,0-4.354-0.505-6.215-1.514c-1.861-1.01-3.325-2.398-4.393-4.165s-1.602-3.738-1.602-5.915s0.534-4.135,1.602-5.875
		s2.526-3.107,4.377-4.101c1.851-0.994,3.928-1.491,6.23-1.491S1028.45,108.667,1030.317,109.67z M1020.947,113.851
		c-0.983,0.583-1.764,1.385-2.342,2.405c-0.579,1.02-0.868,2.156-0.868,3.407s0.289,2.395,0.868,3.431
		c0.578,1.036,1.358,1.848,2.342,2.437s2.043,0.883,3.179,0.883c1.146,0,2.197-0.294,3.154-0.883s1.717-1.401,2.279-2.437
		s0.844-2.179,0.844-3.431s-0.281-2.387-0.844-3.407s-1.322-1.822-2.279-2.405c-0.957-0.584-2.009-0.875-3.154-0.875
		C1022.99,112.975,1021.931,113.267,1020.947,113.851z"/>
	<path fill="#3F3936" d="M1055.334,115.128c1.162,1.215,1.743,2.837,1.743,4.866v10.979h-5.568v-9.433
		c0-1.01-0.273-1.811-0.82-2.405s-1.293-0.892-2.239-0.892c-0.989,0-1.801,0.324-2.438,0.97c-0.636,0.647-1.007,1.496-1.112,2.547
		v9.212h-5.6v-17.414h5.6v2.839c1.23-2.029,3.166-3.06,5.806-3.092C1052.629,113.306,1054.172,113.914,1055.334,115.128z"/>
	<path fill="#3F3936" d="M1077.871,129.396c0,1.619-0.392,3.042-1.175,4.267c-0.784,1.225-1.888,2.166-3.312,2.823
		c-1.426,0.657-3.073,0.986-4.945,0.986c-1.462,0-2.86-0.21-4.195-0.631c-1.336-0.42-2.524-0.978-3.565-1.672l1.94-3.77
		c0.799,0.557,1.666,0.986,2.603,1.286c0.936,0.3,1.866,0.45,2.792,0.45c1.335,0,2.387-0.324,3.154-0.97s1.151-1.517,1.151-2.61
		v-1.846c-0.578,0.757-1.288,1.335-2.129,1.735c-0.842,0.4-1.804,0.6-2.887,0.6c-1.462,0-2.758-0.352-3.888-1.057
		c-1.131-0.705-2.015-1.696-2.65-2.974c-0.637-1.277-0.954-2.747-0.954-4.409c0-1.64,0.312-3.083,0.938-4.33
		c0.625-1.246,1.509-2.208,2.649-2.887c1.142-0.678,2.442-1.018,3.904-1.018c1.072,0,2.029,0.2,2.871,0.6
		c0.841,0.4,1.556,0.973,2.145,1.719v-2.129h5.553V129.396z M1071.317,124.821c0.667-0.789,1.001-1.809,1.001-3.06
		c0-1.272-0.334-2.3-1.001-3.083c-0.668-0.783-1.544-1.175-2.627-1.175c-1.094,0-1.979,0.392-2.657,1.175
		c-0.679,0.783-1.018,1.812-1.018,3.083c0,1.251,0.339,2.271,1.018,3.06c0.678,0.789,1.563,1.183,2.657,1.183
		C1069.773,126.004,1070.649,125.61,1071.317,124.821z"/>
	<path fill="#3F3936" d="M1095.183,114.465c1.446,0.731,2.561,1.77,3.345,3.116c0.783,1.346,1.175,2.902,1.175,4.669
		s-0.392,3.323-1.175,4.669c-0.784,1.346-1.898,2.39-3.345,3.131c-1.445,0.741-3.104,1.112-4.977,1.112
		c-1.893,0-3.554-0.371-4.984-1.112c-1.43-0.741-2.545-1.785-3.344-3.131s-1.199-2.902-1.199-4.669s0.4-3.323,1.199-4.669
		s1.914-2.384,3.344-3.116c1.431-0.73,3.092-1.096,4.984-1.096C1092.078,113.369,1093.737,113.735,1095.183,114.465z
		 M1087.391,119.048c-0.72,0.841-1.08,1.93-1.08,3.265c0,1.356,0.36,2.45,1.08,3.281c0.721,0.831,1.659,1.246,2.815,1.246
		c1.146,0,2.08-0.415,2.8-1.246c0.721-0.831,1.081-1.924,1.081-3.281c0-1.335-0.36-2.424-1.081-3.265
		c-0.72-0.841-1.653-1.262-2.8-1.262C1089.05,117.786,1088.111,118.207,1087.391,119.048z"/>
	<path fill="#3F3936" d="M1107.628,106.437c0.552,0.552,0.828,1.259,0.828,2.121c0,0.863-0.276,1.572-0.828,2.13
		c-0.552,0.557-1.26,0.836-2.121,0.836c-0.863,0-1.567-0.279-2.114-0.836c-0.547-0.558-0.82-1.267-0.82-2.13
		c0-0.862,0.273-1.569,0.82-2.121c0.547-0.552,1.251-0.828,2.114-0.828C1106.368,105.609,1107.076,105.885,1107.628,106.437z
		 M1102.698,130.973v-17.414h5.568v17.414H1102.698z"/>
	<path fill="#3F3936" d="M1128.765,115.128c1.162,1.215,1.743,2.837,1.743,4.866v10.979h-5.568v-9.433
		c0-1.01-0.273-1.811-0.82-2.405s-1.293-0.892-2.239-0.892c-0.989,0-1.801,0.324-2.438,0.97c-0.636,0.647-1.007,1.496-1.112,2.547
		v9.212h-5.6v-17.414h5.6v2.839c1.23-2.029,3.166-3.06,5.806-3.092C1126.06,113.306,1127.603,113.914,1128.765,115.128z"/>
	<path fill="#3F3936" d="M1151.302,129.396c0,1.619-0.392,3.042-1.175,4.267c-0.784,1.225-1.888,2.166-3.312,2.823
		c-1.426,0.657-3.073,0.986-4.945,0.986c-1.462,0-2.86-0.21-4.195-0.631c-1.336-0.42-2.524-0.978-3.565-1.672l1.94-3.77
		c0.799,0.557,1.666,0.986,2.603,1.286c0.936,0.3,1.866,0.45,2.792,0.45c1.335,0,2.387-0.324,3.154-0.97s1.151-1.517,1.151-2.61
		v-1.846c-0.578,0.757-1.288,1.335-2.129,1.735c-0.842,0.4-1.804,0.6-2.887,0.6c-1.462,0-2.758-0.352-3.888-1.057
		c-1.131-0.705-2.015-1.696-2.65-2.974c-0.637-1.277-0.954-2.747-0.954-4.409c0-1.64,0.312-3.083,0.938-4.33
		c0.625-1.246,1.509-2.208,2.649-2.887c1.142-0.678,2.442-1.018,3.904-1.018c1.072,0,2.029,0.2,2.871,0.6
		c0.841,0.4,1.556,0.973,2.145,1.719v-2.129h5.553V129.396z M1144.748,124.821c0.667-0.789,1.001-1.809,1.001-3.06
		c0-1.272-0.334-2.3-1.001-3.083c-0.668-0.783-1.544-1.175-2.627-1.175c-1.094,0-1.979,0.392-2.657,1.175
		c-0.679,0.783-1.018,1.812-1.018,3.083c0,1.251,0.339,2.271,1.018,3.06c0.678,0.789,1.563,1.183,2.657,1.183
		C1143.204,126.004,1144.08,125.61,1144.748,124.821z"/>
</g>
<g>
	<path fill="#3F3936" d="M1023.258,153.779c1.23,0.342,2.382,0.828,3.455,1.459l-1.909,3.612c-2.155-1.167-3.985-1.751-5.489-1.751
		c-0.515,0-0.928,0.103-1.237,0.308c-0.311,0.205-0.466,0.502-0.466,0.891c0,0.41,0.236,0.739,0.71,0.986
		c0.473,0.247,1.246,0.523,2.318,0.828c1.23,0.347,2.256,0.697,3.076,1.049c0.82,0.353,1.53,0.889,2.129,1.609
		c0.6,0.721,0.899,1.654,0.899,2.8c0,1.746-0.678,3.113-2.034,4.101c-1.357,0.988-3.124,1.482-5.301,1.482
		c-1.461,0-2.87-0.21-4.227-0.631c-1.357-0.42-2.551-1.025-3.581-1.814l1.767-3.565c0.968,0.694,1.995,1.23,3.084,1.609
		c1.088,0.379,2.121,0.568,3.1,0.568c0.578,0,1.038-0.103,1.38-0.308s0.513-0.502,0.513-0.891c0-0.452-0.247-0.807-0.741-1.064
		s-1.268-0.539-2.319-0.844c-1.209-0.347-2.211-0.696-3.005-1.049c-0.794-0.352-1.478-0.878-2.05-1.577
		c-0.573-0.699-0.86-1.622-0.86-2.769c0-1.745,0.657-3.107,1.972-4.085c1.314-0.978,3.019-1.467,5.111-1.467
		C1020.792,153.267,1022.028,153.438,1023.258,153.779z"/>
	<path fill="#3F3936" d="M1046.84,170.933h-5.6v-2.871c-1.188,2.072-3.07,3.102-5.646,3.091c-1.894,0-3.405-0.602-4.535-1.806
		c-1.131-1.204-1.695-2.821-1.695-4.85v-10.979h5.583v9.401c0,1.031,0.264,1.843,0.789,2.437c0.525,0.594,1.23,0.892,2.113,0.892
		c1.052-0.021,1.88-0.413,2.484-1.175c0.605-0.762,0.907-1.748,0.907-2.958v-8.597h5.6V170.933z"/>
	<path fill="#3F3936" d="M1066.509,154.442c1.241,0.741,2.201,1.79,2.879,3.146c0.679,1.357,1.018,2.929,1.018,4.716
		c0,1.746-0.334,3.287-1.002,4.622s-1.606,2.369-2.815,3.099c-1.209,0.731-2.618,1.097-4.228,1.097
		c-1.114,0-2.127-0.216-3.036-0.647s-1.675-1.051-2.295-1.861v8.581h-5.584v-23.676h5.584v2.303c0.62-0.799,1.372-1.414,2.256-1.845
		c0.883-0.431,1.866-0.647,2.949-0.647C1063.844,153.33,1065.269,153.7,1066.509,154.442z M1063.693,165.428
		c0.721-0.852,1.081-1.945,1.081-3.281c0-1.335-0.36-2.423-1.081-3.265c-0.72-0.841-1.658-1.262-2.815-1.262
		c-1.114,0-2.034,0.421-2.76,1.262c-0.726,0.842-1.089,1.93-1.089,3.265c0,1.357,0.354,2.456,1.064,3.297s1.638,1.262,2.784,1.262
		C1062.035,166.706,1062.974,166.28,1063.693,165.428z"/>
	<path fill="#3F3936" d="M1088.624,154.442c1.241,0.741,2.201,1.79,2.879,3.146c0.679,1.357,1.018,2.929,1.018,4.716
		c0,1.746-0.334,3.287-1.002,4.622s-1.606,2.369-2.815,3.099c-1.209,0.731-2.618,1.097-4.228,1.097
		c-1.114,0-2.127-0.216-3.036-0.647s-1.675-1.051-2.295-1.861v8.581h-5.584v-23.676h5.584v2.303c0.62-0.799,1.372-1.414,2.256-1.845
		c0.883-0.431,1.866-0.647,2.949-0.647C1085.959,153.33,1087.384,153.7,1088.624,154.442z M1085.809,165.428
		c0.721-0.852,1.081-1.945,1.081-3.281c0-1.335-0.36-2.423-1.081-3.265c-0.72-0.841-1.658-1.262-2.815-1.262
		c-1.114,0-2.034,0.421-2.76,1.262c-0.726,0.842-1.089,1.93-1.089,3.265c0,1.357,0.354,2.456,1.064,3.297s1.638,1.262,2.784,1.262
		C1084.15,166.706,1085.089,166.28,1085.809,165.428z"/>
	<path fill="#3F3936" d="M1108.554,154.426c1.446,0.731,2.561,1.77,3.345,3.116c0.783,1.346,1.175,2.902,1.175,4.669
		s-0.392,3.323-1.175,4.669c-0.784,1.346-1.898,2.39-3.345,3.131c-1.445,0.741-3.104,1.112-4.977,1.112
		c-1.893,0-3.554-0.371-4.984-1.112c-1.43-0.741-2.545-1.785-3.344-3.131s-1.199-2.902-1.199-4.669s0.4-3.323,1.199-4.669
		s1.914-2.384,3.344-3.116c1.431-0.73,3.092-1.096,4.984-1.096C1105.449,153.33,1107.108,153.695,1108.554,154.426z
		 M1100.762,159.008c-0.72,0.841-1.08,1.93-1.08,3.265c0,1.356,0.36,2.45,1.08,3.281c0.721,0.831,1.659,1.246,2.815,1.246
		c1.146,0,2.08-0.415,2.8-1.246c0.721-0.831,1.081-1.924,1.081-3.281c0-1.335-0.36-2.424-1.081-3.265
		c-0.72-0.841-1.653-1.262-2.8-1.262C1102.421,157.747,1101.482,158.167,1100.762,159.008z"/>
	<path fill="#3F3936" d="M1124.005,154.119c0.957-0.547,2.061-0.831,3.312-0.852v5.032c-0.168-0.021-0.426-0.031-0.772-0.031
		c-1.378,0-2.503,0.334-3.376,1.001c-0.873,0.668-1.372,1.575-1.499,2.721v8.944h-5.6v-17.414h5.6v2.934
		C1122.27,155.443,1123.048,154.666,1124.005,154.119z"/>
	<path fill="#3F3936" d="M1139.427,170.862c-0.82,0.215-1.651,0.323-2.492,0.323c-1.725,0-3.118-0.479-4.18-1.436
		c-1.062-0.957-1.594-2.319-1.594-4.085v-7.682h-2.429v-3.66h2.429v-4.842h5.553v4.811h4.559v3.691h-4.559v6.814
		c0,1.272,0.515,1.908,1.546,1.908c0.6,0,1.341-0.194,2.224-0.583l1.104,3.88C1140.967,170.36,1140.247,170.646,1139.427,170.862z"
		/>
</g>
<g>
	<path fill="#3F3936" d="M1030.143,66.88c1.725,1.982,2.587,4.814,2.587,8.494c0,3.702-0.862,6.543-2.587,8.526
		c-1.725,1.982-4.19,2.973-7.397,2.973c-3.229,0-5.71-0.991-7.445-2.973c-1.735-1.982-2.603-4.824-2.603-8.526
		c0-3.68,0.867-6.512,2.603-8.494c1.735-1.982,4.217-2.973,7.445-2.973C1025.952,63.907,1028.418,64.898,1030.143,66.88z
		 M1019.582,69.799c-0.646,1.13-0.97,2.989-0.97,5.576s0.323,4.451,0.97,5.592c0.646,1.141,1.701,1.711,3.163,1.711
		c1.419,0,2.458-0.576,3.115-1.727s0.985-3.01,0.985-5.576c0-2.565-0.328-4.419-0.985-5.56s-1.696-1.711-3.115-1.711
		C1021.283,68.103,1020.229,68.668,1019.582,69.799z"/>
	<path fill="#3F3936" d="M1045.664,77.378v-4.843h5.331v4.843h3.076v4.369h-3.076v4.969h-5.331v-4.969h-10.727v-3.849l7.146-13.802
		h5.521l-6.72,13.282H1045.664z"/>
</g>
</svg>
