<?xml version="1.0" encoding="utf-8"?>
<!-- Generator: Adobe Illustrator 15.0.0, SVG Export Plug-In . SVG Version: 6.00 Build 0)  -->
<!DOCTYPE svg PUBLIC "-//W3C//DTD SVG 1.1//EN" "http://www.w3.org/Graphics/SVG/1.1/DTD/svg11.dtd">
<svg version="1.1" id="Layer_1" xmlns="http://www.w3.org/2000/svg" xmlns:xlink="http://www.w3.org/1999/xlink" x="0px" y="0px"
	 width="639.623px" height="342.999px" viewBox="100.379 126 639.623 342.999" enable-background="new 100.379 126 639.623 342.999"
	 xml:space="preserve">
<polygon fill="#00FFFF" points="420.38,468.999 100.379,468.999 100.379,306.295 100.379,126 420.38,126 "/>
<g>
	<path fill="#3F3936" d="M156.593,236.404c1.6,1.367,2.398,3.312,2.398,5.836c0,2.65-0.799,4.708-2.398,6.176
		c-1.598,1.467-3.838,2.199-6.719,2.199h-4.101v6.357h-5.757v-22.62h9.857C152.755,234.353,154.995,235.037,156.593,236.404z
		 M145.773,246.089h3.816c1.272,0,2.25-0.313,2.935-0.938c0.684-0.625,1.024-1.532,1.024-2.721c0-1.167-0.345-2.05-1.032-2.65
		c-0.689-0.599-1.664-0.898-2.927-0.898h-3.816V246.089z"/>
	<path fill="#3F3936" d="M169.584,240.158c0.957-0.548,2.062-0.831,3.312-0.853v5.032c-0.168-0.021-0.426-0.031-0.773-0.031
		c-1.378,0-2.503,0.334-3.375,1.001c-0.873,0.668-1.373,1.575-1.499,2.721v8.944h-5.6v-17.414h5.6v2.935
		C167.849,241.483,168.627,240.705,169.584,240.158z"/>
	<path fill="#3F3936" d="M188.198,240.465c1.446,0.73,2.561,1.77,3.344,3.116c0.783,1.346,1.175,2.901,1.175,4.669
		c0,1.767-0.392,3.322-1.175,4.669c-0.783,1.346-1.897,2.39-3.344,3.131s-3.105,1.112-4.977,1.112c-1.894,0-3.556-0.371-4.984-1.112
		c-1.431-0.741-2.545-1.785-3.344-3.131s-1.199-2.902-1.199-4.669c0-1.768,0.398-3.323,1.199-4.669
		c0.799-1.347,1.914-2.385,3.344-3.116c1.43-0.73,3.091-1.096,4.984-1.096C185.093,239.369,186.752,239.735,188.198,240.465z
		 M180.406,245.048c-0.72,0.841-1.08,1.93-1.08,3.265c0,1.356,0.36,2.45,1.08,3.281s1.659,1.246,2.816,1.246
		c1.146,0,2.078-0.415,2.8-1.246c0.72-0.831,1.081-1.924,1.081-3.281c0-1.335-0.36-2.424-1.081-3.265
		c-0.722-0.841-1.654-1.262-2.8-1.262C182.064,243.786,181.126,244.207,180.406,245.048z"/>
	<path fill="#3F3936" d="M208.767,240.465c1.445,0.73,2.561,1.77,3.344,3.116c0.783,1.346,1.175,2.901,1.175,4.669
		c0,1.767-0.392,3.322-1.175,4.669c-0.783,1.346-1.898,2.39-3.344,3.131c-1.446,0.741-3.105,1.112-4.978,1.112
		c-1.893,0-3.555-0.371-4.983-1.112c-1.432-0.741-2.545-1.785-3.345-3.131c-0.799-1.346-1.198-2.902-1.198-4.669
		c0-1.768,0.398-3.323,1.198-4.669c0.8-1.347,1.914-2.385,3.345-3.116c1.43-0.73,3.091-1.096,4.983-1.096
		C205.662,239.369,207.321,239.735,208.767,240.465z M200.975,245.048c-0.721,0.841-1.08,1.93-1.08,3.265
		c0,1.356,0.359,2.45,1.08,3.281c0.72,0.831,1.658,1.246,2.815,1.246c1.146,0,2.079-0.415,2.8-1.246s1.081-1.924,1.081-3.281
		c0-1.335-0.359-2.424-1.081-3.265c-0.721-0.841-1.653-1.262-2.8-1.262C202.633,243.786,201.695,244.207,200.975,245.048z"/>
	<path fill="#3F3936" d="M223.381,237.674c-0.356,0.331-0.535,0.796-0.535,1.396v1.263h3.942v3.69h-3.942v12.95h-5.521v-12.95
		h-2.366v-3.69h2.366v-1.609c0-1.872,0.623-3.336,1.869-4.393c1.246-1.058,2.842-1.585,4.787-1.585c0.861,0,1.722,0.107,2.579,0.323
		c0.856,0.217,1.622,0.519,2.295,0.907l-1.973,3.912c-0.305-0.242-0.644-0.42-1.017-0.537c-0.374-0.115-0.733-0.173-1.081-0.173
		C224.207,237.177,223.739,237.342,223.381,237.674z"/>
	<path fill="#3F3936" d="M249.29,240.465c1.446,0.73,2.562,1.77,3.344,3.116c0.783,1.346,1.176,2.901,1.176,4.669
		c0,1.767-0.393,3.322-1.176,4.669c-0.782,1.346-1.897,2.39-3.344,3.131c-1.445,0.741-3.104,1.112-4.977,1.112
		c-1.894,0-3.556-0.371-4.984-1.112c-1.431-0.741-2.545-1.785-3.344-3.131s-1.199-2.902-1.199-4.669
		c0-1.768,0.399-3.323,1.199-4.669c0.799-1.347,1.914-2.385,3.344-3.116c1.43-0.73,3.091-1.096,4.984-1.096
		C246.185,239.369,247.844,239.735,249.29,240.465z M241.497,245.048c-0.72,0.841-1.08,1.93-1.08,3.265
		c0,1.356,0.36,2.45,1.08,3.281s1.659,1.246,2.816,1.246c1.146,0,2.079-0.415,2.8-1.246c0.72-0.831,1.081-1.924,1.081-3.281
		c0-1.335-0.36-2.424-1.081-3.265s-1.654-1.262-2.8-1.262C243.156,243.786,242.217,244.207,241.497,245.048z"/>
	<path fill="#3F3936" d="M263.904,237.674c-0.357,0.331-0.536,0.796-0.536,1.396v1.263h3.943v3.69h-3.943v12.95h-5.521v-12.95
		h-2.366v-3.69h2.366v-1.609c0-1.872,0.623-3.336,1.868-4.393c1.246-1.058,2.843-1.585,4.787-1.585c0.862,0,1.723,0.107,2.579,0.323
		c0.857,0.217,1.622,0.519,2.295,0.907l-1.972,3.912c-0.305-0.242-0.644-0.42-1.017-0.537c-0.374-0.115-0.733-0.173-1.081-0.173
		C264.729,237.177,264.261,237.342,263.904,237.674z"/>
</g>
<g>
	<path fill="#3F3936" d="M152.177,280.347c1.346,0.678,2.396,1.643,3.154,2.896l-4.006,2.412c-0.862-1.209-2.035-1.809-3.518-1.798
		c-1.073,0-1.948,0.402-2.626,1.207c-0.679,0.805-1.018,1.864-1.018,3.179c0,1.336,0.331,2.407,0.994,3.218
		c0.663,0.81,1.546,1.215,2.65,1.215c1.641,0,2.822-0.657,3.549-1.972l4.07,2.382c-0.716,1.293-1.754,2.29-3.115,2.988
		c-1.362,0.7-2.963,1.05-4.804,1.05c-1.767,0-3.325-0.371-4.677-1.112s-2.406-1.78-3.163-3.115s-1.136-2.876-1.136-4.622
		c0-1.767,0.378-3.328,1.136-4.685s1.819-2.405,3.187-3.146s2.943-1.111,4.731-1.111
		C149.301,279.33,150.831,279.669,152.177,280.347z"/>
	<path fill="#3F3936" d="M170.982,280.426c1.446,0.73,2.561,1.77,3.344,3.116c0.783,1.346,1.175,2.901,1.175,4.669
		c0,1.767-0.392,3.323-1.175,4.669s-1.897,2.39-3.344,3.131s-3.105,1.112-4.978,1.112c-1.893,0-3.555-0.371-4.983-1.112
		c-1.432-0.741-2.545-1.785-3.344-3.131c-0.8-1.346-1.199-2.902-1.199-4.669c0-1.768,0.398-3.323,1.199-4.669
		c0.799-1.347,1.913-2.384,3.344-3.116c1.43-0.73,3.091-1.096,4.983-1.096C167.877,279.33,169.536,279.695,170.982,280.426z
		 M163.19,285.008c-0.72,0.841-1.08,1.93-1.08,3.265c0,1.356,0.36,2.45,1.08,3.281s1.659,1.246,2.815,1.246
		c1.146,0,2.079-0.415,2.801-1.246c0.72-0.831,1.081-1.924,1.081-3.281c0-1.335-0.36-2.424-1.081-3.265
		c-0.722-0.841-1.654-1.262-2.801-1.262C164.849,283.747,163.91,284.167,163.19,285.008z"/>
	<path fill="#3F3936" d="M194.532,281.088c1.162,1.215,1.743,2.837,1.743,4.866v10.979h-5.568V287.5
		c0-1.011-0.273-1.812-0.819-2.405c-0.548-0.594-1.293-0.892-2.24-0.892c-0.988,0-1.801,0.323-2.438,0.97
		c-0.636,0.646-1.007,1.496-1.111,2.547v9.212h-5.601v-17.414h5.601v2.839c1.229-2.028,3.165-3.06,5.805-3.092
		C191.827,279.267,193.37,279.874,194.532,281.088z"/>
	<path fill="#3F3936" d="M212.589,280.347c1.347,0.678,2.397,1.643,3.155,2.896l-4.006,2.412c-0.862-1.209-2.035-1.809-3.518-1.798
		c-1.073,0-1.948,0.402-2.626,1.207c-0.679,0.805-1.018,1.864-1.018,3.179c0,1.336,0.331,2.407,0.994,3.218
		c0.663,0.81,1.546,1.215,2.65,1.215c1.641,0,2.822-0.657,3.549-1.972l4.069,2.382c-0.715,1.293-1.753,2.29-3.114,2.988
		c-1.362,0.7-2.963,1.05-4.804,1.05c-1.767,0-3.325-0.371-4.677-1.112s-2.406-1.78-3.163-3.115s-1.136-2.876-1.136-4.622
		c0-1.767,0.378-3.328,1.136-4.685c0.757-1.356,1.819-2.405,3.187-3.146s2.943-1.111,4.731-1.111
		C209.713,279.33,211.243,279.669,212.589,280.347z"/>
	<path fill="#3F3936" d="M232.514,281.798c1.52,1.646,2.278,3.936,2.278,6.869c0,0.474-0.01,0.826-0.03,1.057h-12.24
		c0.284,1.031,0.777,1.827,1.481,2.39c0.704,0.563,1.578,0.845,2.619,0.845c0.778,0,1.521-0.15,2.225-0.449
		c0.703-0.3,1.351-0.744,1.939-1.333l2.935,2.887c-0.905,0.988-2.003,1.746-3.298,2.271c-1.293,0.525-2.724,0.789-4.291,0.789
		c-1.871,0-3.501-0.365-4.89-1.098c-1.388-0.729-2.461-1.764-3.218-3.099s-1.136-2.887-1.136-4.653c0-1.766,0.384-3.328,1.15-4.685
		c0.769-1.356,1.835-2.405,3.202-3.146s2.944-1.111,4.732-1.111C228.815,279.33,230.995,280.153,232.514,281.798z M228.476,284.172
		c-0.615-0.643-1.428-0.962-2.438-0.962c-0.946,0-1.743,0.314-2.39,0.945c-0.646,0.632-1.061,1.488-1.238,2.571h6.988
		C229.399,285.666,229.091,284.814,228.476,284.172z"/>
	<path fill="#3F3936" d="M253.012,280.442c1.24,0.741,2.199,1.79,2.879,3.146c0.678,1.356,1.017,2.929,1.017,4.716
		c0,1.746-0.334,3.287-1.001,4.622c-0.668,1.335-1.606,2.369-2.816,3.099c-1.209,0.731-2.617,1.098-4.227,1.098
		c-1.115,0-2.127-0.217-3.037-0.647s-1.675-1.051-2.295-1.861v8.581h-5.584v-23.676h5.584v2.303c0.62-0.799,1.373-1.413,2.256-1.845
		c0.883-0.431,1.866-0.646,2.949-0.646C250.347,279.33,251.771,279.7,253.012,280.442z M250.197,291.428
		c0.72-0.852,1.08-1.945,1.08-3.281c0-1.335-0.36-2.423-1.08-3.265c-0.721-0.841-1.659-1.262-2.816-1.262
		c-1.114,0-2.034,0.421-2.76,1.262c-0.726,0.842-1.088,1.93-1.088,3.265c0,1.357,0.355,2.456,1.065,3.297
		c0.709,0.842,1.638,1.263,2.783,1.263C248.538,292.706,249.476,292.28,250.197,291.428z"/>
	<path fill="#3F3936" d="M268.975,296.862c-0.82,0.216-1.651,0.323-2.492,0.323c-1.726,0-3.118-0.479-4.18-1.436
		c-1.062-0.957-1.594-2.319-1.594-4.085v-7.683h-2.429v-3.66h2.429v-4.842h5.553v4.812h4.559v3.69h-4.559v6.814
		c0,1.271,0.515,1.908,1.546,1.908c0.599,0,1.341-0.194,2.224-0.583l1.104,3.88C270.516,296.36,269.795,296.646,268.975,296.862z"/>
</g>
<g>
	<path fill="#3F3936" d="M156.821,192.88c1.725,1.981,2.587,4.813,2.587,8.494c0,3.702-0.862,6.543-2.587,8.525
		s-4.19,2.974-7.398,2.974c-3.228,0-5.71-0.991-7.444-2.974c-1.735-1.981-2.604-4.823-2.604-8.525c0-3.681,0.867-6.513,2.604-8.494
		c1.734-1.982,4.217-2.974,7.444-2.974C152.631,189.906,155.097,190.898,156.821,192.88z M146.261,195.799
		c-0.646,1.13-0.971,2.989-0.971,5.576s0.323,4.451,0.971,5.592c0.646,1.141,1.7,1.711,3.162,1.711c1.421,0,2.458-0.576,3.116-1.727
		c0.657-1.151,0.986-3.011,0.986-5.576s-0.329-4.419-0.986-5.561c-0.658-1.141-1.695-1.711-3.116-1.711
		C147.962,194.103,146.908,194.668,146.261,195.799z"/>
	<path fill="#3F3936" d="M164.988,212.716v-18.029h-4.18v-4.622h9.922v22.651H164.988z"/>
</g>
<polygon fill="#45FFD3" points="740.002,468.999 420.002,468.999 420.002,306.295 420.002,126 740.002,126 "/>
<g>
	<path fill="#3F3936" d="M484.226,236.404c1.598,1.367,2.396,3.312,2.396,5.836c0,2.65-0.8,4.708-2.396,6.176
		c-1.599,1.467-3.839,2.199-6.72,2.199h-4.102v6.357h-5.758v-22.62h9.858C480.387,234.353,482.628,235.037,484.226,236.404z
		 M473.405,246.089h3.816c1.271,0,2.25-0.313,2.934-0.938c0.685-0.625,1.025-1.532,1.025-2.721c0-1.167-0.344-2.05-1.033-2.65
		c-0.688-0.599-1.664-0.898-2.926-0.898h-3.816V246.089z"/>
	<path fill="#3F3936" d="M497.184,240.158c0.956-0.548,2.062-0.831,3.312-0.853v5.032c-0.169-0.021-0.426-0.031-0.771-0.031
		c-1.379,0-2.504,0.334-3.376,1.001c-0.873,0.668-1.372,1.575-1.499,2.721v8.944h-5.6v-17.414h5.6v2.935
		C495.448,241.483,496.227,240.705,497.184,240.158z"/>
	<path fill="#3F3936" d="M516.95,241.838c1.521,1.646,2.279,3.936,2.279,6.869c0,0.474-0.011,0.826-0.031,1.057h-12.239
		c0.282,1.031,0.776,1.827,1.481,2.39c0.704,0.562,1.577,0.845,2.618,0.845c0.778,0,1.52-0.15,2.224-0.449
		c0.705-0.3,1.353-0.744,1.94-1.333l2.935,2.887c-0.905,0.988-2.004,1.746-3.297,2.271c-1.294,0.525-2.725,0.789-4.291,0.789
		c-1.871,0-3.502-0.365-4.89-1.098c-1.389-0.729-2.461-1.764-3.218-3.099c-0.759-1.335-1.137-2.887-1.137-4.653
		c0-1.766,0.384-3.328,1.151-4.685s1.835-2.405,3.202-3.146c1.366-0.741,2.943-1.111,4.73-1.111
		C513.252,239.369,515.431,240.192,516.95,241.838z M512.911,244.212c-0.613-0.643-1.427-0.962-2.437-0.962
		c-0.946,0-1.743,0.314-2.391,0.945c-0.646,0.632-1.06,1.488-1.237,2.571h6.987C513.836,245.705,513.526,244.854,512.911,244.212z"
		/>
	<path fill="#3F3936" d="M537.448,240.481c1.24,0.741,2.199,1.79,2.879,3.146c0.679,1.356,1.018,2.929,1.018,4.716
		c0,1.746-0.334,3.287-1.001,4.622c-0.668,1.335-1.607,2.369-2.816,3.099c-1.209,0.731-2.618,1.098-4.227,1.098
		c-1.115,0-2.127-0.217-3.037-0.647s-1.675-1.051-2.295-1.861v8.581h-5.584v-23.676h5.584v2.303c0.62-0.799,1.373-1.414,2.256-1.845
		s1.866-0.646,2.949-0.646C534.782,239.369,536.207,239.74,537.448,240.481z M534.633,251.468c0.721-0.852,1.08-1.945,1.08-3.281
		c0-1.335-0.359-2.423-1.08-3.265c-0.722-0.841-1.658-1.262-2.815-1.262c-1.114,0-2.034,0.421-2.761,1.262
		c-0.725,0.842-1.088,1.93-1.088,3.265c0,1.357,0.354,2.456,1.063,3.297c0.71,0.842,1.64,1.263,2.784,1.263
		C532.974,252.745,533.911,252.319,534.633,251.468z"/>
</g>
<g>
	<path fill="#3F3936" d="M476.701,296.862c-0.819,0.216-1.65,0.323-2.491,0.323c-1.726,0-3.118-0.479-4.182-1.436
		c-1.062-0.957-1.592-2.319-1.592-4.085v-7.683h-2.43v-3.66h2.43v-4.842h5.552v4.812h4.56v3.69h-4.56v6.814
		c0,1.271,0.516,1.908,1.546,1.908c0.601,0,1.341-0.194,2.226-0.583l1.104,3.88C478.241,296.36,477.521,296.646,476.701,296.862z"/>
	<path fill="#3F3936" d="M489.59,280.119c0.956-0.548,2.061-0.831,3.312-0.853v5.032c-0.169-0.021-0.426-0.031-0.772-0.031
		c-1.379,0-2.504,0.334-3.375,1.001c-0.873,0.668-1.373,1.575-1.499,2.722v8.943h-5.601V279.52h5.601v2.935
		C487.853,281.443,488.633,280.666,489.59,280.119z"/>
	<path fill="#3F3936" d="M508.606,280.931c1.324,1.11,1.998,2.653,2.019,4.63v11.373h-5.457v-2.003
		c-0.558,0.736-1.287,1.296-2.191,1.68c-0.905,0.385-1.951,0.576-3.14,0.576c-1.829,0-3.284-0.505-4.361-1.514
		c-1.078-1.01-1.616-2.324-1.616-3.943c0-1.662,0.575-2.95,1.728-3.865c1.151-0.914,2.805-1.383,4.961-1.403h4.59v-0.252
		c0-0.862-0.283-1.535-0.853-2.02c-0.567-0.482-1.414-0.726-2.539-0.726c-0.735,0-1.562,0.124-2.477,0.371
		c-0.916,0.247-1.825,0.606-2.729,1.081l-1.577-3.676c1.42-0.662,2.771-1.156,4.054-1.481c1.283-0.326,2.624-0.489,4.021-0.489
		C505.426,279.267,507.281,279.821,508.606,280.931z M503.883,292.753c0.668-0.441,1.086-1.021,1.254-1.735v-1.546h-3.519
		c-0.842,0-1.473,0.15-1.893,0.45c-0.421,0.299-0.631,0.774-0.631,1.427c0,0.643,0.215,1.146,0.646,1.514
		c0.433,0.369,1.035,0.553,1.814,0.553C502.438,293.416,503.215,293.195,503.883,292.753z"/>
	<path fill="#3F3936" d="M519.514,272.397c0.552,0.553,0.828,1.259,0.828,2.121c0,0.863-0.276,1.572-0.828,2.13
		s-1.259,0.836-2.122,0.836c-0.861,0-1.566-0.278-2.113-0.836s-0.819-1.267-0.819-2.13c0-0.862,0.272-1.568,0.819-2.121
		c0.547-0.552,1.252-0.828,2.113-0.828C518.256,271.569,518.963,271.845,519.514,272.397z M514.586,296.933v-17.414h5.566v17.414
		H514.586z"/>
	<path fill="#3F3936" d="M540.649,281.088c1.162,1.215,1.744,2.837,1.744,4.866v10.979h-5.568V287.5
		c0-1.011-0.272-1.812-0.819-2.405s-1.293-0.892-2.24-0.892c-0.988,0-1.801,0.323-2.438,0.97c-0.636,0.646-1.006,1.496-1.11,2.547
		v9.212h-5.601v-17.414h5.601v2.839c1.229-2.028,3.165-3.06,5.805-3.092C537.944,279.267,539.487,279.874,540.649,281.088z"/>
	<path fill="#3F3936" d="M551.282,272.397c0.553,0.553,0.828,1.259,0.828,2.121c0,0.863-0.275,1.572-0.828,2.13
		s-1.26,0.836-2.122,0.836c-0.861,0-1.566-0.278-2.113-0.836s-0.82-1.267-0.82-2.13c0-0.862,0.273-1.568,0.82-2.121
		c0.547-0.552,1.252-0.828,2.113-0.828C550.022,271.569,550.729,271.845,551.282,272.397z M546.353,296.933v-17.414h5.568v17.414
		H546.353z"/>
	<path fill="#3F3936" d="M572.419,281.088c1.161,1.215,1.742,2.837,1.742,4.866v10.979h-5.567V287.5c0-1.011-0.273-1.812-0.82-2.405
		s-1.293-0.892-2.24-0.892c-0.987,0-1.801,0.323-2.437,0.97s-1.007,1.496-1.112,2.547v9.212h-5.6v-17.414h5.6v2.839
		c1.23-2.028,3.166-3.06,5.805-3.092C569.714,279.267,571.257,279.874,572.419,281.088z"/>
	<path fill="#3F3936" d="M594.956,295.356c0,1.619-0.393,3.042-1.176,4.268c-0.783,1.225-1.888,2.166-3.312,2.821
		c-1.426,0.658-3.073,0.986-4.945,0.986c-1.461,0-2.859-0.211-4.195-0.631s-2.522-0.979-3.563-1.672l1.938-3.771
		c0.799,0.558,1.667,0.986,2.604,1.286c0.936,0.3,1.865,0.449,2.791,0.449c1.336,0,2.387-0.323,3.155-0.97
		c0.768-0.646,1.15-1.518,1.15-2.61v-1.846c-0.578,0.757-1.288,1.335-2.129,1.734c-0.842,0.4-1.805,0.601-2.887,0.601
		c-1.463,0-2.758-0.353-3.89-1.058c-1.131-0.705-2.014-1.695-2.649-2.974c-0.636-1.277-0.953-2.747-0.953-4.409
		c0-1.64,0.312-3.083,0.938-4.33c0.626-1.246,1.511-2.208,2.65-2.887s2.441-1.018,3.904-1.018c1.072,0,2.028,0.199,2.871,0.6
		c0.84,0.4,1.556,0.973,2.145,1.719v-2.129h5.553L594.956,295.356L594.956,295.356z M588.401,290.781
		c0.668-0.788,1.002-1.809,1.002-3.06c0-1.271-0.334-2.3-1.002-3.083s-1.543-1.175-2.626-1.175c-1.094,0-1.979,0.392-2.657,1.175
		s-1.018,1.812-1.018,3.083c0,1.251,0.339,2.271,1.018,3.06c0.679,0.789,1.563,1.184,2.657,1.184
		C586.858,291.964,587.733,291.57,588.401,290.781z"/>
</g>
<g>
	<path fill="#3F3936" d="M484.453,192.88c1.726,1.981,2.588,4.813,2.588,8.494c0,3.702-0.862,6.543-2.588,8.525
		c-1.725,1.982-4.189,2.974-7.396,2.974c-3.229,0-5.711-0.991-7.445-2.974c-1.734-1.981-2.603-4.823-2.603-8.525
		c0-3.681,0.867-6.513,2.603-8.494c1.734-1.982,4.217-2.974,7.445-2.974C480.263,189.906,482.728,190.898,484.453,192.88z
		 M473.893,195.799c-0.646,1.13-0.97,2.989-0.97,5.576s0.322,4.451,0.97,5.592s1.701,1.711,3.163,1.711
		c1.42,0,2.457-0.576,3.115-1.727c0.655-1.151,0.985-3.011,0.985-5.576s-0.33-4.419-0.985-5.561
		c-0.658-1.141-1.695-1.711-3.115-1.711C475.594,194.103,474.54,194.668,473.893,195.799z"/>
	<path fill="#3F3936" d="M502.094,190.57c1.172,0.483,2.087,1.173,2.744,2.066c0.655,0.894,0.985,1.935,0.985,3.124
		c0,1.167-0.371,2.369-1.112,3.604c-0.74,1.236-1.789,2.542-3.146,3.921l-4.59,4.874h9.527v4.559h-16.927v-3.723l8.076-8.55
		c0.642-0.693,1.162-1.391,1.562-2.09c0.397-0.699,0.6-1.296,0.6-1.791c0-0.641-0.227-1.146-0.679-1.514s-1.078-0.552-1.878-0.552
		c-0.904,0-1.894,0.252-2.966,0.757c-1.071,0.505-2.141,1.209-3.201,2.114l-2.161-4.134c3.018-2.261,6.078-3.391,9.181-3.391
		C499.593,189.844,500.92,190.086,502.094,190.57z"/>
</g>
</svg>
